<svg xmlns="http://www.w3.org/2000/svg" width="170.911" height="143.052" viewBox="0 0 170.911 143.052"><defs><style>.a{fill:#061832;}.b{fill:#f3f5f4;}.c{fill:#9ab5a9;}.d{fill:#fff;}.e{fill:#a8c47a;}.f{fill:#84a05c;}.g{opacity:0.47;}.h{fill:#ffc83e;}.i{fill:#f28b0f;}.j{opacity:0.32;}.k{fill:#b78f74;}.l{fill:#936241;}.m{opacity:0.2;}.n{opacity:0.73;}.o{opacity:0.08;}.p{fill:#d3e0db;}.q{fill:#b6cec4;}.r{fill:#8e1c02;}.s{opacity:0.52;}.t{fill:#070208;}.u{fill:#fcdccd;}.v{fill:#524e53;}.w{opacity:0.39;}.x{fill:#2d0202;}.y{opacity:0.78;}.z{fill:#f2ad94;}.aa{fill:#530905;}.ab{fill:#fdb23d;}.ac{opacity:0.67;}.ad{fill:#c46906;}.ae{fill:#571e1e;}.af{opacity:0.55;}.ag{fill:#f98262;}.ah{opacity:0.68;}.ai{opacity:0.63;}.aj{fill:#0b3f42;}.ak{fill:#72120c;}.al{opacity:0.69;}.am{fill:#c73f00;}.an{fill:#ac2a03;}.ao{fill:#ea9378;}.ap{fill:#282828;}.aq{fill:#fed45c;stroke:#fed45c;stroke-width:2px;}</style></defs><g transform="translate(-929 -2551.763)"><g transform="translate(36.647 2177.919)"><g transform="translate(892.353 373.844)"><g transform="translate(24.623 136.388)"><path class="a" d="M1407.886,2662.887c-7.229.431-14.495.855-21.639-.076a37.7,37.7,0,0,0-6.4-.765c-7.418.265-14.806.812-22.238.9-14.985.188-29.973-.216-44.957.137a18.814,18.814,0,0,0-5.6.854c-.778.23-1.584.8-1.6,1.614-.024,1.172,1.461,1.674,2.624,1.818,16.448,2.033,32.7.75,49.144,1.159q6.7.167,13.413.17,22.356.01,44.664-1.8c1.166-.095,11.346.394,11.293-1.8a.857.857,0,0,0-.274-.518c-2.015-2.243-4.906-2.23-7.773-2.187C1415.014,2662.46,1411.455,2662.675,1407.886,2662.887Z" transform="translate(-1305.453 -2662.039)"/></g><g transform="translate(0)"><g transform="translate(5.389 3.13)"><path class="b" d="M1147.785,496.975v0a41.252,41.252,0,0,1-2.386,9.012q-.307.779-.647,1.548-.717,1.615-1.592,3.171-.1.183-.209.366-.333.575-.687,1.141-.393.626-.8,1.236a50.853,50.853,0,0,1-5.709,7.057q-1.56,1.613-3.244,3.086-1.247,1.094-2.558,2.114-2.115,1.65-4.379,3.112a75.047,75.047,0,0,1-13.007,6.652q-1.428.571-2.879,1.093c-2.659.959-5.369,1.8-8.107,2.534q-1.136.306-2.278.586a137.6,137.6,0,0,1-21.712,3.423c-4.429.356-8.867.508-13.306.488q-1.1,0-2.2-.024a238.758,238.758,0,0,1-32.575-3.047c-8.612-1.34-17.31-3.041-25.077-7-11.488-5.85-17.949-16.589-20.447-28.68A58.326,58.326,0,0,1,983,498a71.278,71.278,0,0,1,1.346-20.547,72.782,72.782,0,0,1,2.333-8.513c.711-2.086,1.509-4.1,2.385-6.026.618-1.357,1.235-2.591,1.882-3.738l.018-.031h0a31.716,31.716,0,0,1,3.642-5.207,39.671,39.671,0,0,1,3.563-3.6q.323-.29.648-.576.557-.491,1.124-.97a79.289,79.289,0,0,1,7.327-5.492q2.773-1.843,5.685-3.461a96.491,96.491,0,0,1,16.377-7.17,112.51,112.51,0,0,1,14.91-3.85,141.04,141.04,0,0,1,21.931-2.411q1.609-.045,3.219-.048c3.089,0,6.173.111,9.229.364a88,88,0,0,1,14.907,2.473c2.482.646,4.969,1.423,7.44,2.326h0a85.739,85.739,0,0,1,18.861,9.68,78.854,78.854,0,0,1,7.908,6.161q2.074,1.844,4,3.83a65.207,65.207,0,0,1,6.936,8.47q.169.246.335.494.776,1.159,1.5,2.35.362.6.709,1.208.18.314.355.631l.095.172a52.986,52.986,0,0,1,4.231,9.948,55.282,55.282,0,0,1,1.529,6.246s0,0,0,0,0,0,0,0,0,0,0,0A49.7,49.7,0,0,1,1147.785,496.975Z" transform="translate(-982.765 -426.351)"/></g><path class="c" d="M983.541,497.647c-13.478,0-27.982-1.776-45.244-5.519-15.622-3.388-31.228-8.611-39.576-23.766a52.229,52.229,0,0,1-5.777-18.291,70.508,70.508,0,0,1,.325-20.4,66.648,66.648,0,0,1,6.186-19.356,46.885,46.885,0,0,1,11.835-15.162,86.232,86.232,0,0,1,22.987-13.4,108.875,108.875,0,0,1,25.684-6.612,133.749,133.749,0,0,1,27.669-.976,144.339,144.339,0,0,1,20.757,2.711c.862.194-.149-.064,2.584.58s30.745,9.768-.132.594q-1.293-.288-2.586-.58a143.76,143.76,0,0,0-20.668-2.7,133.157,133.157,0,0,0-27.543.972c-18.934,2.553-35.659,9.427-48.366,19.88-18.51,15.227-24.547,50.432-12.423,72.441,8.231,14.942,23.691,20.108,39.173,23.465,18.932,4.105,34.532,5.838,49.094,5.453l.478-.014a137.315,137.315,0,0,0,19.239-1.753c23.765-4.048,52.428-18.913,55-47.483a.3.3,0,0,1,.606.054,43.452,43.452,0,0,1-6.191,18.868,51.868,51.868,0,0,1-13.027,14.171c-9.6,7.315-22.481,12.638-36.283,14.989a137.928,137.928,0,0,1-19.324,1.761l-.478.013Q985.552,497.647,983.541,497.647Z" transform="translate(-892.353 -373.844)"/><g transform="translate(8.673 3.013)"><g transform="translate(0.117 0.117)"><path class="d" d="M1194.152,462.5v40.761H1039.874q-.025-.965-.038-1.929c0-.247-.006-.494-.009-.741-.036-3.706.051-7.418.256-11.115a162.563,162.563,0,0,1,4.513-30.254h0l.02-.08h0a31.723,31.723,0,0,1,3.642-5.207,39.664,39.664,0,0,1,3.563-3.6q.323-.29.648-.576.557-.491,1.124-.97a79.288,79.288,0,0,1,7.327-5.492q2.773-1.843,5.685-3.461a96.489,96.489,0,0,1,16.377-7.17,112.512,112.512,0,0,1,14.91-3.85,141.037,141.037,0,0,1,21.931-2.411q1.609-.045,3.219-.048c3.089,0,6.173.111,9.229.364a88,88,0,0,1,14.907,2.473c2.482.646,4.969,1.423,7.44,2.326h0a85.739,85.739,0,0,1,18.861,9.68,78.882,78.882,0,0,1,7.908,6.161q2.074,1.844,4,3.83a65.2,65.2,0,0,1,6.936,8.47q.169.246.335.494Q1193.432,461.309,1194.152,462.5Z" transform="translate(-1039.819 -426.351)"/></g><g transform="translate(82.979 39.057)"><g transform="translate(55.964 6.738)"><path class="e" d="M3368.992,1200.007c-.239-2.671.058-5.112,3.175-7.315a4.227,4.227,0,0,1,.035,4.534A7.446,7.446,0,0,1,3368.992,1200.007Z" transform="translate(-3368.928 -1192.692)"/></g><path class="e" d="M2494.949,1099.549c-1.759-.774-5.725-1.013-7.65.509a2.742,2.742,0,0,0-1.013,1.571c.64-2.833-.028-5.474-.247-7.923q-.116.059-.233.113l-.028-1.438c-2.649-7.991-10.659-14.067-18.951-12.472-2.736.526-6.218,3.012-7.1,6.128h0a5.257,5.257,0,0,0-.02,2.867s0,0,0,0c.015.059.033.116.052.175l-.078-.039h0q-.607-.3-1.249-.551h0l-.08-.032c-.161-.063-.324-.124-.488-.182h0a21.318,21.318,0,0,0-8.025-1.153h0a19.576,19.576,0,0,0-2.57.288h0a15.9,15.9,0,0,0-2.98.83,17.563,17.563,0,0,0-7.216,5.5,29.871,29.871,0,0,0-5.376,11.225c-.862,3.376-.848,6.793-1.571,10.188-.039.18-.075.36-.112.541h50.81a6.769,6.769,0,0,1,.84,4.007c3.663-.208,7.487-1.334,9.959-4.007h8.03v-12.974A15.012,15.012,0,0,0,2494.949,1099.549Zm-9.09-3.024-.04-2.047A3.7,3.7,0,0,1,2485.859,1096.525Z" transform="translate(-2430.012 -1079.654)"/><g transform="translate(35.964 8.83)"><path class="f" d="M3034.113,1237.286c-.157,0,.02.282.138.179s.059-.294,0-.437a10.512,10.512,0,0,1,.412-9.23,8,8,0,0,1-.3,9.306Z" transform="translate(-3033.373 -1227.798)"/></g><g class="g" transform="translate(41.922 16.77)"><path class="f" d="M3134.339,1370.488c-.156,0,.021.282.138.179s.072-.3,0-.437c-1.919-3.415-1.14-6.44.412-9.23,1.905,2.728,3.176,5.678-.3,9.306Z" transform="translate(-3133.34 -1360.999)"/></g><g class="g" transform="translate(0 14.086)"><path class="f" d="M2453.615,1334.271a19.1,19.1,0,0,1,8.773,3.662h-32.376c.036-.181.073-.361.112-.541.723-3.4.708-6.812,1.571-10.188a29.87,29.87,0,0,1,5.376-11.225,19.194,19.194,0,0,0,1.015,2.467q1.465,3.087,3.187,6.044c2.037,3.5,5.537,6.355,8.9,8.494-.06-2.742,2.563-5.481,5-6.543a3.94,3.94,0,0,1,.817,4.184A11.388,11.388,0,0,1,2453.615,1334.271Z" transform="translate(-2430.012 -1315.979)"/></g><g class="g" transform="translate(43.556 32.009)"><path class="f" d="M3168,1620.709h-7.132a7.6,7.6,0,0,1,.353-4.019A7.5,7.5,0,0,1,3168,1620.709Z" transform="translate(-3160.751 -1616.678)"/></g><g class="g" transform="translate(53.036 19.286)"><path class="f" d="M3336.4,1406.99v12.973h-8.03q.185-.2.361-.414c2.45-2.973,2.62-7.969-.394-10.369a10.246,10.246,0,0,1-4.764,1.909c-1.729.07-3.638-1.065-3.777-2.79a6.612,6.612,0,0,0,5.6-.427c-1.36-.411-1.876-2.222-1.349-3.542v0c1.924-1.522,5.891-1.283,7.649-.509A15.009,15.009,0,0,1,3336.4,1406.99Z" transform="translate(-3319.798 -1403.208)"/></g><g transform="translate(14.513 3.61)"><path class="e" d="M2678.278,1145.526l-.044-.017a7.915,7.915,0,0,1-4.729-5.238,4.743,4.743,0,0,1,5.334,5.5Z" transform="translate(-2673.505 -1140.227)"/></g><g transform="translate(26.919 2.707)"><path class="f" d="M2883.811,1133.239l-.643-1.152a11.184,11.184,0,0,1-1.466-3.516,3.794,3.794,0,0,1,1.049-3.507,7.95,7.95,0,0,1,1.274,7.886l-1.135-2.247Z" transform="translate(-2881.636 -1125.064)"/></g><g transform="translate(46.188 3.31)"><path class="f" d="M3205.766,1142.03l-.311-1.055a9.332,9.332,0,0,1-.544-3.128,3.163,3.163,0,0,1,1.5-2.657,6.626,6.626,0,0,1-.418,6.645l-.508-2.035Z" transform="translate(-3204.904 -1135.19)"/></g><g transform="translate(14.544 17.126)"><path class="f" d="M2680.413,1370.449a6.945,6.945,0,0,1-6.4-2.941,4.087,4.087,0,0,1,4.291.189,12.022,12.022,0,0,1,3.138,3.236Z" transform="translate(-2674.015 -1366.982)"/></g><g transform="translate(26.164 11.577)"><path class="h" d="M2870.419,1277.273a1.743,1.743,0,0,0,.848-2.988c-1.082-1.191-2.657.454-2.217,1.783C2869.354,1276.985,2869.9,1277.314,2870.419,1277.273Z" transform="translate(-2868.974 -1273.874)"/></g><g transform="translate(42.286 25.925)"><path class="h" d="M3140.883,1518a1.743,1.743,0,0,0,.848-2.988c-1.082-1.191-2.657.454-2.217,1.783C3139.818,1517.709,3140.36,1518.038,3140.883,1518Z" transform="translate(-3139.438 -1514.598)"/></g><g transform="translate(58.149 30.471)"><path class="i" d="M3407.021,1594.268a1.743,1.743,0,0,0,.848-2.988c-1.082-1.191-2.657.454-2.217,1.783C3405.955,1593.979,3406.5,1594.309,3407.021,1594.268Z" transform="translate(-3405.575 -1590.869)"/></g><g transform="translate(27.447 26.037)"><path class="h" d="M2891.3,1518.443c.543-.009.994-.9.328-1.7-.6-.73-1.357.166-1.081.952C2890.74,1518.236,2891.032,1518.447,2891.3,1518.443Z" transform="translate(-2890.49 -1516.471)"/></g><g transform="translate(44.161 2.753)"><path class="h" d="M3171.709,1127.816c.544-.009.994-.9.329-1.7-.6-.73-1.357.166-1.081.952C3171.148,1127.61,3171.44,1127.821,3171.709,1127.816Z" transform="translate(-3170.898 -1125.845)"/></g></g><g class="j" transform="translate(59.338 4.574)"><path class="e" d="M2041.328,525.9s-4.351.886-4.771-2.367-.149-2.6-2.239-5.709-.357-7.385,1.927-9.165.831-5.116,4.324-7.126c2.121-1.22,6.114.4,6.849,4.265.627,3.3,1.777,2.174,3.622,4.8s.147,6.386-2.052,8.306S2047.741,528.281,2041.328,525.9Z" transform="translate(-2033.379 -501.135)"/><g transform="translate(3.14 10.318)"><path class="f" d="M2086.056,677.321a3.3,3.3,0,0,0,4.522-1.807,4.38,4.38,0,0,0,4.862-1.275s.707,3.16,4.557,2.735c0,0-2.149,4.79-10.262,3.375A5.555,5.555,0,0,1,2086.056,677.321Z" transform="translate(-2086.056 -674.239)"/></g><g transform="translate(0 11.208)"><path class="f" d="M2049.775,694.947a8.131,8.131,0,0,1-.784.788c-2.2,1.919-1.248,9.378-7.661,7,0,0-4.351.886-4.77-2.367s-.149-2.6-2.24-5.709a6.212,6.212,0,0,1-.556-5.482,9.882,9.882,0,0,0,.939,3.285c1.477,2.85,4.779.857,7.14,5.1C2044.059,701.551,2046.348,694.159,2049.775,694.947Z" transform="translate(-2033.38 -689.175)"/></g><g transform="translate(3.817 11.705)"><path class="k" d="M2097.412,719.449a61.8,61.8,0,0,0,5.17-16.969c.1-.672.191-1.3.263-1.887q.087-.7.146-1.308c.063-.621.107-1.167.138-1.625a4.292,4.292,0,0,0,.824-.147c.142,1.543.19,3.227.173,4.956q0,.294-.008.59c-.016.88-.048,1.769-.092,2.656a141.111,141.111,0,0,1-1.6,14.61Z" transform="translate(-2097.412 -697.513)"/></g><g transform="translate(9.568 13.048)"><path class="k" d="M2194.858,724.239a7.853,7.853,0,0,1,1.44-.672,4.753,4.753,0,0,0,.505-.217h0a8.424,8.424,0,0,0,3.235-3.313h0a4.957,4.957,0,0,0,.543.043,9.842,9.842,0,0,1-1.22,2.156,9.723,9.723,0,0,1-2.5,2.357,7.38,7.38,0,0,0-2.1,2.3s0,0,0,0a11.786,11.786,0,0,0-.863,1.661Z" transform="translate(-2193.903 -720.036)"/></g><g transform="translate(6.981 12.209)"><path class="k" d="M2152.936,708.65c-.055-.031-.113-.064-.172-.1a7.37,7.37,0,0,1-1.836-1.546c-.162-.19-.306-.379-.433-.562a3.925,3.925,0,0,0,.349-.468c.037.035.076.07.115.1a6.281,6.281,0,0,0,1.952,1.164c.075.028.148.054.219.078Q2153.033,707.984,2152.936,708.65Z" transform="translate(-2150.496 -705.974)"/></g><g transform="translate(1.592 0)"><path class="f" d="M2070.155,502.079c-1.108-.595-2.7-.086-2.485,2.725.3,3.981-4.014,5.208-7.574,5.19a6.786,6.786,0,0,1,1.274-1.333c2.285-1.779.831-5.116,4.325-7.126A4.345,4.345,0,0,1,2070.155,502.079Z" transform="translate(-2060.096 -501.136)"/></g><g transform="translate(9.176 19.907)"><path class="l" d="M2188.068,841.631a6.027,6.027,0,0,1-.656-3.571,10.849,10.849,0,0,1,1.173-2.948C2188.473,837.369,2188.281,839.608,2188.068,841.631Z" transform="translate(-2187.33 -835.112)"/></g><g transform="translate(8.542 14.786)"><path class="l" d="M2176.7,753.6c.176-.89.322-1.734.444-2.521.1-.671.191-1.3.263-1.887,0,0,.313.081.667.187C2178.395,749.476,2177.683,751.417,2176.7,753.6Z" transform="translate(-2176.696 -749.193)"/></g></g><g class="j" transform="translate(0.117 18.708)"><path class="e" d="M1121.727,767.028c5.022-6.8,12.932-10.839,20.846-13.819a124.823,124.823,0,0,1,43.141-7.989,6.013,6.013,0,0,1,2.946.495,5.684,5.684,0,0,1,2.178,2.824c2.79,6.165,3.721,12.984,4.6,19.693.7,5.3,1.38,10.75.138,15.953s-4.84,10.192-10.024,11.512a22.209,22.209,0,0,1-6.045.4l-36.205-.905c-5.185-.13-11.964-1.466-16.974-.138-2.019.535-3.092,1.52-5.405,1.773a91.218,91.218,0,0,1-9.523.044c-5.964.014-71.53-.271-71.53-.3q-.025-.965-.039-1.93c0-.246-.005-.494-.008-.741-.036-3.706.051-7.419.256-11.115a162.589,162.589,0,0,1,4.513-30.255l.021-.081a31.733,31.733,0,0,1,3.641-5.207,39.622,39.622,0,0,1,3.563-3.6q.323-.29.648-.577.557-.49,1.124-.969,2.393-2.023,4.936-3.842c1.471.038,2.943.149,4.4.3a92.816,92.816,0,0,1,23.534,5.282q1.935.746,3.838,1.573.624.272,1.246.552.437.2.87.4l.155.073q2.516,1.168,4.963,2.483.414.222.827.449l.329.182q1.223.678,2.424,1.392l.043.026.2.119.05.031q1.5.9,2.967,1.855.923.6,1.832,1.226.425.29.846.587,2.793,1.962,5.433,4.134C1115.684,761.539,1118.634,764.3,1121.727,767.028Z" transform="translate(-1039.819 -738.252)"/><g transform="translate(25.942 8.052)"><path class="f" d="M1475.12,879.881c-.11-.053-.078.207.039.172s.138-.189.139-.311a8.2,8.2,0,0,1,3.3-6.407,6.243,6.243,0,0,1-3.245,6.5Z" transform="translate(-1475.052 -873.335)"/></g><g class="g" transform="translate(27.76 15.705)"><path class="f" d="M1505.619,1008.289c-.11-.053-.078.207.039.172s.149-.19.139-.311c-.246-3.046,1.292-4.935,3.3-6.407.461,2.554.4,5.059-3.245,6.5Z" transform="translate(-1505.552 -1001.743)"/></g><g transform="translate(22.888 0.708)"><path class="f" d="M1423.967,756.261l-.08-1.026a8.727,8.727,0,0,1,.107-2.969,2.96,2.96,0,0,1,1.887-2.144,6.2,6.2,0,0,1-1.669,6l-.071-1.962Z" transform="translate(-1423.813 -750.122)"/></g><g transform="translate(36.005 7.546)"><path class="f" d="M1643.881,869.484l.124-.849a7.276,7.276,0,0,1,.634-2.394,2.467,2.467,0,0,1,1.929-1.394,5.169,5.169,0,0,1-2.463,4.573l.3-1.608Z" transform="translate(-1643.881 -864.847)"/></g><g transform="translate(10.523 6.872)"><path class="f" d="M1219.946,857.748a5.418,5.418,0,0,1-3.575-4.17,3.188,3.188,0,0,1,2.979,1.533,9.374,9.374,0,0,1,1.169,3.317Z" transform="translate(-1216.371 -853.55)"/></g><g transform="translate(26.809 22.206)"><path class="h" d="M1490.188,1113.286a1.36,1.36,0,0,0,1.575-1.841c-.379-1.2-2.031-.545-2.152.541C1489.527,1112.734,1489.8,1113.144,1490.188,1113.286Z" transform="translate(-1489.596 -1110.803)"/></g><g transform="translate(36.568 30.6)"><path class="i" d="M1653.92,1254.11a1.36,1.36,0,0,0,1.575-1.841c-.378-1.2-2.031-.545-2.152.541C1653.259,1253.558,1653.536,1253.968,1653.92,1254.11Z" transform="translate(-1653.328 -1251.627)"/></g><g transform="translate(16.569 17.23)"><path class="h" d="M1318.1,1028.8c.388.171,1-.31.787-1.1-.189-.714-1.016-.325-1.076.323C1317.769,1028.469,1317.907,1028.713,1318.1,1028.8Z" transform="translate(-1317.804 -1027.317)"/></g><g transform="translate(36.005 6.179)"><path class="h" d="M1644.177,843.4c.388.171,1-.311.787-1.1-.189-.714-1.016-.325-1.076.323C1643.846,843.075,1643.984,843.319,1644.177,843.4Z" transform="translate(-1643.88 -841.923)"/></g><g transform="translate(62.637 15.384)"><path class="f" d="M2090.755,1002.117c-.1-.073-.115.188.006.176s.171-.16.2-.279a8.2,8.2,0,0,1,4.452-5.668,6.243,6.243,0,0,1-4.413,5.769Z" transform="translate(-2090.676 -996.345)"/></g><g class="g" transform="translate(62.977 23.243)"><path class="f" d="M2096.468,1133.974c-.1-.073-.115.188.006.176s.183-.158.2-.28c.333-3.038,2.2-4.6,4.452-5.668-.03,2.6-.563,5.043-4.413,5.769Z" transform="translate(-2096.388 -1128.202)"/></g><g transform="translate(50.445 4.342)"><path class="e" d="M1887.152,816.593l-.02-.031a6.175,6.175,0,0,1-.622-5.469A3.7,3.7,0,0,1,1887.4,817Z" transform="translate(-1886.137 -811.093)"/></g><g transform="translate(61.265 7.316)"><path class="f" d="M2067.66,866.655l.115-1.023a8.745,8.745,0,0,1,.666-2.9,2.96,2.96,0,0,1,2.258-1.749,6.2,6.2,0,0,1-2.772,5.581l.3-1.94Z" transform="translate(-2067.66 -860.988)"/></g><g transform="translate(72.988 16.607)"><path class="f" d="M2264.334,1020.931l.281-.81a7.284,7.284,0,0,1,1.075-2.231,2.467,2.467,0,0,1,2.157-1.005,5.168,5.168,0,0,1-3.282,4.026l.6-1.522Z" transform="translate(-2264.334 -1016.868)"/></g><g transform="translate(45.116 15.866)"><path class="f" d="M1799.456,1009.208a5.418,5.418,0,0,1-2.724-4.77,3.188,3.188,0,0,1,2.636,2.068,9.381,9.381,0,0,1,.521,3.478Z" transform="translate(-1796.731 -1004.438)"/></g><g transform="translate(58.048 12.591)"><path class="h" d="M2014.1,951.809A1.36,1.36,0,0,0,2016,950.3c-.146-1.246-1.892-.918-2.216.125C2013.559,951.143,2013.753,951.6,2014.1,951.809Z" transform="translate(-2013.687 -949.494)"/></g><g transform="translate(61.761 29.012)"><path class="h" d="M2076.4,1227.3a1.36,1.36,0,0,0,1.895-1.511c-.146-1.246-1.892-.918-2.216.125C2075.857,1226.63,2076.051,1227.084,2076.4,1227.3Z" transform="translate(-2075.985 -1224.981)"/></g><g transform="translate(69.76 39.097)"><path class="i" d="M2210.608,1396.5a1.36,1.36,0,0,0,1.895-1.511c-.146-1.247-1.892-.918-2.216.125C2210.063,1395.829,2210.258,1396.283,2210.608,1396.5Z" transform="translate(-2210.191 -1394.18)"/></g><g transform="translate(52.764 22.077)"><path class="h" d="M1925.238,1110.023c.349.241,1.037-.117.981-.93-.051-.737-.936-.511-1.118.114C1924.976,1109.637,1925.065,1109.9,1925.238,1110.023Z" transform="translate(-1925.042 -1108.631)"/></g><g transform="translate(73.936 14.894)"><path class="h" d="M2280.448,989.513c.349.241,1.037-.117.981-.93-.051-.737-.936-.511-1.117.114C2280.186,989.127,2280.276,989.393,2280.448,989.513Z" transform="translate(-2280.253 -988.121)"/></g></g><g transform="translate(14.994 48.169)"><g transform="translate(35.736 0.579)"><path class="e" d="M1890.008,1247.7c-1.056-1.691-1.64-3.348-.067-5.473a3,3,0,0,1,1.519,2.95A4.359,4.359,0,0,1,1890.008,1247.7Z" transform="translate(-1888.974 -1242.232)"/></g><path class="e" d="M1345.851,1249.684c-.926-5.159-4.959-8.794-11.162-9.264-1.552-.118-4.556.6-5.474,2.019a1.57,1.57,0,0,0-.229,1.248c-.461-1.99-1.824-3.565-2.791-5.114-.045.042-.09.084-.135.124l-.494-.931c-4.584-4.63-12.493-6.828-18.083-3.958-1.844.946-3.594,3.336-3.216,5.564a3.691,3.691,0,0,0,.928,1.873s0,0,0,0c.031.035.063.068.1.1l-.07-.008q-.547-.061-1.1-.085h0l-.07,0c-.139-.006-.279-.009-.419-.011a18.745,18.745,0,0,0-6.3,1.017,15.243,15.243,0,0,0-1.8.755,11.3,11.3,0,0,0-1.925,1.2,10.459,10.459,0,0,0-3.51,5.178,16.39,16.39,0,0,0-.539,6.792q.536,1.609,1.24,3.187.449,1.011.962,2.011h49.495l4.326-3.843A18.245,18.245,0,0,0,1345.851,1249.684Zm-18.862-9.233-.7-1.327A2.64,2.64,0,0,1,1326.989,1240.45Z" transform="translate(-1289.424 -1232.521)"/><g transform="translate(21.171 6.784)"><path class="f" d="M1647.365,1352.647c-.117.032.108.18.16.086s-.053-.2-.147-.284a7.258,7.258,0,0,1-2.735-6.112c2.3,1.359,3.519,3.982,2.845,6.137Z" transform="translate(-1644.613 -1346.337)"/></g><g class="g" transform="translate(28.348 10.593)"><path class="f" d="M1767.8,1416.545c-.117.032.108.18.16.086s-.046-.212-.147-.284a6.06,6.06,0,0,1-2.735-6.112c2.3,1.359,4.211,3,2.845,6.137Z" transform="translate(-1765.023 -1410.235)"/></g><g class="g" transform="translate(1.369 26.848)"><path class="f" d="M1312.394,1682.948a36.73,36.73,0,0,0,3.609,2.011h-2.647Q1312.843,1683.959,1312.394,1682.948Z" transform="translate(-1312.394 -1682.948)"/></g><g class="g" transform="translate(21.189 7.886)"><path class="f" d="M1679.874,1381.953l-4.326,3.844h-28.919c-.4-1.5-2.082-2.889-1.647-4.6a8.425,8.425,0,0,1,2.918-4.1,1.087,1.087,0,0,0,.241,1.293c.328.389.777.7,1.109,1.083,1.16,1.347.578,3.115-.055,4.566,1.029-2.358,4.071-.614,5.822.1,2.918,1.2,6.917,2.066,8.109-1.318-2.924-.522-5.407-2.963-5.567-5.471,3.009-1.093,7.237.728,8.262,3.556,2.764-.99,5.327-2.681,6.155-5.16a5.477,5.477,0,0,0-3.7-6.677,6.881,6.881,0,0,1-2.885,2.3,3.324,3.324,0,0,1-3.7-.987,5.212,5.212,0,0,0,3.99-1.514,2.239,2.239,0,0,1-2.162-2.014c.918-1.418,3.922-2.136,5.474-2.019,6.2.47,10.236,4.105,11.162,9.264A18.245,18.245,0,0,1,1679.874,1381.953Z" transform="translate(-1644.911 -1364.824)"/></g><g transform="translate(2.731 8.079)"><path class="e" d="M1340.491,1370.777h-.038a7.525,7.525,0,0,1-5.212-2.375,4.468,4.468,0,0,1,3.456.014,3.964,3.964,0,0,1,2.288,2.4Z" transform="translate(-1335.241 -1368.06)"/></g><g transform="translate(12.164 4.821)"><path class="f" d="M1497.2,1318.5l-.854-.609a9.681,9.681,0,0,1-2.239-1.97,2.35,2.35,0,0,1-.381-2.519,6.094,6.094,0,0,1,3.536,4.864l-1.576-1.216Z" transform="translate(-1493.503 -1313.401)"/></g><g transform="translate(26.652 0.88)"><path class="f" d="M1738.783,1251.89l-.576-.62a7.233,7.233,0,0,1-1.431-1.921,1.848,1.848,0,0,1,.231-2.064,4.541,4.541,0,0,1,1.879,4.427l-1.045-1.216Z" transform="translate(-1736.571 -1247.286)"/></g><g transform="translate(7.362 16.638)"><path class="f" d="M1418.627,1513.078a6.551,6.551,0,0,1-5.687-.508,3.391,3.391,0,0,1,3.226-.823,11.639,11.639,0,0,1,3.38,1.42Z" transform="translate(-1412.94 -1511.663)"/></g><g transform="translate(14.375 10.663)"><path class="h" d="M1532.334,1413.672c.753-.287.955-1.542-.359-2.136-1.19-.538-1.81.882-1.048,1.652A1.333,1.333,0,0,0,1532.334,1413.672Z" transform="translate(-1530.593 -1411.416)"/></g><g transform="translate(30.988 16.47)"><path class="h" d="M1811.048,1511.089c.753-.287.955-1.542-.359-2.136-1.19-.538-1.81.882-1.048,1.652A1.333,1.333,0,0,0,1811.048,1511.089Z" transform="translate(-1809.307 -1508.833)"/></g><g transform="translate(44.183 15.938)"><path class="i" d="M2032.427,1502.173c.753-.287.955-1.542-.359-2.136-1.19-.538-1.81.882-1.048,1.652A1.333,1.333,0,0,0,2032.427,1502.173Z" transform="translate(-2030.686 -1499.918)"/></g><g transform="translate(19.851 20.008)"><path class="h" d="M1623.5,1569.464c.4-.125.438-.8-.318-1.182-.685-.343-.946.407-.483.859C1623.019,1569.454,1623.3,1569.527,1623.5,1569.464Z" transform="translate(-1622.467 -1568.195)"/></g><g transform="translate(24.511 1.134)"><path class="h" d="M1701.684,1252.809c.4-.126.438-.8-.318-1.182-.685-.343-.946.407-.483.859C1701.2,1252.8,1701.487,1252.872,1701.684,1252.809Z" transform="translate(-1700.65 -1251.54)"/></g></g><g class="m" transform="translate(0.014 33.045)"><path class="d" d="M1194.405,987.945v40.762H1040.127q-.025-.965-.038-1.93h152.486V985.1q.169.246.335.495Q1193.686,986.755,1194.405,987.945Z" transform="translate(-1039.971 -984.724)"/><path d="M1192.656,1022.881H1038.148l0-.114c-.017-.655-.03-1.3-.039-1.931l0-.118h152.488V978.782l.213.311q.169.247.336.5c.52.777,1.024,1.569,1.5,2.354l.017.028Zm-154.281-.233h154.047V982.035c-.467-.773-.963-1.552-1.475-2.317l-.122-.181v41.414H1038.341C1038.349,1021.5,1038.361,1022.073,1038.375,1022.648Z" transform="translate(-1038.105 -978.782)"/></g><g transform="translate(80.12 0.117)"><path class="c" d="M2385.261,426.353V503.6h-3.219V426.4Q2383.651,426.356,2385.261,426.353Z" transform="translate(-2382.042 -426.353)"/></g><g class="n" transform="translate(92.568 0.481)"><path class="d" d="M2649,508.956h-19.953l-.936-1.877-37.227-74.617a88,88,0,0,1,14.907,2.473c2.482.646,4.969,1.423,7.441,2.326h0l19.552,39.189h0l6.56,13.152s0,0,0,0l1.212,2.427,2.941,5.9,4.566,9.153Z" transform="translate(-2590.881 -432.462)"/></g><g class="n" transform="translate(26.902 6.427)"><path class="d" d="M1540.778,602.759h-19.953l-.936-1.877-30.683-61.5a96.489,96.489,0,0,1,16.377-7.17l34.26,68.671Z" transform="translate(-1489.205 -532.211)"/></g><g transform="translate(0.125 33.421)"><path class="c" d="M1195.342,989.785q-.175-.316-.354-.631-.348-.608-.71-1.209-.72-1.192-1.495-2.35-.166-.248-.335-.495v41.676H1039.953q.012.966.047,1.93.019.53.044,1.059h152.4a2.954,2.954,0,0,0,.691-.081,2.992,2.992,0,0,0,2.244-2.34,3.051,3.051,0,0,0,.055-.568v-37.32C1195.406,989.566,1195.374,989.676,1195.342,989.785Z" transform="translate(-1039.953 -985.101)"/></g><g class="o"><path class="d" d="M1192.322,459.652v41.676H1039.835c0-.246-.005-.494-.008-.741-.036-3.706.051-7.419.256-11.115a162.561,162.561,0,0,1,4.513-30.254h0l.021-.08h0a31.732,31.732,0,0,1,3.641-5.207,39.618,39.618,0,0,1,3.563-3.6q.323-.29.648-.577.557-.49,1.124-.969,2.393-2.023,4.936-3.842,1.18-.847,2.391-1.649,2.772-1.843,5.685-3.461a96.478,96.478,0,0,1,16.377-7.17,112.414,112.414,0,0,1,14.91-3.85,141.039,141.039,0,0,1,21.931-2.411q1.609-.045,3.219-.049c3.088,0,6.173.111,9.229.365a87.976,87.976,0,0,1,14.907,2.473c2.482.646,4.969,1.423,7.441,2.325h0a85.716,85.716,0,0,1,18.862,9.681,78.835,78.835,0,0,1,7.908,6.161q2.074,1.843,4,3.83A65.238,65.238,0,0,1,1192.322,459.652Z" transform="translate(-1039.703 -426.231)"/><path d="M1190.6,499.6H1037.881v-.115c0-.226-.005-.453-.008-.68v-.061c-.036-3.682.05-7.424.256-11.122a162.188,162.188,0,0,1,4.513-30.262h0l.021-.082v-.016l.015-.027a31.66,31.66,0,0,1,3.654-5.226,39.756,39.756,0,0,1,3.573-3.614c.221-.2.439-.393.649-.578.354-.311.733-.638,1.126-.971,1.577-1.333,3.241-2.628,4.944-3.848.777-.558,1.583-1.113,2.394-1.652,1.82-1.21,3.735-2.376,5.692-3.466a96.816,96.816,0,0,1,16.4-7.179,112.809,112.809,0,0,1,14.926-3.854,140.839,140.839,0,0,1,21.949-2.413c1.092-.03,2.176-.047,3.222-.049,3.161,0,6.269.119,9.239.365a88.313,88.313,0,0,1,14.927,2.477c2.476.644,4.976,1.425,7.432,2.322l.019.007a85.4,85.4,0,0,1,18.887,9.694,79.113,79.113,0,0,1,7.919,6.17c1.391,1.235,2.737,2.526,4,3.836a65.536,65.536,0,0,1,6.949,8.485l.02.03Zm-152.488-.233h152.254V457.847a65.325,65.325,0,0,0-6.9-8.425c-1.261-1.306-2.6-2.592-3.99-3.824a78.908,78.908,0,0,0-7.9-6.151,85.18,85.18,0,0,0-18.817-9.66l-.02-.007c-2.455-.9-4.955-1.678-7.43-2.322a88.085,88.085,0,0,0-14.888-2.47c-2.918-.242-5.971-.364-9.077-.364h-.143c-1.043,0-2.125.018-3.216.049a140.6,140.6,0,0,0-21.912,2.409,112.584,112.584,0,0,0-14.895,3.846,96.585,96.585,0,0,0-16.357,7.162c-1.952,1.087-3.862,2.25-5.677,3.457-.809.537-1.613,1.091-2.387,1.647-1.7,1.217-3.357,2.507-4.929,3.837-.392.332-.77.658-1.123.968-.21.184-.427.378-.647.576a39.545,39.545,0,0,0-3.552,3.593,31.432,31.432,0,0,0-3.62,5.174l-.017.067a161.926,161.926,0,0,0-4.51,30.232c-.206,3.693-.292,7.43-.256,11.107v.061Q1038.108,499.088,1038.111,499.37Z" transform="translate(-1037.863 -424.389)"/></g><g transform="translate(0.34 17.058)"><g transform="translate(0 10.641)"><path class="p" d="M1052.574,941.308a16.059,16.059,0,0,1-5.987,1.493c-1.568.151-2.766.157-2.766.157a19.771,19.771,0,0,1-.205-3.445c0-.009,0-.018,0-.027,0-.3-.01-.617-.014-.953,0-.035,0-.07,0-.107-.008-.593-.013-1.238-.018-1.929-.02-3.107-.005-7.173.032-11.856.049-6.064.138-13.16.248-20.54.711-2.086,1.509-4.1,2.385-6.026.618-1.357,1.235-2.591,1.882-3.738l.018-.031h0a31.7,31.7,0,0,1,3.642-5.207c.108,13.873.333,28.218.514,38.353.067,3.626.126,6.713.172,9.046,0,.036,0,.071,0,.106.013.675.026,1.284.037,1.823,0,.019,0,.037,0,.055s0,.035,0,.052c.008.349.013.666.019.953,0,.036,0,.072,0,.107Z" transform="translate(-1043.573 -889.099)"/></g><g transform="translate(11.795)"><path class="p" d="M1250.534,710.578c-.2,9.127-.447,18.677-.7,27.519-.359,12.79-.719,24.1-.929,30.521,0,.036,0,.071,0,.106-.021.663-.041,1.272-.059,1.823,0,.018,0,.037,0,.055s0,.035,0,.052c-.011.341-.023.658-.032.953,0,.036,0,.072,0,.107-.054,1.6-.084,2.486-.084,2.486a2.646,2.646,0,0,1-.806.346,30.607,30.607,0,0,1-6.285.532c-.07-.46-.119-1.625-.149-3.365,0-.035,0-.071,0-.107,0-.3-.01-.618-.013-.953V770.6c0-.018,0-.037,0-.055q-.009-.845-.014-1.823v-.106c-.017-3.783.013-8.956.075-14.941.111-10.713.325-24.027.551-36.638q.557-.491,1.124-.97A79.292,79.292,0,0,1,1250.534,710.578Z" transform="translate(-1241.452 -710.578)"/></g></g><g transform="translate(0.34 32.938)"><path class="c" d="M1048.129,976.987c0,.016,0,.033,0,.049-.261,5.744-.472,11.479-1.046,17.2a175.784,175.784,0,0,0-1.181,18.62c.007,1.1-.063,3.569.034,6.287.022.635.055,1.283.1,1.929.024.354.052.708.084,1.059a28.987,28.987,0,0,0,.472,3.314c-1.568.151-2.766.157-2.766.157a19.771,19.771,0,0,1-.205-3.445c0-.009,0-.018,0-.027,0-.3-.01-.618-.014-.953,0-.035,0-.07,0-.107-.008-.593-.013-1.238-.018-1.929-.02-3.107-.005-7.173.032-11.856.049-6.064.138-13.16.248-20.54.711-2.086,1.509-4.1,2.385-6.026C1046.865,979.368,1047.482,978.135,1048.129,976.987Z" transform="translate(-1043.573 -976.987)"/></g><g transform="translate(12.135 22.55)"><path class="c" d="M1247.919,861.185a30.616,30.616,0,0,1-6.285.532c-.07-.46-.119-1.625-.149-3.365,0-.035,0-.071,0-.107,0-.3-.01-.618-.013-.953v-.052c0-.018,0-.037,0-.055q-.009-.845-.014-1.823v-.106c-.017-3.783.013-8.956.075-14.941.111-10.713.325-24.027.551-36.638q.557-.491,1.124-.97c.053,9.972.065,19.97.194,29.9a105.525,105.525,0,0,0,1.1,16.682,52.531,52.531,0,0,0,1.4,5.971q.287.97.613,1.929.18.531.371,1.059.151.42.311.838A18.525,18.525,0,0,1,1247.919,861.185Z" transform="translate(-1241.452 -802.709)"/></g></g><g transform="translate(114.977 61.549)"><g transform="translate(17.293 0.27)"><path class="c" d="M3111.455,1419.484V1447.1a3.779,3.779,0,0,0,3.679,3.872h16.091a3.971,3.971,0,0,0,3.865-4.069v-27.416a8.294,8.294,0,0,0-8.073-8.5h-7.487A8.294,8.294,0,0,0,3111.455,1419.484Z" transform="translate(-3111.455 -1410.985)"/></g><g transform="translate(17.333 40.32)"><path class="p" d="M3115,2082.9v10.383q-1.428.571-2.879,1.093V2082.9Z" transform="translate(-3112.124 -2082.896)"/></g><g transform="translate(17.333 40.32)"><path class="c" d="M3112.129,2082.9v6.035c.9-.231,1.892-.458,2.879-.677V2082.9Z" transform="translate(-3112.129 -2082.901)"/></g><g transform="translate(17.293)"><path class="p" d="M3131.876,1414.948v27.416a3.971,3.971,0,0,1-3.865,4.069h-12.876a3.779,3.779,0,0,1-3.678-3.872v-27.613a8.875,8.875,0,0,1,.465-2.849,8.113,8.113,0,0,1,7.608-5.65h4.273A8.294,8.294,0,0,1,3131.876,1414.948Z" transform="translate(-3111.456 -1406.449)"/></g><g transform="translate(0 39.215)"><path class="c" d="M2858.928,2065.242v.835q-2.115,1.649-4.379,3.112h-32.37a.848.848,0,0,1-.848-.848,3.987,3.987,0,0,1,4.018-3.988l1.234.009,2.848.02c2.867.019,6.231.039,9.641.055l.816,0,.333,0c2.7.011,5.4.019,7.878.021,3.985,0,7.383-.01,9.262-.052.26-.005.491-.012.69-.019A.849.849,0,0,1,2858.928,2065.242Z" transform="translate(-2821.331 -2064.353)"/></g></g><g transform="translate(84.111 84.316)"><g transform="translate(71.022 3.171)"><path class="q" d="M3505.669,1841.615q-.1.183-.209.366-.333.575-.688,1.141-.393.625-.8,1.236h-4.878l-.832,7.057q-1.56,1.613-3.243,3.086l.019-.227.752-8.967.279-3.327.031-.366Z" transform="translate(-3495.017 -1841.615)"/></g><g transform="translate(0.601 3.171)"><path class="q" d="M2353.052,1870.007q-1.136.305-2.278.586l-1.175-10.865-.522-4.827-1.14-10.543h-28.625l-3.556,30.146q-1.1,0-2.2-.024l2.728-32.5.031-.366h34.613l.027.366.966,12.939.359,4.808Z" transform="translate(-2313.56 -1841.615)"/></g><g transform="translate(15.584 0)"><path class="q" d="M2632.618,1788.422q-.717,1.615-1.592,3.171-.1.183-.209.366h-64.425a1.287,1.287,0,0,1-.883-.366,1.916,1.916,0,0,1-.573-1.4,1.969,1.969,0,0,1,.428-1.249,1.336,1.336,0,0,1,1.028-.52Z" transform="translate(-2564.937 -1788.422)"/></g><path class="p" d="M2304.938,1788.418h38.42a1.64,1.64,0,0,1,1.456,1.768h0a1.64,1.64,0,0,1-1.456,1.768h-38.42a1.64,1.64,0,0,1-1.456-1.768h0A1.64,1.64,0,0,1,2304.938,1788.418Z" transform="translate(-2303.482 -1788.418)"/></g></g><g transform="translate(70.571 21.626)"><g transform="translate(17.492 108.223)"><g transform="translate(0.029 0.03)"><path class="r" d="M2389.074,2560.619c-4.975.369-18.091-.55-18.091-.55s-.652-.089-.708-.675a1.17,1.17,0,0,1,.075-.5c.362-1.04,2.532-.995,4.522-2.02s7.191-3.859,7.417-4.04c0,0,4.885.407,5.789,1.176a1.39,1.39,0,0,1,.331.583A28.746,28.746,0,0,1,2389.074,2560.619Z" transform="translate(-2370.272 -2552.833)"/></g><path class="r" d="M2385.561,2560.261c-5.87,0-14.93-.629-15.039-.637-.009,0-.678-.1-.735-.7a1.216,1.216,0,0,1,.076-.513c.218-.625,1.06-.863,2.126-1.165a12.638,12.638,0,0,0,2.411-.872c1.988-1.024,7.184-3.854,7.412-4.037l.009-.007h.012c.2.017,4.9.417,5.806,1.182a1.417,1.417,0,0,1,.34.6,28.92,28.92,0,0,1,.665,6.037v.027l-.027,0C2387.793,2560.236,2386.741,2560.261,2385.561,2560.261Zm-3.722-7.872c-.338.241-5.446,3.023-7.413,4.036a12.671,12.671,0,0,1-2.422.876c-1.05.3-1.879.531-2.086,1.127a1.152,1.152,0,0,0-.073.489c.052.555.657.646.683.649.129.009,13.121.911,18.057.552a28.317,28.317,0,0,0-.661-5.991,1.365,1.365,0,0,0-.323-.571C2386.734,2552.821,2382.1,2552.412,2381.839,2552.389Z" transform="translate(-2369.783 -2552.329)"/></g><g class="s" transform="translate(17.525 110.012)"><path class="t" d="M2389.141,2588.369c-4.975.369-18.091-.55-18.091-.55s-.652-.089-.708-.675a50.3,50.3,0,0,0,11.457-1.343c2.481-.585,5.125-1.528,6.678-3.46A28.743,28.743,0,0,1,2389.141,2588.369Z" transform="translate(-2370.343 -2582.342)"/></g><g transform="translate(33.277 108.326)"><g transform="translate(0.029 0.03)"><path class="r" d="M2653.91,2562.351l-.1.007c-4.323.3-14.44-.323-17.254-.508l-.611-.041-.127-.009a.778.778,0,0,1-.669-1.055c.01-.039.022-.079.037-.121a.013.013,0,0,0,0,0,1.011,1.011,0,0,1,.372-.474c.785-.582,2.527-.706,4.15-1.541,1.99-1.026,7.191-3.86,7.417-4.041,0,0,.734.061,1.685.181,1.5.189,3.549.524,4.1,1C2653.82,2556.51,2653.91,2562.351,2653.91,2562.351Z" transform="translate(-2635.108 -2554.565)"/></g><path class="r" d="M2650.364,2561.994c-4.864,0-11.87-.431-14.267-.588l-.611-.041-.127-.009a.911.911,0,0,1-.679-.477.934.934,0,0,1-.017-.615c.01-.039.022-.08.038-.123a1.032,1.032,0,0,1,.384-.492,5.8,5.8,0,0,1,1.744-.673,12.616,12.616,0,0,0,2.409-.871c1.988-1.024,7.183-3.854,7.412-4.037l.009-.007h.012c.007,0,.745.063,1.686.181,1.574.2,3.566.532,4.119,1,.9.769,1,6.393,1.005,6.632v.027l-.126.009C2652.535,2561.97,2651.509,2561.994,2650.364,2561.994Zm-15-.7.125.009.611.041c2.96.195,12.954.806,17.25.508l.071-.005c-.009-.437-.132-5.836-.984-6.561-.542-.46-2.522-.792-4.088-.989-.878-.11-1.578-.172-1.673-.18-.337.24-5.445,3.023-7.413,4.036a12.682,12.682,0,0,1-2.42.875,5.76,5.76,0,0,0-1.726.664.976.976,0,0,0-.36.456v0l0,.01c-.013.039-.025.078-.035.116a.749.749,0,0,0,.645,1.019Z" transform="translate(-2634.619 -2554.061)"/></g><g transform="translate(1.452 43.221)"><path class="u" d="M2109.664,1465.086l-.329.107-.478.156s-.369.317-.955.746a15.362,15.362,0,0,1-3.1,1.8.644.644,0,0,0-.177-.025c-.456.241-1.181-.59-1.181-.59a4.648,4.648,0,0,1-2.069-3.135c-.14-.077-.337-.192-.685-.371,0-.006,0-.013,0-.019.022-.1.04-.186.054-.24l.019-.077.7-.109c1.148-.181,3.487-.556,5.329-.9l.214-.041c.23-.044.451-.087.659-.129l.053-.01.154-.031a7.568,7.568,0,0,0,1.475-.392C2110.023,1461.419,2109.664,1465.086,2109.664,1465.086Z" transform="translate(-2100.69 -1461.791)"/></g><g transform="translate(26.629 41.102)"><path class="v" d="M2548.266,1494.919a5.563,5.563,0,0,1-2.344,0c-1.568-.25-3.558-2.1-4.7-1.379a1.772,1.772,0,0,1-2.532-.362c-.181-.542.181-4.522,0-6.392-.146-1.509-3.006-7.106-4.1-9.206-.262-.5-.423-.8-.423-.8a27.534,27.534,0,0,1-.964,6.512c-.42,1.2-.422,4.005-.36,6.562a33.029,33.029,0,0,1,.02,5.068,3.655,3.655,0,0,1-3.376,1.463c-2.271-.173-4.712-3.746-4.712-3.746.736-3.618-1.52-24.965-1.352-28.533s-.65-21.94-.194-25.09a54.3,54.3,0,0,0,.351-5.65c.029-1.239.038-2.4.04-3.242,0-.823,0-1.345,0-1.345l13.628-2.532s.719,1.989,1.595,4.489c.418,1.193.871,2.5,1.3,3.766a10.606,10.606,0,0,1,.479,2.412c.347,3.762-.657,8.4-.912,10.56-.313,2.653.373,9.165.917,12.06a12.3,12.3,0,0,1,.4,2.979,6.019,6.019,0,0,0,.236,2.594c.305.75.853,1.208,1.107,1.995.433,1.339.682,2.765,1.029,4.132,0,0-3.5-10.914.723,2.412S2548.266,1494.919,2548.266,1494.919Z" transform="translate(-2523.083 -1426.244)"/></g><g class="w" transform="translate(27.12 44.526)"><path class="t" d="M2548.364,1490.934a5.331,5.331,0,0,0-3.077,2.866,1.684,1.684,0,0,1-.7.818,1.349,1.349,0,0,1-.585.084,12.432,12.432,0,0,1-4.52-1.264c-1.619-.889-2.22-2.39-3.338-3.728-.972-1.163-2.759-1.469-4.2-2.046-.205-.082-.415-.174-.621-.277.029-1.239.038-2.4.04-3.242,3.73-.771,7.714-.415,11.545.01a25.537,25.537,0,0,1,3.675.6c.417,1.192.871,2.5,1.3,3.766A10.629,10.629,0,0,1,2548.364,1490.934Z" transform="translate(-2531.326 -1483.692)"/></g><g transform="translate(29.632 1.318)"><path class="x" d="M2575.508,763.357c-.888-.034-1.657-1.035-1.9-1.775a3.158,3.158,0,0,1,.375-2.7c.182-.271.479.115.756.288a3.811,3.811,0,0,1,1.711,2.507,1.656,1.656,0,0,1,.013.661,2.51,2.51,0,0,1-.239.76.685.685,0,0,1-.372.22A1.2,1.2,0,0,1,2575.508,763.357Z" transform="translate(-2573.46 -758.79)"/></g><g transform="translate(28.316 2.268)"><path class="u" d="M2563.853,790.816l-4.824,3.317s-8.231,2.141-5.21-1.086a10.909,10.909,0,0,0,.778-.928,8.6,8.6,0,0,0,1.5-3.082,7.01,7.01,0,0,0,.179-1.059,4.737,4.737,0,0,0-.019-1.2l-.181.009c-1.524.082-2.553.273-3.1-.83a6.262,6.262,0,0,1-.2-3.091h0c.026-.258.047-.417.047-.417a1.179,1.179,0,0,1-1.388-.5.764.764,0,0,1,.123-.731,8.513,8.513,0,0,0,1.506-2.471c.239-.881.469-1.888.637-2.677.151-.706.253-1.239.267-1.353l4.165.527,1.081.137.222.453,1.131,2.317,2.748,5.628c0,.009,0,.017-.005.026a13,13,0,0,0,.124,5.666A9.278,9.278,0,0,0,2563.853,790.816Z" transform="translate(-2551.383 -774.716)"/></g><g class="y" transform="translate(33.006 12.529)"><path class="z" d="M2633.183,946.866a7.359,7.359,0,0,1-2.91,3,4.736,4.736,0,0,0-.019-1.2l-.181.009.146-.156A12.615,12.615,0,0,0,2633.183,946.866Z" transform="translate(-2630.072 -946.866)"/></g><g class="y" transform="translate(33.871 11.27)"><path class="z" d="M2651.067,931.507a9.05,9.05,0,0,1-6.491.847c1-.41,2-.82,2.976-1.3.714-.351,2.072-.833,2.4-1.6.281-.653-.1-1.177-.487-1.666a3.223,3.223,0,0,1-.485-.8,2.216,2.216,0,0,1-.139-1.087l1.706-.147q.2.037.393.085A13.007,13.007,0,0,0,2651.067,931.507Z" transform="translate(-2644.576 -925.755)"/></g><g transform="translate(34.285 0.359)"><path class="aa" d="M2651.7,742.73a1.647,1.647,0,0,1-.167-.021A.154.154,0,0,1,2651.7,742.73Z" transform="translate(-2651.535 -742.693)"/></g><g class="y" transform="translate(30.629 2.268)"><path class="z" d="M2597.054,778.149c-.069.633-.052,1.216-.6,1.566a2.183,2.183,0,0,0-.867,1.073,5.276,5.276,0,0,0-.207,1.592.075.075,0,0,1-.025.063c-.024.014-.053,0-.076-.019-1.618-1.16-.509-3.169-.768-4.77a.464.464,0,0,0-.2-.373c-.4-.182-.844.265-1.267.179a7.59,7.59,0,0,1-1.734-.65,4.629,4.629,0,0,1-1.111-.742c.151-.706.252-1.239.267-1.353l4.165.527a10.444,10.444,0,0,1,1.3.59Z" transform="translate(-2590.188 -774.716)"/></g><g transform="translate(30.374)"><path class="aa" d="M2597.87,745.986c-.236,1.231-.779,2.824-.459,4.064a3.04,3.04,0,0,1-.546-.044h0a1.4,1.4,0,0,1-1.266-.939.383.383,0,0,0,.208.482.564.564,0,0,1-.132.113,1.089,1.089,0,0,1-1.023-.093,1.777,1.777,0,0,1-.4-.277,2.441,2.441,0,0,1-.728-1.92c.017-.561.136-1.694-.423-2.072-.5-.339-.98.2-1.237.592-.2.31-.341.86-.706.688-.229-.108-.362-.582-.478-.789a1.4,1.4,0,0,1-.171-1.066,10.927,10.927,0,0,0,.477-2.684,2.38,2.38,0,0,0-.437-1.157.484.484,0,0,0-.3-.227.584.584,0,0,0-.315.089,2.956,2.956,0,0,1-3.047-.417,2.626,2.626,0,0,1-.358-.353,2.382,2.382,0,0,1-.287-2.79c.038-.058.078-.114.122-.169a.087.087,0,0,1,.047-.035c.034-.005.059.03.077.061a2.132,2.132,0,0,0,1.8.786,2.719,2.719,0,0,0,.277-.015h0a9.608,9.608,0,0,1,1.6-.209c.269.018,1.074-.194,1.31-.09a1.442,1.442,0,0,0-.714-.085.751.751,0,0,1-.562-.154,1.868,1.868,0,0,0-.212-.207c.788.061,1.549-.4,2.367-.4a3.261,3.261,0,0,1,2.311.9.7.7,0,0,0,.232.172.335.335,0,0,0,.042.012.538.538,0,0,0,.162,0q.118-.012.231-.021a2.07,2.07,0,0,1,1.4.285,4.444,4.444,0,0,1,1.626,3.672A19.7,19.7,0,0,1,2597.87,745.986Z" transform="translate(-2585.912 -736.672)"/></g><g transform="translate(0 43.439)"><path class="u" d="M2085.041,1465.486l-.134.114-.1.082-.012.01-.617.526-.451.385c-.645.55-1.41,1.2-2.013,1.726-.481.416-.858.747-.99.872.108-.279-.628-1.369-1.414-1.431a1.5,1.5,0,0,1-.808-.19c-.14-.076-.337-.192-.685-.371l-.036-.019c-.131-.067-.282-.143-.459-.228l-.041-.02a2.218,2.218,0,0,1-.8-.6.954.954,0,0,1-.06-.088c-.268-.455.119-.777.333-.682a1.5,1.5,0,0,0,.4.031h.138c.414-.005,1.019-.034,1.677-.066a29.39,29.39,0,0,1,3.537-.057,10.8,10.8,0,0,0,1.4.093h.218a6.725,6.725,0,0,0,.706-.042A.651.651,0,0,0,2085.041,1465.486Z" transform="translate(-2076.326 -1465.445)"/></g><g transform="translate(31.886 48.459)"><path class="u" d="M2620.265,1552.8c-.489.573-.959,3.317-1.23,3.8-.018.033-.044.075-.075.125a6.064,6.064,0,0,1-4.92-1.719,4.972,4.972,0,0,1-.34-.369,6.332,6.332,0,0,0,.632-1.837,3.272,3.272,0,0,1-2.785-.312,1.853,1.853,0,0,1-.158-.133.341.341,0,0,1,.12-.569l1.64-.585a2.1,2.1,0,0,1,.568-.118,23.051,23.051,0,0,0,2.584-.267l.022-.006c.482-.151,1.085-.935,1.266-1.146C2617.587,1549.663,2620.753,1552.226,2620.265,1552.8Z" transform="translate(-2611.281 -1549.663)"/></g><g class="y" transform="translate(32.151 48.459)"><path class="z" d="M2624.452,1552.8c-.489.573-.959,3.317-1.23,3.8-.018.033-.044.075-.075.125a6.064,6.064,0,0,1-4.92-1.719,4.969,4.969,0,0,1-.34-.369,6.336,6.336,0,0,0,.632-1.837,3.272,3.272,0,0,1-2.785-.312,7.488,7.488,0,0,0,3.124-.153,3.246,3.246,0,0,0,.416,2.224,3.386,3.386,0,0,0,2.446.684c1.327-.38-.172-1.4-.461-1.925a3.2,3.2,0,0,1-.2-.879,16.813,16.813,0,0,0-.576-1.623l.022-.006c.482-.151,1.085-.935,1.266-1.146C2621.774,1549.663,2624.94,1552.226,2624.452,1552.8Z" transform="translate(-2615.733 -1549.663)"/></g><g transform="translate(7.759 16.762)"><path class="ab" d="M2244.322,1048.055c-.743.929-1.41,1.765-1.9,2.424-2.352,3.159-1.749,3.473-3.256,2.9a6.924,6.924,0,0,1-2.525-2.206,3.751,3.751,0,0,1-.611-.979,11.284,11.284,0,0,1,.858-1.687c.19-.335.339-.589.348-.6-1.207.732-7.115-.281-8.08-.764s0,0-1.146.09-3.075-.452-2.713-1.146a2.324,2.324,0,0,0,.173-.505,13.428,13.428,0,0,0,.249-2.19,1.947,1.947,0,0,1-.538.585c-1.3,1.017-4.4,2.1-6.819,2.834-1.331.4-3.664,1.015-5.833,1.479-2.548.547-4.871.89-5.083.45-.013-.026-.026-.056-.04-.089a14.86,14.86,0,0,1-.9-3.956c-.008-.4.054-.674.221-.719a34.708,34.708,0,0,0,6.332-1.809,17.431,17.431,0,0,0,6.634-4.161c1.031-.96,4.154-5.816,5.539-8.018.236-.376.422-.674.538-.863.079-.129.126-.207.134-.224.09-.181.845-4.266.845-4.266.182-.755.921-3.091,1.9-3.93a.943.943,0,0,1,1.447.071c1.119-.6,1.924-1.636,3.229-1.836a5.463,5.463,0,0,0,1.019-.189c.294-.106.557-.286.853-.387a3.389,3.389,0,0,1,.91-.134c1.318-.072,2.3.13,3.617.058a.459.459,0,0,1,.315-.4,7.549,7.549,0,0,1,2.016,1.995,10.765,10.765,0,0,1,.588.935,22.281,22.281,0,0,1,1.524,3.647c1.619,4.693,4.768,8.821,6.343,13.542C2251.051,1039.65,2247.142,1044.526,2244.322,1048.055Z" transform="translate(-2206.501 -1017.884)"/></g><g class="ac" transform="translate(13.787 27.999)"><path class="i" d="M2320.871,1206.409q-.005,2.038-.011,4.076a16.7,16.7,0,0,1-.069,1.807c-.075.682-.234,1.354-.275,2.039a19.372,19.372,0,0,0,.128,2.453,15.344,15.344,0,0,1-.358,4.478c-1.3,1.017-4.4,2.1-6.818,2.834-1.332.4-3.664,1.015-5.833,1.479a6.51,6.51,0,0,1,1.546-.923,11.57,11.57,0,0,0,4.238-2.1,12.358,12.358,0,0,0,1.369-1.719,30.28,30.28,0,0,0,3.663-6.291,20.556,20.556,0,0,0,1.861-6.851c.007-.136.012-.277.021-.418C2320.569,1206.9,2320.755,1206.6,2320.871,1206.409Z" transform="translate(-2307.635 -1206.409)"/></g><g transform="translate(26.619 19.098)"><g transform="translate(0 8.677)"><path class="ad" d="M2523.472,1202.653c.049.616.066,1.23.08,1.844l.008.46,0,.46c0,.307,0,.614-.01.92s-.027.614-.041.921l-.046.924c-.03.615-.068,1.23-.125,1.846l-.023.231-.019.228-.019.227c0,.076-.008.152-.011.228l-.013.227-.005.228-.006.228v.228c0,.608.035,1.218.06,1.831.01.307.02.614.022.923,0,.154,0,.309,0,.463s-.008.309-.011.464a9.48,9.48,0,0,1-.231,1.84l-.033,0c.033-.615.03-1.225,0-1.835q-.021-.458-.049-.916t-.055-.919c-.03-.614-.045-1.233-.02-1.853l.009-.232c0-.078.01-.155.016-.232l.018-.232c.009-.077.019-.155.028-.232s.019-.154.03-.231l.042-.23.042-.229.045-.225a10.168,10.168,0,0,0,.2-1.824c0-.153,0-.306,0-.46s-.014-.306-.025-.459c-.021-.307-.04-.615-.051-.922s-.015-.615-.007-.922l.009-.461.017-.461c.028-.614.067-1.229.144-1.841Z" transform="translate(-2522.917 -1202.652)"/></g><g transform="translate(2.208)"><path class="ad" d="M2563.447,1057.1q-.077.077-.154.151c-.026.025-.052.049-.077.074l-.073.079c-.049.052-.1.1-.145.156s-.091.109-.136.163a5.065,5.065,0,0,0-.473.7c-.037.059-.067.122-.1.185s-.065.124-.093.188l-.086.191-.077.2c-.1.262-.188.528-.264.8s-.15.547-.207.826c-.032.139-.052.281-.077.422s-.043.286-.068.428l-.269,1.709c-.046.285-.092.57-.145.853s-.11.565-.166.846-.109.563-.16.844l-.146.845-.15.847c-.025.141-.049.282-.071.423s-.047.282-.067.423a16.968,16.968,0,0,0-.177,1.708l-.033,0a8.48,8.48,0,0,1-.05-1.737c.009-.145.02-.289.033-.434s.03-.288.047-.432c.033-.287.075-.573.118-.858.085-.572.214-1.139.35-1.7.068-.28.138-.56.212-.838l.226-.832a11.671,11.671,0,0,0,.341-1.686c.017-.142.026-.285.038-.428s.018-.289.032-.434.029-.29.046-.434c.008-.073.023-.144.034-.217s.023-.144.04-.216a4.69,4.69,0,0,1,.258-.843,4.425,4.425,0,0,1,.41-.784c.041-.061.082-.123.125-.183l.138-.173c.044-.059.1-.112.145-.167s.1-.109.154-.158.107-.1.162-.149.115-.091.172-.137l.087-.067c.03-.021.061-.041.091-.061q.092-.06.184-.117Z" transform="translate(-2559.962 -1057.072)"/></g><g transform="translate(11.861 11.143)"><path class="ad" d="M2722.784,1244.013c.435.649.865,1.3,1.28,1.965l.31.5.3.5c.2.333.4.672.591,1.013.38.684.732,1.384,1.114,2.067l.142.257a2.266,2.266,0,0,1,.127.273,1.283,1.283,0,0,1,.066.6,1.485,1.485,0,0,1-.07.3,2.376,2.376,0,0,1-.111.28c-.085.181-.18.354-.277.525a7.331,7.331,0,0,0-.51,1.034,3.751,3.751,0,0,0-.157.54l-.026.138-.031.153c-.025.1-.05.2-.082.293a9.6,9.6,0,0,1-.444,1.106c-.165.358-.347.707-.532,1.054s-.383.685-.586,1.021l-.306.5c-.1.166-.209.332-.314.5-.425.658-.863,1.307-1.334,1.935l-.028-.018c.752-1.373,1.531-2.727,2.256-4.1.184-.343.36-.689.531-1.036a10.258,10.258,0,0,0,.459-1.056c.033-.089.059-.179.085-.268l.032-.133.034-.149a3.481,3.481,0,0,1,.2-.576,6.708,6.708,0,0,1,.6-1.028c.108-.163.215-.324.305-.493a1.68,1.68,0,0,0,.195-.53,1.1,1.1,0,0,0-.05-.552c-.018-.044-.033-.088-.054-.13s-.042-.084-.067-.127l-.146-.253c-.4-.673-.842-1.318-1.257-1.979-.208-.331-.411-.665-.606-1l-.294-.507-.289-.51c-.1-.17-.19-.342-.285-.513s-.187-.344-.279-.516c-.183-.346-.366-.692-.526-1.052Z" transform="translate(-2721.911 -1244.013)"/></g></g><g transform="translate(33.436 52.119)"><path d="M2642.974,1614.605a6.029,6.029,0,0,1-4.564-1.759,5.074,5.074,0,0,1-.348-.377,5,5,0,0,1-.779-1.3l.216-.088a4.749,4.749,0,0,0,1.074,1.6,5.925,5.925,0,0,0,4.834,1.685c.3-.009.627-.029.995-.059l.019.233c-.372.031-.7.05-1.007.06C2643.269,1614.6,2643.122,1614.605,2642.974,1614.605Z" transform="translate(-2637.283 -1611.082)"/></g><g transform="translate(28.873 58.479)"><path class="t" d="M2560.789,1717.769c.236.679.452,1.363.66,2.05s.408,1.374.6,2.064.38,1.381.561,2.074.354,1.387.51,2.087c.312,1.4.563,2.812.91,4.2.085.348.177.693.271,1.038l.137.523c.041.175.083.35.127.525q.239,1.052.463,2.105l.218,1.054.107.527.1.527c.136.7.261,1.407.4,2.107s.281,1.4.446,2.086c.081.345.172.685.261,1.026l.147.5c.047.168.108.337.159.507.216.677.442,1.353.669,2.03l.691,2.03c.46,1.355.927,2.709,1.361,4.079l-.061.025c-.323-.642-.628-1.292-.924-1.946l-.221-.491-.217-.493c-.143-.329-.287-.658-.424-.99s-.276-.662-.412-.995-.266-.667-.4-1l-.194-.5-.187-.506c-.063-.168-.123-.339-.182-.509s-.119-.34-.176-.511l-.085-.257c-.028-.086-.056-.172-.082-.26-.051-.176-.1-.351-.154-.527l-.132-.529c-.023-.088-.043-.177-.061-.265l-.057-.266-.057-.266-.052-.266-.1-.532c-.061-.355-.124-.71-.178-1.065q-.171-1.065-.307-2.132l-.067-.533-.063-.534-.129-1.066c-.048-.354-.09-.71-.146-1.062s-.113-.705-.18-1.056c-.035-.175-.071-.349-.108-.524s-.085-.345-.129-.518c-.091-.346-.189-.692-.285-1.037-.385-1.38-.843-2.742-1.238-4.12q-.3-1.033-.546-2.079t-.49-2.093c-.156-.7-.307-1.4-.444-2.1s-.272-1.409-.382-2.119Z" transform="translate(-2560.725 -1717.769)"/></g><g class="ac" transform="translate(28.666 16.762)"><path class="i" d="M2571.889,1019.879a10.92,10.92,0,0,0-5.537,1.016c-.682.312-1.355.612-2.04.891-.665.271-1,.848-1.607,1.184a.58.58,0,0,1-.595.016.9.9,0,0,1-.281-.62,6.45,6.45,0,0,0-.283-1.036.373.373,0,0,0-.187-.247c-1.049-.369-2.2,1.809-2.453,2.481a19.154,19.154,0,0,0-.759,3.821q-.376,2.427-.752,4.852a17.465,17.465,0,0,1,.523-6.585,18.65,18.65,0,0,0,.6-2.955,7.617,7.617,0,0,0-.143-.966c-.023-.278.135-.714.109-1.03a.943.943,0,0,1,1.447.071c1.119-.6,1.924-1.636,3.229-1.836a5.466,5.466,0,0,0,1.019-.189c.294-.106.557-.286.853-.387a3.387,3.387,0,0,1,.91-.134c1.318-.072,2.3.13,3.617.058a.46.46,0,0,1,.316-.4A7.538,7.538,0,0,1,2571.889,1019.879Z" transform="translate(-2557.249 -1017.884)"/></g><g transform="translate(32.343 15.368)"><path class="ad" d="M2618.952,998.166a3.938,3.938,0,0,1,2.207-1.673c1.705-.633,2.926-.746,3.944-1.085s2.291-.9,2.291-.9a3.266,3.266,0,0,0,1.01,1.48,16.185,16.185,0,0,0,1.266,1.144,9.685,9.685,0,0,0-5.359,1.04c-2.532,1.493-3.324,2.307-4.093,2.216a10.814,10.814,0,0,1-.09-2.622S2620.064,997.145,2618.952,998.166Z" transform="translate(-2618.952 -994.503)"/></g><g transform="translate(30.84 5.681)"><g transform="translate(0.117 1.266)"><g transform="translate(0 0)"><ellipse class="ae" cx="0.416" cy="0.338" rx="0.416" ry="0.338" transform="translate(0 0.824) rotate(-82.523)"/></g></g><g transform="translate(0 1.131)"><path class="ae" d="M2595.1,851.488a1.876,1.876,0,0,0-.315-.185,1.558,1.558,0,0,0-.166-.067,1.169,1.169,0,0,0-.169-.048.783.783,0,0,0-.175-.016h-.173a1.575,1.575,0,0,0-.175.01c-.06.007-.12.02-.187.034l0-.018a.693.693,0,0,1,.184-.158.662.662,0,0,1,.2-.076.48.48,0,0,1,.2,0,1.337,1.337,0,0,1,.181.058,1.366,1.366,0,0,1,.329.183c.051.038.1.08.147.123a1.439,1.439,0,0,1,.136.141Z" transform="translate(-2593.733 -850.952)"/></g><g transform="translate(0.072)"><path class="ae" d="M2597.4,832.833a.2.2,0,0,1,0,.131,6.82,6.82,0,0,0-1.13-.383c-.278-.058-.563-.1-.842-.141-.167-.024-.472-.076-.482-.286-.01-.238.344-.172.507-.161a3.4,3.4,0,0,1,1.241.33C2596.878,832.413,2597.319,832.608,2597.4,832.833Z" transform="translate(-2594.945 -831.976)"/></g></g><g class="af" transform="translate(31.789 8.784)"><g transform="translate(0 0)"><ellipse class="ag" cx="0.873" cy="1.543" rx="0.873" ry="1.543" transform="translate(0 1.73) rotate(-82.124)"/></g></g><g class="g" transform="translate(32.88 8.818)"><circle class="d" cx="0.255" cy="0.255" r="0.255"/></g><g class="y" transform="translate(28.362 9.499)"><path class="z" d="M2553.5,896.958c.026-.258.047-.417.047-.417a1.178,1.178,0,0,1-1.388-.5,2.174,2.174,0,0,0,1.686.217A2.378,2.378,0,0,0,2553.5,896.958Z" transform="translate(-2552.164 -896.041)"/></g><g class="ah" transform="translate(30.991 3.072)"><path class="x" d="M2604.378,798.028a1.8,1.8,0,0,1-.4-.277,2.443,2.443,0,0,1-.728-1.92c.017-.561.136-1.694-.423-2.072-.5-.339-.979.2-1.237.592-.2.31-.341.861-.706.688-.229-.108-.362-.582-.478-.789a1.4,1.4,0,0,1-.171-1.066,10.939,10.939,0,0,0,.477-2.684,2.38,2.38,0,0,0-.437-1.157.483.483,0,0,0-.3-.227.587.587,0,0,0-.316.089,2.955,2.955,0,0,1-3.046-.417,2.6,2.6,0,0,1-.359-.353,3.191,3.191,0,0,0,.666.3,4.59,4.59,0,0,0,1.863.1,6.678,6.678,0,0,0,2.468-.631c.086.851.273,1.608.285,2.472.006.464-.258,1.132.03,1.551.333.482,1.075.368,1.558.509,2.015.591.366,3.221.766,4.5A1.9,1.9,0,0,0,2604.378,798.028Z" transform="translate(-2596.256 -788.203)"/></g><g transform="translate(35.667 7.906)"><path class="u" d="M2675.472,872.985a5.853,5.853,0,0,0,1.271-1.338,1.983,1.983,0,0,0,.225-1.77.962.962,0,0,0-.385-.468.951.951,0,0,0-1.16.313,6.362,6.362,0,0,0-.707,2.112" transform="translate(-2674.717 -869.317)"/></g><g transform="translate(39.814 8.296)"><path class="x" d="M2744.527,879.958a.383.383,0,0,0,.208.482.573.573,0,0,1-.133.113,2.92,2.92,0,0,1-.186-2.243,24.668,24.668,0,0,1,1.029-2.45,6.808,6.808,0,0,0-.359,3.041,8.318,8.318,0,0,0,.118,1.261c.087.316.369.505.589.736A1.4,1.4,0,0,1,2744.527,879.958Z" transform="translate(-2744.281 -875.859)"/></g><g class="ah" transform="translate(33.029 0.69)"><path class="x" d="M2635.063,748.407a10.6,10.6,0,0,1-4.61.3,9.6,9.6,0,0,1,1.6-.209c.269.018,1.073-.194,1.31-.09a1.442,1.442,0,0,0-.714-.085c.324-.028.647-.06.972-.066A6,6,0,0,1,2635.063,748.407Z" transform="translate(-2630.453 -748.256)"/></g><g class="ah" transform="translate(39.363 1.06)"><path class="x" d="M2737.479,756.342c-.2-.39-.209-.853-.373-1.26a2.214,2.214,0,0,0-.391-.616.326.326,0,0,0,.042.012.536.536,0,0,0,.161,0c.079-.008.156-.015.232-.021a2.159,2.159,0,0,0,.1.686A3.283,3.283,0,0,1,2737.479,756.342Z" transform="translate(-2736.715 -754.456)"/></g><g transform="translate(42.672 1.689)"><path class="aa" d="M2792.252,765.011a3.523,3.523,0,0,1,.762,1.2,4.746,4.746,0,0,1,.207.691,5.594,5.594,0,0,1,.1.715c.021.24.029.481.029.721a4.637,4.637,0,0,1-.062.716c-.038.236-.09.469-.151.7a6.146,6.146,0,0,1-.22.68l-.032-.006c-.005-.24.008-.477.023-.712s.034-.469.053-.7.041-.462.063-.692a6.067,6.067,0,0,0,.034-.692,5.248,5.248,0,0,0-.055-.689,4.584,4.584,0,0,0-.146-.676,3.582,3.582,0,0,0-.631-1.235Z" transform="translate(-2792.228 -765.011)"/></g><g transform="translate(30.449 11.33)"><path class="x" d="M2589.258,926.779a2.579,2.579,0,0,0-.163.41,1.057,1.057,0,0,1-.274.316c-.033.028-.066.054-.1.079a1.439,1.439,0,0,1-.715.281.7.7,0,0,1-.625-.275l-.018-.023a1.205,1.205,0,0,1-.189-.8c.312.026.631.04.942.045l.828.013A.705.705,0,0,0,2589.258,926.779Z" transform="translate(-2587.173 -926.763)"/></g><g transform="translate(30.657 12.09)"><path class="ag" d="M2592,939.563a1.438,1.438,0,0,1-.715.281.7.7,0,0,1-.625-.275,2.874,2.874,0,0,1,.728-.065A5.014,5.014,0,0,1,2592,939.563Z" transform="translate(-2590.658 -939.502)"/></g><g class="ai" transform="translate(0.091 43.57)"><path class="z" d="M2086.429,1471.6a15.346,15.346,0,0,1-3.1,1.8.649.649,0,0,0-.177-.025c-.456.242-1.181-.59-1.181-.59a4.647,4.647,0,0,1-2.069-3.136c-.14-.076-.337-.192-.685-.371l0-.019c-.131-.067-.282-.143-.46-.228l-.041-.021a2.216,2.216,0,0,1-.8-.6.861.861,0,0,1-.06-.088,6.1,6.1,0,0,1,1.419.692c.268.161.537.322.818.458a7.432,7.432,0,0,0,1.435.434c.449.117.845.366,1.318.448a2.586,2.586,0,0,0,.309.037,1.582,1.582,0,0,0,.439-.03,1.637,1.637,0,0,0,.564-.255,2.7,2.7,0,0,0,.992-1.383l.018-.057a3.946,3.946,0,0,0,.155-.741c.011-.1.019-.19.025-.286h.177A14.88,14.88,0,0,0,2086.429,1471.6Z" transform="translate(-2077.856 -1467.645)"/></g><g transform="translate(29.862 16.52)"><path class="ad" d="M2580.495,1013.905a8.593,8.593,0,0,1-1.5,3.082c-.75.429-1.577.59-1.659.414-.115-.248.979-1.8,1.271-2.448s1.616-1.1,1.883-1.117C2580.492,1013.837,2580.494,1013.861,2580.495,1013.905Z" transform="translate(-2577.33 -1013.837)"/></g><g class="ac" transform="translate(26.51 28.638)"><path class="i" d="M2537.707,1225.909a2.127,2.127,0,0,1-.171.521l-.832,1.943a31.873,31.873,0,0,1-1.917,3.964,28.289,28.289,0,0,1-1.969,3.426c-.031.037-.061.073-.094.11.2-.345.348-.606.348-.606-1.206.733-7.116-.281-8.08-.763s0,0-1.146.091-3.075-.452-2.713-1.146a2.324,2.324,0,0,0,.173-.505,2.927,2.927,0,0,0,.484.008,6.862,6.862,0,0,0,2.5-.747,10.953,10.953,0,0,0,1.172-.878c.456-.316,1.027-.416,1.48-.759a1.68,1.68,0,0,0,.7-1.822,2.553,2.553,0,0,0-1.315-1.138.361.361,0,0,1-.2-.2c-.048-.182.182-.305.367-.341a18.792,18.792,0,0,1,2.54-.1c1.663-.092,2.483-1.066,3.212-2.469a11.209,11.209,0,0,0,.957-3.86c.166-1.221-.354-2.288-.466-3.511a1.711,1.711,0,0,1,.879,1.138c.539,2.449,2.381,4.145,3.66,6.3A2.142,2.142,0,0,1,2537.707,1225.909Z" transform="translate(-2521.087 -1217.126)"/></g><g class="ac" transform="translate(37.899 46.933)"><path class="i" d="M2719.84,1524.069c-.743.929-1.41,1.765-1.9,2.424-2.352,3.159-1.749,3.473-3.256,2.9a6.922,6.922,0,0,1-2.525-2.206c.243-.038.484-.09.716-.148A23.636,23.636,0,0,0,2719.84,1524.069Z" transform="translate(-2712.159 -1524.069)"/></g><g class="w" transform="translate(28.976 59.008)"><path class="t" d="M2571.614,1760.088c-.262-.5-.423-.8-.423-.8a27.541,27.541,0,0,1-.964,6.512c-.42,1.2-.423,4.005-.36,6.562-6.3-13.943-7.257-30.581-7.408-45.7.883,4.046,2.785,8.439,3.648,12.49,1.312,6.167,1.229,12.793,4.224,18.342.364.674.771,1.327,1.069,2.032Q2571.52,1759.8,2571.614,1760.088Z" transform="translate(-2562.46 -1726.658)"/></g><g class="w" transform="translate(32.203 108.537)"><path class="t" d="M2636.5,2565.206l-.1.007c-4.323.3-14.44-.323-17.254-.508l-.611-.041c-.263-.152-.521-.311-.781-.468-.379-.231-.762-.457-1.162-.65l1.146.054q2.839.13,5.68.208c1.5.042,2.892-.572,4.407-.708a54.431,54.431,0,0,0,5.8-.817c.408-.082.873-.213,1.04-.593.27-.613-.432-1.176-.985-1.553a7.232,7.232,0,0,1-2.276-2.537c1.5.189,3.549.524,4.1,1C2636.41,2559.364,2636.5,2565.206,2636.5,2565.206Z" transform="translate(-2616.594 -2557.6)"/></g></g><g transform="translate(38.814 21.944)"><g transform="translate(22.434 102.898)"><path class="z" d="M1920.025,2477.644l6.378-1.1a.314.314,0,0,0,.3-.431q-.258-3.639-.835-7.245a.8.8,0,0,0-.125-.371c-.185-.24-.555-.194-.844-.1a8.138,8.138,0,0,0-4.5,3.468C1919.6,2473.495,1920.022,2475.908,1920.025,2477.644Z" transform="translate(-1919.909 -2468.321)"/></g><g transform="translate(1.619 104.275)"><path class="z" d="M1578.906,2491.419a26.151,26.151,0,0,0-4.028,1.337,12.264,12.264,0,0,0-2.5,1.559c-1.277,1.2-1.458,3.355-1.676,4.985-.05.373,2.883-.292,3.151-.351a25.835,25.835,0,0,1,4.764-.471,9.345,9.345,0,0,1-.756-3.042C1577.832,2494.834,1578.264,2491.64,1578.906,2491.419Z" transform="translate(-1570.699 -2491.419)"/></g><g transform="translate(0.903 47.829)"><path class="aj" d="M1588.718,1576.945c-.524,4.537-.037,1.443,0,1.219-.036.366-.8,8.236-1.326,10.238-.542,2.051,0,15.076,0,15.076a2.211,2.211,0,0,1-.2.241,1.776,1.776,0,0,1-1.786.6,2.8,2.8,0,0,0-1.628-.181l-1.808.784c-1.809.784-.664,1.266-2.171,1.107s-.542-.263-1.034-3.036a61.559,61.559,0,0,1-1.182-12.422,60.2,60.2,0,0,0-.525-8.225c-.043-.37-.086-.732-.13-1.083-.017-.141-.034-.279-.051-.416-.085-.674-.168-1.3-.243-1.85-.164-1.195-.292-2.036-.324-2.245l-.008-.051c-.007.043-.015.086-.023.132-.075.42-.191.935-.341,1.521-.531,2.084-1.485,5.083-2.491,8.033-1.541,4.518-3.2,8.919-3.658,9.731-.845,1.507-1.749,9.045-2.625,8.684s-.933-.362-2.561.362-5.367,1.086-5.789.724a4.233,4.233,0,0,1-.059-1.968c.155-1.849.553-4.609.782-6.6.362-3.136,4.041-14.895,4.462-17.246a8.93,8.93,0,0,1,1.809-3.86c.3-.6.422-4.1.724-6.874.144-1.325.151-4.12.118-6.713-.036-2.837-.118-5.431-.118-5.589l7.268-9.4a8.269,8.269,0,0,1,14.054,1.6l.869,1.89s.082,3.19.151,7.366C1588.976,1565.067,1589.05,1574.07,1588.718,1576.945Z" transform="translate(-1558.687 -1544.432)"/></g><g class="w" transform="translate(18.149 80.233)"><path d="M1848.092,2088.934a5.564,5.564,0,0,1,.268-.865c-.075.42-.191.935-.341,1.521A4.251,4.251,0,0,1,1848.092,2088.934Z" transform="translate(-1848.019 -2088.068)"/></g><g class="w" transform="translate(8.744 47.829)"><path d="M1712.568,1558.5a2.126,2.126,0,0,0-.289.072c-4.193,1.355-5.965,6.027-7.471,9.676a85.329,85.329,0,0,0-3.123,8.944c-.319,1.106-.744,2.369-1.115,3.656-.085-.674-.168-1.3-.243-1.85-.164-1.195-.292-2.036-.324-2.245l.037-.1a55.375,55.375,0,0,0,2.455-9.306c.649-3.317,2.117-6.444.74-9.82-.684-1.677-4.06.709-4.855,1.205a64.092,64.092,0,0,1-7.019,3.333,8.745,8.745,0,0,0-1.017.564c-.036-2.837-.118-5.431-.118-5.589l7.268-9.4a8.269,8.269,0,0,1,14.054,1.6l.869,1.89S1712.5,1554.326,1712.568,1558.5Z" transform="translate(-1690.226 -1544.432)"/></g><g class="w" transform="translate(18.512 53.086)"><path d="M1859.073,1632.625c.072,1.15.052,2.3.018,3.454l-.037.863c-.005.144-.015.288-.025.431l-.028.431q-.028.431-.06.862l-.078.86-.082.86-.1.858-.1.858c-.035.286-.081.57-.12.856l-.127.855c-.043.285-.084.57-.135.854l-.3,1.7-.039.213-.043.212-.087.423-.174.846-.178.845q-.1.421-.2.841c-.135.56-.268,1.12-.407,1.679s-.3,1.112-.456,1.666l-.234.831c-.038.139-.08.276-.123.414l-.129.412q-.259.824-.525,1.645l-.135.41-.145.407c-.1.271-.193.542-.294.812l-.3.809c-.1.269-.2.538-.31.805.061-.282.127-.562.19-.842l.2-.838c.065-.28.137-.557.206-.836l.1-.417.094-.42q.192-.839.391-1.675l.1-.418c.034-.139.068-.278.1-.418l.184-.839.187-.838.19-.837c.113-.561.233-1.12.35-1.68l.179-.839.163-.842.167-.841.084-.421.042-.21.038-.211.309-1.687c.055-.281.1-.563.148-.845l.144-.846c.047-.282.1-.563.144-.846l.134-.847.136-.847.124-.849.128-.849.116-.851c.038-.284.081-.567.116-.851l.109-.852Q1858.907,1634.341,1859.073,1632.625Z" transform="translate(-1854.117 -1632.625)"/></g><g transform="translate(0 107.719)"><path class="ak" d="M1559.746,2556.347c-1.824.108-5.155.287-8.293.362-3.671.087-7.077.031-7.5-.448a2.2,2.2,0,0,1-.412-1.308,10.217,10.217,0,0,1,.291-2.635,1.007,1.007,0,0,1,.6-.707,8.393,8.393,0,0,1,3.235-.666,5.718,5.718,0,0,0,3.321-1.511,1.006,1.006,0,0,1,1.452.184c.128.175.259.337.391.489,1.215,1.385,2.673,1.866,5.418,3.168a8.764,8.764,0,0,1,2.117,1.324.974.974,0,0,1,.329.67A1.007,1.007,0,0,1,1559.746,2556.347Z" transform="translate(-1543.533 -2549.205)"/></g><g transform="translate(20.991 107.47)"><path class="ak" d="M1912.693,2550.994c0,.019,0,.038,0,.056s0,.017,0,.025a1.143,1.143,0,0,1-.226.621,1.082,1.082,0,0,1-.79.434l-.031,0c-4.16.242-14.766.77-15.529-.1a1.962,1.962,0,0,1-.391-1.062,9.36,9.36,0,0,1,.256-2.823,1.109,1.109,0,0,1,.666-.788,8.35,8.35,0,0,1,3.177-.642,5.608,5.608,0,0,0,3.244-1.449,1.108,1.108,0,0,1,1.583.195c.07.094.141.183.212.269,1.242,1.5,2.7,1.968,5.544,3.316a9.721,9.721,0,0,1,1.869,1.115A1.069,1.069,0,0,1,1912.693,2550.994Z" transform="translate(-1895.693 -2545.021)"/></g><g transform="translate(11.783 7.531)"><path class="t" d="M1742.123,872.458a5.532,5.532,0,0,1-.423,2.223c.587.2,1.147.462,1.719.052s.563-1.066,1.037-1.478c.515-.447.994-.7,1.214-1.388a2.275,2.275,0,0,0-.388-2.077,4.955,4.955,0,0,0-2.982-1.387,1.182,1.182,0,0,0-.687-.005.749.749,0,0,0-.392.8,2.885,2.885,0,0,0,.35.881A5.539,5.539,0,0,1,1742.123,872.458Z" transform="translate(-1741.213 -868.349)"/></g><g transform="translate(12.303 11.151)"><path class="u" d="M1758.841,936.274c-.114.536-.316,1.068-.484,1.594a1.035,1.035,0,0,1-1.008.907l-1.58.31a4.632,4.632,0,0,1-5.292-1.795,1.684,1.684,0,0,1-.529-.764c-.149-.642,1.317-1.9,1.653-2.472a2.835,2.835,0,0,0,.337-.9c.233-1.177-.172-2.47-.044-3.63.755.025,1.453-.422,2.264-.435,1.166-.018,2.334.036,3.5-.007a27.874,27.874,0,0,0-.361,5.234C1757.424,935.49,1757.839,936.362,1758.841,936.274Z" transform="translate(-1749.938 -929.083)"/></g><g transform="translate(12.887 18.307)"><path class="d" d="M1775.916,1080.848s-.091.064-.263.166c-.081.048-.181.1-.3.167s-.278.145-.446.225a11.032,11.032,0,0,1-7.774.626,12.66,12.66,0,0,1-3.107-1.387l-.064-.039a4.013,4.013,0,0,1-.676-.53,10.064,10.064,0,0,1-2.312-4.643,33.88,33.88,0,0,1-.883-5.092,102.461,102.461,0,0,1-.025-16.612c.086-1.229.174-2.241.239-2.947s.111-1.111.111-1.111a5.364,5.364,0,0,0,1.508,1.118,6.1,6.1,0,0,0,1.305.5,6.328,6.328,0,0,0,1.71.194,3.3,3.3,0,0,0,2.477-.956,2.63,2.63,0,0,0,.4-.571c.012-.022.022-.042.033-.064a2.689,2.689,0,0,0,.157-.394,2.013,2.013,0,0,0,.079-.352l.143.184,3.675,4.706.689.883,1.387,8.261,1.276,13.058.292,2.983Z" transform="translate(-1759.738 -1049.145)"/></g><g class="al" transform="translate(12.887 18.491)"><path class="p" d="M1775.916,1083.747s-.091.064-.263.166c-.081.048-.181.1-.3.167s-.278.145-.446.225a11.031,11.031,0,0,1-7.774.627,12.66,12.66,0,0,1-3.107-1.387l-.064-.039a4.013,4.013,0,0,1-.676-.53,64.385,64.385,0,0,1-2.646-7.747q-.283-.991-.549-1.988a102.46,102.46,0,0,1-.025-16.612c.086-1.229.174-2.241.239-2.947s.111-1.111.111-1.111a5.365,5.365,0,0,0,1.508,1.118,6.105,6.105,0,0,0,1.305.5,59.566,59.566,0,0,1,3.2,8.55c1.045,3.622.9,7.7,3.6,10.5a.716.716,0,0,0,.594.3c.347-.067.4-.538.362-.89q-.475-4.922-.95-9.845a11.662,11.662,0,0,0-.426-2.961q-1.093-3.206-2.185-6.411l-.083-.244a2.082,2.082,0,0,1,.676-.785c.072-.058.146-.114.223-.168l3.675,4.706.689.883,1.387,8.261,1.276,13.058.292,2.983Z" transform="translate(-1759.738 -1052.228)"/></g><g transform="translate(3.797 16.519)"><path class="am" d="M1630.962,1051.1a5.582,5.582,0,0,1-.153,1.142,1.128,1.128,0,0,1-.474.746c-.923.488-5.115-2.076-6.35-2.855l-.344-.22c0,.01,0,.02,0,.031a17.422,17.422,0,0,1-1.09,8.833,6.1,6.1,0,0,1-.735,2.632c-2.715,4.907-11.881,4.275-11.567,3.1.362-1.357-.03-16.794-.06-19.6a22.329,22.329,0,0,0-1.146-6.151c-.392-1.6-1.869-6.785-1.809-10.975s1.96-4.251,2.955-5.005a13.886,13.886,0,0,1,2.055-1.242c.188-.1.377-.193.566-.291q.181-.093.362-.188c.436-.227.872-.467,1.3-.741.518-.331,1.015-1.088,1.64-1.178.1-.014.184.069.25.144.1.118.2.235.3.351a16.162,16.162,0,0,1,1.843,2.922,39.845,39.845,0,0,1,2.06,4.826q.256.709.49,1.427a51.9,51.9,0,0,1,2.063,9.091c.046.334.082.67.113,1.006.122,1.319.161,2.649.347,3.955.018.127.2.317.5.548a54.441,54.441,0,0,0,6.312,3.58c.415.209.669.334.669.334a3.274,3.274,0,0,0-.091.722C1630.932,1048.884,1631.014,1050.087,1630.962,1051.1Z" transform="translate(-1607.238 -1019.14)"/></g><g transform="translate(8.809 18.44)"><path class="an" d="M1703.151,1073.725c-.008.041-.016.082-.025.123a8.578,8.578,0,0,0-3.188-1.658c.9-3.422-.7-6.115-1.287-9.359a12.621,12.621,0,0,0-.664-2.6,11.139,11.139,0,0,0-1.364-2.265,47.34,47.34,0,0,0-5.3-6.086l0-.026c.188-.1.377-.193.566-.291l.362-.188a29.3,29.3,0,0,1,7.836,7.674l.044.075a51.9,51.9,0,0,1,2.063,9.091c.045.334.082.67.112,1.006.122,1.319.161,2.649.347,3.955C1702.672,1073.3,1702.854,1073.494,1703.151,1073.725Z" transform="translate(-1691.322 -1051.376)"/></g><g transform="translate(9.321 16.49)"><g transform="translate(0.053 0.029)"><path class="r" d="M1711.23,1038.909c-.469-1.46-.951-2.917-1.51-4.346-.527-1.348-1.242-2.625-1.649-4.009a10.309,10.309,0,0,0-1.9-3.036q-1.327-1.781-2.7-3.529a16.651,16.651,0,0,0-2.662-2.739c.556-.285,1.114-.578,1.665-.929.518-.331,1.015-1.088,1.64-1.178.1-.014.183.069.25.144q.154.177.3.351a16.142,16.142,0,0,1,1.843,2.921,39.841,39.841,0,0,1,2.06,4.826,51.289,51.289,0,0,1,2.553,10.518C1711.163,1038.238,1711.2,1038.573,1711.23,1038.909Z" transform="translate(-1700.811 -1019.141)"/></g><path class="r" d="M1710.442,1038.708l-.081-.252c-.45-1.4-.945-2.9-1.509-4.344-.2-.514-.433-1.026-.658-1.521a19.334,19.334,0,0,1-.992-2.49,7.907,7.907,0,0,0-1.49-2.5c-.134-.173-.274-.353-.4-.529-.795-1.067-1.652-2.187-2.7-3.528a16.68,16.68,0,0,0-2.658-2.734l-.035-.028.04-.02c.537-.276,1.107-.574,1.662-.928a3.974,3.974,0,0,0,.557-.471,2.248,2.248,0,0,1,1.1-.712.334.334,0,0,1,.276.154c.1.112.2.231.3.352a16.07,16.07,0,0,1,1.846,2.926,39.489,39.489,0,0,1,2.062,4.83,51.375,51.375,0,0,1,2.555,10.524c.043.315.079.645.112,1.007Zm-10.419-17.914a16.774,16.774,0,0,1,2.632,2.715c1.046,1.341,1.9,2.462,2.7,3.529.131.176.27.355.4.528a7.955,7.955,0,0,1,1.5,2.517,19.234,19.234,0,0,0,.989,2.483c.225.5.457,1.009.659,1.524.531,1.359,1,2.763,1.428,4.091-.026-.258-.055-.5-.087-.736a51.308,51.308,0,0,0-2.552-10.512,39.472,39.472,0,0,0-2.059-4.823,16.025,16.025,0,0,0-1.84-2.916c-.1-.12-.2-.238-.295-.35-.067-.077-.141-.147-.223-.135a2.21,2.21,0,0,0-1.063.7,4.024,4.024,0,0,1-.566.478C1701.107,1020.231,1700.55,1020.524,1700.023,1020.795Z" transform="translate(-1699.917 -1018.651)"/></g><g transform="translate(7.575 33.279)"><path class="an" d="M1682.153,1323.2a6.1,6.1,0,0,1-.735,2.632c-.308-.873-.643-1.737-.9-2.632a22.018,22.018,0,0,0-1.918-4.571c-1.557-2.825-3.522-5.411-4.935-8.318-1.574-3.238-1.9-6.655-3.053-9.993.192.561.975,1.019,1.209,1.662a10.864,10.864,0,0,0,.755,1.955c.978,1.688,2.027,3.339,3.1,4.97a11.79,11.79,0,0,0,2.813,3.277c1.422,1.018,3.2,1.385,4.756,2.185A17.421,17.421,0,0,1,1682.153,1323.2Z" transform="translate(-1670.612 -1300.319)"/></g><g transform="translate(7.537 33.307)"><path class="r" d="M1669.99,1300.791a1.968,1.968,0,0,1,.17.262l.156.271.3.548c.2.366.388.735.582,1.1.383.737.758,1.477,1.133,2.216s.748,1.478,1.126,2.213c.19.367.378.734.573,1.1s.389.726.593,1.08.411.707.637,1.03c.056.08.114.159.172.231.029.037.059.07.088.1l.044.046.05.046c.064.063.14.122.214.183.038.03.078.058.117.087s.078.059.119.087c.325.228.676.435,1.031.637s.719.393,1.085.582c.732.378,1.478.738,2.225,1.1s1.5.709,2.249,1.071c-.8-.224-1.59-.493-2.375-.771s-1.558-.589-2.323-.926c-.382-.169-.762-.346-1.137-.538a11.733,11.733,0,0,1-1.108-.632,4.285,4.285,0,0,1-.533-.4l-.065-.058-.064-.066c-.04-.044-.081-.087-.116-.131-.074-.087-.14-.175-.2-.264-.253-.355-.469-.716-.68-1.081s-.4-.735-.6-1.106-.376-.745-.555-1.121q-.541-1.127-1.035-2.271t-.958-2.3c-.151-.387-.306-.773-.454-1.161l-.223-.582-.112-.291-.058-.144A.878.878,0,0,0,1669.99,1300.791Z" transform="translate(-1669.99 -1300.791)"/></g><g transform="translate(15.377 27.458)"><path class="r" d="M1801.509,1202.658c.1.236.2.475.287.715s.178.481.263.723c.172.483.327.971.482,1.458l.9,2.922c.148.488.291.977.432,1.467l.208.736.051.184c.017.059.034.117.053.176.037.117.076.235.118.354a6.165,6.165,0,0,1,.4,1.552,1.885,1.885,0,0,1-.34,1.248,2.423,2.423,0,0,1-.277.32l-.219-.352a3.185,3.185,0,0,1,.364-.072,1.389,1.389,0,0,1,.2-.011c.037,0,.073,0,.11.01l.058.013a.277.277,0,0,1,.057.017l.057.023a.6.6,0,0,1,.053.03.559.559,0,0,1,.093.07c.027.025.05.051.073.077s.041.051.058.075c.072.1.132.192.2.28.033.044.068.089.1.129a1.222,1.222,0,0,0,.111.113,1.787,1.787,0,0,0,.265.2c.192.118.4.219.605.328a5.944,5.944,0,0,1-.668-.2,1.962,1.962,0,0,1-.323-.162,1.134,1.134,0,0,1-.15-.112c-.047-.041-.089-.081-.132-.124-.086-.083-.165-.174-.24-.251-.019-.02-.037-.036-.056-.054s-.036-.03-.053-.041a.271.271,0,0,0-.049-.027c-.008,0-.015-.008-.024-.01l-.025-.005a.6.6,0,0,0-.256.023,2.845,2.845,0,0,0-.3.1l-.71.252.491-.6a2.307,2.307,0,0,0,.2-.28,1.451,1.451,0,0,0,.175-.945,3.342,3.342,0,0,0-.172-.68c-.078-.231-.173-.464-.265-.706-.046-.121-.09-.244-.133-.369-.022-.062-.042-.127-.062-.19l-.055-.184-.215-.736c-.141-.492-.281-.984-.415-1.477-.068-.246-.134-.494-.2-.741s-.132-.494-.191-.744c-.123-.5-.232-1-.339-1.5s-.208-1-.3-1.5c-.049-.251-.1-.5-.145-.753S1801.554,1202.911,1801.509,1202.658Z" transform="translate(-1801.509 -1202.658)"/></g><g transform="translate(20.282 17.317)"><path class="am" d="M1897.348,1072.82c-.06.362-1.085.785-2.472.423a.8.8,0,0,1-.348-.239c-.875-.912-2.091-4.165-2.951-7.224q-.108-.384-.208-.762c-.008-.03-.016-.061-.024-.091-.111-.421-.213-.833-.3-1.229a18.394,18.394,0,0,1-.506-3.058c-.013-.326-.036-.682-.066-1.058-.12-1.5-.36-3.336-.6-5-.257-1.739-.519-3.29-.656-4.073-.3-1.719-2.382-10.222-2.955-12a28.517,28.517,0,0,0-1.267-3.061l-.011-.024c-.163-.358-.321-.718-.478-1.078l-.007-.016-.189-.435a4.113,4.113,0,0,0-.255-.424,1.394,1.394,0,0,1-.244-.515.383.383,0,0,1,.133-.353c.408-.3,1.631.4,1.99.6q.192.11.379.228c.535.332,1.048.7,1.556,1.072l.45.33.2.144c1.144.836,3.02,1.978,3.6,3.349.269.637.953,3.224,1.627,5.956.765,3.1,1.517,6.383,1.629,7.214.077.568.368,3.489.705,7q.007.071.014.143.057.587.115,1.192a2.215,2.215,0,0,1-.8-.6,10.12,10.12,0,0,0-1.327.986,4.819,4.819,0,0,1-2.129.391l.292,2.983.362,1.628s-.091.064-.263.166a17.709,17.709,0,0,0,1.846.675,6.024,6.024,0,0,0,1.07.047c.4,0,.766-.121,1.147-.141a1.321,1.321,0,0,1,.373.044l.014,0a.013.013,0,0,0,0,0C1897.111,1069.708,1897.371,1072.681,1897.348,1072.82Z" transform="translate(-1883.8 -1032.529)"/></g><g transform="translate(21.467 18.221)"><path class="an" d="M1916.042,1087.083c-.06.362-1.085.785-2.472.423a.8.8,0,0,1-.348-.239c-.875-.912-2.091-4.165-2.951-7.223q-.109-.384-.208-.763c-.008-.03-.016-.061-.024-.091-.111-.421-.213-.832-.3-1.229a0,0,0,0,0,0,0c.052-1.018-.03-2.221.006-3.058a3.262,3.262,0,0,1,.091-.722s-.254-.125-.668-.334c-.12-1.5-.36-3.336-.6-5-.257-1.739-.519-3.29-.656-4.073-.3-1.719-2.381-10.222-2.955-12a28.492,28.492,0,0,0-1.267-3.061,3.4,3.4,0,0,1,.96-1.833.826.826,0,0,1,.358-.181c.535.333,1.048.7,1.556,1.072l.45.33a97.622,97.622,0,0,1,2.2,13.727q.29,3.463.281,6.941c-.008,2.023.741,3.523,2.618,4.253a.745.745,0,0,0,.573.055.693.693,0,0,0,.3-.38,7.072,7.072,0,0,0,.369-2.946,112.767,112.767,0,0,0-.922-12.2c.765,3.1,1.517,6.383,1.629,7.214.077.568.368,3.489.705,7q.007.071.013.143.057.587.115,1.192a2.218,2.218,0,0,1-.805-.595,10.089,10.089,0,0,0-1.327.986,4.819,4.819,0,0,1-2.129.391l.292,2.983.362,1.628s-.091.064-.263.166a17.732,17.732,0,0,0,1.846.675,6.026,6.026,0,0,0,1.07.047c.4,0,.766-.121,1.147-.141a1.318,1.318,0,0,1,.374.044l.014,0a.009.009,0,0,0,0,0C1915.806,1083.971,1916.066,1086.943,1916.042,1087.083Z" transform="translate(-1903.68 -1047.696)"/></g><g transform="translate(20.252 17.288)"><g transform="translate(0.029 0.028)"><path class="r" d="M1890.169,1050.927a30.265,30.265,0,0,1-.309,3.651c-.256-1.739-.519-3.29-.656-4.073-.3-1.719-2.382-10.222-2.955-12a28.878,28.878,0,0,0-1.278-3.085c-.231-.508-.452-1.019-.674-1.53-.1-.221-.491-.711-.5-.939a.385.385,0,0,1,.133-.354c.408-.3,1.631.4,1.99.6a21.447,21.447,0,0,1,1.935,1.3,28.9,28.9,0,0,1,.806,4.968C1888.783,1042.214,1890.23,1048.275,1890.169,1050.927Z" transform="translate(-1883.798 -1032.525)"/></g><path class="r" d="M1889.4,1054.334l-.03-.2c-.276-1.871-.551-3.471-.656-4.072-.286-1.634-2.366-10.172-2.954-12a26.232,26.232,0,0,0-1.157-2.821l-.119-.262c-.215-.472-.424-.954-.626-1.421l-.048-.11a2.811,2.811,0,0,0-.19-.322,1.775,1.775,0,0,1-.312-.628.416.416,0,0,1,.145-.378c.359-.259,1.3.185,2.022.6a21.716,21.716,0,0,1,1.937,1.3l.009.006,0,.01a28.885,28.885,0,0,1,.807,4.974,49.722,49.722,0,0,0,.712,5.116,42.083,42.083,0,0,1,.795,6.343h0a30.28,30.28,0,0,1-.309,3.654Zm-5.657-22.228a.43.43,0,0,0-.255.066.362.362,0,0,0-.121.329,1.772,1.772,0,0,0,.3.6,2.833,2.833,0,0,1,.195.33l.048.11c.2.466.411.948.626,1.419l.119.262a26.3,26.3,0,0,1,1.16,2.827c.588,1.825,2.669,10.369,2.956,12,.1.579.36,2.087.626,3.872a29.773,29.773,0,0,0,.281-3.446h0a42.071,42.071,0,0,0-.794-6.332,49.8,49.8,0,0,1-.713-5.123,28.778,28.778,0,0,0-.8-4.952,21.6,21.6,0,0,0-1.923-1.292A4.155,4.155,0,0,0,1883.744,1032.105Z" transform="translate(-1883.309 -1032.047)"/></g><g transform="translate(27.368 45.4)"><path class="z" d="M2004.386,1508.283s-.091.064-.263.166c-.261-.1-.532-.209-.8-.313l-.151-.058c-.163-.062-.324-.123-.482-.18a23.9,23.9,0,0,0,.158-4.2c.245,0,.555-.01.885-.026l.292,2.983Z" transform="translate(-2002.689 -1503.672)"/></g><g transform="translate(28.412 44.023)"><path class="u" d="M2029.683,1486.5a4.741,4.741,0,0,1-2.47.268,2.428,2.428,0,0,1-1.235.751,2.713,2.713,0,0,1-.939-.164l-.014,0a1.33,1.33,0,0,0-.373-.044c-.381.021-.745.137-1.147.141a6.026,6.026,0,0,1-1.07-.047,17.68,17.68,0,0,1-1.846-.675c.172-.1.263-.166.263-.166l-.362-1.628-.292-2.983a4.819,4.819,0,0,0,2.129-.391,10.122,10.122,0,0,1,1.327-.986,2.218,2.218,0,0,0,.805.595l.041.02c.194.094.356.176.5.247.348.179.545.294.685.371a4.649,4.649,0,0,0,2.069,3.136s.724.832,1.181.59a.642.642,0,0,1,.177.025C2029.331,1485.618,2029.683,1485.819,2029.683,1486.5Z" transform="translate(-2020.199 -1480.574)"/></g><g transform="translate(31.868 41.948)"><path class="u" d="M2080.67,1447.038a2.2,2.2,0,0,1-.222.827,2.691,2.691,0,0,0-.151.4,2.438,2.438,0,0,0-.092.816c-.14-.077-.337-.192-.685-.371-.14-.071-.3-.153-.5-.247l-.041-.02a2.216,2.216,0,0,1-.8-.595c.229-.149.391-.249.391-.249l.3-.348.125-.144,1.148-1.333A1.546,1.546,0,0,1,2080.67,1447.038Z" transform="translate(-2078.179 -1445.77)"/></g><g transform="translate(32.141 50.01)"><path class="ao" d="M2082.768,1581.019c.107.059.2.124.3.189s.191.132.285.2.188.134.281.2.187.141.278.223a1.373,1.373,0,0,1-.344-.111,1.966,1.966,0,0,1-.583-.415A1.379,1.379,0,0,1,2082.768,1581.019Z" transform="translate(-2082.768 -1581.019)"/></g><g transform="translate(33.956 49.039)"><path class="ao" d="M2113.212,1564.732c.135.081.262.168.387.256s.249.176.373.265.246.178.369.27.245.184.365.287a2.249,2.249,0,0,1-.433-.178,3.263,3.263,0,0,1-.755-.545A2.251,2.251,0,0,1,2113.212,1564.732Z" transform="translate(-2113.212 -1564.732)"/></g><g class="y" transform="translate(14.234 11.151)"><path class="z" d="M1787.758,934.317a13.313,13.313,0,0,1-5.358-1.161c.233-1.177-.172-2.47-.044-3.63.755.025,1.453-.422,2.264-.435,1.166-.018,2.334.036,3.5-.007A27.876,27.876,0,0,0,1787.758,934.317Z" transform="translate(-1782.331 -929.083)"/></g><g transform="translate(12.185 2.713)"><path class="u" d="M1758.428,795.08q-.008.287-.023.573c-.014.276-.021.568-.031.868-.047,1.461-.233,3.517-1.915,4.04-1.415.44-3.468-.487-4.543-1.374a17.808,17.808,0,0,0-2.159-1.992c-.651-.363-1.179-.458-1.5-1.155-.226-.5-.543-1.326.009-1.659.572-.346,1.661.2,2.05.594-.024-.256-.046-.513-.064-.77a10.258,10.258,0,0,1,.107-2.734,4.723,4.723,0,0,1,1.773-2.966,5.789,5.789,0,0,1,2.4-.878,4.92,4.92,0,0,1,2.317.046c1.707.546,1.287,1.785,1.422,3.141,0,.007,0,.015,0,.023q.088.89.132,1.784l.007.147C1758.445,793.538,1758.453,794.31,1758.428,795.08Z" transform="translate(-1747.963 -787.511)"/></g><g transform="translate(10.667)"><path class="ap" d="M1735.059,746.071a1.324,1.324,0,0,1-.1.361,3.446,3.446,0,0,1-.672.935c-.063.069-.129.136-.193.2a5.334,5.334,0,0,1-1.479-1.775l-.02-.038a3.219,3.219,0,0,1-.163.344,2.331,2.331,0,0,1-.7.809c-1.032.72-2.491.334-3.723.658a1.135,1.135,0,0,0-.623.346c-.362.464.056.85-.062,1.289a.977.977,0,0,1-.191.358c-.2.246-.459.44-.513.793a7.192,7.192,0,0,0,.032,1.388,3.121,3.121,0,0,1-.013.464,2.2,2.2,0,0,1-.1.469c-.178.061-.288-.178-.338-.352a1.68,1.68,0,0,0-1.823-1.12c-.3.047-.021.262-.307.161a1.454,1.454,0,0,1-.679-.585,3.365,3.365,0,0,1,.219-3.992c.055-.066.115-.131.176-.193a3.186,3.186,0,0,0-1.291.412,1.378,1.378,0,0,1,1.822-.839,2.759,2.759,0,0,1,2.328-3.013q.018.272.035.543l3.226-1.156a7.954,7.954,0,0,1,2.024-.53,2.676,2.676,0,0,1,1.966.543,2.953,2.953,0,0,1,.816,1.846A5.4,5.4,0,0,1,1735.059,746.071Z" transform="translate(-1722.494 -742.001)"/></g><g class="y" transform="translate(14.764 3.756)"><path class="z" d="M1798.957,807.3a4.043,4.043,0,0,1-1.163-.908c-.15-.008-.413.133-.526.038a4.6,4.6,0,0,1-3.674.939,2.334,2.334,0,0,0-1.16.033c-.359.149-.593.63-.33.907-.466.416.589.437.1.834-.9.734-.63,1.631-.758,2.753q-.087-.211-.177-.426c.069-.637-.115-1.23-.02-1.853.077-.5.578-.682.7-1.151.118-.44-.3-.826.062-1.289a1.134,1.134,0,0,1,.622-.346c1.232-.323,2.691.063,3.723-.658a2.537,2.537,0,0,0,.863-1.153,5.328,5.328,0,0,0,1.5,1.814c.065-.068.13-.135.193-.2,0,.211.012.429.034.649C1798.955,807.287,1798.956,807.295,1798.957,807.3Z" transform="translate(-1791.226 -805.021)"/></g><g transform="translate(11.009 4.731)"><path class="t" d="M1732.044,826.38a3.122,3.122,0,0,1-.013.464,2.189,2.189,0,0,1-.1.469c-.178.061-.288-.178-.338-.352a1.68,1.68,0,0,0-1.823-1.12c-.3.047-.021.262-.307.161a1.455,1.455,0,0,1-.679-.585,3.364,3.364,0,0,1,.219-3.992,2.506,2.506,0,0,1,1.67.214c-.945-.451-1.466,2.5-1.256,2.966.351.776,1.241.514,1.872.861A1.825,1.825,0,0,1,1732.044,826.38Z" transform="translate(-1728.229 -821.368)"/></g><g transform="translate(15.019 4.101)"><path class="t" d="M1801.093,810.795a2.329,2.329,0,0,1-.7.809c-1.032.72-2.491.334-3.723.658a1.135,1.135,0,0,0-.623.346c-.362.464.056.85-.062,1.289a.979.979,0,0,1-.191.358,2.611,2.611,0,0,1-.255-1.5c.229-1.215,1.805-1.852,3.052-1.527a4.353,4.353,0,0,0,1.3.288A1.636,1.636,0,0,0,1801.093,810.795Z" transform="translate(-1795.508 -810.795)"/></g><g transform="translate(20.786 2.218)"><path class="t" d="M1894.709,781.067a1.328,1.328,0,0,1-.1.361,3.445,3.445,0,0,1-.672.935c-.063.069-.129.136-.193.2a5.335,5.335,0,0,1-1.479-1.775,4.851,4.851,0,0,0,.373-1.577A2.49,2.49,0,0,0,1894.709,781.067Z" transform="translate(-1892.263 -779.215)"/></g><g transform="translate(8.019 2.948)"><path class="ap" d="M1681.032,791.5a4.669,4.669,0,0,0-1.1.789c-.08.078-.156.161-.234.241s-.143.172-.215.256-.132.179-.2.268-.118.188-.177.281-.1.2-.151.294-.082.2-.123.3c-.021.05-.035.1-.054.154s-.037.1-.057.152c-.035.1-.069.205-.109.307-.019.051-.033.1-.05.155l-.053.156c-.03.105-.058.212-.092.319s-.051.217-.083.328-.045.224-.08.341l-.049,0a3.31,3.31,0,0,1-.1-.349c-.017-.119-.031-.239-.039-.361s0-.243.01-.364.032-.241.055-.361.061-.236.1-.351.094-.225.15-.333.121-.211.185-.313l.1-.15c.034-.05.064-.1.1-.149.073-.1.144-.192.22-.284s.157-.18.24-.267.171-.166.26-.245.183-.152.276-.224a4.278,4.278,0,0,1,1.245-.646Z" transform="translate(-1678.068 -791.455)"/></g><g transform="translate(8.737 18.122)"><path class="an" d="M1690.109,1046.042a.03.03,0,0,1,0,.019Z" transform="translate(-1690.109 -1046.042)"/></g><g class="w" transform="translate(19.268 84.969)"><path d="M1876.936,2189.679a1.776,1.776,0,0,1-1.786.6,2.8,2.8,0,0,0-1.628-.181l-1.808.784c-1.809.784-.664,1.266-2.171,1.107s-.543-.262-1.034-3.037a61.566,61.566,0,0,1-1.182-12.422,60.253,60.253,0,0,0-.525-8.225l.376-.776a26.106,26.106,0,0,1,1.7,9.93c-.083,4.2,1.016,10.874,6.5,11.195a1.918,1.918,0,0,1,1.3.339A.971.971,0,0,1,1876.936,2189.679Z" transform="translate(-1866.801 -2167.532)"/></g><g class="w" transform="translate(0.903 89.787)"><path d="M1573.441,2248.357c-1.541,4.518-3.2,8.919-3.658,9.731-.845,1.508-1.749,9.045-2.625,8.684s-.933-.362-2.561.362-5.367,1.085-5.789.724a4.233,4.233,0,0,1-.059-1.968,7.4,7.4,0,0,0,2.157.136,6.278,6.278,0,0,0,3.907-2.275,18.681,18.681,0,0,0,2.4-3.944l3.324-6.643A23.989,23.989,0,0,1,1573.441,2248.357Z" transform="translate(-1558.687 -2248.357)"/></g><g transform="translate(0.009 113.467)"><path class="t" d="M1560.839,2645.963a1.007,1.007,0,0,1-.947,1.078c-3.956.234-15.012.8-15.791-.087a2.2,2.2,0,0,1-.412-1.307A58.419,58.419,0,0,0,1560.839,2645.963Z" transform="translate(-1543.689 -2645.647)"/></g><g transform="translate(21.021 113.418)"><path class="t" d="M1913.193,2644.906l-.015.024-.545.909a1.107,1.107,0,0,1-.5.15c-4.16.242-14.767.77-15.529-.1a1.962,1.962,0,0,1-.391-1.062,61.133,61.133,0,0,0,13.849.24,22.652,22.652,0,0,1,2.386-.185c.244,0,.49.008.733.025Z" transform="translate(-1896.211 -2644.825)"/></g><g class="w" transform="translate(0 107.719)"><path d="M1549.445,2555.878l2.008.83c-3.671.087-7.077.031-7.5-.448a2.2,2.2,0,0,1-.412-1.308,10.217,10.217,0,0,1,.291-2.635,1.007,1.007,0,0,1,.6-.707,8.393,8.393,0,0,1,3.235-.666,5.718,5.718,0,0,0,3.321-1.511,1.006,1.006,0,0,1,1.452.184c.128.175.259.337.391.489a16.636,16.636,0,0,0-3.952,4.006,1.283,1.283,0,0,0-.3,1.07C1548.7,2555.547,1549.091,2555.732,1549.445,2555.878Z" transform="translate(-1543.533 -2549.205)"/></g><g class="w" transform="translate(20.991 107.47)"><path d="M1904.28,2552.322c-1.747-.065-6.876,1.182-8.165-.29a1.962,1.962,0,0,1-.391-1.062,9.36,9.36,0,0,1,.256-2.823,1.109,1.109,0,0,1,.666-.788,8.35,8.35,0,0,1,3.177-.642,5.608,5.608,0,0,0,3.244-1.449,1.108,1.108,0,0,1,1.583.195c.07.094.141.183.212.269-1.2.516-4.013,1.475-4.346,2.958C1900.115,2550.481,1902.748,2552.265,1904.28,2552.322Z" transform="translate(-1895.693 -2545.021)"/></g><g transform="translate(15.097 7.385)"><g transform="translate(5.077 2.003)"><path class="ae" d="M1882.01,899.5c.118.208.23.418.345.627l.17.315.167.316c.014.025.028.056.041.085a.653.653,0,0,1,.035.091.841.841,0,0,1,.037.193.712.712,0,0,1-.083.383.776.776,0,0,1-.269.289c-.029.016-.058.033-.087.048s-.061.025-.092.035a.418.418,0,0,1-.193.022c0-.018,0-.005,0-.009h0l.005,0,.01-.005.02-.011.041-.02.075-.047.069-.052.063-.056a.839.839,0,0,0,.18-.267.87.87,0,0,0,.068-.3.454.454,0,0,0,0-.078.415.415,0,0,0-.011-.078.446.446,0,0,0-.02-.077c-.009-.025-.017-.05-.03-.078l-.143-.327-.141-.328c-.092-.219-.186-.438-.275-.658Z" transform="translate(-1881.993 -899.498)"/></g><g transform="translate(0.635 0.085)"><path class="ae" d="M1807.474,868.189h0l.72-.494a1.011,1.011,0,0,1,.143-.087,1.047,1.047,0,0,1,.221-.066c.489-.107.974-.167,1.468-.231a.284.284,0,0,1,.312.2.856.856,0,0,1,.026.118.083.083,0,0,1-.007.059.1.1,0,0,1-.08.029A12.755,12.755,0,0,0,1807.474,868.189Z" transform="translate(-1807.474 -867.309)"/></g><g transform="translate(5.89)"><path class="ae" d="M1897.286,866.475a5.327,5.327,0,0,0-1.584-.158.05.05,0,0,1-.053-.022.127.127,0,0,1-.009-.058c0-.041,0-.082.007-.121.013-.135.091-.231.182-.225a7.057,7.057,0,0,1,.954.1.486.486,0,0,1,.146.046.634.634,0,0,1,.1.074l.253.217C1897.281,866.377,1897.283,866.426,1897.286,866.475Z" transform="translate(-1895.639 -865.891)"/></g><g transform="translate(2.428 1.242)"><g transform="translate(0 0)"><ellipse class="ae" cx="0.352" cy="0.436" rx="0.352" ry="0.436" transform="translate(0 0.08) rotate(-6.55)"/></g></g><g transform="translate(6.242 1.092)"><g transform="translate(0 0)"><ellipse class="ae" cx="0.262" cy="0.402" rx="0.262" ry="0.402" transform="translate(0 0.052) rotate(-5.709)"/></g></g><g transform="translate(3.297 5.06)"><path class="ae" d="M1854.625,951.715a1.156,1.156,0,0,1-.142.278.794.794,0,0,1-.668.295,1.506,1.506,0,0,1-1.384-.591,1.831,1.831,0,0,1-.3-.685,3.466,3.466,0,0,1,2.052-.106C1854.6,951.08,1854.74,951.372,1854.625,951.715Z" transform="translate(-1852.128 -950.783)"/></g><g transform="translate(1.868 1.105)"><path class="ae" d="M1828.16,884.94a1.579,1.579,0,0,1,.146-.141q.076-.065.155-.122a1.43,1.43,0,0,1,.337-.179,1.367,1.367,0,0,1,.181-.055.444.444,0,0,1,.191,0,.583.583,0,0,1,.189.082.615.615,0,0,1,.164.165l-.006.019c-.063-.015-.121-.029-.178-.038a1.457,1.457,0,0,0-.169-.013l-.168,0a.735.735,0,0,0-.171.012,1.16,1.16,0,0,0-.169.046,1.588,1.588,0,0,0-.167.065,2,2,0,0,0-.324.181Z" transform="translate(-1828.16 -884.433)"/></g><g transform="translate(6.029 1)"><path class="ae" d="M1899.03,882.881a1.225,1.225,0,0,0-.282-.055.99.99,0,0,0-.139,0,.731.731,0,0,0-.136.016.508.508,0,0,0-.129.048l-.124.06a1.087,1.087,0,0,0-.122.07c-.04.028-.079.061-.123.1l-.009-.015a.711.711,0,0,1,.081-.207.543.543,0,0,1,.12-.14.319.319,0,0,1,.141-.067.855.855,0,0,1,.147-.011.877.877,0,0,1,.291.048,1.375,1.375,0,0,1,.143.059,1.058,1.058,0,0,1,.141.079Z" transform="translate(-1897.967 -882.675)"/></g><g class="af" transform="translate(6.772 2.897)"><path class="ag" d="M1911.208,914.495c0,.192-.013.383-.022.574-.014.276-.021.568-.031.868-.417-.119-.705-.354-.727-.642C1910.4,914.968,1910.723,914.663,1911.208,914.495Z" transform="translate(-1910.426 -914.495)"/></g><g class="af" transform="translate(0 2.864)"><g transform="translate(0 0)"><ellipse class="ag" cx="1.43" cy="0.827" rx="1.43" ry="0.827" transform="translate(0 0.189) rotate(-3.8)"/></g></g><g class="g" transform="translate(0.389 2.9)"><ellipse class="d" cx="0.252" cy="0.241" rx="0.252" ry="0.241"/></g><g transform="translate(3.599 5.864)"><path class="ag" d="M1859.4,964.4a1.149,1.149,0,0,1-.142.278.794.794,0,0,1-.668.295,1.506,1.506,0,0,1-1.384-.591,8.655,8.655,0,0,1,1.223-.1,2.4,2.4,0,0,1,.783.052A1.716,1.716,0,0,1,1859.4,964.4Z" transform="translate(-1857.201 -964.271)"/></g></g></g></g></g><g transform="translate(1077.12 2554.038) rotate(34)"><g transform="translate(0 0)"><g transform="translate(0 0)"><path class="aq" d="M2839.571,633.229a1.812,1.812,0,0,1-.729-.141c-6.3-2.643-9.321-6.454-10.749-9.185a9.364,9.364,0,0,1-1.06-4.345l-.192-12.425a1.809,1.809,0,0,1,2.385-1.743,8.82,8.82,0,0,0,2.954.447,12.536,12.536,0,0,0,5.967-1.781,1.818,1.818,0,0,1,1.95-.027,12.534,12.534,0,0,0,6.014,1.593,8.827,8.827,0,0,0,2.939-.538,1.807,1.807,0,0,1,2.437,1.669l.192,12.424a9.356,9.356,0,0,1-.924,4.375c-1.343,2.776-4.247,6.678-10.461,9.514A1.807,1.807,0,0,1,2839.571,633.229Z" transform="translate(-2826.842 -603.757)"/></g><g transform="translate(5.856 7.32)"><g transform="translate(0 0)"><path d="M2868.517,609.45a1.525,1.525,0,0,1-1.044-.39l-3.128-2.8a1.532,1.532,0,1,1,2.043-2.284l2.081,1.863,7.442-7.123a1.532,1.532,0,0,1,2.1,2.234l-8.465,8.083A1.527,1.527,0,0,1,2868.517,609.45Z" transform="translate(-2863.833 -598.303)"/></g></g></g></g></g></svg>