<svg xmlns="http://www.w3.org/2000/svg" width="18.308" height="18.738" viewBox="0 0 18.308 18.738"><defs><style>.a{fill:#eb6874;}</style></defs><g transform="translate(-5.452 -2.574)"><g transform="translate(5.452 2.574)"><path class="a" d="M28.008,15.2h4.919a.659.659,0,0,0,.658-.658V8.082a.658.658,0,0,0-.227-.5L30.9,5.451a.651.651,0,0,0-.134-.089c-.009-.214-.011-.953,0-2.486a.3.3,0,1,0-.6-.006c-.016,1.519-.022,2.182,0,2.494a.648.648,0,0,0-.132.088L27.577,7.584a.658.658,0,0,0-.227.5v6.461a.659.659,0,0,0,.658.658Zm-.061-7.12a.061.061,0,0,1,.021-.046L30.428,5.9a.061.061,0,0,1,.08,0l2.459,2.133a.061.061,0,0,1,.021.046v6.461a.061.061,0,0,1-.061.061H28.008a.061.061,0,0,1-.061-.061Z" transform="translate(-25.714 -2.574)"/><path class="a" d="M49.13,81.425a.618.618,0,0,1-.617-.617.3.3,0,1,0-.6,0,1.216,1.216,0,0,0,1.215,1.215H49.2v.068a.3.3,0,1,0,.6,0v-.068h.068a1.216,1.216,0,0,0,1.215-1.215v-.367a1.216,1.216,0,0,0-1.215-1.215H49.8V77.991h.068a.618.618,0,0,1,.617.617.3.3,0,1,0,.6,0,1.216,1.216,0,0,0-1.215-1.215H49.8v-.068a.3.3,0,1,0-.6,0v.068H49.13a1.215,1.215,0,1,0,0,2.43H49.2v1.6Zm0-2.2a.617.617,0,1,1,0-1.235H49.2v1.235Zm.665.6h.068a.618.618,0,0,1,.617.617v.367a.618.618,0,0,1-.617.617H49.8Z" transform="translate(-44.743 -71.465)"/><path class="a" d="M145.833,15.2h4.919a.659.659,0,0,0,.658-.658V8.082a.658.658,0,0,0-.227-.5l-2.459-2.133a.648.648,0,0,0-.134-.089c-.009-.214-.011-.953,0-2.486a.3.3,0,0,0-.6-.006c-.016,1.518-.022,2.182,0,2.494a.652.652,0,0,0-.132.088L145.4,7.584a.658.658,0,0,0-.227.5v6.461a.659.659,0,0,0,.658.658Zm-.061-7.12a.061.061,0,0,1,.021-.046L148.253,5.9a.061.061,0,0,1,.08,0l2.459,2.133a.061.061,0,0,1,.021.046v6.461a.061.061,0,0,1-.061.061h-4.919a.061.061,0,0,1-.061-.061V8.082Z" transform="translate(-134.738 -2.574)"/><path class="a" d="M166.954,81.425a.618.618,0,0,1-.618-.617.3.3,0,0,0-.6,0,1.216,1.216,0,0,0,1.215,1.215h.068v.068a.3.3,0,1,0,.6,0v-.068h.068a1.216,1.216,0,0,0,1.215-1.215v-.367a1.216,1.216,0,0,0-1.215-1.215h-.068V77.991h.068a.618.618,0,0,1,.618.617.3.3,0,1,0,.6,0,1.216,1.216,0,0,0-1.215-1.215h-.068v-.068a.3.3,0,0,0-.6,0v.068h-.068a1.215,1.215,0,1,0,0,2.43h.068v1.6Zm0-2.2a.617.617,0,1,1,0-1.235h.068v1.235Zm.665.6h.068a.618.618,0,0,1,.618.617v.367a.618.618,0,0,1-.618.617h-.068Z" transform="translate(-153.766 -71.465)"/><path class="a" d="M23.462,185.5H5.751a.3.3,0,0,0-.3.3v1.745a.3.3,0,0,0,.3.3h8.038l-2.61,2.2a.3.3,0,0,0,.193.527h6.469a.3.3,0,0,0,.193-.527l-2.61-2.2h8.038a.3.3,0,0,0,.3-.3V185.8A.3.3,0,0,0,23.462,185.5Zm-11.273,4.476,2.418-2.042,2.418,2.042Zm10.974-2.731H6.05V186.1H23.163Z" transform="translate(-5.452 -171.836)"/><path class="a" d="M203.081,71.371a.3.3,0,0,0,.378-.462l-.053-.043a.3.3,0,1,0-.378.462Z" transform="translate(-188.168 -65.701)"/><path class="a" d="M183.541,55.385a.3.3,0,1,0,.378-.462l-.636-.52a.3.3,0,1,0-.378.462Z" transform="translate(-169.548 -50.468)"/></g></g></svg>