<svg xmlns="http://www.w3.org/2000/svg" width="15.57" height="16.834" viewBox="0 0 15.57 16.834"><defs><style>.a{fill:#eb6874;}</style></defs><g transform="translate(-19.214)"><path class="a" d="M306.04,343.133l-.895-1.012-.739.653,1.6,1.812L308.6,341.9l-.71-.685Z" transform="translate(-275.816 -329.994)"/><path class="a" d="M30.729,8.724c-.09,0-.179,0-.268.009l-.286-4.9H27.842V2.886a2.886,2.886,0,0,0-5.772,0v.952H19.736l-.518,8.873A2.488,2.488,0,0,0,21.7,15.343H27.59a4.054,4.054,0,1,0,3.139-6.62ZM23.057,2.886a1.9,1.9,0,0,1,3.8,0v.952h-3.8ZM21.7,14.357a1.5,1.5,0,0,1-1.5-1.589l.464-7.944h1.4V6.06h.986V4.824h3.8V6.06h.986V4.824h1.4l.239,4.1a4.055,4.055,0,0,0-2.491,5.438H21.7Zm9.028,1.49A3.069,3.069,0,1,1,33.8,12.779,3.072,3.072,0,0,1,30.729,15.848Z"/></g></svg>