<svg xmlns="http://www.w3.org/2000/svg" width="390.923" height="228.029" viewBox="0 0 390.923 228.029"><defs><style>.a{opacity:0.75;}.b{fill:#848484;opacity:0.26;}.c{fill:#b6b6b6;}.d{fill:#2a0200;}.e{fill:#f4a887;}.f{fill:#b6a8a1;}.g{fill:#c83949;}.h{fill:#380807;}.i{fill:#2d0300;}.j{fill:#501216;}.k{fill:#e64054;}.l{fill:#7d1b25;}.m{fill:#430a0a;}.n{fill:#c02b3f;}.o{fill:#741d28;}.p{fill:#fff;}.q{fill:#b92d43;}.r{fill:#397090;}.s{fill:#1d3c4e;}.t{fill:#8a2230;}.u{fill:#774642;}.v{fill:#e85926;}.w{fill:#ef8479;}.x{fill:#1d1e1c;}.y{fill:#b6481b;}.z{fill:#603a38;}.aa{fill:#936d59;}.ab{fill:#e7926d;}.ac{fill:#7f5e4c;}.ad{fill:#3b0a09;}.ae{opacity:0.63;}.af{fill:#0b0c0a;}.ag{fill:#f9b757;}.ah{fill:#e5782b;}.ai{fill:#d3cbc8;}.aj{fill:#fffffa;}.ak{fill:#264b61;}.al{opacity:0.5;}.am{fill:#abd0d6;}</style></defs><g transform="translate(3.923 -4353.938)"><g transform="translate(-5.133 4547.396)"><g class="a" transform="translate(1.21 0)"><ellipse class="b" cx="194.423" cy="17.219" rx="194.423" ry="17.219"/></g><g transform="translate(300.238 1.047)"><rect class="c" width="82.015" height="0.42" transform="translate(78.698 23.492) rotate(-163.649)"/></g><g transform="translate(230.148 0.544)"><rect class="c" width="58.693" height="0.42" transform="matrix(-0.841, -0.541, 0.541, -0.841, 49.358, 32.112)"/></g><g transform="translate(169.446 0.59)"><rect class="c" width="43.718" height="0.42" transform="translate(27.833 33.981) rotate(-129.542)"/></g><g transform="translate(112.526 1.605)"><rect class="c" width="33.273" height="0.42" transform="translate(10.268 31.779) rotate(-107.975)"/></g><g transform="translate(35.972 4.624)"><rect class="c" width="0.42" height="25.19" transform="translate(0.403 24.292) rotate(-163.67)"/></g></g><g transform="translate(102.433 -237.608)"><g transform="translate(53)"><g transform="translate(86.76 4620.108)"><g transform="translate(26.197 13.766)"><path class="d" d="M2671.871,978.556c-3.573,9.55-19.154,4.335-20.9,2.063s.738-13.312.738-13.312C2656.646,956.771,2675.445,969.006,2671.871,978.556Z" transform="translate(-2650.353 -963.251)"/></g><g transform="translate(14.587 92.44)"><path class="e" d="M2559.791,1789.123a15.4,15.4,0,0,0,1.39-2.347c3.9-16.1,6.64-27.887,7.467-31.491a50.624,50.624,0,0,0,1.177-7.4c.162-1.947.177-3.535.169-4.513q.726-5.533,1.452-11.067c.469-1.929,3.217-12.4,13.142-17.247a23.466,23.466,0,0,1,8.929-2.3L2580.283,1747a35.238,35.238,0,0,1,0,4.141c-.479,8.16-4,13.384-6.4,19.465-1.561,3.958-3.768,9.814-6.179,17.236.646,1.891,1.291,3.5,1.291,3.5l-1.485,8.765h-.9l.582-7.784c-3.185-.841-6.816,7.784-6.816,7.784s-10.036.2-10.756,0c-1.085-.3,1.255-2.71,3.044-4.5C2555.565,1792.695,2557.632,1792.125,2559.791,1789.123Z" transform="translate(-2549.338 -1712.764)"/></g><g transform="translate(52.621 92.834)"><path class="e" d="M2416.868,1726.7a9.1,9.1,0,0,1,1.361-4.415c3.695-5.915,13.684-5.889,17.463-5.718l-9.021,32.627a45.155,45.155,0,0,1,1.986,5.532c1.631,5.681,1.687,10.123,1.586,21.743-.045,5.262-.1,9.581-.145,12.484,1.3,1.3,2.494,2.368,2.494,2.368l1.934,7.805-.825.36-2.392-6.638c-3.224.576-3.3,9.12-3.3,9.12s-9.091,4.159-9.823,4.281-1.67-2.6,1.09-4.919,4.469-10.661,4.469-10.661l-8.245-39.233Q2416.183,1739.073,2416.868,1726.7Z" transform="translate(-2415.498 -1716.524)"/></g><g transform="translate(34.307 29.075)"><path class="f" d="M2642.8,1131.6l-9.3-21.333,15.625-1.176Z" transform="translate(-2633.502 -1109.091)"/></g><g transform="translate(38.444 20.152)"><path class="e" d="M2638.017,1024.091l6.973,8.922a7.579,7.579,0,0,0-5.071,1.964c-1,1-1.256,2.03-2.28,2.3-1.155.3-2.409-.6-3.285-1.406l-.828-3.381C2633.106,1024.788,2638.017,1024.091,2638.017,1024.091Z" transform="translate(-2633.502 -1024.091)"/></g><g transform="translate(58.767 111.56)"><path class="g" d="M2471.006,1908.413s1.854-8.135,2.005-9.387-1.825-1.717-1.825-1.717c1.65-4.891,4.3-.749,4.3-.749l-3.4,12.311c3.907,5.931,3.6,21.73,3.6,21.73-.261-8.031-1.076-14.122-2-16.789a9.843,9.843,0,0,0-1.586-2.884,6.054,6.054,0,0,0-3.469-2.469,4.759,4.759,0,0,0-1.58-.046A7.968,7.968,0,0,1,2471.006,1908.413Z" transform="translate(-2467.055 -1894.923)"/></g><g transform="translate(40.431 112.161)"><path class="g" d="M2629.44,1918.714a4.984,4.984,0,0,0-.6-3.409,3.647,3.647,0,0,0-1.288-1.176c1.085.158,1.372.431,1.4.653l-.14.347a.442.442,0,0,0,.14-.347c.589-1.458,2.875-7.079,3.661-8.492.907-1.627-.757-4.27-.757-4.27,2.566-3.087,3.757,0,3.757,0l-5.266,13.145v4.141c-.1,8.157-5.1,16.42-5.1,16.42a62.94,62.94,0,0,0,3.666-11.168C2628.994,1924.177,2629.143,1922.356,2629.44,1918.714Z" transform="translate(-2625.245 -1900.648)"/><path class="g" d="M2688.677,2035.645l.14-.347A.443.443,0,0,1,2688.677,2035.645Z" transform="translate(-2685.11 -2021.164)"/></g><g transform="translate(38.447 20.152)"><path class="g" d="M2701.618,1024.091a11.933,11.933,0,0,1,.011,5.243,12.373,12.373,0,0,1-3.721,6.335q-.394-1.7-.789-3.4S2696.634,1025.2,2701.618,1024.091Z" transform="translate(-2697.106 -1024.091)"/></g><g transform="translate(26.236 9.221)"><path class="e" d="M2685.357,925.7a3.928,3.928,0,0,1,.129-1.325c.194-.631,2.2-3.029,3.358,1.073s-3.035,5.428-3.035,5.428c-.71,4.544-2.066,6.375-2.066,6.375-4.068,4.8-7.813,1.7-9.685-.252s-4.972-10.54-4.972-10.54C2675.736,912.257,2685.357,925.7,2685.357,925.7Z" transform="translate(-2669.086 -919.944)"/></g><g transform="translate(26.449 9.341)"><path class="g" d="M2718.758,927.094s-3.337,1.618-7.371-2.425c0,0-1.088,1.746-2.069,1.923s-.252,1.737-.906,1.805-3.4.562-3.4.562-.559,2.876-.972,2.942l-1.522-3.139,8.424-7.673Z" transform="translate(-2702.519 -921.089)"/></g><g transform="translate(35.051 64.339)"><path class="h" d="M2429.454,1446.49c5.9-2.926,13.851-1.308,19.787,4.2a26.833,26.833,0,0,1,3.851,6.875c.827,2.191,2.242,6.843.6,18.94a112.211,112.211,0,0,1-3.937,17.833c-1.828.169-3.749.3-5.756.378,0,0-3.041.119-6.277.064a170.463,170.463,0,0,1-20.895-2.054q3.041-19.7,6.082-39.393A14.786,14.786,0,0,1,2429.454,1446.49Z" transform="translate(-2416.823 -1445.054)"/></g><g transform="translate(0 70.896)"><path class="e" d="M2860.418,1522.885a8.449,8.449,0,0,0,3.175-1,9.54,9.54,0,0,0,2.719-2.241c2.208-7.317,3.762-12.619,4.9-16.574.636-2.2,1.3-4.539,2.816-5,2.519-.763,5.483,4.242,5.914,4.985l-8.964,19.605a8.965,8.965,0,0,1-1.007,4.063,8.061,8.061,0,0,1-1.985,2.464q-.873-.17-1.767-.321a75.543,75.543,0,0,0-13.34-.659,24.551,24.551,0,0,1,4.346-3.72A20.8,20.8,0,0,1,2860.418,1522.885Z" transform="translate(-2853.058 -1497.997)"/></g><g transform="translate(40.247 36.769)"><path class="i" d="M2679.858,1183.473l1.005,6.866-1.909,6.866-3.358-7.574.777-6.159C2677.021,1181.038,2679.858,1183.473,2679.858,1183.473Z" transform="translate(-2675.596 -1182.391)"/></g><g transform="translate(19.521)"><path class="j" d="M2431.292,841.787s1.336-2.83,2.368-5.255,5.283-4.215,7.712-2.945c0,0,6.254-3.927,11.476.982s5.344,8.373,7.591,9.008,8.683,1.328,10.019,4.793a8.767,8.767,0,0,1,.486,6.063,3.33,3.33,0,0,0,2.551,3.523c5.66,1.85,5.52,3.79,5.876,4.831.443,1.294-.3,3.588-6.18,7.936a60.477,60.477,0,0,1-11.444-7.162,59.515,59.515,0,0,1-10.763-11.117l.043-.262a4.5,4.5,0,0,0,2.41-1.805,3.8,3.8,0,0,0,.635-2.583c-.15-1.043-.873-2.495-1.828-2.513-.854-.016-1.673.8-1.642,2.166a8.423,8.423,0,0,1-7.59-4.215,4.029,4.029,0,0,1-1.367,2.166,4.2,4.2,0,0,0-1.033.968,3.749,3.749,0,0,0-.431.757c-.235.519-1.158,1.192-4.219,1.851a1.981,1.981,0,0,1,.138,1.155,2.021,2.021,0,0,1-.632,1.121,3,3,0,0,1-1.082.264,3.861,3.861,0,0,1-2.973-1.525s-3.7.693-3.947-1.732S2428.378,844.617,2431.292,841.787Z" transform="translate(-2427.436 -832.1)"/></g><g transform="translate(42.96 18.759)"><path class="d" d="M2487.3,1012.8c1.5.145,3.318-.372,3.95.368.206.242.136.435.205,1.089a8.434,8.434,0,0,0,1.171,3.5,5.7,5.7,0,0,0,2.833,2c4.278,1.857,6.2,1.042,7.706,2.219,1.21.944,2.135,3.153.9,8.7l-10.7-5.008-5.353-5.84-4.646-5.362-1.622-2.26,2.171-1.393A5.632,5.632,0,0,0,2487.3,1012.8Z" transform="translate(-2481.754 -1010.819)"/></g><g transform="translate(18.392 27.915)"><path class="k" d="M2414.334,1120.3s1.647-7.1,1.647-8.047c0-.35,0-.373.006-.686a12.942,12.942,0,0,1,2.266-7.2,9.208,9.208,0,0,1,2.024-2.152,9.514,9.514,0,0,1,5.034-1.828l4.136,5.531,5.161,15.8,4.376-17.289,1.951-5.22,4.649-1.159a13.317,13.317,0,0,1,6.47,2.383,8.161,8.161,0,0,1,1.678,1.545c.9,1.117,1.072,2,2,4.51.24.644.605,1.6,1.091,2.765a27.115,27.115,0,0,1,1.331,2.631c.794,1.808.926,2.643,1.646,4.165a18.469,18.469,0,0,0,1.743,2.935c.451.762,1.108,1.9,1.867,3.319a7.714,7.714,0,0,1,.99,2.165,5.013,5.013,0,0,1-2.2,4.787c-1.11.7-1.9.446-4.483.73a29.788,29.788,0,0,0-4.795.928q.11,1.577.22,3.154l5.834,6.017c-5.036.095-14.491,5.451-14.491,5.451l-5.324-4.315-3.332,5.034L2430.8,1143a23.425,23.425,0,0,0-.668-7.776,24.2,24.2,0,0,0-5.928-10.555l-2.493,9.762a32.765,32.765,0,0,1-1.36,4.659c-.281.752-.579,1.462-.883,2.128-6.3,1.231-10.072-3.768-10.072-3.768s1.646-8.066,2.712-9.108S2414.334,1120.3,2414.334,1120.3Z" transform="translate(-2409.395 -1098.048)"/></g><g transform="translate(43.605 26.653)"><path class="l" d="M2593.589,1093.664l2.726-7.641,3.874,1.262-3.874,6.943,1.679,5.87-8.781,10.855,4.3-17Z" transform="translate(-2589.213 -1086.023)"/></g><g transform="translate(15.816 62.421)"><path class="l" d="M2821.054,1431.089c-.183-2.083.819-4.842,1.77-4.222,0,0,7.326,4.994,10.828,4.75,0,0,.712,2.433,0,2.893s-1.211,2.922-1.211,3.49-.857,2.746-2.571,2.462-5.007-2.083-7.045-2.367-4.01-1.326-3.324-3.787S2821.237,1433.172,2821.054,1431.089Z" transform="translate(-2819.361 -1426.778)"/></g><g transform="translate(34.307 28.548)"><path class="l" d="M2697.945,1104.072l-.025,7.235.082.249,5.08,15.552-8.458-9.4,1.07-7.132-1.91-4.8Z" transform="translate(-2693.783 -1104.072)"/></g><g transform="translate(18.342 65.006)"><path class="m" d="M2828.987,1506.621c.176.021.275.032.275.032A2.2,2.2,0,0,1,2828.987,1506.621Z" transform="translate(-2818.191 -1500.825)"/><path class="m" d="M2842.4,1457.2c-1.872-.226-12.674-1.718-10.511-5.8C2831.89,1451.409,2839.678,1456.738,2842.4,1457.2Z" transform="translate(-2831.606 -1451.409)"/></g><g transform="translate(51.574 32.554)"><path class="n" d="M2535.614,1163.637a18.781,18.781,0,0,0,3.25-1.956s-1.356-.884-.542-3.346-.846-5.585-.846-5.585c-3.907-8.615-.452-10.509-.452-10.509-1.937,5.964,0,6.816,1.259,9.183s.969,4.544,1.065,6.059a6.894,6.894,0,0,0,1.681,3.257l2.193,2.9-8.62,2.232A1.652,1.652,0,0,1,2535.614,1163.637Z" transform="translate(-2534.467 -1142.242)"/></g><g transform="translate(30.424 32.386)"><path class="n" d="M2774.079,1154.927c-.129,2.4,3.552,10.161,3.552,10.161l-.492,1.971s-8.483-6.618-1.9-26.416C2775.241,1140.643,2774.208,1152.528,2774.079,1154.927Z" transform="translate(-2772.737 -1140.643)"/></g><g transform="translate(40.315 84.786)"><path class="o" d="M2528.917,1644.651a21.255,21.255,0,0,1,6.541,5.243c.577.7,2.194,2.671,1.845,3.041-.57.6-5.523-3.955-14.233-8.861-5.189-2.923-7.863-3.8-7.735-4.136C2515.543,1639.4,2522.619,1641.249,2528.917,1644.651Z" transform="translate(-2515.331 -1639.845)"/></g><g transform="translate(53.138 69.595)"><path class="o" d="M2414.9,1531.649a26.708,26.708,0,0,0,4.533-11.537,31.427,31.427,0,0,0-.409-14.85,30.632,30.632,0,0,0-4.4-9.266q1.2-.487,2.294-.869c.137.116.274.234.41.355a23.129,23.129,0,0,1,3.772,4.958,26.294,26.294,0,0,1,1.964,4.585c1.72,5.581.666,12.644.1,16.277-1.047,6.66-2.176,12.653-3.268,17.891-4.466.338-9.169.487-14.086.379q-1.408-.031-2.788-.088a18.357,18.357,0,0,0,5.444-1.922A18.986,18.986,0,0,0,2414.9,1531.649Z" transform="translate(-2403.012 -1495.127)"/></g><g transform="translate(54.571 165.269)"><path class="l" d="M2428.167,2418.978a9.085,9.085,0,0,0,2.068-3.074,14.43,14.43,0,0,0,8.758-9.3c1.3,1.3,2.494,2.369,2.494,2.369l1.934,7.805-.826.359-1.956-4.488c-.247.318-.65.856-1.1,1.553-.339.53-3.016,6.274-2.643,5.417,0,0-9.091,4.159-9.823,4.281S2425.407,2421.3,2428.167,2418.978Z" transform="translate(-2426.312 -2406.6)"/></g><g transform="translate(14.531 167.52)"><path class="l" d="M2785.826,2435.586a4.467,4.467,0,0,1,1.173-.405,23.856,23.856,0,0,0,9.374-3.131,23.112,23.112,0,0,0,5.021-4.005c.646,1.891,1.292,3.5,1.292,3.5l-1.485,8.764h-.9q-.007-2.554-.014-5.107a8.355,8.355,0,0,0-3.967,1.885,8.062,8.062,0,0,0-2.254,3.221s-10.036.2-10.756,0a.415.415,0,0,1-.153-.093C2782.5,2439.6,2783.671,2436.691,2785.826,2435.586Z" transform="translate(-2782.973 -2428.045)"/></g><g transform="translate(39.058 31.085)"><path class="i" d="M2681.1,1128.573l.71.947-1.354,2.757-3.23-.512-1.9-3.521,3.525,2.25Z" transform="translate(-2675.33 -1128.245)"/></g><g transform="translate(43.294 54.894)"><path class="p" d="M2684.853,1355.072a.644.644,0,1,1-.659.644A.651.651,0,0,1,2684.853,1355.072Z" transform="translate(-2684.194 -1355.072)"/></g><g transform="translate(44.395 61.133)"><ellipse class="p" cx="0.659" cy="0.644" rx="0.659" ry="0.644" transform="translate(0)"/></g><g transform="translate(45.434 67.041)"><path class="p" d="M2664.467,1470.8a.644.644,0,1,1-.659.644A.651.651,0,0,1,2664.467,1470.8Z" transform="translate(-2663.808 -1470.798)"/></g><g transform="translate(42.83 24.188)"><path class="p" d="M2634,1065l-1.291,8.836s-3.293-2.777-4.1-3.282-2.486,1.388-2.486,1.388l4.972-9.215C2632.77,1061.721,2634,1065,2634,1065Z" transform="translate(-2626.12 -1062.538)"/></g><g transform="translate(37.6 28.797)"><path class="p" d="M2702.035,1106.449l.371.813,3.99,3.985c-3.163-1.83-5.165,3.724-5.165,3.724a26.179,26.179,0,0,1,.387-6.69C2701.739,1107.642,2701.88,1107.031,2702.035,1106.449Z" transform="translate(-2701.166 -1106.449)"/></g><g transform="translate(40.635 33.614)"><path class="j" d="M2686.289,1152.637q0,2.019,0,4.039a17.482,17.482,0,0,0-2.635-.158c-.556.009-1.079.043-1.562.094l.323-3.282C2683.452,1151.627,2686.289,1152.637,2686.289,1152.637Z" transform="translate(-2682.096 -1152.34)"/></g><g transform="translate(43.492 51.474)"><path class="p" d="M2635.306,1325.835l3.189,13.93-1.812,2.432-.253-.188,1.725-2.316-3.138-13.7-3.134-3.28.228-.218Z" transform="translate(-2631.885 -1322.492)"/></g><g transform="translate(21.908 55.193)"><path class="e" d="M2802.161,1407.509l-.122.046Z" transform="translate(-2791.827 -1402.304)"/><path class="e" d="M2476.53,1362.987c1.249.51,1.616,1.158,2.758,1.151a10.8,10.8,0,0,0,3.072-1.01,10.44,10.44,0,0,0,1.214-.563c.313-.174,1.138-.792,1.014-1.233-.066-.235-.36-.261-1.554-.763-.31-.131-.563-.244-.734-.321a4.053,4.053,0,0,1-1.031-.983,3.959,3.959,0,0,1-.637-1.342c1.586.55,2.911.951,3.866,1.223l5.826.924,15.921-1.251c6.176.1,10.431,1.47,10.74,3.414.056.35.151,1.774-3.265,3.934l-24.812-.606-7.331,3.242-9.55-6.05A7.436,7.436,0,0,1,2476.53,1362.987Z" transform="translate(-2472.026 -1357.923)"/></g><g transform="translate(51.708 51.052)"><path class="l" d="M2418.7,1321.559c.775,0,3-1.45,3.1-2.145.14-1.008,1.921-.923,3.087-.941,2.307-.035,4.175,1.737,6.17,3.631,1.792,1.7,2.144,2.6,3.7,3.106,1.474.477,2.554.122,2.718.576,0,0,.17.469-3.765,3.347l-2.16.095-1.369.848a6.7,6.7,0,0,1-1.9.983,7.072,7.072,0,0,1-4.038.072,5.838,5.838,0,0,0-.357-4.423,6.219,6.219,0,0,0-5.637-3.106h-1.779S2417.922,1321.559,2418.7,1321.559Z" transform="translate(-2416.469 -1318.472)"/></g><g transform="translate(55.951 54.739)"><path class="m" d="M2483.155,1360.135a2.555,2.555,0,0,1-2.453.757s-4.353-4.743-7.384-5.7C2476.028,1355.712,2483.688,1357.43,2483.155,1360.135Z" transform="translate(-2472.386 -1355.023)"/><path class="m" d="M2568.221,1353.76c-.578-.111-.932-.168-.932-.168A3.277,3.277,0,0,1,2568.221,1353.76Z" transform="translate(-2567.29 -1353.592)"/></g><g transform="translate(43.605 15.065)"><path class="g" d="M2680.645,976.273c.642.85-1.247,2.515-1.247,2.515l-.146-2.515v-.629A1.344,1.344,0,0,1,2680.645,976.273Z" transform="translate(-2679.253 -975.618)"/></g><g transform="translate(36.454 17.148)"><path class="j" d="M2746.2,995.487c.416-.13.928.3,1.143.963s.052,1.3-.364,1.433-.928-.3-1.143-.963S2745.783,995.616,2746.2,995.487Z" transform="translate(-2745.741 -995.464)"/></g><g transform="translate(29.843 19.523)"><path class="j" d="M2809.18,1018.117c.417-.13.928.3,1.143.963s.052,1.3-.365,1.433-.928-.3-1.143-.963S2808.764,1018.247,2809.18,1018.117Z" transform="translate(-2808.721 -1018.094)"/></g><g transform="translate(33.967 21.155)"><path class="q" d="M2770.148,1036.823s-1.548.629-1.472,0a23.437,23.437,0,0,0-.342-3.18Z" transform="translate(-2768.335 -1033.643)"/></g><g transform="translate(36.214 24.521)"><path class="j" d="M2743.849,1065.71l.253.187a3.089,3.089,0,0,1-2.347,1.391h-.01l.007-.315A2.789,2.789,0,0,0,2743.849,1065.71Z" transform="translate(-2741.745 -1065.71)"/></g><g transform="translate(35.27 15.335)"><path class="j" d="M2748.022,978.435l-.124.289a4.659,4.659,0,0,0-2.732.005l-.095-.3A4.89,4.89,0,0,1,2748.022,978.435Z" transform="translate(-2745.071 -978.191)"/></g><g transform="translate(28.794 17.68)"><path class="j" d="M2820.4,1000.533l.111.295a2.4,2.4,0,0,0-1.018.728,2.269,2.269,0,0,0-.371.662l-.3-.106a2.577,2.577,0,0,1,.422-.754A2.715,2.715,0,0,1,2820.4,1000.533Z" transform="translate(-2818.83 -1000.533)"/></g><g transform="translate(38.013 17.827)"><ellipse class="k" cx="2.234" cy="2.187" rx="2.234" ry="2.187" transform="translate(0)"/></g><g transform="translate(29.042 22.14)"><path class="k" d="M2804.387,1045.211a2.179,2.179,0,0,1-1.146,1.91,19.465,19.465,0,0,1-2.154-3.832,2.263,2.263,0,0,1,1.066-.265A2.211,2.211,0,0,1,2804.387,1045.211Z" transform="translate(-2801.087 -1043.024)"/></g><g transform="translate(43.2 88.457)"><path class="p" d="M2488.5,1678.819c3.838,1.738,9.637,3.649,15.463,2.888l.041.312a21.192,21.192,0,0,1-2.743.174,32.236,32.236,0,0,1-12.9-3.091,42.091,42.091,0,0,1-7.068-4.034l.188-.252A41.745,41.745,0,0,0,2488.5,1678.819Z" transform="translate(-2481.298 -1674.817)"/></g></g><g transform="translate(121.772 4719.588)"><rect class="r" width="25.139" height="1.622" rx="0.811" transform="translate(0 0)"/></g><g transform="translate(84.317 4661.291)"><g transform="translate(2.05 54.84)"><path class="r" d="M2886.162,1747.1c1.835-.439,12.2,0,12.2,0s8.311,1.851,9.067,6.717h-26.337S2884.327,1747.541,2886.162,1747.1Z" transform="translate(-2881.089 -1746.907)"/></g><g transform="translate(0 0)"><path class="r" d="M2900.582,1224.659,2924.2,1268.3c-.468,1.1-3.508.551-3.508.551l-23.153-43.2A2.376,2.376,0,0,1,2900.582,1224.659Z" transform="translate(-2897.542 -1224.451)"/></g><g transform="translate(7.963 16.327)"><path class="s" d="M2981.131,1385.1v-5.108l9.924,18.031C2987.21,1399.195,2981.131,1385.1,2981.131,1385.1Z" transform="translate(-2981.131 -1379.995)"/></g><g transform="translate(7.58 25.932)"><path class="r" d="M3033.747,1476.161c-5.5,11.14-1.267,24.249-1.267,24.249h-2.591c-3.886-13.153,1.075-28.908,1.075-28.908Z" transform="translate(-3028.403 -1471.5)"/></g><g transform="translate(3.13 56.461)"><path class="s" d="M2928.729,1762.352h11.525c2.7.658,4.749,5.291,4.749,5.291h-20.724A13.6,13.6,0,0,1,2928.729,1762.352Z" transform="translate(-2924.279 -1762.352)"/></g></g><g transform="translate(73.502 4721.201)"><g transform="translate(5.271 0)"><rect class="t" width="93.2" height="4.823" rx="2.412"/></g><g transform="translate(0 4.823)"><path class="u" d="M3246.879,1841.149l-15.073,75.055a6.225,6.225,0,0,1-5.939,5.211h0l12.952-80.266Z" transform="translate(-3225.867 -1841.149)"/></g><g transform="translate(84.057 4.823)"><path class="u" d="M2446.078,1921.415h0a6.226,6.226,0,0,1-5.94-5.211l-15.072-75.055h8.06Z" transform="translate(-2425.066 -1841.149)"/></g></g></g><g transform="translate(169.116 4653.705)"><g transform="translate(0 0)"><g transform="translate(0 136.31)"><path class="v" d="M2542.523,2457.2c1.094.1,5.978-1.994,5.978-1.994l7.437-3.224c2.639-3.523,7.886,1.828,7.886,1.828s-2.274,9.969-2.695,10.242a11.14,11.14,0,0,1-3.031,0,3.809,3.809,0,0,0-2.526-1.37c-1.937-.4-5.136,1.3-5.136,1.3s-9.767.7-9.935-2.193S2541.429,2457.1,2542.523,2457.2Z" transform="translate(-2540.486 -2450.781)"/></g><g transform="translate(61.882 27.149)"><path class="f" d="M2072.345,1410.818l6.72,1.4-8.275,2.391-2.662,5.311C2067.192,1414.394,2072.345,1410.818,2072.345,1410.818Z" transform="translate(-2068.014 -1410.818)"/></g><g transform="translate(23.214 56.715)"><path class="w" d="M2407.5,1692.5c.86-.1,6.669.841,6.669.841,1.3.2,1.861,3.611.991,5.225s-6.941-.646-6.941-.646l-3.384,1.634s-3.682,1.41-4,.684,1.251-4.277,1.251-4.277S2406.642,1692.6,2407.5,1692.5Z" transform="translate(-2400.791 -1692.491)"/></g><g transform="translate(34.937 56.734)"><path class="f" d="M2373.331,1692.673c3.308.07,3.826,4.909,3.826,4.909l-5.593,2.207c-1.144-1.264-.31-7.029-.31-7.029Z" transform="translate(-2370.96 -1692.673)"/></g><g transform="translate(37.164 42.783)"><path class="v" d="M2106.738,1569.7c.066-.953,2.246-.517,3.09-.975s4.471-8.319,4.471-8.319c3.526-2.787,10.149,4.218,10.493,7.092s-12.646,12.113-12.646,12.113l-19.1.805s-1.474-4.268-1.545-5.063a15.321,15.321,0,0,1,.344-2.807S2106.672,1570.651,2106.738,1569.7Z" transform="translate(-2091.494 -1559.76)"/></g><g transform="translate(34.619 130.737)"><path class="p" d="M2252.094,2409.667a21.017,21.017,0,0,0,1.605-5.7c.76-3.41,5.057-4.556,5.057-4.556l6.512,9.5-2.564,2.44a10.841,10.841,0,0,0-3.825,1.515c-2.468,1.4-4.072,5.87-4.072,5.87s-6.539-.39-7.4-.029-2.467-2.774-1.11-4.463S2250.737,2412.8,2252.094,2409.667Z" transform="translate(-2245.613 -2399.235)"/><path class="x" d="M2246.631,2411.14a5.888,5.888,0,0,0,3.517-3.079,21.037,21.037,0,0,0,1.593-5.648l0-.019a5.882,5.882,0,0,1,2.885-3.657,9.616,9.616,0,0,1,2.285-1.017l.108-.029,6.651,9.7-2.661,2.533-.04.037-.054,0a10.9,10.9,0,0,0-3.762,1.5c-2.387,1.351-3.985,5.741-4,5.786l-.04.112-.117-.007c-1.809-.108-6.652-.326-7.333-.041-.319.133-.708-.062-1.066-.538a4.27,4.27,0,0,1-.758-1.959,2.916,2.916,0,0,1,.529-2.209A5.81,5.81,0,0,1,2246.631,2411.14Zm-1.78,5.447c.257.341.522.509.693.437a8.841,8.841,0,0,1,2.251-.167c1.921,0,4.423.137,5.106.177.271-.718,1.8-4.541,4.1-5.843a11.511,11.511,0,0,1,3.832-1.528l2.428-2.311-6.371-9.3c-.657.2-4.167,1.423-4.837,4.4a21.482,21.482,0,0,1-1.617,5.732,6.221,6.221,0,0,1-3.676,3.24,5.6,5.6,0,0,0-2.145,1.38C2243.736,2413.9,2244.187,2415.706,2244.85,2416.587Z" transform="translate(-2243.811 -2397.692)"/></g><g transform="translate(34.676 130.918)"><path class="y" d="M2253.045,2409.667a21.021,21.021,0,0,0,1.605-5.7c.76-3.41,5.058-4.556,5.058-4.556l6.512,9.5-2.564,2.44a10.839,10.839,0,0,0-3.825,1.515c-2.468,1.4-4.072,5.87-4.072,5.87s-6.539-.39-7.4-.029-2.468-2.774-1.111-4.463S2251.688,2412.8,2253.045,2409.667Z" transform="translate(-2246.722 -2399.416)"/></g><g transform="translate(33.55 72.367)"><path class="z" d="M1986.56,1852.374a99.242,99.242,0,0,1,30.233-10.717c11.451-1.221,16.844,18.88,16.844,18.88l-34.052,3.443c5.252,12.239,2.95,34.185,2.95,34.185l1.524,5.1c-.533,1.281-3.181,1.69-5.7,1.778a25.5,25.5,0,0,1-4.9-.144c-4.224-25.41-7.282-43.881-7.7-46.26a10.435,10.435,0,0,1-.144-2.532A10.925,10.925,0,0,1,1986.56,1852.374Z" transform="translate(-1985.603 -1841.603)"/></g><g transform="translate(14.276 72.711)"><path class="aa" d="M1907.546,1857.935c4.013-6.064,29.124-12.507,29.124-12.507,12.649-2.252,21.831,2.8,22.547,7.674.587,4-4.337,9.119-11.432,12.235l-30.663,1.478a253.552,253.552,0,0,1-14,27.055c-3.656,6.134-7.373,11.782-11.04,16.952-4.2,3.042-11.112-1.942-11.112-1.942s25.379-47.224,25.606-47.683S1907.546,1857.935,1907.546,1857.935Z" transform="translate(-1880.975 -1844.876)"/></g><g transform="translate(65.967 20.269)"><path class="e" d="M2043.159,1345.623l2.982,7.092c-.144,2.266-7.484,5.753-7.484,5.753l-2.865-6.914C2037.03,1343.094,2043.159,1345.623,2043.159,1345.623Z" transform="translate(-2035.793 -1345.269)"/></g><g transform="translate(65.967 20.325)"><path class="g" d="M2071.566,1346.1s-3.438,8.074-6.2,8.742l-1.164-2.81S2064.477,1344.2,2071.566,1346.1Z" transform="translate(-2064.2 -1345.803)"/></g><g transform="translate(58.326 3.265)"><path class="e" d="M2057.04,1189.215l.548,6.686a6.856,6.856,0,0,1,1.095-1.34c.411-.281,2.464-.844,2.464,2.646s-4.928,4.676-4.928,4.676c-3.833,5.775-8.624,7.168-10.951,4.635s-.685-14.771-.685-14.771C2051.016,1174.3,2057.04,1189.215,2057.04,1189.215Z" transform="translate(-2044.02 -1183.279)"/></g><g transform="translate(56.203 15.989)"><path class="ab" d="M2209.3,1309.353s-2.123-.95-2.123-1.583,2.123-3.271,2.123-3.271Z" transform="translate(-2207.179 -1304.5)"/></g><g transform="translate(63.746 73.096)"><path class="ac" d="M1907.85,1856.214l1.944,4.034-5.6,4.986s-8.242-3.792-9.942-7.717-13.276-7.041-13.276-7.041l5.563-1.93Z" transform="translate(-1880.975 -1848.545)"/></g><g transform="translate(22.137 57.93)"><path class="e" d="M2417.756,1704.073c.86-.1,6.669.841,6.669.841,1.3.2,1.861,3.611.991,5.226s-6.941-.646-6.941-.646l-3.384,1.634s-3.682,1.41-4,.684,1.251-4.277,1.251-4.277S2416.9,1704.174,2417.756,1704.073Z" transform="translate(-2411.046 -1704.066)"/></g><g transform="translate(58.889 7.587)"><path class="g" d="M2080.736,1224.451s2.456,2,2.493,2.108,1.322,2.219,1.322,2.219l-.748,3.974a4.094,4.094,0,0,1-3.332-2.942s-.806.447-2.594-.847a4.972,4.972,0,0,1-4.911-.629,2.225,2.225,0,0,1-2.167.264l.795-2.076Z" transform="translate(-2070.8 -1224.451)"/></g><g transform="translate(54.38)"><path class="ad" d="M1980.586,1156.237c2.267-4.959,6.26-3.552,6.26-3.552a4.284,4.284,0,0,1,4.965.6c3.239-1.688,6.692.739,6.692.739,3.454-.527,3.994,2.216,3.994,2.216,5.289.316,3.13,4.853,3.13,4.853,2.807,4.009-.864,5.7-.864,5.7,1.188,4.537-3.778,3.8-3.778,3.8a3.608,3.608,0,0,1-1.8,1.895,3.374,3.374,0,0,1-1.162.283,4.7,4.7,0,0,0,1.75-2.756,4.362,4.362,0,0,0-.046-1.849c-1.687-3.411-3.455-.1-3.455-.1a6.825,6.825,0,0,1-2.773-4.013c-2.452-.094-3.153-1.055-3.153-1.055-1.785,2.216-4.907-.508-4.907-.508-3.454,2.13-4.857-1.18-4.857-1.18C1976.484,1158.875,1980.586,1156.237,1980.586,1156.237Z" transform="translate(-1978.763 -1152.17)"/></g><g transform="translate(34.863 58.631)"><path class="p" d="M2364,1710.743c6.052,1.252-.084,8.6-.084,8.6s-4.5.646-4.718-1.093a50.209,50.209,0,0,1,.541-7.328Z" transform="translate(-2359.162 -1710.743)"/></g><g transform="translate(61.437 29.11)"><path class="p" d="M1934.686,1438.947c4.616-10.872,16.9-9.386,16.9-9.386l8.275,43.188c-5.24,7.059-6.769,7.218-6.769,7.218-2.433.253-2.732-2.42-7.07-3.355-2.445-.527-3.313.114-5.718-.627a11.944,11.944,0,0,1-4.68-2.8c-.64-10.752-1.038-18.96-1.194-22.911-.058-1.473-.172-3.868-.022-7C1934.521,1440.888,1934.686,1438.947,1934.686,1438.947Z" transform="translate(-1934.333 -1429.493)"/></g><g class="ae" transform="translate(63.746 29.353)"><path class="f" d="M2069.468,1431.825c.227.109,4.319,1.012,4.319,1.012l-.4,5.166L2066.42,1442l-.73-3.019-1.49.4c.336-3.564,3.136-6.993,3.136-6.993A9.963,9.963,0,0,1,2069.468,1431.825Z" transform="translate(-2064.2 -1431.813)"/></g><g transform="translate(59.32 38.557)"><path class="af" d="M2156.39,1538.016c-.237-1.717.029-16.664.029-16.664.046-1.2.969-1.93,1.586-1.845a1.73,1.73,0,0,1,1.011,2.181l.945,30.742-2.038,2.638-2.388-2.053q.271-.925.54-1.851S2156.627,1539.733,2156.39,1538.016Z" transform="translate(-2155.535 -1519.5)"/></g><g transform="translate(61.709 30.96)"><path class="af" d="M2129.037,1447.122s3.175,2.738.263,4.195l-1.942,1.761s-1.474,1.454-1.864.891a1.354,1.354,0,0,1,0-1.288Z" transform="translate(-2125.32 -1447.122)"/></g><g transform="translate(59.861 36.518)"><path class="af" d="M2159.421,1500.474l-.336,3.564c-.959.8-3.55-.188-3.55-.188l1.151-3.564C2157.742,1499.724,2159.421,1500.474,2159.421,1500.474Z" transform="translate(-2155.535 -1500.078)"/></g><g class="ae" transform="translate(64.37 69.834)"><path class="f" d="M2021.967,1819.3s-1.258,2.185-7.916,1.829-7.052-3.657-7.052-3.657C2011.317,1821.551,2021.967,1819.3,2021.967,1819.3Z" transform="translate(-2007 -1817.471)"/></g><g transform="translate(61.895 24.077)"><path class="p" d="M2025.041,1382.241a17.738,17.738,0,0,1,3.132-.69l2.643,3.638-12.648,8.961a20.679,20.679,0,0,0-.232-2.751,2.757,2.757,0,0,0-.462-1.08c-.158-.235-.262-.315-.367-.313-.206,0-.355.316-.418.444,0,0-.046.095-1.2,1.876a5.11,5.11,0,0,1-1.367,1.4l1.223-4.255A19.523,19.523,0,0,1,2025.041,1382.241Z" transform="translate(-2014.122 -1381.551)"/></g><g transform="translate(37.43 27.715)"><path class="ag" d="M1842.344,1445.335l.727-.664c.727-.664.97-.041.97-.041l3.256-9.45c-.025-1.372-.047-10.349,6.955-15.782a17.671,17.671,0,0,1,6.745-3.186,22.265,22.265,0,0,1,2.525,2.6c3.825,4.647,4.619,9.534,5.65,14.55.972,4.73,2.309,9.38,3.443,14.075a93.976,93.976,0,0,0,8.775,22.582s-5.81,5.455-9.117,5.594-5.489-.332-8.944-3.566-7.784-21.357-7.784-21.357-2.182,4.422-4.386,5.888-29.707.09-29.707.09c-3.342-2.288-.46-10.436-.46-10.436Z" transform="translate(-1819.838 -1416.212)"/></g><g transform="translate(73.269 36.062)"><path class="ah" d="M1980.471,1495.776c0-.014,0-.028,0-.043S1980.469,1495.748,1980.471,1495.776Z" transform="translate(-1971.617 -1495.733)"/><path class="ah" d="M1988.531,1496.139c1.059,15.236-8.375,28.184-8.375,28.184l-.479-2.333C1989.064,1508.738,1988.575,1496.923,1988.531,1496.139Z" transform="translate(-1979.678 -1496.096)"/></g><g transform="translate(59.435 55.905)"><path class="ah" d="M2127.261,1684.794c.062.022.246.111.337.561a11.093,11.093,0,0,0,.621,2.6,12.292,12.292,0,0,0,4.584,5.725,11.979,11.979,0,0,1-4.557-4.143,11.357,11.357,0,0,1-1.4-3.231,13.523,13.523,0,0,0-.935,5.908s-1.3-3.517-.036-6.225C2126.347,1685.125,2126.924,1684.672,2127.261,1684.794Z" transform="translate(-2125.32 -1684.774)"/></g><g transform="translate(79.337 73.096)"><path class="v" d="M1889.865,1854.031l-.576,2.182-13.161-5.7.641-1.969S1887.994,1853.75,1889.865,1854.031Z" transform="translate(-1876.128 -1848.545)"/></g><g transform="translate(61.056 14.835)"><ellipse class="j" cx="0.73" cy="1.233" rx="0.73" ry="1.233" transform="translate(0)"/></g><g transform="translate(59.05 22.611)"><path class="q" d="M2183.169,1368.437c-.1,1.183-2.263,1.282-1.977-.789C2181.192,1367.648,2183.265,1367.254,2183.169,1368.437Z" transform="translate(-2181.166 -1367.585)"/></g><g transform="translate(60.806 12.303)"><path class="j" d="M2156.272,1270.418l-.256.183c-.733-1.025-2.9-.9-2.922-.9l-.021-.314C2153.17,1269.384,2155.437,1269.25,2156.272,1270.418Z" transform="translate(-2153.073 -1269.383)"/></g><g transform="translate(61.745 16.351)"><path class="k" d="M2128.23,1307.944a2.515,2.515,0,1,1-2.569,2.515A2.542,2.542,0,0,1,2128.23,1307.944Z" transform="translate(-2125.662 -1307.944)"/></g><g transform="translate(72.087 16.875)"><path class="g" d="M2055.978,1313.408c.429.668-.4,1.569-.458,1.63a2.312,2.312,0,0,1-1.763.641q.423-1.356.847-2.712A1.334,1.334,0,0,1,2055.978,1313.408Z" transform="translate(-2053.757 -1312.937)"/></g><g transform="translate(19.313 77.017)"><rect class="p" width="0.315" height="1.26" transform="matrix(-0.183, -0.983, 0.983, -0.183, 32.877, 10.398)"/><rect class="p" width="0.315" height="1.26" transform="translate(27.923 11.319) rotate(-100.527)"/><rect class="p" width="0.315" height="1.26" transform="matrix(-0.183, -0.983, 0.983, -0.183, 35.353, 9.937)"/><rect class="p" width="0.315" height="1.26" transform="translate(23.161 20.016) rotate(-151.436)"/><rect class="p" width="0.315" height="1.26" transform="translate(37.83 9.477) rotate(-100.527)"/><rect class="p" width="0.315" height="1.26" transform="translate(24.366 17.803) rotate(-151.436)"/><rect class="p" width="0.315" height="1.26" transform="translate(26.775 13.378) rotate(-151.436)"/><rect class="p" width="0.315" height="1.26" transform="translate(25.57 15.591) rotate(-151.436)"/><rect class="p" width="0.315" height="1.26" transform="translate(45.26 8.096) rotate(-100.527)"/><rect class="p" width="0.315" height="1.26" transform="translate(40.307 9.017) rotate(-100.527)"/><path class="p" d="M2090.02,1930.12l.312-.05a4.674,4.674,0,0,0,.347,1.165l-.288.128A5.011,5.011,0,0,1,2090.02,1930.12Z" transform="translate(-2039.369 -1925.435)"/><path class="p" d="M2090.745,1907.459a5,5,0,0,1,.318-1.257l.293.115a4.685,4.685,0,0,0-.3,1.178Z" transform="translate(-2040.123 -1904.071)"/><rect class="p" width="0.315" height="1.26" transform="matrix(-0.183, -0.983, 0.983, -0.183, 50.214, 7.175)"/><path class="p" d="M2078.812,1886.128a6.423,6.423,0,0,0-.787.944l-.26-.177a6.65,6.65,0,0,1,.826-.99Z" transform="translate(-2026.216 -1885.904)"/><rect class="p" width="0.315" height="1.26" transform="translate(47.737 7.636) rotate(-100.527)"/><rect class="p" width="0.315" height="1.26" transform="matrix(-0.183, -0.983, 0.983, -0.183, 42.784, 8.557)"/><rect class="p" width="0.315" height="1.26" transform="translate(21.957 22.228) rotate(-151.437)"/><rect class="p" width="0.315" height="1.26" transform="translate(30.4 10.858) rotate(-100.527)"/><rect class="p" width="0.315" height="1.26" transform="translate(5.094 53.205) rotate(-151.437)"/><rect class="p" width="0.315" height="1.26" transform="translate(6.299 50.992) rotate(-151.437)"/><rect class="p" width="0.315" height="1.26" transform="translate(7.503 48.779) rotate(-151.437)"/><rect class="p" width="0.315" height="1.26" transform="translate(8.708 46.567) rotate(-151.436)"/><rect class="p" width="0.315" height="1.26" transform="translate(9.912 44.354) rotate(-151.436)"/><rect class="p" width="0.315" height="1.26" transform="translate(1.481 59.842) rotate(-151.437)"/><rect class="p" width="0.315" height="1.26" transform="translate(3.89 55.417) rotate(-151.437)"/><rect class="p" width="0.315" height="1.26" transform="translate(0.277 62.055) rotate(-151.437)"/><rect class="p" width="0.315" height="1.26" transform="translate(2.685 57.63) rotate(-151.437)"/><rect class="p" width="0.315" height="1.26" transform="translate(13.526 37.717) rotate(-151.436)"/><rect class="p" width="0.315" height="1.26" transform="translate(15.935 33.291) rotate(-151.436)"/><rect class="p" width="0.315" height="1.26" transform="translate(18.344 28.866) rotate(-151.437)"/><rect class="p" width="0.315" height="1.26" transform="translate(11.117 42.142) rotate(-151.436)"/><rect class="p" width="0.315" height="1.26" transform="translate(19.548 26.654) rotate(-151.437)"/><rect class="p" width="0.315" height="1.26" transform="translate(17.139 31.079) rotate(-151.437)"/><rect class="p" width="0.315" height="1.26" transform="translate(12.321 39.929) rotate(-151.436)"/><rect class="p" width="0.315" height="1.26" transform="translate(20.752 24.441) rotate(-151.437)"/><rect class="p" width="0.315" height="1.26" transform="translate(14.73 35.504) rotate(-151.436)"/></g></g><g transform="translate(45.663 31.375)"><g transform="translate(45.639 39.103)"><path class="u" d="M1739.913,1825.718l-7.121,20.579h-3.845l7.238-21.433S1741.363,1821.529,1739.913,1825.718Z" transform="translate(-1728.947 -1823.606)"/></g><g transform="translate(10.233 29.734)"><path class="u" d="M1766.715,1739.066a58.512,58.512,0,0,1,6.941-2.458,59.968,59.968,0,0,1,18.674-2.216l-.473,2.35a70.86,70.86,0,0,0-10.386.824c-6.4.988-13.453,2.078-19.826,7.015a28.712,28.712,0,0,0-5.68,5.884,37,37,0,0,0-2.09,3.88,37.435,37.435,0,0,0-3.273,12.058l-2.935,0a32.742,32.742,0,0,1,3.22-11.694A35.4,35.4,0,0,1,1766.715,1739.066Z" transform="translate(-1747.668 -1734.348)"/></g><g transform="translate(43.217 66.527)"><path class="t" d="M1742.59,2135.547a7.145,7.145,0,0,1-4.885-1.253l-8.759-49.42h5.554Z" transform="translate(-1728.947 -2084.874)"/></g><g transform="translate(0 66.502)"><path class="t" d="M2140.048,2084.791l-10.345,49.666a7.228,7.228,0,0,1-4.972,1.124l9.707-50.95Z" transform="translate(-2124.732 -2084.63)"/></g><g transform="translate(51.924)"><path class="t" d="M1623.649,1456.218l-12.031,35.849s-4.1.164-5.829-1.677l12.646-38.992S1623.808,1449.209,1623.649,1456.218Z" transform="translate(-1605.789 -1451.074)"/></g><g transform="translate(3.065 61.671)"><path class="t" d="M1750.256,2038.607h47.027a2.391,2.391,0,0,1,2.391,2.392h0a2.391,2.391,0,0,1-2.391,2.392h-47.027a2.392,2.392,0,0,1-2.391-2.392h0A2.392,2.392,0,0,1,1750.256,2038.607Z" transform="translate(-1747.865 -2038.607)"/></g></g></g></g><g transform="translate(6.531 14.655)"><g transform="translate(310 4339.283)"><path class="ai" d="M871.477,457.931c-21.374-5.423-32.742,37.4-17.419,36.2s36.367,6.41,39.1-10.047S871.477,457.931,871.477,457.931Z" transform="translate(-847 -457.457)"/></g><g transform="translate(318.383 4346.26)"><g transform="translate(1.718 1.355)"><path class="aj" d="M977.5,552.511a14.644,14.644,0,0,0-3.278-.118c-7.263.551-12.7,6.3-12.142,12.838s6.9,11.394,14.161,10.844,12.7-6.3,12.142-12.838C987.906,557.707,983.3,553.381,977.5,552.511Z" transform="translate(-962.036 -552.351)"/></g><g transform="translate(11.476 5.176)"><g transform="translate(2.768 0.742)"><path class="ak" d="M1104.693,611.665l.846,0,.019-7.336-.846,0Z" transform="translate(-1104.693 -604.324)"/></g><path class="ak" d="M1073.166,598.946l.615.519,2.572-2.468,2.4,2.415.631-.511-3.017-3.031Z" transform="translate(-1073.166 -595.87)"/></g><g transform="translate(14.803 12.257)"><g transform="translate(0 0.185)"><path class="ak" d="M1111.06,679.341l9.795,3.213.295-.716-9.795-3.213Z" transform="translate(-1111.06 -678.625)"/></g><g transform="translate(5.387)"><path class="ak" d="M1174.285,676.931l2.254,3.17-4.128.942.2.738,5.274-1.2L1175,676.517Z" transform="translate(-1172.41 -676.517)"/></g></g><g transform="translate(13.408 12.079)"><path class="ak" d="M1096.453,674.491a1.315,1.315,0,0,0-1.283,1.356,1.345,1.345,0,0,0,1.5,1.146,1.315,1.315,0,0,0,1.283-1.356A1.345,1.345,0,0,0,1096.453,674.491Z" transform="translate(-1095.166 -674.487)"/></g><g class="al" transform="translate(3.219 1.849)"><path class="am" d="M979.123,574.955a9.152,9.152,0,0,0,3.938,4.079L999.8,560.609a13.5,13.5,0,0,0-5.115-2.628Z" transform="translate(-979.123 -557.98)"/></g><g class="al" transform="translate(12.9 7.982)"><path class="am" d="M1089.383,644.786a9.148,9.148,0,0,0,3.019.132l11.771-14.869a6.233,6.233,0,0,0-.906-2.229Z" transform="translate(-1089.383 -627.82)"/></g><path class="r" d="M956.136,536.967c-8.137.617-14.249,7.079-13.624,14.406s7.753,12.785,15.891,12.168,14.249-7.08,13.624-14.406S964.273,536.35,956.136,536.967Zm11.531,20.4-1.412-1.087-.552.581,1.428,1.1a13.661,13.661,0,0,1-8.326,4.012l-.118-1.582-.844.056.119,1.6a13.958,13.958,0,0,1-8.909-2.54l1.4-1.486-.644-.49-1.4,1.483a11.318,11.318,0,0,1-4.174-7.392l2.059-.138-.057-.76-2.067.139a11.109,11.109,0,0,1,2.954-8.011l1.528,1.176.552-.581-1.523-1.173a13.729,13.729,0,0,1,8.283-3.759l.143,1.918.844-.057-.143-1.918a13.929,13.929,0,0,1,8.782,2.627l-1.133,1.2.643.49,1.125-1.2a11.3,11.3,0,0,1,4.072,7.307l-1.828.122.056.76,1.837-.123A11.06,11.06,0,0,1,967.667,557.367Z" transform="translate(-942.468 -536.919)"/></g></g></g></svg>