<svg xmlns="http://www.w3.org/2000/svg" width="101.817" height="89.021" viewBox="0 0 101.817 89.021"><defs><style>.a{fill:#bc9388;}.b{fill:#d9b5aa;}.c{fill:#e6c9c1;}.d{fill:none;stroke:#d9b5aa;stroke-linecap:round;stroke-width:2px;stroke-dasharray:3 5;}</style></defs><g transform="translate(84.044 89.021) rotate(-155)"><g transform="translate(0 0)"><path class="a" d="M.341,7.365,7.351.343a1.168,1.168,0,0,1,2,.825V17.536a1.168,1.168,0,0,1-.8,1.108,1.153,1.153,0,0,1-.369.061,1.168,1.168,0,0,1-.935-.467L.234,8.891A1.168,1.168,0,0,1,.341,7.365Z" transform="translate(18.696 28.022)"/><path class="b" d="M.8,2.4,7.809.061A1.168,1.168,0,0,1,9.288,1.537L4.615,15.557a1.168,1.168,0,0,1-1.11.8H3.433a1.168,1.168,0,0,1-1.073-.935L.024,3.739A1.168,1.168,0,0,1,.8,2.4Z" transform="translate(23.369 30.37)"/><path class="c" d="M.5.211A1.168,1.168,0,0,1,1.752.157l44.4,25.7a1.168,1.168,0,0,1-.217,2.119l-20.983,7L8.638,41.967a1.168,1.168,0,0,1-1.61-.872L.018,1.372A1.168,1.168,0,0,1,.5.211Z" transform="translate(0.006 0.004)"/><g transform="translate(0)"><path class="b" d="M.22,1.851A1.168,1.168,0,0,1,2,.346L32.466,32.48l-8.793,3.038Z" transform="translate(0 0)"/><path class="b" d="M1.17,3.957a1.168,1.168,0,0,0,.792-.308q.874-.8,1.72-1.652A1.169,1.169,0,0,0,2.029.342Q1.216,1.155.377,1.928A1.168,1.168,0,0,0,1.17,3.957Z" transform="translate(52.058 39.72)"/><path class="b" d="M1.753,6.49A16.817,16.817,0,0,0,5.1,6.141a1.168,1.168,0,0,0-.377-2.306c-.03,0-.061.011-.09.019a14.5,14.5,0,0,1-2.89.3H1.214A1.108,1.108,0,0,0,0,5.277a1.168,1.168,0,0,0,1.124,1.21h.61Zm8.372-2.236a1.168,1.168,0,0,0,.537-.131,30.514,30.514,0,0,0,3.32-2.017A1.168,1.168,0,0,0,12.651.188,27.721,27.721,0,0,1,9.59,2.057a1.168,1.168,0,0,0,.537,2.206Z" transform="translate(35.557 44.887)"/><path class="b" d="M3.226,3.382a1.168,1.168,0,0,0,.467-2.243A16.965,16.965,0,0,1,1.737.148,1.168,1.168,0,0,0,.55,2.16,19.388,19.388,0,0,0,2.775,3.288,1.169,1.169,0,0,0,3.226,3.382Z" transform="translate(28.077 46.742)"/></g></g><path class="d" d="M0,4.553s29.006-17.218,46.655,9.125" transform="translate(59.219 33.142)"/></g></svg>