<svg xmlns="http://www.w3.org/2000/svg" xmlns:xlink="http://www.w3.org/1999/xlink" width="610.311" height="453.691" viewBox="0 0 610.311 453.691"><defs><style>.a{fill:none;}.b{fill:#e1e3e3;}.c{fill:#eceeee;}.d{fill:#c6cfb0;}.af,.e{fill:#fff;}.f{clip-path:url(#a);}.g{fill:#cec84c;}.h,.j{fill:#3d5c57;}.i{fill:#133831;}.j{opacity:0.24;}.k{fill:#2e4c46;}.l{opacity:0.55;}.m{fill:#baab10;}.n,.o{fill:#231f20;}.o{opacity:0.29;}.p{fill:#ffb957;}.q{fill:#ca5303;}.r{fill:#f8a078;}.s{fill:#f76f45;}.t{fill:#facbaf;}.u{fill:#2a2e3f;}.v{fill:#373a4f;}.w{fill:#120c28;}.x{fill:#ffe5d7;}.y{fill:#efb595;}.z{fill:#353f58;}.aa{fill:#ff9e3f;}.ab{fill:#f77a34;}.ac{fill:#3c4a60;}.ad{fill:#42180b;}.ae{fill:#532f21;}.af{opacity:0.38;}.ag{opacity:0.33;}.ah{opacity:0.56;}.ai{fill:#fed45c;stroke:#fed45c;stroke-width:2px;}</style><clipPath id="a"><path class="a" d="M1196.855,749.207c-12.861,18.337-30.919,34-53.032,45.507-42.657,22.2-94.108,27.93-141.593,31.964a695.462,695.462,0,0,1-148.345-3.263q-2.489-.324-4.978-.665c-22.7-3.12-45.093-8.958-64.949-20.182a124.659,124.659,0,0,1-16.24-10.916c-12.967-10.307-71.24,3.209-79.141-11.353-21.535-39.69-55.993-54.145-38.337-95.341,4.372-10.2,92.231-75.394,98.632-85.264,12.064-18.607,27.6-36.478,46.118-53.055,63.2-56.582,157.734-75.681,219.642-34.943a120.434,120.434,0,0,1,13.518,10.331c27.08,23.911,56.724,29.464,85.055,36.017,35.36,8.181,113.557,31.165,137.289,80.114C1271.954,682.424,1221.489,714.093,1196.855,749.207Z" transform="translate(-645.373 -489.916)"/></clipPath></defs><g transform="translate(-645.373 -259.056)"><g transform="translate(645.373 260)"><path class="b" d="M1494.493,2437.666c-60.7-.035-121.951.09-181.242,11.794-12.673,2.5-26.1,6.017-34.294,15.081a7.28,7.28,0,0,0-1.97,3.324c-.494,2.578,1.637,4.934,3.807,6.671,11.146,8.925,26.448,12.09,41.124,14.462,27.417,4.433,55.132,7.2,82.858,9.613,63.784,5.554,128.632,8.959,191.734-3.393q6.1-1.195,12.155-2.558c12.324-2.775,24.583-6.1,35.883-11.334,4.729-2.188,9.407-4.813,12.467-8.731s4.161-9.4,1.469-13.532a18.216,18.216,0,0,0-5.716-5.03c-12.11-7.683-26.566-11.955-41.193-14.044-26.225-3.745-53.828-2.134-80.313-2.251Q1512.878,2437.656,1494.493,2437.666Z" transform="matrix(0.995, -0.105, 0.105, 0.995, -1389.456, -1903.693)"/><path class="c" d="M1535.056,749.207c-12.861,18.337-30.919,34-53.032,45.507-42.657,22.2-94.108,27.93-141.593,31.964a695.462,695.462,0,0,1-148.345-3.263q-2.489-.324-4.978-.665c-22.7-3.12-45.093-8.958-64.949-20.182a123.221,123.221,0,0,1-47.9-48.639c-21.535-39.69-21.032-82.893-3.376-124.089a201.057,201.057,0,0,1,16.2-30.146c12.064-18.607,27.6-36.478,46.118-53.055,63.2-56.582,157.734-75.681,219.642-34.943a120.418,120.418,0,0,1,13.518,10.331c27.08,23.911,56.725,29.464,85.055,36.017,35.36,8.181,68.673,17.924,92.405,66.873C1565.271,669.183,1559.69,714.093,1535.056,749.207Z" transform="translate(-983.574 -448.515)"/><path class="d" d="M1826.821,1919.5c-12.861,18.336-30.919,34-53.032,45.507-42.657,22.2-94.108,27.93-141.593,31.964a695.459,695.459,0,0,1-148.345-3.263q-2.489-.324-4.977-.665c-22.7-3.12-45.093-8.958-64.949-20.182-.547-3.585-.122-6.578,1.245-8.838,0,0,82.736,15.885,184.835-11.72C1690.323,1927.88,1795.586,1910.874,1826.821,1919.5Z" transform="translate(-1275.34 -1618.805)"/><path class="c" d="M2878.7,260.029c-21.72-3.633-38.333,3.337-42.815,13.827s-10.076,15.029-8.667,31.675-1.231,20.135,13.893,31.478,28.922,13.135,46.6,13.892,13.8-.9,24.117-10.864,15.582-14.414,17.165-29.01-.752-19.4-6.639-26.071C2910.062,268.883,2900.42,263.662,2878.7,260.029Z" transform="translate(-2436.289 -260)"/><path class="e" d="M197.823,46.348c-2.142,2.467-6.3,3.567-9.814,4.161a171.193,171.193,0,0,0-54.486,19.124c-8.444,4.7-16.607,10.159-25.857,12.948a48.527,48.527,0,0,1-17.58,1.927c-3.945-.294-8-1.137-11.176-3.489-2.2-1.631-3.849-3.883-5.779-5.827-6.553-6.6-16.1-9.358-25.365-10.152s-18.6.122-27.89-.379c-5.11-.275-10.333-1.026-14.811-3.5C2.34,59.65-.26,57.019.021,53.915c.2-2.235,1.84-4.053,3.5-5.564,15.758-14.362,38.9-16.359,58.264-25.292C73.651,17.581,84.02,9.515,95.1,2.685,96.446,1.852,97.832.891,99.251,0a120.391,120.391,0,0,1,13.517,10.331C139.848,34.243,169.493,39.795,197.823,46.348Z" transform="matrix(1, -0.017, 0.017, 1, 273.813, 67.681)"/><path class="e" d="M1706.184,1009.708c-4.959-.658-9.919-1.315-14.889-1.887-7.024-.808-14.46-1.382-20.865,1.612a32.9,32.9,0,0,0-8.768,6.528,37.93,37.93,0,0,0-8.441,11.135c-3.5,7.683-3.095,17.4-9.1,23.329-5.971,5.895-15.5,5.383-23.6,7.563-2.719.731-5.83,2.491-5.71,5.3.115,2.718,3.174,4.237,5.832,4.817,7.09,1.546,14.469.61,21.62-.62a268.862,268.862,0,0,0,50.713-13.954c10.834-4.159,21.942-9.464,28.473-19.057,2.25-3.306,3.895-7.562,2.359-11.254C1721.132,1016.8,1712.865,1010.594,1706.184,1009.708Z" transform="translate(-1440.237 -872.629)"/><path class="e" d="M1313.677,1354.911a14.326,14.326,0,0,0-4.832,3.957,5.673,5.673,0,0,0-.572,5.936c1.148,1.953,3.616,2.663,5.872,2.878,6.848.652,13.59-1.675,20.076-3.968,4.692-1.659,10.227-3.607,13.1-7.977,2.508-3.813,1.949-7.529-2.538-8.9C1335.336,1343.959,1321.611,1350.332,1313.677,1354.911Z" transform="translate(-1188.409 -1150.538)"/><path class="e" d="M1217,1075.21c-2.836,2.173-6.28,3.371-9.665,4.516q-14.45,4.891-29.03,9.384c-15.7,4.833-31.786,9.351-48.1,10.19a201.067,201.067,0,0,1,16.2-30.146c4.68-.809,9.445-1.342,13.89-1.711,6.985-.58,14.01-.268,21.016-.5,11.578-.393,23.048-2.286,34.467-4.236,1.837-.313,4.044-.5,5.248.919a4.106,4.106,0,0,1,.82,2.491C1222,1069.682,1219.829,1073.037,1217,1075.21Z" transform="translate(-1042.897 -917.976)"/><g transform="translate(0 41.402)"><g class="f"><g transform="translate(50.682 179.961)"><path class="g" d="M1000.335,1950.762a214.976,214.976,0,0,0-24.568-12.048,173.07,173.07,0,0,0-18.093-5.973c-7.766-2.143-15.918-4.037-22.2-9.082a26.524,26.524,0,0,1-6.31-7.339,15.718,15.718,0,0,1-2.328-7.027,8.736,8.736,0,0,1,2.5-6.795c2.387-2.229,5.981-2.527,9.236-2.264a64.638,64.638,0,0,1,12.214,2.5,38.987,38.987,0,0,1,6.1,2.108,40.381,40.381,0,0,1,6.878,4.436,141.166,141.166,0,0,1,12.636,10.354c9.506,9.014,16.656,20.175,23.708,31.216" transform="translate(-926.826 -1826.171)"/><path class="h" d="M1025.046,1686.06c-1.156,6.375-2.671,12.845-1.8,19.268l-.38.007a60.952,60.952,0,0,1-5.185-3.969,62.24,62.24,0,0,1-16.1-21.249c-3.489-7.586-5.442-15.88-9.692-23.071-3.616-6.12-8.77-11.205-14.327-15.638a86.194,86.194,0,0,1-7.378-6.155,30.413,30.413,0,0,1-7.365-11.985,8.574,8.574,0,0,1-.527-4.25c.418-2.159,2.2-3.781,4.018-5.012,6.6-4.464,14.962-5.858,22.879-4.938s15.441,4.01,22.405,7.885a41.113,41.113,0,0,1,9.583,6.942,19.85,19.85,0,0,1,4.159,6.132,30.918,30.918,0,0,1,1.884,9.351A176.783,176.783,0,0,1,1025.046,1686.06Z" transform="translate(-955.825 -1587.28)"/><path class="i" d="M1263.958,1754.8c-1.156,6.376-2.67,12.845-1.8,19.268l-.38.007a60.973,60.973,0,0,1-5.185-3.97c-3.312-19.1-5.885-49.52,3.494-77.471a19.848,19.848,0,0,1,4.159,6.132,30.923,30.923,0,0,1,1.884,9.351A176.789,176.789,0,0,1,1263.958,1754.8Z" transform="translate(-1194.736 -1656.016)"/><path class="g" d="M1324.512,1500.663c-.228,14.089-3.841,27.787-8.987,40.975-2.632,6.748-5.667,13.364-8.853,19.83-4.763,9.661-9.917,19.178-13.5,29.336s-5.542,21.138-3.677,31.748l-.162-.9a108.61,108.61,0,0,1-6.557-15.9,124.275,124.275,0,0,1-5.5-46.527,78.861,78.861,0,0,1,2.173-14.553,110.922,110.922,0,0,1,5.542-15.089c5.827-13.772,12.173-28.22,24.212-37.089,3.355-2.472,7.995-4.441,11.536-2.248C1324.033,1492.286,1324.574,1496.794,1324.512,1500.663Z" transform="translate(-1213.925 -1489.299)"/><path class="j" d="M1341.939,1779.957c-2.632,6.748-5.667,13.364-8.853,19.83-4.763,9.661-9.917,19.178-13.5,29.337s-5.542,21.138-3.677,31.748l-.162-.9a108.6,108.6,0,0,1-6.557-15.9c1.619-15.208,5.2-31.8,11.782-41.565C1328.873,1790.785,1336.7,1783.791,1341.939,1779.957Z" transform="translate(-1240.34 -1727.618)"/><path class="i" d="M1403.695,1807.722s-10.148-11.6-25.583.341-26.436,46.221-26.863,59.865-20.723-5.639-20.723-5.639.834-44.926,24-66.035c0,0,16.34-17.527,34.419-9.169S1403.695,1807.722,1403.695,1807.722Z" transform="translate(-1257.831 -1731.61)"/><path class="h" d="M1463.473,1774.262a25.194,25.194,0,0,1,32.481-3.37c7.907,5.429,12.1,14.857,19.247,21.253,2.362,2.114,5.416,3.965,8.527,3.362,2.717-.526,4.8-2.876,5.742-5.478a21.419,21.419,0,0,0,.818-8.206c-.139-3.353-.444-6.806-1.993-9.784a20.294,20.294,0,0,0-5.187-5.967,33.742,33.742,0,0,0-11.993-6.768,36.063,36.063,0,0,0-9.06-1.274c-14.43-.437-29.528,4.736-38.651,15.926Z" transform="translate(-1366.781 -1709.618)"/><g transform="translate(14.857 26.195)"><path class="i" d="M1009.589,1635.5a72.413,72.413,0,0,1,10.906,4.617,96.869,96.869,0,0,1,10.144,6.132,113.644,113.644,0,0,1,9.081,6.889,64.242,64.242,0,0,1,7.811,7.723,39.825,39.825,0,0,1,5.828,9.114q.267.591.51,1.193a.38.38,0,0,0,.453.257.371.371,0,0,0,.257-.453A39.051,39.051,0,0,0,1049,1661.5a59.792,59.792,0,0,0-7.69-7.97,110.161,110.161,0,0,0-9.017-7.031,100.972,100.972,0,0,0-10.155-6.35,75.623,75.623,0,0,0-10.952-4.891q-.7-.244-1.4-.473c-.452-.147-.645.563-.2.71Z" transform="translate(-1009.334 -1634.766)"/></g></g><g transform="translate(393.005 150.767)"><path class="h" d="M3710.614,1531.069a134.83,134.83,0,0,1,25.518-63.186c-.21,10.81,2.78,20.919,1.463,31.892-1.329,11.073-6.114,20.719-11.4,30.482-1.847,3.412-11.076,17.117-16.6,13.75-1.266-.771,2.28-2.257,2.136-3.732a90.5,90.5,0,0,1-.406-10.737" transform="translate(-3550.595 -1442.545)"/><path class="g" d="M3636.21,2088.672q.8-.409,1.565-.868c.116.112.234.225.354.335Z" transform="translate(-3490.648 -1950.836)"/><path class="g" d="M3617.625,1569.694c-.721,4.13-2.608,7.954-4.527,11.681-3.376,6.56-7.184,13.3-12.451,18.3a30.342,30.342,0,0,1-5.366,4.106c-7.3-7.032-9.564-17.827-10.4-27.962a149.5,149.5,0,0,1,.439-28.993c.826-7.314,2.189-14.55,3.694-21.757.534-2.565,1.088-5.126,1.64-7.685l4.3-19.9q8.744,20.714,17.489,41.432a69.861,69.861,0,0,1,3.332,9.038,67.361,67.361,0,0,1,1.578,9.19C3617.863,1561.313,3618.345,1565.556,3617.625,1569.694Z" transform="translate(-3448.154 -1466.816)"/><path class="j" d="M3603.024,1714a46.24,46.24,0,0,1-2.378,11.295,30.347,30.347,0,0,1-5.366,4.106c-7.3-7.031-9.564-17.827-10.4-27.962a149.5,149.5,0,0,1,.439-28.993c.826-7.314,2.189-14.55,3.694-21.757C3594.9,1666.073,3604.456,1694.576,3603.024,1714Z" transform="translate(-3448.154 -1592.435)"/><path class="k" d="M3029.86,1812.755a99.075,99.075,0,0,1-22.012-37.138c-.958-2.944-1.779-5.939-2.973-8.8,12.925,7.457,25.624,16.06,34.359,28.157,3.663,5.072,15,23.661,9.518,27.637-2.762,2.005-12.626-2.553-16.29-7.28" transform="translate(-2972.999 -1687.653)"/><g class="l" transform="translate(0 96.26)"><path class="m" d="M2914.631,1939.144c-12.206-1.836-24.717-5.182-34-13.315-4.5-3.945-8.044-8.846-11.544-13.7l-14.875-20.634c-7.779-10.791-15.725-21.754-26.352-29.755,7.8,3.787,16.781,3.976,25.315,5.511a158.2,158.2,0,0,1,16.882,4.339c14.595,4.329,30.039,9.194,39.913,20.781,5.821,6.831,9.159,15.455,11.265,24.178,1.682,6.967,2.36,15.151-2.4,20.506-1.121,1.261-2.929,2.342-4.421,1.555" transform="translate(-2827.859 -1861.737)"/></g><path class="g" d="M3336.51,1455.783c-11.091-10.106-14.867-25.859-16.725-40.749a249.072,249.072,0,0,1,4.741-87.86,199.621,199.621,0,0,0,13.06,24.167c9.756,15.412,21.691,29.605,28.943,46.342a94.461,94.461,0,0,1,3.156,65.983c-1.105,3.413-2.479,6.874-5.036,9.39a17.456,17.456,0,0,1-7.022,3.969,11.714,11.714,0,0,1-6.815.464c-3.06-.906-5.166-3.634-7.057-6.205l-11.918-16.209" transform="translate(-3229.643 -1327.174)"/><path class="h" d="M3179.634,1711.416c-5.884.541-11.811-1.252-16.941-4.182a65.457,65.457,0,0,1-13.709-11.148,75.339,75.339,0,0,1-9.26-10.913c-4.185-6.245-6.844-13.38-9.051-20.567a195.736,195.736,0,0,1-8.438-65.185c-.079,3.122,1.442,6.055,3.157,8.665,9.214,14.025,24.51,22.654,36.672,34.216,4.056,3.856,7.773,8.051,11.464,12.258a97.13,97.13,0,0,1,10.04,12.868c4.336,7.042,6.9,15.359,6.154,23.6s-5.077,16.3-12.137,20.611" transform="translate(-3069.095 -1550.397)"/><path class="g" d="M3636.21,2088.672q.8-.409,1.565-.868c.116.112.234.225.354.335Z" transform="translate(-3490.648 -1950.836)"/></g></g></g><path class="g" d="M3706.305,1458.009a3.151,3.151,0,0,0-3.768-.2,7.1,7.1,0,0,0-2.527,3.425,19.069,19.069,0,0,0-1.382,9.094,17.667,17.667,0,0,0,3.645,9.437c.3.382,1.6.186,1.264-.367a21.917,21.917,0,0,1-1.244-2.349.692.692,0,0,0,.353-.2,17.062,17.062,0,0,0,2.348-4.552,36.955,36.955,0,0,0,1.619-5.009,37.377,37.377,0,0,0,.908-5.083A4.67,4.67,0,0,0,3706.305,1458.009Zm-.689,4.983a33.01,33.01,0,0,1-.819,4.376,36.884,36.884,0,0,1-1.487,4.564c-.482,1.205-1.137,2.359-1.656,3.552a19.149,19.149,0,0,1-.7-11.129,15.448,15.448,0,0,1,1.3-3.567c.436-.813,1.512-2.447,2.608-1.733C3706.073,1459.84,3705.753,1461.8,3705.616,1462.992Z" transform="translate(-3148.757 -1241.685)"/><path class="g" d="M3174.671,1586.11a117.385,117.385,0,0,0-3.149-13.7c-.6-2.164-1.176-4.34-1.853-6.481a8.254,8.254,0,0,0-2.8-4.5,4.858,4.858,0,0,0-4.509-.631,3.745,3.745,0,0,0-2.168,3.721,15.652,15.652,0,0,0,1.495,5.289,46.728,46.728,0,0,0,2.46,5.1,41.213,41.213,0,0,0,8.422,10.6.766.766,0,0,0,.471.154c.06.2.117.394.178.589C3173.392,1586.807,3174.767,1586.754,3174.671,1586.11Zm-12.031-18.555c-.477-1.349-1.083-3.063-.484-4.469.657-1.543,2.5-1.418,3.66-.53,1.31,1,1.861,2.756,2.288,4.276.544,1.936,1.043,3.886,1.542,5.835.943,3.689,1.8,7.413,2.833,11.076A48.094,48.094,0,0,1,3162.64,1567.554Z" transform="translate(-2707.342 -1326.306)"/><path class="g" d="M3395.629,1303.583q-.293-2.807-.6-5.613-.292-2.721-.583-5.443c-.157-1.464-.319-3.054-1.365-4.186a3.2,3.2,0,0,0-5.595,1.669,13.2,13.2,0,0,0,.38,4.61,38.135,38.135,0,0,0,1.238,4.841,31.455,31.455,0,0,0,4.817,9.4.662.662,0,0,0,.538.138c.013.062.024.123.038.185.156.684,1.575.559,1.586-.162A46.2,46.2,0,0,0,3395.629,1303.583Zm-6.333-10.327c-.177-1.244-.494-2.8.178-3.943.843-1.441,2.219-.532,2.725.666a14.8,14.8,0,0,1,.66,4.249l.46,4.592q.264,2.637.535,5.273c.109,1.059.188,2.137.323,3.2A42.843,42.843,0,0,1,3389.3,1293.256Z" transform="translate(-2893.634 -1102.251)"/><path class="h" d="M3832.833,1674.65a47.3,47.3,0,0,1-3.419,13.575,48.669,48.669,0,0,1-3.035,6.058c-.631,1.065-1.308,2.1-2.02,3.113-.636.9-1.413,1.746-1.978,2.694-.295.495.846.5,1.078.288a16.919,16.919,0,0,0,2.175-2.8c.641-.918,1.247-1.862,1.82-2.823a46.5,46.5,0,0,0,3.21-6.456,47.931,47.931,0,0,0,3.274-13.653C3833.977,1674.2,3832.879,1674.183,3832.833,1674.65Z" transform="translate(-3250.251 -1419.63)"/><path class="h" d="M2872.664,1932.228a31.685,31.685,0,0,0-2.474-4.188q-1.277-2-2.606-3.97-2.7-4-5.6-7.863a174.862,174.862,0,0,0-12.568-14.883c-.319-.339-1.456-.085-1.03.383q6.486,7.141,12.285,14.869,2.849,3.8,5.5,7.739,1.327,1.969,2.6,3.972a48.094,48.094,0,0,0,2.757,4.251C2871.782,1932.853,2872.9,1932.766,2872.664,1932.228Z" transform="translate(-2451.604 -1605.64)"/><path class="g" d="M3511.77,1381.68a7.492,7.492,0,0,0-.787-3.558,3.875,3.875,0,0,0-5-1.785c-1.78.927-2.251,3.146-2.553,4.951a47.742,47.742,0,0,0,0,15.559,48.841,48.841,0,0,0,5.836,16.416.421.421,0,0,0,.209.17c0,.016,0,.031,0,.047.045.834,1.552.817,1.635,0,.31-3.051.256-6.158.319-9.222.063-3.016.132-6.031.179-9.048.048-3.074.1-6.147.132-9.221C3511.753,1384.556,3511.806,1383.115,3511.77,1381.68Zm-7.637,4.041a23.982,23.982,0,0,1,1.108-6.719,3.2,3.2,0,0,1,1.777-2.1c1.325-.4,2.462.938,2.875,2.04a8.819,8.819,0,0,1,.38,3.33c-.036,1.472-.106,2.944-.16,4.416-.1,2.668-.177,5.336-.26,8-.1,3.131-.177,6.263-.26,9.4-.063,2.4-.2,4.815-.182,7.22A47.987,47.987,0,0,1,3504.132,1385.721Z" transform="translate(-2988.246 -1175.014)"/><path class="g" d="M3576.338,1425.7a1.932,1.932,0,0,0-2.183-.952A3.363,3.363,0,0,0,3572,1426.7a14.117,14.117,0,0,0-1.359,3.663,14.6,14.6,0,0,0,.367,7.628c.112.354,1.1.276.967-.156a14.306,14.306,0,0,1-.475-6.094c.262-1.9.9-4.357,2.241-5.808.482-.52,1.288-.619,1.516.162a2.919,2.919,0,0,1-.045,1.36,25.635,25.635,0,0,1-.921,2.93c-.747,2.151-1.817,4.22-2.46,6.4-.157.531.856.515,1.072.181a21.819,21.819,0,0,0,1.889-4.188c.538-1.427,1.014-2.88,1.431-4.347A4.016,4.016,0,0,0,3576.338,1425.7Z" transform="translate(-3043.602 -1214.974)"/><path class="g" d="M2916.79,1835.766a42.275,42.275,0,0,0-7.553-4.441c-1.881-.862-4.865-2.512-6.744-.787a1.959,1.959,0,0,0-.249,2.614,4.226,4.226,0,0,0,2.919,1.541c1.55.276,3.118.473,4.675.707a31.675,31.675,0,0,0,4.655.636.718.718,0,0,0,.59-.346q.449.29.893.586C2916.35,1836.527,2917.352,1836.182,2916.79,1835.766Zm-5.556-1.116-3.441-.515a13.5,13.5,0,0,1-3.429-.659c-1.01-.449-1.729-1.938-.475-2.579.993-.507,2.317.233,3.246.614q1.5.615,2.957,1.332c1.373.679,2.716,1.432,4.023,2.238C2913.17,1834.875,2912.181,1834.792,2911.233,1834.65Z" transform="translate(-2495.529 -1547.108)"/><path class="h" d="M946.594,1694.5a37.964,37.964,0,0,1-21.087-20.439,47.568,47.568,0,0,1-2.509-8.008c-.1-.423-1.235-.367-1.178.1a33.588,33.588,0,0,0,5.521,14.119,37.948,37.948,0,0,0,18.7,14.81C946.487,1695.245,947.273,1694.75,946.594,1694.5Z" transform="translate(-872.038 -1412.624)"/><path class="h" d="M1826.737,1816.792a24.418,24.418,0,0,0-5.957-13.609c-.255-.292-1.256-.1-.907.317a24.4,24.4,0,0,1,5.633,13.583,23.812,23.812,0,0,1-.547,7.418,24.507,24.507,0,0,1-1.1,3.467c-.488,1.22-1.177,2.341-1.693,3.542-.212.492.834.563,1.059.28a18.537,18.537,0,0,0,3.031-7.361A24.35,24.35,0,0,0,1826.737,1816.792Z" transform="translate(-1608.318 -1525.184)"/><path class="e" d="M1391.454,1510.92a58.507,58.507,0,0,0-9.618,8.924,47.473,47.473,0,0,0-7.249,10.893c-.227.5.888.566,1.111.192a77.345,77.345,0,0,1,7.238-10.661,58.573,58.573,0,0,1,9.295-8.873C1392.753,1511,1391.8,1510.662,1391.454,1510.92Z" transform="translate(-1243.25 -1285.59)"/><path class="e" d="M958.717,1979.814c-1.278-.87-2.749-1.466-4.049-2.323a30.638,30.638,0,0,1-3.918-3.06,32.113,32.113,0,0,1-6.063-7.535c-.21-.365-1.276-.241-1.045.175a31.051,31.051,0,0,0,6.13,7.866,32.376,32.376,0,0,0,3.774,2.988,16.943,16.943,0,0,0,4.482,2.446C958.345,1980.461,959.293,1980.207,958.717,1979.814Z" transform="translate(-889.905 -1659.354)"/><path class="e" d="M3157.39,1825.245a188.38,188.38,0,0,1-12.834-37.895q-1.238-5.7-2.1-11.464c-.073-.49-1.214-.461-1.145,0a181.62,181.62,0,0,0,10.346,38.913c1.4,3.6,2.9,7.168,4.573,10.65C3156.445,1825.888,3157.623,1825.758,3157.39,1825.245Z" transform="translate(-2691.862 -1502.625)"/><path class="e" d="M3386.456,1417.3c-.909-1.395-2.017-2.67-2.974-4.035q-1.609-2.3-3.029-4.72a71.819,71.819,0,0,1-4.681-9.546c-.149-.37-1.179-.269-1.006.165a71.7,71.7,0,0,0,4.721,9.689q1.323,2.261,2.811,4.419a31.3,31.3,0,0,0,3.236,4.256C3385.729,1417.724,3386.693,1417.66,3386.456,1417.3Z" transform="translate(-2883.261 -1193.708)"/><path class="e" d="M3658.778,1577.63c-.61-2.186-1.507-4.31-2.3-6.434s-1.625-4.267-2.442-6.4c-.146-.381-1.192-.285-1.026.17.782,2.141,1.558,4.286,2.357,6.421s1.523,4.327,2.5,6.386C3658.008,1578.078,3658.892,1578.039,3658.778,1577.63Z" transform="translate(-3111.402 -1329.645)"/><g transform="translate(167.108 406.617)"><path class="n" d="M1473.29,2673.6s-30.184,8.137-32.076,11.071-.189,7.286,4.731,8.7,35.293-10.881,35.293-10.881Z" transform="translate(-1440.46 -2670.936)"/><path class="n" d="M1648.524,2660.317l7.759,8.8s5.961-1.7,6.907-4.92S1657.986,2656.343,1648.524,2660.317Z" transform="translate(-1611.058 -2658.783)"/><g transform="translate(12.828 13.675)"><path class="n" d="M1544.528,2749.547s-30.184,8.138-32.076,11.07-.189,7.286,4.731,8.705,35.293-10.881,35.293-10.881Z" transform="translate(-1511.698 -2746.878)"/><path class="n" d="M1719.761,2736.258l7.759,8.8s5.961-1.7,6.907-4.92S1729.223,2732.284,1719.761,2736.258Z" transform="translate(-1682.295 -2734.724)"/></g></g><g transform="translate(247.463 391.343)"><path class="n" d="M1915.806,2587.1s-26.759,7.214-28.437,9.814-.168,6.459,4.194,7.718,31.289-9.647,31.289-9.647Z" transform="translate(-1886.7 -2584.732)"/><path class="n" d="M2071.158,2575.317l6.878,7.8s5.285-1.51,6.124-4.362S2079.547,2571.794,2071.158,2575.317Z" transform="translate(-2037.942 -2573.957)"/><g transform="translate(11.372 12.124)"><path class="n" d="M1978.961,2654.424s-26.759,7.214-28.437,9.815-.168,6.459,4.194,7.717,31.289-9.646,31.289-9.646Z" transform="translate(-1949.855 -2652.058)"/><path class="n" d="M2134.313,2642.643l6.878,7.8s5.285-1.51,6.124-4.362S2142.7,2639.12,2134.313,2642.643Z" transform="translate(-2101.097 -2641.283)"/></g></g><g transform="translate(403.169 357.364)"><path class="n" d="M2777.155,2395.731s-23.7,5.747-25.18,7.82-.149,5.146,3.714,6.148,27.706-7.686,27.706-7.686Z" transform="translate(-2751.383 -2393.846)"/><path class="n" d="M2914.72,2386.345l6.091,6.215s4.68-1.2,5.423-3.475S2922.148,2383.538,2914.72,2386.345Z" transform="translate(-2885.307 -2385.261)"/><g transform="translate(10.07 9.659)"><path class="n" d="M2833.079,2449.369s-23.7,5.748-25.181,7.819-.149,5.146,3.714,6.148,27.706-7.685,27.706-7.685Z" transform="translate(-2807.306 -2447.484)"/><path class="n" d="M2970.644,2439.983l6.091,6.215s4.68-1.2,5.422-3.475S2978.072,2437.176,2970.644,2439.983Z" transform="translate(-2941.231 -2438.9)"/></g></g><g transform="translate(249.039 127.734)"><path class="o" d="M2552.306,2572.121s13.1-11.35,17.438-8.048-9.08,17.038-27.859,23.016Z" transform="translate(-2419.453 -2313.952)"/><path class="o" d="M2252.266,2529.433s30.787-5.9,34.725-9.722-4.133-7.409-8.594-5.848S2242.127,2523.161,2252.266,2529.433Z" transform="translate(-2180.36 -2272.97)"/><path class="p" d="M2241.671,2485.523a6.054,6.054,0,0,1-4.182,4.751c-6.579,2.552-25.11,10.34-32.763,9.132s-9.67-9.4-5.237-10.531a150.571,150.571,0,0,0,18.262-6.942c.283-.169.569-.364.851-.573a21.826,21.826,0,0,0,2.506-2.23s18.4-4.163,19.336-1.208C2241,2479.663,2242.157,2482.755,2241.671,2485.523Z" transform="translate(-2136.812 -2242.94)"/><path class="p" d="M2535.978,2508.328c-.28,5.582-2.782,9.36-7.145,15.793-5.371,7.923-14.637,12.89-19.067,10.608s-2.955-5.1,0-9c2.1-2.777,6.327-12.924,8.578-18.52.906-2.254,1.492-3.771,1.492-3.771s15.039-7.519,15.979.671A25.462,25.462,0,0,1,2535.978,2508.328Z" transform="translate(-2390.824 -2262.149)"/><path class="q" d="M2339.26,2485.523a29.032,29.032,0,0,1-7.941.32,41.619,41.619,0,0,1-15.128-4.483,21.787,21.787,0,0,0,2.505-2.23s18.4-4.163,19.336-1.208C2338.587,2479.663,2339.746,2482.755,2339.26,2485.523Z" transform="translate(-2234.401 -2242.94)"/><path class="q" d="M2587.772,2508.328a13.165,13.165,0,0,1-5.267,1.694c-3.938.263-9.189-1.529-12.368-2.808.905-2.254,1.492-3.771,1.492-3.771s15.039-7.519,15.979.671A25.54,25.54,0,0,1,2587.772,2508.328Z" transform="translate(-2442.617 -2262.149)"/><path class="r" d="M2071.067,1355.027c-1.917,5.669-1.694,13.573-9.191,13.813-4.79.153-9.322-8.623-11.97-14.981-1.5-3.6-2.394-6.418-2.394-6.418L2061.876,1328s.813,1.748,1.865,3.747c0,0,0,0,0,0,1.415,2.69,3.261,5.836,4.132,5.791a10.062,10.062,0,0,0,3.194-.879S2072.983,1349.358,2071.067,1355.027Z" transform="translate(-2014.104 -1300.958)"/><path class="s" d="M2063.562,1336.9c-.321,2.554-4.153,8.862-8.385,13.733-2.122,2.443-3.962,3.137-5.27,3.223-1.5-3.6-2.394-6.418-2.394-6.418L2061.876,1328s.813,1.748,1.865,3.747c0,0,0,0,0,0A37,37,0,0,1,2063.562,1336.9Z" transform="translate(-2014.104 -1300.958)"/><path class="t" d="M2524.375,1733.6s1.928,4.922,3.981,6.041,15.181-1.419,15.181-1.419.384-3.564.44-5.987-1.25-6.467-3.428-7.338-8.461-3.67-11.073-.747S2523.667,1730.656,2524.375,1733.6Z" transform="translate(-2405.014 -1624.708)"/><path class="u" d="M2091.734,1727.711c-1.26-.315-5.276,0-6.063,3.78s-1.887,45.081.947,51.637c0,0,11.338-5.571,21.889-6.831s8.673-24.087,5.833-31.336S2091.734,1727.711,2091.734,1727.711Z" transform="translate(-2044.664 -1628.614)"/><path class="v" d="M2270.365,1910.818c-8.463,5.749-20.68,0-20.68,0s-.4-7.9-1.835-18.6-9.262-29.382-9.981-34.013-4.551-23.314-7.984-36.649-8.543-16.686-9.741-13.972.879,41.358,3.353,52.617,5.19,43.754,5.19,43.754a22.13,22.13,0,0,1-6.816,2.481,27.979,27.979,0,0,1-16.178-2.162c.717-4.87-6.069-33.813-7.107-38.724s-11.218-41.917-12.934-48.744c-.108-.43-.223-.9-.343-1.4-1.8-7.425-4.863-21.8-4.863-21.8a25.785,25.785,0,0,1,4.885-6.865c3-2.82,51.021-15.49,56.77-10.7a13.535,13.535,0,0,0,2.422,1.583c6.372,3.329,16.589,3.7,17.778,3.209,1.357-.559,2.636,6.786,3.195,16.367s2.155,43.994,1.755,49.663.8,8.3,3.513,28.025A122.648,122.648,0,0,1,2270.365,1910.818Z" transform="translate(-2123.099 -1667.439)"/><path class="e" d="M2099.544,1456.868a9.247,9.247,0,0,1-.837,2.2c-3.992,6.706-18.6,8.7-24.432,5.11s-13.255-55.252-13.255-55.011c-.009-.031-.058-.329-.139-.839v0c-.68-4.3-3.612-23.567-3.612-23.567h.8s3.115,7.8,6.07,10.277,4.79,2.075,5.119,3.193a14.473,14.473,0,0,0,1.986,3.193s1.118-3.592.879-4.95,3.289-5.354,4.328-13.419.246-9.281.246-9.281c-.749-1.75,7.641-1.652,9-1.094s14.372,17.087,15.969,23.074C2103.138,1401.3,2102.771,1445.048,2099.544,1456.868Z" transform="translate(-2022.103 -1337.294)"/><path class="w" d="M2244.523,1777.624c-.314.32-.5.5-.5.5s-10.838,15.272-22.879,23.058c-9.691,6.266-25.571,15.585-35.316,16.318-1.8-7.426-5.383-23.89-5.383-23.89a25.785,25.785,0,0,1,4.885-6.865c3-2.82,51.021-15.49,56.77-10.7A13.535,13.535,0,0,0,2244.523,1777.624Z" transform="translate(-2123.099 -1667.439)"/><path class="x" d="M2115.994,1503.544a9.257,9.257,0,0,1-.837,2.2c-2.047,3.442-6.893,5.643-11.91,6.485a28.152,28.152,0,0,1-3.315.357c-3.621.172-7.027-.388-9.207-1.732-1.591-.98-3.3-5.548-4.949-11.663-4.382-16.277-8.3-43.522-8.3-43.348-.009-.031-.058-.329-.139-.839v0c.021-.258,1.02-11.841,8.373-10.1a5.736,5.736,0,0,0,.6,1.219,21.077,21.077,0,0,0,1.212,1.746.648.648,0,0,1,.045.057c.042.054.075.1.1.125a.3.3,0,0,1,.035.045s.386-1.245.658-2.545a7.653,7.653,0,0,0,.221-2.4s4.631-2.075,8.383,6.468c0,0,4.311-13.255,3.752-19.083s5.51,9.262,7.347,22.6C2109.558,1464.075,2114.885,1491.215,2115.994,1503.544Z" transform="translate(-2038.552 -1383.97)"/><path class="y" d="M2123.668,1588.589a28.119,28.119,0,0,1-3.315.357c-8.25-9.335-13.289-53.808-13.63-57.189-.355-3.513-4.485-8.411-4.485-8.411.072-1.757,4.146-.935,5.7.882.015.019.033.038.045.057a1.153,1.153,0,0,1,.1.125.284.284,0,0,1,.035.045C2109.382,1526.263,2121.6,1579.567,2123.668,1588.589Z" transform="translate(-2058.974 -1460.327)"/><path class="y" d="M2080.085,1521.427c-1.217,3.12,4.338,20.358,5.159,28.485a195.288,195.288,0,0,1,.531,19.771c-4.382-16.277-8.3-43.523-8.3-43.349-.009-.031-.058-.329-.139-.839v0c.021-.258,1.02-11.841,8.373-10.1a5.736,5.736,0,0,0,.6,1.219C2083.5,1517.663,2080.754,1519.718,2080.085,1521.427Z" transform="translate(-2038.552 -1454.46)"/><path class="y" d="M2166.16,1503.544a9.268,9.268,0,0,1-.837,2.2c-3.992,6.706-18.6,8.7-24.432,5.11,7.861,2.786,16.8-2.549,16.9-9.788.173-11.748-4.98-51.363-5.966-53.906s-2.955,2.216-4.1,4.185-2.546-2.216-5.337-5.007a4.312,4.312,0,0,0-3.874-.787,7.651,7.651,0,0,0,.221-2.4s4.631-2.075,8.383,6.468c0,0,4.311-13.255,3.751-19.083s5.511,9.262,7.347,22.6C2159.723,1464.075,2165.051,1491.215,2166.16,1503.544Z" transform="translate(-2088.718 -1383.97)"/><path class="z" d="M2258.131,1436.41c-1.518-2.747-10.859-3.8-14.613-2.6a8.241,8.241,0,0,0-4.986,3.961s0,0,0,.005a118.954,118.954,0,0,1-10.406,12.015.005.005,0,0,0,0,0,98.232,98.232,0,0,1-15.821,13.237c-15.011,9.821-19.721,8.623-19.721,8.623s1.118-2.953,1.2-14.531c.052-7.608-2.963-26.763-6.057-44.079-1.615-9.038-3.25-17.576-4.483-23.708-3.593-17.886-7.585-26.509-7.585-26.509,3.362-1.174,4.351-.049,4.391,0v0s18.2-2.316,25.71,1.078,41.757,29.583,45.03,34.453,7.906,30.98,7.985,33.855A8.991,8.991,0,0,1,2258.131,1436.41Z" transform="translate(-2119.168 -1328.879)"/><path class="aa" d="M2146.621,1608.823s-6.386-9.062-7.476-11.418-6.217-26.189-7.494-34.652c-.837-5.551-1.656-11.684-2.117-15.25h0c-.242-1.872-.388-3.035-.388-3.035l3.184-1.438s.66,1.271,1.938,4.262c.761,1.783,1.741,4.175,2.934,7.276,3.193,8.3,10.1,38.644,10.38,40.481S2146.621,1608.823,2146.621,1608.823Z" transform="translate(-2081.036 -1477.265)"/><path class="ab" d="M2134.267,1547.293a8.773,8.773,0,0,1-2.977.6,4.572,4.572,0,0,1-1.755-.388h0c-.242-1.872-.388-3.035-.388-3.035l3.184-1.438S2132.989,1544.3,2134.267,1547.293Z" transform="translate(-2081.036 -1477.265)"/><path class="z" d="M1919,1536.038c0,.08-3.035-9.9-3.832-30.023a272.362,272.362,0,0,0-2.954-32.5l0,0c-.206.252-15.217,18.525-21.956,18.683a6.071,6.071,0,0,1-5.679-2.888h0c-1.68-2.612-2.136-6.6-2.7-10.286-.958-6.228-1.516-31.739-1.516-31.739s10.458-4.431,10.7-4.511,3.672,7.984,4.551,11.418c0,0,2.235-16.448,9.821-23.633a26.29,26.29,0,0,1,4.617-3.707c2.777-1.588,2.568.512,2.568.512s6.161,28.186,8.35,44.954c.1.761.188,1.473.266,2.145v0c1.652,14.153-1.172,9.823-2.469,29.869C1917.4,1525.34,1919,1535.958,1919,1536.038Z" transform="translate(-1877.046 -1381.525)"/><path class="ac" d="M2192.659,1395.731s-2.533,14.322-4.939,18.4c-1.615-9.038-3.25-17.576-4.483-23.708-3.593-17.886-7.585-26.509-7.585-26.509,3.362-1.173,4.351-.049,4.391,0v0s10.859,21.319,11.576,23.314a18.832,18.832,0,0,0-2.714,4.233A24.879,24.879,0,0,0,2192.659,1395.731Z" transform="translate(-2119.168 -1329.965)"/><path class="ac" d="M2047.79,1457.791l1.516-4.152-2.394-1.835c0-2.227-1.254-19.491-1.691-24.945,2.777-1.588,2.568.512,2.568.512s6.162,28.186,8.35,44.954c.1.761.188,1.473.267,2.145A64.153,64.153,0,0,0,2047.79,1457.791Z" transform="translate(-2012.225 -1381.525)"/><path class="w" d="M1931.427,1619.421l0,0c-.205.253-15.217,18.525-21.956,18.683a6.071,6.071,0,0,1-5.679-2.889c8.932,4.057,24.474-12.123,24.124-18.19s-3.035-15.73-.559-11.977S1931.427,1619.421,1931.427,1619.421Z" transform="translate(-1896.261 -1527.426)"/><path class="w" d="M1965.041,1565.961s4.381,12.3,2.789,19.722,1.442,2.615,2.081.549a29.189,29.189,0,0,0,0-13.643,38.838,38.838,0,0,0-4.259-10.016Z" transform="translate(-1946.483 -1493.288)"/><path class="w" d="M2374.8,1566.685s0,0,0,.005a118.863,118.863,0,0,1-10.406,12.015c.2-.2,4.058-11.418,3.34-21.284s-4.231-19.05-7.345-22.163-22.515-16.287-17.8-15.969c0,0,24.031,15.09,25.071,17.405S2372.61,1567.533,2374.8,1566.685Z" transform="translate(-2255.438 -1457.794)"/><path class="w" d="M2201.218,1365.6s11.68,21.453,11.92,23.848-2.635,3.833-2.156,4.791,2.795,3.194,2.955,3.912-2.7,14.542-5.859,19.807l-.356-2.007s-1.928-29.933-2.966-33.168-4.71-17.048-4.71-17.048Z" transform="translate(-2139.168 -1331.781)"/><path class="w" d="M2383.853,2054.914s1.1-2.8.832-8.442-4.7-35.317-5.773-46.059-1.342-31.422,0-37.463,3.214-6.887,3.214-6.887c-1.2,2.714.879,41.358,3.353,52.617s5.19,43.754,5.19,43.754A22.122,22.122,0,0,1,2383.853,2054.914Z" transform="translate(-2285.082 -1815.921)"/><path class="r" d="M1876.169,1458.941c.331,1.247-.726,6.275-4.288,7.264a10.72,10.72,0,0,1-3.418.011l-.7.289a9.876,9.876,0,0,1-2.478-.589c-2.235-.882-1.262-3.405-1.262-3.405-1.384-.2-1.98-1.123-2.044-2.9a1.569,1.569,0,0,1,1.45-1.826,2.576,2.576,0,0,1-.66-3.122,2.977,2.977,0,0,1,2.516-1.607,2.269,2.269,0,0,1-1.327-1.9c-.132-1.332,2.9-2.1,5.014-2.164a4.9,4.9,0,0,1,.917.051c1.316.205,1.59.94,1.59.94,2.376-.924,7.062-1.584,7.523,2.242S1875.84,1457.693,1876.169,1458.941Z" transform="translate(-1861.981 -1400.15)"/><path class="w" d="M1905.253,1436.117l-.059,1.245-1.034,22.092a1.384,1.384,0,1,1-2.765-.129l1.036-22.109.045-.987c.061.026.122.051.185.075.139.014.28.024.421.031A7.408,7.408,0,0,0,1905.253,1436.117Z" transform="translate(-1894.296 -1389.604)"/><path class="t" d="M1911.764,1459.184c-.538-1.107-2.9-5.084-2.9-5.084-2.972-.03-3.78-2.645-3.378-4.824,1.316.206,1.59.94,1.59.94,2.376-.925,7.062-1.584,7.523,2.242S1911.434,1457.936,1911.764,1459.184Z" transform="translate(-1897.575 -1400.393)"/><path class="aa" d="M2105.854,1507.268s2.759,7,4.332,7.341,3.834-.393,3.981-1.081.11-7.969-.412-8.359a2.291,2.291,0,0,0-.911-.009s-1.015,3.782-6.061,1.852A3.442,3.442,0,0,0,2105.854,1507.268Z" transform="translate(-2061.939 -1446.182)"/><path class="t" d="M1950.963,1255.542s2.037,6.283,0,10.188-12.4,14.094-20.548,13.754c-6.207-.259-13.4-10.368-16.55-18.472a21.03,21.03,0,0,1-1.619-6.659,23.179,23.179,0,0,1,3.736-12.9s12.565-2.378,17.186-1.7,13.719,7.641,13.719,7.641,2.284-2.2,4.387-1.659a3.5,3.5,0,0,1,2.236,2.168C1955.718,1252.656,1950.963,1255.542,1950.963,1255.542Z" transform="translate(-1903.19 -1228.498)"/><g transform="translate(12.222 29.067)"><path class="ad" d="M1930.418,1343.694a6.629,6.629,0,0,1,1.49-2.379c.58-.608,1.332-1.034,1.891-1.648.152-.167.006-.513-.242-.415a7.372,7.372,0,0,0-3.688,4.291c-.118.349.428.495.549.152Z" transform="translate(-1929.852 -1339.234)"/></g><path class="r" d="M1947.876,1253.2c.054,2.194-.367,4.072-2.371,1.332s-9.4-1.645-15.1,1.011-11.212-3.783-12.341-6.024-2.254-2.834-3.76-1.2.441,6.766,1.285,9.083c.545,1.5-.745,2.85-1.726,3.616a21.03,21.03,0,0,1-1.619-6.659,23.179,23.179,0,0,1,3.736-12.9s12.565-2.378,17.186-1.7,13.719,7.641,13.719,7.641,2.284-2.2,4.387-1.659A12.585,12.585,0,0,0,1947.876,1253.2Z" transform="translate(-1903.19 -1228.498)"/><path class="ae" d="M1891.478,1256.213c.689,2-.369,2.279-.674,2.319a.6.6,0,0,1-.078.007s-1.165.548-3.719-1.447-2.636-4.152,0-10.859a14.256,14.256,0,0,1,3.276-5.333,3.9,3.9,0,0,1,2.472-1.278,38.438,38.438,0,0,1-1.814,7.765C1889.759,1250.5,1890.679,1253.9,1891.478,1256.213Z" transform="translate(-1880.904 -1228.492)"/><path class="ad" d="M1906.929,1256.213c.69,2-.369,2.279-.674,2.319a21.767,21.767,0,0,1-2.281-10.782,36.111,36.111,0,0,1,1.76-6.849,3.9,3.9,0,0,1,2.472-1.278,38.4,38.4,0,0,1-1.814,7.765C1905.211,1250.5,1906.13,1253.9,1906.929,1256.213Z" transform="translate(-1896.355 -1228.492)"/><g transform="translate(0.604 29.663)"><path class="z" d="M1875.153,1342.554a9.05,9.05,0,0,0-2.289,17.938,9.84,9.84,0,0,0,2.763.146,9.051,9.051,0,0,0-.474-18.084Zm6.463,9.343c-.005.1-.01.2-.019.3,0,.021,0,.04-.005.059q-.011.123-.026.245a1.054,1.054,0,0,1-.014.106c-.012.1-.026.193-.042.287a.049.049,0,0,1,0,.017c-.016.1-.035.2-.056.3,0,.025-.009.051-.014.075-.021.1-.043.19-.066.282-.028.108-.056.214-.087.319s-.064.211-.1.313a.093.093,0,0,1-.007.023c-.03.087-.061.174-.094.259a.3.3,0,0,1-.017.049c-.03.077-.061.153-.093.23-.01.026-.021.051-.031.073-.038.091-.08.181-.122.27,0,0,0,0,0,.005-.046.094-.093.19-.141.282s-.1.188-.155.28-.1.177-.158.265a.258.258,0,0,1-.019.03c-.047.078-.1.155-.151.232-.01.017-.023.035-.035.052-.047.07-.1.138-.146.205a.337.337,0,0,1-.024.031c-.052.071-.108.143-.162.212a.25.25,0,0,0-.017.021c-.066.082-.132.162-.2.242a.137.137,0,0,0-.019.023c-.054.061-.108.12-.164.179-.089.1-.181.19-.275.282-.065.063-.132.125-.2.188-.094.085-.19.169-.287.249-.063.05-.126.1-.19.151s-.152.115-.228.171c-.019.012-.038.026-.057.04-.061.044-.124.087-.188.127-.113.075-.226.146-.343.214q-.1.063-.209.12a.138.138,0,0,0-.018.009c-.091.05-.183.1-.277.143s-.181.087-.272.127-.178.077-.267.111c-.038.016-.077.031-.117.045-.077.03-.153.057-.23.084s-.181.059-.272.087a.026.026,0,0,0-.01,0c-.1.03-.2.056-.3.082-.073.019-.146.037-.221.052s-.148.031-.223.045q-.209.039-.423.068l-.036.005c-.073.009-.146.016-.219.023-.047.005-.094.009-.141.012s-.113.009-.171.01l-.153.007c-.077,0-.153,0-.23,0-.118,0-.235,0-.354-.009-.141-.007-.282-.017-.421-.031-.063-.024-.124-.049-.184-.075a8.064,8.064,0,0,1-4.863-7.885,7.915,7.915,0,0,1,8.1-7.715c.139.007.278.017.416.031A8.052,8.052,0,0,1,1881.616,1351.9Z" transform="translate(-1865.333 -1342.543)"/></g><path class="w" d="M1878.047,1347.592a7.417,7.417,0,0,1,2.291.477c-.137-.014-.277-.024-.416-.031a7.914,7.914,0,0,0-8.1,7.715,8.063,8.063,0,0,0,4.863,7.885c.061.026.122.051.184.075a8.1,8.1,0,0,1,1.179-16.12Z" transform="translate(-1868.504 -1317.013)"/><path class="af" d="M1893.929,1358.059a7.914,7.914,0,0,1-8.1,7.714c-.141-.007-.282-.017-.421-.031a8.057,8.057,0,0,1-5.047-7.96,7.915,7.915,0,0,1,8.1-7.715c.139.007.278.017.416.031A8.051,8.051,0,0,1,1893.929,1358.059Z" transform="translate(-1877.042 -1319.042)"/><path class="ae" d="M1950.5,1206.236c-4.142,1.337-2.723,10.8-3.362,9.205s-4.847-5.432-13.812-1.867-13.449-2.376-15.488-5.6-4.452,0-4.452,0c-.578.36-.888-.007-.942-.822v0c-.167-2.408,1.872-8.705,5.631-11.51,5.03-3.752,18.683-5.988,24.59-1.915,4.321,2.977,6.511,8.291,7.377,10.932C1950.365,1205.627,1950.5,1206.236,1950.5,1206.236Z" transform="translate(-1903.353 -1189.077)"/><path class="ad" d="M1950.547,1265.536c-4.142,1.337-2.723,10.8-3.362,9.205s-4.847-5.432-13.812-1.866-13.45-2.376-15.489-5.6-4.452,0-4.452,0c-.578.36-.888-.007-.942-.822v0s1.719-4.8,5.23-1.29,7.984,9.5,17.725,6.149a58.648,58.648,0,0,0,14.642-7.352C1950.408,1264.927,1950.547,1265.536,1950.547,1265.536Z" transform="translate(-1903.396 -1248.377)"/><g transform="translate(46.742 20.531)"><path class="s" d="M2122.074,1292.2a8.438,8.438,0,0,0-.427,1.421,1.5,1.5,0,0,0,.185,1.438.638.638,0,0,0,.77.1,1.488,1.488,0,0,0,.547-1.335,8.421,8.421,0,0,0-.045-1.484.528.528,0,0,0-1.031-.14Z" transform="translate(-2121.553 -1291.83)"/></g><g class="ag" transform="translate(28.975 29.305)"><path class="s" d="M2026.315,1341.363c-1.041-.247-1.822.683-2.379,1.424a3.437,3.437,0,0,0-.99,2.807,2.712,2.712,0,0,0,2.531,1.994,3.4,3.4,0,0,0,2.892-1.61c1.047-1.568,1.735-5.47-1.184-5.427a3.463,3.463,0,0,0-2.57,1.844c-.665.979-1.338,2.17-.91,3.37a1.276,1.276,0,0,0,.89.89c1.046.174,1.449-.5,1.719-1.414a4.616,4.616,0,0,1,.509-1.117,4.968,4.968,0,0,1,.342-.531l.095-.111q.405-.294-.127-.159l-.611-.356q.034-.222-.011-.027a5.291,5.291,0,0,1-.157.57,2.991,2.991,0,0,1-.308.663c-.089.135-.256.27-.337.406-.047.078-.472.186-.015.212a.825.825,0,0,0,.055.1,2.7,2.7,0,0,1,.156-.364c.105-.232.22-.461.341-.685a5.665,5.665,0,0,0,.7-1.374.912.912,0,0,0-.627-1.1Z" transform="translate(-2022.888 -1340.551)"/></g><g transform="translate(27.336 29.581)"><path class="ae" d="M2013.788,1342.944a2.6,2.6,0,0,0,.41,1.2,3.579,3.579,0,0,0,.689.977,1.088,1.088,0,0,0,1.421.085,1.074,1.074,0,0,0,.279-1.4,7.482,7.482,0,0,0-.736-.869,3.221,3.221,0,0,0-.757-.75.878.878,0,0,0-1.305.749Z" transform="translate(-2013.787 -1342.085)"/></g><g transform="translate(20.859 35.875)"><path class="s" d="M1977.88,1377.17a2.313,2.313,0,0,0,1.09,2.719,3.049,3.049,0,0,0,3.205-.616c.267-.233-.075-.646-.37-.48a3.034,3.034,0,0,1-2.324.622c-1.009-.272-1.251-1.269-1.245-2.2,0-.2-.323-.255-.356-.048Z" transform="translate(-1977.82 -1377.04)"/></g><g transform="translate(25.424 42.75)"><path class="s" d="M2003.224,1415.721a14.628,14.628,0,0,1,.913,1.469,4.543,4.543,0,0,0,.809,1.423.383.383,0,0,0,.645-.267,3.066,3.066,0,0,0-.729-1.579,13.666,13.666,0,0,0-1.117-1.448c-.243-.281-.74.094-.521.4Z" transform="translate(-2003.169 -1415.22)"/></g><g transform="translate(23.043 25.165)"><path class="ad" d="M1990.323,1318.9a4.09,4.09,0,0,1,1.055-.59c.355-.13.749-.135,1.091-.279.182-.077.239-.375,0-.429a3.393,3.393,0,0,0-2.413.842c-.267.2-.006.661.267.456Z" transform="translate(-1989.944 -1317.565)"/></g><g transform="translate(32.401 29.572)"><path class="e" d="M2041.914,1342.479a5.629,5.629,0,0,0,.084.954c.054.309.1.665.4.822a.4.4,0,0,0,.535-.14c.157-.292.04-.525-.022-.826a4.188,4.188,0,0,1-.078-.809.461.461,0,0,0-.921,0Z" transform="translate(-2041.914 -1342.034)"/></g><g transform="translate(33.768 29.702)"><path class="e" d="M2049.51,1343.1a2.628,2.628,0,0,0,.032.65c.041.243.09.446.341.539a.292.292,0,0,0,.325-.132c.125-.186.029-.358,0-.556a2.026,2.026,0,0,1-.005-.5.348.348,0,0,0-.346-.345.352.352,0,0,0-.345.345Z" transform="translate(-2049.503 -1342.758)"/></g><path class="t" d="M1872.221,1458.453s1.231,1.3.2,2.465a3.1,3.1,0,0,1-2.173,1.149,2.352,2.352,0,0,1-.983,3.776c-.481.233-.987.458-1.5.66a9.885,9.885,0,0,1-2.478-.589c-2.235-.883-1.262-3.405-1.262-3.405-1.384-.2-1.98-1.123-2.044-2.9a1.569,1.569,0,0,1,1.45-1.827,2.576,2.576,0,0,1-.66-3.121,2.977,2.977,0,0,1,2.516-1.607,2.269,2.269,0,0,1-1.327-1.9c-.132-1.332,2.9-2.1,5.014-2.164s2.507.991,2.507.991,1.139,2.225-.252,2.934a3.675,3.675,0,0,1,3.127,3.061S1874.876,1457.424,1872.221,1458.453Z" transform="translate(-1861.981 -1400.149)"/><g transform="translate(3.122 49.693)"><path class="s" d="M1879.373,1457a30.714,30.714,0,0,0,4.378.464,2.756,2.756,0,0,0,1.8-.374,1.922,1.922,0,0,0,.81-1.35,3.286,3.286,0,0,0-.69-1.95.04.04,0,0,0-.068.04,2.248,2.248,0,0,1,.227,2.154,1.784,1.784,0,0,1-1.5,1.037,18.075,18.075,0,0,1-2.412,0c-.84-.037-1.686-.089-2.523-.162a.075.075,0,0,0-.02.146Z" transform="translate(-1879.32 -1453.774)"/></g><g transform="translate(1.641 52.637)"><path class="s" d="M1871.164,1475.458a9.287,9.287,0,0,0,3.546.812,28.316,28.316,0,0,0,3.776.038,4.416,4.416,0,0,0,1.747-.473,4.554,4.554,0,0,0,1.391-.928,2.747,2.747,0,0,0-.044-2.951,3.469,3.469,0,0,0-1.178-1.289,3.186,3.186,0,0,0-1.7-.544.12.12,0,0,0-.032.234,4.416,4.416,0,0,1,1.378.483,3.4,3.4,0,0,1,1.089,1.03,3.218,3.218,0,0,1,.523,1.435,1.475,1.475,0,0,1-.435,1.417,6.677,6.677,0,0,1-1.294.683,4.167,4.167,0,0,1-1.622.388c-1.114.042-2.24.048-3.353-.008a20.938,20.938,0,0,1-3.69-.577c-.144-.033-.249.176-.105.249Z" transform="translate(-1871.095 -1470.123)"/></g><g transform="translate(2.066 58.426)"><path class="s" d="M1873.545,1506.358a6.2,6.2,0,0,0,1.283.146c.444.022.891.016,1.336,0a18.628,18.628,0,0,0,2.639-.283c1.37-.25,3.362-.616,3.516-2.333a2.391,2.391,0,0,0-.1-.943,1.56,1.56,0,0,0-.244-.407.725.725,0,0,0-.27-.257c-.052-.026-.11.04-.065.084a.988.988,0,0,1,.22.271,1.807,1.807,0,0,1,.08.356,2.036,2.036,0,0,1,.037.825,2.1,2.1,0,0,1-1.22,1.31,8.511,8.511,0,0,1-2.188.586,21.782,21.782,0,0,1-2.324.3c-.43.032-.861.045-1.292.057-.457.012-.923-.015-1.378.037-.134.015-.184.211-.034.251Z" transform="translate(-1873.453 -1502.275)"/></g><g transform="translate(5.674 61.822)"><path class="s" d="M1893.574,1525.773a3.4,3.4,0,0,0,1.688-.352,2.535,2.535,0,0,0,1.254-1.013,2.992,2.992,0,0,0-.452-3.247c-.045-.069-.158,0-.11.064a2.79,2.79,0,0,1,.573,1.6,2.869,2.869,0,0,1-.463,1.352,2.313,2.313,0,0,1-1.071.853,5.9,5.9,0,0,1-.71.281,4.191,4.191,0,0,0-.737.249.115.115,0,0,0,.027.208Z" transform="translate(-1893.492 -1521.131)"/></g><path class="ae" d="M2040.216,1186.878a11.765,11.765,0,0,0-3.055-3.949,18.893,18.893,0,0,0-4.217-2.983,18.7,18.7,0,0,0-9.754-2.1c-.56.035-.579.562,0,.534a17.239,17.239,0,0,1,9.416,2.3,17.8,17.8,0,0,1,3.787,2.908c1.081,1.094,1.827,2.382,2.8,3.553C2039.41,1187.414,2040.4,1187.363,2040.216,1186.878Z" transform="translate(-1993.81 -1177.813)"/><path class="ae" d="M1873.52,1307.711a17.768,17.768,0,0,1-.529-2.353c-.049-.723.162-1.431.116-2.142-.027-.409-.812-.422-1.016-.168a4.265,4.265,0,0,0,.35,4.846C1872.632,1308.1,1873.615,1308.177,1873.52,1307.711Z" transform="translate(-1869.776 -1280.358)"/><path class="q" d="M2259.831,2535.187c-5.858,2.212-11.63,4.527-17.654,6.274q-4.507,1.307-9.091,2.332c-3.13.7-6.437,1.268-9.528.11-.379-.142-1.083.269-.489.481a17.194,17.194,0,0,0,9.047.248c3.146-.595,6.262-1.389,9.348-2.235a115.5,115.5,0,0,0,19.04-6.673C2261.068,2535.454,2260.164,2535.06,2259.831,2535.187Z" transform="translate(-2157.859 -2290.741)"/><path class="q" d="M2570.065,2563.7a14.7,14.7,0,0,1-2.66,6.256,57.772,57.772,0,0,1-4.253,5.568,35.061,35.061,0,0,1-4.983,4.791,32.251,32.251,0,0,1-5.634,3.384c-.539.265.341.6.636.493,4.343-1.52,8.04-4.864,10.993-8.293a50.865,50.865,0,0,0,4.3-5.763,14.451,14.451,0,0,0,2.486-6.435C2570.982,2563.377,2570.108,2563.36,2570.065,2563.7Z" transform="translate(-2428.045 -2313.937)"/><g class="ah" transform="translate(15.051 34.223)"><path class="ae" d="M1948.263,1369.191a2.081,2.081,0,0,0-.057,1.429,4.237,4.237,0,0,0,.451,1.247c.567.929,1.5,1.007,1.208-.071-.093-.339-.266-1.025-.389-1.356-.14-.376-.282-.6-.523-1.141-.188-.362-.454-.586-.689-.108Z" transform="translate(-1948.108 -1368.918)"/></g></g><path class="e" d="M1831.02,2083.807a5,5,0,1,0-5,5A5.092,5.092,0,0,0,1831.02,2083.807Z" transform="translate(-1609.308 -1751.287)"/><path class="e" d="M2018.843,2131.488c-2.509,0-2.513,3.9,0,3.9S2021.356,2131.488,2018.843,2131.488Z" transform="translate(-1769.975 -1794.485)"/><path class="e" d="M1760.39,2249.118q-.081-.605-.163-1.211l-.46-1.088-.712-.922-.922-.713-1.089-.459a3.451,3.451,0,0,0-1.817-.082,2.267,2.267,0,0,0-1.15.311,3.418,3.418,0,0,0-1.466.942l-.094.119a4.881,4.881,0,0,0-1.285,3.1l.156,1.167a4.384,4.384,0,0,0,1.129,1.937l.094.119.922.712,1.089.459a3.452,3.452,0,0,0,1.817.082,4.486,4.486,0,0,0,2.155-.9,4.507,4.507,0,0,0,1.4-1.823A3.431,3.431,0,0,0,1760.39,2249.118Z" transform="translate(-1552.095 -1887.194)"/><path class="e" d="M2171.534,2252.789c-3.37,0-3.375,5.237,0,5.237S2174.91,2252.789,2171.534,2252.789Z" transform="translate(-1894.641 -1893.943)"/><path class="e" d="M2767.805,1974.249c-.006-.126-.149-1.216-.182-1.331-.009-.032-.018-.064-.028-.1-.042-.142-.406-1-.478-1.138a5.24,5.24,0,0,0-2.8-2.153l-.1-.028-.039-.011-1.311-.176a3.716,3.716,0,0,0-1.9.425,2.47,2.47,0,0,0-1.088.634,3.73,3.73,0,0,0-1.271,1.385l-.5,1.178q-.089.656-.176,1.311.088.656.176,1.312a3.714,3.714,0,0,0,.883,1.677,2.477,2.477,0,0,0,.885.885,3.72,3.72,0,0,0,1.678.883l1.311.176,1.311-.176a3.718,3.718,0,0,0,1.678-.883,4.891,4.891,0,0,0,1.519-1.973A3.713,3.713,0,0,0,2767.805,1974.249Z" transform="translate(-2353.169 -1781.21)"/><path class="e" d="M2787.655,2172.047a3.375,3.375,0,1,0,3.375,3.375A3.414,3.414,0,0,0,2787.655,2172.047Z" transform="translate(-2374.765 -1947.438)"/><path class="e" d="M2902.568,1692.671q-.1-.762-.2-1.524a5.722,5.722,0,0,0-1.474-2.529l-1.16-.9a5.708,5.708,0,0,0-2.893-.782,5.89,5.89,0,0,0-5.732,5.732l.2,1.524a5.728,5.728,0,0,0,1.474,2.529l1.16.9a5.7,5.7,0,0,0,2.893.782,5.89,5.89,0,0,0,5.732-5.732Z" transform="translate(-2486.708 -1429.984)"/><circle class="e" cx="2.939" cy="2.939" r="2.939" transform="translate(461.403 214.724)"/><path class="e" d="M3265.451,1727.758a1.6,1.6,0,0,0,0,3.2A1.6,1.6,0,0,0,3265.451,1727.758Z" transform="translate(-2792.38 -1463.455)"/><path class="e" d="M3013.624,1623.441c-2.583,0-2.588,4.015,0,4.015S3016.212,1623.441,3013.624,1623.441Z" transform="translate(-2585.578 -1377.923)"/><path class="e" d="M3655.327,1271.826q-.1-.758-.2-1.516a5.7,5.7,0,0,0-1.467-2.517l-1.155-.892a5.673,5.673,0,0,0-2.878-.779,5.861,5.861,0,0,0-5.7,5.7q.1.758.2,1.516a5.693,5.693,0,0,0,1.467,2.516l1.154.892a5.678,5.678,0,0,0,2.879.778,5.861,5.861,0,0,0,5.7-5.7Z" transform="translate(-3103.964 -1084.946)"/><path class="e" d="M3730.552,1375.278c-3.332,0-3.338,5.179,0,5.179S3733.89,1375.278,3730.552,1375.278Z" transform="translate(-3172.946 -1174.447)"/><path class="e" d="M1244.56,1548.566l-.194-1.447-.548-1.3a4.112,4.112,0,0,0-1.4-1.527,2.718,2.718,0,0,0-1.2-.7,4.1,4.1,0,0,0-2.1-.469l-1.447.194-1.3.548a5.467,5.467,0,0,0-1.952,1.952l-.086.135a5.117,5.117,0,0,0,0,5.221l.086.136a4.114,4.114,0,0,0,1.4,1.527,2.718,2.718,0,0,0,1.2.7,4.1,4.1,0,0,0,2.1.469l1.446-.194,1.3-.549a4.114,4.114,0,0,0,1.527-1.4,2.718,2.718,0,0,0,.7-1.2A4.1,4.1,0,0,0,1244.56,1548.566Z" transform="translate(-1127.691 -1312.067)"/><path class="e" d="M1573.489,2098.414c-3.669,0-3.675,5.7,0,5.7S1577.164,2098.414,1573.489,2098.414Z" transform="translate(-1404.102 -1767.367)"/><g transform="translate(59.71 20.837)"><path class="c" d="M1498.588,702.537l-.115.091c.655-.5.646-.493.487-.375l-.24.183Z" transform="translate(-1404.563 -643.399)"/><path class="c" d="M1173.562,379.189a4.818,4.818,0,0,0-4.517-3.439c-.833,0-1.637.01-2.445.062a22.937,22.937,0,0,0-7.754.781c-2.173.473-4.328.963-6.456,1.61q-6.2,1.885-12.272,4.118a268.753,268.753,0,0,0-109.109,74.324q-4.285,4.84-8.335,9.883c-2.9,3.613-5.541,7.378-8.238,11.14-2.51,3.5-4.757,7.14-7.09,10.759s-4.577,7.29-6.733,11.014-4.228,7.508-6.207,11.335q-1.5,2.911-2.939,5.859c-.523,1.075-.943,2.186-1.362,3.3-.028.076-.172.417-.193.476-.077.165-.156.329-.234.493q-.377.8-.749,1.606-5.517,11.93-9.846,24.358-1.042,3.006-2.01,6.036a2.689,2.689,0,1,0,5.185,1.429c2.51-6.8,5.168-13.164,8.191-19.716q2.258-4.893,4.711-9.693c.835-1.634,1.88-3.123,2.753-4.732q1.265-2.332,2.575-4.638,5.379-9.467,11.507-18.48,1.495-2.2,3.032-4.367.769-1.085,1.548-2.162c.243-.335.5-.664.734-1-.6.846.32-.331.529-.575,1.372-1.6,2.6-3.335,3.881-5.01a1.763,1.763,0,0,0,.116-.167c.045-.05.086-.093.1-.116q.38-.487.761-.973c.581-.739,1.186-1.456,1.8-2.169,4.721-5.5,9.315-11.091,14.254-16.4s10.1-10.423,15.461-15.312c2.69-2.454,5.415-4.884,8.229-7.2.7-.572,1.4-1.132,2.111-1.691q.495-.392.992-.781c.142-.111.286-.22.426-.333-1.614,1.315.452-.349.711-.555,1.393-1.114,2.786-2.227,4.191-3.326l-.181.137c.1-.075.2-.151.3-.228l.065-.051c.092-.071.22-.169.307-.233q.45-.345.9-.688,1.145-.868,2.3-1.724,2.165-1.6,4.362-3.165,4.468-3.174,9.063-6.165a280.888,280.888,0,0,1,38.883-21.016q2.087-.931,4.19-1.823,8.967-3.746,18.182-6.85c3.179-1.067,6.421-2,9.57-3.143,3.438-1.253,7.194-2.132,10.194-4.278.814-.383,1.6-.811,2.4-1.237A4.729,4.729,0,0,0,1173.562,379.189Z" transform="translate(-976.962 -375.714)"/></g><g transform="translate(278.685 14.063)"><path class="c" d="M2193.4,344.289l-.306-.726a4.269,4.269,0,0,0,.389.873,3.673,3.673,0,0,0,1.2,1.2,5.62,5.62,0,0,0,2.135.53c1.424.209,2.84.36,4.274.477,2.39.2,4.78.286,7.173.423,2.33.133,4.657.314,6.984.487q1.742.13,3.481.308.781.081,1.563.173c.289.034.578.072.867.106,1.1.131-.91-.136.1.012A86.714,86.714,0,0,1,2234,350.888c1.912.583,3.785,1.265,5.639,2.009q.692.277,1.384.552c.778.31-.3-.121-.373-.16.257.141.553.239.821.359q1.36.608,2.687,1.289c2.019,1.039,4.041,2.089,5.958,3.309,2.2,1.4,4.827,3.474,7.6,2.691a2.9,2.9,0,0,0,2.022-2.022c.692-2.825-1.45-5.5-3.433-7.247a48.693,48.693,0,0,0-5.628-4.352,50.967,50.967,0,0,0-12.3-5.553,87.709,87.709,0,0,0-28.541-3.63c-2.745.07-5.492.159-8.222.464-1.607.18-3.21.357-4.8.665a4.7,4.7,0,0,0-2.813,1.118,3.306,3.306,0,0,0-.606,3.908Z" transform="translate(-2193.002 -338.097)"/></g><g transform="translate(473.974 310.641)"><path class="c" d="M3279.279,2049.415a29.039,29.039,0,0,0,11.847.056,50.409,50.409,0,0,0,10.39-2.969,117.207,117.207,0,0,0,19.956-10.53,196.768,196.768,0,0,0,34.036-26.985q4.17-4.2,8.1-8.621a56.729,56.729,0,0,0,4.243-5.417c1.223-1.768,2.762-3.554,3.139-5.708a3.385,3.385,0,0,0-.836-3.162,3.191,3.191,0,0,0-3.162-.836,8.548,8.548,0,0,0-3.054,1.844q-1,.975-2.01,1.936c-1.278,1.215-2.6,2.377-3.789,3.677q-3.524,3.84-7.235,7.5-7.479,7.38-15.51,14.158-1.96,1.655-3.959,3.262-.969.779-1.948,1.546l-.49.383c-.134.1-.674.535-.143.113s-.011.008-.146.111l-.619.473q-4.213,3.209-8.582,6.2a171.007,171.007,0,0,1-18.146,11.024c-1.8.93-3.642,1.777-5.493,2.6-.189.084-.385.184-.581.256.907-.335-.114.034-.237.082q-.669.259-1.346.5c-.948.341-1.907.645-2.869.944-3.8,1.184-7.677,1.9-11.556,2.767-2.409.536-2.32,4.2,0,4.786Z" transform="translate(-3277.505 -1985.093)"/></g><g transform="matrix(0.946, 0.326, -0.326, 0.946, 427.276, 12.698)"><g transform="translate(0 0)"><g transform="translate(0 0)"><path class="ai" d="M24.82,57.466A3.537,3.537,0,0,1,23.4,57.19C11.12,52.037,5.224,44.607,2.442,39.28A18.253,18.253,0,0,1,.375,30.808L0,6.581a3.527,3.527,0,0,1,4.651-3.4,17.2,17.2,0,0,0,5.76.871A24.439,24.439,0,0,0,22.045.58a3.545,3.545,0,0,1,3.8-.053A24.435,24.435,0,0,0,37.574,3.634,17.216,17.216,0,0,0,43.3,2.585a3.524,3.524,0,0,1,4.751,3.254l.375,24.226a18.241,18.241,0,0,1-1.8,8.53c-2.618,5.412-8.281,13.022-20.4,18.551A3.526,3.526,0,0,1,24.82,57.466Z"/></g><g transform="translate(11.418 14.273)"><g transform="translate(0 0)"><path d="M9.131,21.735a2.973,2.973,0,0,1-2.036-.761L1,15.517A2.988,2.988,0,1,1,4.98,11.065L9.037,14.7,23.547.809a2.987,2.987,0,0,1,4.088,4.356L11.13,20.926A2.977,2.977,0,0,1,9.131,21.735Z"/></g></g></g></g></g></g></svg>