<svg xmlns="http://www.w3.org/2000/svg" width="14.324" height="14.531" viewBox="0 0 14.324 14.531"><defs><style>.a{fill:#0c2242;}</style></defs><g transform="translate(-0.208)"><path class="a" d="M20.694,3.067A1,1,0,0,0,21.7,2.061V1.008a1.008,1.008,0,1,0-2.015,0V2.061A1,1,0,0,0,20.694,3.067Z" transform="translate(-9.759 0)"/><path class="a" d="M14.516,3.468H12.487v.512a1.534,1.534,0,1,1-3.068,0V3.468H5.325v.512a1.535,1.535,0,1,1-3.069,0V3.468L.208,3.443V16.256h13.3l1.022,0ZM13.508,15.236H1.232V7.05H13.509v8.186Z" transform="translate(0 -1.725)"/><path class="a" d="M6.343,3.067A1.006,1.006,0,0,0,7.351,2.061V1.008a1.008,1.008,0,1,0-2.015,0V2.061A1,1,0,0,0,6.343,3.067Z" transform="translate(-2.569 0)"/><rect class="a" width="1.612" height="1.423" transform="translate(5.328 6.424)"/><rect class="a" width="1.614" height="1.423" transform="translate(7.934 6.424)"/><rect class="a" width="1.612" height="1.423" transform="translate(10.352 6.424)"/><rect class="a" width="1.612" height="1.422" transform="translate(5.328 8.787)"/><rect class="a" width="1.614" height="1.422" transform="translate(7.934 8.787)"/><rect class="a" width="1.612" height="1.422" transform="translate(10.352 8.787)"/><rect class="a" width="1.612" height="1.422" transform="translate(5.328 11.197)"/><rect class="a" width="1.611" height="1.422" transform="translate(2.767 8.787)"/><rect class="a" width="1.611" height="1.422" transform="translate(2.767 11.197)"/><rect class="a" width="1.614" height="1.422" transform="translate(7.934 11.197)"/><rect class="a" width="1.612" height="1.422" transform="translate(10.352 11.197)"/></g></svg>