<svg xmlns="http://www.w3.org/2000/svg" width="252.49" height="198.442" viewBox="0 0 252.49 198.442"><defs><style>.a{fill:#939393;opacity:0.07;}</style></defs><path class="a" d="M111,25.9v90.948h64.319c-1.115,47.51-14.154,52.9-31.078,54.443l-6.092.809v52.242l7.089-.4c22.1-1.243,46.752-5.227,63.054-25.351,14.288-17.641,20.805-46.462,20.805-90.705V25.9Z" transform="translate(23.394 -25.905)"/><path class="a" d="M0,116.853H65.189c-1.114,47.51-14.59,52.9-31.514,54.443l-6.526.809v52.242l7.523-.4c22.1-1.243,46.534-5.227,62.835-25.351C111.8,180.951,118.1,152.13,118.1,107.887V25.9H0Z" transform="translate(0 -25.905)"/></svg>