<svg xmlns="http://www.w3.org/2000/svg" xmlns:xlink="http://www.w3.org/1999/xlink" width="375" height="1590" viewBox="0 0 375 1590"><defs><style>.a{fill:#fff;}.b{fill:none;}.c{clip-path:url(#a);}.d{clip-path:url(#b);}.e{fill:url(#c);}.f{fill:#102c33;}.g{fill:#162029;}.h{fill:#fffae5;}.i{fill:#003d46;}.j{fill:#8b8e33;}.k{fill:#90a4a2;}.l{fill:#d7c6b1;}.m{fill:url(#d);}.n{fill:url(#e);}.o{fill:#112d34;}.p{fill:#cbbead;}.q{fill:url(#f);}.r{fill:#faf2da;}.s{opacity:0.55;fill:url(#g);}.t{fill:url(#h);}.u{fill:#93a7a5;}.v{fill:url(#i);}.w{fill:url(#j);}.x{fill:url(#k);}.y{fill:url(#l);}.z{fill:url(#m);}.aa{fill:url(#n);}.ab{fill:url(#o);}.ac{fill:url(#p);}.ad{fill:url(#q);}.ae{fill:url(#r);}.af{fill:url(#s);}.ag{fill:url(#t);}.ah{fill:url(#u);}.ai{fill:url(#v);}.aj{fill:url(#w);}.ak{fill:url(#x);}.al{fill:url(#y);}.am{fill:url(#z);}.an{fill:url(#aa);}.ao{fill:url(#ab);}.ap{fill:#f1f1f1;opacity:0.92;}</style><clipPath id="a"><rect class="a" width="375" height="1558" transform="translate(511 1144)"/></clipPath><clipPath id="b"><rect class="b" width="1464" height="976" transform="translate(27.493 1)"/></clipPath><linearGradient id="c" x1="0.5" y1="0.007" x2="0.5" y2="0.678" gradientUnits="objectBoundingBox"><stop offset="0" stop-color="#5cb3ba"/><stop offset="0.141" stop-color="#63b6bb"/><stop offset="0.351" stop-color="#77bebe"/><stop offset="0.604" stop-color="#98ccc3"/><stop offset="0.887" stop-color="#c5dfca"/><stop offset="1" stop-color="#dae8ce"/></linearGradient><linearGradient id="d" x1="0.5" y1="1.037" x2="0.5" y2="0.186" gradientUnits="objectBoundingBox"><stop offset="0" stop-color="#799c9d"/><stop offset="1" stop-color="#aeb0a5"/></linearGradient><linearGradient id="e" x1="0.5" y1="0.931" x2="0.5" y2="0.076" xlink:href="#d"/><linearGradient id="f" x1="0.5" y1="0.984" x2="0.5" y2="0.376" xlink:href="#d"/><linearGradient id="g" x1="0.5" y1="-0.005" x2="0.5" y2="0.966" xlink:href="#c"/><linearGradient id="h" x1="0.5" y1="0.897" x2="0.5" y2="0.045" xlink:href="#d"/><linearGradient id="i" x1="0.5" y1="-0.042" x2="0.5" y2="1.029" xlink:href="#c"/><linearGradient id="j" x1="0.5" y1="0" x2="0.5" y2="0.981" xlink:href="#c"/><linearGradient id="k" x1="0.5" y1="-0.013" x2="0.5" y2="0.996" xlink:href="#c"/><linearGradient id="l" x1="0.5" y1="1.086" x2="0.5" y2="-1.326" gradientUnits="objectBoundingBox"><stop offset="0" stop-color="#0a1108"/><stop offset="1" stop-color="#216820"/></linearGradient><linearGradient id="m" x1="0.5" y1="1.904" x2="0.5" y2="-0.159" gradientUnits="objectBoundingBox"><stop offset="0" stop-color="#0a1108"/><stop offset="0.182" stop-color="#0b180a"/><stop offset="0.453" stop-color="#112c0f"/><stop offset="0.776" stop-color="#194d18"/><stop offset="1" stop-color="#216820"/></linearGradient><linearGradient id="n" x1="0.5" y1="1.953" x2="0.5" y2="-0.13" xlink:href="#m"/><linearGradient id="o" x1="0.5" y1="1.96" x2="0.5" y2="-0.267" xlink:href="#m"/><linearGradient id="p" x1="0.5" y1="1.8" x2="0.5" y2="-0.089" xlink:href="#m"/><linearGradient id="q" x1="0.5" y1="2.698" x2="0.5" y2="-0.661" xlink:href="#m"/><linearGradient id="r" x1="0.5" y1="1.682" x2="0.5" y2="-0.238" xlink:href="#m"/><linearGradient id="s" x1="0.5" y1="1.967" x2="0.5" y2="-0.065" xlink:href="#m"/><linearGradient id="t" x1="0.5" y1="1.839" x2="0.5" y2="0.02" xlink:href="#m"/><linearGradient id="u" x1="1.978" y1="1.544" x2="1.978" y2="0.161" gradientUnits="objectBoundingBox"><stop offset="0" stop-color="#0a1108"/><stop offset="0.182" stop-color="#0b1709"/><stop offset="0.445" stop-color="#102b0f"/><stop offset="0.757" stop-color="#194a17"/><stop offset="1" stop-color="#216820"/></linearGradient><linearGradient id="v" x1="16.732" y1="1.59" x2="16.732" y2="0.193" xlink:href="#u"/><linearGradient id="w" x1="1.202" y1="1.572" x2="1.202" y2="0.078" xlink:href="#u"/><linearGradient id="x" x1="-0.094" y1="1.471" x2="-0.094" y2="0.204" xlink:href="#u"/><linearGradient id="y" x1="8.52" y1="2.112" x2="8.52" y2="-0.14" xlink:href="#u"/><linearGradient id="z" x1="6.13" y1="1.348" x2="6.13" y2="0.06" xlink:href="#u"/><linearGradient id="aa" x1="3.975" y1="1.613" x2="3.975" y2="0.25" xlink:href="#u"/><linearGradient id="ab" x1="4.383" y1="1.522" x2="4.383" y2="0.302" xlink:href="#u"/></defs><g transform="translate(-511 -1143)"><g class="c"><g transform="translate(-174.01 1180.66)"><g class="d" transform="translate(606.517 552.34)"><rect class="e" width="1487.051" height="1005.422" transform="translate(-19.989 -22.918)"/><path class="f" d="M713.052,1155.647,626.075,890.8,593.113,763.043l-120-115.011-18.185-67.789-95.786-8.231-131.966-112.8L74.218,442.043l-98.974-63.759v848.478Z" transform="translate(18.086 -267.87)"/><path class="g" d="M311.134,2473.7l-51.742-86.451-155.225-12.876-47.243-77.254-87.736-22.072v259.351Z" transform="translate(22.368 -1609.321)"/><path class="h" d="M3348.531,667.267l67.991,2.934,139.561.978,164.61,2.445,3.579-6.847L3602.6,668.734l-275.543-6.358Z" transform="translate(-2411.961 -486.438)"/><path class="i" d="M3218.776,341.753l-192.144,5.329L2895.48,416.354l-23.093,95.916L2733.833,629.5,2565.7,876.657l-96.29,173.634,140.646,71.165,608.723-20.369Z" transform="translate(-1745.87 -242.034)"/><g transform="translate(289.409 561.224)"><path class="j" d="M1419.085,2140.495l6.432-6.242-15.351-6.658-3.425,5.75Z" transform="translate(-1283.727 -2066.265)"/><path class="j" d="M1407.539,2163.344l.655-1.24-11.372-9.2-2.708,4.547Z" transform="translate(-1274.797 -2084.162)"/><path class="j" d="M1142.021,2056.66l-41.338,28.656,40.56-29.357-3.076-2.772-64.551,38.128,42.21-34.128,6.364-18.4-37.523,24.27,33.637-27.772,18.664-.621h7.669l-48.8-36.745,25.07,16.611,5.588-10.582-11.06-10.623-3.967,6.66,3.159-7.436-3.861-3.709,4.582,2.013,2.275-5.355-8.029-6.5,8.659,5.016,2.876-6.769-12.333-10.5,1.539-6.342-11.247-4.168,11.766,2.032,5.309-21.869-40.8,30.146,42.438-36.894,2.8-11.538-53.07,44.284-9.391-32.22-5.076,10.929,12.1,41.936L1048.935,1950l-.568,1.223,8.251,28.159-14.333-28.272,1.534,9.905,4.73,18.7-8.82-9.9-3.58,7.707,2.888,6.132-4.136-3.445-7.721,16.621,5.284,7.234,22.711-21.083,2.614,6.239-22.038,19.344-3.48,7.12,33.616-18.694-26.062,17.153,2.134,2.922,12.768-3.776-14.647,7.581-11.146-2.41-5.121,3.313,8.736,8.435,1.1,5.355-3.047,2.6,20.648,16.707-4.372,5.2L1027.52,2040.8l-1.225,1.045L1042.169,2065l-21.609-23.225-1.564,6.3,33.68,39.689-37.99-36.011-12.987,11.083,12.429,11.224,6.7-4.96-4.872,6.608,2.781,2.512,5.211-3.876-3.015,5.859-4.506,9.811,23.71-5.433-3.755,9.574,6.071,5.482,33.3-22.414-29.093,26.213,19.371,17.494,12.448-7.105-.267-10.7,10.826,4.668,4.263-2.433-3.014-10.845,13.2,5.03,52.725-30.1Z" transform="translate(-997.268 -1918.111)"/><path class="j" d="M1445.451,2328.977l-12.562-1.8-6.977,14Z" transform="translate(-1297.286 -2207.418)"/><path class="j" d="M1427.175,2224.005l-4.878,9.623,22.581,13.391Z" transform="translate(-1294.729 -2134.45)"/><path class="j" d="M1403.124,1996.429l-5.915,22.93,8,1.517,4.291-22.736Z" transform="translate(-1276.986 -1973.5)"/><path class="j" d="M1223.609,1937.527l4.469,25.786,33.974-31.606-27.364,8.966Z" transform="translate(-1154.21 -1927.727)"/><path class="j" d="M1038.489,2207.141l-9.947-11.413,9.82,3.125-9.215-10.068,16.937,10.008Z" transform="translate(-1016.252 -2109.541)"/><path class="j" d="M1013.085,2311.412,986.564,2334.8l9.287-18.8Z" transform="translate(-986.564 -2196.266)"/><path class="j" d="M1117.161,2563.666l-7.9,5.029,23.031,25.275,1.372-9.219Z" transform="translate(-1073.339 -2374.669)"/><path class="j" d="M1403.609,2496.135l-28,20.62,7.189,1.614Z" transform="translate(-1261.707 -2326.909)"/><path class="j" d="M1255.741,2666.48h-13.9l2.452-127.517h8.992Z" transform="translate(-1167.107 -2357.198)"/><path class="j" d="M1274.892,2670.332l5.479-2.694.685,2.377-6.849,3.169Z" transform="translate(-1189.995 -2448.202)"/><path class="j" d="M1192.294,2747.82l16.888,2.794-1.632,1.945-16.3-3.779Z" transform="translate(-1131.327 -2504.908)"/><path class="j" d="M1274.407,2817.379l8.219-1.034.343,1.724-9.931,1.724Z" transform="translate(-1189.168 -2553.372)"/><path class="j" d="M1199.745,2756.66l5.385-6,.641.39-5.191,5.948Z" transform="translate(-1137.333 -2506.92)"/></g><g transform="translate(821.684 454.068)"><path class="j" d="M2897.829,1669.531l3.695-2.978,22.16,6.816,5.864-7.923-26.226-15.073,29.081,9.882,12.865-3.29-33.631-16.451,28.474,8.214.363-3.148L2917.7,1628.8l16.179-22.172-1.491-2.6L2896.131,1630l41.947-37.752-11.5,1.659-55.62,33.7,39.551-35.355,4.374-18.726-37.932,24.719,27.182-32.949-6.483-3.536-44.669,29.894,38.364-33.333-11.4-6.217-67.115,47.34,1.249.968,42.5-22.541-35.945,27.621,10.275,7.968,23.273-12.219L2838.059,1619l4.14,3.21-20.973,31.76,4.227,4.732,49.7-47.877-43.42,54.913-3.321,13.4,42.546-33.557-28.918,31.694,3.653,4.089,52.231-40.577-47.711,45.637,11.157,12.49,32.976-26.577-15.6-6.381Z" transform="translate(-2810.439 -1552.098)"/><path class="j" d="M3006.464,1998.23l-35.241,27.646,40.406-24Z" transform="translate(-2922.456 -1867.618)"/><path class="j" d="M3236.98,1769.061l-6.592,8.389,7.79-3Z" transform="translate(-3105.746 -1705.542)"/><path class="j" d="M2810.655,1787.459l6.578,4.29-12.584,14.3Z" transform="translate(-2804.649 -1718.554)"/><path class="j" d="M3024.736,2013.235h-14.382l4.194-182.769h6.592Z" transform="translate(-2950.131 -1748.969)"/><path class="j" d="M3034.917,2132.471l19.631-6.269.912,1.688-19.14,6.416Z" transform="translate(-2967.502 -1958.123)"/><path class="j" d="M3039.527,2282.64l10.358-3.308.481.891-10.1,3.385Z" transform="translate(-2970.762 -2066.423)"/><path class="j" d="M2951.086,2239.988l7.5-2.4.348.645-7.317,2.453Z" transform="translate(-2908.214 -2036.902)"/><path class="j" d="M3074.582,2122.332l5.264-5.861.627.381-5.074,5.814Z" transform="translate(-2995.555 -1951.242)"/><path class="j" d="M2966.737,2227.567l17.937,10.146-.62,1.816-17.71-9.686Z" transform="translate(-2919.005 -2029.812)"/></g><g transform="translate(92.099 479.793)"><g transform="translate(0 0)"><path class="j" d="M2906.392,1681.361l4.067-3.277,24.393,7.5,6.455-8.721-28.868-16.591,32.01,10.877,14.162-3.622-37.019-18.108,31.343,9.041.4-3.466-25.065-18.469,17.809-24.406-1.642-2.861-39.914,28.586,46.173-41.556-12.653,1.826-61.224,37.091,43.535-38.917,4.814-20.613-41.753,27.209,29.921-36.269-7.136-3.893-49.169,32.905,42.229-36.691-12.546-6.844-73.877,52.109,1.375,1.066,46.777-24.812-39.567,30.4,11.31,8.771,25.618-13.45-17.749,19.552,4.557,3.534-23.086,34.959,4.653,5.209,54.712-52.7-47.794,60.445-3.656,14.751L2876.818,1655l-31.832,34.886,4.021,4.5,57.493-44.664-52.518,50.234,12.281,13.748,36.3-29.255-17.169-7.024Z" transform="translate(-2810.198 -1552.098)"/><path class="j" d="M3010.014,1998.23l-38.791,30.431,44.476-26.418Z" transform="translate(-2917.543 -1854.459)"/><path class="j" d="M3237.645,1769.061l-7.256,9.235,8.575-3.3Z" transform="translate(-3093.189 -1699.142)"/><path class="j" d="M2811.26,1787.459l7.241,4.722-13.852,15.741Z" transform="translate(-2804.649 -1711.612)"/></g><path class="j" d="M3026.185,2031.647h-15.83l4.617-201.181h7.256Z" transform="translate(-2944.063 -1740.759)"/><path class="j" d="M3034.917,2133.1l21.608-6.9,1,1.859-21.068,7.062Z" transform="translate(-2960.711 -1941.191)"/><path class="j" d="M3039.527,2282.974l11.4-3.641.53.98-11.116,3.727Z" transform="translate(-2963.835 -2044.973)"/><path class="j" d="M2951.086,2240.229l8.261-2.638.383.71-8.053,2.7Z" transform="translate(-2903.895 -2016.684)"/><path class="j" d="M3074.583,2122.922l5.795-6.451.69.419-5.585,6.4Z" transform="translate(-2987.593 -1934.595)"/><path class="j" d="M2966.777,2227.567l19.744,11.168-.682,2-19.494-10.662Z" transform="translate(-2914.237 -2009.89)"/></g><path class="j" d="M2905.074,1540.172l10.013,4.855-34.61,23.362Z" transform="translate(-2036.594 -1089.595)"/><path class="j" d="M2913.785,1540.172l13.56,6.574-46.866,31.635Z" transform="translate(-2776.606 -1068.706)"/><g transform="translate(1193.381 763.507)"><path class="j" d="M4110.954,2691.4l-2.791-1.8,2.226-13.975-6.1,11.474-6.706,2.023,6.921-18.342-6.1,12.52-6.934-4.478,9.653-22.684-24.976-2.031-1.9-4.918,51.5-4.146-47.3-.053,2.98-2.979,32.215-4.138-28.591.517,10.215-10.209.108-.316,22.556,4.609-21.057-9,3.63-10.627,10.857-3.8-4.416,7.352,12.465,7.954-2.8,2.833,7.722,5.852,1.74-4.437,17.626,11.247-22.076-.035,24.974,4.813.718,3.764-14.088,3,15.8,5.964.308,1.616-.531,5.571-30.505-6.7,25.847,8.834-9.007,13.375-.556.405-12.221-10.962Z" transform="translate(-4074.251 -2609.048)"/><path class="j" d="M4228.27,2861.3l-13.141,9.6-.07-.045,7.847-12.188Z" transform="translate(-4173.834 -2785.585)"/><path class="j" d="M4125.5,2779.573l6.512-.28-3.121,5.865Z" transform="translate(-4110.499 -2729.451)"/><path class="j" d="M4302.7,2813.93l2.32,6.983-10.465,5.592Z" transform="translate(-4230.058 -2753.947)"/></g><g transform="translate(513.295 608.836)"><path class="k" d="M3575.437,2822.957l-4.928,7.232-.111-8.678Z" transform="translate(-3037.823 -2604.638)"/><g transform="translate(0 0)"><rect class="l" width="57.082" height="82.309" transform="translate(89.875 251.205) rotate(180)"/><rect class="l" width="457.576" height="63.509" transform="translate(534.397 250.401) rotate(180)"/><path class="m" d="M2012.568,2799.352l31.742,31.13,231.009,8.194L2224.594,2788Z" transform="translate(-1936.073 -2580.937)"/><path class="n" d="M3017.147,2819.913l36.76,37.64,126.992,1.5v-41.6Z" transform="translate(-2646.545 -2601.771)"/><g transform="translate(307.312 44.321)"><path class="o" d="M2941.926,2239.439l-31.856,47.177h-96.614v-54.488Z" transform="translate(-2809.8 -2232.128)"/><path class="p" d="M2927.952,2241.317l-29.324,49.713h-96.614l-1.044-48.225Z" transform="translate(-2800.969 -2238.626)"/></g><rect class="o" width="101.314" height="11.489" transform="translate(439.438 51.633) rotate(180)"/><g transform="translate(270.233 25.521)"><path class="q" d="M2747.433,2229.174v45.273H2674.32V2167.911h10.715Z" transform="translate(-2674.32 -2167.911)"/><path class="r" d="M2773.318,2167.911v61.263l-62.4-61.263Z" transform="translate(-2700.205 -2167.911)"/></g><rect class="s" width="193.42" height="43.629" transform="translate(513.146 118.442) rotate(180)"/><rect class="o" width="2.751" height="43.629" transform="translate(320.775 118.442) rotate(180)"/><rect class="o" width="2.751" height="43.629" transform="translate(513.146 118.442) rotate(180)"/><path class="t" d="M1802.047,2724.581h14.318v-82.309l-14.318-5.223Z" transform="translate(-1787.186 -2474.18)"/><rect class="l" width="15.665" height="87.531" transform="translate(15.665 251.205) rotate(180)"/><rect class="o" width="87.462" height="90.609" transform="translate(369.527 207.372) rotate(180)"/><path class="k" d="M1990.186,2809.691h219.544l-4.284,5.222H1996.951Z" transform="translate(-1920.244 -2596.278)"/><rect class="r" width="219.543" height="213.413" transform="translate(289.485 213.413) rotate(180)"/><g transform="translate(293.782 121.17)"><rect class="u" width="3.26" height="65.662" transform="translate(0 3.26) rotate(-90)"/><rect class="u" width="3.26" height="65.662" transform="translate(0 9.28) rotate(-90)"/><rect class="u" width="3.26" height="65.662" transform="translate(0 15.299) rotate(-90)"/><rect class="u" width="3.26" height="65.662" transform="translate(0 21.318) rotate(-90)"/><rect class="u" width="3.26" height="65.662" transform="translate(0 27.338) rotate(-90)"/><rect class="u" width="3.26" height="65.662" transform="translate(0 33.357) rotate(-90)"/><rect class="u" width="3.26" height="65.662" transform="translate(0 39.376) rotate(-90)"/><rect class="u" width="3.26" height="65.662" transform="translate(0 45.396) rotate(-90)"/><rect class="u" width="3.26" height="65.662" transform="translate(0 51.415) rotate(-90)"/><rect class="u" width="3.26" height="65.662" transform="translate(0 57.434) rotate(-90)"/><rect class="u" width="3.26" height="65.662" transform="translate(0 63.454) rotate(-90)"/><rect class="u" width="3.26" height="65.662" transform="translate(0 69.473) rotate(-90)"/><rect class="u" width="3.26" height="65.662" transform="translate(0 75.492) rotate(-90)"/><rect class="u" width="3.26" height="65.662" transform="translate(0 81.512) rotate(-90)"/></g><path class="k" d="M3171.247,2809.691H2993.712l6.651,5.222,167.222-.315Z" transform="translate(-2629.971 -2596.278)"/><rect class="r" width="177.535" height="102.722" transform="translate(541.276 213.413) rotate(180)"/><g transform="translate(231.64 35.404)"><rect class="k" width="27.891" height="75.286" transform="translate(27.891 75.286) rotate(180)"/><rect class="o" width="22.345" height="68.218" transform="translate(27.891 75.286) rotate(180)"/><rect class="v" width="19.429" height="65.144" transform="translate(27.891 75.286) rotate(180)"/></g><g transform="translate(495.073 119.212)"><rect class="k" width="27.891" height="75.286" transform="translate(27.891 75.286) rotate(180)"/><rect class="o" width="22.345" height="68.218" transform="translate(27.891 75.286) rotate(180)"/><rect class="w" width="19.429" height="65.144" transform="translate(27.891 75.286) rotate(180)"/></g><g transform="translate(231.64 119.212)"><rect class="k" width="27.891" height="75.286" transform="translate(27.891 75.286) rotate(180)"/><rect class="o" width="22.345" height="68.218" transform="translate(27.891 75.286) rotate(180)"/><rect class="x" width="19.429" height="65.144" transform="translate(27.891 75.286) rotate(180)"/></g><g transform="translate(22.101 168.092)"><rect class="u" width="33.671" height="82.309" transform="translate(33.671 82.309) rotate(180)"/><rect class="o" width="33.671" height="12.583" transform="translate(33.671 82.309) rotate(180)"/><rect class="o" width="33.671" height="3.388" transform="translate(33.671 66.514) rotate(180)"/><rect class="o" width="33.671" height="3.388" transform="translate(33.671 59.915) rotate(180)"/><rect class="o" width="33.671" height="3.388" transform="translate(33.671 53.316) rotate(180)"/><rect class="o" width="33.671" height="3.388" transform="translate(33.671 46.717) rotate(180)"/><rect class="o" width="33.671" height="3.388" transform="translate(33.671 40.118) rotate(180)"/><rect class="o" width="33.671" height="3.388" transform="translate(33.671 33.519) rotate(180)"/><rect class="o" width="33.671" height="3.388" transform="translate(33.671 26.92) rotate(180)"/><rect class="o" width="33.671" height="3.388" transform="translate(33.671 20.321) rotate(180)"/><rect class="o" width="33.671" height="3.388" transform="translate(33.671 13.722) rotate(180)"/><rect class="o" width="33.671" height="3.388" transform="translate(33.671 7.123) rotate(180)"/></g></g></g><g transform="translate(1056.341 499.151)"><g transform="translate(-81.645)"><path class="j" d="M3728.851,1840.2l38.2-33.33-26.292-14.3,38.228-15.041-6.944-4.426-54.472,21.347,43.864-28.108-4.58-2.919-34.27,11.6,20.665-20.271-3.561-2.269-54.08,32.567,48.04-36.417-11.692-7.451.843-15.728-27.791,13.221,28.1-19.037.726-13.551-29.455,11.28-15.041-6.267-3.958,3.028,5.838,8.88-8.453-6.881-6.486,4.96,6.792,11.321-9.691-9.1-14.74,5.768,22.551,39.058-26.63-30.435-7.838,5.994,13.161,26.321-26.321-11.281-5.7,28.568,31.4,7.154-31.46.862-.014,1.773,24.58,2.379-24.654,7.044-9.813,6.743,73.323-14.414-63.592,18.17-.024,3.075,14.108,1.316-14.18,7.829-7.755,7.838,56.4-9.4-48.752,14.785-.013,1.6,43.959-7.912-44.052,22.882,13.162,10.082,28.8-15.114-25.74,17.459,12.58,21.4,66.43-48.255-56.077,44.425,6.482,4.965,34.554-19.935-29.7,23.656,8.388,6.425,93.377-45.749,2.749-18.5-56.645,34.79,58.615-48.045,1.063-7.148Z" transform="translate(-3607.392 -1706.087)"/><path class="j" d="M4054.93,2301.171l-48.882,19.427,47-6.893Z" transform="translate(-3888.976 -2126.951)"/><path class="j" d="M3889.45,2377.5l-37.524,14,8.774,5.64Z" transform="translate(-3779.975 -2180.935)"/><path class="j" d="M3626.08,2281.062l8.212,13.139-28.127-2.258Z" transform="translate(-3606.165 -2112.729)"/><path class="j" d="M4112.772,1983.047l23.149-8.681-13.888,15.626Z" transform="translate(-3964.455 -1895.822)"/><path class="j" d="M4061.894,1838.872l31.679-15.267-5.788-13.311Z" transform="translate(-3928.472 -1779.786)"/><path class="j" d="M4023.818,1707.5v13.311l16.205-2.315Z" transform="translate(-3901.543 -1707.088)"/><path class="j" d="M3882.746,2248.031l-5.209,182.879h16.2l-2.315-195.61Z" transform="translate(-3798.088 -2080.364)"/><path class="j" d="M3918.659,2486.5l10.182-8.145-2.375,5.43-7.806,7.806Z" transform="translate(-3827.171 -2252.261)"/><path class="j" d="M3861.857,2587.321l8.824,1.7-.679,3.734Z" transform="translate(-3786.999 -2329.325)"/><path class="j" d="M3921.317,2661.907l6.109-2.715v3.394l-6.448,3.394Z" transform="translate(-3828.811 -2380.155)"/></g><path class="j" d="M3843.482,2574.706l10.249,5.022-.284,1.024-10.108-4.775Z" transform="translate(-3773.902 -2320.404)"/></g><path class="y" d="M-42.79,2891.428l234.068-32.616,169.929,8.076,197.249-13.3,190.46-14.91,87.339,15.88,218.265,4.251,261.1-32.615,141.12,18.882v154.5H-42.79Z" transform="translate(30.839 -1999.116)"/><g transform="translate(957.1 811.398)"><path class="z" d="M3530.3,2823.108l-6.92,40.1-4.567-39.553-5.065.874,3.155,28.95-6.678-28.341-4.332.748,5.458,50.673-9.2-38.757-3.429,26.746-2.187-37.046-5.074.876v60.574l-8.508-59.105-2.068.357,1.323,28.831-4.469-23.51-6.247,60.232,74.557-2.859-4.022-73.252-7.863,1.358-1.065,52.135Z" transform="translate(-3411.676 -2805.883)"/><path class="aa" d="M3742.906,2812.412l-1.285,74.777,11.855-.455-7.129-74.916Z" transform="translate(-3602.722 -2800.345)"/><path class="ab" d="M3389.882,2845.585l-1.25-.5-5.657,27.292,1.018-29.149-1.214-.486-11.037,70.469,25.442-.976,1.309-63.652-.783.135-2.708-1.084-10.639,49.959Z" transform="translate(-3341.132 -2822.215)"/><path class="ac" d="M3302.331,2812.491l-10.48,40.744-2.641-46-8.965-3.589-13.056,83.088,30.026-1.151,9.106-71.5Z" transform="translate(-3267.188 -2794.568)"/><path class="ad" d="M4449.841,2889.531l-1.3,27.18-3.187-26.5-10.607,1.616-1.023,12.667-8-11.292-4.745.723-8.6-2.443,6.537,18.569-11.637-20.019-6.579-1.87-8.737,9.784-1.529-12.7-4.641-1.32,7.726,46.731,49.218-1.887,9.094,1.646,4.777-41.918Z" transform="translate(-4058.306 -2851.344)"/><path class="ae" d="M4701.489,2848.258l-2.041.311,5.561,35.143-21.421-32.726-5.882.9,20.438,57.459-26.006-56.611-1.151.176,6.459,46.887-18.3-45.083-1.849.281,5.686,45.8-11.078-44.979-9.1,1.386-.179,23.505-2.942-23.03-5.023.765-2.186,33.311-5.951-32.071-3.685.561-7.739,42.734,130.53,23.619-21.761-81.748-20.768,3.164,7.536,33.12Z" transform="translate(-4220.476 -2823.704)"/><path class="af" d="M4102.458,2818.8l-2.623,4.521,3.118,34.555-5.821-29.892-5.143,8.87-8.455-23.433-4.366-1.241-4.9,21.335,2.7-21.959-3.513-1-16.769,45.182,12.993-46.255-1.253-.357-17.292,50.031,13.34-51.154-5.733-1.629-24.782,27.8,9.905-32.027-2.821-.8-20.141,38.19,6.221-42.146-6.118-1.739-22.446,77.219,119.245-4.572-11.249-48.33Z" transform="translate(-3784.439 -2788.911)"/><path class="ag" d="M3848.572,2789.881l-.178-17.253-2.542.439-11.687,36.786-4.1-34.061-5.212.9,2.432,29-4.717-28.608-3.422.591-.341,1.234,2.928,51.145-7.222-35.582-6.462,23.42-3.844-37.636-5.207.9,5.617,61.294-7.967-43.042-4.7,59.5,57.075-2.188,11.625-81.4-2.154-.612-22.421,71.586Z" transform="translate(-3638.322 -2772.628)"/></g><g transform="translate(-20.202 849.804)"><path class="ah" d="M1622.536,2949.733l8.678,36.481,5.727-35.982,6.351.8-3.956,26.336,8.375-25.782,5.431.681-6.844,46.1,11.542-35.257,4.3,24.331,2.743-33.7,6.363.8v55.106l10.669-53.769,2.592.325-1.658,26.228,5.6-21.387,7.833,54.794-93.491-2.6,5.043-66.638,9.859,1.235,1.335,47.427Z" transform="translate(-1112.77 -2934.063)"/><path class="ai" d="M1545.874,2940l1.611,68.025-14.865-.413,8.94-68.152Z" transform="translate(-1063.141 -2929.025)"/><path class="aj" d="M1943.427,2970.181l1.568-.455,7.094,24.828-1.277-26.518,1.522-.442,13.839,64.107-31.9-.888-1.641-57.905.982.123,3.4-.986,13.341,45.448Z" transform="translate(-1346.041 -2948.921)"/><path class="ak" d="M2015.709,2940.075l13.142,37.064,3.311-41.843,11.242-3.265,16.372,75.586-37.651-1.047-11.418-65.043Z" transform="translate(-1401.26 -2923.77)"/><path class="al" d="M480.812,3010.159l1.628,24.726,4-24.1,13.3,1.471,1.283,11.523,10.033-10.272,5.949.657,10.779-2.223-8.2,16.892,14.593-18.211,8.25-1.7,10.956,8.9,1.916-11.555,5.82-1.2-9.688,42.512-61.717-1.716-11.4,1.5-5.989-38.133Z" transform="translate(-313.264 -2975.419)"/><path class="am" d="M-15.626,2972.612l2.558.283-6.972,31.97,26.86-29.772,7.376.815-25.627,52.271,32.61-51.5,1.444.16-8.1,42.654,22.948-41.013,2.319.256L32.66,3020.4l13.891-40.918,11.411,1.261.225,21.383,3.688-20.95,6.3.7,2.74,30.3L78.378,2983l4.621.511,9.7,38.876-163.678,21.486,27.287-74.367,26.042,2.879-9.449,30.13Z" transform="translate(70.975 -2950.275)"/><path class="an" d="M769.713,2945.817l3.288,4.114-3.909,31.435,7.3-27.193,6.45,8.069,10.6-21.317,5.474-1.129,6.143,19.408-3.388-19.977,4.405-.908,21.028,41.1-16.293-42.08,1.572-.324,21.683,45.514L817.34,2936l7.189-1.482L855.6,2959.8l-12.421-29.136,3.538-.729,25.255,34.742-7.8-38.341,7.672-1.582L899.993,2995l-149.528-4.159,14.106-43.966Z" transform="translate(-509.975 -2918.624)"/><path class="ao" d="M1241.179,2919.507l.223-15.7,3.187.4,14.654,33.465,5.137-30.986,6.535.819-3.05,26.384,5.915-26.025,4.291.538.427,1.123-3.672,46.527,9.056-32.37,8.1,21.305,4.82-34.239,6.53.818-7.044,55.76,9.99-39.156,5.889,54.126-71.569-1.991-14.578-74.046,2.7-.557,28.116,65.123Z" transform="translate(-846.307 -2903.811)"/></g><path class="h" d="M2840.854,1171.43l98.507-2.543,100.756,3.815,147.259-.636,27.126,8.265-98.818-1.907-102.694,5.086-75.567-8.265-87.193,6.994-69.754-11.444Z" transform="translate(-2299.403 -741.933)"/><path class="h" d="M816.091,712.409l-85.255,2.861-79.165-4.292-115.7.715-21.314-9.3,77.643,2.146,80.688-5.722,59.374,9.3,68.509-7.868,54.807,12.875Z" transform="translate(-66.303 -480.563)"/><path class="h" d="M4109.144,780.09l36.815-5.055,75.567-1.685,89.13-4.212,1.937,11.794-65.878-3.37-149.2,10.952Z" transform="translate(-3122.823 -471.295)"/><path class="h" d="M114.916,279.37l67.991,2.037,139.561.679,164.61,1.7,3.578-4.753-121.668,1.358L93.445,275.975Z" transform="translate(-65.511 -195.513)"/></g><g class="d" transform="translate(-74.483 -39.66)"><rect class="e" width="1487.051" height="1005.422" transform="translate(-8.71 -24.459)"/><path class="f" d="M713.052,1155.647,626.075,890.8,593.113,763.043l-120-115.011-18.185-67.789-95.786-8.231-131.966-112.8L74.218,442.043l-98.974-63.759v848.478Z" transform="translate(18.086 -267.87)"/><path class="g" d="M311.134,2473.7l-51.742-86.451-155.225-12.876-47.243-77.254-87.736-22.072v259.351Z" transform="translate(22.368 -1609.321)"/><path class="h" d="M3348.531,667.267l67.991,2.934,139.561.978,164.61,2.445,3.579-6.847L3602.6,668.734l-275.543-6.358Z" transform="translate(-2411.961 -486.438)"/><path class="i" d="M3218.776,341.753l-192.144,5.329L2895.48,416.354l-23.093,95.916L2733.833,629.5,2565.7,876.657l-96.29,173.634,140.646,71.165,608.723-20.369Z" transform="translate(-1745.87 -242.034)"/><g transform="translate(289.409 561.224)"><path class="j" d="M1419.085,2140.495l6.432-6.242-15.351-6.658-3.425,5.75Z" transform="translate(-1283.727 -2066.265)"/><path class="j" d="M1407.539,2163.344l.655-1.24-11.372-9.2-2.708,4.547Z" transform="translate(-1274.797 -2084.162)"/><path class="j" d="M1142.021,2056.66l-41.338,28.656,40.56-29.357-3.076-2.772-64.551,38.128,42.21-34.128,6.364-18.4-37.523,24.27,33.637-27.772,18.664-.621h7.669l-48.8-36.745,25.07,16.611,5.588-10.582-11.06-10.623-3.967,6.66,3.159-7.436-3.861-3.709,4.582,2.013,2.275-5.355-8.029-6.5,8.659,5.016,2.876-6.769-12.333-10.5,1.539-6.342-11.247-4.168,11.766,2.032,5.309-21.869-40.8,30.146,42.438-36.894,2.8-11.538-53.07,44.284-9.391-32.22-5.076,10.929,12.1,41.936L1048.935,1950l-.568,1.223,8.251,28.159-14.333-28.272,1.534,9.905,4.73,18.7-8.82-9.9-3.58,7.707,2.888,6.132-4.136-3.445-7.721,16.621,5.284,7.234,22.711-21.083,2.614,6.239-22.038,19.344-3.48,7.12,33.616-18.694-26.062,17.153,2.134,2.922,12.768-3.776-14.647,7.581-11.146-2.41-5.121,3.313,8.736,8.435,1.1,5.355-3.047,2.6,20.648,16.707-4.372,5.2L1027.52,2040.8l-1.225,1.045L1042.169,2065l-21.609-23.225-1.564,6.3,33.68,39.689-37.99-36.011-12.987,11.083,12.429,11.224,6.7-4.96-4.872,6.608,2.781,2.512,5.211-3.876-3.015,5.859-4.506,9.811,23.71-5.433-3.755,9.574,6.071,5.482,33.3-22.414-29.093,26.213,19.371,17.494,12.448-7.105-.267-10.7,10.826,4.668,4.263-2.433-3.014-10.845,13.2,5.03,52.725-30.1Z" transform="translate(-997.268 -1918.111)"/><path class="j" d="M1445.451,2328.977l-12.562-1.8-6.977,14Z" transform="translate(-1297.286 -2207.418)"/><path class="j" d="M1427.175,2224.005l-4.878,9.623,22.581,13.391Z" transform="translate(-1294.729 -2134.45)"/><path class="j" d="M1403.124,1996.429l-5.915,22.93,8,1.517,4.291-22.736Z" transform="translate(-1276.986 -1973.5)"/><path class="j" d="M1223.609,1937.527l4.469,25.786,33.974-31.606-27.364,8.966Z" transform="translate(-1154.21 -1927.727)"/><path class="j" d="M1038.489,2207.141l-9.947-11.413,9.82,3.125-9.215-10.068,16.937,10.008Z" transform="translate(-1016.252 -2109.541)"/><path class="j" d="M1013.085,2311.412,986.564,2334.8l9.287-18.8Z" transform="translate(-986.564 -2196.266)"/><path class="j" d="M1117.161,2563.666l-7.9,5.029,23.031,25.275,1.372-9.219Z" transform="translate(-1073.339 -2374.669)"/><path class="j" d="M1403.609,2496.135l-28,20.62,7.189,1.614Z" transform="translate(-1261.707 -2326.909)"/><path class="j" d="M1255.741,2666.48h-13.9l2.452-127.517h8.992Z" transform="translate(-1167.107 -2357.198)"/><path class="j" d="M1274.892,2670.332l5.479-2.694.685,2.377-6.849,3.169Z" transform="translate(-1189.995 -2448.202)"/><path class="j" d="M1192.294,2747.82l16.888,2.794-1.632,1.945-16.3-3.779Z" transform="translate(-1131.327 -2504.908)"/><path class="j" d="M1274.407,2817.379l8.219-1.034.343,1.724-9.931,1.724Z" transform="translate(-1189.168 -2553.372)"/><path class="j" d="M1199.745,2756.66l5.385-6,.641.39-5.191,5.948Z" transform="translate(-1137.333 -2506.92)"/></g><g transform="translate(821.684 454.068)"><path class="j" d="M2897.829,1669.531l3.695-2.978,22.16,6.816,5.864-7.923-26.226-15.073,29.081,9.882,12.865-3.29-33.631-16.451,28.474,8.214.363-3.148L2917.7,1628.8l16.179-22.172-1.491-2.6L2896.131,1630l41.947-37.752-11.5,1.659-55.62,33.7,39.551-35.355,4.374-18.726-37.932,24.719,27.182-32.949-6.483-3.536-44.669,29.894,38.364-33.333-11.4-6.217-67.115,47.34,1.249.968,42.5-22.541-35.945,27.621,10.275,7.968,23.273-12.219L2838.059,1619l4.14,3.21-20.973,31.76,4.227,4.732,49.7-47.877-43.42,54.913-3.321,13.4,42.546-33.557-28.918,31.694,3.653,4.089,52.231-40.577-47.711,45.637,11.157,12.49,32.976-26.577-15.6-6.381Z" transform="translate(-2810.439 -1552.098)"/><path class="j" d="M3006.464,1998.23l-35.241,27.646,40.406-24Z" transform="translate(-2922.456 -1867.618)"/><path class="j" d="M3236.98,1769.061l-6.592,8.389,7.79-3Z" transform="translate(-3105.746 -1705.542)"/><path class="j" d="M2810.655,1787.459l6.578,4.29-12.584,14.3Z" transform="translate(-2804.649 -1718.554)"/><path class="j" d="M3024.736,2013.235h-14.382l4.194-182.769h6.592Z" transform="translate(-2950.131 -1748.969)"/><path class="j" d="M3034.917,2132.471l19.631-6.269.912,1.688-19.14,6.416Z" transform="translate(-2967.502 -1958.123)"/><path class="j" d="M3039.527,2282.64l10.358-3.308.481.891-10.1,3.385Z" transform="translate(-2970.762 -2066.423)"/><path class="j" d="M2951.086,2239.988l7.5-2.4.348.645-7.317,2.453Z" transform="translate(-2908.214 -2036.902)"/><path class="j" d="M3074.582,2122.332l5.264-5.861.627.381-5.074,5.814Z" transform="translate(-2995.555 -1951.242)"/><path class="j" d="M2966.737,2227.567l17.937,10.146-.62,1.816-17.71-9.686Z" transform="translate(-2919.005 -2029.812)"/></g><g transform="translate(92.099 479.793)"><g transform="translate(0 0)"><path class="j" d="M2906.392,1681.361l4.067-3.277,24.393,7.5,6.455-8.721-28.868-16.591,32.01,10.877,14.162-3.622-37.019-18.108,31.343,9.041.4-3.466-25.065-18.469,17.809-24.406-1.642-2.861-39.914,28.586,46.173-41.556-12.653,1.826-61.224,37.091,43.535-38.917,4.814-20.613-41.753,27.209,29.921-36.269-7.136-3.893-49.169,32.905,42.229-36.691-12.546-6.844-73.877,52.109,1.375,1.066,46.777-24.812-39.567,30.4,11.31,8.771,25.618-13.45-17.749,19.552,4.557,3.534-23.086,34.959,4.653,5.209,54.712-52.7-47.794,60.445-3.656,14.751L2876.818,1655l-31.832,34.886,4.021,4.5,57.493-44.664-52.518,50.234,12.281,13.748,36.3-29.255-17.169-7.024Z" transform="translate(-2810.198 -1552.098)"/><path class="j" d="M3010.014,1998.23l-38.791,30.431,44.476-26.418Z" transform="translate(-2917.543 -1854.459)"/><path class="j" d="M3237.645,1769.061l-7.256,9.235,8.575-3.3Z" transform="translate(-3093.189 -1699.142)"/><path class="j" d="M2811.26,1787.459l7.241,4.722-13.852,15.741Z" transform="translate(-2804.649 -1711.612)"/></g><path class="j" d="M3026.185,2031.647h-15.83l4.617-201.181h7.256Z" transform="translate(-2944.063 -1740.759)"/><path class="j" d="M3034.917,2133.1l21.608-6.9,1,1.859-21.068,7.062Z" transform="translate(-2960.711 -1941.191)"/><path class="j" d="M3039.527,2282.974l11.4-3.641.53.98-11.116,3.727Z" transform="translate(-2963.835 -2044.973)"/><path class="j" d="M2951.086,2240.229l8.261-2.638.383.71-8.053,2.7Z" transform="translate(-2903.895 -2016.684)"/><path class="j" d="M3074.583,2122.922l5.795-6.451.69.419-5.585,6.4Z" transform="translate(-2987.593 -1934.595)"/><path class="j" d="M2966.777,2227.567l19.744,11.168-.682,2-19.494-10.662Z" transform="translate(-2914.237 -2009.89)"/></g><path class="j" d="M2905.074,1540.172l10.013,4.855-34.61,23.362Z" transform="translate(-2036.594 -1089.595)"/><path class="j" d="M2913.785,1540.172l13.56,6.574-46.866,31.635Z" transform="translate(-2776.606 -1068.706)"/><g transform="translate(1193.381 763.507)"><path class="j" d="M4110.954,2691.4l-2.791-1.8,2.226-13.975-6.1,11.474-6.706,2.023,6.921-18.342-6.1,12.52-6.934-4.478,9.653-22.684-24.976-2.031-1.9-4.918,51.5-4.146-47.3-.053,2.98-2.979,32.215-4.138-28.591.517,10.215-10.209.108-.316,22.556,4.609-21.057-9,3.63-10.627,10.857-3.8-4.416,7.352,12.465,7.954-2.8,2.833,7.722,5.852,1.74-4.437,17.626,11.247-22.076-.035,24.974,4.813.718,3.764-14.088,3,15.8,5.964.308,1.616-.531,5.571-30.505-6.7,25.847,8.834-9.007,13.375-.556.405-12.221-10.962Z" transform="translate(-4074.251 -2609.048)"/><path class="j" d="M4228.27,2861.3l-13.141,9.6-.07-.045,7.847-12.188Z" transform="translate(-4173.834 -2785.585)"/><path class="j" d="M4125.5,2779.573l6.512-.28-3.121,5.865Z" transform="translate(-4110.499 -2729.451)"/><path class="j" d="M4302.7,2813.93l2.32,6.983-10.465,5.592Z" transform="translate(-4230.058 -2753.947)"/></g><g transform="translate(513.295 608.836)"><path class="k" d="M3575.437,2822.957l-4.928,7.232-.111-8.678Z" transform="translate(-3037.823 -2604.638)"/><g transform="translate(0 0)"><rect class="l" width="57.082" height="82.309" transform="translate(89.875 251.205) rotate(180)"/><rect class="l" width="457.576" height="63.509" transform="translate(534.397 250.401) rotate(180)"/><path class="m" d="M2012.568,2799.352l31.742,31.13,231.009,8.194L2224.594,2788Z" transform="translate(-1936.073 -2580.937)"/><path class="n" d="M3017.147,2819.913l36.76,37.64,126.992,1.5v-41.6Z" transform="translate(-2646.545 -2601.771)"/><g transform="translate(307.312 44.321)"><path class="o" d="M2941.926,2239.439l-31.856,47.177h-96.614v-54.488Z" transform="translate(-2809.8 -2232.128)"/><path class="p" d="M2927.952,2241.317l-29.324,49.713h-96.614l-1.044-48.225Z" transform="translate(-2800.969 -2238.626)"/></g><rect class="o" width="101.314" height="11.489" transform="translate(439.438 51.633) rotate(180)"/><g transform="translate(270.233 25.521)"><path class="q" d="M2747.433,2229.174v45.273H2674.32V2167.911h10.715Z" transform="translate(-2674.32 -2167.911)"/><path class="r" d="M2773.318,2167.911v61.263l-62.4-61.263Z" transform="translate(-2700.205 -2167.911)"/></g><rect class="s" width="193.42" height="43.629" transform="translate(513.146 118.442) rotate(180)"/><rect class="o" width="2.751" height="43.629" transform="translate(320.775 118.442) rotate(180)"/><rect class="o" width="2.751" height="43.629" transform="translate(513.146 118.442) rotate(180)"/><path class="t" d="M1802.047,2724.581h14.318v-82.309l-14.318-5.223Z" transform="translate(-1787.186 -2474.18)"/><rect class="l" width="15.665" height="87.531" transform="translate(15.665 251.205) rotate(180)"/><rect class="o" width="87.462" height="90.609" transform="translate(369.527 207.372) rotate(180)"/><path class="k" d="M1990.186,2809.691h219.544l-4.284,5.222H1996.951Z" transform="translate(-1920.244 -2596.278)"/><rect class="r" width="219.543" height="213.413" transform="translate(289.485 213.413) rotate(180)"/><g transform="translate(293.782 121.17)"><rect class="u" width="3.26" height="65.662" transform="translate(0 3.26) rotate(-90)"/><rect class="u" width="3.26" height="65.662" transform="translate(0 9.28) rotate(-90)"/><rect class="u" width="3.26" height="65.662" transform="translate(0 15.299) rotate(-90)"/><rect class="u" width="3.26" height="65.662" transform="translate(0 21.318) rotate(-90)"/><rect class="u" width="3.26" height="65.662" transform="translate(0 27.338) rotate(-90)"/><rect class="u" width="3.26" height="65.662" transform="translate(0 33.357) rotate(-90)"/><rect class="u" width="3.26" height="65.662" transform="translate(0 39.376) rotate(-90)"/><rect class="u" width="3.26" height="65.662" transform="translate(0 45.396) rotate(-90)"/><rect class="u" width="3.26" height="65.662" transform="translate(0 51.415) rotate(-90)"/><rect class="u" width="3.26" height="65.662" transform="translate(0 57.434) rotate(-90)"/><rect class="u" width="3.26" height="65.662" transform="translate(0 63.454) rotate(-90)"/><rect class="u" width="3.26" height="65.662" transform="translate(0 69.473) rotate(-90)"/><rect class="u" width="3.26" height="65.662" transform="translate(0 75.492) rotate(-90)"/><rect class="u" width="3.26" height="65.662" transform="translate(0 81.512) rotate(-90)"/></g><path class="k" d="M3171.247,2809.691H2993.712l6.651,5.222,167.222-.315Z" transform="translate(-2629.971 -2596.278)"/><rect class="r" width="177.535" height="102.722" transform="translate(541.276 213.413) rotate(180)"/><g transform="translate(231.64 35.404)"><rect class="k" width="27.891" height="75.286" transform="translate(27.891 75.286) rotate(180)"/><rect class="o" width="22.345" height="68.218" transform="translate(27.891 75.286) rotate(180)"/><rect class="v" width="19.429" height="65.144" transform="translate(27.891 75.286) rotate(180)"/></g><g transform="translate(495.073 119.212)"><rect class="k" width="27.891" height="75.286" transform="translate(27.891 75.286) rotate(180)"/><rect class="o" width="22.345" height="68.218" transform="translate(27.891 75.286) rotate(180)"/><rect class="w" width="19.429" height="65.144" transform="translate(27.891 75.286) rotate(180)"/></g><g transform="translate(231.64 119.212)"><rect class="k" width="27.891" height="75.286" transform="translate(27.891 75.286) rotate(180)"/><rect class="o" width="22.345" height="68.218" transform="translate(27.891 75.286) rotate(180)"/><rect class="x" width="19.429" height="65.144" transform="translate(27.891 75.286) rotate(180)"/></g><g transform="translate(22.101 168.092)"><rect class="u" width="33.671" height="82.309" transform="translate(33.671 82.309) rotate(180)"/><rect class="o" width="33.671" height="12.583" transform="translate(33.671 82.309) rotate(180)"/><rect class="o" width="33.671" height="3.388" transform="translate(33.671 66.514) rotate(180)"/><rect class="o" width="33.671" height="3.388" transform="translate(33.671 59.915) rotate(180)"/><rect class="o" width="33.671" height="3.388" transform="translate(33.671 53.316) rotate(180)"/><rect class="o" width="33.671" height="3.388" transform="translate(33.671 46.717) rotate(180)"/><rect class="o" width="33.671" height="3.388" transform="translate(33.671 40.118) rotate(180)"/><rect class="o" width="33.671" height="3.388" transform="translate(33.671 33.519) rotate(180)"/><rect class="o" width="33.671" height="3.388" transform="translate(33.671 26.92) rotate(180)"/><rect class="o" width="33.671" height="3.388" transform="translate(33.671 20.321) rotate(180)"/><rect class="o" width="33.671" height="3.388" transform="translate(33.671 13.722) rotate(180)"/><rect class="o" width="33.671" height="3.388" transform="translate(33.671 7.123) rotate(180)"/></g></g></g><g transform="translate(1056.341 499.151)"><g transform="translate(-81.645)"><path class="j" d="M3728.851,1840.2l38.2-33.33-26.292-14.3,38.228-15.041-6.944-4.426-54.472,21.347,43.864-28.108-4.58-2.919-34.27,11.6,20.665-20.271-3.561-2.269-54.08,32.567,48.04-36.417-11.692-7.451.843-15.728-27.791,13.221,28.1-19.037.726-13.551-29.455,11.28-15.041-6.267-3.958,3.028,5.838,8.88-8.453-6.881-6.486,4.96,6.792,11.321-9.691-9.1-14.74,5.768,22.551,39.058-26.63-30.435-7.838,5.994,13.161,26.321-26.321-11.281-5.7,28.568,31.4,7.154-31.46.862-.014,1.773,24.58,2.379-24.654,7.044-9.813,6.743,73.323-14.414-63.592,18.17-.024,3.075,14.108,1.316-14.18,7.829-7.755,7.838,56.4-9.4-48.752,14.785-.013,1.6,43.959-7.912-44.052,22.882,13.162,10.082,28.8-15.114-25.74,17.459,12.58,21.4,66.43-48.255-56.077,44.425,6.482,4.965,34.554-19.935-29.7,23.656,8.388,6.425,93.377-45.749,2.749-18.5-56.645,34.79,58.615-48.045,1.063-7.148Z" transform="translate(-3607.392 -1706.087)"/><path class="j" d="M4054.93,2301.171l-48.882,19.427,47-6.893Z" transform="translate(-3888.976 -2126.951)"/><path class="j" d="M3889.45,2377.5l-37.524,14,8.774,5.64Z" transform="translate(-3779.975 -2180.935)"/><path class="j" d="M3626.08,2281.062l8.212,13.139-28.127-2.258Z" transform="translate(-3606.165 -2112.729)"/><path class="j" d="M4112.772,1983.047l23.149-8.681-13.888,15.626Z" transform="translate(-3964.455 -1895.822)"/><path class="j" d="M4061.894,1838.872l31.679-15.267-5.788-13.311Z" transform="translate(-3928.472 -1779.786)"/><path class="j" d="M4023.818,1707.5v13.311l16.205-2.315Z" transform="translate(-3901.543 -1707.088)"/><path class="j" d="M3882.746,2248.031l-5.209,182.879h16.2l-2.315-195.61Z" transform="translate(-3798.088 -2080.364)"/><path class="j" d="M3918.659,2486.5l10.182-8.145-2.375,5.43-7.806,7.806Z" transform="translate(-3827.171 -2252.261)"/><path class="j" d="M3861.857,2587.321l8.824,1.7-.679,3.734Z" transform="translate(-3786.999 -2329.325)"/><path class="j" d="M3921.317,2661.907l6.109-2.715v3.394l-6.448,3.394Z" transform="translate(-3828.811 -2380.155)"/></g><path class="j" d="M3843.482,2574.706l10.249,5.022-.284,1.024-10.108-4.775Z" transform="translate(-3773.902 -2320.404)"/></g><path class="y" d="M-42.79,2891.428l234.068-32.616,169.929,8.076,197.249-13.3,190.46-14.91,87.339,15.88,218.265,4.251,261.1-32.615,141.12,18.882v154.5H-42.79Z" transform="translate(30.839 -1999.116)"/><g transform="translate(957.1 811.398)"><path class="z" d="M3530.3,2823.108l-6.92,40.1-4.567-39.553-5.065.874,3.155,28.95-6.678-28.341-4.332.748,5.458,50.673-9.2-38.757-3.429,26.746-2.187-37.046-5.074.876v60.574l-8.508-59.105-2.068.357,1.323,28.831-4.469-23.51-6.247,60.232,74.557-2.859-4.022-73.252-7.863,1.358-1.065,52.135Z" transform="translate(-3411.676 -2805.883)"/><path class="aa" d="M3742.906,2812.412l-1.285,74.777,11.855-.455-7.129-74.916Z" transform="translate(-3602.722 -2800.345)"/><path class="ab" d="M3389.882,2845.585l-1.25-.5-5.657,27.292,1.018-29.149-1.214-.486-11.037,70.469,25.442-.976,1.309-63.652-.783.135-2.708-1.084-10.639,49.959Z" transform="translate(-3341.132 -2822.215)"/><path class="ac" d="M3302.331,2812.491l-10.48,40.744-2.641-46-8.965-3.589-13.056,83.088,30.026-1.151,9.106-71.5Z" transform="translate(-3267.188 -2794.568)"/><path class="ad" d="M4449.841,2889.531l-1.3,27.18-3.187-26.5-10.607,1.616-1.023,12.667-8-11.292-4.745.723-8.6-2.443,6.537,18.569-11.637-20.019-6.579-1.87-8.737,9.784-1.529-12.7-4.641-1.32,7.726,46.731,49.218-1.887,9.094,1.646,4.777-41.918Z" transform="translate(-4058.306 -2851.344)"/><path class="ae" d="M4701.489,2848.258l-2.041.311,5.561,35.143-21.421-32.726-5.882.9,20.438,57.459-26.006-56.611-1.151.176,6.459,46.887-18.3-45.083-1.849.281,5.686,45.8-11.078-44.979-9.1,1.386-.179,23.505-2.942-23.03-5.023.765-2.186,33.311-5.951-32.071-3.685.561-7.739,42.734,130.53,23.619-21.761-81.748-20.768,3.164,7.536,33.12Z" transform="translate(-4220.476 -2823.704)"/><path class="af" d="M4102.458,2818.8l-2.623,4.521,3.118,34.555-5.821-29.892-5.143,8.87-8.455-23.433-4.366-1.241-4.9,21.335,2.7-21.959-3.513-1-16.769,45.182,12.993-46.255-1.253-.357-17.292,50.031,13.34-51.154-5.733-1.629-24.782,27.8,9.905-32.027-2.821-.8-20.141,38.19,6.221-42.146-6.118-1.739-22.446,77.219,119.245-4.572-11.249-48.33Z" transform="translate(-3784.439 -2788.911)"/><path class="ag" d="M3848.572,2789.881l-.178-17.253-2.542.439-11.687,36.786-4.1-34.061-5.212.9,2.432,29-4.717-28.608-3.422.591-.341,1.234,2.928,51.145-7.222-35.582-6.462,23.42-3.844-37.636-5.207.9,5.617,61.294-7.967-43.042-4.7,59.5,57.075-2.188,11.625-81.4-2.154-.612-22.421,71.586Z" transform="translate(-3638.322 -2772.628)"/></g><g transform="translate(-20.202 849.804)"><path class="ah" d="M1622.536,2949.733l8.678,36.481,5.727-35.982,6.351.8-3.956,26.336,8.375-25.782,5.431.681-6.844,46.1,11.542-35.257,4.3,24.331,2.743-33.7,6.363.8v55.106l10.669-53.769,2.592.325-1.658,26.228,5.6-21.387,7.833,54.794-93.491-2.6,5.043-66.638,9.859,1.235,1.335,47.427Z" transform="translate(-1112.77 -2934.063)"/><path class="ai" d="M1545.874,2940l1.611,68.025-14.865-.413,8.94-68.152Z" transform="translate(-1063.141 -2929.025)"/><path class="aj" d="M1943.427,2970.181l1.568-.455,7.094,24.828-1.277-26.518,1.522-.442,13.839,64.107-31.9-.888-1.641-57.905.982.123,3.4-.986,13.341,45.448Z" transform="translate(-1346.041 -2948.921)"/><path class="ak" d="M2015.709,2940.075l13.142,37.064,3.311-41.843,11.242-3.265,16.372,75.586-37.651-1.047-11.418-65.043Z" transform="translate(-1401.26 -2923.77)"/><path class="al" d="M480.812,3010.159l1.628,24.726,4-24.1,13.3,1.471,1.283,11.523,10.033-10.272,5.949.657,10.779-2.223-8.2,16.892,14.593-18.211,8.25-1.7,10.956,8.9,1.916-11.555,5.82-1.2-9.688,42.512-61.717-1.716-11.4,1.5-5.989-38.133Z" transform="translate(-313.264 -2975.419)"/><path class="am" d="M-15.626,2972.612l2.558.283-6.972,31.97,26.86-29.772,7.376.815-25.627,52.271,32.61-51.5,1.444.16-8.1,42.654,22.948-41.013,2.319.256L32.66,3020.4l13.891-40.918,11.411,1.261.225,21.383,3.688-20.95,6.3.7,2.74,30.3L78.378,2983l4.621.511,9.7,38.876-163.678,21.486,27.287-74.367,26.042,2.879-9.449,30.13Z" transform="translate(70.975 -2950.275)"/><path class="an" d="M769.713,2945.817l3.288,4.114-3.909,31.435,7.3-27.193,6.45,8.069,10.6-21.317,5.474-1.129,6.143,19.408-3.388-19.977,4.405-.908,21.028,41.1-16.293-42.08,1.572-.324,21.683,45.514L817.34,2936l7.189-1.482L855.6,2959.8l-12.421-29.136,3.538-.729,25.255,34.742-7.8-38.341,7.672-1.582L899.993,2995l-149.528-4.159,14.106-43.966Z" transform="translate(-509.975 -2918.624)"/><path class="ao" d="M1241.179,2919.507l.223-15.7,3.187.4,14.654,33.465,5.137-30.986,6.535.819-3.05,26.384,5.915-26.025,4.291.538.427,1.123-3.672,46.527,9.056-32.37,8.1,21.305,4.82-34.239,6.53.818-7.044,55.76,9.99-39.156,5.889,54.126-71.569-1.991-14.578-74.046,2.7-.557,28.116,65.123Z" transform="translate(-846.307 -2903.811)"/></g><path class="h" d="M2830.854,1171.43l108.507-2.543,100.756,3.815,147.259-.636,27.126,8.265-98.818-1.907-102.694,5.086-75.567-8.265-87.193,6.994-69.754-11.444Z" transform="translate(-1708.338 -827.01)"/><path class="h" d="M816.091,712.409l-85.255,2.861-79.165-4.292-115.7.715-21.314-9.3,77.643,2.146,80.688-5.722,59.374,9.3,68.509-7.868,54.807,12.875Z" transform="translate(-21.575 -424.6)"/><path class="h" d="M4109.144,780.09l36.815-5.055,75.567-1.685,89.13-4.212,1.937,11.794-65.878-3.37-149.2,10.952Z" transform="translate(-3119.213 -514.295)"/><path class="h" d="M114.916,279.37l67.991,2.037,139.561.679,164.61,1.7,3.578-4.753-121.668,1.358L93.445,275.975Z" transform="translate(-65.511 -195.513)"/></g></g></g><rect class="ap" width="375" height="1590" transform="translate(511 1143)"/></g></svg>