<svg xmlns="http://www.w3.org/2000/svg" width="967.26" height="99.969" viewBox="0 0 967.26 99.969"><defs><style>.a{fill:#fff;opacity:0.04;}</style></defs><path class="a" d="M-369.914-98.982V0h-24.111V-59.361L-416.161,0H-435.62L-457.9-59.5V0h-24.111V-98.982h28.482l27.777,68.526,27.495-68.526Zm130.425,0-34.263,66.27V0h-24.111V-32.712l-34.263-66.27h27.354L-285.6-57.528l19.035-41.454Zm123.657,0V0h-24.111V-40.749h-37.506V0H-201.56V-98.982h24.111v38.775h37.506V-98.982Zm69.231,0v59.22q0,8.883,4.371,13.677T-29.4-21.291q8.46,0,12.972-4.794t4.512-13.677v-59.22H12.2V-39.9q0,13.254-5.64,22.419A36.114,36.114,0,0,1-8.6-3.666,47.668,47.668,0,0,1-29.822.987,46.48,46.48,0,0,1-50.76-3.6,34.163,34.163,0,0,1-65.354-17.413q-5.358-9.236-5.358-22.49V-98.982ZM145.865,0H121.754L81.427-61.053V0H57.316V-98.982H81.427l40.326,61.335V-98.982h24.111ZM262.753-98.982v19.317H236.527V0H212.416V-79.665H186.19V-98.982ZM327.19-79.665v20.022h32.289v18.612H327.19v21.714H363.71V0h-60.63V-98.982h60.63v19.317ZM458.039,0,437.453-37.365h-5.781V0H407.561V-98.982h40.467q11.7,0,19.951,4.089a28.166,28.166,0,0,1,12.338,11.21,31.28,31.28,0,0,1,4.089,15.862A29.462,29.462,0,0,1,478.836-50.2q-5.57,7.755-16.427,11L485.252,0ZM431.672-54.426h14.946q6.627,0,9.94-3.243t3.314-9.165q0-5.64-3.314-8.883t-9.94-3.243H431.672Z" transform="translate(482.009 98.982)"/></svg>