<svg xmlns="http://www.w3.org/2000/svg" xmlns:xlink="http://www.w3.org/1999/xlink" width="469" height="411" viewBox="0 0 469 411"><defs><style>.a{fill:#f2f7fb;}.b{clip-path:url(#c);}.c{opacity:0.2;}.d{fill:#eb6874;opacity:0.5;}.e{filter:url(#a);}</style><filter id="a" x="-75" y="-35" width="619" height="561" filterUnits="userSpaceOnUse"><feOffset dy="40" input="SourceAlpha"/><feGaussianBlur stdDeviation="25" result="b"/><feFlood flood-color="#aaa" flood-opacity="0.251"/><feComposite operator="in" in2="b"/><feComposite in="SourceGraphic"/></filter><clipPath id="c"><g class="e" transform="matrix(1, 0, 0, 1, 0, 0)"><rect class="a" width="469" height="411" rx="20" transform="translate(144 3992)"/></g></clipPath></defs><g class="b" transform="translate(-144 -3992)"><g class="c" transform="translate(0.461 3972.862)"><path class="d" d="M0,165.892H100.339c-1.715,73.128-22.456,81.429-48.506,83.8l-10.046,1.245v80.411l11.579-.621c34.017-1.914,71.625-8.046,96.716-39.021,21.995-27.153,31.691-71.515,31.691-139.613V25.9H0Z" transform="translate(0 -25.905)"/><path class="d" d="M111,25.9V165.892h99c-1.716,73.128-21.786,81.429-47.836,83.8l-9.377,1.245v80.411l10.911-.621c34.017-1.914,71.961-8.046,97.052-39.021,21.993-27.153,32.024-71.515,32.024-139.613V25.9Z" transform="translate(95.859 -25.905)"/></g></g></svg>