<svg xmlns="http://www.w3.org/2000/svg" width="242.066" height="130.142" viewBox="0 0 242.066 130.142"><defs><style>.a,.x{fill:#0b3f42;}.a,.w{opacity:0.46;}.b{fill:#061832;}.c{fill:rgba(15,42,82,0.62);opacity:0.56;}.d{fill:#111;}.e{fill:#070208;}.f{fill:#530905;}.g{fill:#72120c;}.h{fill:#f28b0f;}.i{fill:#f3f5f4;}.j{fill:#b6cec4;}.k{fill:#fff;}.l{opacity:0.55;}.am,.m{fill:#fed45c;}.n{fill:#d3e0db;}.o{fill:none;stroke:#000;stroke-miterlimit:10;stroke-width:4px;}.p{fill:#ffc83e;}.q{fill:#d6630d;}.r{opacity:0.51;}.s{opacity:0.33;}.t{opacity:0.54;}.u{opacity:0.32;}.v{fill:#296f7a;}.y{fill:#062828;}.z{opacity:0.85;}.aa{fill:#524e53;}.ab{fill:#9ab5a9;}.ac{opacity:0.3;}.ad{opacity:0.26;}.ae{fill:#fcdccd;}.af{opacity:0.82;}.ag{fill:#f2ad94;}.ah{fill:#282828;}.ai{opacity:0.63;}.aj{fill:#ea9378;}.ak{fill:#f98262;}.al{opacity:0.47;}.am{stroke:#fed45c;stroke-width:2px;}</style></defs><g transform="translate(0 1.036)"><g transform="translate(0 0)"><path class="a" d="M3657.582,1950.279q-.062.456-.159.906c-.4.686-.811,1.349-1.242,1.958Z" transform="translate(-3457.954 -1872.424)"/><g transform="translate(0 0)"><g transform="translate(7.348 106.272)"><path class="b" d="M1123.424,2422.077q15.908-.087,31.8-.9c9.5-.489,18.878.464,27.93-2.807,12.193-4.407-4.109-7.91-9.444-7.889-13.162.052-26.533-1.294-39.678-1.934-5.466-.266-11.056-.557-16.1-2.431-5.884-2.185-10.519-5.187-16.907-6.123a117.857,117.857,0,0,0-16.345-.737q-20.192-.11-40.332,1.528c-18.111,1.477-36.079,4.012-54.14,5.871-6.6.679-13.205,1.276-19.83,1.7-5.4.343-11.98-.846-16.361,2.614-7.1,5.608,20.752,8.2,24.13,8.1,24.241-.745,48.465-.317,72.684,0C1074.971,2419.387,1099.123,2422.21,1123.424,2422.077Z" transform="translate(-952.86 -2399.248)"/></g><g transform="translate(0 0)"><path class="c" d="M746.32,764.163c.069,14.662-5.879,30.122-14.816,41.56q-1.711,2.189-3.561,4.172-.478.511-.965,1a38.82,38.82,0,0,1-13.386,8.644,62.621,62.621,0,0,1-12.288,3.311c-5.177.905-10.522,1.393-15.857,1.918-17.043,1.677-34.16,2.415-51.267,3.081-20.538.8-41.035,1.892-61.538,2.887q-6.018.292-12.038.57a37.972,37.972,0,0,1-19.1-4.063,27.974,27.974,0,0,1-8.672-6.939q-.4-.483-.77-.982a31.758,31.758,0,0,1-4.243-7.926,47.013,47.013,0,0,1-1.981-6.992c-.344-1.663-.613-3.336-.829-5-.178-1.377-.318-2.747-.432-4.1q-.109-1.3-.172-2.6-.088-1.782-.09-3.566a75.184,75.184,0,0,1,3.816-23.741,58.179,58.179,0,0,1,10.849-19.268c11.637-13.711,28.888-21.6,46.332-24.747,8.772-1.582,17.288-1.314,26.009-.7,2.176.153,4.365.328,6.574.5q18.878,1.476,37.673,3.831c18.9,2.368,38.048-1.554,57.017.958,16.135,2.137,29.7,12.714,32.871,29.1A49.1,49.1,0,0,1,746.32,764.163Z" transform="translate(-524.311 -720.201)"/></g><g transform="translate(23.409 29.078)"><g transform="translate(141.039 48.744)"><path class="d" d="M3122.958,1951.531a2.105,2.105,0,0,1,.442-.724c1.692-1.712,2.078,3.236,2.249,4.434a35.583,35.583,0,0,1,.281,5.741c-.019.92-.815,4.909-.318,5.575-1.649-2.207-1.944-6.463-2.594-9.121-.479-1.962-1.065-5.767.646-7.295a1.312,1.312,0,0,1,1.468-.26,1.768,1.768,0,0,1,.7,1.152c.815,3.121.007,6.433.338,9.642.241,2.338,1.082,4.724.417,6.979a1.668,1.668,0,0,1-.644-1.332Z" transform="translate(-3122.52 -1949.753)"/></g><g transform="translate(112.838 46.375)"><path class="e" d="M2676.954,1917.1s3.341.838,6.682,6.774c0,0,.562-11.556-2.749-11.556C2680.888,1912.322,2678.3,1912.159,2676.954,1917.1Z" transform="translate(-2676.954 -1912.321)"/></g><g transform="translate(0.412 44.985)"><g transform="translate(50.702 11.46)"><ellipse class="f" cx="10.179" cy="13.969" rx="10.179" ry="13.969"/><g transform="translate(9.615 2.697)"><path class="f" d="M1864.089,2125.266c0,6.2-2.337,11.224-5.219,11.224s-5.219-5.025-5.219-11.224,2.337-11.225,5.219-11.225S1864.089,2119.067,1864.089,2125.266Z" transform="translate(-1853.65 -2114.041)"/></g></g><g transform="translate(128.067)"><path class="g" d="M2939.958,1911.236c0,11.525-3.556,20.868-7.942,20.868s-7.942-9.343-7.942-20.868,3.555-20.867,7.942-20.867S2939.958,1899.712,2939.958,1911.236Z" transform="translate(-2924.074 -1890.369)"/><g transform="translate(8.141 7.351)"><path class="h" d="M3058.958,2020.469c0,7.71-1.4,13.961-3.128,13.961s-3.127-6.25-3.127-13.961,1.4-13.961,3.127-13.961S3058.958,2012.759,3058.958,2020.469Z" transform="translate(-3052.703 -2006.508)"/></g><g transform="translate(10.004 12.413)"><path class="i" d="M3086.325,2095.853c0,5.169-.939,9.36-2.1,9.36s-2.1-4.19-2.1-9.36.939-9.36,2.1-9.36S3086.325,2090.683,3086.325,2095.853Z" transform="translate(-3082.131 -2086.493)"/></g></g><g transform="translate(0 5.35)"><path class="f" d="M929.654,1994.771a27.26,27.26,0,0,1-.223,3.494,25.442,25.442,0,0,1-.965,4.4v0a20.35,20.35,0,0,1-4.423,7.815,12.187,12.187,0,0,1-8.877,4.169c-7.531,0-13.719-7.886-14.42-17.968h0q-.065-.944-.066-1.911c0-.331.006-.661.019-.988.374-10.521,6.709-18.893,14.468-18.893a10.765,10.765,0,0,1,1.871.164l.229.043a11.225,11.225,0,0,1,1.854.542q.323.126.64.272C925.51,1978.546,929.654,1985.995,929.654,1994.771Z" transform="translate(-900.68 -1974.89)"/><g transform="translate(9.24 3.868)"><path class="g" d="M1064.1,2052.839c0,9.3-3.9,16.841-8.712,16.841s-8.712-7.54-8.712-16.841,3.9-16.841,8.712-16.841S1064.1,2043.538,1064.1,2052.839Z" transform="translate(-1046.673 -2035.998)"/></g><g transform="translate(14.482 10.304)"><path class="j" d="M1139.611,2149.1c0,6.3-2.266,11.41-5.06,11.41s-5.061-5.109-5.061-11.41,2.266-11.41,5.061-11.41S1139.611,2142.8,1139.611,2149.1Z" transform="translate(-1129.49 -2137.69)"/></g></g><g transform="translate(95.373 5.085)"><path class="g" d="M2433.924,1990.59a29.851,29.851,0,0,1-.167,3.161c-.034.332-.072.638-.111.914q-.125.9-.3,1.77a21.646,21.646,0,0,1-4.851,10.229,10.557,10.557,0,0,1-7.769,3.805c-5.525,0-10.258-5.112-12.226-12.367a28.8,28.8,0,0,1-.975-7.512,27.263,27.263,0,0,1,2.314-11.245c2.379-5.216,6.368-8.636,10.887-8.636a8.956,8.956,0,0,1,2.185.271,9.624,9.624,0,0,1,1.724.615c.094.044.189.089.282.137a12.227,12.227,0,0,1,3.265,2.45,17.6,17.6,0,0,1,2.88,4.041q.2.38.389.775l0,.008A27.109,27.109,0,0,1,2433.924,1990.59Z" transform="translate(-2407.522 -1970.709)"/><g transform="translate(11.586 5.649)"><path class="h" d="M2603.372,2074.095c0,7.8-2.865,14.132-6.4,14.132s-6.4-6.327-6.4-14.132,2.865-14.132,6.4-14.132S2603.372,2066.29,2603.372,2074.095Z" transform="translate(-2590.574 -2059.963)"/></g><g transform="translate(13.375 8.498)"><path class="i" d="M2629.026,2116.229c0,6.213-2.281,11.25-5.094,11.25s-5.094-5.037-5.094-11.25,2.281-11.249,5.094-11.249S2629.026,2110.017,2629.026,2116.229Z" transform="translate(-2618.838 -2104.98)"/></g></g></g><g transform="translate(35.199 10.073)"><g transform="translate(0.081 0.098)"><path class="k" d="M1451.586,1340.983q.4-.336.8-.664C1452.121,1340.538,1451.854,1340.759,1451.586,1340.983Z" transform="translate(-1451.586 -1340.319)"/></g><path d="M1450.465,1339.635l-.162-.194q.4-.337.8-.665l.161.2-.228.189Z" transform="translate(-1450.302 -1338.776)"/></g><g transform="translate(39.157 6.806)"><g transform="translate(0.078 0.101)"><path class="k" d="M1514.063,1289.463c.314-.246.623-.486.925-.716Q1514.535,1289.094,1514.063,1289.463Z" transform="translate(-1514.063 -1288.747)"/></g><path d="M1512.985,1288.074l-.156-.2h0c.358-.28.652-.508.926-.717h0l.154.2C1513.635,1287.568,1513.341,1287.8,1512.985,1288.074Z" transform="translate(-1512.829 -1287.157)"/></g><g transform="translate(40.083 6.107)"><g transform="translate(0.077 0.102)"><path class="k" d="M1528.676,1278.416q.474-.363.924-.7Q1529.15,1278.054,1528.676,1278.416Z" transform="translate(-1528.676 -1277.718)"/></g><path d="M1527.614,1277.014l-.154-.2c.333-.255.636-.484.925-.7l.151.2C1528.253,1276.529,1527.951,1276.757,1527.614,1277.014Z" transform="translate(-1527.46 -1276.114)"/></g><g transform="translate(41.27 5.372)"><g transform="translate(0.075 0.103)"><path class="k" d="M1547.4,1266.678q.382-.283.745-.54Q1547.779,1266.4,1547.4,1266.678Z" transform="translate(-1547.396 -1266.138)"/></g><path d="M1546.357,1265.253l-.15-.2c.24-.178.485-.355.747-.542l.147.206C1546.878,1264.874,1546.634,1265.05,1546.357,1265.253Z" transform="translate(-1546.207 -1264.508)"/></g><g transform="translate(42.197 4.432)"><g transform="translate(0.073 0.106)"><path class="k" d="M1562.009,1252.142c.417-.3.814-.567,1.188-.81C1562.823,1251.575,1562.427,1251.847,1562.009,1252.142Z" transform="translate(-1562.009 -1251.332)"/></g><path d="M1561,1250.674l-.146-.207c.429-.3.83-.578,1.192-.812l.138.212C1561.831,1250.1,1561.444,1250.36,1561,1250.674Z" transform="translate(-1560.852 -1249.655)"/></g><g transform="translate(43.387 4.228)"><g transform="translate(0.07 0.108)"><path class="k" d="M1580.772,1248.337c.106-.071.211-.139.314-.2C1580.983,1248.2,1580.878,1248.267,1580.772,1248.337Z" transform="translate(-1580.772 -1248.134)"/></g><path d="M1579.8,1246.849l-.14-.211c.123-.082.224-.147.318-.2l.134.215Q1579.963,1246.745,1579.8,1246.849Z" transform="translate(-1579.665 -1246.433)"/></g><g transform="translate(133.821 19.852)"><g transform="translate(0.119 0.044)"><path class="k" d="M3010.494,1494.4q-.075-.211-.154-.418Q3010.419,1494.192,3010.494,1494.4Z" transform="translate(-3010.34 -1493.984)"/></g><path d="M3008.62,1493.788q-.043-.12-.087-.239l-.066-.178.237-.089h0l.067.18c.029.079.059.159.087.239h0Z" transform="translate(-3008.467 -1493.283)"/></g><g transform="translate(133.728 19.605)"><g transform="translate(0.118 0.045)"><path class="k" d="M3008.957,1490.338l-.093-.246Z" transform="translate(-3008.864 -1490.092)"/></g><path d="M3007.09,1489.711l-.051-.133-.043-.112h0l.236-.091h0l.043.114.05.133Z" transform="translate(-3006.996 -1489.375)"/></g><g transform="translate(133.663 19.437)"><g transform="translate(0.118 0.046)"><path class="k" d="M3007.905,1487.608c-.021-.056-.043-.112-.065-.168Z" transform="translate(-3007.84 -1487.44)"/></g><path d="M3006.041,1486.973l-.036-.094-.028-.073s0,0,0,0l.236-.092h0l.028.073.037.095h0Z" transform="translate(-3005.976 -1486.714)"/></g><g transform="translate(128.553 10.18)"><g transform="translate(0.1 0.078)"><path class="k" d="M2930.614,1347.911c.461.932.916,1.944,1.331,3.01a40.986,40.986,0,0,0-4.956-9c-.058-.076-.115-.151-.172-.225.058.074.116.149.174.225A40.407,40.407,0,0,1,2930.614,1347.911Z" transform="translate(-2926.816 -1341.697)"/></g><path d="M2930.346,1349.819a41.215,41.215,0,0,0-4.939-8.968l-.022-.03-.149-.195.2-.155.019.025c.052.066.1.134.155.2a40.907,40.907,0,0,1,3.636,6.009h0c.5,1,.946,2.02,1.336,3.021Z" transform="translate(-2925.237 -1340.471)"/></g><g transform="translate(108.908 0.009)"><g transform="translate(0.691 0.127)"><path class="k" d="M2625.779,1181.778c.019,0,.075-.005.164-.008-.1.005-.156.01-.156.01Z" transform="translate(-2625.779 -1181.77)"/></g><path d="M2615.548,1180.035l-.016-.005-.017,0-.651-.216.7-.032c.029,0,.078,0,.147-.007l.01.253-.152.009Z" transform="translate(-2614.864 -1179.771)"/></g><g transform="translate(110.974 0.022)"><g transform="translate(0.002 0.126)"><path class="k" d="M2647.532,1181.966h0Z" transform="translate(-2647.532 -1181.966)"/></g><path d="M2647.508,1180.223h-.007l.009-.253h.006Z" transform="translate(-2647.501 -1179.969)"/></g><g transform="translate(109.757 0)"><g transform="translate(0.006 0.127)"><path class="k" d="M2629.583,1181.647c-.58-.031-1-.022-1.213-.013C2628.58,1181.625,2629,1181.616,2629.583,1181.647Z" transform="translate(-2628.37 -1181.626)"/></g><path d="M2629.492,1179.9h0c-.583-.031-1-.021-1.2-.012l-.011-.253c.2-.009.627-.02,1.225.012Z" transform="translate(-2628.28 -1179.626)"/></g><g transform="translate(110.98 0.022)"><g transform="translate(0.007 0.126)"><path class="k" d="M2647.705,1181.976l.153.009Z" transform="translate(-2647.705 -1181.976)"/></g><path d="M2647.75,1180.241h0l-.149-.009h0l.013-.253h0l.152.009h0Z" transform="translate(-2647.598 -1179.979)"/></g><g class="l" transform="translate(91.482 50.341)"><path class="f" d="M2364.8,2010.676a10.557,10.557,0,0,1-7.769,3.805c-5.525,0-10.258-5.112-12.226-12.367-1.614.047-3.381.1-5.278.146.361-6.806,2.3-13.668,6.617-18.9.039-.049.079-.1.12-.145,3.3-3.938,8-7.269,12.953-8.219a9.625,9.625,0,0,1,1.724.615c.094.044.189.089.282.137a12.225,12.225,0,0,1,3.265,2.45c-.01.034-.021.068-.031.1q-.408,1.341-.749,2.7-.3,1.185-.544,2.382a56.924,56.924,0,0,0-.441,20.558c.09.554.19,1.111.308,1.665a23.107,23.107,0,0,0,.639,2.427A14.74,14.74,0,0,0,2364.8,2010.676Z" transform="translate(-2339.531 -1974.992)"/></g><g transform="translate(0 0.069)"><path class="m" d="M1040.033,1245.018a9.473,9.473,0,0,1-1.547,3.752s.061-1.177.116-2.938c.015-.49.029-1.025.042-1.592.121-5.605.042-14.384-1.662-14.089a.749.749,0,0,0-.308.141,5.6,5.6,0,0,0-.7.875s0,0,0,0q-.12.176-.251.389c-.15.244-.309.525-.471.847s-.331.687-.494,1.094h0a21.544,21.544,0,0,0-1.4,6.581c-.01.142-.019.287-.027.432v.006c-.043.781-.058,1.613-.039,2.5a33.371,33.371,0,0,1-.223,3.976c-.075.637-.173,1.309-.3,1.984-.022.116-.046.232-.07.348h0c-.028.131-.057.261-.087.392a12.715,12.715,0,0,1-1.124,3.164q-.159.293-.338.559a5.43,5.43,0,0,1-.4.53,3.379,3.379,0,0,1-1.922,1.17l-5.366.537h0l-7.679.77-.033,0a15.679,15.679,0,0,0,.32-1.668l.015-.1c.039-.277.077-.582.111-.915.008-.084.017-.168.025-.256,0-.02,0-.039.006-.059.013-.13.022-.263.033-.394a29.72,29.72,0,0,0-2.37-14.035s0-.006,0-.009c-.062-.142-.125-.284-.189-.427,0,0,0-.006,0-.02v0c0-.074-.008-.308-.023-.66-.093-2.221-.531-9.164-2.386-10.471l-.032-.022a1.1,1.1,0,0,0-.408-.172c-.609-.12-1.349.315-2.246,1.57a9.139,9.139,0,0,0-.831,1.869c-.007.018-.014.035-.021.052-.124.306-.258.646-.4,1.018-.02.053-.041.106-.059.16h0c-.109.29-.222.6-.335.926q-.122.345-.246.718c-.37,1.106-.756,2.385-1.12,3.809h0c-.25.977-.49,2.024-.706,3.131q-.134.686-.255,1.4-.152.9-.28,1.839v0c-.024.182-.049.366-.07.551a51.836,51.836,0,0,0-.4,6.736q0,.628.025,1.264c0,.113.008.225.012.337l-.027.089c-.011.047-.026.111-.047.192-.056.213-.149.536-.278.923v0c-.037.109-.075.225-.117.344l-.01.032a14.113,14.113,0,0,1-.622,1.489,10.109,10.109,0,0,1-.608,1.079h0a6.275,6.275,0,0,1-.812,1.018s-4,.141-10.462.327l-.613.018h-.056l-.269.007-.62.018-.975.027-.332.01-.191.005-.715.019h-.032l-.077,0-1.372.036h-.039l-1.479.039-.108,0-.656.016c-5.678.146-12.335.292-19.42.408h-.066c-2.47.041-4.989.076-7.538.107-3.081.037-6.206.064-9.33.082-8.5.049-17,.017-24.674-.151h0q-.966-.021-1.912-.046-1.019-.025-2.015-.055h0q-1.653-.048-3.238-.108c-1.913-.069-3.747-.151-5.484-.246-1.878-.1-3.642-.218-5.272-.351q-1.313-.107-2.506-.227c-.324-.033-.642-.066-.952-.1q-.393-.043-.77-.088h0c-.378-.044-.744-.091-1.1-.14h0c-.938-.127-1.789-.265-2.544-.409a20.278,20.278,0,0,1-1.922-4.215h0c-.067-.213-.127-.428-.182-.645a8.137,8.137,0,0,1-.294-2.243c0-.107.008-.212.018-.315,0,0,.063-18.092,4.631-25.444a15.385,15.385,0,0,1,.384-3.479.008.008,0,0,1,0,0,15.9,15.9,0,0,1,1.07-3.243l.014-.029a13.156,13.156,0,0,1,1.877-2.986c.057-.068.115-.135.174-.2.027-.031.054-.063.084-.094s.038-.044.058-.065c.049-.053.1-.106.147-.158a.2.2,0,0,1,.018-.02.221.221,0,0,1,.023-.024c.032-.035.067-.07.1-.1a.6.6,0,0,1,.045-.047l.075-.074c.033-.035.066-.067.1-.1.06-.058.12-.115.18-.172.036-.033.072-.067.109-.1l.077-.07.065-.057q.144-.127.293-.251c.017-.014.033-.026.049-.041l.109-.089c.092-.075.185-.147.281-.218l.12-.09.059-.043c.02-.013.039-.027.059-.042l.089-.062.03-.02.027-.018.008-.007c.053-.037.106-.073.16-.109l.132-.087,0,0,.17-.108.042-.026.108-.066.055-.034.113-.068.038-.022.092-.053.011-.006.081-.046.031-.018.154-.086.048-.025.036-.018.019-.01c.089-.047.179-.093.271-.139l.12-.06c.113-.055.227-.109.343-.161l.133-.059.021-.009c.075-.034.149-.065.225-.1l.142-.059.018-.007.235-.092h0l.246-.09c.166-.061.336-.119.509-.173.086-.028.172-.055.26-.081l.5-.469.372-.349.22-.208q.078-.071.161-.15l.17-.159c.643-.6,1.484-1.387,2.474-2.3.489-.453,1.015-.939,1.571-1.452l.092-.084c.081-.075.165-.151.249-.23l0,0c.109-.1.219-.2.332-.3.658-.607,1.355-1.246,2.08-1.906.072-.065.145-.13.217-.2l.479-.435c.21-.192.425-.384.641-.581q1.043-.946,2.138-1.928l.435-.388q.239-.216.481-.43l.473-.424,1.308-1.158.389-.344q.732-.644,1.467-1.286l.208-.181c.093-.083.187-.164.282-.245l.205-.178q.415-.362.831-.72l.373-.321c.75-.646,1.5-1.281,2.23-1.9l.238-.2.474-.4.171-.143.135-.112.037-.03c.01-.008.02-.016.029-.025l.028-.023h0l.067-.055.052-.044.277-.23c.547-.454,1.087-.9,1.614-1.32l.339-.271.22-.178.22-.174c.258-.205.513-.407.765-.605l.067-.051.065-.051c.034-.027.069-.052.1-.08h0l.394-.305.069-.054.087-.067.027-.021.112-.087.236-.179.233-.176h0c.154-.117.306-.232.456-.343l.069-.051.192-.142.19-.139.188-.137.184-.133h0l.026-.018.156-.112.18-.127.156-.11.09-.063c.022-.014.043-.029.064-.044l.075-.052.075-.053.15-.1q.111-.077.22-.15l.073-.048.057-.038c.028-.02.057-.039.085-.058l.141-.092.044-.028.019-.013.034-.021.094-.06.027-.017.1-.063a9.156,9.156,0,0,1,2.426-1.208s7.348-.924,19.08-1.756c6.634-.471,14.67-.913,23.572-1.141l.377-.01q1.132-.029,2.282-.052,1.083-.021,2.182-.039.787-.013,1.581-.022l.33,0q1.672-.02,3.374-.029c.253,0,.506,0,.76,0,2.919-.011,5.9.007,8.927.057l.768.013.161,0,.006,0h.015l.064-.005h.008l.018,0h.028l.032,0,.085,0,.1,0h.059a.042.042,0,0,1,.018,0c.123,0,.272,0,.446,0l.173,0h.077l.142.006.055,0,.057,0h0l.044,0h.022l.069,0a23.243,23.243,0,0,1,14.179,6.428c.189.175.379.354.567.54a30.657,30.657,0,0,1,2.794,3.134l.044.056.043.056.043.056a.264.264,0,0,1,.019.027l.023.03.02.025.015.02.018.025.029.039.021.027.029.041.025.032,0,0,.021.029a.016.016,0,0,1,0,.006,54.387,54.387,0,0,1,4.388,6.927,73.568,73.568,0,0,1,3.177,6.762c.05.121.1.243.15.365h0q.2.495.4.993c.065.165.13.331.194.5.005.013.01.024.014.037l.121.313c.02.051.039.1.058.153.081.209.16.42.239.629.062.167.124.333.185.5q.255.691.5,1.385.157.441.311.885.111.315.219.633c.013.035.025.07.036.105.03.086.059.173.089.259q.177.522.351,1.044c.07.208.139.416.208.625h0c.61,1.857,1.191,3.724,1.761,5.588q.113.367.225.735c.786,2.581,1.556,5.155,2.359,7.7C1038.163,1227.509,1041.475,1237.991,1040.033,1245.018Z" transform="translate(-894.169 -1180.72)"/></g><g transform="translate(134.862 23.248)"><g transform="translate(0.123 0.03)"><path class="k" d="M3026.858,1547.407c.174.722.318,1.456.42,2.2C3027.175,1548.863,3027.032,1548.129,3026.858,1547.407Z" transform="translate(-3026.858 -1547.407)"/></g><path d="M3025.333,1549.181c-.1-.708-.24-1.443-.418-2.184l.246-.059c.181.749.323,1.492.423,2.208h0Z" transform="translate(-3024.914 -1546.937)"/></g><g transform="translate(135.28 25.455)"><g transform="translate(0.125 0.02)"><path class="k" d="M3033.534,1582.342c-.01-.079-.021-.158-.031-.237.011.073.021.145.031.217A.167.167,0,0,1,3033.534,1582.342Z" transform="translate(-3033.503 -1582.105)"/></g><path d="M3031.553,1582.067c-.007-.053-.014-.106-.021-.159l-.01-.076.251-.036c.011.073.021.146.031.219a.31.31,0,0,1,0,.037Z" transform="translate(-3031.521 -1581.795)"/></g><g transform="translate(15.523 20.401)"><path class="f" d="M1147.636,1502.229l-4.166,3.9-1.448,1.293-1.01.9-1.59-.532.4-2.115a7.955,7.955,0,0,1,2.927-2.961A6.279,6.279,0,0,1,1147.636,1502.229Z" transform="translate(-1139.423 -1501.945)"/></g><g transform="translate(112.089 1.687)"><path class="g" d="M2675.356,1209.474s-10.435-7.719-10.237.828c0,0,1.838,22.218,5.482,25.8,0,0,15.464-3.035,17.733-5.548C2689.153,1229.643,2682.02,1213.282,2675.356,1209.474Z" transform="translate(-2665.117 -1206.276)"/></g><g transform="translate(113.716 4.068)"><path class="n" d="M2703.709,1263.726s-.5.316-1.27.711c-1.817.934-5.134,2.305-6.879.979a2.886,2.886,0,0,1-.566-.6,11.554,11.554,0,0,1-1.31-2.657c0-.009-.006-.017-.009-.026-.016-.042-.032-.086-.048-.129-.312-.848-.6-1.782-.868-2.728-.216-.77-.415-1.548-.595-2.3-.239-.991-.444-1.932-.609-2.732-.146-.709-.26-1.309-.34-1.737-.083-.448-.128-.707-.128-.707a22.331,22.331,0,0,1-.24-2.359c-.1-2.12.078-4.964,1.731-5.393a7.132,7.132,0,0,1,2.085-.105.635.635,0,0,1,.4.2c.491.694,1.007,1.467,1.535,2.317q.39.628.79,1.313c.4.687.8,1.416,1.206,2.183q.663,1.263,1.309,2.665l0,.009c.738,1.607,1.448,3.345,2.1,5.2.036.105.073.21.109.316A57.765,57.765,0,0,1,2703.709,1263.726Z" transform="translate(-2690.823 -1243.893)"/></g><g transform="translate(120.334 5.823)"><path class="n" d="M2807.246,1287.624s-1.962.742-3.4,1.114l-.148.037c-.64.157-1.15.229-1.292.107a33.648,33.648,0,0,1-1.51-4.073c-.138-.4-.286-.822-.439-1.256-.026-.073-.052-.147-.078-.221l-.226-.636c-.314-.881-.653-1.8-1.007-2.724-.219-.572-.445-1.144-.676-1.706a31.2,31.2,0,0,0-2.822-5.616,1.832,1.832,0,0,1-.268-.64c-.029-.244.084-.444.6-.354l.039.022a22.955,22.955,0,0,1,4.746,3.863c.287.3.578.616.869.951.183.21.365.426.548.65q.4.486.789,1.018l0,.008a24.99,24.99,0,0,1,1.939,3.082q.408.765.777,1.595.4.895.735,1.864A24.6,24.6,0,0,1,2807.246,1287.624Z" transform="translate(-2795.379 -1271.634)"/></g><g transform="translate(25.903 2.549)"><path class="g" d="M1325.194,1221.707c2.579-.513,44.049-2.672,60.867-1.431.684.05,1.076.85,1.091,1.545.092,4.325.162,20.69-3.364,19.328,0,0-61.628-.3-78.653.285a1.686,1.686,0,0,1-1.237-2.866c4.886-5,14.618-14.393,21.018-16.783A1.72,1.72,0,0,1,1325.194,1221.707Z" transform="translate(-1303.416 -1219.897)"/></g><g transform="translate(67.492 21.919)"><path class="n" d="M1960.5,1525.936l4.9.007C1963.956,1526.015,1961.65,1526.414,1960.5,1525.936Z" transform="translate(-1960.501 -1525.936)"/></g><g transform="translate(72.389 21.915)"><path class="n" d="M2048,1525.884c3.071,0,5.965.01,8.577.017l.094.015-18.793-.027c.136-.007.265-.011.384-.011Q2043.132,1525.877,2048,1525.884Z" transform="translate(-2037.879 -1525.877)"/></g><g transform="translate(29.409 4.189)"><path class="n" d="M1436.77,1250.554c-.043,5.321-.522,13.959-3.154,13.043,0,0-5.3-.023-13.125-.042-4.044-.65-7.611-3.194-11.361-4.8a36.887,36.887,0,0,1,9.448-.845l-2.544-2.416a29.947,29.947,0,0,0,5.33-2.174,32.525,32.525,0,0,1-3.314-4.122q-.575-.844-1.093-1.722c.119.2-2.026,2.967-2.276,3.265-.849,1.015-1.805,1.223-2.952,1.761a45.924,45.924,0,0,0-5.234,3.1l-1.753-3.217a52.069,52.069,0,0,1-2.876,5.892c-.317.536-.648,1.06-1,1.566a1.735,1.735,0,0,1-1.834,1l-1.741-.005-2.3-.007a4.092,4.092,0,0,1,.589.967c.336.739.494,1.4,1.311,1.741h-.746l-3.678.005-1.209,0-.962,0h-.721l-1.182,0-.969,0-.713,0-1.007,0-1,0-.5,0-.991,0-.492,0-.491,0-.975,0-1.733.009-.559,0h-.105l-1.407.009h-.143l-1.239.008-.91.007-.827.006-1.5.014-.5,0-.643.006-.21,0-.208,0-.208,0h-.068l-.345,0-.519.006-.238,0h-.056l-.4,0h-.015l-.38,0-.315,0-.228,0-.25,0-1.087.015-.217,0-.362.005h-.067l-.422.007h-.05l-.353.006h-.012l-.407.007-.439.008-.354.006-.386.007-.928.019-.25.005-.593.013h-.035l-.253.006-.557.014-.175,0h-.024l-.2.005-.386.011-.272.008a1.4,1.4,0,0,1-1.152-2.4c4.549-4.188,13.606-12.05,19.563-14.05a1.769,1.769,0,0,1,.257-.066c.917-.164,7.107-.529,15.283-.859l.483-.02.615-.024.19-.007.436-.017.729-.028,1.5-.055.656-.023.252-.009.617-.022c2.059-.071,4.188-.137,6.345-.2l.851-.023,1.84-.046.883-.021q1.173-.027,2.346-.049l.46-.009.466-.009.914-.016.663-.011.523-.008.189,0,.855-.012q1.394-.02,2.765-.031l.891-.007.755,0h.175c1.027-.005,2.039-.007,3.03,0h.3c4.481.015,8.517.109,11.64.316a1.251,1.251,0,0,1,1.016,1.294C1436.764,1248.133,1436.78,1249.243,1436.77,1250.554Z" transform="translate(-1358.811 -1245.805)"/></g><g transform="translate(119.735 58.207)"><path class="k" d="M2785.921,2099.27" transform="translate(-2785.921 -2099.27)"/><path class="o" d="M2785.921,2099.27" transform="translate(-2785.921 -2099.27)"/></g><g transform="translate(116.763 31.951)"><path class="k" d="M2738.965,1684.439" transform="translate(-2738.965 -1684.439)"/><path class="o" d="M2738.965,1684.439" transform="translate(-2738.965 -1684.439)"/></g><g transform="translate(6.471 45.621)"><path class="g" d="M1079.928,1932.437c-23.67.612-65.334,1.312-83.176-.669l-.175-.365a3.7,3.7,0,0,1,.2-2.72c.652-1.3,1.217-3.133,1.694-3.434l.1-.04c.493-.1,1.495-17.3,9.843-19.186,0,0,8.207-3.261,13.8-4.812,2.321-.643,4.193-.991,4.844-.691,2.219,1.026,22.661.135,22.661.135s1.081.148,2.791.475c5.526,1.058,17.625,3.99,21.062,9.862,0,0,5,9.54,5.3,14.614Z" transform="translate(-996.407 -1900.411)"/></g><g transform="translate(7.996 23.737)"><path class="p" d="M1116.951,1559.28l-7.657.333-.742.032-4.531.2-2.282.1-71.845,3.127-1.673.073-.055,0a4.2,4.2,0,0,0-.658.088l-.15.028c-1.273.239-3.714.793-5.633,1.177l-.374.074c-.3.058-.58.11-.839.156h0c.057-.068.115-.135.174-.2s.093-.106.142-.159.1-.106.147-.158a.192.192,0,0,1,.018-.019.028.028,0,0,1,.007-.006.1.1,0,0,1,.017-.018c.033-.035.067-.07.1-.1.014-.016.029-.032.045-.047.057-.059.116-.116.174-.173s.12-.115.18-.172.122-.113.185-.169c.116-.1.235-.208.359-.308l.049-.04.11-.089c.092-.074.185-.146.281-.218l.12-.09.059-.043c.02-.013.04-.028.06-.043s.06-.041.089-.063l.029-.02.035-.025c.053-.037.106-.073.16-.109l.132-.087s0,0,0,0l.17-.108.042-.026.108-.066c.018-.012.036-.022.055-.033l.113-.068.038-.022.092-.053.011-.006.112-.063.155-.085.048-.025.036-.018c.1-.051.192-.1.29-.148l.121-.059c.112-.055.226-.109.343-.161l.133-.059a.12.12,0,0,1,.021-.009c.074-.033.149-.065.225-.1l.142-.059.018-.007.235-.092h0l.246-.09c.167-.06.336-.118.508-.173.086-.027.174-.054.261-.08l.5-.469.372-.349.22-.208.161-.15.169-.159c.644-.6,1.484-1.386,2.474-2.3.49-.453,1.015-.939,1.572-1.452l.267-.176,69.3-.6,2.282-.02,4.015-.034.6-.005.147,0,1.651-.014,4.192-.037,5.063-.043.178,0C1120.751,1556.581,1116.951,1559.28,1116.951,1559.28Z" transform="translate(-1020.508 -1554.665)"/></g><g transform="translate(6.471 70.418)"><path class="f" d="M1079.932,2299.424c-23.67.612-65.333,1.312-83.176-.668l-.175-.366a3.7,3.7,0,0,1,.2-2.719c.652-1.3,1.217-3.133,1.694-3.435l.1-.04,4.406,1.287a48.379,48.379,0,0,0,12.534,1.929q12.091.257,24.183.476c8.417.148,17.11.095,25.5-.405,4.526-.27,9.227-1.889,13.684-2.889l.6,3.673Z" transform="translate(-996.411 -2292.197)"/></g><g transform="translate(27.315 53.551)"><path class="f" d="M1364.816,2030.478a4.746,4.746,0,0,1-.934,2.836,4.811,4.811,0,0,1-.463.537,4.752,4.752,0,0,1-3.373,1.4h-29.551a4.771,4.771,0,1,1,0-9.541h29.551A4.771,4.771,0,0,1,1364.816,2030.478Z" transform="translate(-1325.724 -2025.707)"/></g><g transform="translate(28.603 53.551)"><path class="q" d="M1383.891,2030.478a3.021,3.021,0,0,1-3.481,3.573h-29.551a4.295,4.295,0,1,1-1.289-8.344h29.551A4.771,4.771,0,0,1,1383.891,2030.478Z" transform="translate(-1346.088 -2025.707)"/></g><g transform="translate(106.161 24.786)"><path class="p" d="M2604.951,1579.282a6.179,6.179,0,0,1-1.45,1.262,16.69,16.69,0,0,1-5.388,2.043c-8.252,1.871-17.306.264-25.392-1.606a10.853,10.853,0,0,0-1.258-3.321c1.08,1.441,7.69.55,9.058.428,7.938-.708,14.5-3.69,21.505-6.859C2603.1,1573.869,2604.058,1576.565,2604.951,1579.282Z" transform="translate(-2571.463 -1571.228)"/></g><g transform="translate(88.86 61.238)"><path class="h" d="M2319.421,2148.991a51.663,51.663,0,0,0-.432,8.89l-.027.09c-.038.172-.149.582-.325,1.115-.037.11-.075.226-.118.346l-.01.031a12.3,12.3,0,0,1-1.229,2.569,6.242,6.242,0,0,1-.812,1.018s-4,.142-10.462.327l-.668.02c-1.429.041-2.971.083-4.61.126h-.012l-1.478.038-1.057-6.311c-.014-.244-.04-.5-.075-.762q.8.079,1.613.105a24.092,24.092,0,0,0,19.983-9.443Q2319.548,2148.049,2319.421,2148.991Z" transform="translate(-2298.105 -2147.152)"/></g><g transform="translate(0 60.527)"><path class="h" d="M903.889,2140.9c-.487,2.254-.751,4.125-.93,4.965-.062.3-.115.465-.162.475l-.095.039c-.478.3-1.042,2.131-1.694,3.435a2.948,2.948,0,0,0-.188,2.219.028.028,0,0,1,0,.006,2.1,2.1,0,0,0,.132.328l-.739-.076h0c-.379-.044-.744-.091-1.1-.14h0c-.938-.126-1.789-.265-2.544-.409a20.262,20.262,0,0,1-1.923-4.215h0q-.1-.319-.182-.645a8.14,8.14,0,0,1-.294-2.243c.142,0,.286,0,.428-.01a7.529,7.529,0,0,0,3.74-1.224c2.512-1.672,3.971-4.559,4.741-7.477a12.575,12.575,0,0,0,.087,1.273,30.9,30.9,0,0,0,.663,3.452C903.849,2140.73,903.869,2140.814,903.889,2140.9Z" transform="translate(-894.168 -2135.923)"/></g><g transform="translate(4.823 44.553)"><path class="f" d="M1055.535,1916.631h0l-1.057-6.31c-.014-.244-.04-.5-.075-.762-.7-5.207-5.229-13.852-5.229-13.852-4.5-7.688-23.853-10.336-23.853-10.336s-20.442.891-22.661-.135-18.645,5.5-18.645,5.5c-5.278,1.191-7.62,8.5-8.752,13.747-.659,3.051-.91,5.4-1.091,5.439l-.1.039c-.478.3-1.042,2.131-1.694,3.435a2.9,2.9,0,0,0-.054,2.552l-.738-.075h0l-1.086-.11-.013-.03s0,0,0,0a3.941,3.941,0,0,1,.471-3.044c.211-.42.42-.924.623-1.411a7.808,7.808,0,0,1,1.229-2.314c.056-.291.127-.709.194-1.094a64.157,64.157,0,0,1,1.537-7.089c1.447-5,4.04-10.367,9-11.566,1.918-.76,14.495-5.681,18.423-5.681a3.218,3.218,0,0,1,1.367.257c.138.047,1.266.347,7.178.347,6.474,0,14.664-.354,14.746-.357l.143-.006.141.019c.822.112,20.175,2.848,25.011,11.109.238.45,4.867,9.332,5.468,14.76.019.162.033.322.044.479l.953,6.45.008.054Z" transform="translate(-970.367 -1883.535)"/></g><g class="r" transform="translate(73.812 30.634)"><path class="f" d="M2093.963,1668.214c-.589,2.9-.987,7.091-4.089,8.105-4.088,1.337-9.219,1.451-13.49,1.844-17.794,1.637-12.834.1-16.03-1.107a70.617,70.617,0,0,1,12.332-7.918,24.47,24.47,0,0,1,6.171-2.12s5.864-1.729,8.8-2.994a4.816,4.816,0,0,1,5.251.912,3.6,3.6,0,0,1,1.024,1.686A3.455,3.455,0,0,1,2093.963,1668.214Z" transform="translate(-2060.355 -1663.621)"/></g><g transform="translate(32.274 45.621)"><path class="f" d="M1434.374,1901.131a9.582,9.582,0,0,0-2.788.7c-3.048,1.59-13.053,12.043-23.125.249,0,0-1.928-.4-4.382-.867,2.321-.643,4.193-.991,4.844-.691,2.219,1.026,22.661.135,22.661.135S1432.664,1900.8,1434.374,1901.131Z" transform="translate(-1404.079 -1900.411)"/></g><g transform="translate(20.407 35.102)"><path class="g" d="M1216.585,1736.708s18.834.82,20.325.323c0,0,6.56-6.261,15.7-.1,0,0,25.145-.2,27.381-.6,0,0-5.466,4.588-6.262,7.5,0,0-14.726-.447-17.774,1.143s-13.053,12.042-23.124.249c0,0-11.993-2.5-14.246-2.236C1218.589,1742.994,1217.913,1740.686,1216.585,1736.708Z" transform="translate(-1216.585 -1734.218)"/></g><g class="r" transform="translate(4.975 31.509)"><path class="f" d="M990.337,1690.718l-6.679.028c-2.616.011-6.027.618-8.563,0-4.679-1.144-1.136-7.881.741-10.094a12.133,12.133,0,0,1,3.533-2.853,2.98,2.98,0,0,1,3.91,1.018,29.715,29.715,0,0,0,2.832,3.793h.005a8.981,8.981,0,0,0,.989.949,11.209,11.209,0,0,1,2.739,3.215c.957,1.692,4.522,3.209,5.033,3.5C994.152,1690.274,991.062,1690.715,990.337,1690.718Z" transform="translate(-972.776 -1677.444)"/></g><g transform="translate(4.976 30.491)"><path class="n" d="M992.515,1674.629l-2.176.008h-.158l-5.667.023-.853,0c-2.616.012-6.028.619-8.564,0a2.732,2.732,0,0,1-2.291-2.5,5.137,5.137,0,0,1,.033-1.291.009.009,0,0,1,0,0,11.366,11.366,0,0,1,1.07-3.243l.013-.029c.175-.359.361-.707.55-1.037a14.218,14.218,0,0,1,1.33-1.949l.036-.043c.071-.085.145-.169.22-.252s.152-.167.23-.249l.118-.123.121-.121c.081-.081.164-.161.249-.24l.139-.129c.047-.043.094-.085.142-.127.1-.085.194-.168.293-.251.017-.014.033-.026.049-.04l.11-.089c.091-.073.185-.146.281-.218l.121-.09.059-.043c.02-.013.039-.028.059-.043l.089-.063.029-.02.027-.018c.1-.069.2-.136.3-.2,0,0,0,0,0,0l.17-.108.042-.026.108-.066c.018-.012.036-.023.055-.033l.113-.068.038-.022c.03-.018.061-.036.092-.053l.091-.052.031-.017.155-.086.048-.025.036-.018.019-.009a2.985,2.985,0,0,1,3.808,1.071l.229.352c.44.668.947,1.4,1.477,2.091.369.48.748.942,1.125,1.351h.005a9.119,9.119,0,0,0,.989.949,11.249,11.249,0,0,1,2.74,3.214c.44.778.932,1.614,1.385,2.316l.071.111.089.136A5.378,5.378,0,0,0,992.515,1674.629Z" transform="translate(-972.779 -1661.364)"/></g><g transform="translate(85.087 33.231)"><path class="f" d="M2258.818,1709.534a8.911,8.911,0,0,1-.591,2.841c-.037.087-.076.174-.117.258a4.23,4.23,0,0,1-.877,1.226c-1.731,1.661-5.119,1.546-7.369,1.892a42.322,42.322,0,0,1-5.123.61,9.985,9.985,0,0,1-3.73-.465,3.66,3.66,0,0,1-2.509-3.8,4.53,4.53,0,0,1,1.888-3.211,14.488,14.488,0,0,1,3.736-2.267,29.686,29.686,0,0,1,9.971-1.929,6.321,6.321,0,0,1,2.871.319,2.773,2.773,0,0,1,.561.33C2258.745,1706.261,2258.92,1708.01,2258.818,1709.534Z" transform="translate(-2238.502 -1704.663)"/></g><g transform="translate(87.146 33.231)"><path class="e" d="M2288.694,1712.375c-.005.109-.011.218-.019.327l-.1-.069a12.21,12.21,0,0,0-5.856-2.132c.69-1.051.1-2.546.974-3.293-2.122.52-4.233,1.093-6.349,1.643a22.278,22.278,0,0,1,.792,4.278,12.419,12.419,0,0,0-3.042.36,12.549,12.549,0,0,1,.112,2.872,9.983,9.983,0,0,1-3.73-.465c-.046-.111-.086-.225-.124-.339-1.053-3.217.556-6.85,3.24-8.939a29.685,29.685,0,0,1,9.971-1.929,6.322,6.322,0,0,1,2.871.319,2.916,2.916,0,0,1,.608,1.29A19.735,19.735,0,0,1,2288.694,1712.375Z" transform="translate(-2271.028 -1704.663)"/></g><g transform="translate(77.006 29.943)"><path class="n" d="M2141.243,1657.306c-.073.362-2.044,8.508-3.062,7.678l-4.779-3.9,1.648-2.252.185-.252,1.175-1.607a88.834,88.834,0,0,1-11.118,1.659,11.77,11.77,0,0,1,.936,2.359,11.63,11.63,0,0,1,.3,1.448l-4.651-.427a14.538,14.538,0,0,1,1.7,4.595c.045.238.084.479.116.72-4.257.416-8.567.188-12.863.711a17.334,17.334,0,0,1,6.7-8.363,20.777,20.777,0,0,1,2.44-1.447,24.445,24.445,0,0,1,6.172-2.12s5.864-1.729,8.8-2.995a4.816,4.816,0,0,1,5.251.912,4.023,4.023,0,0,1,.581.7,3.272,3.272,0,0,1,.442.99A3.442,3.442,0,0,1,2141.243,1657.306Z" transform="translate(-2110.83 -1652.712)"/></g><g transform="translate(119.499 57.249)"><path class="h" d="M2801.6,2093.219c-.087.746-.207,1.541-.373,2.331a11.966,11.966,0,0,1-1.549,4.116,3.671,3.671,0,0,1-2.326,1.7l-5.366.538-7.68.769-.032,0a16.086,16.086,0,0,0,.335-1.773c.039-.276.078-.582.112-.914a29.676,29.676,0,0,0-2.305-14.744s0-.005,0-.008c-.062-.142-.125-.284-.19-.427,0,0,0-.007,0-.021v0c0-.074-.008-.308-.022-.659a21,21,0,0,0,8.539,6.511A36.372,36.372,0,0,0,2801.6,2093.219Z" transform="translate(-2782.195 -2084.127)"/></g><g transform="translate(129.485 28.771)"><path class="g" d="M2939.959,1634.19a22.091,22.091,0,0,1,1.075,2.425c.079.207.159.413.231.623s.151.416.219.627l.209.631.2.635a46.98,46.98,0,0,1,1.238,5.171c.078.436.161.873.226,1.311s.138.876.19,1.317l.084.66.042.33c.013.11.023.22.035.331.044.441.093.882.135,1.324.156,1.768.222,3.542.233,5.316s-.074,3.547-.195,5.316l-.121,1.324-.061.662c-.021.221-.05.44-.075.66l-.157,1.32c-.025.22-.062.438-.094.658l-.1.657a73.458,73.458,0,0,1-2.319,10.348c.734-3.456,1.344-6.929,1.764-10.423.216-1.746.368-3.5.484-5.252l.066-1.316c.01-.219.024-.438.032-.658l.017-.659c.01-.439.029-.878.034-1.317l0-1.317,0-.329-.006-.329-.011-.658-.012-.658c0-.22-.018-.439-.025-.658l-.026-.658c-.01-.219-.014-.439-.031-.658l-.082-1.314c-.033-.437-.072-.875-.108-1.312-.01-.109-.017-.219-.029-.328l-.036-.327-.07-.655c-.042-.437-.107-.871-.16-1.307s-.119-.87-.183-1.3-.139-.867-.213-1.3c-.037-.217-.073-.433-.117-.648l-.123-.647c-.039-.216-.085-.431-.131-.646l-.136-.645-.151-.642-.075-.321-.08-.32c-.2-.856-.448-1.7-.706-2.543l-.1-.316-.1-.314c-.068-.21-.142-.417-.214-.625C2940.286,1635.009,2940.132,1634.6,2939.959,1634.19Z" transform="translate(-2939.959 -1634.19)"/></g><g class="s" transform="translate(114.447 6.639)"><g class="t"><path class="k" d="M2710.728,1290.681l-6.28,9.366c-.312-.848-.6-1.782-.868-2.728-.216-.77-.415-1.548-.595-2.3-.239-.991-.444-1.932-.61-2.732,1.48-3.153,3.719-7.093,5.043-7.779.26.419.524.857.79,1.313.4.687.8,1.416,1.206,2.184q.663,1.263,1.31,2.664Z" transform="translate(-2702.376 -1284.511)"/></g></g><g class="s" transform="translate(125.337 12.349)"><g class="t"><path class="k" d="M2880.477,1381.281l-2.727,4.067c-.64.157-1.15.229-1.292.107a33.7,33.7,0,0,1-1.51-4.073c-.138-.4-.285-.823-.439-1.257l-.078-.221a52.3,52.3,0,0,1,2.591-5.173l0,.008a25.058,25.058,0,0,1,1.939,3.082q.408.765.777,1.595C2880,1380.014,2880.252,1380.634,2880.477,1381.281Z" transform="translate(-2874.43 -1374.732)"/></g></g><g class="u" transform="translate(117.081 21.441)"><path class="e" d="M2765.081,1561.306q-.075.5-.174.97a.443.443,0,0,1-.876-.1c0-.017,0-.035,0-.053.011-.49.021-1.025.031-1.592.089-5.605.031-14.384-1.218-14.089a.455.455,0,0,0-.2.113.4.4,0,0,0-.059.067,6.285,6.285,0,0,0-.483.836s0,0,0,0c-.058.117-.12.247-.184.389-.11.244-.227.525-.346.847s-.242.687-.362,1.094h0a28.339,28.339,0,0,0-1.026,6.581c-.008.142-.014.287-.02.432v.006c-.032.781-.043,1.613-.029,2.5,0,0,.023,1.778-.163,3.976-.055.637-.127,1.31-.222,1.984-.016.116-.033.232-.051.348h0c-.021.131-.042.261-.064.392a16.016,16.016,0,0,1-.823,3.164q-.117.294-.248.559a5.665,5.665,0,0,1-.3.53,2.516,2.516,0,0,1-1.377,1.162.457.457,0,0,1-.063.013l-3.9.533h0l-5.626.77-.024,0s.12-.6.234-1.669c0-.034.008-.069.011-.1.029-.277.057-.583.082-.915.006-.084.012-.169.018-.256,0-.02,0-.039,0-.059.009-.13.016-.263.024-.395a39.619,39.619,0,0,0-1.736-14.034s0-.006,0-.009c-.045-.142-.091-.283-.138-.427,0,0,0-.006,0-.02v0c0-.074-.005-.308-.016-.66-.068-2.221-.389-9.164-1.748-10.471l-.023-.022a79.088,79.088,0,0,1,8.423-23.706l.032-.057a3.052,3.052,0,0,1,5.572.594q.13.415.256.832l.11.365h0q.148.495.291.993c.048.165.095.331.143.5,0,.013.007.024.01.037.03.1.059.208.089.313.014.051.029.1.042.152.06.209.117.42.175.629q.068.25.135.5.188.691.368,1.385.115.441.228.885c.054.21.107.422.161.633.009.035.018.07.026.105.022.086.044.173.065.26q.13.522.257,1.044c.051.208.1.416.152.625h0c.447,1.857.873,3.724,1.291,5.588q.082.367.164.735c.576,2.581,1.14,5.155,1.729,7.7C2763.71,1543.8,2766.137,1554.279,2765.081,1561.306Z" transform="translate(-2743.99 -1518.38)"/></g><g transform="translate(115.595 19.345)"><path class="f" d="M2720.514,1492.9l.837,2.385s13.616,1.557,17.161-2.783c0,0,.927-9.873-13.782-6.56-1.616.364-.066,6.626-.066,6.626S2721.972,1493.366,2720.514,1492.9Z" transform="translate(-2720.514 -1485.265)"/></g><g class="t" transform="translate(31.282 4.189)"><path class="k" d="M1445.781,1249.2q-.575-.844-1.093-1.722c.119.2-2.026,2.967-2.275,3.265a7.106,7.106,0,0,1-2.952,1.761,45.916,45.916,0,0,0-5.235,3.1l-1.753-3.217a52.028,52.028,0,0,1-2.876,5.892l-4.572,2.564-1.712.96-3.113,1.746-1.209,0-.962,0h-.721l-1.182,0-.969,0-.713,0-1.007,0-1,0-.5,0-.991,0-.492,0-.491,0-.975,0-1.733.009-.559,0h-.106l-1.407.009h-.143l-1.239.008-.91.007-.827.006-1.5.014-.5,0-.643.006-.21,0-.208,0-.208,0h-.068l-.344,0-.519.006-.238,0h-.056l-.4,0h-.015l-.381,0-.314,0-.228,0-.25,0-1.087.015-.217,0-.362.005h-.067l-.421.007h-.05l-.353.006h-.012l-.407.007-.439.008-.354.006-.385.007-.928.019-.25.005-.593.013h-.035l-.253.006-.557.014-.175,0H1389l-.2.005-.386.011c6.461-3.312,20.461-10.5,33.68-17.365l.483-.02.615-.024.19-.007.436-.017.729-.028,1.5-.055.656-.023.252-.009.617-.022c2.059-.071,4.188-.137,6.345-.2l.851-.023,1.841-.046.883-.021q1.173-.027,2.346-.049l.46-.009.466-.009.914-.016.663-.011.523-.008.189,0,.855-.012q1.395-.02,2.765-.031l.891-.007.755,0h.175c1.028-.005,2.039-.007,3.03,0h.3Z" transform="translate(-1388.416 -1245.805)"/><g transform="translate(51.229 4.749)"><path class="k" d="M2222.659,1320.836c-.042,5.321-.522,13.958-3.154,13.043,0,0-9.432-.042-21.7-.06C2206.716,1329.207,2215.842,1324.453,2222.659,1320.836Z" transform="translate(-2197.802 -1320.836)"/></g></g><g transform="translate(86.488 32.097)"><path class="k" d="M2280.38,1688.741a29.049,29.049,0,0,1-3,.99c-.687.3-1.359.629-2.016.988l.185-.252q.587-.8,1.175-1.607a88.853,88.853,0,0,1-11.117,1.659,11.756,11.756,0,0,1,.936,2.359,11.638,11.638,0,0,1,.3,1.448l-4.651-.427a14.561,14.561,0,0,1,1.695,4.595l-3.267-4.272a5.5,5.5,0,0,1,3.062-.736.584.584,0,0,0,.48-.109c1.071-1.193-.783-2.152,1.129-3.117a13.663,13.663,0,0,1,1.968-.551,71.952,71.952,0,0,0,7.354-2.556,4.816,4.816,0,0,1,5.251.912A1.714,1.714,0,0,1,2280.38,1688.741Z" transform="translate(-2260.628 -1686.749)"/></g><g transform="translate(8.762 31.509)"><path class="k" d="M1047.131,1688.789a47.633,47.633,0,0,1-11.576-6.457,18.357,18.357,0,0,1-2.952-2.746,12.24,12.24,0,0,1,2.6-1.8,3.045,3.045,0,0,1,3.91.983,28.8,28.8,0,0,0,2.832,3.661h.005a8.851,8.851,0,0,0,.989.916,10.934,10.934,0,0,1,2.739,3.1c.44.751.932,1.557,1.385,2.235Z" transform="translate(-1032.603 -1677.444)"/></g></g><g transform="translate(120.233 75.661)"><g transform="translate(1.367)"><path class="h" d="M2445.557,1916.07a30.36,30.36,0,0,0,5.081,9.853.382.382,0,0,0,.537,0,.389.389,0,0,0,0-.537,29.362,29.362,0,0,1-4.885-9.518.38.38,0,0,0-.732.2Z" transform="translate(-2445.539 -1915.602)"/></g><g transform="translate(0 2.527)"><path class="h" d="M2423.968,1955.983a46.248,46.248,0,0,0,6.057,10.548c.293.383.953,0,.656-.383a45.57,45.57,0,0,1-5.98-10.367c-.183-.446-.918-.25-.732.2Z" transform="translate(-2423.938 -1955.529)"/></g><g transform="translate(2.73 3.707)"><path class="h" d="M2469.624,1974.437a49.836,49.836,0,0,0-2.545,10.433c-.028.205.194.378.38.38a.388.388,0,0,0,.379-.38,48.961,48.961,0,0,1,2.519-10.231c.167-.46-.567-.658-.733-.2Z" transform="translate(-2467.077 -1974.178)"/></g></g><g transform="translate(142.87 25.465)"><g transform="translate(13.363 24.746)"><path class="v" d="M3019.5,1546.089a52.118,52.118,0,0,1-9.158-3.437c-1.7-.856-2.877-1.694-2.628-2.275.749-1.752.681-5.975.681-5.975a11.361,11.361,0,0,1-6.4,3.982l-5.269-2.263-4.006-1.72s.87-.793,1.851-1.611c.551-.46,1.139-.927,1.626-1.266a5.661,5.661,0,0,1,.605-.378c1.184-.612,1.551-2.286,3.511-3.348s5.43-8.533,6.614-11.187,2.98-2.695,3.266-2.777l8.911-.327S3019.83,1545.967,3019.5,1546.089Z" transform="translate(-2992.72 -1513.508)"/></g><g class="w" transform="translate(15.214 26.783)"><path class="x" d="M3041.731,1573.382q-2-.245-3.988-.581c-1.7-.856-2.877-1.694-2.628-2.275.749-1.752.681-5.975.681-5.975a11.362,11.362,0,0,1-6.4,3.982l-5.269-2.263c-.659-.888-1.261-1.827-1.827-2.762-.112-.185-.224-.375-.327-.569.551-.46,1.138-.927,1.626-1.267a11.47,11.47,0,0,0,4.735.12,15.308,15.308,0,0,0,2.514-1.061,9.639,9.639,0,0,0,2.808-1.316,7.125,7.125,0,0,0,1.66-2.453,11.624,11.624,0,0,0,1.332-2.749,37.358,37.358,0,0,0,.992-8.4c-.248-.325.366.111.744.265a1.4,1.4,0,0,1,.659.982,29.489,29.489,0,0,1,1.194,7.741,4.639,4.639,0,0,1-.1,1.242,13.538,13.538,0,0,1-.528,1.334,7.322,7.322,0,0,0-.35,2.4A34.635,34.635,0,0,0,3041.731,1573.382Z" transform="translate(-3021.97 -1545.695)"/></g><g transform="translate(28.903 35.354)"><path class="y" d="M3238.4,1681.123c.115.2.227.41.329.623s.182.433.264.655.145.448.207.676c.029.114.055.229.082.344s.057.23.076.346a12.472,12.472,0,0,1,.2,2.813,14.657,14.657,0,0,1-.381,2.781c-.025.114-.057.227-.087.34s-.059.226-.092.338c-.065.224-.139.446-.212.667s-.162.438-.249.655-.189.428-.294.638c.01-.235.029-.467.051-.7s.04-.46.061-.689l.124-1.364c.08-.905.146-1.8.181-2.7s.04-1.8,0-2.694S3238.528,1682.051,3238.4,1681.123Z" transform="translate(-3238.242 -1681.123)"/></g><g class="z" transform="translate(34.268 42.603)"><path class="x" d="M3323.787,1806.3a3.715,3.715,0,0,0,2.844,2.444.791.791,0,0,0,.526-.084.922.922,0,0,0,.3-.7c.238-2.149.637-4.471.129-6.61a4.3,4.3,0,0,0-1.66-2.435c-.567-.547-2.739-2.63-2.742-3.27C3323.2,1799.035,3322.5,1803.07,3323.787,1806.3Z" transform="translate(-3323.008 -1795.643)"/></g><g transform="translate(29.784 24.983)"><path class="y" d="M3259.063,1547.824l-1.605-1.705s-1.177-.885-1.914-1.579a6.032,6.032,0,0,1-1.182-4.327,96.588,96.588,0,0,0-.734-9.636,8.854,8.854,0,0,0-1.462-3.139c.4-1.3,3.666-1.025,3.666-1.025a15.069,15.069,0,0,0-2.613-1.388,64.238,64.238,0,0,0,1.062-6.615l1.39-1.151a5.223,5.223,0,0,1,1.37,1.79c1.16,2.455,1.1,6.665.18,15.1-.141,1.3-.222,2.48-.253,3.558C3256.76,1544.7,3258.589,1547.276,3259.063,1547.824Z" transform="translate(-3252.165 -1517.259)"/></g><g transform="translate(2.968 82.589)"><path class="x" d="M2853.523,2437.779a1.81,1.81,0,0,1-.2,1c-.727.8-5.437.919-6.2.613s-1-1.378-1.532-1.225a10.461,10.461,0,0,0-1.915,1.225l-14.4-.459s-.9.145-.779-1.677c0-.052.008-.105.013-.16.116-1.208,1.078-2.162,2.791-2.9a19.622,19.622,0,0,1,4.255-1.162,5.687,5.687,0,0,0,4.749-4.9s9.5-1.646,10.951,0c.977,1.106,1.9,5.166,2.185,7.956A13.967,13.967,0,0,1,2853.523,2437.779Z" transform="translate(-2828.482 -2427.398)"/></g><g transform="translate(52.059 78.112)"><path class="x" d="M3618.9,2365.638s.148,5.553-.673,7.2-.476,2.182-3.616,2.987-9.267.88-10.033.536c-.328-.147-.509-.753-.484-1.47a3.26,3.26,0,0,1,1.327-2.665,6.754,6.754,0,0,0,4.546-7.111c.1-1.341.126-2.546.126-2.693,0-.306,5.131-5.744,5.131-5.744a19.948,19.948,0,0,1,5.116,1.106,2.217,2.217,0,0,1,.29.173,1.051,1.051,0,0,1,.261.252C3621.622,2359.282,3621.277,2363.227,3618.9,2365.638Z" transform="translate(-3604.095 -2356.678)"/></g><g transform="translate(54.613 92.698)"><path class="e" d="M3644.448,2587.776a6.077,6.077,0,0,1,1.419-.469,8.974,8.974,0,0,1,1.469-.18,8.847,8.847,0,0,1,1.48.062,6.021,6.021,0,0,1,1.452.355,11.719,11.719,0,0,1-1.464.209c-.482.043-.96.072-1.439.091s-.958.028-1.442.023A11.915,11.915,0,0,1,3644.448,2587.776Z" transform="translate(-3644.448 -2587.12)"/></g><g class="u" transform="translate(57.934 78.112)"><path class="e" d="M3707.284,2357.784a12.491,12.491,0,0,1-6.128,6.068,14.1,14.1,0,0,1-2.612.848l-1.634.416c.1-1.341.126-2.546.126-2.693,0-.306,5.131-5.744,5.131-5.744A19.949,19.949,0,0,1,3707.284,2357.784Z" transform="translate(-3696.91 -2356.678)"/></g><g class="u" transform="translate(5.784 82.589)"><path class="e" d="M2895.2,2437.779a1.646,1.646,0,0,1-1.209-.871,7.76,7.76,0,0,0-4.166-3.664c-1.963-.744-3.3-.265-5.227.109a36.953,36.953,0,0,1-11.623.841,19.607,19.607,0,0,1,4.255-1.162,5.687,5.687,0,0,0,4.749-4.9s9.5-1.646,10.952,0c.977,1.106,1.9,5.166,2.185,7.956A13.961,13.961,0,0,1,2895.2,2437.779Z" transform="translate(-2872.97 -2427.398)"/></g><g transform="translate(7.248 48.755)"><path class="aa" d="M2955.195,1920.2a5.462,5.462,0,0,1-2.744,4.248c-.01.619-3.422,5.859-3.846,5.731,0,0-1.494-.449-2.987-1.082a1.984,1.984,0,0,0-1.908.208,6.8,6.8,0,0,1-2.572.807c-2.585.268-9.593-.326-14.752-.9s-7.88-1.953-8.569-3.222a12.475,12.475,0,0,1-.919-5.853c.173-1.9,2.3-4.481,2.3-4.481s-.161-.1-.427-.274a28.225,28.225,0,0,1-3.708-2.828c-1.551-1.493-5.054-5.744-5.054-5.744s3.388,15.624,3.966,16.469,2.582,5.129.514,6.393a3.009,3.009,0,0,1-1.221.412c-1.937.236-4.284-1.065-5.787-1.676-1.838-.747-4.136.689-4.136.689a10.054,10.054,0,0,1-1.723-5.818c.113-3.273-1.861-8.858-3.881-14.8q-.07-.2-.139-.409c-2.068-6.089-1.379-8.271-1.379-8.271s.084-.178.254-.477c1.1-1.928,5.824-8.895,15.025-5.612,2.95,1.052,5.828,2.037,8.448,2.91,6.819,2.273,11.886,3.792,11.886,3.792l.9,5.821S2955.5,1917.441,2955.195,1920.2Z" transform="translate(-2896.108 -1892.852)"/></g><g class="u" transform="translate(7.248 52.531)"><path class="e" d="M2955.195,1976.084a5.461,5.461,0,0,1-2.744,4.248c-.01.619-3.422,5.859-3.846,5.731,0,0-1.494-.449-2.987-1.082a1.983,1.983,0,0,0-1.908.208,1.517,1.517,0,0,0-.252-.126,26.7,26.7,0,0,0-3.114-.434c-2.613-.6-5.149-1.437-7.706-2.23-1.835-.569-3.916-.127-5.479-1.4a31.785,31.785,0,0,0,7.481-2.331c1.452-.739,2.991-1.867,3.082-3.494a3.728,3.728,0,0,0-.679-2.173,7.171,7.171,0,0,0-4.657-2.967,21.58,21.58,0,0,0-4.95-1.1c-3.031-.086-5.86,1.254-8.668,2.332a28.258,28.258,0,0,1-3.708-2.828c-1.551-1.493-5.054-5.744-5.054-5.744s3.388,15.624,3.966,16.469,2.582,5.129.514,6.393a3.007,3.007,0,0,1-1.221.412,4.046,4.046,0,0,1-.2-.379c-1.245-2.669-1.98-5.543-3.032-8.293a16.6,16.6,0,0,0-4.8-7.288c-1.338-1.06-2.912-1.779-4.316-2.747a16.837,16.837,0,0,1-3.176-2.894q-.07-.2-.139-.409c-2.068-6.089-1.379-8.272-1.379-8.272s.084-.178.254-.477a10.518,10.518,0,0,1,1.754-.166,168.17,168.17,0,0,0,20.291-2.188,6.1,6.1,0,0,0,1.428-.348c6.819,2.273,11.886,3.792,11.886,3.792l.9,5.821S2955.5,1973.321,2955.195,1976.084Z" transform="translate(-2896.108 -1952.508)"/></g><g transform="translate(31.711 67.081)"><path class="e" d="M3282.6,2186.286a25.2,25.2,0,0,1,2.625-1.329q1.343-.593,2.728-1.081t2.8-.875a24.976,24.976,0,0,1,2.878-.616c-.89.428-1.794.8-2.7,1.153s-1.82.692-2.737,1.016-1.839.635-2.768.931S3283.561,2186.059,3282.6,2186.286Z" transform="translate(-3282.601 -2182.384)"/></g><g transform="translate(0 38.766)"><path class="j" d="M2806.656,1745.83a19.709,19.709,0,0,1-.933,3.491c-.608,1.789-1.335,3.6-2.146,5.439q-.142.324-.289.648c-.38.847-.776,1.705-1.224,2.549-.18.34-.432,1-.775,1.2-.2.12-1.394-.44-3.107-1.378l-.05-.027c-1.474-.808-3.342-1.9-5.3-3.086-1.017-.617-2.058-1.258-3.079-1.9l-.378-.238c-3.881-2.443-7.339-4.781-7.72-5.352-.343-.515.659-2.379,2.038-4.482.346-.529.716-1.071,1.092-1.61h0c.533-.763,1.082-1.519,1.6-2.223.264-.356.522-.7.768-1.025.62-.817,1.166-1.518,1.561-2.017.357-.452.593-.743.646-.806q2.085,1.078,4.062,2.167,1.027.562,2.028,1.123c2.017,1.13,3.963,2.256,5.814,3.426l.425.27c.756.485,1.515,1.034,2.236,1.6.158.125.315.25.469.375A24.818,24.818,0,0,1,2806.656,1745.83Z" transform="translate(-2781.589 -1735.018)"/><g transform="translate(0.861 0.914)"><path class="k" d="M2818.315,1759.432s-1.23,3.82-2.431,7.088c-.88,2.392-1.744,4.486-2.1,4.567,0,0-.624-.329-1.642-.875-1.892-1.013-5.21-2.81-8.455-4.666l-.413-.237c-3.934-2.262-7.626-4.543-8.073-5.347,0,0,6.072-9.633,7.036-10.5,0,0,2.664,1.737,5.806,3.75,3.042,1.948,6.49,4.127,8.522,5.313A10.823,10.823,0,0,0,2818.315,1759.432Z" transform="translate(-2795.2 -1749.458)"/></g><g transform="translate(3.564 3.461)"><path class="ab" d="M2838.678,1796.846l4.633-6.644a.277.277,0,0,0-.109-.393l-.105-.064a.327.327,0,0,0-.433.065l-4.7,6.644a.292.292,0,0,0,.114.432l.118.064A.384.384,0,0,0,2838.678,1796.846Z" transform="translate(-2837.904 -1789.693)"/><g class="ac" transform="translate(3.213 0.589)"><path class="ab" d="M2889.091,1805.191l3.943-5.891a.187.187,0,0,0-.073-.261h0a.208.208,0,0,0-.28.045l-3.977,5.892a.2.2,0,0,0,.076.283h0A.239.239,0,0,0,2889.091,1805.191Z" transform="translate(-2888.671 -1799.004)"/></g><g class="ac" transform="translate(3.888 0.965)"><path class="ab" d="M2899.745,1811.116l3.884-5.891a.187.187,0,0,0-.073-.26h0a.2.2,0,0,0-.277.046l-3.917,5.891a.2.2,0,0,0,.076.282h0A.236.236,0,0,0,2899.745,1811.116Z" transform="translate(-2899.329 -1804.931)"/></g><g transform="translate(0.184 7.274)"><path class="ab" d="M2844.622,1906.113a.273.273,0,0,0-.1-.392l-1.359-.743-.452-.246-.139-.076a.347.347,0,0,0-.444.1l-1.254,1.823a.276.276,0,0,0,.106.407l2.019,1.062a.346.346,0,0,0,.443-.112Zm-.21-.115-1.191,1.819a.073.073,0,0,1-.094.024l-2.013-1.062a.057.057,0,0,1-.022-.086l1.248-1.823a.074.074,0,0,1,.094-.021l.3.162h0l.468.255,1.189.648A.059.059,0,0,1,2844.411,1906Z" transform="translate(-2840.818 -1904.613)"/></g><g transform="translate(1.507 6.459)"><path class="ab" d="M2863.062,1894.6l-.011.016a.226.226,0,0,1-.176.081,5.016,5.016,0,0,0-.9.093.212.212,0,0,1-.256-.147.2.2,0,0,1,.17-.235,5.649,5.649,0,0,1,.707-.091,6.077,6.077,0,0,1-.29-2.409.209.209,0,0,1,.24-.161.2.2,0,0,1,.18.216,6.36,6.36,0,0,0,.357,2.477A.18.18,0,0,1,2863.062,1894.6Z" transform="translate(-2861.715 -1891.744)"/></g><g transform="translate(7.183 2.8)"><path class="ab" d="M2951.791,1840.108l3.6-5.884a.188.188,0,0,0-.074-.256h0a.19.19,0,0,0-.262.05l-3.634,5.885a.2.2,0,0,0,.077.277h0A.219.219,0,0,0,2951.791,1840.108Z" transform="translate(-2951.394 -1833.937)"/></g><g transform="translate(7.823 3.157)"><path class="ab" d="M2961.9,1845.747l3.549-5.882a.189.189,0,0,0-.074-.255h0a.187.187,0,0,0-.26.051l-3.579,5.883a.2.2,0,0,0,.077.276h0A.215.215,0,0,0,2961.9,1845.747Z" transform="translate(-2961.504 -1839.579)"/></g><g transform="translate(4.392 9.497)"><path class="ab" d="M2910.849,1941.178a.274.274,0,0,0-.106-.384l-1.011-.553-.292-.159h0l-.428-.234-.117-.064a.315.315,0,0,0-.414.1l-1.142,1.817a.277.277,0,0,0,.107.4l1.1.576.815.429a.317.317,0,0,0,.414-.119Zm-.2-.109-1.085,1.812a.068.068,0,0,1-.087.025l-.826-.436-1.08-.57a.059.059,0,0,1-.023-.085l1.136-1.815a.067.067,0,0,1,.087-.022l.268.146.444.241.156.085.988.538A.059.059,0,0,1,2910.65,1941.069Z" transform="translate(-2907.292 -1939.746)"/></g><g transform="translate(5.614 8.677)"><path class="ab" d="M2927.873,1929.584l-.011.016a.209.209,0,0,1-.164.083,4.525,4.525,0,0,0-.842.109.2.2,0,0,1-.243-.14.2.2,0,0,1,.155-.234,5.112,5.112,0,0,1,.662-.1,6.258,6.258,0,0,1-.315-2.363.2.2,0,0,1,.223-.163.189.189,0,0,1,.172.208,6.533,6.533,0,0,0,.379,2.429A.185.185,0,0,1,2927.873,1929.584Z" transform="translate(-2926.609 -1926.787)"/></g><g transform="translate(10.951 4.906)"><path class="ab" d="M3011.3,1873.355l3.29-5.87a.19.19,0,0,0-.074-.251h0a.174.174,0,0,0-.246.055l-3.319,5.872a.2.2,0,0,0,.077.271h0A.2.2,0,0,0,3011.3,1873.355Z" transform="translate(-3010.93 -1867.205)"/></g><g transform="translate(11.559 5.246)"><path class="ab" d="M3020.906,1878.728l3.241-5.867a.19.19,0,0,0-.074-.25h0a.173.173,0,0,0-.244.056l-3.269,5.869a.2.2,0,0,0,.077.27h0A.2.2,0,0,0,3020.906,1878.728Z" transform="translate(-3020.535 -1872.583)"/></g><g transform="translate(8.377 11.606)"><path class="ab" d="M2973.593,1974.438a.276.276,0,0,0-.106-.375l-1.155-.632-.406-.221-.194-.107a.288.288,0,0,0-.387.11l-1.041,1.807a.279.279,0,0,0,.107.39l1.813.953a.29.29,0,0,0,.387-.124Zm-.19-.1-.987,1.8a.061.061,0,0,1-.082.026l-1.808-.954a.059.059,0,0,1-.023-.082l1.036-1.807a.06.06,0,0,1,.081-.023l.337.183h0l.42.229,1,.546A.057.057,0,0,1,2973.4,1974.334Z" transform="translate(-2970.264 -1973.068)"/></g><g transform="translate(9.608 10.836)"><path class="ab" d="M2990.9,1963.638l-.01.016a.2.2,0,0,1-.153.085,4.041,4.041,0,0,0-.788.123.184.184,0,0,1-.23-.133.2.2,0,0,1,.142-.233,4.606,4.606,0,0,1,.619-.114,6.412,6.412,0,0,1-.339-2.318.188.188,0,0,1,.206-.165.184.184,0,0,1,.166.2,6.684,6.684,0,0,0,.4,2.382A.191.191,0,0,1,2990.9,1963.638Z" transform="translate(-2989.712 -1960.898)"/></g><g class="ac" transform="translate(14.533 6.914)"><path class="ab" d="M3067.872,1905.05l3-5.851a.192.192,0,0,0-.074-.246h0a.161.161,0,0,0-.232.059l-3.03,5.853a.2.2,0,0,0,.077.266h0A.185.185,0,0,0,3067.872,1905.05Z" transform="translate(-3067.517 -1898.927)"/></g><g class="ac" transform="translate(15.111 7.239)"><path class="ab" d="M3077,1910.176l2.958-5.847a.193.193,0,0,0-.074-.245h0a.159.159,0,0,0-.229.06l-2.984,5.849a.2.2,0,0,0,.077.265h0A.183.183,0,0,0,3077,1910.176Z" transform="translate(-3076.653 -1904.057)"/></g><g transform="translate(12.158 13.609)"><path class="ab" d="M3033.151,2005.874a.268.268,0,0,0-.135-.216l-1.1-.6-.386-.211h0l-.184-.1a.267.267,0,0,0-.363.116l-.948,1.8a.281.281,0,0,0,.108.381l1.721.906a.268.268,0,0,0,.361-.129l.691-1.381.2-.41A.276.276,0,0,0,3033.151,2005.874Zm-.209.054-.9,1.79a.056.056,0,0,1-.076.027l-1.717-.906a.059.059,0,0,1-.023-.081l.942-1.8a.057.057,0,0,1,.077-.025l.32.174h0l.4.218.953.519A.06.06,0,0,1,3032.942,2005.928Z" transform="translate(-3030.002 -2004.714)"/></g><g transform="translate(13.315 12.841)"><path class="ab" d="M3049.382,1995.268l-.009.016a.18.18,0,0,1-.142.086,3.656,3.656,0,0,0-.739.135.173.173,0,0,1-.219-.126.2.2,0,0,1,.129-.232,4.209,4.209,0,0,1,.581-.123,6.572,6.572,0,0,1-.358-2.275.176.176,0,1,1,.351.029,6.843,6.843,0,0,0,.416,2.337A.192.192,0,0,1,3049.382,1995.268Z" transform="translate(-3048.267 -1992.581)"/></g></g><g transform="translate(1.622 2.712)"><g transform="translate(0.169)"><path class="ab" d="M2811.778,1783.314l3.028-4.319a.292.292,0,0,0-.121-.419l-1.121-.652a.371.371,0,0,0-.48.073l-3.149,4.322a.3.3,0,0,0,.124.449l1.21.651A.4.4,0,0,0,2811.778,1783.314Z" transform="translate(-2809.878 -1777.867)"/></g><g transform="translate(0 0.534)"><path class="ab" d="M2810.4,1786.909h0l-.383-.219-.485-.279a.739.739,0,0,0-.942.146l-1.264,1.694a.562.562,0,0,0,.233.838l.508.278.4.22.328-.455v0Zm-1.043.328-.983,1.344a.128.128,0,0,1-.081.049.156.156,0,0,1-.1-.017.106.106,0,0,1-.043-.156l.988-1.344a.124.124,0,0,1,.08-.046.15.15,0,0,1,.1.017A.1.1,0,0,1,2809.354,1787.237Z" transform="translate(-2807.215 -1786.306)"/></g></g><g class="ad" transform="translate(6.854 13.447)"><path class="x" d="M2905.009,1953.777q-.142.324-.288.648c-.38.847-.777,1.705-1.225,2.549-.179.34-.432,1-.775,1.2-.2.12-1.394-.441-3.107-1.378l-.05-.027c-1.566-.842-3.1-1.76-4.619-2.676-1.6-.96-2.286-2.489-3.288-4.026-.336-.517-.68-1.018-1.053-1.5a10.692,10.692,0,0,0-.729-1.087,21.063,21.063,0,0,1,5.954,1.358,33.861,33.861,0,0,0,6.408,2.308,4.173,4.173,0,0,1,2.115,1.056A2.559,2.559,0,0,1,2905.009,1953.777Z" transform="translate(-2889.874 -1947.481)"/></g></g><g transform="translate(23.126 10.389)"><path class="ae" d="M3167.5,1296.67a41.419,41.419,0,0,0-1.606,5.338c-.436,1.907-.738,3.848-1.322,5.715a11.386,11.386,0,0,1-2.912,5.019c-.2.19-.48.382-.741.284a.752.752,0,0,1-.334-.327,8.129,8.129,0,0,1-1.083-4.424c0-1.381.565-3.112-.02-4.417-.063-.14-.985-1.229-1.251-1.665-.06-.1-.087-.163-.063-.177-.939.562-1.632,1.644-2.848,1.7a2.755,2.755,0,0,1-2.468-1.394c-.183-.377-1.318-2.191-1.064-2.582a.952.952,0,0,1-.063.082,1.685,1.685,0,0,1-1.937.376.772.772,0,0,1-.084-.06c-.491-.395-.281-.87-.219-1.451a5.707,5.707,0,0,0,.1-2.713c-.638-1.489-1.308-2.964-2.035-4.411l-.124-.248c-.613-1.264-.756-2.039.528-3.095a7.08,7.08,0,0,1,1.983-1.289c1.376-.505,2.856-.113,4.329.133.365.061.73.114,1.094.141a26.126,26.126,0,0,1,3.032.149,9.784,9.784,0,0,1,3.089,1.4,10.022,10.022,0,0,1,1.495,1.028,4.091,4.091,0,0,1,.5.524,14.681,14.681,0,0,1,1.028,1.769,39.273,39.273,0,0,0,2.853,3.536,1.116,1.116,0,0,1,.259.525A1.192,1.192,0,0,1,3167.5,1296.67Z" transform="translate(-3146.967 -1286.682)"/></g><g transform="translate(34.134 13.377)"><path class="ae" d="M3320.934,1335.785l.009.189a2.57,2.57,0,0,1,.019-1.172,1.379,1.379,0,0,1,1.135-.9,1.479,1.479,0,0,1,1.333.6,2.427,2.427,0,0,1,.377,1.267,6.053,6.053,0,0,1-.755,3.345" transform="translate(-3320.884 -1333.889)"/></g><g class="af" transform="translate(34.389 13.484)"><path class="ag" d="M3334.189,1342.481a41.341,41.341,0,0,0-1.606,5.338c-.436,1.907-.738,3.848-1.322,5.715a11.39,11.39,0,0,1-2.912,5.019c-.2.19-.479.382-.741.284a.75.75,0,0,1-.334-.327,8.127,8.127,0,0,1-1.084-4.424c0-1.381.565-3.112-.02-4.417-.062-.14-.985-1.229-1.251-1.665,1.3-1.153,2.587-2.322,3.85-3.516-2.047,1.935-2.228,5.671-1.857,8.2a2.472,2.472,0,0,0,2.175,2.041c.653.621.6-.612,1.074-1.379a5.583,5.583,0,0,0,.527-2.62,17.017,17.017,0,0,1,1.05-4.9,10.755,10.755,0,0,0,.789-2.52,2.571,2.571,0,0,0-.853-2.379c-.747-.547-1.813-.469-2.576-.993a2.281,2.281,0,0,1-.919-1.829,2.979,2.979,0,0,1,1.482-2.521,4.087,4.087,0,0,1,.5.524,14.617,14.617,0,0,1,1.028,1.769,39.4,39.4,0,0,0,2.853,3.536,1.116,1.116,0,0,1,.259.525A1.2,1.2,0,0,1,3334.189,1342.481Z" transform="translate(-3324.92 -1335.588)"/></g><g class="af" transform="translate(23.126 10.389)"><path class="ag" d="M3158.116,1292.24c-.317-.367-.645-.314-1.044-.463a6.016,6.016,0,0,0-.9-.413c-.529-.1-1.028.251-1.549.391-1.079.288-2.145-.658-3.108-1.041a5.185,5.185,0,0,0-2.356-.347,2.054,2.054,0,0,0-1.738.944c-.613-1.264-.756-2.039.528-3.095a7.08,7.08,0,0,1,1.983-1.289c1.376-.505,2.856-.113,4.329.133.222.1.442.212.657.326a4.734,4.734,0,0,1,1.436,1.053,5.571,5.571,0,0,1,.816,1.511Q3157.643,1291.1,3158.116,1292.24Z" transform="translate(-3146.967 -1286.682)"/></g><g transform="translate(19.817 0)"><path class="ah" d="M3121.113,1132.606a1.56,1.56,0,0,0-.31.467,2.5,2.5,0,0,0-.179,1.124c0,.032,0,.063.006.094.046.6.225,1.183.3,1.781a5.011,5.011,0,0,1-1.2,3.845,5.506,5.506,0,0,0-.837,1.021,1.779,1.779,0,0,0-.194.949,1.671,1.671,0,0,0,.066.365c-.672.015-.931-.727-1.072-1.384a1.156,1.156,0,0,1-.809.222,7.6,7.6,0,0,1-3.044-.941,4.812,4.812,0,0,1-1.614-1.056c-.5-.566-.745-1.375-1.393-1.761a1.47,1.47,0,0,0-1.6.072,2.733,2.733,0,0,0-.486.932,3.566,3.566,0,0,0-.978-1.517.136.136,0,0,0-.215-.034l-.813.493a2.663,2.663,0,0,1-1.408.367h0a3.716,3.716,0,0,1-2.134-.727c-.461-.342-.831-.8-1.3-1.125a2.909,2.909,0,0,0-2.1-.5l-.186.029a2.008,2.008,0,0,0-1.615.77,9.171,9.171,0,0,0,.465,1.1c.151.368.229.229.256.625a2.609,2.609,0,0,1-.359,1.5c-.068-.042-.079-.3-.147-.339a2.61,2.61,0,0,1-.375.757,1.336,1.336,0,0,1-1.424.42,1.792,1.792,0,0,0,.138-.874,3.008,3.008,0,0,0-.34-.965c-.039-.081-.079-.164-.12-.251a6.317,6.317,0,0,1-.387-4.413c.036-.113.075-.224.118-.332l-.02,0a1.308,1.308,0,0,0-.985,1.03,5.427,5.427,0,0,1-.107-1.439,4.288,4.288,0,0,1,1.057-2.134,3.816,3.816,0,0,1,2.013-1.123c-.027-.1.254-.087.261-.169a.047.047,0,0,0,0-.022,2.422,2.422,0,0,1-.1-.3,3.4,3.4,0,0,1,1.811-3.606,6.234,6.234,0,0,1,3.472-.594c.366.027.73.073,1.087.13q.014-.1.035-.192c.45-1.975,3.469-2.41,5.117-2.356a12.344,12.344,0,0,1,5.608,1.658,10.934,10.934,0,0,1,2.709,1.748,8.558,8.558,0,0,1,1.121,1.5c.149.259.359,1.147.558,1.493a.384.384,0,0,0,.1.123,2.347,2.347,0,0,1-.4-.342,2.318,2.318,0,0,1-.293-.4c.007.052.016.1.026.157a4.881,4.881,0,0,0,1.166,2.226,13.608,13.608,0,0,0,1.136,1.161.506.506,0,0,1,.189.28C3121.405,1132.335,3121.24,1132.476,3121.113,1132.606Z" transform="translate(-3094.693 -1122.54)"/></g><g transform="translate(31.541 3.716)"><path class="e" d="M3279.926,1181.33a2.449,2.449,0,0,1,1.209,0,4.75,4.75,0,0,1,1.139.439q.266.141.519.3c.167.1.333.209.5.321a10.2,10.2,0,0,1,.946.726,6.843,6.843,0,0,1,1.541,1.864,4.97,4.97,0,0,1,.453,1.13,3.612,3.612,0,0,1,.116,1.195,8.223,8.223,0,0,0-1.158-1.937,12.234,12.234,0,0,0-1.541-1.575c-.28-.244-.569-.482-.863-.72l-.444-.357c-.148-.118-.294-.236-.442-.35a7.526,7.526,0,0,0-.916-.621A3.748,3.748,0,0,0,3279.926,1181.33Z" transform="translate(-3279.926 -1181.253)"/></g><g transform="translate(34.585 19.312)"><path class="k" d="M3338.015,1463.339s-3.715,5.361-4.672,4.365-1.646-5.553-1.608-7.276a5.259,5.259,0,0,0-2.145-4.288,6.272,6.272,0,0,1-1.57-2.349c.031-1.079.112-2.261.253-3.558.918-8.439.98-12.649-.179-15.1.088-.1.17-.2.23-.263.162.238.338.5.519.779.249.381.508.789.757,1.193a1.356,1.356,0,0,1-.005.278c-.02.177-.062.364-.081.591a13.13,13.13,0,0,0-.049,1.577,6.462,6.462,0,0,0,.34,2.03c.024.065.05.129.078.192.358.818,1.1,1.43,2.006,1,1.455-.689,1.685-4.288,1.685-5.743,0-1.164,2.157-6.282,3.022-8.286.217-.5.352-.809.352-.809a4.446,4.446,0,0,0,1.374,2.279C3339.549,1431.161,3338.015,1463.339,3338.015,1463.339Z" transform="translate(-3328.02 -1427.668)"/></g><g transform="translate(34.585 19.312)"><path class="n" d="M3338.015,1463.339s-3.715,5.361-4.672,4.365-1.646-5.553-1.608-7.276a5.259,5.259,0,0,0-2.145-4.288,6.272,6.272,0,0,1-1.57-2.349c.031-1.079.112-2.261.253-3.558.918-8.439.98-12.649-.179-15.1.088-.1.17-.2.23-.263.162.238.338.5.519.779l.752,1.471.4.789q-.1,1.705-.193,3.41c-.128,2.27-.6,4.764-.046,6.99.5,1.993.98,4.008,1.414,6.015.355,1.645,1.623,3.051,1.767,4.749.167,1.966-.85,3.537.066,5.524.2.431.548.889,1.021.863s.755-.493.935-.918a14.337,14.337,0,0,0,.534-7.706,63.348,63.348,0,0,1-1.117-7.738c-.037-1.487.12-2.982-.054-4.46a18.968,18.968,0,0,1-.366-3.191,9.707,9.707,0,0,1,.444-2.147q.853-2.976,1.708-5.953a9.483,9.483,0,0,0,.485-4.865c.217-.5.352-.809.352-.809a4.446,4.446,0,0,0,1.374,2.279C3339.549,1431.161,3338.015,1463.339,3338.015,1463.339Z" transform="translate(-3328.02 -1427.668)"/></g><g transform="translate(37.5 37.267)"><path class="j" d="M3374.076,1711.338a29.267,29.267,0,0,0,3.121,9.219" transform="translate(-3374.076 -1711.338)"/></g><g transform="translate(21.398 54.411)"><path class="k" d="M3123.164,1989.137c-1.8-.268-2.987-.23-3.37-.842a.9.9,0,0,1-.1-.335,27.723,27.723,0,0,1,.481-5.269c.045-.276.076-.452.083-.482,0,.006,0,.021-.006.043l3.6.3v.794S3124.964,1989.405,3123.164,1989.137Z" transform="translate(-3119.665 -1982.208)"/></g><g transform="translate(23.126 18.96)"><path class="v" d="M3193.927,1477.192c-.61.82-4.749,2.53-7.921,3.734-2.01.762-3.632,1.321-3.72,1.321a9.558,9.558,0,0,1-4.672-.536c-1.915-.919-3.944-6.625-4.443-8.271s-1.187-4.06-1.571-3.294a1.186,1.186,0,0,1-.789.672,10.934,10.934,0,0,1-3.195.094,31.94,31.94,0,0,1-9.641-2.374c-1.793-.919-11.007-4.212-11.007-4.212.756-1.034.737-6.4,1.388-6.816a22.053,22.053,0,0,1,4.568.3c4.768.547,11.54,1.537,11.54,1.537s2.067-3.96,1.9-4.7a.205.205,0,0,0-.013-.044,12.7,12.7,0,0,1-.523-1.764c-.289-1.694.056-2.158.054-3.71a19.04,19.04,0,0,0-.38-3.4c-.88-4.792.881-15.71,1.63-17.471s.526-6.16.526-6.16c.149.094.316.2.5.305l.115.068.156.092.148.086.271.157.252.145.325.183.112.063.118.066.217.121c.183.1.372.206.566.313l.236.129.32.175c5.042,2.741,12.9,6.7,12.9,6.7,4.672,2.527,6.165,25.236,6.433,26.729s2.489,12.9,2.757,14.092S3194.923,1475.851,3193.927,1477.192Z" transform="translate(-3146.97 -1422.098)"/></g><g transform="translate(43.72 18.89)"><path class="x" d="M3472.34,1421.237a1.071,1.071,0,0,1,.076-.249C3472.437,1421.046,3472.384,1421.145,3472.34,1421.237Z" transform="translate(-3472.34 -1420.988)"/></g><g class="w" transform="translate(43.4 19.668)"><path class="x" d="M3471.829,1446.042a7.094,7.094,0,0,1-.183,2.248,44.677,44.677,0,0,1-2.993,10.714,19.366,19.366,0,0,1-1.372,2.455c.535-.809.151-3.587.2-4.587q.107-2.414.221-4.828.2-4.162.419-8.323a.063.063,0,0,1,0-.015c.018-.358.038-.716.057-1.074q.13-2.413.268-4.825c.062-1.084-.119-3.176.448-4.527l.252.144.325.184.112.063.118.066.217.121c.183.1.372.206.566.313l.235.129.32.175a11.839,11.839,0,0,1,.635,1.5c.665,1.861,1.754,6.724-1.45,6.918A7.1,7.1,0,0,1,3471.829,1446.042Z" transform="translate(-3467.28 -1433.278)"/></g><g transform="translate(41.423 18.96)"><path class="y" d="M3441.709,1435c.224.525-.1,1.517-.168,2.065q-.149,1.193-.317,2.382a44.223,44.223,0,0,1-1.391,7.84c-.145.432-.291.846-.436,1.247-.776,2.149-1.536,3.939-2.246,6.111a.205.205,0,0,0-.013-.044,12.732,12.732,0,0,1-.523-1.764c-.432-2.534.554-2.314-.326-7.105s.88-15.71,1.63-17.471.526-6.16.526-6.16c.149.094.316.2.5.305l.115.068.156.092.148.086.271.157.252.145.325.183.112.063.118.066.217.121.567.313.235.129a26.65,26.65,0,0,0,.922,7.532c-1.3.13-2.406,1.188-3.521,1.875l-.042.026a.1.1,0,0,1,.041-.011A7.586,7.586,0,0,1,3441.709,1435Z" transform="translate(-3436.048 -1422.098)"/></g><g class="w" transform="translate(46.969 45.846)"><path class="x" d="M3538.864,1878.829c-2.01.762-3.632,1.321-3.721,1.321a9.561,9.561,0,0,1-4.672-.536c-1.915-.919-3.944-6.625-4.442-8.271s-1.187-4.06-1.571-3.294a1.184,1.184,0,0,1-.788.671,16.262,16.262,0,0,1,1.032-1.348c1.782-2.141,3.734-4.144,5.382-6.39a17.737,17.737,0,0,0,3.215-6.645c.934-1.594,1.82-3.309,2.81-4.735a10.858,10.858,0,0,1,2.714-2.715c.114,4.354-1.427,8.565-2.06,12.874-.927,6.308.111,12.775,2.037,18.852C3538.823,1878.686,3538.844,1878.758,3538.864,1878.829Z" transform="translate(-3523.67 -1846.888)"/></g><g transform="translate(47.757 45.639)"><path class="y" d="M3549.109,1843.62c-.766,1.956-1.654,3.857-2.591,5.732s-1.934,3.72-2.993,5.531q-.4.678-.807,1.351l-.825,1.332c-.272.441-.538.894-.825,1.34a14.415,14.415,0,0,1-.926,1.313,10.453,10.453,0,0,1-1.12,1.161c-.387.357-.771.7-1.119,1.071a6.134,6.134,0,0,0-.485.583,6.422,6.422,0,0,0-.4.653c-.126.228-.25.463-.393.687a3.348,3.348,0,0,1-.5.615,5.745,5.745,0,0,0,.667-1.406,5.674,5.674,0,0,1,.328-.735,6.017,6.017,0,0,1,.445-.679c.649-.863,1.451-1.558,2.014-2.375.581-.828,1.059-1.745,1.582-2.661.065-.115.131-.229.2-.344l.2-.337.4-.674q.4-.672.792-1.348l3.149-5.413C3546.956,1847.214,3548.01,1845.41,3549.109,1843.62Z" transform="translate(-3536.126 -1843.62)"/></g><g transform="translate(37.994 79.156)"><path class="e" d="M3381.868,2375.422c2.306.02,4.606.091,6.9.121s4.593.047,6.886.008c.287,0,.573-.012.86-.018s.573-.012.859-.024l.859-.027.859-.037c.573-.019,1.145-.06,1.717-.086l.858-.057c.286-.017.573-.035.857-.059a18.179,18.179,0,0,0,3.365-.52,9.492,9.492,0,0,0,1.607-.554,4.551,4.551,0,0,0,.736-.423,3.524,3.524,0,0,0,.636-.573,3.32,3.32,0,0,1-.568.657,4.664,4.664,0,0,1-.71.515,6.507,6.507,0,0,1-.783.4c-.268.114-.538.223-.814.319a14.016,14.016,0,0,1-1.688.464c-.286.061-.573.113-.86.158s-.575.087-.863.122c-.575.073-1.149.126-1.724.185s-1.151.1-1.728.135c-.288.019-.576.038-.865.053l-.865.04c-.289.014-.577.02-.866.029s-.577.019-.866.022q-3.465.057-6.921-.164C3386.448,2375.96,3384.152,2375.74,3381.868,2375.422Z" transform="translate(-3381.868 -2373.172)"/></g><g transform="translate(6.896 46.061)"><g transform="translate(10.135 0.978)"><g transform="translate(0.037 0.04)"><path class="h" d="M3051.441,1869.349c-.052.016-.1.029-.147.039l-.039-.209a13.957,13.957,0,0,0,3.292-1.979.183.183,0,0,0,.073-.2l-.179-.583.229-.07.179.583a.4.4,0,0,1-.159.431A15.2,15.2,0,0,1,3051.441,1869.349Z" transform="translate(-3051.255 -1866.347)"/></g><path class="h" d="M3050.725,1868.84l-.05-.271.03-.006a13.928,13.928,0,0,0,3.279-1.974.152.152,0,0,0,.062-.165l-.188-.613.29-.089.188.613a.429.429,0,0,1-.17.466,15.307,15.307,0,0,1-3.26,1.993h0c-.053.016-.1.03-.15.039Zm.023-.222.027.147c.035-.008.073-.019.112-.031a15.258,15.258,0,0,0,3.241-1.983.365.365,0,0,0,.147-.4l-.17-.552-.168.052.17.553a.215.215,0,0,1-.085.234A14.336,14.336,0,0,1,3050.749,1868.618Z" transform="translate(-3050.675 -1865.722)"/></g><g transform="translate(0 0)"><path class="p" d="M2905.031,1851.249a2.011,2.011,0,0,1-.439.272c-.682.365-2.106,1.04-3.918,1.8a66.792,66.792,0,0,1-9.274,3.191l-.849-.044.609-.555s3.391-1.622,6.85-3.137a58.56,58.56,0,0,1,6.119-2.4c.142-.04.273-.073.392-.1C2904.521,1850.279,2905.172,1851,2905.031,1851.249Z" transform="translate(-2890.55 -1850.279)"/></g><g transform="translate(13.578)"><path class="h" d="M3105.985,1851.246a1.953,1.953,0,0,1-.439.272,4.3,4.3,0,0,0-.464-1.143c.142-.04.273-.073.392-.1C3105.474,1850.276,3106.126,1851,3105.985,1851.246Z" transform="translate(-3105.082 -1850.276)"/></g></g><g class="ai" transform="translate(6.819 48.529)"><g transform="translate(0.077 0.032)"><path class="h" d="M2900.674,1890.334a66.76,66.76,0,0,1-9.274,3.19l-.849-.044.609-.555s3.391-1.622,6.85-3.138A13.593,13.593,0,0,1,2900.674,1890.334Z" transform="translate(-2890.55 -1889.788)"/></g><path class="h" d="M2890.257,1893.078l-.93-.048.673-.611c.034-.016,3.431-1.64,6.852-3.138l.007,0h.008a13.628,13.628,0,0,1,2.67.547l.083.026-.08.034a68.08,68.08,0,0,1-9.279,3.192Zm-.775-.1.769.04a67.85,67.85,0,0,0,9.185-3.154,13.587,13.587,0,0,0-2.567-.518c-3.362,1.473-6.7,3.066-6.838,3.132Z" transform="translate(-2889.327 -1889.278)"/></g><g transform="translate(7.095 48.755)"><path class="ae" d="M2908.028,1904.245c-1.65-.656-3.911-.426-5.437-1.026a13.654,13.654,0,0,1-3.095-1.98c-.482-.388-.8-.672-.8-.672a2.082,2.082,0,0,0-.875-.361c-.593-.1-1.266-.075-1.629-.659-.051-.081-.561-.787-.274-.787a.424.424,0,0,1-.391-.22,1.748,1.748,0,0,1,.089-1.429.443.443,0,0,1-.424-.1.873.873,0,0,1-.24-.381,1.729,1.729,0,0,1-.076-.824c-.683.479-1.219-.771-1.183-.791a11.512,11.512,0,0,0,1.612-1.221,3.913,3.913,0,0,1,1.768-.947,3.519,3.519,0,0,1,.9.084c.346.033.7.021,1.041.069q.711.1,1.42.206a11.73,11.73,0,0,1,2.036.361c.437.151,2.547,3.452,3.1,4.07a5.792,5.792,0,0,0,1.8.939c.449.17.872.311,1.131.4A27.7,27.7,0,0,0,2908.028,1904.245Z" transform="translate(-2893.693 -1892.838)"/></g><g transform="translate(9.328 54.677)"><path class="aj" d="M2928.968,1986.4a7.4,7.4,0,0,0,2.594,0" transform="translate(-2928.968 -1986.402)"/></g><g transform="translate(9.022 52.116)"><path class="aj" d="M2924.127,1946.864a4.952,4.952,0,0,1,.75-.456,6.263,6.263,0,0,1,.805-.34c.071-.023.141-.045.216-.065.037-.01.075-.019.116-.025a.991.991,0,0,1,.119-.016,2.5,2.5,0,0,1,.454,0,3.247,3.247,0,0,1,.863.194c-.294.042-.582.06-.862.088-.14.014-.279.029-.408.053-.032.006-.064.012-.094.02s-.062.016-.094.026c-.064.019-.131.041-.2.064-.267.089-.539.181-.816.261A6.444,6.444,0,0,1,2924.127,1946.864Z" transform="translate(-2924.127 -1945.952)"/></g><g transform="translate(8.28 50.228)"><path class="aj" d="M2912.415,1917.608a3.348,3.348,0,0,1,.27-.454,3.831,3.831,0,0,1,.332-.413,2.652,2.652,0,0,1,.405-.362,1.2,1.2,0,0,1,.119-.077c.021-.012.04-.025.062-.036l.068-.032.068-.031.077-.023c.025-.007.052-.016.076-.021l.069-.011a4.839,4.839,0,0,1,1.063-.015,5.75,5.75,0,0,1,1.034.174c-.349.055-.694.083-1.036.109s-.687.041-1,.087l-.058.009c-.019,0-.032.009-.049.013l-.047.013-.051.021-.051.021c-.017.007-.033.018-.051.027-.034.019-.068.035-.1.057a3.993,3.993,0,0,0-.4.285C2912.943,1917.155,2912.688,1917.384,2912.415,1917.608Z" transform="translate(-2912.415 -1916.11)"/></g><g transform="translate(2.419 53.285)"><path class="ae" d="M2829.058,1969.948a1.841,1.841,0,0,1-.175.771.41.41,0,0,1-.157.2.444.444,0,0,1-.259.028,11.833,11.833,0,0,0-1.263-.138,2.269,2.269,0,0,1-.537-.021.489.489,0,0,1-.384-.338.264.264,0,0,0-.041-.128.175.175,0,0,0-.114-.048c-.37-.049-1.05.154-1.286-.252-.073-.127-.015-.238-.157-.33s-.382-.022-.545-.112c-.274-.152-.528-.337-.8-.488a1.65,1.65,0,0,1-.681-.565,1.715,1.715,0,0,1-.192-.875,5.866,5.866,0,0,1-.69-.08,1.306,1.306,0,0,1-.795-.488,6.4,6.4,0,0,1-.887-1.541c-.459-1.16-.23-.937-.23-.937a.693.693,0,0,1,.593-.182,3.734,3.734,0,0,1,1.3.469c.053,0,.258.051.311.052a2.017,2.017,0,0,0,.651.71c.142.108.29.21.43.316.287.218.551.467.823.7.094.082.191.162.289.24a11.9,11.9,0,0,0,1.133.758l2.314,1.422.7.428c.062.038.121.077.179.115C2828.741,1969.74,2828.888,1969.843,2829.058,1969.948Z" transform="translate(-2819.803 -1964.419)"/></g><g transform="translate(4.885 54.602)"><path class="aj" d="M2860.732,1987.678a3.4,3.4,0,0,0-.316-1.17,2.146,2.146,0,0,0-.152-.248c-.028-.039-.057-.077-.088-.115a.548.548,0,0,0-.044-.052.655.655,0,0,0-.047-.047,2.078,2.078,0,0,0-.22-.181,2.153,2.153,0,0,0-.243-.153,1.206,1.206,0,0,0-.25-.108.446.446,0,0,0-.214-.021l-.01,0h0s0,0,0,0,0,0,0,0-.005.007-.009.011a.418.418,0,0,0-.041.1,1.784,1.784,0,0,0-.046.281c-.019.2-.024.407-.032.615-.006.1-.008.21-.015.315a2.1,2.1,0,0,1-.037.316c-.008-.052-.018-.1-.03-.155l-.032-.154c-.022-.1-.042-.206-.062-.31a4.547,4.547,0,0,1-.074-.636,1.689,1.689,0,0,1,.02-.341.675.675,0,0,1,.065-.195.33.33,0,0,1,.035-.054.326.326,0,0,1,.12-.1l.019-.009.014,0,.027-.008a.748.748,0,0,1,.4.008,1.5,1.5,0,0,1,.326.134,2.166,2.166,0,0,1,.536.413,1.145,1.145,0,0,1,.111.139,1.642,1.642,0,0,1,.09.142,1.959,1.959,0,0,1,.231.625,2.019,2.019,0,0,1,.035.326A2.518,2.518,0,0,1,2860.732,1987.678Z" transform="translate(-2858.764 -1985.23)"/></g><g transform="translate(7.358 56.597)"><path class="aj" d="M2897.9,2018.706a1.915,1.915,0,0,1-.063-.554,2.054,2.054,0,0,1,.088-.551,1.618,1.618,0,0,1,.259-.508,1.038,1.038,0,0,1,.451-.35c-.08.176-.147.331-.206.49s-.111.315-.161.475-.1.324-.153.491A2.821,2.821,0,0,1,2897.9,2018.706Z" transform="translate(-2897.841 -2016.743)"/></g><g transform="translate(8.841 57.661)"><path class="aj" d="M2921.265,2034.986a1.534,1.534,0,0,1,.136-.446,2.273,2.273,0,0,1,.228-.385,2.3,2.3,0,0,1,.3-.336,1.519,1.519,0,0,1,.382-.266,1.721,1.721,0,0,1-.157.437,2.794,2.794,0,0,1-.232.376,2.742,2.742,0,0,1-.287.336A1.73,1.73,0,0,1,2921.265,2034.986Z" transform="translate(-2921.265 -2033.553)"/></g><g transform="translate(25.92 16.131)"><g transform="translate(4.092 6.58)"><path class="ah" d="M3255.944,1483.607a.18.18,0,0,1-.025-.357,2.108,2.108,0,0,0,1.708-1.737.179.179,0,0,1,.351.073,2.462,2.462,0,0,1-2.008,2.019Z" transform="translate(-3255.765 -1481.37)"/></g><path class="ah" d="M3195.841,1378.042a5.181,5.181,0,0,0-2.316-.637,4.3,4.3,0,0,0-1.812.348c-.219.095-.719.236-.573.586.13.31.558.18.791.1.386-.128.784-.26,1.181-.361A5.5,5.5,0,0,1,3195.841,1378.042Z" transform="translate(-3191.114 -1377.403)"/><g transform="translate(1.088 2.073)"><g transform="translate(0 0)"><ellipse class="ah" cx="0.609" cy="0.68" rx="0.609" ry="0.68" transform="translate(0 0.432) rotate(-20.773)"/></g></g><g transform="translate(1.017 1.893)"><path class="ah" d="M3209.453,1407.439a2.755,2.755,0,0,0-.329-.078c-.11-.02-.22-.035-.329-.045a2.625,2.625,0,0,0-.651.02,2.587,2.587,0,0,0-.32.067.847.847,0,0,0-.293.152,1.044,1.044,0,0,0-.23.262.987.987,0,0,0-.128.356l.023.021c.086-.07.164-.136.246-.193a2.756,2.756,0,0,1,.25-.152l.257-.137a1.409,1.409,0,0,1,.272-.119,2.209,2.209,0,0,1,.294-.071,2.933,2.933,0,0,1,.305-.043,3.631,3.631,0,0,1,.633-.007Z" transform="translate(-3207.174 -1407.304)"/></g><g class="l" transform="translate(3.494 1.83)"><g transform="translate(0 0)"><ellipse class="ak" cx="2.605" cy="1.29" rx="2.605" ry="1.29" transform="translate(0 2.086) rotate(-23.61)"/></g></g><g class="al" transform="translate(6.478 2.142)"><g transform="translate(0 0)"><g transform="translate(0)"><ellipse class="k" cx="0.344" cy="0.376" rx="0.344" ry="0.376" transform="translate(0 0.275) rotate(-23.61)"/></g></g></g></g><g transform="translate(52.059 79.392)"><path class="e" d="M3618.9,2384.569s.148,5.553-.673,7.2-.476,2.182-3.616,2.987-9.267.88-10.033.536c-.328-.147-.509-.753-.484-1.47,2.1-.14,4.2-.286,6.292-.461s4.735-.2,6.089-1.956a8.351,8.351,0,0,0,1.456-5.848c-.206-1.789.792-2.141,1.357-3.579a28.607,28.607,0,0,0,1.342-5.091,1.043,1.043,0,0,1,.261.253C3621.622,2378.213,3621.277,2382.157,3618.9,2384.569Z" transform="translate(-3604.095 -2376.888)"/></g><g transform="translate(2.968 91.276)"><path class="e" d="M2853.321,2567.349c-.727.8-5.437.919-6.2.613s-1-1.378-1.532-1.225a10.461,10.461,0,0,0-1.915,1.225l-14.4-.459s-.9.145-.779-1.677c3.492.3,7,.457,10.5.5,2.561.031,5.123,0,7.682-.078a18.053,18.053,0,0,0,6.761-1.585A5.268,5.268,0,0,1,2853.321,2567.349Z" transform="translate(-2828.482 -2564.659)"/></g><g class="w" transform="translate(28.799 43.785)"><path class="x" d="M3252.777,1819.141q-.131,2.047-.375,4.084c-.174,1.456-.478,3.06-1.644,3.948-1.3.994-3.138.7-4.747.385-2.985-.585-6.014-.931-9.008-1.433a.485.485,0,0,1-.135-.912l.014-.007c4.768.547,11.54,1.537,11.54,1.537s2.067-3.96,1.9-4.7a.223.223,0,0,0-.013-.044,12.7,12.7,0,0,1-.523-1.764c-.29-1.694.056-2.158.054-3.71.139-.72.26-1.451.359-2.2Z" transform="translate(-3236.599 -1814.319)"/></g><g transform="translate(12.898 54.497)"><path class="ag" d="M2993.9,1989.234c-1.65-.656-3.911-.426-5.437-1.026a13.662,13.662,0,0,1-3.1-1.98,11.812,11.812,0,0,0,1.971,1.126c2.743,1.042,5.033-1.342,5.911-3.785.449.17.872.311,1.131.4A27.745,27.745,0,0,0,2993.9,1989.234Z" transform="translate(-2985.37 -1983.569)"/></g><g transform="translate(3.07 53.289)"><path class="ag" d="M2832.257,1965.716a.043.043,0,0,1-.025.034.614.614,0,0,0-.2.249l-.635,1.168a20.023,20.023,0,0,0-1.312-2.69,2.409,2.409,0,0,1,1.207.608C2831.449,1965.192,2832.27,1965.568,2832.257,1965.716Z" transform="translate(-2830.086 -1964.478)"/></g><g transform="translate(6.588 55.54)"><path class="ag" d="M2890.506,2003.74a19.74,19.74,0,0,1-1.7-1.146c-.526-.335-.5-.9-1.1-1.044a2.466,2.466,0,0,0-1.237,1.076c-.262-.128-.306-.474-.335-.764a6.515,6.515,0,0,0-.458-1.824q.142.123.289.24a11.89,11.89,0,0,0,1.134.758l2.314,1.422.7.428c.062.038.122.076.179.115A4.981,4.981,0,0,1,2890.506,2003.74Z" transform="translate(-2885.67 -2000.038)"/></g><g class="af" transform="translate(25.946 22.806)"><path class="ag" d="M3193.468,1483.576a1.685,1.685,0,0,1-1.937.376,3.347,3.347,0,0,0,1.895-1.094A4.505,4.505,0,0,0,3193.468,1483.576Z" transform="translate(-3191.531 -1482.858)"/></g><g transform="translate(21.534 12.611)"><path class="e" d="M3124.125,1324.451a2.61,2.61,0,0,1-.359,1.5c-.069-.042-.079-.3-.147-.339a2.612,2.612,0,0,1-.375.757,1.337,1.337,0,0,1-1.424.42,1.8,1.8,0,0,0,.138-.874,4.538,4.538,0,0,0,.571-1.972,2.317,2.317,0,0,1,2.481-2.133l.008.153a2.007,2.007,0,0,0-1.615.77,9.208,9.208,0,0,0,.465,1.1C3124.021,1324.194,3124.1,1324.054,3124.125,1324.451Z" transform="translate(-3121.821 -1321.789)"/></g><g transform="translate(20.589 8.116)"><path class="e" d="M3112.176,1250.778c-1.228.727-2.539,1.081-3.581,2.175a5.2,5.2,0,0,0-1.138,4.258c.049.4.111.8.172,1.2-.039-.081-.079-.164-.12-.251a6.316,6.316,0,0,1-.387-4.413,7.933,7.933,0,0,1,.838-1.53C3108.934,1250.916,3110.653,1250.694,3112.176,1250.778Z" transform="translate(-3106.885 -1250.762)"/></g><g transform="translate(23.06 6.49)"><path class="e" d="M3151.8,1227.1c-1.311-.288-2.458-1.249-3.753-1.619a3.59,3.59,0,0,0-2.016.051.054.054,0,0,0,0-.022,2.4,2.4,0,0,1-.1-.3,10.887,10.887,0,0,1,2.2-.124A5.36,5.36,0,0,1,3151.8,1227.1Z" transform="translate(-3145.93 -1225.085)"/></g><g transform="translate(31.99 10.651)"><path class="e" d="M3287.02,1290.828a2.664,2.664,0,0,1,.612,1.182C3287.417,1291.618,3287.2,1291.226,3287.02,1290.828Z" transform="translate(-3287.02 -1290.828)"/></g><g transform="translate(28.343 2.36)"><path class="e" d="M3233.555,1161.886c-1.477.018-2.84-1.248-4.165-2,.366.026.73.073,1.087.13.01-.065.021-.129.035-.192a2.99,2.99,0,0,1,.793.308C3231.808,1160.419,3233.641,1161.249,3233.555,1161.886Z" transform="translate(-3229.39 -1159.828)"/></g><g transform="translate(30.454 11.833)"><path class="e" d="M3275.88,1315.962a2.055,2.055,0,0,0,.07.768.927.927,0,0,0,.155.28,1.719,1.719,0,0,0,.065.365c-.672.015-.931-.727-1.072-1.384a1.156,1.156,0,0,1-.809.222,7.6,7.6,0,0,1-3.044-.941,4.817,4.817,0,0,1-1.614-1.056c-.5-.567-.744-1.375-1.393-1.761a1.472,1.472,0,0,0-1.6.072,2.739,2.739,0,0,0-.486.932,3.569,3.569,0,0,0-.978-1.517.137.137,0,0,0-.215-.034l-.813.493a2.665,2.665,0,0,1-1.408.367,2.756,2.756,0,0,0,2.037-1.637,2.708,2.708,0,0,0,.113-1.631,16.176,16.176,0,0,1,.844,1.685c.146.364.189.852.549.985.834.308,1.531-.28,2.432.232.822.466,1.718.746,2.517,1.282,1.163.782,2.685,1.414,3.766.019a3.255,3.255,0,0,0,.545-2.358,5.742,5.742,0,0,0,.473,1.016C3276.5,1313.5,3275.932,1314.788,3275.88,1315.962Z" transform="translate(-3262.74 -1309.498)"/></g><g transform="translate(44.506 8.261)"><path class="e" d="M3484.82,1253.512a1.262,1.262,0,0,1-.051-.454C3484.781,1253.213,3484.8,1253.363,3484.82,1253.512Z" transform="translate(-3484.764 -1253.058)"/></g><g transform="translate(44.281 6.187)"><path class="e" d="M3481.21,1220.3c.091.073.191.149.3.22a.386.386,0,0,0,.1.123A2.327,2.327,0,0,1,3481.21,1220.3Z" transform="translate(-3481.21 -1220.298)"/></g><g transform="translate(37.588 2.705)"><path class="e" d="M3382.694,1170.56c-1.137-.8-1.264-2.024-2.237-2.974a8.983,8.983,0,0,0-5-2.255c1.789-.074,3.236-.216,4.654,1.021.72.627,1.09,1.486,1.742,2.146l.031.03a4.877,4.877,0,0,0,1.166,2.226A2.708,2.708,0,0,1,3382.694,1170.56Z" transform="translate(-3375.46 -1165.285)"/></g><g transform="translate(44.562 8.715)"><path class="e" d="M3486.827,1263.179a7.426,7.426,0,0,1-1.187-2.941,3.544,3.544,0,0,0,1.365,1.816A2.505,2.505,0,0,0,3486.827,1263.179Z" transform="translate(-3485.64 -1260.238)"/></g><g transform="translate(43.348 0.965)"><path class="ah" d="M3466.5,1137.792a3.569,3.569,0,0,1,.544.2,3.959,3.959,0,0,1,.511.283,4.679,4.679,0,0,1,.889.771,6.062,6.062,0,0,1,.69.961,8.619,8.619,0,0,1,.506,1.063c.144.362.283.732.408,1.086s.224.7.329,1.025c.025.083.053.163.082.243l.043.118.048.116a3.95,3.95,0,0,0,.227.451,2.707,2.707,0,0,0,.7.8l-.027.085a1.511,1.511,0,0,1-.608-.128,2.1,2.1,0,0,1-.539-.337,2.762,2.762,0,0,1-.433-.467c-.063-.085-.12-.175-.175-.265s-.1-.182-.147-.275a4.5,4.5,0,0,1-.356-1.131c-.071-.375-.127-.734-.23-1.086a7.953,7.953,0,0,0-.359-1.026,5.555,5.555,0,0,0-.51-.953,4.088,4.088,0,0,0-1.623-1.442Z" transform="translate(-3466.467 -1137.792)"/></g></g><g transform="translate(146.731 0)"><g transform="translate(0 0)"><g transform="translate(0 0)"><g transform="translate(0 0)"><path class="am" d="M2837.584,628.629a1.529,1.529,0,0,1-.615-.119c-5.314-2.23-7.866-5.446-9.071-7.752a7.9,7.9,0,0,1-.894-3.667l-.162-10.485a1.527,1.527,0,0,1,2.013-1.471,7.444,7.444,0,0,0,2.493.377,10.579,10.579,0,0,0,5.035-1.5,1.534,1.534,0,0,1,1.646-.023,10.576,10.576,0,0,0,5.075,1.345,7.447,7.447,0,0,0,2.48-.454,1.526,1.526,0,0,1,2.056,1.408l.162,10.485a7.9,7.9,0,0,1-.78,3.692c-1.133,2.342-3.584,5.636-8.828,8.029A1.526,1.526,0,0,1,2837.584,628.629Z" transform="translate(-2826.842 -603.757)"/></g></g><g transform="translate(4.942 6.177)"><g transform="translate(0 0)"><path d="M2867.786,607.71a1.288,1.288,0,0,1-.882-.329l-2.64-2.362a1.293,1.293,0,0,1,1.724-1.927l1.756,1.572,6.28-6.011a1.293,1.293,0,0,1,1.769,1.885l-7.144,6.822A1.288,1.288,0,0,1,2867.786,607.71Z" transform="translate(-2863.833 -598.303)"/></g></g></g></g></g></g></g></svg>