<svg xmlns="http://www.w3.org/2000/svg" width="14.775" height="10.158" viewBox="0 0 14.775 10.158"><defs><style>.a{fill:#eb6874;}</style></defs><g transform="translate(0 -80)"><g transform="translate(9.794 81.873)"><path class="a" d="M339.392,148.178l4.981,3.149V144.9Z" transform="translate(-339.392 -144.896)"/></g><g transform="translate(0 81.873)"><path class="a" d="M0,144.9v6.431l4.981-3.149Z" transform="translate(0 -144.896)"/></g><g transform="translate(0.028 80)"><g transform="translate(0 0)"><path class="a" d="M14.784,80H1.856a.912.912,0,0,0-.9.786l7.36,4.849,7.36-4.849A.912.912,0,0,0,14.784,80Z" transform="translate(-0.96 -80)"/></g></g><g transform="translate(0.03 85.711)"><path class="a" d="M9.943,277.921l-1.307.861a.464.464,0,0,1-.508,0l-1.307-.862-5.8,3.667a.911.911,0,0,0,.894.779H14.846a.911.911,0,0,0,.894-.779Z" transform="translate(-1.024 -277.92)"/></g></g></svg>