<svg xmlns="http://www.w3.org/2000/svg" xmlns:xlink="http://www.w3.org/1999/xlink" width="522.019" height="374.655" viewBox="0 0 522.019 374.655"><defs><style>.a{fill:#d2e9f7;}.b{fill:#081d3c;}.c{fill:#98bdea;}.d{fill:#1b1b8e;}.e{fill:#85bce5;}.f{fill:#2e4e49;}.g{fill:#9bccea;}.h{fill:#bce4f7;}.i{fill:#6aa7e2;}.j{fill:#ffeef3;}.k{fill:#f8b3a3;}.l{fill:#ff4d84;}.m{fill:#26217d;}.n{fill:#120974;}.o,.x{fill:#fff;}.p{fill:#ed4370;}.q{fill:#f7c1c1;}.r{fill:#5d83ce;}.s{fill:#5282ce;}.aa,.t{fill:#d9ebf9;}.u{fill:#071c3b;}.v{clip-path:url(#a);}.w{opacity:0.41;}.x,.y{opacity:0.14;}.z{opacity:0.21;}.aa{stroke:#0c2242;}.ab{clip-path:url(#b);}.ac{opacity:0.39;}.ad{opacity:0.51;}.ae{clip-path:url(#c);}.af{fill:#26437e;}.ag{fill:#456bc0;}.ah{fill:#5d95ce;}.ai{fill:#7caae0;}.aj{opacity:0.38;}.ak{fill:rgba(71,9,6,0.66);}.al{clip-path:url(#d);}.am{fill:#abae4e;}.an{clip-path:url(#e);}.ao{fill:#5c87c6;}.ap{opacity:0.48;}.aq{fill:#3d5c57;}.ar{clip-path:url(#f);}.as{clip-path:url(#g);}.at{opacity:0.59;}.au{opacity:0.33;}.av{clip-path:url(#h);}.aw{fill:#80aee0;}.ax{clip-path:url(#i);}.ay{opacity:0.13;}.az{fill:#5094cc;}.ba{clip-path:url(#j);}.bb{fill:#4949a5;}.bc{clip-path:url(#k);}.bd{fill:#f9e1e6;}.be{clip-path:url(#l);}.bf{fill:#e26a6a;}.bg{clip-path:url(#m);}.bh{fill:#ef2577;}.bi{fill:#e8256b;}.bj{clip-path:url(#n);}.bk{clip-path:url(#o);}.bl{fill:#558ad8;}.bm{clip-path:url(#p);}.bn{clip-path:url(#q);}.bo{clip-path:url(#r);}.bp{clip-path:url(#s);}.bq{opacity:0.65;}.br{fill:#000049;}.bs{clip-path:url(#t);}.bt{clip-path:url(#u);}.bu{opacity:0.67;}.bv{fill:#070644;}.bw{fill:#ff5876;}.bx{clip-path:url(#v);}.by{fill:#fbd2da;}.bz{fill:#ffbbcb;}.ca{clip-path:url(#w);}.cb{clip-path:url(#x);}.cc{fill:#f98ca6;}.cd{fill:none;stroke:#fff;stroke-linecap:round;stroke-linejoin:round;stroke-width:13px;}.ce{fill:#c92b5b;}.cf{clip-path:url(#y);}.cg{fill:#090653;}.ch{clip-path:url(#z);}.ci{opacity:0.17;}.cj{fill:#f5838d;}.ck{opacity:0.54;}.cl{clip-path:url(#aa);}.cm{fill:#272e49;}.cn{fill:#af1e37;}.co{opacity:0.58;}.cp{fill:#afc4e2;}.cq{clip-path:url(#ab);}.cr{fill:#4f4085;}.cs{fill:#091d3b;stroke:#234579;}.ct{fill:#fed45c;stroke:#fed45c;stroke-width:2px;}</style><clipPath id="a"><path class="a" d="M1536.551,571.952c13.8-49.8,61.314-73.323,141.163-99.458s193.784,27.224,195.931,99.458-59,104.974-116.083,87.479-60.612-36.7-101.625-21.616S1519.153,634.749,1536.551,571.952Z" transform="translate(-1534.461 -465.752)"/></clipPath><clipPath id="b"><path class="b" d="M756.36,1912.5c27.129-10.841,87.25-15.078,131.074-14.074s224.444-2.09,285.59,16.1,75.168,49.883,59.317,74.788-64.746,51.174-145.705,41.4c-75.007-9.056-109.763-15.815-162.947-4.528-49.176,10.436-165.043-9.218-189.734-51.928C712.379,1936.928,735.327,1920.9,756.36,1912.5Z" transform="translate(-725.282 -1898.28)"/></clipPath><clipPath id="c"><path class="c" d="M835.479,1924.417c-6.241-21.9,19.679-40.942,70.686-47.516s100.733-1.231,130.869,17.79,19.229,46.347-13.973,54.518-78.7,10.6-124.583,5.552S839.344,1937.983,835.479,1924.417Z" transform="translate(-834.564 -1874.217)"/></clipPath><clipPath id="d"><path class="d" d="M1375.263,958.04s-17.451-102.316,26.51-176.365c0,0,10.933,1.633,15.47,4.719,0,0-21.272,37.841-22.386,77.588S1397.418,956,1397.418,956,1386.393,969.443,1375.263,958.04Z" transform="translate(-1371.845 -781.675)"/></clipPath><clipPath id="e"><path class="e" d="M1604.538,484.531s12.384-51.181,42.26-58.259,55.738,14.984,60.635,44.375-11.705,51.181-20.416,37.024-9.207-52.542-26.108-50.636-52.288,30.488-52.288,30.488Z" transform="translate(-1604.538 -424.941)"/></clipPath><clipPath id="f"><path class="f" d="M1141.971,432.72s15.7-30.488,9.073-56.623-55.077-19.428-76.581,12.745-23.138,53.136-8.438,55.042,27.507-26.477,39.954-35.456,30.276-17.908,30,24.292Z" transform="translate(-1056.403 -360)"/></clipPath><clipPath id="g"><path class="g" d="M1619.65,632.8s13.55-40.652,73.375-35.207,72.662,46.98,59.1,49.682-35.206-23.184-72.226-21.369-58.071,8.891-58.071,8.891Z" transform="translate(-1619.65 -597.091)"/></clipPath><clipPath id="h"><path class="g" d="M967.663,573.136s-5.581-28.058-43.432-35.953-74.327-2.269-70.789,19.42,53.761-1.361,82.207,7.26,28.582,12.523,28.582,12.523Z" transform="translate(-853.205 -533.787)"/></clipPath><clipPath id="i"><path class="h" d="M1160.878,754.34s-13.237-18.331-34.6-1.815-59.475,55.9-37.517,59.348,30.85-13.612,42.465-30.854,24.647-28.313,29.654-24.864Z" transform="translate(-1082.16 -745.628)"/></clipPath><clipPath id="j"><ellipse class="i" cx="13.117" cy="14.722" rx="13.117" ry="14.722"/></clipPath><clipPath id="k"><path class="j" d="M1691.889,1738.253a26.76,26.76,0,0,1,3.07,1.18s21.066-14.61,31.954-14.882,13.883,30.309,15.607,38.748c0,0,.907,7.35-12.431,7.441,0,0-4.628-27.768-8.348-27.315s-22.593,14.882-22.593,14.882,23.319,12.523,28.4,16.607,16.6,44.647,16.6,44.647-5.535,8.349-15.879,6.443c0,0-7.168-30.128-13.61-37.206s-39.47-11.8-48.363-21.053l-1.361-4.9a62.235,62.235,0,0,1,4.994-8.464C1674.554,1747.74,1682.168,1739.428,1691.889,1738.253Z" transform="translate(-1664.94 -1724.549)"/></clipPath><clipPath id="l"><path class="k" d="M1962.338,1458.354s8.076,1.361,10.3,1.452,32.136-4.7,35.826-6.519,9.558-9.2,15.365-8.228,2.722,6.292,0,9.68-8.227,4.235-12.582,4.537-31.818,9.74-36.113,10.224-13.369-1.452-13.369-1.452Z" transform="translate(-1961.763 -1444.973)"/></clipPath><clipPath id="m"><path class="l" d="M1603.41,1473.143l-1.074.68s-9.089-.453-13.58,1.5-8.575,11.389-9.754,21.461-.363,27.768,2.5,42.2,11.841,16.606,11.841,16.606,10.224-22.323,28.658-28.312c0,0-2.012-1.921-2.859-12.909a209.073,209.073,0,0,1-.484-20.97l20.446.3s5.142-4.477.968-12.765c0,0-14.593-3.8-18.071-4.7a79.563,79.563,0,0,0-10.424-1.407Z" transform="translate(-1578.48 -1473.143)"/></clipPath><clipPath id="n"><path class="k" d="M1731.979,1395.117a31.932,31.932,0,0,1-.68,12.478s3.456,5.082,9.236,1l.345-4.356-7.358-9.574Z" transform="translate(-1731.298 -1394.664)"/></clipPath><clipPath id="o"><path class="i" d="M1.875,0H47.992a1.874,1.874,0,0,1,1.874,1.874v0a1.874,1.874,0,0,1-1.874,1.874H1.874A1.874,1.874,0,0,1,0,1.875v0A1.875,1.875,0,0,1,1.875,0Z" transform="translate(0 22.456) rotate(-26.765)"/></clipPath><clipPath id="p"><path class="i" d="M1679.488,1208.048l6.789,10.232a.962.962,0,0,1-.247,1.32c-2.727,1.918-12.341,8.376-21.656,10.959a.965.965,0,0,1-1.149-.56l-4.7-11.33a.963.963,0,0,1,.456-1.229l19.269-9.719A.963.963,0,0,1,1679.488,1208.048Z" transform="translate(-1658.452 -1207.617)"/></clipPath><clipPath id="q"><path class="k" d="M1744.447,1330.041a97.069,97.069,0,0,1-.272,12.584c-.6,5.233-2.8,8.757-8,8.485s-8.121-3.675-9.149-8.727c0,0-3.75-1.966-3.3-5.052s3.72-2.269,3.72-2.269,4.809-.181,4.809-2.057c0,0,6.17.151,6.533-2.511C1738.791,1330.495,1743.116,1332.31,1744.447,1330.041Z" transform="translate(-1723.691 -1330.041)"/></clipPath><clipPath id="r"><path class="k" d="M1481.52,1695.261s-3.206,13.046-4.839,19.036-4.991,26.316-7.35,27.95-19.962,3.448-19.055-1.361,11.523-2.359,13.429-4.537,2.813-7.895,4.083-17.332,2.994-24.683,2.994-24.683S1475.017,1697.55,1481.52,1695.261Z" transform="translate(-1450.243 -1694.332)"/></clipPath><clipPath id="s"><path class="m" d="M2964.469,992.689a27.86,27.86,0,0,1,.3-9.867c1.114-6.011,7.145-8.6,13.8-7.4s7.935,4.861,7.935,4.861,6.271.647,5.547,8.309-4.094,14.888-12.181,17.911c-2.107.833-2.524.179-2.524.179Z" transform="translate(-2964.184 -975.137)"/></clipPath><clipPath id="t"><path class="k" d="M2954.678,1033.181s-2.922,10.784-3.987,16.8,6.782,6.065,7.4,7.144,1,7.881,1,7.881,3.722,3.775,8.748-1.139c0,0-1.708-9-.84-11.888s4.891.872,5.957-3.77-3.148-4.152-3.148-4.152-1.568-3.6-1.3-5.943C2968.507,1038.116,2956.51,1038.442,2954.678,1033.181Z" transform="translate(-2950.592 -1033.181)"/></clipPath><clipPath id="u"><path class="n" d="M2645.513,1565.505s-.318,1.316-2.541,1.406-34.752-8.8-38.2,0-6.352,38.567-6.352,38.567l16.073,3.358s4.82-20.01,6.317-25.182,22.8.232,28.286,3.811,6.805,12.285,8.439,27.8l14.563,2.144s6.1-38.04,3.956-48.1l-6.224.455-16.2.136Z" transform="translate(-2598.421 -1563.02)"/></clipPath><clipPath id="v"><path class="o" d="M2760.667,1231.6s6.656,1.838,11.027,3.461,4.229,5.983,6.915,13.578,8.881,24.767,8.881,24.767-5.722,7.827-13.006,3.149l-6.575-20.872-3.884,29.372s-4.462,5.586-16.644,3.436-14.693-6.6-14.693-6.6.128-24.221-.215-28.017l-26.452,8.192a12.116,12.116,0,0,1-2.56-11.731s22.143-9.316,28.053-14.492,17.685-4.042,17.685-4.042Z" transform="translate(-2702.894 -1231.605)"/></clipPath><clipPath id="w"><path class="k" d="M2428.474,1364.68s-19.538,4.364-25.25,3.853-11.171-3.607-17.109-2.936-9.591,8.16,1.514,8.747,13.8.029,13.8.029l28.344-.823S2432.209,1368.157,2428.474,1364.68Z" transform="translate(-2380.456 -1364.68)"/></clipPath><clipPath id="x"><path class="k" d="M3185.08,1527.641s.035,24.317.67,29.351,3.674,8.872-1.249,9.821-12.379.752-9.726-5.739,2.241-6.619,1.915-15.064-1.483-18.023-1.483-18.023Z" transform="translate(-3174.221 -1527.641)"/></clipPath><clipPath id="y"><path class="p" d="M1985.664,734.1s13.6-39.4,67.033-38.853c50.02.508,67.667,38.98,67.667,38.98s-20.44-14.348-44.308.889c0,0-22.344-13.713-45.45.254C2030.606,735.366,2007.5,722.161,1985.664,734.1Z" transform="translate(-1985.664 -695.238)"/></clipPath><clipPath id="z"><path class="q" d="M1124.171,1548.8h-34.812a11.086,11.086,0,0,1-11.085-11.086v-61.526a11.086,11.086,0,0,1,11.085-11.086h34.812a11.086,11.086,0,0,1,11.085,11.086v61.526A11.086,11.086,0,0,1,1124.171,1548.8Z" transform="translate(-1078.274 -1465.097)"/></clipPath><clipPath id="aa"><path class="r" d="M3631.965,1910.051l-20.84-2.565a3.577,3.577,0,0,0-3.987,3.114l-1.5,12.185a3.577,3.577,0,0,0,3.114,3.987l19.816,2.439-.437,3.551a3.577,3.577,0,0,0,3.113,3.987l6.214.765a5.449,5.449,0,0,0,6.073-4.743l.58-4.715c.369-2.995.554-5.437-2.426-5.815l-.226-.029a4.015,4.015,0,0,1-3.494-4.475h0A6.9,6.9,0,0,0,3631.965,1910.051Z" transform="translate(-3605.611 -1907.459)"/></clipPath><clipPath id="ab"><path class="s" d="M2283.336,1791.992c-.544,0,23.047,66.789,46.638,73.142s61.338-6.171,77.671-1.271,15.244,17.786,29.036,18.149,45.368-2.541,55.167,2c0,0,16.877-21.779,21.051-52.088C2512.9,1831.92,2381.512,1792.264,2283.336,1791.992Z" transform="translate(-2283.326 -1791.992)"/></clipPath></defs><g transform="translate(-668 -360)"><g transform="translate(668 360)"><g transform="translate(0 238.713)"><path class="t" d="M683.124,1963.378a1.418,1.418,0,0,1-1.025-.437c-12-12.482-16.371-24.328-12.992-35.207,1.964-6.324,6.57-12.293,13.69-17.743a96.628,96.628,0,0,1,21.331-11.856,173.792,173.792,0,0,1,28.309-8.94,1.423,1.423,0,0,1,.573,2.787,170.685,170.685,0,0,0-27.825,8.8c-12.967,5.432-29.281,14.664-33.361,27.8-3.048,9.814,1.1,20.712,12.326,32.389a1.423,1.423,0,0,1-1.025,2.409Z" transform="translate(-668 -1889.166)"/></g><g transform="translate(135.26 16.509)"><path class="u" d="M1536.551,571.952c13.8-49.8,61.314-73.323,141.163-99.458s193.784,27.224,195.931,99.458-59,104.974-116.083,87.479-60.612-36.7-101.625-21.616S1519.153,634.749,1536.551,571.952Z" transform="translate(-1534.461 -465.752)"/><g class="v"><g class="w" transform="translate(-30.8 1.915)"><g transform="translate(12.501)"><path class="x" d="M1800.983,538.845a171.4,171.4,0,0,1-36.51-4.4c-40.611-8.94-81.173-29.152-101.737-40.4-40.1-21.942-69.209-11.452-106.062,1.829-17.358,6.255-37.032,13.346-59.97,17.464-14.149,2.541-26.851,2.88-37.753,1.01a58.025,58.025,0,0,1-23.631-9.265,46.181,46.181,0,0,1-14.788-16.945,35.6,35.6,0,0,1-3.275-8.976.973.973,0,0,1,1.917-.339h0a34.481,34.481,0,0,0,3.137,8.519,44.241,44.241,0,0,0,14.162,16.173c14.135,9.844,34.284,12.505,59.887,7.908,22.776-4.089,42.368-11.15,59.654-17.379,18.01-6.49,35.021-12.621,52.222-14.193,19.065-1.743,36.679,2.225,55.435,12.488,20.473,11.2,60.846,31.322,101.221,40.21,38.947,8.574,67.38,4.572,84.508-11.894a.973.973,0,1,1,1.349,1.4c-9.281,8.922-21.93,14.349-37.6,16.13A107.821,107.821,0,0,1,1800.983,538.845Z" transform="translate(-1417.243 -478.018)"/></g><g class="y" transform="translate(9.376 51.738)"><path class="o" d="M1775.62,850.574q-1.785,0-3.592-.061a143.268,143.268,0,0,1-38.147-7.073c-20.185-6.414-34.711-11.844-47.527-16.635-12.9-4.82-23.08-8.628-34.583-11.774a91.023,91.023,0,0,0-20.358-3.162c-43.643-1.875-71.368,1.946-120.6,9.436-8.426,1.3-16.933,2.9-25.939,4.586q-3.1.582-6.25,1.168c-22.664,4.172-41.927,4.583-57.254,1.221-12.421-2.724-18.961-7.275-21.754-9.218-.383-.267-.775-.539-1.048-.71a.973.973,0,0,1-1.328-1.066,1.2,1.2,0,0,1,.71-.935c.736-.308,1.376.137,2.778,1.113,16.557,11.52,42.646,14.1,77.542,7.68q3.143-.584,6.246-1.167c9.022-1.691,17.543-3.288,26-4.6,49.361-7.509,77.158-11.339,120.982-9.457a92.933,92.933,0,0,1,20.788,3.229c11.587,3.17,22.322,7.182,34.751,11.828,12.794,4.783,27.3,10.2,47.434,16.6,56.435,17.917,86.113-2.267,103.527-19.008a.973.973,0,1,1,1.349,1.4c-7.639,7.343-19.881,17.72-37.919,23.03A91.287,91.287,0,0,1,1775.62,850.574Z" transform="translate(-1397.223 -809.448)"/></g><g class="y" transform="translate(6.25 86.824)"><path class="o" d="M1763.759,1075.221c-11.033,0-23.394-2.157-36.777-6.422-16.394-5.227-28.655-9.591-38.507-13.1-22.452-7.992-31.745-11.3-47.528-9.764-1.7.165-3.425.3-5.256.439a152.782,152.782,0,0,0-15.8,1.82c-27.612,4.938-47.412,3.116-70.339,1.007-16.32-1.5-33.2-3.054-55.31-2.476a211.772,211.772,0,0,0-33.7,4.027c-25.021,4.739-43.031,7.351-56.181,9.259-8.917,1.293-15.359,2.228-19.5,3.207-3.669.867-5.539,1.793-5.717,2.83a.973.973,0,1,1-1.918-.329c.424-2.47,3.7-3.572,7.187-4.4,4.228-1,10.706-1.939,19.672-3.24,13.133-1.9,31.119-4.513,56.1-9.244a213.7,213.7,0,0,1,34.012-4.061c22.231-.581,39.928,1.047,55.542,2.484,22.786,2.1,42.465,3.907,69.818-.985a154.382,154.382,0,0,1,16-1.845c1.821-.14,3.54-.273,5.217-.436,16.214-1.577,25.628,1.773,48.369,9.868,9.838,3.5,22.083,7.86,38.446,13.077,59.137,18.842,80.171-8.564,92.738-24.938a71.075,71.075,0,0,1,6.284-7.532.973.973,0,0,1,1.349,1.4,69.991,69.991,0,0,0-6.089,7.314c-6.266,8.165-14.849,19.347-29.494,26.128a66.9,66.9,0,0,1-26.927,5.884C1764.88,1075.215,1764.32,1075.221,1763.759,1075.221Z" transform="translate(-1377.202 -1034.202)"/></g><g class="y" transform="translate(3.125 109.054)"><path class="o" d="M1358.157,1245.8a.974.974,0,0,1-.96-1.138c.863-5.029,9.671-12.913,22.44-20.085,11.606-6.518,31.859-15.545,62.441-21.531a130.025,130.025,0,0,1,35.759-2.345c22.024,1.765,38.993,6.619,53.964,10.9,25.07,7.171,44.872,12.836,75.843,1.569l3.369-1.226c7.495-2.73,13.414-4.886,18.36-6.519,19.223-6.351,23.11-5.063,60.3,7.257,8.274,2.742,18.57,6.153,31.009,10.127,30,9.58,53.3,8.282,69.264-3.857,13.184-10.025,18.534-25.2,21.73-34.268,1.42-4.027,2.358-6.687,3.523-7.808a.973.973,0,1,1,1.349,1.4c-.832.8-1.854,3.7-3.036,7.052-3.269,9.273-8.74,24.793-22.388,35.17-7.563,5.751-16.768,9.2-27.36,10.252-12.454,1.237-27.149-.812-43.675-6.09-12.449-3.977-22.751-7.391-31.029-10.133-36.632-12.138-40.461-13.406-59.072-7.257-4.917,1.625-10.825,3.776-18.3,6.5l-3.37,1.227c-14.481,5.268-27.516,7.243-41.018,6.217-12.19-.926-23.767-4.238-36.025-7.744-14.884-4.257-31.753-9.083-53.582-10.832a128.1,128.1,0,0,0-35.23,2.314c-30.33,5.936-50.382,14.869-61.863,21.318-13.886,7.8-20.866,15.17-21.474,18.717A.973.973,0,0,1,1358.157,1245.8Z" transform="translate(-1357.182 -1176.607)"/></g><g class="y" transform="translate(0 131.284)"><path class="o" d="M1338.137,1424.743a.975.975,0,0,1-.96-1.138c.646-3.763,4.729-10.676,10.657-18.042a147.037,147.037,0,0,1,26.161-25.074,130.49,130.49,0,0,1,38.849-20.348,102.669,102.669,0,0,1,48.63-3.508c23.534,4.024,40.847,12.223,56.123,19.457,25.115,11.894,44.953,21.288,78.191,3.985a230.859,230.859,0,0,0,25.345-15.294c8.159-5.547,12.252-8.331,20.1-7.85,7.635.468,18.729,4.126,40.831,11.414,8.519,2.809,19.122,6.305,31.72,10.335,31,9.916,54.53,8.7,69.941-3.6,11.828-9.446,16.576-23.861,18.477-34.291a87.38,87.38,0,0,0,1.3-20.716.973.973,0,1,1,1.939-.169,87.571,87.571,0,0,1-1.313,21.179,71.473,71.473,0,0,1-5.907,18.574,48.735,48.735,0,0,1-13.272,16.937c-8.894,7.106-20.335,10.663-34.206,10.663q-16.51,0-37.551-6.721c-12.606-4.032-23.213-7.53-31.736-10.34-21.943-7.236-32.957-10.867-40.341-11.32-7.179-.44-10.846,2.054-18.882,7.517a232.627,232.627,0,0,1-25.541,15.411c-13.494,7.025-24.818,9.769-35.159,9.77-15.79,0-29.293-6.4-44.764-13.722-15.162-7.18-32.347-15.319-55.618-19.3-36.765-6.286-67.051,9.307-85.983,23.5-22.067,16.537-35.017,35.768-36.067,41.887A.974.974,0,0,1,1338.137,1424.743Z" transform="translate(-1337.162 -1319.012)"/></g></g></g><g class="z" transform="translate(270.771 19.08)"><path class="aa" d="M3271.935,766.825c-.98,0-1.538-.03-1.6-.033a1.423,1.423,0,0,1,.16-2.841,76.84,76.84,0,0,0,33.776-7.551c23.136-11.172,37-32.546,41.219-63.529,4.218-31.009-7.169-57.6-33.845-79.049a145.712,145.712,0,0,0-41.661-23.068,1.422,1.422,0,0,1,.862-2.711,119.832,119.832,0,0,1,13.583,5.573,148.833,148.833,0,0,1,29,17.988c12.012,9.656,21.149,20.6,27.156,32.539,7.525,14.952,10.125,31.475,7.726,49.111-2.392,17.586-7.971,32.4-16.581,44.035a70.312,70.312,0,0,1-26.334,21.727,81.452,81.452,0,0,1-24.3,7.161A71.342,71.342,0,0,1,3271.935,766.825Z" transform="translate(-3268.993 -587.975)"/></g></g><g transform="translate(8.942 240.135)"><path class="b" d="M756.36,1912.5c27.129-10.841,87.25-15.078,131.074-14.074s224.444-2.09,285.59,16.1,75.168,49.883,59.317,74.788-64.746,51.174-145.705,41.4c-75.007-9.056-109.763-15.815-162.947-4.528-49.176,10.436-165.043-9.218-189.734-51.928C712.379,1936.928,735.327,1920.9,756.36,1912.5Z" transform="translate(-725.282 -1898.28)"/><g class="ab"><g class="ac" transform="translate(-9.006 34.508)"><path class="b" d="M667.588,2119.333s40.2,47.14,118.71,37.114,153.193-24.895,191.905-4.362,40.637-4.371,75.492,15.358,46.843-2.911,78.342,8.409,79.357-5.5,79.357-5.5l-50.6,60.806-242.5,8.086-188.82,11.967-58.831-72.125Z" transform="translate(-667.588 -2119.333)"/></g><g class="ad" transform="translate(-8.702 74.785)"><path class="b" d="M669.541,2377.342s97.162,40.986,151.23,33.708,141.4-35.416,186.209-12.614,97.391-3.274,149.973,16.071,49.839,33.414,49.839,33.414l-325.2,19.406-122.927-7.277L682.8,2417.357Z" transform="translate(-669.541 -2377.342)"/></g></g></g><g transform="translate(26.002 236.379)"><path class="s" d="M835.479,1924.417c-6.241-21.9,19.679-40.942,70.686-47.516s100.733-1.231,130.869,17.79,19.229,46.347-13.973,54.518-78.7,10.6-124.583,5.552S839.344,1937.983,835.479,1924.417Z" transform="translate(-834.564 -1874.217)"/><g class="ae"><g transform="translate(108.335 12.262)"><path class="af" d="M1539.881,1957.463c-7.868,3.781-21.856,11.006,1.781,12.625s14.37-2.429,39,8.581,25.114,4.714,33.856,39.436l22.149-9.805s-6.2-25.534-7.74-30.521-44.929-22.412-53.387-24.523S1541.8,1956.539,1539.881,1957.463Z" transform="translate(-1528.547 -1952.769)"/></g><g transform="translate(53.615 18.247)"><ellipse class="af" cx="29.02" cy="10.175" rx="29.02" ry="10.175"/></g><g transform="translate(-16.3 16.956)"><path class="ag" d="M761.37,1982.837s-17.809,27.035,7.123,38.693,72.854,4.21,96.815,12.953,96.9-9.908,102.683-30.7h0l5.173,33.615s-43.853,28.172-47.846,29.143S841.49,2078.2,841.49,2078.2s-95.469-20.566-93.622-31.98-20.043-35.707-17.515-36.186S761.37,1982.837,761.37,1982.837Z" transform="translate(-730.149 -1982.837)"/></g></g><g transform="translate(23.745 60.264)"><circle class="ah" cx="2.046" cy="2.046" r="2.046"/></g><g transform="translate(92.309 43.344)"><circle class="ai" cx="2.046" cy="2.046" r="2.046"/></g><g transform="translate(30.212 63.04)"><circle class="ah" cx="2.89" cy="2.89" r="2.89"/></g><g transform="translate(145.989 52.315)"><g transform="translate(0)"><circle class="ai" cx="2.046" cy="2.046" r="2.046"/></g></g><g transform="translate(140.208 57.677)"><circle class="ai" cx="2.89" cy="2.89" r="2.89"/></g><g transform="translate(84.939 44.909)"><circle class="ai" cx="2.89" cy="2.89" r="2.89"/></g><g transform="translate(35.831 44.547)"><circle class="ai" cx="2.89" cy="2.89" r="2.89"/></g><g transform="translate(148.518 58.26)"><g transform="translate(0)"><circle class="ai" cx="1.564" cy="1.564" r="1.564"/></g></g><g transform="translate(106.841 39.611)"><path class="ai" d="M1521.441,2136.312a.524.524,0,0,1-.521-.476c-.533-5.832-1.482-6.761-1.606-6.859a.524.524,0,0,1,.274-1.007c.632.109,1.78,1.262,2.376,7.77a.524.524,0,0,1-.474.57ZM1519.41,2129h0Zm0,0h0Zm0,0h0Zm-.107-.035Z" transform="translate(-1518.975 -2127.962)"/></g><g transform="translate(112.234 41.902)"><path class="ai" d="M1554.05,2149.947h-.007a.524.524,0,0,1-.516-.532c0-.173.083-4.264,2.071-6.593a.524.524,0,1,1,.8.68c-1.746,2.045-1.82,5.889-1.821,5.928A.524.524,0,0,1,1554.05,2149.947Z" transform="translate(-1553.526 -2142.638)"/></g><g transform="translate(116.607 42.82)"><path class="ai" d="M1582.167,2154.582a.525.525,0,0,1-.515-.428c-.031-.169-.741-4.159,1.711-5.57a.524.524,0,0,1,.523.909c-1.787,1.028-1.21,4.436-1.2,4.469a.524.524,0,0,1-.42.611A.517.517,0,0,1,1582.167,2154.582Z" transform="translate(-1581.533 -2148.514)"/></g><g transform="translate(33.881 21.285)"><path class="ai" d="M1056.441,2017.591a.525.525,0,0,1-.514-.426,8.367,8.367,0,0,0-4.035-5.607.524.524,0,1,1,.469-.937,9.327,9.327,0,0,1,4.6,6.347.524.524,0,0,1-.416.614A.55.55,0,0,1,1056.441,2017.591Z" transform="translate(-1051.602 -2010.565)"/></g><g transform="translate(40.058 21.285)"><path class="ai" d="M1092.83,2016.067a.524.524,0,0,1-.524-.506,11.772,11.772,0,0,0-1.078-4.237.524.524,0,0,1,.938-.468,12.646,12.646,0,0,1,1.188,4.669.524.524,0,0,1-.506.542Z" transform="translate(-1091.173 -2010.566)"/></g><g transform="translate(43.495 18.128)"><path class="ai" d="M1113.757,1998.108a.524.524,0,0,1-.52-.462c-.025-.2-.568-5.043,2.742-7.22a.524.524,0,0,1,.576.876c-2.773,1.824-2.282,6.175-2.277,6.219a.524.524,0,0,1-.458.583A.535.535,0,0,1,1113.757,1998.108Z" transform="translate(-1113.19 -1990.34)"/></g><g transform="translate(50.905 44.866)"><path class="ai" d="M1161.992,2169.613a.546.546,0,0,1-.082-.006.524.524,0,0,1-.437-.6c.383-2.45-.785-6.676-.8-6.718a.524.524,0,1,1,1.01-.282c.051.182,1.24,4.489.823,7.162A.525.525,0,0,1,1161.992,2169.613Z" transform="translate(-1160.657 -2161.624)"/></g><g transform="translate(55.358 46.913)"><path class="ai" d="M1189.7,2180.676h-.027a.524.524,0,0,1-.5-.55,17.207,17.207,0,0,1,1.02-5.087.524.524,0,1,1,.951.441,16.46,16.46,0,0,0-.923,4.7A.524.524,0,0,1,1189.7,2180.676Z" transform="translate(-1189.178 -2174.735)"/></g></g><g class="aj" transform="translate(35.912 0)"><g transform="translate(80.963 65.826)"><path class="ak" d="M1375.263,958.04s-17.451-102.316,26.51-176.365c0,0,10.933,1.633,15.47,4.719,0,0-21.272,37.841-22.386,77.588S1397.418,956,1397.418,956,1386.393,969.443,1375.263,958.04Z" transform="translate(-1371.845 -781.675)"/><g class="al"><g class="ad" transform="translate(-10.758 22.951)"><g class="z" transform="translate(18.026)"><path class="o" d="M1445.071,941.306a37.365,37.365,0,0,1-17.9-4.432,30.747,30.747,0,0,1-8.543-6.581.973.973,0,0,1,1.5-1.241,29.49,29.49,0,0,0,8.049,6.153,36.484,36.484,0,0,0,23.483,3.612.973.973,0,0,1,.312,1.922A43.029,43.029,0,0,1,1445.071,941.306Z" transform="translate(-1418.407 -928.698)"/></g><g class="z" transform="translate(16.023 14.442)"><path class="o" d="M1431.2,1032.993a37.019,37.019,0,0,1-16.435-3.751,30.746,30.746,0,0,1-8.95-6.411.973.973,0,0,1,1.461-1.287h0a29.472,29.472,0,0,0,8.431,5.992,36.5,36.5,0,0,0,24.133,2.562.973.973,0,0,1,.411,1.9A42.76,42.76,0,0,1,1431.2,1032.993Z" transform="translate(-1405.577 -1021.215)"/></g><g class="z" transform="translate(14.021 28.885)"><path class="o" d="M1417.447,1124.77a36.8,36.8,0,0,1-15.082-3.16,30.78,30.78,0,0,1-9.357-6.241.973.973,0,0,1,1.423-1.329,29.5,29.5,0,0,0,8.814,5.831c5.22,2.321,13.757,4.468,24.785,1.512a.973.973,0,0,1,.5,1.88A42.706,42.706,0,0,1,1417.447,1124.77Z" transform="translate(-1392.746 -1113.731)"/></g><g class="z" transform="translate(12.018 43.327)"><path class="o" d="M1403.781,1216.623a36.676,36.676,0,0,1-13.821-2.648,30.857,30.857,0,0,1-9.764-6.071.973.973,0,0,1,1.386-1.367,29.6,29.6,0,0,0,9.2,5.669c5.415,2.181,14.224,4.031,25.44.461a.973.973,0,1,1,.59,1.855A42.792,42.792,0,0,1,1403.781,1216.623Z" transform="translate(-1379.917 -1206.247)"/></g><g class="z" transform="translate(10.015 57.769)"><path class="o" d="M1390.176,1308.558c-.254,0-.507,0-.76-.008a36.491,36.491,0,0,1-11.862-2.213,30.97,30.97,0,0,1-10.17-5.9.973.973,0,0,1,1.349-1.4h0a29.687,29.687,0,0,0,9.579,5.508c5.61,2.041,14.691,3.595,26.1-.59a.973.973,0,0,1,.67,1.828A43.259,43.259,0,0,1,1390.176,1308.558Z" transform="translate(-1367.086 -1298.762)"/></g><g class="z" transform="translate(8.012 72.212)"><path class="o" d="M1376.675,1400.538a36.663,36.663,0,0,1-11.529-1.839,31.116,31.116,0,0,1-10.575-5.73.973.973,0,0,1,1.313-1.437h0a29.833,29.833,0,0,0,9.962,5.348c5.806,1.9,15.16,3.158,26.755-1.642a.973.973,0,1,1,.744,1.8,43.861,43.861,0,0,1-15.983,3.495C1377.134,1400.536,1376.9,1400.538,1376.675,1400.538Z" transform="translate(-1354.255 -1391.278)"/></g><g class="z" transform="translate(6.009 86.654)"><path class="o" d="M1363.225,1492.568a36.838,36.838,0,0,1-10.487-1.508,31.312,31.312,0,0,1-10.98-5.559.973.973,0,0,1,1.279-1.468,30.02,30.02,0,0,0,10.346,5.187c6,1.76,15.63,2.721,27.416-2.695a.973.973,0,0,1,.813,1.769,44.908,44.908,0,0,1-16.3,4.218Q1364.264,1492.568,1363.225,1492.568Z" transform="translate(-1341.424 -1483.794)"/></g><g class="z" transform="translate(4.006 101.096)"><path class="o" d="M1349.82,1584.643a37.077,37.077,0,0,1-9.492-1.224,31.524,31.524,0,0,1-11.384-5.388.973.973,0,0,1,1.245-1.5,30.256,30.256,0,0,0,10.73,5.027c6.2,1.62,16.1,2.284,28.079-3.749a.973.973,0,1,1,.875,1.739,46.061,46.061,0,0,1-16.621,4.939Q1351.529,1584.643,1349.82,1584.643Z" transform="translate(-1328.594 -1576.309)"/></g><g class="z" transform="translate(2.003 115.538)"><path class="o" d="M1336.457,1676.757a37.366,37.366,0,0,1-8.538-.98,31.776,31.776,0,0,1-11.788-5.217.973.973,0,0,1,1.212-1.523,30.506,30.506,0,0,0,11.115,4.867c6.4,1.479,16.574,1.847,28.743-4.8a.973.973,0,0,1,.933,1.708,47.319,47.319,0,0,1-16.94,5.66A39.2,39.2,0,0,1,1336.457,1676.757Z" transform="translate(-1315.764 -1668.825)"/></g><g class="z" transform="translate(0 128.892)"><path class="o" d="M1323.127,1763.02a37.715,37.715,0,0,1-7.622-.772,32.061,32.061,0,0,1-12.191-5.046.973.973,0,0,1,1.181-1.547,30.8,30.8,0,0,0,11.5,4.707c6.593,1.339,17.047,1.409,29.409-5.861a.974.974,0,0,1,.987,1.678,48.682,48.682,0,0,1-17.257,6.38A39.735,39.735,0,0,1,1323.127,1763.02Z" transform="translate(-1302.932 -1754.365)"/></g></g></g></g><g transform="translate(117.288 10.138)"><path class="am" d="M1604.538,484.531s12.384-51.181,42.26-58.259,55.738,14.984,60.635,44.375-11.705,51.181-20.416,37.024-9.207-52.542-26.108-50.636-52.288,30.488-52.288,30.488Z" transform="translate(-1604.538 -424.941)"/><g class="an"><g transform="translate(40.287 29.254)"><path class="ao" d="M1862.611,626.665s8.892-16.748,27.947-14.026,40.105,13.607,39.561,33.029,9.618,62.317-16.151,38.329S1862.611,626.665,1862.611,626.665Z" transform="translate(-1862.611 -612.34)"/></g><g class="ap" transform="translate(-2.788 9.798)"><path class="ao" d="M1587.65,543.827a.974.974,0,0,1-.9-1.342,147.572,147.572,0,0,1,15.013-26.629,87.9,87.9,0,0,1,17.528-18.721c7.6-5.814,15.44-8.957,23.3-9.339a69.929,69.929,0,0,1,22.382,2.437,64.436,64.436,0,0,1,16.066,6.982,52.289,52.289,0,0,1,12.97,10.729.973.973,0,1,1-1.523,1.212,51.5,51.5,0,0,0-12.534-10.324,65.1,65.1,0,0,0-37.267-9.093c-16.944.824-30.733,15.257-39.317,27.219a145.468,145.468,0,0,0-14.815,26.261A.974.974,0,0,1,1587.65,543.827Z" transform="translate(-1586.677 -487.707)"/></g></g></g><g transform="translate(31.721)"><path class="aq" d="M1141.971,432.72s15.7-30.488,9.073-56.623-55.077-19.428-76.581,12.745-23.138,53.136-8.438,55.042,27.507-26.477,39.954-35.456,30.276-17.908,30,24.292Z" transform="translate(-1056.403 -360)"/><g class="ar"><g transform="translate(-14.333 28.992)"><path class="f" d="M1049.515,560.729s-24.006-34.574-70.6,1.225l-14.333,37.025,16.6,12.53s26.949-14.213,28.446-15.958,16.09-23.967,18.525-25.107S1049.515,560.729,1049.515,560.729Z" transform="translate(-964.586 -545.719)"/></g><g class="ap" transform="translate(15.997 3.984)"><path class="f" d="M1228.452,449.628a.974.974,0,0,1-.966-1.1,80.1,80.1,0,0,0-.1-16.632A86.347,86.347,0,0,0,1216,396.5a17.454,17.454,0,0,0-11.748-8.6c-7.177-1.471-20.4.152-42.65,16.241-1.332.963-1.384,1-1.75,1a.974.974,0,0,1-.4-1.863c.149-.1.565-.4,1-.715a126.579,126.579,0,0,1,17.778-10.965c10.461-5.167,19.344-7.053,26.4-5.605a19.328,19.328,0,0,1,13.026,9.507,88.313,88.313,0,0,1,11.657,36.259,80.33,80.33,0,0,1,.087,17.024A.973.973,0,0,1,1228.452,449.628Zm-68.6-46.433h0Zm0,0h0Z" transform="translate(-1158.881 -385.522)"/></g></g></g><g transform="translate(119.647 37.011)"><path class="aq" d="M1619.65,632.8s13.55-40.652,73.375-35.207,72.662,46.98,59.1,49.682-35.206-23.184-72.226-21.369-58.071,8.891-58.071,8.891Z" transform="translate(-1619.65 -597.091)"/><g class="as"><g class="at" transform="translate(-5.188 23.578)"><path class="aq" d="M1586.414,762.986s41.619-17.287,71.562-14.565,65.466,24.365,65.466,24.365l-27.357,4.082-54.952-12.4Z" transform="translate(-1586.414 -748.13)"/></g><g class="au" transform="translate(-0.973 10.562)"><path class="ao" d="M1614.388,690.867a.973.973,0,0,1-.8-1.523,40.959,40.959,0,0,1,5.927-6.426,66.874,66.874,0,0,1,18.7-11.8,84.532,84.532,0,0,1,33.1-6.37h.143c14.976,0,31.409,3.3,48.849,9.809a.973.973,0,0,1-.681,1.824c-39-14.556-65.316-9.949-80.528-3.522-16.458,6.954-23.828,17.481-23.9,17.587A.973.973,0,0,1,1614.388,690.867Z" transform="translate(-1613.416 -664.747)"/></g></g></g><g transform="translate(0 27.129)"><path class="am" d="M967.663,573.136s-5.581-28.058-43.432-35.953-74.327-2.269-70.789,19.42,53.761-1.361,82.207,7.26,28.582,12.523,28.582,12.523Z" transform="translate(-853.205 -533.787)"/><g class="av"><g class="at" transform="translate(-6.023 17.553)"><path class="aw" d="M818.435,646.229s2.45,11.434,24.408,7.532,40.65-6.443,60.339,0,26.495,16.516,26.495,16.516-43.735-3.267-47.818-3.63-43.009-1-43.009-1l-13.066.544-11.161-9.165Z" transform="translate(-814.624 -646.229)"/></g><g class="au" transform="translate(18.864 9.761)"><path class="ao" d="M1069.639,629.31a.971.971,0,0,1-.758-.363c-19.147-23.768-43.526-29.745-60.607-30.573a97.884,97.884,0,0,0-32.94,3.959.973.973,0,0,1-.634-1.84,99.883,99.883,0,0,1,33.6-4.067,86.7,86.7,0,0,1,31.114,7.153,82.638,82.638,0,0,1,30.986,24.147.973.973,0,0,1-.757,1.584Z" transform="translate(-974.043 -596.316)"/></g></g></g><g transform="translate(35.741 60.199)"><path class="aq" d="M1160.878,754.34s-13.237-18.331-34.6-1.815-59.475,55.9-37.517,59.348,30.85-13.612,42.465-30.854,24.647-28.313,29.654-24.864Z" transform="translate(-1082.16 -745.628)"/><g class="ax"><g class="ay" transform="translate(18.147 2.785)"><path class="ao" d="M1199.377,809.208a.973.973,0,0,1-.823-1.492,184.641,184.641,0,0,1,20.288-25.814c6.806-7.073,13.272-12.185,19.218-15.192,7.6-3.847,14.4-4.272,20.2-1.263a.973.973,0,0,1-.9,1.728c-5.209-2.7-11.4-2.276-18.415,1.267-5.747,2.9-12.034,7.882-18.685,14.791a182.5,182.5,0,0,0-20.062,25.521A.973.973,0,0,1,1199.377,809.208Z" transform="translate(-1198.405 -763.467)"/></g></g></g><g transform="translate(120.619 68.32)"><ellipse class="az" cx="9.359" cy="10.504" rx="9.359" ry="10.504"/></g><g transform="translate(104.171 62.202)"><ellipse class="i" cx="13.117" cy="14.722" rx="13.117" ry="14.722"/><g class="ba"><g transform="translate(-13.433 -1.458)"><path class="az" d="M1456.294,749.343a16.555,16.555,0,0,0-.971,17.857c5.384,9.992,16.877,9.81,16.877,9.81l-15,6.836s-26.071-9.861-22.382-14.7,15.3-20.025,15.3-20.025Z" transform="translate(-1434.459 -749.121)"/></g></g></g></g><g transform="translate(122.113 132.318)"><g transform="translate(100.358 175.62)"><path class="k" d="M2103.828,2340.766c-1.557-1.569-1.781-8.146-1.781-8.146l-8.922,3.176s.121.545,1.209,4.417a6.2,6.2,0,0,1,.22,1.729A10.579,10.579,0,0,0,2103.828,2340.766Z" transform="translate(-2093.125 -2332.62)"/><g transform="translate(0.788 8.146)"><path class="bb" d="M2120.642,2387.547c-1.18-2.208-6.684.393-12.25-2.51a1.259,1.259,0,0,1-.306-.233,10.581,10.581,0,0,1-9.274,1.176c-.015,3.258-2.06,6.361,1.232,8.676,3.871,2.723,7.562-1.028,12.824-.484S2123.023,2392.006,2120.642,2387.547Z" transform="translate(-2098.171 -2384.804)"/></g></g><g transform="translate(100.358 121.443)"><path class="k" d="M2103.784,1993.668c-1.516-1.648-1.736-8.1-1.736-8.1l-8.922,3.176s.121.545,1.209,4.417a6.7,6.7,0,0,1,.194,2.352C2096.189,1996.017,2099.591,1996.442,2103.784,1993.668Z" transform="translate(-2093.125 -1985.568)"/><g transform="translate(0.788 8.1)"><path class="bb" d="M2120.642,2040.243c-1.179-2.208-6.684.393-12.249-2.511a1.309,1.309,0,0,1-.35-.279c-4.193,2.775-7.595,2.349-9.255,1.845-.229,3.029-1.824,5.886,1.258,8.053,3.871,2.723,7.561-1.028,12.824-.484S2123.024,2044.7,2120.642,2040.243Z" transform="translate(-2098.171 -2037.453)"/></g></g><g transform="translate(33.516 80.696)"><path class="j" d="M1691.889,1738.253a26.76,26.76,0,0,1,3.07,1.18s21.066-14.61,31.954-14.882,13.883,30.309,15.607,38.748c0,0,.907,7.35-12.431,7.441,0,0-4.628-27.768-8.348-27.315s-22.593,14.882-22.593,14.882,23.319,12.523,28.4,16.607,16.6,44.647,16.6,44.647-5.535,8.349-15.879,6.443c0,0-7.168-30.128-13.61-37.206s-39.47-11.8-48.363-21.053l-1.361-4.9a62.235,62.235,0,0,1,4.994-8.464C1674.554,1747.74,1682.168,1739.428,1691.889,1738.253Z" transform="translate(-1664.94 -1724.549)"/><g class="bc"><g transform="translate(34.208 11.325)"><path class="bd" d="M1887.7,1819.536l-3.63-.005s1.316-5.839,11.115-13.65,14.427-13.664,18.782-2.911,1.751,15.518,8.089,20.282,4.3,9.028,4.3,9.028l-9.648,3.087-4.37-.748-3.947-17.764s-2.314-3.131-3.811-1.906S1887.7,1819.536,1887.7,1819.536Z" transform="translate(-1884.07 -1797.097)"/></g><g transform="translate(-5.263 20.109)"><path class="bd" d="M1643.749,1853.366c0,.583,1.089,10.565,14.155,16.917s24.317,7.8,31.939,19.51,8.653,28.429,13.489,33.123,12.029,8.53,15.875,2.359l-1.054,6.9-16.514,9.582-10.526-13.573-13.61-28.314s-46.276-22.868-46.276-23.413,11.977-17.786,11.977-17.786Z" transform="translate(-1631.227 -1853.366)"/></g></g></g><g transform="translate(79.852 37.053)"><path class="k" d="M1962.338,1458.354s8.076,1.361,10.3,1.452,32.136-4.7,35.826-6.519,9.558-9.2,15.365-8.228,2.722,6.292,0,9.68-8.227,4.235-12.582,4.537-31.818,9.74-36.113,10.224-13.369-1.452-13.369-1.452Z" transform="translate(-1961.763 -1444.973)"/><g class="be"><g transform="translate(-4.053 16.421)"><path class="bf" d="M1941.79,1554.25s4.758,4.81,14.608,1.361,29.179-5.445,29.179-5.445l-30.631,11.615-19.145-1.089Z" transform="translate(-1935.801 -1550.167)"/></g></g></g><g transform="translate(20.019 41.45)"><path class="l" d="M1603.41,1473.143l-1.074.68s-9.089-.453-13.58,1.5-8.575,11.389-9.754,21.461-.363,27.768,2.5,42.2,11.841,16.606,11.841,16.606,10.224-22.323,28.658-28.312c0,0-2.012-1.921-2.859-12.909a209.073,209.073,0,0,1-.484-20.97l20.446.3s5.142-4.477.968-12.765c0,0-14.593-3.8-18.071-4.7a79.563,79.563,0,0,0-10.424-1.407Z" transform="translate(-1578.48 -1473.143)"/><g class="bg"><g transform="translate(39.732 13.072)"><path class="bh" d="M1855.755,1563s-10.763-1.115-16.509-4.624-7.078-.514-5.807,5.687,22.231,1.664,22.231,1.664Z" transform="translate(-1832.996 -1556.883)"/></g><g transform="translate(-2.48 -0.499)"><path class="bi" d="M1581.04,1469.946s-10,4.809-12,13.7-3.63,26.1-3.176,27.39-1.241,2.3-1.241,2.3a61.038,61.038,0,0,1-1.753-20.976,46.487,46.487,0,0,1,7.259-19.51Z" transform="translate(-1562.592 -1469.946)"/></g><g transform="translate(3.301 14.383)"><path class="bh" d="M1612.291,1565.281s-.868,11.567-4.709,21.074-8.626,30.109-7.88,34.107,8.4,15.854,12.522,15.774,13.157-6.7,11.8-17.044-1.15-9.134,4.446-12.886c6.565-4.4-4.422-1.776-9.3-11.532C1613.813,1584.065,1612.291,1565.281,1612.291,1565.281Z" transform="translate(-1599.625 -1565.281)"/></g></g></g><g transform="translate(43.874 29.199)"><path class="k" d="M1731.979,1395.117a31.932,31.932,0,0,1-.68,12.478s3.456,5.082,9.236,1l.345-4.356-7.358-9.574Z" transform="translate(-1731.298 -1394.664)"/><g class="bj"><g transform="translate(-0.68 3.071)"><path class="bf" d="M1726.939,1418.781s9.981,3.9,11.705,9.256l.212-9.888-9.225-3.815-2.276,2.776Z" transform="translate(-1726.939 -1414.334)"/></g></g></g><g transform="translate(38.076 9.172)"><path class="m" d="M1718.883,1280.336s6.291-.7,6.019-6.1-5.49-4.265-5.49-4.265-6.987-6.625-17.285-1.906-8.665,15.835-5.853,20.554,4.6,4.537,4.6,4.537Z" transform="translate(-1694.151 -1266.374)"/></g><g transform="translate(26.927 5.649)"><path class="i" d="M1.875,0H47.992a1.874,1.874,0,0,1,1.874,1.874v0a1.874,1.874,0,0,1-1.874,1.874H1.874A1.874,1.874,0,0,1,0,1.875v0A1.875,1.875,0,0,1,1.875,0Z" transform="translate(0 22.456) rotate(-26.765)"/><g class="bk" transform="translate(0 0)"><g transform="translate(-0.171 2.542)"><path class="bl" d="M1621.637,1282.89l46.275-22.8,1.089,2.4-45.141,21.734Z" transform="translate(-1621.637 -1260.093)"/></g></g></g><g transform="translate(32.503)"><path class="i" d="M1679.488,1208.048l6.789,10.232a.962.962,0,0,1-.247,1.32c-2.727,1.918-12.341,8.376-21.656,10.959a.965.965,0,0,1-1.149-.56l-4.7-11.33a.963.963,0,0,1,.456-1.229l19.269-9.719A.963.963,0,0,1,1679.488,1208.048Z" transform="translate(-1658.452 -1207.617)"/><g class="bm"><g transform="translate(-1.528 7.315)"><path class="bl" d="M1651.932,1254.474s1.043,9.619,8.445,9.014,11.516-3.206,13.634-.968l-18.571,8.189-3.266-4.439-3.508-9.679Z" transform="translate(-1648.665 -1254.474)"/></g></g></g><g transform="translate(42.687 19.111)"><path class="k" d="M1744.447,1330.041a97.069,97.069,0,0,1-.272,12.584c-.6,5.233-2.8,8.757-8,8.485s-8.121-3.675-9.149-8.727c0,0-3.75-1.966-3.3-5.052s3.72-2.269,3.72-2.269,4.809-.181,4.809-2.057c0,0,6.17.151,6.533-2.511C1738.791,1330.495,1743.116,1332.31,1744.447,1330.041Z" transform="translate(-1723.691 -1330.041)"/><g class="bn"><g transform="translate(1.187 -1.996)"><path class="bf" d="M1731.3,1323.69a3.169,3.169,0,0,0,3.372,1.612,8.416,8.416,0,0,0,4.382-2s6.14-.3,6.535-1.6c0,0,4.932,1.21,5.96-1.391s-.59-2.722-.59-2.722l-10.632-.333s-7.108,3.963-7.2,3.993S1731.3,1323.69,1731.3,1323.69Z" transform="translate(-1731.298 -1317.255)"/></g></g></g><g transform="translate(0 75.979)"><path class="k" d="M1481.52,1695.261s-3.206,13.046-4.839,19.036-4.991,26.316-7.35,27.95-19.962,3.448-19.055-1.361,11.523-2.359,13.429-4.537,2.813-7.895,4.083-17.332,2.994-24.683,2.994-24.683S1475.017,1697.55,1481.52,1695.261Z" transform="translate(-1450.243 -1694.332)"/><g class="bo"><g transform="translate(13.191 -2.843)"><path class="bf" d="M1551.074,1678.961c-.182.121-8.356.432-9.5,9.438-1.142,8.954-1.479,11.688-1.721,16.285-.192,3.65-1.054,3.981-1.719,9.547s-3.387,6.986-3.387,6.986l1.633-23.381,3.085-18.875,2.11-2.844Z" transform="translate(-1534.741 -1676.117)"/></g></g></g><g transform="translate(50.667 22.615)"><path class="n" d="M1778.066,1361.88c-2.049-.215-3.495-2.493-3.224-5.079s2.159-4.514,4.208-4.3,3.5,2.493,3.224,5.079S1780.115,1362.095,1778.066,1361.88Zm.927-8.835c-1.749-.183-3.367,1.527-3.607,3.813s.988,4.295,2.737,4.478,3.367-1.527,3.607-3.813S1780.742,1353.229,1778.993,1353.045Z" transform="translate(-1774.81 -1352.485)"/></g><g transform="translate(59.317 22.542)"><path class="n" d="M1832.7,1360.454c-1.594-.167-2.693-2.193-2.449-4.516s1.739-4.077,3.333-3.909,2.693,2.193,2.449,4.516S1834.3,1360.622,1832.7,1360.454Zm.827-7.881c-1.294-.136-2.52,1.4-2.732,3.422s.668,3.779,1.963,3.915,2.52-1.4,2.732-3.423S1834.825,1352.709,1833.531,1352.573Z" transform="translate(-1830.221 -1352.018)"/></g><g transform="translate(46.377 23.55)"><path class="n" d="M1751.783,1362.323l-4.456-3.355.238-.492,4.455,3.355Z" transform="translate(-1747.327 -1358.475)"/></g><g transform="translate(57.904 26.978)"><rect class="n" width="1.687" height="0.547"/></g></g><g transform="translate(267.325 50.944)"><g transform="translate(91.124 45.083)"><path class="m" d="M2964.469,992.689a27.86,27.86,0,0,1,.3-9.867c1.114-6.011,7.145-8.6,13.8-7.4s7.935,4.861,7.935,4.861,6.271.647,5.547,8.309-4.094,14.888-12.181,17.911c-2.107.833-2.524.179-2.524.179Z" transform="translate(-2964.184 -975.137)"/><g class="bp"><g class="bq" transform="translate(13.431 1.506)"><path class="o" d="M3061.059,1004.143a.225.225,0,0,1-.187-.35c.031-.046,2.857-5.313,1.33-9.57-1.445-4.028-3.869-3.358-3.972-3.328a.226.226,0,0,1-.274-.135c-.021-.053-2.1-5.308-7.52-5.528a.225.225,0,0,1,.018-.449c5.137.209,7.42,4.693,7.846,5.641.687-.1,2.974-.121,4.325,3.646,1.622,4.522-1.347,9.923-1.379,9.971A.224.224,0,0,1,3061.059,1004.143Z" transform="translate(-3050.22 -984.785)"/></g><g transform="translate(-3.122 6.259)"><path class="br" d="M2972.349,1034.44s-4.076,2.558-3.613-.5-3.787-9.749-2.456-12.844c0,0-10.057.955-13.605-3.343s-5.867-2.247-6.587-.125-1.9,9.663-1.9,9.663,2.244,4.487,2.354,4.5,8.347,10.179,8.347,10.179a44.608,44.608,0,0,0,4.876,1.483c.711.016,10.58-2.369,10.58-2.369Z" transform="translate(-2944.183 -1015.234)"/></g></g></g><g transform="translate(89.002 54.144)"><path class="k" d="M2954.678,1033.181s-2.922,10.784-3.987,16.8,6.782,6.065,7.4,7.144,1,7.881,1,7.881,3.722,3.775,8.748-1.139c0,0-1.708-9-.84-11.888s4.891.872,5.957-3.77-3.148-4.152-3.148-4.152-1.568-3.6-1.3-5.943C2968.507,1038.116,2956.51,1038.442,2954.678,1033.181Z" transform="translate(-2950.592 -1033.181)"/><g class="bs"><g transform="translate(3.213 -1.289)"><path class="bf" d="M2990.781,1041.82c.025-.053.242-4.265-2.568-3.553s-3.715-5.744-3.706-5.818-9.142.789-13.334-5.035l.767-2.491,15.717,5.769,3.734,8.692Z" transform="translate(-2971.172 -1024.923)"/></g><g transform="translate(4.323 22.807)"><path class="bf" d="M2978.286,1179.653s5.648-.8,7.153-.052-4.194,2.471-5.121,2.526Z" transform="translate(-2978.286 -1179.281)"/></g></g></g><g transform="translate(34.026 136.855)"><path class="n" d="M2645.513,1565.505s-.318,1.316-2.541,1.406-34.752-8.8-38.2,0-6.352,38.567-6.352,38.567l16.073,3.358s4.82-20.01,6.317-25.182,22.8.232,28.286,3.811,6.805,12.285,8.439,27.8l14.563,2.144s6.1-38.04,3.956-48.1l-6.224.455-16.2.136Z" transform="translate(-2598.421 -1563.02)"/><g class="bt"><g class="bu" transform="translate(-3.629 9.807)"><path class="bv" d="M2578.8,1638.44s5.444,12.7,11.161,2.813,2.647-16.814,15.206-15.168,25.806,1.011,30.8,10.54,21.232,9.8,22.593,4.628c0,0-2.77,22.868-2.564,23.594s-1.065,5.581-1.065,5.581-12.794-.681-13.156-.681-9.346-12.342-9.89-14.066-8.892-17.242-8.892-17.242l-17.822-.454-6.223,24.955-23.773-3.176Z" transform="translate(-2575.171 -1625.843)"/></g></g></g><g transform="translate(79.409 135.383)"><path class="bw" d="M2920.49,1556.464l.71.315.193,4.577s-4.412,5.392-18.5,3.251-13.754-6.31-13.754-6.31l.719-4.677.93-.032Z" transform="translate(-2889.143 -1553.588)"/></g><g transform="translate(50.335 85.119)"><path class="o" d="M2760.667,1231.6s6.656,1.838,11.027,3.461,4.229,5.983,6.915,13.578,8.881,24.767,8.881,24.767-5.722,7.827-13.006,3.149l-6.575-20.872-3.884,29.372s-4.462,5.586-16.644,3.436-14.693-6.6-14.693-6.6.128-24.221-.215-28.017l-26.452,8.192a12.116,12.116,0,0,1-2.56-11.731s22.143-9.316,28.053-14.492,17.685-4.042,17.685-4.042Z" transform="translate(-2702.894 -1231.605)"/><g class="bx"><g transform="translate(28.687 11.415)"><path class="by" d="M2886.661,1318.027l.893-2.438a29.31,29.31,0,0,1,1.009-8.689c1.212-3.636,1.737-2.443.851,1.571a49.6,49.6,0,0,0-.7,12.292c.149,3.846-.026,25.585-.026,25.585l-1.57-1.512Z" transform="translate(-2886.661 -1304.726)"/></g><g transform="translate(36.138 3.057)"><path class="by" d="M2949.574,1251.188s2.1,2.143,1.335,13.3-4.208,28.776-5.358,30.145-8.251,5.944-8.251,5.944l-2.913-8.432,11.453-26.351,2.3-14.565Z" transform="translate(-2934.388 -1251.188)"/></g><g transform="translate(1.869 13.734)"><path class="bz" d="M2744.134,1319.584s-8.936,8.019-18.116,9.7-11.073-.545-11.113,3.314-.862,5.894,8.273,3.678,20.088-8.1,20.088-8.1Z" transform="translate(-2714.87 -1319.584)"/></g><g transform="translate(64.013 12.782)"><path class="bz" d="M3113.994,1326.115l-.035-1.327a61.071,61.071,0,0,1-.993-9.321c-.121-4.961.893.03,2.919,8.016s5.913,14.792,12.688,16.3-9.636,4.575-9.636,4.575-3.914-12.439-3.914-12.621S3113.994,1326.115,3113.994,1326.115Z" transform="translate(-3112.956 -1313.488)"/></g></g></g><g transform="translate(0 105.893)"><path class="k" d="M2428.474,1364.68s-19.538,4.364-25.25,3.853-11.171-3.607-17.109-2.936-9.591,8.16,1.514,8.747,13.8.029,13.8.029l28.344-.823S2432.209,1368.157,2428.474,1364.68Z" transform="translate(-2380.456 -1364.68)"/><g class="ca"><g transform="translate(15.757 0.646)"><path class="bf" d="M2516.367,1368.821s2.992,5.115-23.29,8.861h0s15.4,2.292,15.617,2.32,7.836-.847,8.073-.946,3.62-1.319,3.62-1.319Z" transform="translate(-2481.397 -1368.821)"/></g></g></g><g transform="translate(45.974 101.826)"><path class="by" d="M2682.8,1339.539l2.575,12.129a1.147,1.147,0,0,1-.838,1.35l-5.477,1.4a1.147,1.147,0,0,1-1.407-.872l-2.67-12.532a1.148,1.148,0,0,1,.92-1.368l5.572-1A1.147,1.147,0,0,1,2682.8,1339.539Z" transform="translate(-2674.962 -1338.629)"/></g><g transform="translate(123.912 131.332)"><path class="k" d="M3185.08,1527.641s.035,24.317.67,29.351,3.674,8.872-1.249,9.821-12.379.752-9.726-5.739,2.241-6.619,1.915-15.064-1.483-18.023-1.483-18.023Z" transform="translate(-3174.221 -1527.641)"/><g class="cb"><g transform="translate(-1.143 -0.811)"><path class="bf" d="M3177.514,1522.446s-6.206,1.847-6.3,5.337-.468,20.672-.468,20.672l-3.849-25.673Z" transform="translate(-3166.899 -1522.446)"/></g></g></g><g transform="translate(119.783 122.944)"><path class="by" d="M3162.292,1473.92l-13.286,1.812a1.423,1.423,0,0,0-1.2,1.72l1.209,5.414a1.423,1.423,0,0,0,1.506,1.108l13.341-1.109a1.423,1.423,0,0,0,1.275-1.706l-1.264-6.117A1.423,1.423,0,0,0,3162.292,1473.92Z" transform="translate(-3147.775 -1473.907)"/></g><g transform="translate(85.298 85.971)"><path class="bw" d="M2944.272,1237.579s-3.353.551-4.1-.521l-.526,1.92s1.162,1.78.888,2.758-4.455,21.908-8.926,27.868-4.746,9-4.746,9l2.714,8.75,7.494-4.975a113.06,113.06,0,0,1,3.509-11.635c2.322-6.458,2.248-15.322,2.8-22.006s-.922-6.321.054-8.1a20.64,20.64,0,0,1,1.214-2.072Z" transform="translate(-2926.864 -1237.058)"/></g><g transform="translate(101.532 80.759)"><path class="by" d="M3030.861,1206.934l.962,6.026s4.783-.292,6.251-4.758c0,0-1.8-4.881-2.709-4.509-.843.345-1.376,2.049-3.935,2.489A.682.682,0,0,0,3030.861,1206.934Z" transform="translate(-3030.856 -1203.673)"/></g><g transform="translate(95.937 82.172)"><path class="by" d="M2998.421,1214.217l-.922,5.867a3.528,3.528,0,0,1-2.481-3.5l.824-3.745a.135.135,0,0,1,.235-.059,3.3,3.3,0,0,0,2.033,1.012A.375.375,0,0,1,2998.421,1214.217Z" transform="translate(-2995.018 -1212.728)"/></g><g transform="translate(120.085 166.644)"><path class="bw" d="M3150.289,1755.709l-.563,4.431a2.134,2.134,0,0,0,1.847,2.386l13.734,1.746a2.134,2.134,0,0,0,2.386-1.848l.563-4.431a2.134,2.134,0,0,0-1.848-2.386l-13.733-1.746A2.134,2.134,0,0,0,3150.289,1755.709Zm2.283,1.758a1.425,1.425,0,0,1,1.594-1.234l10.205,1.3a1.426,1.426,0,0,1,1.234,1.593l-.318,2.5a1.425,1.425,0,0,1-1.593,1.234l-10.206-1.3a1.425,1.425,0,0,1-1.234-1.594Z" transform="translate(-3149.709 -1753.844)"/></g><g transform="translate(102.083 170.922)"><path class="cc" d="M3037.225,1810.664l12.385,1.432,3.4-29.394-12.385-1.432a3.2,3.2,0,0,0-3.547,2.812l-2.663,23.035A3.2,3.2,0,0,0,3037.225,1810.664Z" transform="translate(-3034.391 -1781.248)"/></g><g transform="translate(112.31 171.799)"><g transform="translate(0 0)"><path class="by" d="M14.794,0h0a14.8,14.8,0,0,1,14.8,14.8v7.738A14.794,14.794,0,0,1,14.8,37.328h0A14.795,14.795,0,0,1,0,22.533V14.794A14.794,14.794,0,0,1,14.794,0Z" transform="translate(0 29.394) rotate(-83.405)"/></g></g><g transform="translate(11.705)"><path class="cd" d="M2455.435,686.34" transform="translate(-2455.435 -686.34)"/></g></g><g transform="translate(205.696 47.625)"><g transform="translate(0 22.775)"><path class="ce" d="M1989.79,827l-4.126,4.761s21.582-2.667,32.628,7.237c0,0,15.647-8.793,34.31.921,0,0,17.234-10.761,35.992-.762a37.992,37.992,0,0,1,31.771-7.269l-8.823-8.824-57.606-12.094Z" transform="translate(-1985.664 -810.974)"/></g><g transform="translate(66.022 46.49)"><g transform="translate(0)"><rect class="o" width="1.953" height="69.558" transform="matrix(-1, 0.004, -0.004, -1, 2.251, 69.557)"/></g></g><g transform="translate(64.67 31.145)"><g transform="translate(0 0)"><path class="e" d="M2.054,0h0A2.053,2.053,0,0,1,4.107,2.053V15.184a2.054,2.054,0,0,1-2.054,2.054h0A2.053,2.053,0,0,1,0,15.185V2.054A2.054,2.054,0,0,1,2.054,0Z" transform="matrix(1, -0.021, 0.021, 1, 0, 0.086)"/></g></g><g transform="translate(65.221 104.468)"><g transform="translate(0 0)"><path class="e" d="M2.054,0h0A2.053,2.053,0,0,1,4.107,2.053V15.185a2.053,2.053,0,0,1-2.053,2.053h0A2.053,2.053,0,0,1,0,15.185V2.054A2.054,2.054,0,0,1,2.054,0Z" transform="matrix(1, -0.021, 0.021, 1, 0, 0.086)"/></g></g><g transform="translate(66.099)"><rect class="o" width="1.609" height="9.075" rx="0.805"/></g><g transform="translate(0 4.708)"><path class="p" d="M1985.664,734.1s13.6-39.4,67.033-38.853c50.02.508,67.667,38.98,67.667,38.98s-20.44-14.348-44.308.889c0,0-22.344-13.713-45.45.254C2030.606,735.366,2007.5,722.161,1985.664,734.1Z" transform="translate(-1985.664 -695.238)"/><g class="cf"><g class="au" transform="translate(44.932 -1.932)"><path class="o" d="M2292.885,682.859s-20.455,5.913-19.347,43.838l45.45-.254s1.844-35.961-15.215-42.313Z" transform="translate(-2273.495 -682.859)"/></g></g></g></g><g transform="translate(64.046 157.676)"><g transform="translate(10.721 14.836)"><path class="cg" d="M1192.85,1548.8h-34.812a11.086,11.086,0,0,1-11.086-11.086v-61.526a11.086,11.086,0,0,1,11.086-11.086h34.812a11.086,11.086,0,0,1,11.085,11.086v61.526A11.086,11.086,0,0,1,1192.85,1548.8Z" transform="translate(-1146.953 -1465.097)"/></g><g transform="translate(20.99)"><g transform="translate(3.085)"><rect class="c" width="2.178" height="17.06"/></g><g transform="translate(16.824)"><rect class="c" width="2.178" height="17.06"/></g><rect class="cg" width="22.2" height="2.753" rx="1.376"/></g><g transform="translate(9.187 95.918)"><circle class="p" cx="4.355" cy="4.355" r="4.355"/></g><g transform="translate(42.941 95.918)"><circle class="p" cx="4.355" cy="4.355" r="4.355"/></g><g transform="translate(0 14.836)"><path class="n" d="M1124.171,1548.8h-34.812a11.086,11.086,0,0,1-11.085-11.086v-61.526a11.086,11.086,0,0,1,11.085-11.086h34.812a11.086,11.086,0,0,1,11.085,11.086v61.526A11.086,11.086,0,0,1,1124.171,1548.8Z" transform="translate(-1078.274 -1465.097)"/><g class="ch"><g class="ci" transform="translate(7.985 8.289)"><rect class="cj" width="2.132" height="63.84" rx="1.066"/></g><g class="ci" transform="translate(19.924 8.289)"><rect class="cj" width="2.132" height="63.84" rx="1.066"/></g><g class="ci" transform="translate(31.864 8.289)"><path class="cj" d="M1.066,0h0A1.066,1.066,0,0,1,2.132,1.066V62.774A1.066,1.066,0,0,1,1.066,63.84h0A1.066,1.066,0,0,1,0,62.774V1.066A1.066,1.066,0,0,1,1.066,0Z"/></g><g class="ck" transform="translate(43.803 8.289)"><g class="ci"><rect class="cj" width="2.132" height="63.84" rx="1.066"/></g></g></g></g></g><g transform="translate(252.163 223.543)"><g transform="translate(197.04 18.025)"><g transform="translate(30.947 25.829)"><g transform="translate(0 0)"><rect class="n" width="2.76" height="49.079" transform="translate(2.739 49.049) rotate(-172.984)"/></g></g><g transform="translate(7.884 9.182)"><g transform="translate(0 0)"><rect class="cj" width="1.065" height="2.905" transform="translate(0 1.057) rotate(-82.984)"/></g></g><g transform="translate(0 7.159)"><g transform="translate(0 0)"><rect class="cj" width="3.22" height="8.198" transform="matrix(0.122, -0.993, 0.993, 0.122, 0, 3.196)"/></g></g><g transform="translate(9.377)"><path class="r" d="M3631.965,1910.051l-20.84-2.565a3.577,3.577,0,0,0-3.987,3.114l-1.5,12.185a3.577,3.577,0,0,0,3.114,3.987l19.816,2.439-.437,3.551a3.577,3.577,0,0,0,3.113,3.987l6.214.765a5.449,5.449,0,0,0,6.073-4.743l.58-4.715c.369-2.995.554-5.437-2.426-5.815l-.226-.029a4.015,4.015,0,0,1-3.494-4.475h0A6.9,6.9,0,0,0,3631.965,1910.051Z" transform="translate(-3605.611 -1907.459)"/><g class="cl"><g class="y" transform="translate(-1.791 0.03)"><path class="cm" d="M3636.036,1931.486c-9.595-1.215-5.309-6.176-11.348-7.759s-26.851-16.074-26.851-16.074l-3.7,18.923,12.646,8.277s13.364,5.173,13.536,5.138,12.435.074,12.663-.01a60.056,60.056,0,0,0,3.62-5.349C3636.625,1934.437,3636.036,1931.486,3636.036,1931.486Z" transform="translate(-3594.136 -1907.653)"/></g></g></g><g transform="translate(13.256 3.793)"><g transform="translate(0.953 0)"><g transform="translate(0)"><rect class="cn" width="13.145" height="2.236" rx="1.118" transform="translate(13.046 3.825) rotate(-172.984)"/></g></g><g transform="translate(0.477 3.873)"><g transform="translate(0 0)"><rect class="cn" width="13.145" height="2.236" rx="1.118" transform="translate(13.046 3.825) rotate(-172.984)"/></g></g><g transform="translate(0 7.747)"><g transform="translate(0 0)"><rect class="cn" width="13.145" height="2.236" rx="1.118" transform="translate(13.046 3.825) rotate(-172.984)"/></g></g></g><g class="co" transform="translate(22.478 61.164)"><g transform="translate(0 0)"><ellipse class="o" cx="13.146" cy="8.233" rx="13.146" ry="8.233" transform="translate(0 26.095) rotate(-82.987)"/></g></g><g transform="translate(27.339 68.152)"><g transform="translate(0 0)"><ellipse class="cp" cx="6.609" cy="4.139" rx="6.609" ry="4.139" transform="translate(0 13.12) rotate(-82.987)"/></g></g></g><path class="s" d="M2283.336,1791.992c-.544,0,23.047,66.789,46.638,73.142s61.338-6.171,77.671-1.271,15.244,17.786,29.036,18.149,45.368-2.541,55.167,2c0,0,16.877-21.779,21.051-52.088C2512.9,1831.92,2381.512,1792.264,2283.336,1791.992Z" transform="translate(-2283.326 -1791.992)"/><g class="cq"><g class="z" transform="translate(42.953 30.364)"><path class="d" d="M2746.571,2023.891s-99.39-34.9-188.091-37.387c0,0,3.992,16.781,12.7,18.009s101.806,13.933,168.407,39.161C2739.59,2043.673,2751.821,2035.488,2746.571,2023.891Z" transform="translate(-2558.48 -1986.503)"/></g><g class="z" transform="translate(-4.255 -5.955)"><path class="d" d="M2260.323,1769.327s49.9-7.818,229.294,40.33l3.059-14.482-113.083-28.513-116.721-12.817-6.805,2.378Z" transform="translate(-2256.067 -1753.844)"/></g></g></g><g transform="translate(353.879 78.748)"><g transform="translate(0 9.555)"><path class="o" d="M2938.885,925.662l-3.977,2.833,4.828,2.571Z" transform="translate(-2934.907 -925.662)"/></g><g transform="translate(15.876)"><path class="cr" d="M3041.965,872.133a.375.375,0,0,1-.23-.079l-4.983-3.875a.375.375,0,0,1,.068-.633l6.375-3.057a.374.374,0,0,1,.529.411l-1.393,6.933a.373.373,0,0,1-.236.277A.381.381,0,0,1,3041.965,872.133Zm-4.275-4.174,4.028,3.133,1.125-5.6Z" transform="translate(-3036.608 -864.451)"/></g><g transform="translate(38.981 22.962)"><path class="o" d="M3187,1017.8a.38.38,0,0,1-.1-.013.376.376,0,0,1-.227-.175l-2.014-3.488a.374.374,0,0,1,.137-.511l3.488-2.014a.373.373,0,0,1,.511.137l2.014,3.488a.374.374,0,0,1-.137.511l-3.488,2.014A.376.376,0,0,1,3187,1017.8Zm-1.5-3.726,1.639,2.84,2.839-1.64-1.639-2.84Z" transform="translate(-3184.613 -1011.546)"/></g></g><g transform="translate(134.812 116.621)"><g transform="translate(23.989)"><path class="bw" d="M1689.812,1116.147a4.61,4.61,0,0,1-.494-.027,4.544,4.544,0,1,1,4.023-7.369h0a4.544,4.544,0,0,1-3.529,7.4Zm-.012-8.188a3.643,3.643,0,1,0,2.842,1.357A3.627,3.627,0,0,0,1689.8,1107.959Z" transform="translate(-1685.262 -1107.061)"/></g><g transform="translate(0 7.49)"><path class="t" d="M1534.88,1161.6a3.381,3.381,0,0,1-.357-.019,3.283,3.283,0,1,1,2.907-5.324h0a3.283,3.283,0,0,1-2.55,5.343Zm-.009-5.666a2.383,2.383,0,1,0,1.859.887h0A2.381,2.381,0,0,0,1534.871,1155.938Z" transform="translate(-1531.593 -1155.04)"/></g><g transform="translate(2.553 27.186)"><path class="t" d="M1549.036,1281.211l-1.088,3.876,4.429-.848Z" transform="translate(-1547.949 -1281.211)"/></g><g transform="translate(12.999 15.989)"><path class="cr" d="M1618.944,1216.28a.45.45,0,0,1-.35-.167l-3.631-4.507a.449.449,0,0,1,.254-.721l6.333-1.387a.449.449,0,0,1,.5.626l-2.7,5.894a.45.45,0,0,1-.353.259A.475.475,0,0,1,1618.944,1216.28Zm-2.826-4.673,2.72,3.376,2.024-4.415Z" transform="translate(-1614.864 -1209.487)"/></g><g transform="translate(44.317 10.322)"><path class="o" d="M1819.375,1178.858a.446.446,0,0,1-.162-.031l-3.445-1.332a.449.449,0,0,1-.257-.581l1.332-3.445a.449.449,0,0,1,.581-.257l3.445,1.332a.449.449,0,0,1,.257.581l-1.332,3.445A.45.45,0,0,1,1819.375,1178.858Zm-2.863-2.038,2.607,1.008,1.008-2.607-2.607-1.008Z" transform="translate(-1815.482 -1173.183)"/></g></g><g transform="translate(366.806 2.972)"><g transform="translate(0 0)"><path class="cs" d="M2547.242,563.846c.385.008,21,.36,31.126-13.6,2.159-1.491,7.551,1.078,9.823,1.448a29.132,29.132,0,0,0,11.753-.434c32.15-7.382,44.81-49.521,26.465-75.568-13.934-19.783-41.335-27.719-64.512-24.961-12.036,1.432-23.935,5.926-32.912,14.252-21.8,20.222-4.687,60.507,18.191,72.208,4.374,2.237,11.924.748,14.539,6.379C2564.9,550.431,2553.805,563.98,2547.242,563.846Z" transform="translate(-2518.923 -450.199)"/></g></g><g transform="matrix(0.946, 0.326, -0.326, 0.946, 413.82, 16.99)"><g transform="translate(0 0)"><g transform="translate(0 0)"><path class="ct" d="M24.82,57.466A3.537,3.537,0,0,1,23.4,57.19C11.12,52.037,5.224,44.607,2.442,39.28A18.253,18.253,0,0,1,.375,30.808L0,6.581a3.527,3.527,0,0,1,4.651-3.4,17.2,17.2,0,0,0,5.76.871A24.439,24.439,0,0,0,22.045.58a3.545,3.545,0,0,1,3.8-.053A24.435,24.435,0,0,0,37.574,3.634,17.216,17.216,0,0,0,43.3,2.585a3.524,3.524,0,0,1,4.751,3.254l.375,24.226a18.241,18.241,0,0,1-1.8,8.53c-2.618,5.412-8.281,13.022-20.4,18.551A3.526,3.526,0,0,1,24.82,57.466Z"/></g><g transform="translate(11.418 14.273)"><g transform="translate(0 0)"><path d="M9.131,21.735a2.973,2.973,0,0,1-2.036-.761L1,15.517A2.988,2.988,0,1,1,4.98,11.065L9.037,14.7,23.547.809a2.987,2.987,0,0,1,4.088,4.356L11.13,20.926A2.977,2.977,0,0,1,9.131,21.735Z"/></g></g></g></g></g></g></svg>