<svg xmlns="http://www.w3.org/2000/svg" xmlns:xlink="http://www.w3.org/1999/xlink" width="1366" height="668" viewBox="0 0 1366 668"><defs><style>.a,.bp{fill:#f4f4f4;}.b{clip-path:url(#a);}.c{fill:#addea6;}.ao,.d{fill:#fff;}.d{opacity:0.45;}.e{fill:#8fb995;}.f{fill:#519073;}.g{fill:#3f755d;}.h{fill:#468066;}.i,.l{fill:#d78839;}.j,.k{fill:#f2f894;}.j{opacity:0.41;}.as,.k{opacity:0.5;}.l{opacity:0.63;}.m{fill:#26491f;}.n{fill:#91a0ab;}.o,.p{fill:#66788a;}.p{opacity:0.51;}.q{fill:#375e1d;}.r{fill:#337d51;}.s{fill:#266943;}.t{fill:#003721;}.u{fill:#0f442c;}.af,.bi,.bj,.bk,.v,.w{fill:none;}.v{stroke:#455c46;stroke-width:11px;}.bi,.bj,.bk,.v,.w{stroke-miterlimit:10;}.w{stroke:#6cae32;stroke-width:10px;}.x{fill:#224d21;}.y{fill:#316211;}.z{fill:#3a7c00;}.aa{fill:#207426;}.ab{fill:#ab652f;}.ac{fill:#246638;}.ad{fill:#6a445a;}.ae{fill:#5b394e;}.ag{fill:#533347;}.ah{fill:#3c6c36;}.ai{fill:#f8ba11;}.aj{fill:#ec694a;}.ak{fill:#2b121b;}.al{fill:#eabaac;}.al,.az{mix-blend-mode:multiply;isolation:isolate;}.am{fill:#cf6528;}.an{fill:#0c1407;}.ap{fill:#231f20;}.aq{fill:#29abe2;}.ar,.as{fill:#1f2524;}.at{fill:#7d331e;}.au{fill:#2d7534;}.av{fill:#277d00;}.aw{fill:#0d561e;}.ax{fill:#be7037;}.ay{fill:#965f4a;opacity:0.65;}.az{opacity:0.42;}.ba{fill:#a15b5d;}.bb{fill:#007139;}.bc{fill:#25571a;}.bd{fill:#54a405;}.be{fill:#5a903d;}.bf{fill:#234e22;}.bg{fill:#1b431d;}.bh{fill:#214921;}.bi{stroke:#1b431d;}.bi,.bj,.bk{stroke-width:0.5px;}.bj{stroke:#254e25;}.bk{stroke:#234925;}.bl{fill:#143510;}.bm{fill:#28612b;}.bn{fill:#4a2c3f;}.bo{fill:#442739;}.bp{opacity:0.97;}</style><clipPath id="a"><rect class="a" width="1366" height="666" transform="translate(0 0.399)"/></clipPath></defs><g transform="translate(0 -2646.399)"><g class="b" transform="translate(0 2646)"><g transform="translate(-54.677 -46.981)"><g transform="translate(46.936 15.509)"><rect class="c" width="1462.275" height="768.994" transform="translate(0 0)"/><path class="d" d="M1337.969-13.384H124.5C108,4.924,93.173,26.306,80.316,44.411,73.273,54.33,66.251,65.478,66.789,77.767c.985,22.52,25.168,34.891,45.719,42.474l96.782,35.715,62.641,23.116c7.156,2.641,14.559,5.32,22.143,4.819,21.426-1.416,34.948-26.674,56.013-30.955,11.011-2.238,22.187,1.66,33.2,3.871,43.3,8.691,87.838-8.778,131.773-4.769,35.159,3.208,67.649,19.9,99.173,36.306l91.911,47.821c9.727,5.061,19.891,10.237,30.782,10.351,7.966.083,15.694-2.565,23.246-5.184,23.35-8.1,47.31-16.538,66.137-32.942,11.1-9.672,20.06-21.834,31.665-30.849,17.7-13.748,40.028-19.089,61.635-24.095l255.8-59.261c58.217-13.487,121.667-30.409,156.555-80.41,4.833-6.925,9.154-15.346,7.229-23.648A17.873,17.873,0,0,0,1337.969-13.384Z" transform="translate(0.313 13.384)"/><path class="d" d="M1286.332-13.384l-14.291,5.179a33.408,33.408,0,0,0,5.424-5.179H329.083A49.19,49.19,0,0,0,328.064,1.87c3.17,37.327,36.5,65.3,71.285,75.9s71.838,8.291,107.993,11.286c112.166,9.291,222.079,70.039,332.142,45.854,46.724-10.268,89.293-35.344,135.624-47.362,32.9-8.536,67.059-10.322,100.5-16.209,77.037-13.56,148.614-48.478,218.646-84.722Z" transform="translate(-65.925 13.384)"/></g><g transform="translate(48.633 108.876)"><path class="e" d="M1444.832,145.8l-144.006,33.089L1155.253,292.977l-253,184.272L693.276,524.28,511.919,487.272,399.97,373.162l-153,9.252L117.858,196.6l-138.7-88.888V499.941L99.2,624.512l176.88,78.643,526.907,28.527,641.845-133.32Z" transform="translate(20.837 -107.712)"/><path class="e" d="M919.223,618.127s-24.513,5.682-56.976-5.641-32.4-55.512-32.4-55.512l27.948,29.192-21.348-73.891s17.5.464,27.351,41.788,4.5,51.154,4.5,51.154-16.442-65.647,19.892-84.431l-4.27,38.5s23.005-38.4,10.768-63.849c0,0,32.8,47.115-5.272,94.009,0,0,30.042-32.15,52.938-16.682Z" transform="translate(-194.958 -196.498)"/><path class="e" d="M994.441,638.345s68.235,1.369,80.335-44.615-65.644,22.148-65.644,22.148,42.924-26.991,35.822-57.115-36.671,46.77-36.671,46.77S990.4,552.78,986.568,584.716s.594,53.584.594,53.584Z" transform="translate(-234.319 -209.395)"/><path class="e" d="M740.323,564.029a98.266,98.266,0,0,1,18.905,30.627,51.832,51.832,0,0,1,3.593-21.414,93.481,93.481,0,0,1,4.931,21.494,40.5,40.5,0,0,1,6.775-12.137l.749,14.232a21.014,21.014,0,0,1,6-8.719l-.211,11.176a22.6,22.6,0,0,1,6.151-4.843,25.5,25.5,0,0,1,.484,7.984,33.968,33.968,0,0,0,6.921-21.783l5.2,24.551a51.213,51.213,0,0,1,5.4-9.59q10.384,20.264,19.186,41.34l-37-13.438c-12.582-4.571-28.231-9.608-37.152-20.594-3.451-4.25-4.629-9.835-5.994-15.125q-1.54-5.974-2.542-12.079C741.36,573.492,741.637,565.472,740.323,564.029Z" transform="translate(-172.249 -212.204)"/><path class="e" d="M600.356,515.269c-3.427-13.388-3.9-27.366-4.345-41.207a101.644,101.644,0,0,1,17.854,44.414c1.656-9.63,3.319-19.331,3.169-29.109s-2.229-19.755-7.5-27.877c18.7,16.591,24.521,45.015,19.572,69.957a52.873,52.873,0,0,1,15.3-21.733l-5.165,23.214,17.726-16.12a30.5,30.5,0,0,1-7.868,26.881c-7.274,7.4-21.216,12.12-29.634,4.907C609.691,540.223,603.553,527.756,600.356,515.269Z" transform="translate(-135.641 -188.723)"/><path class="e" d="M679.192,562.613c5.781-5.978,9.529-13.706,12.765-21.467a20.7,20.7,0,0,1-13.23,11.607,68.355,68.355,0,0,0,5.954-22.187,24.011,24.011,0,0,1-10.353,10.755q-.3-6.4-.6-12.794A109.47,109.47,0,0,0,657.972,548.2c-2.915,4.645-10.66,15.161-8.946,21.1C652.572,581.6,674.934,567.015,679.192,562.613Z" transform="translate(-149.027 -204.074)"/><path class="e" d="M800.611,405.029l-58.165-11.676-1.379,6.083-8.541-6.152-33.065-4.339L675,369.378l-13.476,4.334-9.339,16.179,13.007,11.516,2.16,5.211-6.272-5.951L645.36,388.943l-5.875,10.919L635.63,398.4l-9.714,4.94-4.529,9.375L610.7,422.626l22.871,9.509,15.918,8.923.134,7.448,9.2-10.391,18.925,7.344h0a79.489,79.489,0,0,1,11.96,38.625L660.585,659.862l16.677,4.679,20.687-192.79,21.567-5.8,11.458,5.131,18.036,7.776,8.967-19.608-5.736-1.767-1.371-14.351-24.231,2.009-.523-.244,19.214-15.453.769.232.32.553.263-.377,25.756,7.768,20.119,2.71,14.487-7.631ZM659.188,437.7l8.4-9.49,1.378-6.865,11.5,19.448Zm10.193-18.428,1.048-5.223,2.038,4.918,12.064,7.459,3.546,7.922,16.161,12.713-.652,3.664-8.593.629Zm27.1,45.375,9.008-4.974,6.954,3.114Zm23.759-22.487-6.085-2.838-11-11.574,25.549,4.63Z" transform="translate(-139.366 -167.631)"/></g><g transform="translate(48.633 6.744)"><path class="f" d="M1498.061,407.446s58.082,12.56,105,45.746,29.463,68.457,19.024,79.8L1598.3,508.769l15.789-28.833-16.542,26.9-7.348-5.473,12.441-33.635-3.089-2.575-15.816,30.551-11.008-9.068,17.14-27.6L1571.2,484.492l-15.681-16.82,14.413-21.887-15.451,19.446,12.439-20.706-15.529,18.131S1526.595,427.808,1498.061,407.446Z" transform="translate(-364.466 -74.216)"/><path class="f" d="M1693.864,516.8s-57.2-46.884-91.119-110.1,4.1-92.091,21.637-98.631l13.243,40.19-32.753,22.735,32.551-20.181,5.165,10.2-31.629,29.924,2.025,4.592,33.7-24.608,7.275,16.243-33.58,20.608L1654.5,390.4l8.28,27.433-27.532,15.875,27.372-12.6-24.732,15.7,26.757-11.107S1673.333,478.158,1693.864,516.8Z" transform="translate(-387.569 -51.46)"/><path class="g" d="M1914.105-24.753c-5.121,12.685-11.112,25.638-21.8,33.82-6.716-4.992-7.821-14.667-8.087-23.176-.1-3.135-.133-6.72-.112-10.645h-7.549c-.337,11.074-.606,21.135-.747,29.244-.083,4.831-.182,9.752-1.676,14.332-3.734,11.449-15.1,18.143-25.908,22.892-2.278-19.552-4.206-42.655-5.645-66.467h-41.017c2.4,13.9,5.791,27.635,7.412,41.654,5.041,43.576-7.183,87.074-19.275,129.143a386.412,386.412,0,0,1-1.214-50.921l-10.574,2.523a330.708,330.708,0,0,1-1.287,105.422c-3.518,20.16-8.9,39.918-14.394,59.605-21.684,77.734-45.4,156.6-43.279,237.457.156,5.939,30.309,2.711,34.27,1.559,10.915-3.173,13.512-6.034,16.089-16.561,6.753-27.594,5.512-59.494,10.074-87.85,9.562-59.437,23.853-117.917,38.129-176.3q15.861-64.864,31.723-129.73c2.011-8.226,4.079-16.591,8.356-23.842,5.571-9.443,14.419-16.24,22.154-23.905,19.152-18.979,31.2-42.835,41.158-68.255Z" transform="translate(-420.467 24.753)"/><path class="h" d="M1541.637,30.083l-100.064,9.991.6,10.581L1425.4,44.9l-55.809,9.416-48.927-19.637-19.9,13.764-7.636,30.971,26.534,12.251,5.946,7.4-12.981-6.555-31.04-11.237-4.458,20.689-6.954-.461-13.494,12.877-2.992,17.507-12.758,21.45,41.642,4.071,30.06,6.583,3.7,12.049,10.107-21.485,34.211,2.516h0a132.061,132.061,0,0,1,37.49,56.87l34.706,300.434,29.311-.7L1405.8,189.77l32.374-20.178,21.035,2.636,32.968,3.662,5.432-36.362-10.155-.017-8.93-22.66-38.477,15.342-.965-.136,24.038-34.711,1.358-.006.779.74.254-.744,45.521-.2,33.991-5.617,20-19.631Zm-214.79,123.608,9.231-19.622-.964-11.854,27.788,25.9Zm7.976-35.054-.733-9.018,5.611,6.984,23.106,6.122,9.466,11.119,32.224,12.628.651,6.283-13.684,5.305Zm65.263,60.305,12.33-12.578,12.765,1.6Zm28.148-48.418-11.222-1.584-23.293-13.347,43.721-5.2Z" transform="translate(-299.241 12.196)"/><path class="f" d="M1444.832,320.936,1428.409,318l-66.423,45.49L1255.261,463.721l-41.048,1.542-5.224,57.826L1182.12,470.66l-13.434,47.032L1114.2,429.026,965.686,599.419l-140,48.355-125.7-5.178-162.7-8.481-45.526-24.672-59.706-3.855-13.434,9.252L365.639,513.066l-25.375,70.162-52.243-42.406L180.55,496.875-20.837,423.8V655.378L194.73,732.033,757.814,777.5l687.018-160.081Z" transform="translate(20.837 -53.734)"/><path class="f" d="M625.685-24.753h-464.9L140.284,6.562,270.946,27.6l30.705,4.9,26.868,3.855,22.39,61.681,10.763-5.147c1.9,9.588,3.876,19.161,5,28.873,5.041,43.576-7.183,87.074-19.275,129.143a386.307,386.307,0,0,1-1.214-50.921L335.609,202.5a330.7,330.7,0,0,1-1.287,105.422c-3.518,20.16-8.9,39.918-14.394,59.605-21.683,77.734-45.4,156.6-43.279,237.457.156,5.939,30.309,2.711,34.27,1.559,10.914-3.173,13.512-6.034,16.089-16.561,6.753-27.594,5.512-59.494,10.074-87.85,9.562-59.437,23.853-117.917,38.129-176.3l31.723-129.73c2.011-8.226,4.079-16.591,8.356-23.842,5.571-9.443,14.419-16.24,22.154-23.905,17.548-17.39,29.134-38.875,38.611-61.905l8.7,7.759,46.017-23.167L576.3,87.239l27.614-24.672L637.5,25.558l6.717-45.49ZM431.831,123.68c-3.735,11.449-15.106,18.143-25.908,22.892-3.653-31.36-6.407-71.851-7.686-109.755L423.3,43.291l12.37-6.572c-.906,27-1.854,54.622-2.167,72.629C433.423,114.179,433.325,119.1,431.831,123.68ZM450,113.925c-6.716-4.992-7.821-14.667-8.087-23.176-.431-13.739.35-36.052,1.767-58.285l5.743-3.052,11.941,15.42V73.36l9.671,8.621C466.077,94.055,460.161,106.145,450,113.925Z" transform="translate(-20.035 24.753)"/><path class="f" d="M234,484.34s42.541-87.124,57.467-215.112,9.7-245.181,9.7-245.181L322.067,4s19.4,368.543-34.331,477.256S234,484.34,234,484.34Z" transform="translate(-43.808 18.169)"/><path class="f" d="M276.009,526.367c1.567,3.255,15.338-200.865-49.973-234.241L242.5,378l17.5-.544-10.452,11.509,2.813,24.333,10.081-1.934-7.294,14.848S261.066,495.337,276.009,526.367Z" transform="translate(-41.788 -47.809)"/><path class="f" d="M221.5,517.33S224.972,310.518,19.574,289l71.744,73.52,26.615-11.954L95.369,367.9l18.515,34.07,22.564-26.3-18.515,29.887,14.465,25.7,25.457-22.713-19.093,32.874,12.15,23.312,22.565-21.518L153.806,473.1s21.986,43.036,68.272,47.221Z" transform="translate(10.586 -47.093)"/><g transform="translate(1001.461 19.867)"><path class="f" d="M1638.34,11.45l-4.47-.981A11.986,11.986,0,0,1,1638.34,11.45Z" transform="translate(-1400.379 -3.179)"/><path class="f" d="M1321.016,86.993s27.424-63.949,71.177-69.48c17-2.149,32.537,3.15,45.183,10.43l-.455-.419,15.822-13.9c7.356-6.46,26.692,8.394,33.215,13.773l.052-.171c5.585-18.3,21.939-29.149,38.473-25.518L1554.507,8.3h0l4.47.981s25.616,22.581,31.644,60.793L1570.279,46.63l-9.041-21.712.754,14.764-10.549-5.21-2.26-12.159V31l-11.3-1.737s-12.808,6.079-15.069,10.422c-4.843,11.165-10.446,17.031-16.008,19.692,14.834,8.9,36.08,36.5,40.872,121l-.754,23.449s-29.384-19.106-39.179-52.109l2.26-12.159-6.028,8.685.654-5.528,1.607-13.578-25.811-43.045c17.538,59.638,43.98,125.919,84.579,180.265,88.6,118.6,124.627,179.389,124.627,179.389l3.546,17.9h0l8.353,42.157s-86.157-149.952-144.814-228.152c-49.057-65.4-80.238-166.727-89.132-198.147-2.325,9.248-5.047,26.345-5.047,55.716h-8.288l8.288,4.342h-8.288l9.795,8.685V176.9l-11.3-7.817,12.055,13.9s3.014,36.477,8.287,49.5c0,0-49.726-41.687-43.7-103.349,1.757-17.978,3.963-32.486,6.206-44.019a39.8,39.8,0,0,1,7.854-17.029c-21.551,15.7-32.142,30.651-32.142,30.651l-5.274-9.554,1.507,11.291-14.315,22.58,1.508-17.369-6.781,23.449-1.507-15.632-2.261,19.106L1365.344,174.3V143.9c3.643-34.429,19.966-68.046,42.156-89.86l-3.059-12.174.011,12.365-19,2.527-6.311-15.411,1.818,15.625-13.773,2.886-2.514-11.841.122,13.07ZM1478.36,51.841l-1.153.355q.9.055,1.8.16c-.387-.36-.6-.575-.6-.575.022-.052.06-.16.112-.311Z" transform="translate(-1321.016 -1.014)"/></g><g transform="translate(247.659 162.471)"><path class="f" d="M495.534,196.2l4.318-.962A11.435,11.435,0,0,0,495.534,196.2Z" transform="translate(-357.811 -188.093)"/><path class="f" d="M678.621,270.243s-26.5-62.679-68.766-68.1c-16.424-2.106-31.434,3.086-43.651,10.223l.44-.411-15.286-13.62c-7.107-6.332-25.786,8.227-32.089,13.5l-.05-.168c-5.4-17.938-21.2-28.569-37.169-25.011l-29.008,6.461h0l-4.318.962s-24.749,22.132-30.572,59.586L437.8,230.681l8.735-21.281-.728,14.471L456,218.764l2.184-11.918v8.513l10.919-1.7s12.374,5.958,14.558,10.214c4.679,10.943,10.093,16.692,15.465,19.3-14.332,8.721-34.857,35.773-39.486,118.6l.728,22.984s28.388-18.727,37.851-51.074l-2.184-11.918,5.823,8.513-.632-5.419-1.552-13.309,24.936-42.19c-16.944,58.454-42.49,123.418-81.713,176.685C357.3,562.287,322.5,621.87,322.5,621.87l-3.426,17.543h0L311,680.731S394.237,533.757,450.906,457.11c47.395-64.1,77.519-163.416,86.112-194.212,2.246,9.063,4.876,25.821,4.876,54.609H549.9l-8.007,4.256H549.9l-9.463,8.513v28.09l10.918-7.661-11.646,13.62s-2.911,35.752-8.007,48.52c0,0,48.042-40.859,42.218-101.3-1.7-17.621-3.829-31.84-6-43.145a39.271,39.271,0,0,0-7.587-16.69c20.821,15.386,31.053,30.042,31.053,30.042l5.1-9.364-1.456,11.066,13.83,22.132-1.455-17.025,6.551,22.983,1.455-15.322,2.184,18.727,18.2,40.859V326.019c-3.519-33.746-19.29-66.695-40.728-88.076l2.955-11.933-.01,12.12,18.36,2.477,6.1-15.1-1.756,15.315,13.306,2.829,2.429-11.606-.117,12.811ZM526.609,235.788l1.114.348q-.872.054-1.74.157c.375-.353.578-.564.578-.564-.021-.051-.058-.157-.108-.3Z" transform="translate(-311 -185.972)"/></g><path class="f" d="M797.858,582.776,736.2,654.488,727.214,610.3,712.7,642.453l-4.431-93.95-9.633,122.048L675.342,576.41s-3.4,24.878-7.816,57.22c-10.572-92.539-29.837-102.765-29.837-102.765-18.4,19.817-28.719,49.573-34.094,81.959-25.925-60.845-42.253-64.683-42.253-64.683-21.487,39.366-14.436,99.853-1.5,151.654l.082.01.537-.439c1.923-1.577,4.085-.581,5.059,1.106l33.445,3.979,37.729,4.49,20.24,2.409,16.242,1.932,133.455,15.881Z" transform="translate(-123.36 -102.477)"/><g transform="translate(678.337 415.032)"><path class="f" d="M1151.593,525.3c-4.571-7.795-13.912-14.6-21.847-10.55-3.466,1.77-5.77,5.231-7.79,8.621a163,163,0,0,0-22.629,75.764c-1.293-4.211-.749-8.846-2.088-13.042s-6.058-7.943-9.762-5.7a8.728,8.728,0,0,0-2.976,3.736,37.167,37.167,0,0,0-3.776,19.691c-.852-3.06-1.772-6.246-3.9-8.562s-5.851-3.422-8.381-1.582c-2.183,1.587-2.712,4.637-2.953,7.372a104.123,104.123,0,0,0,.075,19.092l-5.518-7.339a62.194,62.194,0,0,0,2.508,29.092,42.367,42.367,0,0,0-15.813-21.52c-2.424-1.7-6.17-2.922-7.918-.5-.885,1.226-.8,2.9-.679,4.417l1.44,17.782a28.624,28.624,0,0,0-9.092-12.6c-1.467-1.155-3.494-2.178-5.074-1.191-1.489.93-1.633,3.052-1.609,4.842q.208,15.014.416,30.029a41.537,41.537,0,0,0-14.25-13.16c-2.195-1.221-4.7-2.258-7.134-1.675-7.683,1.84-4.814,14.631-9.953,20.775-3.7-8.9-9.349-17.7-18.1-21.278s-20.818.626-22.808,10.079a44.481,44.481,0,0,0-15.314-13.711c-3.281-1.77-7.265-3.1-10.617-1.483-3.446,1.667-4.994,6.035-4.618,9.926s2.272,7.429,4.128,10.844c-5.588-1.867-13.3-2.9-15.894,2.514-2.871,6,4.243,12.3,4.25,18.981a49.863,49.863,0,0,0-17.288-9.8c-1.829-.594-3.874-1.066-5.612-.234-3.189,1.524-3.255,6.1-2.663,9.664a113.339,113.339,0,0,0,6.3,22.8l-4.264-.811c3.622,16.46,18.961,27.974,34.925,32s32.7,2.035,49.065.5c54.44-5.119,109.215-5.018,163.874-3.97,3.881.074,13.338-48.644,14.362-53.817a430.523,430.523,0,0,0,7.258-55.3c1.172-17.81.483-35.364-.8-52.766C1157.845,556.474,1160.625,540.7,1151.593,525.3Z" transform="translate(-888.063 -513.543)"/><path class="f" d="M891.016,674.93c1.738-.832,3.783-.36,5.612.234a49.861,49.861,0,0,1,17.288,9.8c-.007-6.683-7.121-12.982-4.25-18.981,2.592-5.414,10.306-4.382,15.894-2.514-1.856-3.415-3.751-6.954-4.128-10.844s1.172-8.259,4.618-9.926c3.353-1.622,7.337-.288,10.617,1.483a44.481,44.481,0,0,1,15.314,13.711c1.99-9.453,14.053-13.654,22.808-10.079s14.407,12.382,18.1,21.278c5.139-6.143,2.27-18.935,9.953-20.775,2.43-.582,4.939.455,7.134,1.675a41.537,41.537,0,0,1,14.25,13.16q-.208-15.014-.416-30.029c-.025-1.789.12-3.912,1.609-4.842,1.579-.987,3.607.036,5.074,1.191a28.624,28.624,0,0,1,9.092,12.6q-.72-8.891-1.44-17.782c-.122-1.52-.207-3.191.679-4.417,4.27-5.911,16.762,6.887,18.346,10.729a50.893,50.893,0,0,1-3.788-17.468,11.783,11.783,0,0,1,.469-4.432,4.52,4.52,0,0,1,3.015-2.99c2.047-.467,4,1.07,5.361,2.709a21.763,21.763,0,0,1,3.058,4.893c-.728-5.34-2-15.887,3.159-19.637,2.53-1.84,6.255-.735,8.381,1.582s3.045,5.5,3.9,8.562a37.175,37.175,0,0,1,3.776-19.692,8.73,8.73,0,0,1,2.976-3.736c3.7-2.244,8.422,1.5,9.762,5.7s.795,8.831,2.088,13.042a163,163,0,0,1,22.629-75.764c2.02-3.39,4.324-6.851,7.79-8.621a10.919,10.919,0,0,1,5.243-1.2,22.727,22.727,0,0,0-1.617,1.733c-3.63,4.328-5.56,9.956-7.142,15.342a209.359,209.359,0,0,0-6.922,83.975c-.322-2.431-.693-4.989-2.17-6.917s-4.456-2.873-6.3-1.313a6.681,6.681,0,0,0-1.8,3.685,61.406,61.406,0,0,0-1.631,16.6c-.741-3.8-1.531-7.727-3.692-10.909s-6.081-5.444-9.721-4.4c-9.123,2.607-4.874,18.547-11.952,25.006a5.456,5.456,0,0,0-6.295-4.59,5.987,5.987,0,0,0-4.312,6.733l-5.743-4.934a109.968,109.968,0,0,0-2.233,26.193,31.649,31.649,0,0,0-9.152-19.665c-1.722-1.7-4.548-3.187-6.305-1.525-.983.93-1.111,2.45-1.175,3.821q-.387,8.362-.775,16.724c-2-4.379-6.2-9.6-10.323-7.256-1.664.946-2.522,2.875-3.185,4.7a64.239,64.239,0,0,0-1.422,38.912c-3.655-14-10.785-27.889-22.966-35.222-1.823-1.1-4.316-1.97-5.884-.516a5.664,5.664,0,0,0-1.334,3.378l-1.849,11.669a2.994,2.994,0,0,0-2.512-2.907,10.848,10.848,0,0,0-3.1,5.206A42.824,42.824,0,0,0,978.5,655.141c-3.854-2.936-9.455-5.1-13.212-2.028-2,1.635-2.848,4.324-3.42,6.885a60.27,60.27,0,0,0,.127,26.7c-1.952-5.2-4.209-10.779-8.88-13.614s-12.312-.735-12.84,4.81c-1.972-2.126-4.055-4.327-6.765-5.263s-6.223-.13-7.439,2.527a9.353,9.353,0,0,0-.456,4.48l.936,15.263a6.054,6.054,0,0,0-8.889-2.494c-2.417-3-5-6.12-8.55-7.48s-8.326-.184-9.668,3.456c-.581-2.958-5.2-3-6.975-.593s-1.529,5.735-1.238,8.739c.034.357.066.719.094,1.083a113.386,113.386,0,0,1-2.973-13.013C887.76,681.034,887.826,676.454,891.016,674.93Z" transform="translate(-888.063 -513.544)"/></g><path class="f" d="M1436.283,121.367l-85.611,14.31,1.079,9.075-14.741-3.994-47.542,11.291L1246.3,137.935,1229.9,150.919l-4.918,27.1,23.5,9.033,5.514,6.032-11.525-4.9-27.323-7.9-2.733,18.066h-6.011l-10.93,11.855-1.639,15.243L1184,244.633l36.067,1.129,26.23,3.952,3.825,10.162,7.553-19.073,29.587.214h0a113.267,113.267,0,0,1,35.315,46.82L1368.515,544.5l25.2-2.275-65.837-275.634,26.792-19.217,18.25,1.069,28.577,1.272,2.733-31.615-8.744.564-8.9-19-32.3,15.4-.838-.062,18.839-31.254,1.169-.082.711.593.178-.655,39.179-2.768,28.963-6.774,16.17-18.042Zm-178.3,118.669,6.9-17.419-1.464-10.15,25.308,20.716Zm4.993-30.633-1.113-7.722,5.2,5.692,20.219,3.952,8.744,9.032,28.416,9.032.9,5.372-11.5,5.348ZM1322.38,257.6l9.943-11.532,11.075.648Zm21.645-43.289-9.747-.723-20.766-10.162,37.361-6.971Z" transform="translate(-284.798 -8.707)"/><path class="f" d="M1226,696.278,1270.033,576l-11.941,90.208,23.136-53.971-8.956,51.658,29.853-85.582-8.21,97.918-45.526,14.649Z" transform="translate(-295.452 -112.813)"/></g><g transform="translate(38.688 470.702)"><path class="i" d="M1465.483,973.3l6.564-396.3S1301.138,597.817,1004.1,685.713s-240.317,88.666-436.6,57.826-593.33,65.536-593.33,65.536L-34.162,973.3Z" transform="translate(34.162 -577)"/><path class="j" d="M1429.115,594.18c-77.949,14.525-210.173,43.083-387.2,95.467-297.038,87.9-240.317,88.666-436.6,57.826-133.295-20.944-359.171,16.78-490.417,43.15l46.352,87.151,356.735-28.16a428.55,428.55,0,0,1,180.125,24.5h0a661.09,661.09,0,0,0,269.782,38.369l120.044-8a928.891,928.891,0,0,0,218.251-41.19L1472.542,810.7,1506.873,688.1Z" transform="translate(-3.649 -580.934)"/><path class="k" d="M678.725,749.8c-73.714-11.582-175.743-5.221-274.422,7.238,15.753,40.416,114.588,46.3,220.687,47.5,135.831,1.542,128.368,38.551,254.5,59.368,19.133,3.158,313.458,13.878,529.146-99.461,150.333-79,98.719-134.019,53.637-160.111-79.891,16.152-197.437,43.4-346.943,87.636C818.288,779.867,875.009,780.638,678.725,749.8Z" transform="translate(-77.065 -583.26)"/></g><g transform="translate(1047.843 508.91)"><path class="l" d="M1503.089,660s11.195,13.878-5.224,23.9-26.868,1.542-56.721,6.939-44.033,20.817-61.2,23.13-11.195-9.252-23.136-5.4S1318,713.2,1318,713.2Z" transform="translate(-1318 -634.214)"/><g transform="translate(19.495)"><path class="m" d="M1515.716,626.555a68.732,68.732,0,0,1-7.923,34.346,15.416,15.416,0,0,0-7.877-14.978,14.906,14.906,0,0,1,1.2,9.606,31.926,31.926,0,0,0-15.511-10.891l1.148,6.637a29.178,29.178,0,0,0-22.075-1.834,19.86,19.86,0,0,1,2.782,6.893c-2.273-.114-4.8-.143-6.509,1.409-3.029,2.75-1.165,8.006,1.6,11.036s6.464,5.786,6.942,9.922c.871-4.324,5.8-6.477,10.074-6.328s8.384,1.844,12.654,2.045c10,.47,18.978-6.168,29.047-3.375-2.923-6.236-.751-12.925-.6-19.773C1520.858,642.759,1519.838,634.078,1515.716,626.555Z" transform="translate(-1373.364 -626.555)"/><path class="n" d="M1375.449,670.349c4.26-5.443,9.831-9.6,15.333-13.682l31.494-23.39c4.131-3.069,9.175-6.293,13.969-4.533,5.513,2.025,7.055,9.175,7.754,15.176l3.386,29.056a5.181,5.181,0,0,1-.208,2.867,4.855,4.855,0,0,1-2.44,1.974,218.974,218.974,0,0,1-57.342,18.82C1365.95,700.484,1361.848,687.725,1375.449,670.349Z" transform="translate(-1350.075 -626.942)"/><path class="o" d="M1491.889,659.831c3.3,3.42,6.875,7.614,6.189,12.394q-33.118,6.925-65.556,16.864c1.743-6.236,7.548-10.157,11.333-15.339,5.445-7.454,7.358-25.837,8.73-35.143.641-4.344-.789-7.469-4.19-10.108C1468.637,627.908,1479.375,646.879,1491.889,659.831Z" transform="translate(-1366.546 -626.997)"/><path class="p" d="M1429.88,641.858c-3.7,4.733-3.829,11.715.236,16.117a5.892,5.892,0,0,1,1.548,3.211c.362,2.5-.935,4.892-2.185,7.059-4.386,7.605-9.492,17.488-13.879,25.093,8.62-1.186,30.262-12.3,24.041-12.5-3.35-.11,3.031-6.159,4.065-9.453,2.245-7.144,13.619-35.008,6.413-40.934C1444.331,625.687,1436.239,633.728,1429.88,641.858Z" transform="translate(-1362.253 -627.121)"/><path class="q" d="M1344.415,681.122c.734-9.463,3.37-18.646,6.111-27.707a106.631,106.631,0,0,1,5.252,28.478,77.74,77.74,0,0,0,9.257-18.174,30.537,30.537,0,0,1,3.7,17.574,156.487,156.487,0,0,1,19.333-24.042c1.825,3.619,1.355,8,.409,11.962a55.706,55.706,0,0,1-24.217,33.6c-4.636,2.936-11.108,7.522-15.8,2.958C1343.433,700.872,1343.921,687.481,1344.415,681.122Z" transform="translate(-1344.121 -632.706)"/></g></g><g transform="translate(336.594 497.193)"><path class="r" d="M711.3,760.024l.746-10.794-10.219-.6c5.323-17.462,10.852-35.844,8.137-53.894a283.722,283.722,0,0,0-7.119-34.062q-2.379-8.531-5.324-16.877c-.773-2.191-6.747-13.586-5.947-15.294a232.385,232.385,0,0,0-20.748,75.7c-16.165-24.914-20.432-57.69-41.073-78.783a149.836,149.836,0,0,1-20.646,87.3,132.35,132.35,0,0,0,8.69-44.043c-1.047,7.426-6.415,13.268-11.145,18.964a155.907,155.907,0,0,0-19.469,29.864,117.48,117.48,0,0,0-4.376-26.847,182.107,182.107,0,0,0-6.667,29.19q-8.687-15.66-16.289-31.929c-1.594,15.793-2.307,32.6,2.2,47.463l.862,1.3-15.063-2.1,12.688,11.565-74.745,3.677q-19.283.948-38.439,3.567L365,764.65l29.853-.771s52.989-6.939,62.691-6.168-6.715,4.625,11.938,5.4c24.506,1.013,49.538-2.828,73.99-4.946,4.128-.358,9.372-.052,10.913,3.92.843,2.172.239,4.932,1.726,6.7,1.242,1.476,3.388,1.575,5.279,1.564,51.773-.319,105.74,4.945,156.621-4.151l9.7-6.168ZM627.014,746.6l-.26-.044.207-.41Z" transform="translate(-365 -614.579)"/><g transform="translate(193.625)"><path class="s" d="M700.037,667.125c-2.479,17.251-11.035,30.738-17.482,46.35a82.3,82.3,0,0,0-4.312,13.79,34.461,34.461,0,0,0-1.983,6.235c-1.275-11.865-.185-24.174,4.478-35.1,2.595-6.078,6.237-11.621,8.99-17.624s4.618-12.77,3.319-19.275c-5.855,17.617-20.108,30.934-27.566,47.894a24.1,24.1,0,0,0-2.309,8.241,23.73,23.73,0,0,0,1.835,9.481,59.475,59.475,0,0,0,11.034,18.519c-.813-.925-.017-5.18.62-8.165a82.894,82.894,0,0,0-.344,8.8c4.415-23.393,24.788-40.126,32.765-62.49,8.146-22.834,4.358-51.13-6.234-72.427C698.061,629.363,702.69,648.658,700.037,667.125Z" transform="translate(-634.258 -611.359)"/><path class="s" d="M625.6,707.255c-1.552,15.619-2.193,32.19,2.262,46.867l9.681,14.617h4.478l4.291-3.166a108.815,108.815,0,0,1-13.744-25.689C628.533,729.135,627.345,718.411,625.6,707.255Z" transform="translate(-624.438 -633.318)"/><path class="s" d="M812.532,696.316c-1.173-11.577-4-22.87-7.119-34.062q-2.379-8.53-5.324-16.877c-.608-1.722-4.422-9.119-5.644-13.042a459.326,459.326,0,0,1-.765,49.464c-1.008,14.456-2.718,28.954-6.85,42.8a102.5,102.5,0,0,1-15.194,30.924c-4,5.545-2.77,7.114,3.788,8.319.078.014.157.024.236.038,1.2-1.2,2.461-2.278,3.13-2.278,1.493,0,9.7,7.71,9.7,7.71l9.7-3.084C804.912,754.668,814.74,718.1,812.532,696.316Z" transform="translate(-661.198 -616.162)"/></g><path class="r" d="M805.873,777.114s9.827-42.995,33.831-77.3,48.279-20.668,56-12.69l-17.33,17.253L858.557,692.1,877.012,704.9l-3.951,5.367-23.226-9.877-1.852,2.251,21.013,12.332L862.469,723l-18.931-13.264L860.944,724.1l-12.017,11.361-15-11.129,13.276,11.857L833,726.552l12.358,11.891S820.6,756.253,805.873,777.114Z" transform="translate(-476.837 -626.53)"/><path class="s" d="M805.316,783.919s31.324-30.073,69.747-44.776,51.247,10.583,53.363,21.649l-23.692,4.372-9.849-21.6,8.436,21.249-6.174,2.188-13.977-21.559-2.752.806,10.816,22.326-9.745,2.917-8.584-21.9,6.724,21.941-16.1,2.53L857.057,756.2l4.644,17.483L855.086,757.5l3.862,16.983S828.786,775.052,805.316,783.919Z" transform="translate(-476.696 -639.595)"/></g><g transform="translate(440.489 716.655)"><path class="t" d="M851.7,1051.618l-50.61-77.105-50.75,6.939-58.214,11.565-38.691,15.014L617.8,994.007,594.359,919l-27.614,66.307L554.8,1020H512.263l-8.053,31.616Z" transform="translate(-504.209 -901.267)"/><path class="t" d="M1741.371,1046.809l.392-23.905-18.658-63.994-16.419-9.252L1681,942.451l-51.928-38.283-36.57,11.565L1534.285,975.1l-91.052-9.252L1418.6,985.9l-55.228-45.49-17.166,21.588L1340.24,975.1,1306.655,898l-32.838,52.429-64.93,33.154s-11.646,34.785-20.929,63.227Z" transform="translate(-677.657 -896.458)"/><path class="u" d="M1124.25,1046.351C1188.713,981.184,1166.1,896,1166.1,896c-166.411,21.21-237.771,105.453-264.49,150.351Z" transform="translate(-605.019 -896)"/></g><g transform="translate(77.245 0)"><path class="v" d="M17.5-8.561S169.751,259.751,348.123,247.415,616.054,106.32,658.595-15.5" transform="translate(-17.5 29.378)"/><path class="w" d="M1306.5-26.561s152.251,268.312,330.623,255.976S1905.054,88.32,1947.6-33.5" transform="translate(-344.484 33.5)"/><path class="v" d="M1387.492-19.233c7.1,26.394,12.32,52.608,19.784,79.594,4.478,15.42,8.956,30.069,13.434,45.49,15.673,47.032,29.853,93.292,50,138.782.746,1.542,0,2.313.746,3.855,39.555,88.666,82.843,181.959,170.163,231.3l15.673,6.939c6.717,3.084,14.18,3.855,20.9,6.168a83.858,83.858,0,0,0,27.614,2.313c4.478,0,8.956.771,13.434,0a133.44,133.44,0,0,0,34.331-9.252c69.409-33.153,101.5-109.484,124.637-180.417,2.239-7.71,4.478-14.649,6.717-22.359,21.643-84.04,33.585-168.08,24.255-254.048" transform="translate(-365.03 30.233)"/><path class="w" d="M636.2-17.69S583.211,367.816,422,337.746,267.6-25.063,267.6-25.063" transform="translate(-80.932 31.568)"/></g><g transform="translate(413.203 628.76)"><path class="x" d="M537.233,948.686s-74.546,18.325-69.322-58.776L469.4,829l58.628,29.465a58.5,58.5,0,0,1,31.625,58.488C558.195,930.2,552.314,942.68,537.233,948.686Z" transform="translate(-467.648 -792.762)"/><g transform="translate(7.586 47.032)"><path class="t" d="M535.967,968.572s-55.228-10.023-52.989-22.359S535.967,968.572,535.967,968.572Z" transform="translate(-479.106 -866.027)"/><path class="t" d="M540.945,949.4S496.912,859.191,479,843C479,843,515.57,868.443,540.945,949.4Z" transform="translate(-478.114 -843)"/><path class="t" d="M563.959,958.41s13.434-37.78,5.971-56.284S563.959,958.41,563.959,958.41Z" transform="translate(-499.635 -855.865)"/><path class="t" d="M556.852,943.589s1.493-56.284-4.478-61.681S556.852,943.589,556.852,943.589Z" transform="translate(-496.259 -851.839)"/><path class="t" d="M542.387,913.2s-2.239-42.406-8.956-46.261S542.387,913.2,542.387,913.2Z" transform="translate(-491.497 -848.433)"/><path class="t" d="M524.607,886.065s-7.463-29.3-9.7-30.069S524.607,886.065,524.607,886.065Z" transform="translate(-487.151 -845.973)"/><path class="t" d="M528.18,946.042s-30.6-9.252-39.555-26.214S528.18,946.042,528.18,946.042Z" transform="translate(-480.275 -859.688)"/><path class="t" d="M514.809,919.534s-37.316-21.588-35.824-27.756S514.809,919.534,514.809,919.534Z" transform="translate(-478.099 -853.998)"/><path class="t" d="M501.089,891.17s-25.375-24.672-23.136-29.3S501.089,891.17,501.089,891.17Z" transform="translate(-477.812 -847.222)"/></g><path class="x" d="M585.205,1037.685,531.195,913l30.829,82.161L520,993.185l44.631,8.924,18.06,48.131Z" transform="translate(-480.929 -811.997)"/><path class="t" d="M637.6,1054.366h5.257l20.473-68.035-20.538,54.305L604,931l36.2,116.476Z" transform="translate(-502.237 -816.119)"/><path class="y" d="M741.858,1067.189,755.555,987l-21.9,80.189Z" transform="translate(-535.126 -828.943)"/><path class="t" d="M662.576,1024.288s-39.362-60.934,17.458-80.65,64.727-14.091,64.727-14.091-7.495,41.56-13.22,57.2C719.026,1020.937,715.957,1045.355,662.576,1024.288Z" transform="translate(-513.728 -815.617)"/><path class="y" d="M671,1019.582S701.6,948.649,747.872,934C747.872,934,702.346,958.673,671,1019.582Z" transform="translate(-519.233 -816.806)"/><path class="y" d="M673,1042.252s33.585,3.084,45.526-9.252Z" transform="translate(-519.741 -839.476)"/><path class="y" d="M683,1026.861s39.555-10.023,46.272-21.588S683,1026.861,683,1026.861Z" transform="translate(-522.277 -832.566)"/><path class="y" d="M700,1003.09s39.555-24.672,44.78-32.382S700,1003.09,700,1003.09Z" transform="translate(-526.59 -824.987)"/><path class="y" d="M726,975.929S755.853,958.2,756.6,952.8,726,975.929,726,975.929Z" transform="translate(-533.185 -820.955)"/><path class="y" d="M666.555,1022.715s-16.419-36.237-7.463-43.947S666.555,1022.715,666.555,1022.715Z" transform="translate(-515.534 -826.878)"/><path class="y" d="M677.342,1007.037s-5.224-38.551,1.493-46.261S677.342,1007.037,677.342,1007.037Z" transform="translate(-520.351 -822.765)"/><path class="y" d="M688,991.052s5.224-37.78,15.673-43.177S688,991.052,688,991.052Z" transform="translate(-523.546 -819.888)"/><path class="y" d="M711,964.4s16.419-23.13,21.643-25.443S711,964.4,711,964.4Z" transform="translate(-529.38 -817.911)"/><g transform="translate(207.524 104.222)"><path class="y" d="M751.755,996.978s-43.672-105.743,103.722-73.785l67.329,23.5S902.789,981,872.764,1006.377C843.464,1031.143,790.424,1054.314,751.755,996.978Z" transform="translate(-745.708 -917.175)"/><g transform="translate(6.956 5.402)"><path class="z" d="M755.029,1004.045a14.911,14.911,0,0,1,.691-2.864l.234-.7.269-.687c.181-.459.358-.92.575-1.361a37.9,37.9,0,0,1,2.906-5.142c.578-.792,1.125-1.618,1.742-2.383s1.235-1.531,1.891-2.261l2.006-2.156,2.125-2.031a83.936,83.936,0,0,1,19.438-12.807,134.765,134.765,0,0,1,21.6-8.2c3.675-1.144,7.416-1.982,11.139-2.912,1.868-.424,3.75-.773,5.625-1.163l2.814-.57c.939-.188,1.885-.324,2.826-.488a301.179,301.179,0,0,1,45.536-4.057,386.488,386.488,0,0,1,45.537,1.851c-15.184.447-30.314.849-45.393,1.813a438.826,438.826,0,0,0-44.928,5.025c-.928.157-1.861.286-2.783.466l-2.766.547c-1.843.371-3.691.715-5.529,1.106l-5.491,1.266c-1.84.389-3.635.939-5.453,1.4a158.628,158.628,0,0,0-21.294,7.251l-2.562,1.164c-.851.394-1.72.756-2.543,1.206l-2.5,1.292c-.413.223-.843.417-1.248.652l-1.221.7-2.446,1.4-2.365,1.533c-.393.258-.795.506-1.181.773l-1.138.833-1.14.834c-.383.276-.764.553-1.124.857a51.446,51.446,0,0,0-8.18,7.847,37.363,37.363,0,0,0-3.3,4.685A22.115,22.115,0,0,0,755.029,1004.045Z" transform="translate(-755.029 -931.054)"/><path class="z" d="M771.792,1005.136s0,31.018,35.939,35.717C807.731,1040.853,797.722,1011.245,771.792,1005.136Z" transform="translate(-759.281 -942.72)"/><path class="z" d="M792.821,995.078s25.93,26.788,63.689,27.728C856.51,1022.806,820.572,996.488,792.821,995.078Z" transform="translate(-764.616 -940.416)"/><path class="z" d="M830.613,980.413s41.853,22.089,65.509,18.8C896.122,999.212,851.539,978.533,830.613,980.413Z" transform="translate(-774.203 -937.031)"/><path class="z" d="M892.177,970.517s27.3,10.81,48.677,5.17A118.2,118.2,0,0,0,892.177,970.517Z" transform="translate(-789.82 -934.654)"/><path class="z" d="M764.386,976.142s-11.373-34.778,10.463-43.238C774.848,932.9,775.3,949.823,764.386,976.142Z" transform="translate(-756.651 -926.179)"/><path class="z" d="M783.069,964.275s4-36.305,25.207-39.841c.239-.039.48-.075.723-.106C830.835,921.507,785.343,960.515,783.069,964.275Z" transform="translate(-762.142 -924.182)"/><path class="z" d="M809.279,955.337s15.922-28.2,40.033-29.138C849.312,926.2,809.734,954.868,809.279,955.337Z" transform="translate(-768.791 -924.644)"/><path class="z" d="M836.709,951.781s21.381-17.389,42.308-16.449C879.017,935.332,859,948.96,836.709,951.781Z" transform="translate(-775.749 -926.727)"/><path class="z" d="M888.52,947.462s17.287-7.989,29.57-6.11C918.09,941.353,897.618,947.933,888.52,947.462Z" transform="translate(-788.892 -928.048)"/></g></g><path class="y" d="M791.167,1020.246h6.465l29.034-156.64,17.366-43.056-15.1,30.834L841.793,782s-9.013,41.386-19.709,91.157c-1.653-5.683-9.555-32.642-10.89-33.331s7.881,32.116,9.74,38.69C809.88,929.99,797.345,989,791.167,1020.246Z" transform="translate(-549.716 -782)"/></g><g transform="translate(950.936 300.309)"><path class="aa" d="M1458.268,1043.3q3.532-1.621,7.032-3.314c19.288-9.37,37.969-20.688,53.96-35.355,0,0,3.721-16.9-76.444,6.263l-30.89,8.894s47.014-25.3,41.743-29.769c-2.915-2.472-28.149,7.352-50.123,16.626,8.124-3.928,15.524-7.928,19.167-10.978,10.186-8.528-51.069,15.881-55.263,17.558,3.794-1.521,54.752-22.078,58.138-30.614,3.517-8.867-111.157,36.069-111.157,36.069s49.48-22.3,55.8-29.695c4.088-4.785-23.255,3.984-43.089,10.778,6.069-7.813,13.676-21.244,22.99-43.775,24.87-60.164-7.692-2.29-19.818,19.749,9.348-17.468,31.227-60.421,34.2-85.029,3.793-31.419-14.575,37.77-32.324,65.1s-52.257,49.107-52.257,49.107,53-48.931,61.392-90.579-23.193,41.4-42.526,54.625c-8.34,5.706-25.076,13.2-41.413,19.868,14.555-9.468,30.175-24.413,42.129-47.97,4.383-8.636,9.164-17.2,13.222-25.967-13.735,19.312-28.38,35.733-44.558,52.535-24.81,25.767-61.215,43.955-79.769,75.428-.086.147-.17.3-.255.444Z" transform="translate(-1188.154 -476.607)"/><g transform="translate(264.225)"><path class="t" d="M1554.625,368.462a45.438,45.438,0,0,1,4.045-2.653l-1.258.053Z" transform="translate(-1545.343 -358.246)"/><path class="t" d="M1939.094,652.2q-9.307-16.006-19.994-31.1c-10.379-14.639-21.686-28.547-32.983-42.441l-37.684-46.348-55.107-67.777c-12.029-14.8-24.107-29.643-37.985-42.6-39.869-37.215-92.816-56.874-146.07-64.272-18.176-2.525-38.052-3.3-53.756,5.894l5.95-.25a75.579,75.579,0,0,0-10,4.079,74.141,74.141,0,0,0,36.519-4.923c-14,9.491-29.987,15.308-45.791,21.035,8.5,4.088,18.609,1.737,27.157-2.234s16.5-9.5,25.551-12c10.727-2.953,22.073-1.4,33.069.175-27.427-.274-52.135,15.945-75.012,31.576,20.376.417,39.867-7.83,58.725-15.815,9.565-4.05,19.3-8.111,29.576-9.266,19.338-2.174,38.187,6.084,56,14.163-24.819-4.845-50.906-9.621-74.912-1.507-12.234,4.135-23.206,11.415-34.845,17.094-10.714,5.228-21.992,9.1-33.238,12.952,41.735,3.97,82.774-10.221,123.809-19.027,7.807-1.675,15.8-3.165,23.715-2.193,16.507,2.029,29.91,14.215,42.156,25.83l-31.421-6.712c-13.665-2.919-27.777-5.844-41.463-3.03-14.595,3-27.142,12.189-39.784,20.3a324.806,324.806,0,0,1-61.3,30.735c16.3,5.349,32.594-6.547,48.826-12.116,23.256-7.978,48.933-2.859,72.843-8.4,11.784-2.729,22.882-7.992,34.554-11.188s24.618-4.157,35.39,1.483c4.211,2.205,4.637,7.143,5.057,12a118.386,118.386,0,0,0-80.208,9.238c-26.021,13.039-47.172,35.531-74.292,45.912a208.084,208.084,0,0,0,109.727-30.655c9.854-6.04,19.891-13.129,31.342-13.552,15.16-.558,28.079,10.588,39.349,21.079-30.833-8.533-62.869,9.425-86.459,31.639s-43.174,49.55-70.553,66.5c31.078-2.762,56.91-24.8,80.66-45.689s49.949-42.641,81.083-44.627a100.638,100.638,0,0,0,19.055,24.038c-27.605-9.938-57.793,6.985-78.319,28.487s-36.171,48.217-59.823,65.964a350.843,350.843,0,0,0,143.16-88.9l25.551,25.4c-29.59-2.813-56.153,17.815-77.685,38.971s-43.289,45.1-72.311,51.691a137.652,137.652,0,0,0,92.116-29.771c21.484-17.116,38.333-40.831,62.688-53.181l11.95,12.894c-34.089,9.517-59.483,38.28-89.945,56.731a162.968,162.968,0,0,1-60,21.751c41.882,13.76,91.322,1.9,121.131-31.463,11.49-12.86,20.25-28.627,34.093-38.715l12.9,13.1a481.733,481.733,0,0,1-110.744,83.1c46.758-7.092,90.01-35.957,115.493-77.074l10.248,11.944c-29.823,49.083-92.875,63.583-133.229,103.835,27.1-9.663,54.357-19.4,79.4-33.808s48.008-33.893,62.629-59.365c4.223,2.457,5.538,8.406,4.231,13.228s-4.623,8.753-7.93,12.413a285.3,285.3,0,0,1-53.983,46.512c-16.169,10.716-34.129,20.452-44.107,37.411,45.987-18.5,94.481-42.611,116.859-88.05q9.19,18.768,18.379,37.536Z" transform="translate(-1542.188 -356)"/></g></g><g transform="translate(1420.481 6.744)"><path class="ab" d="M1911.561,151.745c.079-8.484.181-17.116,2.684-25.205,3.261-10.533,10.31-19.291,16.079-28.623,22.31-36.086,25.08-79.513,29.7-122.67h-6.113q-2.073,23.48-5.583,46.8c-2.1,13.935-4.889,28.493-13.656,39.351-7.666-3.217-10.945-12.351-13.145-20.555-4.011-14.964-9.017-40.935-12.974-65.592h-8.328c6.142,30.686,12.864,64.877,17.372,85.714,1.02,4.716,2.047,9.521,1.639,14.336-1.019,12.035-10.543,21.308-19.958,28.553-13.07-36.136-27.941-85.832-38.727-128.6H1817.3c4.93,24.432,10.584,48.74,19.954,71.706,5.808,14.234,13.01,27.86,18.231,42.334,14.836,41.123,12.875,86.372,10.716,130.2a383.987,383.987,0,0,1-12.791-49.194l-9.7,5.025a329.2,329.2,0,0,1,22.788,102.768c1.178,20.449.45,40.962-.4,61.431-3.347,80.823-8.412,163.238,12.085,241.306,1.506,5.735,30.075-4.741,33.661-6.823,9.885-5.74,11.755-9.153,11.859-20.012.272-28.46-8.209-59.16-10.241-87.829-4.26-60.092-3.706-120.4-3.144-180.616Q1910.937,218.645,1911.561,151.745Z" transform="translate(-1817.295 24.753)"/></g><g transform="translate(893.354 20.046)"><path class="ac" d="M1797.257,65.1,1786,45.009l3.731-18.5L1804.658,8l5.224,12.336,16.419,23.9-3.731,21.588Z" transform="translate(-1282.229 3.951)"/><path class="x" d="M1326,257.9l4.478-23.9,11.941,10.794-3.732,11.565Z" transform="translate(-1165.54 -47.801)"/><path class="y" d="M1406.242,427.747l4.3,30.621,26.121,37.78,9.7-23.9-11.941-8.481,6.717-25.443-1.493,25.443,10.449-40.093-1.493-18.5-8.988-23-32.241,42.657Z" transform="translate(-1185.895 -81.73)"/><path class="x" d="M1246.831,277.359l-36.57,16.962-8.21-6.168L1168.467,308.2,1111,339.811l57.467-52.429-32.838,8.481.746-23.9,44.033-3.084L1203.545,255Z" transform="translate(-1111 -52.61)"/><path class="x" d="M1386.463,483l21.643,23.9,5.224,39.322-4.478,14.649L1379,516.924Z" transform="translate(-1178.984 -104.819)"/><path class="ad" d="M1324.361,248.476h67.916l-11.195,36.237-38.063,54.742.746,53.971,8.956-2.313-2.239-49.345,67.169-92.521,27.168-10.646a82.465,82.465,0,0,1,72.685,6.137c41.187,24.684,100.163,60.022,100.163,60.022l65.677,116.423,11.195,64.765c9.353,80.058,10.932,306.828,11.16,353.512h89.423l-6.546-324.214-47.765-161.912L1670.657,221.49l-26.868-77.872-4.478-46.261,22.39-60.139-35.077,59.368L1590.053-3.645,1501.986-7.5l55.974,143.408,39.556,121.049L1560.2,242.308l-47.824-28.523a51.251,51.251,0,0,0-49.945-1.547h0l-105.978,26.985-48.511-6.168-10.448-33.924-4.478,3.855.746,18.5-58.213-20.046L1194.5,220.719l45.526-10.794Z" transform="translate(-1132.182 7.5)"/><g transform="translate(433.694 2.797)"><path class="ae" d="M1716.282-2.814,1692.1-3.873l49.927,110.927,10.808-9.676Z" transform="translate(-1692.104 3.873)"/><path class="ae" d="M1786.673,278.334l32.838,27.756,42.541,76.33,29.107,86.353,2.239,137.24,14.18,103.315-3.732-170.393,11.941,175.019-13.966,138.786h39.544l-6.546-324.214-47.765-161.912L1816.9,234.772,1790.031,156.9l-4.478-46.261,22.39-60.139-35.012,59.259.308-.276,14.927-14.649L1771,144.178Z" transform="translate(-1712.118 -8.578)"/></g><path class="ae" d="M1617.5,305.861l-47.824-28.523a51.251,51.251,0,0,0-49.945-1.547h0L1420.4,301.086l75.827-14.114L1561.9,280.8l64.93,36.238,38.809,25.443-11.494-22.237Z" transform="translate(-1189.486 -56.054)"/><g transform="translate(248.549 0.287)"><path class="af" d="M1950.4,824.077l-7.693,14.387a36.73,36.73,0,0,0,4.956-3.7C1950.454,832.16,1952.584,827.528,1950.4,824.077Z" transform="translate(-1570.529 -183.209)"/><path class="ag" d="M1812.05,441.541c6.288,5.025,13.318,8.271,20.714,11.145,9.058,3.52,17.842,7.111,24.352,14.853,6.652,7.91,10.436,18.037,13.219,27.978a202.664,202.664,0,0,1,5.884,32.467c2.463,22.349,3.7,44.9,4.364,67.376a992.436,992.436,0,0,1-7.266,152.434c-.176,1.4,1.773,1.4,2.2.308,8.27-21.285,16.542-44.6,30.978-62.422,2.026-2.5,5.351-5.236,8.548-3.095,2.1,1.4,3.074,4.3,3.629,6.685,1.2,5.166.91,10.914.825,16.194a221.965,221.965,0,0,1-3.666,35.226c-8,44.982-24.81,88.061-23.593,134.443.414,15.746,2.037,31.8,1.473,47.608h2.23c.482-13.951-.7-28.085-1.27-41.982-1.069-26.026,2.677-51.1,8.642-76.32,5.746-24.3,12.777-48.349,16.281-73.148a191.828,191.828,0,0,0,1.968-36.659c-.313-6.086-2.68-17.184-10.956-14.881-4.894,1.361-8.09,7.387-10.724,11.4a176.327,176.327,0,0,0-10.291,18.079c-4.859,9.742-9.008,19.833-13,29.983a992.142,992.142,0,0,0,6.666-112.093q.075-30.255-1.7-60.472c-1.131-19.232-2.3-38.7-5.818-57.656-2.974-16.022-7.759-34.031-19.472-45.752-11.255-11.264-28.01-12.71-40.623-21.824-11.772-8.507-20.422-21.36-24.843-35.412a71.494,71.494,0,0,1-3.335-21.475c0-6.989.611-16.072,4.346-22.133,1.938-3.143,4.9-5.645,8.225-2.578,1.79,1.651,2.808,4.276,3.9,6.453a116.163,116.163,0,0,1,6.184,14.906c2.863,8.519,6.618,19.369,4.549,28.458-.848,3.722-3.2,8.241-7.643,7.113-4.839-1.23-7.274-8.21-8.774-12.453a54.86,54.86,0,0,1-1.723-29.923,38.164,38.164,0,0,1,8.111,29.668,12.811,12.811,0,0,1-2.457-16.838c.823-1.226-1.117-2.383-1.933-1.167a15.1,15.1,0,0,0,4.635,20.976,1.118,1.118,0,0,0,1.644-.691,40.641,40.641,0,0,0-9.79-35.177,1.115,1.115,0,0,0-1.871.51,57.862,57.862,0,0,0-.278,28.18c1.536,6.282,4.386,16.186,10.912,18.824,5.562,2.248,9.693-2.416,11.107-7.537,2.049-7.413-.1-15.461-1.976-22.662a112.283,112.283,0,0,0-10.925-27.47c-3.459-6.007-9.216-6.529-13.228-.7-3.962,5.758-4.839,14.21-5.173,21.085a72.552,72.552,0,0,0,2.734,23.222C1792.135,419.054,1800.483,432.3,1812.05,441.541Z" transform="translate(-1530.579 -76.068)"/><path class="ag" d="M1891.782,1026.856H1894c1.623-53.568-5.834-107.1-8.066-160.615-.674-16.148-.837-32.317-.17-48.465,11.579,36.212-.23,75.7,8.577,112.589a1.121,1.121,0,0,0,2.047.276c4.568-6.675,4.812-14.712,4.565-22.6-.137-4.392-.429-8.8-.136-13.193a50.918,50.918,0,0,1,4.467-16.941c2.108-4.833,4.522-9.54,7.03-14.2-1.162,11.028-.234,22.363-2.257,33.292-1.678,9.069-4.2,17.928-5.675,27.045a246.731,246.731,0,0,0-2.77,26.415c-1,18.827-.147,37.7,1.248,56.483.493,6.631.979,13.281,1.576,19.914h2.267c-.568-6.389-1.069-12.786-1.549-19.18-1.428-19.024-2.318-38.144-1.3-57.217a238.889,238.889,0,0,1,3.177-28.679c1.635-9.308,4.423-18.382,5.78-27.739,1.706-11.761.238-24.208,2.546-35.9,1.584-2.877,3.171-5.748,4.711-8.628l5.137-9.607c2.745-2.151,5.852-3.788,8.479-6.112,4.271-3.779,6.995-11.05,2.2-15.582a1.113,1.113,0,0,0-1.759.234l-10.65,19.918c-.235.19-.472.375-.7.575a29.8,29.8,0,0,0-8.72,14.967c-.29,1.087-.531,2.181-.753,3.278-3.527,6.413-7.02,12.868-9.945,19.557a58.218,58.218,0,0,0-4.828,25.876c.24,8.232,1.12,16.963-2.628,24.39-8.016-37.976,4.549-78.484-9.9-115.329a1.121,1.121,0,0,0-2.2.308c-3.474,64.363,7.445,128.242,8.207,192.512Q1892.133,1015.679,1891.782,1026.856Zm43.5-205.8c2.186,3.451.056,8.083-2.737,10.689a36.739,36.739,0,0,1-4.956,3.7Z" transform="translate(-1555.413 -180.183)"/><path class="ag" d="M1843.744,321.93q2.251,15.769,4.5,31.538c2.662,18.638,3.438,39.5,12.62,56.227a1.118,1.118,0,0,0,2.046-.276c3.784-19.446-1.942-38.562-3.935-57.835a77.2,77.2,0,0,1-.606-14.018l-1.681-3.161c-1.806,7.731.644,22.314,1.056,25.167,2.2,15.232,5.708,30.6,3.545,45.987-3.7-7.837-5.535-16.362-6.892-24.971-1.612-10.222-2.962-20.493-4.424-30.739q-2.2-15.393-4.4-30.786c-.328-2.3-.576-4.71-.857-7.152l-2.905-5.46C1842.75,311.671,1843.058,317.136,1843.744,321.93Z" transform="translate(-1544.938 -64.678)"/><path class="ag" d="M1871.19,359.883q2.249,14.416,4.5,28.832a1.117,1.117,0,0,0,2.158,0l2-12.568-1.737-3.265q-.666,4.181-1.33,8.362-1.2-7.683-2.4-15.366Z" transform="translate(-1552.388 -76.913)"/><path class="ag" d="M1832.886,291.722c-2.1,3.527-2.552,7.731-2.44,11.975.2,7.569,1.115,15.166,1.712,22.711q.984,12.433,1.969,24.865c.51,6.422.931,12.951,3.583,18.885,1.473,3.3,3.521,6.335,4.659,9.788,1.3,3.951,1.093,8.1.632,12.184-.591,5.23-2.817,13.107.463,17.818,2.5,3.585,8.781,4.165,12.693,4.565,4.329.443,9.23.04,12.551-3.211,4.83-4.728,4.641-14,5.651-20.273l2.64-16.406-1.708-3.209c-1.59,10.25-3.141,20.514-4.98,30.712-1.218,6.751-4.882,10.288-11.605,10.224a33.348,33.348,0,0,1-7.336-1.013c-3.716-.88-6.722-1.945-7.109-6.354-.537-6.1,1.341-12.136,1.348-18.223.006-5.4-1.9-9.764-4.314-14.434-6.039-11.684-5.338-26.219-6.361-39.138q-.925-11.678-1.849-23.358c-.406-5.123-1.12-11,1.071-15.721Z" transform="translate(-1542.048 -61.305)"/><path class="ag" d="M1884.635,405.8q1.021,29.377,1.7,58.764c-5.569-3.227-6.723-11.079-8.516-16.924a31.336,31.336,0,0,0-10.709-16.065,95.37,95.37,0,0,0-22.271-13.325,113.633,113.633,0,0,0-10.868-3.941c-4.594-1.446-10.788-4.015-7.145-10.07,1.915-3.184,4.3-5.547,5.352-9.274a30.2,30.2,0,0,0,.6-11.593c-.99-8.641-3.691-17.068-5.4-25.575a282.419,282.419,0,0,1-5.822-58.389,222.155,222.155,0,0,1,2.418-30.758l-1.54-4.463c-4.944,29.242-3.637,59.506,1.72,88.7,1.706,9.3,4.4,18.4,5.977,27.71.822,4.857,1.229,10.137-.459,14.86-1.422,3.976-5.473,6.731-6.23,10.929-1.156,6.413,5.908,8.911,10.549,10.342a97.317,97.317,0,0,1,25.8,12.3c4.616,3.114,9.524,6.576,12.58,11.428,2.2,3.49,3.231,7.584,4.368,11.531,1.827,6.349,3.922,13.029,10.459,15.523a1.136,1.136,0,0,0,1.418-1.116q-.8-34.9-2.07-69.792c-.066-1.816-.14-3.632-.209-5.447l-2.41-4.529Q1884.3,396.21,1884.635,405.8Z" transform="translate(-1539.236 -55)"/><path class="ag" d="M1672.09,337.494a1.119,1.119,0,0,0-2.159,0c-1.405,6.142-7.815,8.8-13.424,7.884-6.07-.994-11.182-5.051-15.991-8.74-9.03-6.927-17.663-14.382-26.587-21.451-17.21-13.631-35.9-25.62-57.829-28.486-22.682-2.964-45.58,2.965-66.29,12.276-5.373,2.416-11.01,4.881-15.979,8.115-4.1,2.672-4.732,5.9-4.742,10.68-.026,12.345-8.969,23.363-15.18,33.268-3.328,5.307-6.7,10.716-9.88,16.257l19.189-26.432a65.875,65.875,0,0,0,6.8-14.377,28.538,28.538,0,0,0,1.291-7.378c.069-1.836-.294-3.961.187-5.735.588-2.173,2.15-3.46,3.915-4.56a130.186,130.186,0,0,1,15.524-7.84c22.148-9.941,47.136-15.985,71.2-10.918,22.47,4.731,41.067,19.187,58.652,33.592,4.564,3.739,9.108,7.506,13.725,11.177,4.864,3.868,9.784,8.1,15.377,10.8,6.932,3.347,17.052,3,20.973-4.234q4.227,14.734,8.334,29.507l1.765,1.057,1.688,2.992Q1677.453,356.193,1672.09,337.494Z" transform="translate(-1444.029 -59.98)"/><path class="ag" d="M1748.79,347.1c-5.072-15.539-9.734-32.348-6.565-48.83,1.392-7.238,4.692-14.19,4.8-21.665.1-7.3-3.718-13.106-6.8-19.362-6.9-14.013-9.806-29.756-12.884-45.02q-5.058-25.078-9.078-50.362-1.951-12.267-3.654-24.574c-.524-3.786-.873-7.633-1.559-11.391-.416-2.279-1.175-4.644-3.044-6.1-3.357-2.608-8.1-.7-10.427,2.445-3.588,4.84-1.815,11.716-.8,17.13q10.474,55.72,20.947,111.439c-4.5-2.728-6.563-8.194-7.889-13.283-1.767-6.78-2.914-13.774-4.317-20.641-2.946-14.419-5.718-28.891-8.846-43.269-1.02-4.689-2.4-9.631-6.186-12.763-4.179-3.459-9.9-4.757-14.429-7.791-1.515-1.016-2.974-2.113-4.393-3.261l1.593,4.083c4.036,2.889,8.327,4.788,12.759,6.913,5.471,2.622,7.258,7.724,8.5,13.433,1.384,6.377,2.618,12.792,3.924,19.186q3.846,18.815,7.69,37.631c1.773,8.678,3.764,19.4,12.815,22.892.866.335,1.524-.64,1.377-1.423l-17.561-93.42c-1.493-7.942-3.119-15.872-4.476-23.84-.638-3.745-1.354-8.5,1.184-11.7a6.506,6.506,0,0,1,4.665-2.683c3.091-.064,4.276,3.022,4.753,5.632,2.755,15.086,4.257,30.48,6.788,45.623q3.845,23.016,8.556,45.864c2.8,13.568,5.741,27.3,11.761,39.8,3.61,7.495,7.824,13.847,6.427,22.647-1.133,7.135-4.059,13.789-4.959,21-1.786,14.312,1.625,28.645,5.855,42.184.194.621.394,1.24.589,1.86l5.7,10.109C1750.664,352.766,1749.715,349.938,1748.79,347.1Z" transform="translate(-1502.283 -21.657)"/><path class="ag" d="M1616.3-5.763c1.962,1.735,4,3.929,3.946,6.81-.08,3.973-3.384,3.909-6.285,4q-.459.015-.908.053l.883,2.264c.98-.008,1.962.052,2.8-.024,5.144-.466,6.89-5.452,4.909-10.014a12.62,12.62,0,0,0-3.315-4.3l-3.616-.158C1615.237-6.68,1615.766-6.23,1616.3-5.763Z" transform="translate(-1486.904 7.128)"/><path class="ag" d="M1660.281-5.217l-2.546-.112c13.328,26.45,4.737,59.4,16.93,86.584.448,1,1.736.55,2.046-.276,10.643-28.357-8.662-57.02-5.307-85.709l-2.219-.1c-2.98,27.6,14.634,55.223,6.335,82.349C1665.094,51.279,1672.392,20.267,1660.281-5.217Z" transform="translate(-1498.24 6.716)"/><path class="ag" d="M1641.921-5.692c-2.357,9.17,4.183,20.919-1.421,29.167-4.366-4.455-10.926-3.83-16.7-3.625-1.008.035-2.1.056-3.207.006l.875,2.241c6.63,0,13.837-1.7,18.3,3.985a1.1,1.1,0,0,0,1.584,0c3.912-4.711,3.759-10.755,3.154-16.61-.49-4.735-1.667-10.4-.216-15.06Z" transform="translate(-1488.818 6.799)"/><path class="ag" d="M1683.231,115.493a254.044,254.044,0,0,1-31.554-35.917l3.091,7.919a255.136,255.136,0,0,0,28.571,31.227,1.13,1.13,0,0,0,1.911-.817A321.769,321.769,0,0,0,1673.57-4.374l-2.377-.1A320.053,320.053,0,0,1,1683.231,115.493Z" transform="translate(-1496.703 6.521)"/><path class="ag" d="M1797.307,189.71a122.478,122.478,0,0,0-.108,27.524c1.128,12.106,2.3,24.063,1.481,36.239a149.586,149.586,0,0,1-6.215,33.514q-5.693-17.4-10.356-35.126-2.539-9.729-4.745-19.544c-1.3-5.786-3.679-12.489-3.457-18.465.134-3.6,2.109-8.893,6.188-3.882,1.566,1.924,2.43,4.768,3.183,7.113,1.785,5.562,2.417,11.423,2.991,17.224.987,9.978,1.817,20.177,7.134,28.863a1.123,1.123,0,0,0,2.086-.584,262.8,262.8,0,0,0-9.919-77.81c-1.772-6.2-3.852-12.281-5.986-18.359-2.617-7.45-3.447-13.979-1.429-21.747,2.675-10.3,5.833-21.032,10.817-30.526l3.824-10.271a70.476,70.476,0,0,0-5.566,8.766c-5.212,9.936-8.681,21.224-11.414,32.131a32.616,32.616,0,0,0-.281,16.239c1.5,5.955,3.962,11.658,5.81,17.506a259.945,259.945,0,0,1,11.96,79.6c-3.713-8.327-4.12-17.718-5.1-26.8a79.187,79.187,0,0,0-2.424-13.726c-1.04-3.561-2.533-8.4-5.456-10.8-5.931-4.881-8.975,4.113-8.614,8.847.4,5.29,2.025,10.685,3.172,15.847q2.021,9.093,4.324,18.114,5.347,20.93,12.2,41.4a1.12,1.12,0,0,0,2.159,0,153.245,153.245,0,0,0,7.071-33.937c1.128-12.377.291-24.567-.918-36.9a145.333,145.333,0,0,1-.7-25.475Z" transform="translate(-1527.145 -18.29)"/><path class="ag" d="M1756.453,82.274c.509,5.493.293,11.24.452,16.639q.315,10.716.362,21.438a1.127,1.127,0,0,0,1.911.818,50.628,50.628,0,0,0,7.747-10.2l-.995-2.725a51.894,51.894,0,0,1-6.439,9.239c-.048-9.46-.116-18.98-.569-28.448Z" transform="translate(-1523.282 -13.344)"/><path class="ag" d="M1714.541,48.16c4.131,12.763,8.965,25.254,12.107,38.341s4.525,26.3,5.611,39.7c1.022,12.613,2.606,25.406,9.148,36.391a1.124,1.124,0,0,0,2.086-.584c3.161-26.823-3.829-53.106-7.036-79.537a150.8,150.8,0,0,1-1.462-19.456c.023-2.413.385-5.357,1.78-7.4,1.41-2.069,2.934-2.288,4.191-1.528l-1.037-2.842a5.472,5.472,0,0,0-4.192,1.97c-2.165,2.448-2.889,6.143-2.975,9.357a134.112,134.112,0,0,0,1.369,19.184c1.438,12.119,3.683,24.112,5.445,36.18,1.95,13.361,3.182,26.843,2.05,40.315-4.712-9.5-6.133-20.163-7.022-30.762-.975-11.6-1.921-23.1-4.233-34.527-2.537-12.537-6.55-24.549-10.7-36.591-4.014-11.645-7.993-23.507-9.249-35.87a68.575,68.575,0,0,1,1.406-23.507l-2.331-.1C1705.493,13.593,1709.285,31.92,1714.541,48.16Z" transform="translate(-1510.947 6.208)"/><path class="ag" d="M1864.894,710.533q.124,3.219.244,6.473c2.823-9.409,6.831-18.281,10.217-27.571,4.189-11.492,5.153-22.634,2.141-34.574-3.194-12.668-8.345-24.63-11.035-37.474a170.311,170.311,0,0,1-3.357-42.515c4.374,5.409,4.5,12.922,4.735,19.823.244,7.037.527,14.245,4.027,20.489a1.124,1.124,0,0,0,2.087-.584,221.44,221.44,0,0,0,1.067-33.356c-.387-8.581-.222-19.288-4.169-27.113-3.885-7.7-12.352-8.907-19.177-12.6a50.133,50.133,0,0,1-10.887-7.981l3.252,5.765c.5.377.993.76,1.506,1.12a52.53,52.53,0,0,0,10.019,5.463c4.4,1.829,9.279,3.269,12.2,7.427,2.567,3.652,3.278,8.418,3.8,12.788.629,5.274,1.027,10.581,1.248,15.89a219.524,219.524,0,0,1-.677,28.21c-4.212-12.665,1.61-29.236-9.22-38.85a1.13,1.13,0,0,0-1.911.818,173.651,173.651,0,0,0,1.982,38.8c2.166,13.042,6.42,25.19,10.393,37.708,2.084,6.568,3.829,13.348,3.87,20.306.038,6.621-1.616,13.033-3.827,19.2C1870.705,695.767,1867.534,703.036,1864.894,710.533Z" transform="translate(-1544.676 -116.681)"/></g><path class="y" d="M1361.775,422.5a14.681,14.681,0,0,0-4.469,1.274,16.4,16.4,0,0,0-3.661,2.922l-28.515,27.587a21.607,21.607,0,0,0-3.461,3.941,23.247,23.247,0,0,0-2.355,6.221,268.87,268.87,0,0,1-13.356,37.277,70.92,70.92,0,0,1,23.5-15.76,7.113,7.113,0,0,0,2.7-1.577,7.727,7.727,0,0,0,1.438-3.46,51.119,51.119,0,0,1,13.721-24.127c3.048-2.984,6.764-6.178,6.749-10.516-1.7,6.414-5.243,12.133-7.519,18.355-3.9,10.647-3.956,22.319-3.967,33.7l6.159-12.971a123.625,123.625,0,0,0,3.041,30.763,38.37,38.37,0,0,0,3.086,9.241c3.5,6.729,10.516,12.178,10.352,19.817.364-4.945,3.885-8.987,5.431-13.683,1.849-5.619.762-11.747.713-17.682-.058-7.208,1.448-14.332,1.815-21.531.671-13.176-2.484-26.227-6.179-38.857a9.847,9.847,0,0,1-.577-3.419,9.276,9.276,0,0,1,1.078-3.293,115.309,115.309,0,0,1,7-12.53c2.605-4.049,6.947-7.926,9.032-12.177,2.752-5.609-2.274-2.78-6.04-1.972C1372.3,421.159,1367.006,421.634,1361.775,422.5Z" transform="translate(-1160.456 -90.075)"/><path class="y" d="M1387.338,407.094l-72.621-8.505L1308,377l15.673,9.252,8.21,1.542,1.493-10.023,8.21,5.4Z" transform="translate(-1160.974 -80.546)"/><path class="y" d="M1261.908,266.876,1226.257,224l-1.493,13.107L1177,247.9Z" transform="translate(-1127.742 -45.511)"/><path class="y" d="M1321.315,253.49l-34.8-11.451,13.756-6.159,5.436-9.917Z" transform="translate(-1155.524 -45.961)"/><path class="x" d="M1811.189,62.482l49.116-6.16-.746-33.153-10.448,8.481L1840.155,17l-2.985,13.878Z" transform="translate(-1288.619 1.89)"/><path class="ah" d="M1820,40.611,1826.717,9l6.717,6.939Z" transform="translate(-1290.854 3.722)"/></g><g transform="translate(1388.007 136.878)"><path class="q" d="M1801.869,144.96a37.844,37.844,0,0,1,4.047-.491l-.983-.439Z" transform="translate(-1780.908 -144.03)"/><path class="q" d="M1989.634,512.059q-1.414-15.816-4.213-31.457c-2.724-15.177-6.42-30.147-10.114-45.1q-6.159-24.946-12.32-49.891-9.008-36.48-18.016-72.96c-3.933-15.926-7.884-31.911-13.891-47.131-17.258-43.726-50.814-78.982-88.984-104.96-13.028-8.867-27.984-17.039-43.3-15.983l4.65,2.078a63.44,63.44,0,0,0-9.126-.689,63.579,63.579,0,0,0,29.747,10.153c-14.124,1.934-28.451.3-42.61-1.34,5.051,6.372,13.641,8.427,21.611,8.644s16.038-.994,23.87.549c9.276,1.827,17.416,7.345,25.281,12.744-20.921-10.669-45.654-7.661-68.771-4.4,15.468,8.09,33.351,9.2,50.657,10.274,8.778.543,17.688,1.143,25.978,4.176,15.6,5.709,27.093,19.225,37.856,32.209-17.29-13.178-35.578-26.786-56.875-29.722-10.854-1.5-21.864-.1-32.814-.187-10.079-.079-20.105-1.416-30.1-2.749,30.567,18.958,67.09,23.732,101.686,32.631,6.581,1.693,13.238,3.6,18.958,7.363,11.927,7.85,17.844,22.3,23.078,35.871l-21.681-17.126c-9.431-7.449-19.2-15.072-30.7-18.133-12.257-3.265-25.156-1.009-37.742.384a271.084,271.084,0,0,1-57.965.178c10.582,10.316,27.319,7.411,41.75,9.334,20.674,2.754,38.524,16.469,58.828,21.342,10.006,2.4,20.391,2.6,30.48,4.6s20.352,6.2,26.592,14.632c2.44,3.3,1,7.243-.413,11.127a101.655,101.655,0,0,0-64.773-23.507c-24.6.07-48.849,9.242-73.343,6.857a176.422,176.422,0,0,0,95.049,18.349c9.71-.871,19.936-2.477,28.863,1.566,11.818,5.353,17.737,18.822,22.625,31.16-20.582-18.3-51.55-16.751-77.567-8.722s-50.793,21.511-77.834,24.062c24.8,9.735,52.477,2.7,78.144-4.257s53.517-13.633,78.088-3.282a88.48,88.48,0,0,0,6.015,25.689c-17.605-18.143-46.788-16.685-70.2-8.033s-44.949,23.16-69.417,27.743a291.043,291.043,0,0,0,141.484-13.544l10.507,29.208c-21.673-13.44-49.4-7.759-73.462.243s-49.291,18.056-73.89,12.042a116.333,116.333,0,0,0,81.236,12.311c22.581-4.925,43.968-16.675,67.047-16.853q2.276,7.219,4.551,14.439c-29.526-5.706-59.266,6.655-89.2,9.18a137.3,137.3,0,0,1-53.753-6.208c27.182,26.517,69.311,36.281,104.078,22.079,13.4-5.474,25.748-14.217,39.962-16.671q2.6,7.481,5.2,14.961a397.294,397.294,0,0,1-114.567,21.457c38.37,12.395,81.832,6.766,116.053-15.029l3.587,13.062c-40.394,26.244-93.9,13.313-139.209,28.773,24.219,2.928,48.589,5.861,72.932,4.368s48.9-7.668,69.211-21.614c2.359,3.494,1.241,8.554-1.484,11.752s-6.67,4.945-10.513,6.49a234.474,234.474,0,0,1-57.992,15.061c-16.222,2.047-33.465,2.66-47.171,11.852,41.854,3.361,87.636,3.372,121.023-22.918q.337,17.888.673,35.776Z" transform="translate(-1773.784 -144.133)"/></g><g transform="translate(1042.99 129.772)"><path class="ai" d="M1424.022,173.434c3.913.072,4.021-.356,7.928-.153a11.207,11.207,0,0,0-2.158-5.941c-5.971-8.481-1.493-23.9-1.493-23.9l-45.76-8.406a20.4,20.4,0,0,0-11.082,1.462l-34.605,14.94a43.969,43.969,0,0,0-16.969,13.038l-8.052,10.127a1.5,1.5,0,0,0,1.251,2.443l54.691-5.07a1.4,1.4,0,0,1,.15-.006l41.719.77C1409.762,172.739,1423.909,173.4,1424.022,173.434Z" transform="translate(-1311.497 -134.815)"/><path class="aj" d="M1379.222,134.833a20.431,20.431,0,0,0-7.765,1.666l-34.605,14.94a43.97,43.97,0,0,0-16.969,13.038l-8.052,10.127a1.5,1.5,0,0,0,1.251,2.443l30.457-2.823-.32-13.819,8.956-12.336Z" transform="translate(-1311.497 -134.819)"/><path class="ak" d="M1322.648,181.716a13.785,13.785,0,0,1,1.838-11.606l6.834-9.978a44.25,44.25,0,0,0-11.437,10.138l-8.052,10.127a1.5,1.5,0,0,0,1.251,2.443l9.633-.893Z" transform="translate(-1311.497 -140.612)"/><path class="al" d="M1325.215,179.223l44.308-5.284,50-6.939,2.239,6.939-66.423,3.084-29.107,6.168S1321.955,182.964,1325.215,179.223Z" transform="translate(-1314.667 -142.185)"/><path class="am" d="M1512.541,284.478,1506,288.339v11.584l2.8-7.722v6.757l1.869-9.653v8.688l1.869-9.653,2.754-2.662,2.3-.548S1519.082,282.548,1512.541,284.478Z" transform="translate(-1360.838 -168.922)"/><path class="am" d="M1523.809,281.974l-6.541,3.861v11.584l2.8-7.722v6.757l1.869-9.653v8.688l1.869-9.653,2.754-2.662,2.3-.548S1530.349,280.044,1523.809,281.974Z" transform="translate(-1363.695 -168.348)"/><g transform="translate(111.255 8.215)"><path class="an" d="M1550.236,219.941c-.154-.742-.272-1.275-.338-1.526-1.979-7.511-4.763-15.007-9.88-20.868-4-4.588-9.182-7.891-14.381-10.943q-7.283-4.276-14.821-8.062a9.707,9.707,0,0,1-5.609-5.393c-4.465-8.379-9.128-17.069-16.973-22.557-4.375-3.06-8.88-3.968-14.131-4.462-1.57-.148-6.555-1.239-7.989-.251-6.195,4.268-6.518,19.671-4.276,30-.109-.5,4.67,1.167,5.055,1.422a13.806,13.806,0,0,1,4.385,5.217c2.182,4.32,2.844,9.745,3.548,14.51,1.522,10.3,1.956,21.113,6.584,30.592,4.813,9.855,13.563,16.933,22.172,23.473,3.5,2.661,6.116,1.332,9.966.349l5.556-1.472,0,.056,10.818-2.755a51.322,51.322,0,0,1,23.73-5.748C1554.359,241.52,1551.347,225.289,1550.236,219.941Z" transform="translate(-1460.568 -145.469)"/></g><path class="an" d="M1549.731,305.514,1546,371.05l13.434,16.962,14.18-18.5s-3.091-65.1-5.947-65.221C1559.1,303.914,1558.132,303.182,1549.731,305.514Z" transform="translate(-1370.984 -173.528)"/><path class="ai" d="M1486.53,154.691l-9.4-1.079a3.556,3.556,0,0,0-4.131,3.581v15.712l14.86-13.432A28.937,28.937,0,0,0,1486.53,154.691Z" transform="translate(-1352.466 -139.106)"/><ellipse class="ao" cx="4.385" cy="4.53" rx="4.385" ry="4.53" transform="translate(120.72 16.741)"/><ellipse class="ap" cx="2.192" cy="2.265" rx="2.192" ry="2.265" transform="translate(120.72 18.553)"/><path class="ai" d="M1493,161" transform="translate(-1357.54 -140.811)"/><path class="aq" d="M1488.443,171.836,1487.676,161l-14.927,13.878-.738,8c3.489,4.047,5.352,10.742,5.314,15.17v.018a17.453,17.453,0,0,0,.313,3.527c.05.254.092.51.14.764A40.633,40.633,0,0,0,1488.443,171.836Z" transform="translate(-1352.215 -140.811)"/><path class="ar" d="M1524.4,196s-11.941,22.359,2.239,44.719l12.539,19.746,10.6-48.274Z" transform="translate(-1364.313 -148.825)"/><path class="as" d="M1528.368,197.379,1557.2,214.82l7.652,38.948-16.4,5.551-8.2,1.461Z" transform="translate(-1366.512 -149.141)"/><path class="at" d="M1563,309l6.717,71.7-5.971,8.481Z" transform="translate(-1375.297 -174.701)"/></g><g transform="translate(22.39 6.744)"><path class="au" d="M176.217,21.448l-13.058,12.23a40.7,40.7,0,0,0-12.747,29.267c-.326,30.054,2.314,90.708,26.529,125.328l2.242-48.714-13.448-35.293,15.606,25.893,4.1-12.783-1.752-3.476-7.08-14.054,10.1,11.455s-6.577-45.5,23.413-78.817l6.977-18.4h0A37.881,37.881,0,0,0,176.217,21.448Z" transform="translate(3.645 16.554)"/><path class="av" d="M99.863,13.365S-4.284,106.845,66.275,284.088l15.012-66.416-7.328-25.844,8.466,16.667,12.83-48.827-8.392-41.531,10.384,25.471,13.38-47.2L99.884,67.779l11.883,19.452,44.545-98.262Z" transform="translate(31.203 21.611)"/><path class="aw" d="M202.159,13.493c31.6-18.2,71.67-19.533,97.338-3.019,24.616,15.837,47.205,45.75,46.844,102.214-.788,123.427-23.8,136.986-23.8,136.986l-15.029-56.857,16.372-28.351-17.242,25.061-16.322-28.216L307.965,132.6l-19.131,23.069-20.489-31.081L281.93,96.017l-15.076,22.935-19.193-36.5,9.1-19.736L245.924,75.878,202.159,13.493Z" transform="translate(-9.488 19.333)"/><path class="ax" d="M97.008,584.1s47.267-130.8,67.534-347.465a1035.574,1035.574,0,0,0,1.127-179L164.177,39H147.758S140.294,205.538,44.765,375.161C44.765,375.161,2.224,569.456,97.008,584.1Z" transform="translate(32.853 10.154)"/><path class="ay" d="M100.374,368.729c1.649-6.5,4.7-12.507,7.724-18.453l26.02-51.137c6.542-12.856,13.216-26.167,14.319-40.647,1.472-19.305-7.139-37.979-7.947-57.326-.373-8.924.924-17.824,2.217-26.656q2.357-16.094,4.712-32.189c.381-2.6.887-5.442,2.84-7.13a3.464,3.464,0,0,1,.713-.475c5.675-2.869,9.869-8.205,10.315-14.716a77.448,77.448,0,0,0-1.964-21.169c-2.731-12.744-6.964-25.5-5.82-38.5.446-5.062,3.7-13.845,4.7-21.328h-9.61S141.129,205.538,45.6,375.161a467.354,467.354,0,0,0-7.063,46.364c5.527,26.443,15.711,51.82,31,73.76a9.128,9.128,0,0,0,6.019,3.9c6.316.965,9.16-5.918,10.543-11.59a433.983,433.983,0,0,0,12.274-95.367C98.507,384.342,98.438,376.354,100.374,368.729Z" transform="translate(32.019 10.154)"/><g class="az" transform="translate(87.073 77.808)"><path class="ba" d="M182.342,76.164c-.092.769-.189,1.558-.287,2.356a42.154,42.154,0,0,0,21.956,3c-.05-.771-.1-1.541-.147-2.311A40.479,40.479,0,0,1,182.342,76.164Z" transform="translate(-91.461 -76.164)"/><path class="ba" d="M179.271,98.412q-.168,1.158-.343,2.34a44.342,44.342,0,0,0,25.215,3.048c.023,0,.041-.012.063-.017-.036-.725-.079-1.45-.116-2.175a1.134,1.134,0,0,0-.542-.038A41.836,41.836,0,0,1,179.271,98.412Z" transform="translate(-90.668 -81.259)"/><path class="ba" d="M203.778,124.915a1.121,1.121,0,0,0,.183-.065c-.023-.7-.042-1.4-.066-2.106a1.058,1.058,0,0,0-.711-.059,41.122,41.122,0,0,1-27.4-2.742q-.193,1.154-.392,2.325A43.518,43.518,0,0,0,203.778,124.915Z" transform="translate(-89.77 -86.189)"/><path class="ba" d="M203.525,139.8a45.378,45.378,0,0,1-29.861-3.358,1.1,1.1,0,0,0-.856-.054q-.181.992-.367,1.994a.865.865,0,0,0,.093.057,47.821,47.821,0,0,0,31.04,3.718Q203.55,140.976,203.525,139.8Z" transform="translate(-89.022 -89.94)"/><path class="ba" d="M199.513,175.537a42.8,42.8,0,0,1-33.9-4.55q-.255,1.176-.515,2.365a45.009,45.009,0,0,0,35.007,4.416C201.5,177.373,200.907,175.141,199.513,175.537Z" transform="translate(-87.161 -97.877)"/><path class="ba" d="M196.944,207.057a84.533,84.533,0,0,1-19.6-.179c-5.841-.763-13.644-1.627-17.251-7.083a1.1,1.1,0,0,0-1.2-.488c-.162.665-.323,1.33-.487,2,3.393,4.8,9.04,6.208,14.477,7.2a85.505,85.505,0,0,0,24.057.867C198.364,209.225,198.379,206.91,196.944,207.057Z" transform="translate(-85.463 -104.356)"/><path class="ba" d="M162.969,246.05a85.237,85.237,0,0,0,25.253,2.851c1.437-.049,1.444-2.362,0-2.313a83.262,83.262,0,0,1-21.94-2.079c-5.837-1.376-13.147-3.027-16.015-9.092a.916.916,0,0,0-.978-.578q-.321,1.159-.649,2.325C151.523,242.534,157.5,244.562,162.969,246.05Z" transform="translate(-82.985 -112.497)"/><path class="ba" d="M180.729,303.116c1.428-.113,1.44-2.427,0-2.313a68.26,68.26,0,0,1-47.6-14.431q-.375,1.14-.755,2.285A70.376,70.376,0,0,0,180.729,303.116Z" transform="translate(-78.858 -124.299)"/><path class="ba" d="M180.868,333.6a74.551,74.551,0,0,1-59.244-15.086c-.27.746-.545,1.494-.819,2.242a76.906,76.906,0,0,0,60.658,15.075C182.88,335.579,182.28,333.35,180.868,333.6Z" transform="translate(-75.924 -131.66)"/><path class="ba" d="M101.843,369.159a94.851,94.851,0,0,0,69.03,15.059c1.419-.24.817-2.47-.595-2.231a92.6,92.6,0,0,1-67.305-14.826.953.953,0,0,0-.852-.149q-.345.826-.693,1.653A1.148,1.148,0,0,0,101.843,369.159Z" transform="translate(-71.009 -142.755)"/><path class="ba" d="M151.136,445.819c1.431-.093,1.441-2.407,0-2.313A93.926,93.926,0,0,1,79.39,416.574a1.2,1.2,0,0,0-.238-.18q-.51,1.063-1.022,2.126A96.117,96.117,0,0,0,151.136,445.819Z" transform="translate(-65.098 -154.073)"/><path class="ba" d="M145.005,504.218c-31.816-1.254-59.6-20.1-82.4-41.664-1.061-1-2.649.628-1.583,1.635,23.257,22,51.546,41.062,83.983,42.342C146.447,506.589,146.444,504.275,145.005,504.218Z" transform="translate(-60.669 -164.571)"/><path class="ba" d="M145.864,556.6a71.364,71.364,0,0,1-58.849-30.16,1.117,1.117,0,0,0-1.933,0,5.111,5.111,0,0,0-.834,3.553c.136,1.468,2.376,1.483,2.239,0l.081-.368c14.083,18.514,36.086,29.54,58.95,29.287.16-.766.321-1.53.481-2.3A1.083,1.083,0,0,0,145.864,556.6Z" transform="translate(-66.641 -179.145)"/></g><path class="bb" d="M132.012-10.691S22.364-53.356-41.82,74.632L-56,117.808,4.452,80.8l6.717-28.527L7.438,76.945,27.589,66.922l22.39-36.238L39.53,59.983l22.39-7.71,7.463-33.924L67.89,46.875,138.045,9.867Z" transform="translate(56 23.096)"/><path class="bc" d="M200.814-17S153.05-5.309,107.307,32.375A197.634,197.634,0,0,0,40.483,228.953h0l37.139-69.118,1.812-58.346,5.435,44.882,9.058-16.158,4.529-50.268,5.435,35.008S144.653,16.213,200.814-17Z" transform="translate(32.786 22.978)"/><path class="bd" d="M177-10.8A55.235,55.235,0,0,1,229.409-.62c30.7,25.4,76.293,76.224,67.75,149.42-12.687,108.713-54.482,106.4-54.482,106.4L238.2,161.137l20.9-42.406L235.96,155.74,228.5,110.25l14.18-33.924-16.419,26.985L215.063,54.737l14.927-14.649L211.331,50.111,177-10.8Z" transform="translate(-3.106 22.173)"/><path class="be" d="M355.33-16.913c-4.177-2.9-8.195-5.5-12.072-7.84H254.715a41.032,41.032,0,0,0-5.564,9.439l96.361,76.527,3.467-23.48,6.554,27.312L380.9,73.828l2.77-32.7L386.4,77.251l43.431,39.807S439.079,41.3,355.33-16.913Z" transform="translate(-21.408 24.753)"/></g><g transform="translate(42.184 503.856)"><path class="bf" d="M587.632,1064.036c6.557-71.915-6.325-82.622-6.325-82.622-22.724,16.169-36.674,49.132-45.23,82.622Z" transform="translate(-113.988 -702.76)"/><path class="bg" d="M412.43,1048.827C393.867,924.068,370.507,915,370.507,915c-23.506,31.952-21.263,89.09-14.55,133.827Z" transform="translate(-67.142 -687.552)"/><path class="t" d="M248.205,983.15l-8.649-31.616-2.985-15.42.746-43.948,5.224-58.6V772.66L209.7,706.353l-87.32,66.307,23.136-72.475-20.9,19.275-1.948-51.617L110.442,620,93.276,723.315,46.258,710.208-16.434,726.4-29.478,983.15Z" transform="translate(29.478 -620)"/><path class="t" d="M416.612,1050.888H530.529L511.685,941.733l-40.3,59.368-10.449-32.382-8.21,25.443L441.53,924l2.985,92.521L419.141,947.9S417.7,1005.838,416.612,1050.888Z" transform="translate(-83.683 -689.613)"/><path class="bh" d="M311.759,1054.707l.366-.379a2.466,2.466,0,0,1,3.892.379h54.162C324,943.349,300.126,940.677,300.126,940.677c-12.84,31.486-2.48,76.282,11.57,114.03Z" transform="translate(-52.652 -693.432)"/><path class="bi" d="M349.913,1056.4a394.4,394.4,0,0,1-40.195-96.615" transform="translate(-56.567 -697.808)"/><path class="bj" d="M394.746,1051.165c-2.8-30.3-8.851-60.14-12.411-90.336-1-8.447-1.8-16.921-2.273-25.417" transform="translate(-74.411 -692.226)"/><path class="bk" d="M572.727,1063.771c5.428-24.97,11.4-48.871,17.637-72.776" transform="translate(-123.285 -704.954)"/><path class="m" d="M1842.633,831.6l-13.481,14.845,3.629,31.388,13-2.494-9.409,19.153s5.822,68.023,20.139,111.912h8.507c3.363-58.773,4.262-248.859-66.2-284.868L1820.055,832.3Z" transform="translate(-434.311 -643.25)"/><path class="q" d="M1659.376,796.914l-29.107,22.359,23.883,43.948,29.107-33.925-23.882,38.551L1678.034,901l32.838-29.3-24.629,42.406,15.673,30.069,29.107-27.756-25.375,38.551s16.814,32.9,51.8,50.505h35.42c-1.4-41.12-20.12-262.808-260.363-287.977l92.545,94.834Z" transform="translate(-366.753 -642.326)"/><g transform="translate(652.164 17.56)"><g transform="translate(116.615 30.432)"><path class="bl" d="M1004.2,940.5l-.022,39.743,24.98-6.97L1005.9,992.179s-4.764,11.618-.348,28.789h33.741c7.557-62.129,14.252-177.444-29.08-235.816l-9.607,144.4,17.926-2.054Z" transform="translate(-1000.605 -705.811)"/><path class="bl" d="M1048.853,757.943a274.549,274.549,0,0,0,4.252,29.6c4.9,25.476,11.081,50.729,16.884,76,3.037,13.23,5.81,26.584,9.216,39.729q-6.852,40.223-17.66,79.586-2.011,7.308-4.185,14.551h5.843c7.477-25.709,13.542-51.884,18.5-78.009q.878-4.625,1.7-9.259a2.174,2.174,0,0,0,1.586-2.641c-.191-1.029-.4-2.056-.6-3.084q4-23.367,6.669-46.944a432.715,432.715,0,0,1,61.655-90.253,2.312,2.312,0,0,0,.3,0A17.3,17.3,0,0,0,1155,769.77a15.932,15.932,0,0,0,6.212,3.248c4.689,1.286,9.771.676,14.452-.35,3.255-.714,2.123-5.524-1.074-5.135-4.052.493-8.3,1.487-12.334.27a10.528,10.528,0,0,1-4.752-2.793,15.789,15.789,0,0,1-1.275-1.729q7.071-7.826,14.5-15.346c2.2-2.227-.9-5.891-3.189-3.714q-7.736,7.369-15.049,15.221c-.426-9.159.583-17.96,1.573-27.183.308-2.873-4.022-3.653-4.82-.914-3.043,10.453-2.8,22.3-1.273,33.046a400.842,400.842,0,0,0-55.507,79.827q3.619-37.309,3.85-74.866a744.182,744.182,0,0,0-4.029-84.515c-.371-3.416-5.3-2.218-5.016,1.12,4.251,49.749,4.917,99.582.64,149.361q-2.346,27.295-6.5,54.373c-4.229-19.736-9.18-39.359-13.617-59.009-5.2-23.045-11.2-46.22-13.528-69.821a2.57,2.57,0,0,0,.945-1.843c6.306-10.867,12.87-21.769,18.333-33.11,1.441-2.991-2.48-5.941-4.317-2.955-5.694,9.256-10.682,19.076-15.645,28.812a147.2,147.2,0,0,1,1.7-31.237c6.471-11.225,13.293-22.436,18.825-34.162,1.386-2.938-2.391-5.823-4.239-2.9-6.385,10.09-11.828,20.943-17.356,31.608a1.989,1.989,0,0,0-1.343,1.6c-.126.555-.243,1.111-.361,1.667-.21.4-.419.806-.63,1.207-3.7-6.958-7.64-13.882-11.922-20.384-1.628-2.472-5.364.335-4.112,2.891a275.814,275.814,0,0,0,14.688,25.615,2.99,2.99,0,0,0,.367.467,138.314,138.314,0,0,0-.86,20.511c-4.724-6.907-9-14.042-13.237-21.406a2.548,2.548,0,0,0-4.514,2.364A122.513,122.513,0,0,0,1048.853,757.943Z" transform="translate(-1008.141 -682.246)"/></g><path class="m" d="M939.513,883.544c2.061,2.5,4.6,6.6,7.966,7.241,1.61,17.789,1.843,35.825,3.066,53.432q3.131,45.064,8.76,89.887H964.6q-2.066-16.273-3.788-32.6c-3.635-35.106-5.309-70.253-7.736-105.447q-.15-2.167-.323-4.334a2.466,2.466,0,0,0,.495-.562c3.9-6.142,6.654-13.375,9.861-19.941,3.153-6.456,6.5-12.824,9.453-19.379,1.261-2.8-3.214-4.985-4.724-2.362-3.691,6.419-6.869,13.177-10.072,19.866-1.924,4.016-4.1,8.1-5.966,12.269-1.432-12.834-3.8-25.519-8.27-37.668-1.029-2.795-5.793-1.09-4.818,1.766a180.934,180.934,0,0,1,8.106,38.49c-.781-1.016-1.5-2.2-1.849-2.634-1.537-1.941-3.113-3.85-4.673-5.771-2.96-3.644-5.854-7.379-9.03-10.827-2.318-2.517-5.82.816-3.856,3.534C931.172,873.716,935.426,878.6,939.513,883.544Z" transform="translate(-865.275 -688.515)"/><path class="z" d="M921.607,826.543l-45.55.018-.556-15.6,2.566-5.623L900,803.016l21.114,20.116-18.951-56.7,35.791,28.321-4.164,15.628,12.755,1.877-4.86,17.827-7.737,8.589Z" transform="translate(-852.255 -671.091)"/><path class="z" d="M909.362,872.691l-65.009,24.268,27-25.756-5.521-17.279Z" transform="translate(-844.353 -691.126)"/><path class="z" d="M992.4,829.7l-6.489-21.663-20.785,46.821L964,857.41l.805,6.54,7.488-.492,28.925-19.428Z" transform="translate(-874.704 -680.618)"/><path class="z" d="M1017.111,707.308,942.189,691.78l32.06-7.011-5.561-24.594,24.967-9.409,16.884,23.553,8.963-1.027Z" transform="translate(-869.172 -644.606)"/><path class="z" d="M1059.761,692.859l17.431-50.083,2.478,21.929,12.457-9.581,7.842,9.952,19.152,6.473,9.725,8.965L1060.3,706.022l-.8-17.307Z" transform="translate(-898.931 -642.776)"/><path class="z" d="M1183.057,753.389l-5.1-26.059L1192,705.3l16.249-6.676-4.549,31.723Z" transform="translate(-928.98 -655.565)"/><path class="z" d="M1193.007,770.753l53.05-2.72-4.632-15.545-5.77-4.7-10.263-11.46Z" transform="translate(-932.798 -664.197)"/><path class="bm" d="M919.03,880.148,906.9,906.063l-7.12-7.274-24.787-1.077,6.524-15.642Z" transform="translate(-852.125 -697.132)"/><path class="z" d="M1043.262,765.633l-38.7.71,2.785-8.793,1.624-5.13,5.132-11.245Z" transform="translate(-884.994 -665.308)"/><path class="bm" d="M933.539,843.279l-34.864-9.871,6.318-10.033,17.4-12.779,14.471,13.815Z" transform="translate(-858.133 -681.205)"/><path class="bm" d="M964.1,878.1l2.679-23.756,11.813,2.37,5.946,8.5.749,7.554Z" transform="translate(-874.73 -691.223)"/><path class="bm" d="M1035.405,720.852l-34.894,1.135.39-8.7,8.7-12.567,20.57,6.952Z" transform="translate(-883.967 -656.045)"/><path class="bm" d="M1063.8,711.434l-11.92-19.809,7-14.669,2.347-2.452,12.369,17.971Z" transform="translate(-896.998 -650.041)"/><path class="bm" d="M1184.789,763.341l18.132-7.663-.6-10.152-10.8-3.436Z" transform="translate(-930.713 -665.518)"/><path class="bm" d="M1193.007,779.668l17.664,15.156,14.078,8.487,4.031-10.077-4.8-17.977Z" transform="translate(-932.798 -673.113)"/></g></g><g transform="translate(0 185.428)"><path class="ae" d="M2.813,796.052l8.267,92.526H121.938l33.126-2.317-61.2-169.622-31.346-207.4.746-91.75L90.88,312.629,80.431,324.965,58.787,400.524,47.593,351.179l-2.239,13.107,6.717,47.032-6.226,50.855-25.12-70.9L-30.025,207-86,400.524l63.438,245.953Z" transform="translate(86 -207)"/><path class="bn" d="M2.813,844.439l8.267,92.525h99.2v-1.546l-50-61.681-20.9-110.255H50.578l12.688,99.461,6.717-35.466L57.295,742.665,14.754,622.388l15.673,6.939L55.8,702.573,37.89,623.159-1.665,570.73l-22.39-24.672L-74.082,418.305l-4.941,6.485L-86,448.91l63.438,245.952Z" transform="translate(86 -255.387)"/><path class="bn" d="M90.65,505.449l5.321,18.286,5.224-63.994-9.961-58.11L90,408.855l6.717,47.032Z" transform="translate(41.354 -251.568)"/><g transform="translate(41.034 47.642)"><path class="af" d="M158.7,986.912a549.392,549.392,0,0,0,21.467,51.423A310.374,310.374,0,0,0,158.7,986.912Z" transform="translate(-17.106 -433.234)"/><path class="bo" d="M-31.019,272.806q5.043,16.773,11.537,33.031c5.633,14.059,12.331,27.534,18.94,41.117,14.248,29.281,22.3,61.05,31.59,92.258,4.753,15.977,10.958,32.376,12.44,49.177-9.924-20.2-15.348-42.267-20.85-64.11-2.915-11.575-5.881-23.15-9.613-34.479A152.661,152.661,0,0,0,7.3,374.34c-1.605-3.529-3.8-6.537-7.742-7.027a1.126,1.126,0,0,0-1.079.85c-3.388,14.348,3.167,27.877,8.378,40.817,5.729,14.225,9.208,29.2,13.344,43.962A228.694,228.694,0,0,0,36.545,494.9c6.974,13.777,14.08,27.406,19.993,41.722a378.974,378.974,0,0,1,16.855,50.953,1.12,1.12,0,0,0,2.2-.308c.776-16.275-2.391-32.3-7.232-47.719-2.426-7.727-5.325-15.26-8.166-22.83-2.826-7.528-5.285-15.223-5.009-23.3a53.044,53.044,0,0,1,9.276,18.07,1.12,1.12,0,0,0,2.046.276c12.617-20.669,2.926-46.735,6.431-69.417,2.128-13.772,6.746-27.184,10.569-40.523L95.436,360.2l7.257-25.32,2.134-8.106-3.245,3.831L83.441,393.9c-3.857,13.457-8.222,26.881-11.268,40.564-2.724,12.235-2.606,24.171-1.868,36.622.748,12.635,1.429,25.889-4.485,37.291a55.568,55.568,0,0,0-10.754-18.663c-.721-.827-1.805-.089-1.911.818-1.91,16.265,7.29,31.965,12.175,46.909,4.4,13.451,7.611,27.339,8.071,41.5a396.888,396.888,0,0,0-29.688-75.03C36.664,490.234,29.8,476.628,25.16,461.835c-4.522-14.416-7.685-29.255-12.494-43.579C7.509,402.9-2.983,386.66.419,369.818c4.993,1.55,7,10.7,8.522,14.977,1.776,4.977,3.376,10.019,4.868,15.093,3.18,10.823,5.849,21.795,8.617,32.735C27.785,453.8,33.641,475,43.96,494.264a1.122,1.122,0,0,0,2.086-.584c-.4-15.978-5.741-31.225-10.24-46.348q-7.137-23.985-14.273-47.969c-4.52-15.156-9.307-30.185-15.865-44.551-6.526-14.3-13.959-28.11-20.106-42.6a391.621,391.621,0,0,1-15.421-43.424Z" transform="translate(31.019 -268.792)"/><path class="bo" d="M76.521,1071.356h2.226a77.833,77.833,0,0,0-2.476-11.09c-5.3-16.53-16.526-32.9-14.4-50.927,11.837,18.521,13.192,41.79,21.143,62.017H85.3c-8.754-21.322-9.533-46.412-23.13-65.62-.512-.724-1.84-.794-2.046.276-3.8,19.7,8.25,36.988,13.987,54.868A77.245,77.245,0,0,1,76.521,1071.356Z" transform="translate(8.083 -437.421)"/><path class="bo" d="M72.241,907.246c2.838,23.551,6.627,47.225,19.566,67.38,11.72,18.258,28.1,32.727,39.734,51.046.36.567.7,1.149,1.049,1.722h2.641a161.877,161.877,0,0,0-15.106-20.786c-14.648-17.638-30.164-34.114-37.472-56.643-7.705-23.757-8.034-49.135-12.348-73.612-2.146-12.176-5.331-24.515-4.388-37,.493-6.533,2.261-13.774,6.494-18.845,2.079-2.49,5.077-4.86,8.4-4.993,3.746-.15,6.466,2.749,8.439,5.69,6.821,10.172,8.648,22.881,10.274,34.855,1.843,13.569,3.83,27.11,6.1,40.611,2.211,13.154,3.8,27.065,8.044,39.721a47.394,47.394,0,0,0,7.738,14.4c3.911,4.966,8.549,9.285,12.19,14.484,7.064,10.086,9.256,22.67,13.077,34.23a144.179,144.179,0,0,0,12.638,27.878h.555l2.015-.141a140.4,140.4,0,0,1-7.977-15.243c-5.136-11.512-7.629-23.843-12.109-35.582a56.621,56.621,0,0,0-7.48-13.987c-3.508-4.666-7.73-8.688-11.326-13.275-8.479-10.814-10.2-24.976-12.607-38.234q-3.773-20.793-6.793-41.722c-1.749-12.12-2.638-24.7-6.424-36.386C94.708,825.246,89.5,812,79.789,813.309c-9.668,1.3-14.31,13.375-15.642,21.952-1.79,11.525.532,23.262,2.672,34.559C69.169,882.228,70.73,894.706,72.241,907.246Z" transform="translate(7.04 -393.46)"/><path class="bo" d="M139.378,824.9c-5.43-29.428-8.914-59.376-17.766-88.009-2.079-6.726-4.49-13.362-5.993-20.262a58.255,58.255,0,0,1-.017-23.878c1.322-6.91,3.114-13.7,3.916-20.712a95.5,95.5,0,0,0,.09-20.644l-1.267-8.388A123.659,123.659,0,0,0,114,627.255c-2.632-7.708-5.726-15.619-5.952-23.9-.134-4.9,1.32-9.436,3.174-13.855l.045-5.522c-2.449,5.2-4.981,10.411-5.385,16-1.011,13.985,6.536,26.871,9.6,40.114,3.554,15.358,2.617,30.465-.715,45.741-1.485,6.806-2.961,13.7-2.732,20.721.218,6.662,1.858,13.181,3.785,19.507,4.3,14.108,8.458,28.044,11.4,42.544,2.955,14.57,5.227,29.276,7.717,43.936a555.059,555.059,0,0,0,21.268,86c5.272,15.5,11.752,30.486,17.313,45.865a151.34,151.34,0,0,1,7.913,29.729l2.264-.159c-3.1-21.89-13.105-42.522-20.722-63.077A518.253,518.253,0,0,1,139.378,824.9Z" transform="translate(-3.685 -340.967)"/><path class="bo" d="M59.256,946.31a692.931,692.931,0,0,0,22.018,70.716c2.914,7.97,5.7,16.078,7.307,24.4h2.3a124.13,124.13,0,0,0-4.573-16.914c-3.858-11.4-8.239-22.6-11.995-34.042a634.708,634.708,0,0,1-18.846-71.071q-2.114-10.358-3.882-20.786c-1.169-6.9-2.462-13.872-1.336-20.817,7.471,7.6,7.621,20.7,9.423,30.732q3.429,19.084,8.58,37.78a426.175,426.175,0,0,0,26.4,70.679c3.931,8.215,8.009,16.51,12.577,24.438h2.485c-2.014-3.658-3.869-7.369-5.7-10.843A421.059,421.059,0,0,1,74.093,958.3q-5.611-18.161-9.595-36.8-2.024-9.478-3.613-19.046c-.91-5.48-1.536-11.084-3.273-16.372a23.593,23.593,0,0,0-7.294-11.3,1.121,1.121,0,0,0-1.871.51c-2.528,11.052.734,23.087,2.764,33.988Q54.682,927.915,59.256,946.31Z" transform="translate(11.094 -407.486)"/><path class="bo" d="M142.786,1038.012a173,173,0,0,1,18.963,30.428c.4.825.787,1.659,1.173,2.492h2.461a175.555,175.555,0,0,0-18.494-31.245c-3.463-4.66-7.342-8.974-10.76-13.667a41.168,41.168,0,0,1-4.761-8.067c-1.133-2.671-2.873-7.55-1.581-10.429,2.906-6.472,13.188,8.6,14.671,11.012a54.988,54.988,0,0,1,6.153,14.3,39.324,39.324,0,0,1-5.192-5.42,39.728,39.728,0,0,1-3.255-4.864q-.609-1.072-1.155-2.18a6.377,6.377,0,0,0-1.053-1.843,1.147,1.147,0,0,0,.332-.119l.334-.183a1.2,1.2,0,0,0,.514-1.306c-.242-1.211-1.361-2.22-2.586-1.521-1.626.927-.778,3.184-.25,4.456a41.633,41.633,0,0,0,13.65,16.99c.848.636,1.837-.411,1.645-1.306a57.057,57.057,0,0,0-13.915-26.983c-2.183-2.335-5.688-6.187-9.275-4.986s-3.264,6.264-2.821,9.328C129.032,1022.911,136.921,1030.5,142.786,1038.012Z" transform="translate(-9.148 -436.996)"/><path class="bo" d="M10.84,833.9c3.585,15.337,6.433,30.885,9.352,46.369,3.025,16.044,5.8,32.153,7.7,48.385,1.9,16.19,2.738,32.49,4.614,48.683a238.582,238.582,0,0,0,10.4,47.533H45.14a215.448,215.448,0,0,1-8.468-33.694c-2.495-14.993-3.5-30.188-4.821-45.325q-1.9-21.813-5.445-43.391c-2.382-14.506-5.2-28.929-8.031-43.346-2.82-14.361-5.6-28.774-9.881-42.763-1.47-4.8-3.247-9.492-5.079-14.164l2.34,13.792C7.673,821.842,9.41,827.782,10.84,833.9Z" transform="translate(22.284 -390.933)"/><path class="bo" d="M16.928,687.424c-.767-11.14-2.515-23.727-10.151-32.3-8.036-9.018-18.248-.883-21.558,8.3-.084.234-.159.468-.237.7l1.134,4.394c.012-.059.021-.119.034-.178,1.289-6.135,5.136-14.473,12.132-14.931,7.6-.5,11.938,10.588,13.72,16.712,1.854,6.373,2.448,13.035,2.838,19.65.748,12.707.744,25.633,5.686,37.534a1.108,1.108,0,0,0,1.933,0c10.784-20.747,6.7-45.036,1.362-66.8-6.5-26.492-14.041-52.746-22.15-78.756-2.124-6.81-4.5-13.561-6.412-20.44s-3.108-14.2-.586-20.98a161.08,161.08,0,0,1,34.886,71.5,1.115,1.115,0,0,0,1.871.51c9.193-9.252,4.885-23.14-1.117-32.831-4.064-6.563-8.513-12.816-12.315-19.56-3.744-6.64-7.118-13.5-10.212-20.486A443.524,443.524,0,0,1-8.735,494.527c-4.921-15.43-10.516-31.059-13.048-47.14-.566-3.593-3.839-28.68,3.889-26.985,3.607.791,5.827,6.06,7.292,9.088a80.733,80.733,0,0,1,4.426,11.4c4.339,14.079,5.641,28.883,8.4,43.323a123.566,123.566,0,0,0,15.3,40.588c7.731,13.02,16.968,25.013,24.573,38.117a203.294,203.294,0,0,1,27.06,100.774c-9.251-4.669-12.866-15.958-15.133-25.678C51.685,628.02,49.6,617.56,42.34,610a1.1,1.1,0,0,0-1.357-.18c-6.348,5.04-7.821,13.509-6.224,21.3,2.19,10.685,10,19.08,14.426,28.762,8.76,19.18,9.376,41.705,21.856,59.15a1.127,1.127,0,0,0,2.046-.891A87.652,87.652,0,0,1,71.934,682.6c4.978,14.863,6.677,30.545,8.419,46.128,1.781,15.926,4.1,31.769,7.171,47.487a553.34,553.34,0,0,0,27.431,94.648q9.946,25.532,22.355,49.924c.594,1.169,2.385.362,2.046-.891a313.141,313.141,0,0,0-29.312-71.727,1.007,1.007,0,0,0-1.113-.538A556.433,556.433,0,0,1,82.909,731.543c-2.058-18.086-3.717-36.4-10.211-53.494-.369-.971-1.891-1.218-2.159,0a90.453,90.453,0,0,0-.84,34.65c-8.316-14.716-10.246-32.258-16.145-48.083-3.391-9.1-9.007-16.656-13.336-25.224-4.14-8.192-6.4-20.2,1.229-27.01,13.581,15.341,7,45.46,28.531,54.194.693.281,1.414-.43,1.417-1.116a206.519,206.519,0,0,0-21.6-93.01c-7.265-14.52-16.735-27.5-25.5-41.041C15.557,517.91,8.7,503.936,5.269,488,2.031,472.979.884,457.5-3.3,442.689c-1.895-6.7-4.356-14.029-8.324-19.756-2.355-3.4-7.639-7.487-11.128-3.149-1.684,2.094-1.795,5.235-2.046,7.821a73.108,73.108,0,0,0-.046,12.928,131.679,131.679,0,0,0,4.742,24.513c4.5,16.21,9.677,32.325,15.227,48.181,5.918,16.906,12.733,33.565,21.6,49.067,6.908,12.075,26,32.478,14.52,46.844A163.334,163.334,0,0,0-4.861,537.38a1.106,1.106,0,0,0-1.758.234c-4.725,10.147-1.411,21.131,1.828,31.2q6.3,19.6,12.088,39.37,5.768,19.774,10.981,39.715c3.238,12.384,6.583,24.846,8.041,37.617,1.493,13.077.8,26.45-4.715,38.418C17.434,712.312,17.769,699.647,16.928,687.424ZM133.535,908.039a549.427,549.427,0,0,1-21.467-51.422A310.36,310.36,0,0,1,133.535,908.039Z" transform="translate(29.52 -302.937)"/></g></g><g transform="translate(20.253 368.935)"><path class="aa" d="M164.869,744.154S158.9,630.815,193.976,528.271s104.486-87.124,129.115-73.246l-30.6,55.513-57.467-15.42,54.482,17.733-5.971,16.191L219.351,522.1l-2.985,6.939,60.453,14.649L266.37,568.364l-55.975-18.5,52.989,22.359-21.643,37.009-44.78-16.191,41.048,19.275L196.215,599.2l38.809,20.046S186.513,681.7,164.869,744.154Z" transform="translate(2.206 -445.008)"/><path class="z" d="M167.985,800.813c-1.775.975,48.93-47.038,89.551-85.39,44.253-41.781,106.393-56.82,163.943-39.471a337.993,337.993,0,0,1,65.187,27.714L388.9,728.338,386.658,692.1l-4.478,38.55-32.092,10.794,4.478-43.948-11.195,47.032-40.3,14.649,13.434-45.49-19.4,47.8.746-40.863-14.18,42.406L244.11,776.911l8.956-36.237-6.717,3.855-12.688,33.924S191.867,787.706,167.985,800.813Z" transform="translate(1.329 -496.27)"/><path class="z" d="M117.168,832.954l59.5,161.916h10.007l1.393-.775L121.646,822.931S-54.152,676.737-58.863,671.184l21.541,29.927Z" transform="translate(58.863 -496.8)"/><path class="z" d="M255.761,1009.651,295.78,861,251,1005.95Z" transform="translate(-19.741 -540.266)"/><path class="z" d="M160.423,824.492,94,678l61.2,145.721Z" transform="translate(20.086 -498.361)"/><path class="aa" d="M296.895,885.037s26.946-73.149,129.193-70.065l-51.5,26.985-.746-14.649-8.21,21.588-10.449,6.168.746-17.733L345.485,859.69Z" transform="translate(-31.383 -529.704)"/><path class="aa" d="M291.546,891.911S268.488,850.5,278.19,833.542V832l9.7,17.733-2.985,10.794,4.478-6.939L286.4,864.383l2.985-3.855-1.493,10.023,3.732-6.939Z" transform="translate(-26.034 -533.625)"/></g></g></g><rect class="bp" width="1366" height="668" transform="translate(0 2646.399)"/></g></svg>