<svg xmlns="http://www.w3.org/2000/svg" width="17.004" height="17" viewBox="0 0 17.004 17"><defs><style>.a{fill:#eb6874;}</style></defs><g transform="translate(-0.001 -0.074)"><path class="a" d="M11.8,17.074a.854.854,0,0,0,.822-.629l.783-2.925,2.967-.793a.851.851,0,0,0,.6-1.041L15.438,5.953l.122-.453a.85.85,0,0,0-.513-1.008l-.693-2.586a.856.856,0,0,0-1.041-.6L8.253,2.661,4.01,1.524a.833.833,0,0,0-.526.028L2.424.494a1.417,1.417,0,1,0-2,2L2.352,4.429.038,13.07a.852.852,0,0,0,.6,1.042l10.947,2.933a.833.833,0,0,0,.221.029Zm4.623-5.241a.283.283,0,0,1-.2.346l-2.65.708,1.564-5.839Zm-2.97-9.981a.283.283,0,0,1,.349.2l.6,2.258L9.348,2.954ZM8.585,8.66l-1.43-.477.954-.955.477,1.43ZM7.432,7.105l-2.4-2.4a.283.283,0,1,0-.4.4l2.4,2.4-.4.4L2.624,3.9l.4-.4.8.8a.284.284,0,0,0,.4-.4l-.8-.8.4-.4L7.833,6.7ZM1.823,3.1l1.2-1.2.4.4-1.2,1.2ZM.572,1.5a.85.85,0,0,1,1.451-.6l.6.6-1.2,1.2-.6-.6a.844.844,0,0,1-.249-.6ZM.585,13.219l2.23-8.327L6.431,8.507a.279.279,0,0,0,.1.064s0,0,.006,0L8.408,9.2a.57.57,0,0,0,.181.028.561.561,0,0,0,.3-.089l3.258.875a.272.272,0,0,0,.074.01.283.283,0,0,0,.073-.557L9.149,8.622a.586.586,0,0,0-.026-.142L8.5,6.614s0,0,0-.007a.281.281,0,0,0-.064-.1L4.053,2.123,14.81,5a.284.284,0,0,1,.2.347L12.079,16.3a.283.283,0,0,1-.348.2L.786,13.566a.283.283,0,0,1-.2-.347Zm0,0" transform="translate(0 0)"/><path class="a" d="M268.765,152.781a.283.283,0,0,0,.073-.557l-4.03-1.08a.283.283,0,1,0-.147.547l4.03,1.08A.28.28,0,0,0,268.765,152.781Zm0,0" transform="translate(-255.663 -146.043)"/><path class="a" d="M293.155,212.356a.283.283,0,0,0,.073-.557l-2.74-.733a.283.283,0,1,0-.146.547l2.74.733A.283.283,0,0,0,293.155,212.356Zm0,0" transform="translate(-280.494 -203.977)"/><path class="a" d="M83.516,261.584l-.822-.22a.283.283,0,1,0-.147.547l.822.22a.29.29,0,0,0,.074.01.283.283,0,0,0,.073-.557Zm0,0" transform="translate(-79.597 -252.603)"/><path class="a" d="M164.11,283.457a.283.283,0,0,0-.2-.347l-6.294-1.686a.283.283,0,0,0-.146.546l6.294,1.686a.277.277,0,0,0,.073.01A.283.283,0,0,0,164.11,283.457Zm0,0" transform="translate(-152.055 -272.004)"/><path class="a" d="M70.47,311.093l-.822-.22a.283.283,0,0,0-.146.547l.822.22a.269.269,0,0,0,.073.01.283.283,0,0,0,.073-.557Zm0,0" transform="translate(-66.992 -300.47)"/><path class="a" d="M149.895,332.373l-6.294-1.687a.283.283,0,1,0-.147.547l6.294,1.686a.278.278,0,0,0,.074.01.283.283,0,0,0,.073-.557Zm0,0" transform="translate(-138.48 -319.624)"/></g></svg>