<svg xmlns="http://www.w3.org/2000/svg" xmlns:xlink="http://www.w3.org/1999/xlink" width="531.24" height="427.209" viewBox="0 0 531.24 427.209"><defs><style>.a{fill:#fddeb8;}.b{fill:rgba(206,198,196,0.35);}.c{clip-path:url(#a);}.d{opacity:0.54;}.e{fill:#774642;}.f{fill:#501216;}.g{fill:#916c59;}.h{fill:#f2966c;}.i{fill:#f9b757;}.j{fill:#c02b3f;}.k{fill:#397090;}.l{fill:#fff;}.m{fill:#1d1e1c;}.n{fill:#f7d6ab;}.o{opacity:0.3;}.p{fill:#1d1e1e;}.q{fill:#2f5d7a;}.r{opacity:0.75;}.s{fill:#848484;opacity:0.26;}.t{fill:#b6b6b6;}.u{opacity:0.53;}.v{fill:#ad4618;}.w{fill:#2a0200;}.x{fill:#f4a887;}.y{fill:#b6a8a1;}.z{fill:#c83949;}.aa{fill:#380807;}.ab{fill:#2d0300;}.ac{fill:#e64054;}.ad{fill:#7d1b25;}.ae{fill:#430a0a;}.af{fill:#741d28;}.ag{fill:#b92d43;}.ah{fill:#1d3c4e;}.ai{fill:#87c2be;}.aj{fill:#447674;}.ak{fill:#009c83;}.al{fill:#f19250;}.am{fill:#e85926;}.an{fill:#d3cbc8;}.ao{fill:#fffffa;}.ap{fill:#264b61;}.aq{opacity:0.5;}.ar{fill:#abd0d6;}.as{fill:#ef8479;}.at{fill:#b6481b;}.au{fill:#603a38;}.av{fill:#936d59;}.aw{fill:#7f5e4c;}.ax{fill:#3b0a09;}.ay{opacity:0.63;}.az{fill:#0b0c0a;}.ba{fill:#e5782b;}.bb{fill:#8a2230;}</style><clipPath id="a"><path class="a" d="M871.23,543.857c-5.7-11.572-14.495-29.158-7.721-45.642,3.9-9.5,11.414-14.923,15.092-17.579,12.842-9.275,26.831-10.043,40.09-10.6,16.442-.693,16.726,2.519,29.158,1.219,5.345-.559,31.151-3.257,37.114-16.33,8.544-18.731-32.375-40.175-27.871-61.241,7.466-34.922,132.161-33.948,178.084-33.59a532.962,532.962,0,0,1,119.86,14c23.615,5.578,35.812,8.144,50.892,15.4,14.291,6.873,75.526,36.326,83.108,92.367,7.328,54.164-40.49,96.025-51.149,105.356-32.292,28.27-66.82,34.409-124.4,44.648-52.22,9.286-92.244,8.7-122.91,7.5-58.915-2.312-115.513-5.188-168.3-39.364C915.576,595.668,887.88,577.637,871.23,543.857Z" transform="translate(-861.054 -360)"/></clipPath></defs><g transform="translate(-847 -360)"><g transform="translate(849.501 360)"><path class="b" d="M871.23,543.857c-5.7-11.572-14.495-29.158-7.721-45.642,3.9-9.5,11.414-14.923,15.092-17.579,12.842-9.275,26.831-10.043,40.09-10.6,16.442-.693,16.726,2.519,29.158,1.219,5.345-.559,31.151-3.257,37.114-16.33,8.544-18.731-32.375-40.175-27.871-61.241,7.466-34.922,132.161-33.948,178.084-33.59a532.962,532.962,0,0,1,119.86,14c23.615,5.578,35.812,8.144,50.892,15.4,14.291,6.873,75.526,36.326,83.108,92.367,7.328,54.164-40.49,96.025-51.149,105.356-32.292,28.27-66.82,34.409-124.4,44.648-52.22,9.286-92.244,8.7-122.91,7.5-58.915-2.312-115.513-5.188-168.3-39.364C915.576,595.668,887.88,577.637,871.23,543.857Z" transform="translate(-861.054 -360)"/><g class="c" transform="translate(0 0)"><g transform="translate(372.402 22.824)"><g class="d" transform="translate(0 15.034)"><path class="e" d="M3124.8,572.789l-155.157.989c-8.562.055-15.453,5.469-15.391,12.094l.954,101.758c.063,6.624,7.053,11.95,15.616,11.9l155.157-.989c8.562-.055,15.453-5.469,15.391-12.093l-.954-101.758C3140.356,578.06,3133.365,572.734,3124.8,572.789Z" transform="translate(-2954.255 -572.789)"/></g><g transform="translate(2.829)"><path class="f" d="M3140.7,488.287l-155.157.989c-8.562.055-15.452,5.469-15.391,12.093l.954,101.758c.062,6.625,7.053,11.951,15.616,11.9l155.157-.989c8.562-.054,15.453-5.469,15.391-12.093l-.954-101.758C3156.257,493.559,3149.266,488.233,3140.7,488.287Z" transform="translate(-2970.155 -488.287)"/></g><g transform="translate(9.621 6.737)"><path class="g" d="M3165.618,526.154l-143.088.912c-7.9.05-14.251,4.961-14.2,10.968l.865,92.274c.056,6.007,6.5,10.836,14.4,10.786l143.088-.912c7.9-.05,14.252-4.961,14.2-10.968l-.865-92.275C3179.961,530.933,3173.514,526.1,3165.618,526.154Z" transform="translate(-3008.335 -526.154)"/></g><g transform="translate(10.009 58.869)"><path class="f" d="M3010.516,820.272l.071,7.611,171.682-1.094-.072-7.611Z" transform="translate(-3010.516 -819.177)"/></g><g transform="translate(43.579 76.251)"><path class="h" d="M3213.923,916.878l-12.531.08a2.032,2.032,0,0,0-2.187,1.832l.384,41.021a2.048,2.048,0,0,0,2.222,1.8l12.531-.08a2.032,2.032,0,0,0,2.188-1.832l-.385-41.021A2.047,2.047,0,0,0,3213.923,916.878Z" transform="translate(-3199.205 -916.878)"/></g><g transform="translate(13.033 75.852)"><path class="i" d="M3043.815,916.228a2.722,2.722,0,0,0-3.279-1.493l-11.176,2.957a2.217,2.217,0,0,0-1.734,2.82l13.748,38.372a2.722,2.722,0,0,0,3.279,1.494l11.176-2.957a2.216,2.216,0,0,0,1.734-2.82Z" transform="translate(-3027.509 -914.634)"/></g><g transform="translate(60.519 76.143)"><path class="j" d="M3309.142,916.272l-12.531.08a2.032,2.032,0,0,0-2.187,1.832l.385,41.021a2.047,2.047,0,0,0,2.222,1.8l12.531-.08a2.032,2.032,0,0,0,2.188-1.832l-.384-41.021A2.047,2.047,0,0,0,3309.142,916.272Z" transform="translate(-3294.423 -916.272)"/></g><g transform="translate(45.454 14.119)"><path class="i" d="M3234.964,567.647l-23.033.147a2.032,2.032,0,0,0-2.188,1.832l.385,41.021a2.047,2.047,0,0,0,2.222,1.8l23.033-.147a2.032,2.032,0,0,0,2.188-1.832l-.384-41.021A2.048,2.048,0,0,0,3234.964,567.647Z" transform="translate(-3209.743 -567.647)"/></g><g transform="translate(110.05 44.401)"><path class="k" d="M3622.516,737.856l-47.5.3a2.032,2.032,0,0,0-2.188,1.832l.1,10.936a2.047,2.047,0,0,0,2.222,1.8l47.5-.3a2.033,2.033,0,0,0,2.188-1.832l-.1-10.936A2.047,2.047,0,0,0,3622.516,737.856Z" transform="translate(-3572.825 -737.856)"/></g><g transform="translate(116.89 29.784)"><path class="j" d="M3660.965,655.7l-47.5.3a2.032,2.032,0,0,0-2.188,1.832l.1,10.936a2.047,2.047,0,0,0,2.222,1.8l47.5-.3a2.032,2.032,0,0,0,2.188-1.832l-.1-10.936A2.047,2.047,0,0,0,3660.965,655.7Z" transform="translate(-3611.274 -655.696)"/></g><g transform="translate(104.17 15.023)"><path class="l" d="M3590.968,574.228l-47.5.3a2.032,2.032,0,0,0-2.188,1.832l.1,10.936a2.047,2.047,0,0,0,2.222,1.8l47.5-.3a2.032,2.032,0,0,0,2.188-1.832l-.1-10.936A2.047,2.047,0,0,0,3590.968,574.228Z" transform="translate(-3541.01 -573.961)"/><path class="m" d="M3589.753,572.729h-.019l-47.5.3a2.669,2.669,0,0,0-1.884.753,1.9,1.9,0,0,0-.569,1.349l.1,10.936a2.31,2.31,0,0,0,2.471,2.069h.019l47.5-.3a2.67,2.67,0,0,0,1.884-.753,1.9,1.9,0,0,0,.569-1.349l-.1-10.936A2.31,2.31,0,0,0,3589.753,572.729Zm1.625,13.979a2.135,2.135,0,0,1-1.507.594l-47.5.3h-.016a1.783,1.783,0,0,1-1.937-1.54l-.1-10.936a1.352,1.352,0,0,1,.416-.97,2.132,2.132,0,0,1,1.507-.593l47.5-.3h.016a1.783,1.783,0,0,1,1.938,1.54l.1,10.936A1.351,1.351,0,0,1,3591.378,586.708Z" transform="translate(-3539.777 -572.729)"/></g><g transform="translate(97.808 106.323)"><path class="j" d="M3553.707,1085.906l-47.5.3a2.032,2.032,0,0,0-2.188,1.832l.1,10.937a2.047,2.047,0,0,0,2.222,1.8l47.5-.3a2.032,2.032,0,0,0,2.188-1.832l-.1-10.936A2.047,2.047,0,0,0,3553.707,1085.906Z" transform="translate(-3504.015 -1085.906)"/></g><g transform="translate(85.355 91.829)"><path class="i" d="M3483.71,1004.438l-47.5.3a2.033,2.033,0,0,0-2.188,1.832l.1,10.936a2.047,2.047,0,0,0,2.222,1.8l47.5-.3a2.032,2.032,0,0,0,2.188-1.832l-.1-10.936A2.047,2.047,0,0,0,3483.71,1004.438Z" transform="translate(-3434.019 -1004.438)"/></g><g transform="translate(13.261 13.814)"><path class="j" d="M3057.691,569.138l-11.128-3.1a2.729,2.729,0,0,0-3.3,1.452l-14.34,38.2a2.21,2.21,0,0,0,1.69,2.842l11.128,3.1a2.73,2.73,0,0,0,3.3-1.452l14.34-38.2A2.21,2.21,0,0,0,3057.691,569.138Z" transform="translate(-3028.792 -565.93)"/></g><g transform="translate(72.897 14.042)"><path class="k" d="M3373.774,567.217l-7.59.048A2.032,2.032,0,0,0,3364,569.1l.384,41.021a2.047,2.047,0,0,0,2.222,1.8l7.589-.048a2.032,2.032,0,0,0,2.188-1.832L3376,569.021A2.047,2.047,0,0,0,3373.774,567.217Z" transform="translate(-3363.997 -567.217)"/></g><g transform="translate(84.896 13.934)"><path class="n" d="M3446.16,566.61l-12.531.08a2.033,2.033,0,0,0-2.188,1.832l.384,41.021a2.048,2.048,0,0,0,2.222,1.8l12.53-.08a2.033,2.033,0,0,0,2.188-1.832l-.385-41.021A2.047,2.047,0,0,0,3446.16,566.61Z" transform="translate(-3431.442 -566.61)"/></g></g><g class="o" transform="translate(174.492 46.594)"><path class="l" d="M1903.284,629.23l-61.445,233.939s116.646-.516,154.985-10.53L1939.38,629.976S1915.147,612.31,1903.284,629.23Z" transform="translate(-1841.839 -621.899)"/></g><g class="o" transform="translate(235.311 62.452)"><path class="l" d="M2245.137,718.361,2183.692,952.3s116.646-.516,154.985-10.53l-57.444-222.663S2257,701.441,2245.137,718.361Z" transform="translate(-2183.692 -711.03)"/></g><g transform="translate(297.444 -1.535)"><g transform="translate(10.061 64.83)"><ellipse class="l" cx="7.865" cy="7.699" rx="7.865" ry="7.699"/></g><g transform="translate(16.433)"><path class="p" d="M1.226,0h0A1.226,1.226,0,0,1,2.452,1.226V39.777A1.226,1.226,0,0,1,1.226,41h0A1.226,1.226,0,0,1,0,39.777V1.226A1.226,1.226,0,0,1,1.226,0Z" transform="translate(0.267 0.267)"/><path class="m" d="M2627.477,351.37H2626.1a.807.807,0,0,0-.806.806V392.1a.807.807,0,0,0,.806.806h1.374a.807.807,0,0,0,.806-.806V352.176A.807.807,0,0,0,2627.477,351.37Zm.272,40.73a.273.273,0,0,1-.272.272H2626.1a.273.273,0,0,1-.272-.272V352.176a.273.273,0,0,1,.272-.272h1.374a.273.273,0,0,1,.272.272Z" transform="translate(-2625.297 -351.37)"/></g><g transform="translate(0 44.652)"><path class="k" d="M2556.9,602.349h-11.361a15.934,15.934,0,0,0-5,3.065c-5.79,5.226-6.905,13.667-7.291,16.578a36.913,36.913,0,0,0-.294,6.2,158.3,158.3,0,0,0,36.1.746c.131-2.174.722-14.706-6.678-22.574A18.328,18.328,0,0,0,2556.9,602.349Z" transform="translate(-2532.93 -602.349)"/></g><g transform="translate(12.593 37.344)"><path class="k" d="M2609.2,561.274a5,5,0,0,0-3.357,1.368,6.618,6.618,0,0,0-1.652,2.641,8.371,8.371,0,0,0-.465,3.3,11.8,11.8,0,0,0,11.361,0,8.119,8.119,0,0,0-2.039-5.782A5.228,5.228,0,0,0,2609.2,561.274Z" transform="translate(-2603.715 -561.272)"/></g><g transform="translate(12.608 44.652)"><path class="q" d="M2615.158,602.349H2603.8s18.07,8.456,14.717,27.166c0,0,8.267-.356,8.8-.579C2627.31,628.936,2629.113,609.058,2615.158,602.349Z" transform="translate(-2603.798 -602.349)"/></g></g><g transform="translate(235.912 -5.912)"><g transform="translate(10.061 54.174)"><ellipse class="l" cx="7.865" cy="7.699" rx="7.865" ry="7.699"/></g><g transform="translate(16.7)"><path class="q" d="M1.226,0h0A1.226,1.226,0,0,1,2.452,1.226V29.388a1.226,1.226,0,0,1-1.226,1.226h0A1.226,1.226,0,0,1,0,29.388V1.226A1.226,1.226,0,0,1,1.226,0Z"/></g><g transform="translate(0 33.996)"><path class="k" d="M2211.04,517.857h-11.361a15.942,15.942,0,0,0-5,3.065c-5.79,5.226-6.905,13.667-7.291,16.578a36.984,36.984,0,0,0-.294,6.2,158.29,158.29,0,0,0,36.1.746c.131-2.174.722-14.706-6.678-22.574A18.33,18.33,0,0,0,2211.04,517.857Z" transform="translate(-2187.071 -517.857)"/></g><g transform="translate(12.593 26.688)"><path class="k" d="M2263.343,476.783a4.993,4.993,0,0,0-3.356,1.368,6.616,6.616,0,0,0-1.653,2.641,8.381,8.381,0,0,0-.465,3.3,11.8,11.8,0,0,0,11.361,0,8.121,8.121,0,0,0-2.039-5.782A5.229,5.229,0,0,0,2263.343,476.783Z" transform="translate(-2257.855 -476.781)"/></g><g transform="translate(12.608 33.996)"><path class="q" d="M2269.3,517.857h-11.361s16.616,8.676,13.478,27.209c0,0,7.2-.409,10.035-.622C2281.45,544.444,2283.572,525.328,2269.3,517.857Z" transform="translate(-2257.937 -517.857)"/></g></g></g></g><g transform="translate(876.39 728.614)"><g class="r" transform="translate(0 0)"><ellipse class="s" cx="233.145" cy="29.185" rx="233.145" ry="29.185"/></g><g transform="translate(20.696 1.775)"><rect class="t" width="139.011" height="0.712" transform="translate(0 39.134) rotate(-16.351)"/></g><g transform="translate(124.773 0.921)"><rect class="t" width="99.481" height="0.712" transform="matrix(0.841, -0.541, 0.541, 0.841, 0, 53.829)"/></g><g transform="translate(223.241 1.001)"><rect class="t" width="74.099" height="0.712" transform="translate(0 57.142) rotate(-50.458)"/></g><g transform="translate(315.692 2.72)"><rect class="t" width="56.396" height="0.712" transform="translate(0 53.644) rotate(-72.025)"/></g><g transform="translate(392.632 7.837)"><rect class="t" width="0.712" height="42.696" transform="translate(0 0.2) rotate(-16.33)"/></g></g><g class="u" transform="translate(910.265 750.872)"><path class="v" d="M0,15.816Z" transform="translate(0 -13.38)"/></g><g transform="translate(1123.831 443.992)"><g transform="translate(44.004 23.333)"><path class="w" d="M2651.113,989.191c6.056,16.187,32.465,7.347,35.42,3.5s-1.25-22.563-1.25-22.563C2676.92,952.268,2645.057,973,2651.113,989.191Z" transform="translate(-2650.353 -963.251)"/></g><g transform="translate(26.033 156.679)"><path class="x" d="M2606.5,1842.188a26.124,26.124,0,0,1-2.356-3.978c-6.613-27.286-11.254-47.266-12.656-53.375a85.826,85.826,0,0,1-1.995-12.538c-.274-3.3-.3-5.991-.287-7.65q-1.231-9.379-2.462-18.758c-.8-3.269-5.452-21.022-22.274-29.232a39.767,39.767,0,0,0-15.134-3.893l22.431,58.031a59.9,59.9,0,0,0,0,7.02c.812,13.83,6.785,22.685,10.85,32.992,2.646,6.709,6.386,16.634,10.474,29.214-1.094,3.2-2.188,5.935-2.188,5.935l2.517,14.855h1.532l-.985-13.193c5.4-1.424,11.553,13.193,11.553,13.193s17.01.338,18.23,0c1.839-.51-2.126-4.594-5.16-7.633C2613.666,1848.241,2610.162,1847.276,2606.5,1842.188Z" transform="translate(-2549.338 -1712.764)"/></g><g transform="translate(2.221 157.348)"><path class="x" d="M2447.4,1733.78a15.425,15.425,0,0,0-2.307-7.483c-6.262-10.025-23.193-9.981-29.6-9.692l15.29,55.3a76.588,76.588,0,0,0-3.367,9.377c-2.764,9.629-2.86,17.158-2.689,36.854.077,8.919.173,16.239.245,21.16-2.2,2.2-4.228,4.014-4.228,4.014l-3.278,13.229,1.4.61,4.054-11.252c5.464.976,5.6,15.458,5.6,15.458s15.408,7.049,16.65,7.256,2.83-4.406-1.847-8.337-7.575-18.069-7.575-18.069l13.975-66.5Q2448.565,1754.744,2447.4,1733.78Z" transform="translate(-2415.498 -1716.524)"/></g><g transform="translate(41.007 49.28)"><path class="y" d="M2644.227,1147.242l15.759-36.157-26.484-1.993Z" transform="translate(-2633.502 -1109.091)"/></g><g transform="translate(41.007 34.157)"><path class="x" d="M2645.321,1024.091l-11.819,15.122c4.689.349,7.179,1.914,8.594,3.328,1.689,1.688,2.129,3.44,3.864,3.893,1.958.511,4.083-1.018,5.568-2.383l1.4-5.731C2653.646,1025.272,2645.321,1024.091,2645.321,1024.091Z" transform="translate(-2633.502 -1024.091)"/></g><g transform="translate(11.394 189.087)"><path class="z" d="M2475,1917.788s-3.142-13.789-3.4-15.91,3.094-2.909,3.094-2.909c-2.8-8.29-7.29-1.27-7.29-1.27l5.769,20.867c-6.622,10.052-6.108,36.831-6.108,36.831.443-13.613,1.823-23.936,3.381-28.457a16.68,16.68,0,0,1,2.689-4.889c1.093-1.376,2.9-3.581,5.88-4.184a8.069,8.069,0,0,1,2.678-.078A13.5,13.5,0,0,0,2475,1917.788Z" transform="translate(-2467.055 -1894.923)"/></g><g transform="translate(39.538 190.106)"><path class="z" d="M2635.708,1931.27c-.142-1.74-.284-3.865,1.026-5.779a6.18,6.18,0,0,1,2.183-1.993c-1.839.267-2.326.731-2.38,1.106.152.375.237.589.237.589a.75.75,0,0,1-.237-.589c-1-2.47-4.872-12-6.206-14.393-1.537-2.758,1.284-7.237,1.284-7.237-4.35-5.232-6.368,0-6.368,0l8.926,22.279v7.02c.164,13.826,8.646,27.83,8.646,27.83a106.721,106.721,0,0,1-6.213-18.93C2636.464,1940.529,2636.212,1937.442,2635.708,1931.27Z" transform="translate(-2625.245 -1900.648)"/><path class="z" d="M2688.92,2035.887l-.237-.589A.75.75,0,0,0,2688.92,2035.887Z" transform="translate(-2677.392 -2011.343)"/></g><g transform="translate(52.322 34.157)"><path class="z" d="M2697.609,1024.091a20.235,20.235,0,0,0-.018,8.886,20.97,20.97,0,0,0,6.307,10.738l1.337-5.765S2706.058,1025.964,2697.609,1024.091Z" transform="translate(-2697.106 -1024.091)"/></g><g transform="translate(47.337 15.628)"><path class="x" d="M2675.341,929.7a6.669,6.669,0,0,0-.219-2.247c-.328-1.07-3.721-5.135-5.691,1.819s5.144,9.2,5.144,9.2c1.2,7.7,3.5,10.8,3.5,10.8,6.895,8.13,13.242,2.888,16.416-.428s8.427-17.864,8.427-17.864C2691.646,906.915,2675.341,929.7,2675.341,929.7Z" transform="translate(-2669.086 -919.944)"/></g><g transform="translate(53.285 15.832)"><path class="z" d="M2702.519,931.267s5.656,2.743,12.493-4.11c0,0,1.843,2.959,3.507,3.259s.427,2.943,1.537,3.059,5.762.952,5.762.952.946,4.875,1.647,4.986l2.579-5.32-14.278-13Z" transform="translate(-2702.519 -921.089)"/></g><g transform="translate(2.457 109.051)"><path class="aa" d="M2459.19,1447.488c-9.993-4.959-23.476-2.217-33.538,7.12a45.51,45.51,0,0,0-6.528,11.652c-1.4,3.714-3.8,11.6-1.012,32.1a190.205,190.205,0,0,0,6.673,30.227c3.1.286,6.354.508,9.757.641,0,0,5.155.2,10.639.108a288.913,288.913,0,0,0,35.415-3.482q-5.154-33.384-10.309-66.769A25.06,25.06,0,0,0,2459.19,1447.488Z" transform="translate(-2416.824 -1445.054)"/></g><g transform="translate(80.068 118.47)"><path class="x" d="M2886.154,1540.181a14.326,14.326,0,0,1-5.381-1.689,16.171,16.171,0,0,1-4.609-3.8c-3.742-12.4-6.376-21.389-8.31-28.092-1.078-3.736-2.207-7.694-4.773-8.472-4.269-1.294-9.293,7.19-10.024,8.449l15.194,33.23a15.2,15.2,0,0,0,1.706,6.886,13.67,13.67,0,0,0,3.365,4.176q1.48-.287,2.994-.545a127.559,127.559,0,0,1,22.312-1.783,37.9,37.9,0,0,0-7.068-5.639A35.268,35.268,0,0,0,2886.154,1540.181Z" transform="translate(-2853.058 -1497.997)"/></g><g transform="translate(48.496 62.32)"><path class="ab" d="M2677.3,1184.225l-1.7,11.638,3.236,11.638,5.691-12.837-1.317-10.439C2682.108,1180.1,2677.3,1184.225,2677.3,1184.225Z" transform="translate(-2675.597 -1182.391)"/></g><g transform="translate(4.345)"><path class="f" d="M2509.1,848.519s-2.264-4.8-4.014-8.907-8.954-7.145-13.071-4.992c0,0-10.6-6.656-19.452,1.664s-9.057,14.192-12.865,15.268-14.717,2.251-16.982,8.124-1.132,8.025-.823,10.277-1.029,4.894-4.323,5.97c-9.594,3.136-9.356,6.424-9.96,8.189-.75,2.194.511,6.081,10.475,13.451a102.511,102.511,0,0,0,19.4-12.14,100.878,100.878,0,0,0,18.243-18.843l-.074-.444a7.631,7.631,0,0,1-4.084-3.06,6.438,6.438,0,0,1-1.077-4.379c.254-1.768,1.48-4.229,3.1-4.258,1.448-.026,2.837,1.357,2.783,3.671,0,0,8.646.587,12.865-7.145a6.826,6.826,0,0,0,2.317,3.67,7.144,7.144,0,0,1,1.751,1.64,6.369,6.369,0,0,1,.73,1.283c.4.879,1.962,2.02,7.15,3.138a3.354,3.354,0,0,0-.235,1.957,3.428,3.428,0,0,0,1.072,1.9,5.092,5.092,0,0,0,1.834.448c2.831.139,4.77-2.243,5.039-2.585,0,0,6.278,1.175,6.69-2.936S2514.045,853.315,2509.1,848.519Z" transform="translate(-2427.436 -832.1)"/></g><g transform="translate(14.009 31.796)"><path class="w" d="M2511.162,1014.183c-2.549.245-5.624-.631-6.7.624-.35.41-.231.738-.348,1.846a14.3,14.3,0,0,1-1.985,5.936c-.794,1.22-1.974,2.157-4.8,3.385-7.25,3.147-10.505,1.766-13.062,3.76-2.051,1.6-3.619,5.345-1.526,14.752l18.128-8.489,9.073-9.9,7.875-9.088,2.75-3.83-3.68-2.361S2514.491,1013.862,2511.162,1014.183Z" transform="translate(-2481.754 -1010.819)"/></g><g transform="translate(1.136 47.315)"><path class="ac" d="M2494.354,1135.756s-2.791-12.035-2.791-13.639c0-.592.007-.633-.01-1.162a21.939,21.939,0,0,0-3.841-12.2,15.622,15.622,0,0,0-3.431-3.648,16.132,16.132,0,0,0-8.532-3.1l-7.011,9.376-8.748,26.781-7.418-29.3-3.307-8.848-7.88-1.965a22.574,22.574,0,0,0-10.966,4.039,13.844,13.844,0,0,0-2.844,2.619c-1.518,1.893-1.817,3.4-3.4,7.644-.406,1.092-1.026,2.714-1.848,4.687a45.871,45.871,0,0,0-2.256,4.459c-1.347,3.064-1.57,4.48-2.791,7.06a31.343,31.343,0,0,1-2.955,4.974c-.764,1.292-1.878,3.223-3.165,5.625-1.45,2.71-1.594,3.169-1.679,3.669a8.5,8.5,0,0,0,3.728,8.114c1.882,1.188,3.212.756,7.6,1.237a50.508,50.508,0,0,1,8.127,1.572q-.186,2.672-.374,5.345l-9.888,10.2c8.536.161,24.563,9.239,24.563,9.239l9.023-7.314,5.647,8.533,8.536-5.514a39.719,39.719,0,0,1,1.132-13.18,41.027,41.027,0,0,1,10.048-17.89l4.226,16.546a55.553,55.553,0,0,0,2.305,7.9c.477,1.276.981,2.478,1.5,3.607,10.67,2.086,17.072-6.386,17.072-6.386s-2.79-13.672-4.6-15.437S2494.354,1135.756,2494.354,1135.756Z" transform="translate(-2409.395 -1098.048)"/></g><g transform="translate(33.127 45.175)"><path class="ad" d="M2600.4,1098.974l-4.62-12.951-6.566,2.139,6.566,11.767-2.845,9.949,14.884,18.4-7.294-28.812Z" transform="translate(-2589.213 -1086.023)"/></g><g transform="translate(74.073 105.799)"><path class="ad" d="M2841.251,1434.085c.31-3.53-1.388-8.208-3-7.157,0,0-12.417,8.465-18.353,8.052,0,0-1.208,4.124,0,4.9s2.053,4.952,2.053,5.915,1.453,4.654,4.358,4.172,8.487-3.53,11.942-4.011,6.8-2.247,5.634-6.419S2840.94,1437.615,2841.251,1434.085Z" transform="translate(-2819.361 -1426.778)"/></g><g transform="translate(51.731 48.387)"><path class="ad" d="M2702.488,1104.072l.043,12.262-.138.422-8.609,26.359,14.336-15.939-1.814-12.088,3.237-8.13Z" transform="translate(-2693.784 -1104.072)"/></g><g transform="translate(75.785 110.181)"><path class="ae" d="M2829.453,1506.621c-.3.036-.466.054-.466.054A3.754,3.754,0,0,0,2829.453,1506.621Z" transform="translate(-2828.987 -1496.798)"/><path class="ae" d="M2831.606,1461.232c3.173-.384,21.481-2.912,17.816-9.823C2849.422,1451.409,2836.222,1460.442,2831.606,1461.232Z" transform="translate(-2831.14 -1451.409)"/></g><g transform="translate(23.387 55.177)"><path class="j" d="M2547.362,1178.506a31.806,31.806,0,0,1-5.508-3.315s2.3-1.5.919-5.671,1.433-9.467,1.433-9.467c6.621-14.6.766-17.811.766-17.811,3.283,10.109,0,11.553-2.134,15.565s-1.642,7.7-1.806,10.269-2.849,5.52-2.849,5.52l-3.717,4.91,14.61,3.783A2.8,2.8,0,0,0,2547.362,1178.506Z" transform="translate(-2534.467 -1142.242)"/></g><g transform="translate(65.778 54.893)"><path class="j" d="M2778.756,1164.853c.219,4.065-6.019,17.223-6.019,17.223l.834,3.341s14.377-11.218,3.215-44.774C2776.786,1140.643,2778.537,1160.788,2778.756,1164.853Z" transform="translate(-2772.737 -1140.643)"/></g><g transform="translate(19.983 143.706)"><path class="af" d="M2529.628,1647.991a36.028,36.028,0,0,0-11.087,8.886c-.978,1.19-3.719,4.527-3.128,5.153.965,1.022,9.361-6.7,24.124-15.019,8.8-4.954,13.328-6.443,13.11-7.01C2552.3,1639.09,2540.3,1642.224,2529.628,1647.991Z" transform="translate(-2515.331 -1639.845)"/></g><g transform="translate(0 117.959)"><path class="af" d="M2418.437,1557.03c-5.287-7.275-6.709-14.39-7.683-19.555a53.271,53.271,0,0,1,.694-25.17,51.928,51.928,0,0,1,7.465-15.706q-2.041-.826-3.888-1.473-.35.3-.7.6a39.2,39.2,0,0,0-6.393,8.4,44.592,44.592,0,0,0-3.33,7.772c-2.915,9.46-1.129,21.43-.161,27.589,1.774,11.288,3.688,21.446,5.539,30.324,7.57.573,15.541.825,23.875.642q2.387-.052,4.726-.149a31.1,31.1,0,0,1-9.227-3.257A32.188,32.188,0,0,1,2418.437,1557.03Z" transform="translate(-2403.012 -1495.127)"/></g><g transform="translate(4.145 280.12)"><path class="ad" d="M2452.167,2427.579a15.4,15.4,0,0,1-3.505-5.21,24.459,24.459,0,0,1-14.844-15.769c-2.2,2.2-4.227,4.014-4.227,4.014l-3.278,13.229,1.4.61,3.315-7.608c.419.54,1.1,1.45,1.857,2.632.575.9,5.112,10.635,4.48,9.182,0,0,15.409,7.049,16.65,7.256S2456.845,2431.51,2452.167,2427.579Z" transform="translate(-2426.312 -2406.6)"/></g><g transform="translate(67.599 283.935)"><path class="ad" d="M2811.547,2440.827a7.57,7.57,0,0,0-1.988-.687,40.411,40.411,0,0,1-15.887-5.306,39.186,39.186,0,0,1-8.51-6.788c-1.094,3.2-2.189,5.935-2.189,5.935l2.517,14.855h1.532q.012-4.328.024-8.656a14.16,14.16,0,0,1,6.723,3.2,13.663,13.663,0,0,1,3.821,5.46s17.01.338,18.23,0a.7.7,0,0,0,.259-.157C2817.182,2447.633,2815.2,2442.7,2811.547,2440.827Z" transform="translate(-2782.973 -2428.045)"/></g><g transform="translate(48.448 52.687)"><path class="ab" d="M2676.534,1128.8l-1.2,1.605,2.294,4.674,5.476-.868,3.221-5.967-5.974,3.813Z" transform="translate(-2675.331 -1128.245)"/></g><g transform="translate(50.025 93.042)"><path class="l" d="M2685.311,1355.072a1.092,1.092,0,1,0,1.117,1.091A1.1,1.1,0,0,0,2685.311,1355.072Z" transform="translate(-2684.194 -1355.072)"/></g><g transform="translate(48.159 103.616)"><ellipse class="l" cx="1.116" cy="1.091" rx="1.116" ry="1.091"/></g><g transform="translate(46.398 113.631)"><path class="l" d="M2664.924,1470.8a1.092,1.092,0,1,0,1.117,1.091A1.1,1.1,0,0,0,2664.924,1470.8Z" transform="translate(-2663.808 -1470.798)"/></g><g transform="translate(39.693 40.997)"><path class="l" d="M2626.12,1066.716l2.188,14.976s5.582-4.707,6.949-5.563,4.214,2.354,4.214,2.354l-8.427-15.618C2628.2,1061.154,2626.12,1066.716,2626.12,1066.716Z" transform="translate(-2626.12 -1062.538)"/></g><g transform="translate(53.045 48.809)"><path class="l" d="M2708.558,1106.449l-.628,1.379-6.764,6.754c5.362-3.1,8.755,6.311,8.755,6.311a44.318,44.318,0,0,0-.656-11.339C2709.059,1108.471,2708.82,1107.435,2708.558,1106.449Z" transform="translate(-2701.166 -1106.449)"/></g><g transform="translate(49.652 56.974)"><path class="f" d="M2682.1,1152.843l-.007,6.846a29.665,29.665,0,0,1,4.466-.267c.943.015,1.828.074,2.648.16l-.548-5.562C2686.912,1151.131,2682.1,1152.843,2682.1,1152.843Z" transform="translate(-2682.097 -1152.34)"/></g><g transform="translate(40.719 87.246)"><path class="l" d="M2637.292,1328.157l-5.406,23.611,3.072,4.123.428-.319-2.924-3.925,5.318-23.227,5.312-5.559-.386-.369Z" transform="translate(-2631.885 -1322.492)"/></g><g transform="translate(12.278 93.549)"><path class="x" d="M2802.039,1407.509c.131.051.207.079.207.079C2802.157,1407.553,2802.091,1407.528,2802.039,1407.509Z" transform="translate(-2743.327 -1398.687)"/><path class="x" d="M2540.62,1366.506c-2.116.864-2.738,1.963-4.675,1.952a18.332,18.332,0,0,1-5.207-1.713,17.787,17.787,0,0,1-2.057-.955c-.531-.3-1.928-1.343-1.718-2.09.112-.4.611-.442,2.633-1.293.526-.221.956-.413,1.245-.545a6.86,6.86,0,0,0,1.748-1.665,6.7,6.7,0,0,0,1.08-2.274c-2.688.933-4.934,1.611-6.552,2.073l-9.874,1.567-26.987-2.121c-10.468.165-17.679,2.491-18.2,5.786-.094.593-.256,3.007,5.534,6.668l42.055-1.027,12.425,5.5,16.186-10.255A12.6,12.6,0,0,0,2540.62,1366.506Z" transform="translate(-2472.026 -1357.923)"/></g><g transform="translate(2.394 86.531)"><path class="ad" d="M2448.3,1323.7c-1.313,0-5.089-2.458-5.253-3.636-.238-1.708-3.256-1.565-5.233-1.595-3.911-.059-7.076,2.944-10.457,6.154-3.037,2.882-3.635,4.41-6.275,5.265-2.5.809-4.329.207-4.608.976,0,0-.288.8,6.381,5.673l3.662.161,2.32,1.437a11.339,11.339,0,0,0,3.218,1.667,11.991,11.991,0,0,0,6.844.122,9.9,9.9,0,0,1,.6-7.5,10.541,10.541,0,0,1,9.554-5.264h3.016S2449.61,1323.7,2448.3,1323.7Z" transform="translate(-2416.47 -1318.472)"/></g><g transform="translate(12.508 92.779)"><path class="ae" d="M2473.363,1363.571s1.094,1.6,4.158,1.284c0,0,7.378-8.04,12.515-9.664C2485.443,1356.074,2472.46,1358.987,2473.363,1363.571Z" transform="translate(-2473.318 -1354.907)"/><path class="ae" d="M2567.29,1353.876c.98-.188,1.579-.284,1.579-.284A5.554,5.554,0,0,0,2567.29,1353.876Z" transform="translate(-2550.571 -1353.592)"/></g><g transform="translate(49.146 25.533)"><path class="z" d="M2679.479,976.728c-1.088,1.442,2.113,4.262,2.113,4.262l.247-4.262v-1.066A2.278,2.278,0,0,0,2679.479,976.728Z" transform="translate(-2679.253 -975.618)"/></g><g transform="translate(60.975 29.064)"><path class="f" d="M2747.839,995.5c-.706-.22-1.573.511-1.938,1.633s-.088,2.209.618,2.429,1.573-.511,1.938-1.633S2748.545,995.723,2747.839,995.5Z" transform="translate(-2745.741 -995.464)"/></g><g transform="translate(72.18 33.09)"><path class="f" d="M2810.82,1018.134c-.706-.22-1.573.511-1.937,1.633s-.088,2.209.617,2.429,1.573-.511,1.938-1.633S2811.526,1018.353,2810.82,1018.134Z" transform="translate(-2808.721 -1018.095)"/></g><g transform="translate(64.995 35.856)"><path class="ag" d="M2768.335,1039.033s2.625,1.065,2.5,0a39.624,39.624,0,0,1,.578-5.39Z" transform="translate(-2768.335 -1033.643)"/></g><g transform="translate(60.264 41.562)"><path class="f" d="M2742.175,1065.71l-.429.317a5.234,5.234,0,0,0,3.979,2.357h.016l-.011-.534A4.725,4.725,0,0,1,2742.175,1065.71Z" transform="translate(-2741.745 -1065.71)"/></g><g transform="translate(60.856 25.991)"><path class="f" d="M2745.071,978.6l.21.491a7.9,7.9,0,0,1,4.631.009l.161-.509A8.292,8.292,0,0,0,2745.071,978.6Z" transform="translate(-2745.071 -978.191)"/></g><g transform="translate(73.978 29.966)"><path class="f" d="M2819.019,1000.533l-.189.5a4.066,4.066,0,0,1,1.726,1.234,3.844,3.844,0,0,1,.629,1.122l.5-.18a4.373,4.373,0,0,0-.716-1.277A4.606,4.606,0,0,0,2819.019,1000.533Z" transform="translate(-2818.83 -1000.533)"/></g><g transform="translate(53.635 30.216)"><ellipse class="ac" cx="3.787" cy="3.707" rx="3.787" ry="3.707"/></g><g transform="translate(70.822 37.525)"><path class="ac" d="M2801.087,1046.731a3.693,3.693,0,0,0,1.943,3.237,32.951,32.951,0,0,0,3.65-6.5,3.834,3.834,0,0,0-1.806-.448A3.748,3.748,0,0,0,2801.087,1046.731Z" transform="translate(-2801.087 -1043.024)"/></g><g transform="translate(13.928 149.928)"><path class="l" d="M2507.576,1681.6c-6.505,2.945-16.333,6.186-26.209,4.9l-.069.529a35.93,35.93,0,0,0,4.65.3c8.362,0,16.31-2.726,21.859-5.24a71.321,71.321,0,0,0,11.98-6.837l-.32-.428A70.745,70.745,0,0,1,2507.576,1681.6Z" transform="translate(-2481.298 -1674.817)"/></g></g><g transform="translate(1135.653 612.603)"><rect class="k" width="42.61" height="2.749" rx="1.374" transform="translate(0 0)"/></g><g transform="translate(1208.886 513.795)"><g transform="translate(0 92.95)"><path class="k" d="M2917.13,1747.237c-3.11-.744-20.673,0-20.673,0s-14.087,3.138-15.367,11.385h44.639S2920.24,1747.981,2917.13,1747.237Z" transform="translate(-2881.089 -1746.907)"/></g><g transform="translate(2.927 0)"><path class="k" d="M2937.577,1224.8l-40.035,73.974c.793,1.868,5.946.934,5.946.934l39.242-73.227A4.028,4.028,0,0,0,2937.577,1224.8Z" transform="translate(-2897.542 -1224.452)"/></g><g transform="translate(17.798 27.673)"><path class="ah" d="M2997.952,1388.652V1380l-16.82,30.562C2987.648,1412.538,2997.952,1388.652,2997.952,1388.652Z" transform="translate(-2981.132 -1379.995)"/></g><g transform="translate(26.209 43.952)"><path class="k" d="M3028.4,1479.4c9.316,18.881,2.147,41.1,2.147,41.1l4.392,0c6.586-22.293-1.822-49-1.822-49Z" transform="translate(-3028.403 -1471.5)"/></g><g transform="translate(7.684 95.698)"><path class="ah" d="M2951.862,1762.352h-19.534c-4.574,1.115-8.05,8.968-8.05,8.968h35.126A23.06,23.06,0,0,0,2951.862,1762.352Z" transform="translate(-2924.279 -1762.352)"/></g></g><g transform="translate(1263.731 535.19)"><g transform="translate(1.264 13.377)"><path class="ai" d="M3201.248,1420.083a3.779,3.779,0,0,0-3.928,1.061,4.354,4.354,0,0,0-.842,2.89,15.716,15.716,0,0,0,3.425,9.74,16.7,16.7,0,0,0,3.667,3.407,21.684,21.684,0,0,0,1.09-8.658C3204.48,1426.331,3204.05,1421.088,3201.248,1420.083Z" transform="translate(-3196.47 -1419.901)"/></g><g transform="translate(20.114 0)"><path class="aj" d="M3306,1344.763a3.066,3.066,0,0,0-1.944,1.556c-2.341,3.462-1.521,7.936-1.366,8.722a16.7,16.7,0,0,0,1.565,4.423,14.682,14.682,0,0,0,4.636-5.455c.8-1.635,2.7-5.545.817-7.806A4.222,4.222,0,0,0,3306,1344.763Z" transform="translate(-3302.424 -1344.711)"/></g><g transform="translate(18.089 3.822)"><path class="ak" d="M3298.414,1366.191c-.244.482-5.952,11.878-4.925,17.881.333,1.948.758,3.7,1.168,5.388.85,3.5,1.584,6.524,1.217,10.058a45.624,45.624,0,0,1-2.142,8.2c-1.325,4.124-2.7,8.389-2.7,11.992v7.522h.675v-7.522c0-3.5,1.354-7.708,2.662-11.782a46.031,46.031,0,0,0,2.17-8.335c.379-3.652-.367-6.729-1.232-10.291-.408-1.68-.829-3.417-1.158-5.342-.989-5.781,4.8-17.34,4.862-17.457Z" transform="translate(-3291.037 -1366.191)"/></g><g transform="translate(6.085 21.89)"><path class="ak" d="M3230.4,1492.176a19.586,19.586,0,0,0-.231-6.9,30.153,30.153,0,0,0-2.264-5.233c-1.26-2.512-2.564-5.109-2.912-7.375l-.755-4.917-.666.1.755,4.916c.365,2.373,1.693,5.019,2.977,7.578a29.782,29.782,0,0,1,2.214,5.1,18.8,18.8,0,0,1,.211,6.669c-.1,1.152-.2,2.344-.223,3.658-.069,4.074,4.828,10.929,5.036,11.219l.546-.4c-.05-.069-4.974-6.96-4.909-10.808C3230.2,1494.5,3230.3,1493.317,3230.4,1492.176Z" transform="translate(-3223.566 -1467.75)"/></g><g transform="translate(0 33.209)"><path class="ai" d="M3192.148,1531.527a4.435,4.435,0,0,0-2.729,2.992,3.3,3.3,0,0,0,.6,2.478c2.126,3.61,6.388,4.585,7.141,4.746a14.913,14.913,0,0,0,4.511.24,15.118,15.118,0,0,0-2.978-6.6C3197.573,1533.976,3194.881,1530.609,3192.148,1531.527Z" transform="translate(-3189.365 -1531.371)"/></g><g transform="translate(10.968 23.545)"><path class="aj" d="M3254.588,1477.1a3.065,3.065,0,0,0-1.943,1.556c-2.342,3.462-1.522,7.935-1.367,8.722a16.713,16.713,0,0,0,1.566,4.424,14.683,14.683,0,0,0,4.636-5.456c.8-1.635,2.7-5.545.817-7.805A4.222,4.222,0,0,0,3254.588,1477.1Z" transform="translate(-3251.013 -1477.051)"/></g><g transform="translate(23.35 16.727)"><path class="ai" d="M3327.017,1438.753a2.971,2.971,0,0,0-2.32.821c-3.283,2.493-3.883,7-3.978,7.8a16.956,16.956,0,0,0,.121,4.714,14.1,14.1,0,0,0,6.07-3.611c1.258-1.281,4.265-4.344,3.176-7.118A4.367,4.367,0,0,0,3327.017,1438.753Z" transform="translate(-3320.609 -1438.728)"/></g><g transform="translate(20.433 38.298)"><path class="aj" d="M3315.042,1560.346a2.942,2.942,0,0,0-2.439-.232c-3.969.889-6.271,4.758-6.667,5.446a16.65,16.65,0,0,0-1.72,4.361,13.664,13.664,0,0,0,6.951-.73c1.647-.639,5.586-2.165,5.668-5.161A4.578,4.578,0,0,0,3315.042,1560.346Z" transform="translate(-3304.216 -1559.976)"/></g><g transform="translate(9.593 8.654)"><path class="aj" d="M3246.7,1393.376a4.333,4.333,0,0,0-3.229,2.387,3.317,3.317,0,0,0,.135,2.553c1.42,3.971,5.421,5.784,6.131,6.094a15.044,15.044,0,0,0,4.383,1.142,15.35,15.35,0,0,0-1.7-7.073C3251.576,1396.87,3249.556,1393.024,3246.7,1393.376Z" transform="translate(-3243.284 -1393.353)"/></g><g transform="translate(12.894 44.263)"><path class="ai" d="M3264.563,1593.542a2.336,2.336,0,0,0-1.481,1.185c-1.784,2.638-1.16,6.047-1.041,6.646a12.737,12.737,0,0,0,1.193,3.37,11.188,11.188,0,0,0,3.533-4.157c.607-1.246,2.059-4.225.623-5.948A3.218,3.218,0,0,0,3264.563,1593.542Z" transform="translate(-3261.838 -1593.502)"/></g><g transform="translate(4.78 48.704)"><path class="aj" d="M3218.276,1618.61a3.378,3.378,0,0,0-2.01,2.331,2.5,2.5,0,0,0,.509,1.867,8.5,8.5,0,0,0,5.515,3.444,11.323,11.323,0,0,0,3.429.082,11.442,11.442,0,0,0-2.393-4.942C3222.442,1620.349,3220.331,1617.853,3218.276,1618.61Z" transform="translate(-3216.234 -1618.469)"/></g><g transform="translate(11.909 26.458)"><path class="ai" d="M3259.722,1493.45a4.333,4.333,0,0,0-3.23,2.387,3.318,3.318,0,0,0,.135,2.553c1.42,3.97,5.421,5.784,6.131,6.094a15.028,15.028,0,0,0,4.383,1.142,15.352,15.352,0,0,0-1.7-7.073C3264.593,1496.944,3262.573,1493.1,3259.722,1493.45Z" transform="translate(-3256.302 -1493.427)"/></g><g transform="translate(4.68 37.973)"><path class="ak" d="M3215.87,1558.151l-.2.649c.054.017,5.39,1.733,7.335,5.36l.593-.324C3221.52,1559.965,3216.1,1558.223,3215.87,1558.151Z" transform="translate(-3215.669 -1558.151)"/></g><g transform="translate(15.415 30.424)"><path class="ak" d="M3276.356,1515.717l-.347.583c.057.035,5.735,3.516,7.012,7.749l.645-.2C3282.313,1519.367,3276.6,1515.864,3276.356,1515.717Z" transform="translate(-3276.009 -1515.717)"/></g><g transform="translate(12.682 12.464)"><path class="ak" d="M3261,1414.77l-.347.583c.057.035,5.735,3.516,7.012,7.749l.645-.2C3266.953,1418.42,3261.239,1414.917,3261,1414.77Z" transform="translate(-3260.649 -1414.77)"/></g><g transform="translate(6.633 50.814)"><path class="ak" d="M3226.848,1630.326l-.2.649c.054.017,5.389,1.733,7.335,5.36l.593-.324C3232.5,1632.14,3227.079,1630.4,3226.848,1630.326Z" transform="translate(-3226.648 -1630.326)"/></g><g transform="translate(23.491 20.563)"><path class="ak" d="M3321.4,1469.65l.642.208c.021-.068,2.2-6.8,5.718-8.986l-.354-.579C3323.677,1462.609,3321.495,1469.364,3321.4,1469.65Z" transform="translate(-3321.403 -1460.293)"/></g><g transform="translate(20.215 42.473)"><path class="ak" d="M3303.427,1588.525c.053-.045,5.335-4.508,9.424-4.4l.02-.68c-4.349-.133-9.656,4.366-9.879,4.557Z" transform="translate(-3302.991 -1583.446)"/></g><g transform="translate(14.123 47.055)"><path class="ak" d="M3268.748,1617.123l.674.041c0-.053.34-5.366,2.177-7.523l-.512-.443C3269.1,1611.526,3268.762,1616.9,3268.748,1617.123Z" transform="translate(-3268.748 -1609.198)"/></g><g transform="translate(3.535 59.465)"><path class="i" d="M3209.446,1678.955c-1.631,18.286,6.8,20.862,6.8,20.862h11.823c9.1-4.121,6.936-20.862,6.936-20.862Z" transform="translate(-3209.236 -1678.955)"/></g><g transform="translate(12.32 62.327)"><path class="al" d="M3281.8,1700.219a8.578,8.578,0,0,1,1.387,3.635,8.948,8.948,0,0,1-2.8,7.709,9.6,9.6,0,0,1-6.424,2.439h7.312s6.867-1.035,7.162-17l-13.875-.793C3276.935,1696.581,3279.992,1697.583,3281.8,1700.219Z" transform="translate(-3271.234 -1696.002)"/><path class="al" d="M3258.611,1695.058l3.331.19A16.516,16.516,0,0,0,3258.611,1695.058Z" transform="translate(-3258.611 -1695.041)"/></g><g transform="translate(0.762 59.465)"><rect class="am" width="31.536" height="3.863" rx="1.932"/></g></g><g transform="translate(847 377.339)"><g transform="translate(0 0)"><path class="an" d="M896.594,458.419C853.287,447.431,830.253,534.2,861.3,531.76s73.687,12.987,79.22-20.358S896.594,458.419,896.594,458.419Z" transform="translate(-847 -457.457)"/></g><g transform="translate(16.985 14.137)"><g transform="translate(3.481 2.745)"><path class="ao" d="M993.36,552.675a29.666,29.666,0,0,0-6.643-.238c-14.717,1.116-25.731,12.762-24.6,26.013s13.977,23.087,28.694,21.972,25.731-12.762,24.6-26.013C1014.455,563.2,1005.119,554.438,993.36,552.675Z" transform="translate(-962.036 -552.351)"/></g><g transform="translate(23.253 10.488)"><g transform="translate(5.609 1.504)"><path class="ap" d="M1104.693,619.2l1.714-.008.038-14.865-1.714.008Z" transform="translate(-1104.693 -604.324)"/></g><path class="ap" d="M1073.166,602.1l1.245,1.052,5.211-5,4.871,4.894,1.28-1.035-6.113-6.142Z" transform="translate(-1073.166 -595.87)"/></g><g transform="translate(29.994 24.836)"><g transform="translate(0 0.375)"><path class="ap" d="M1111.06,680.077l19.846,6.51.6-1.452-19.846-6.51Z" transform="translate(-1111.06 -678.625)"/></g><g transform="translate(10.915)"><path class="ap" d="M1176.208,677.357l4.567,6.422-8.365,1.909.409,1.5,10.686-2.438-5.852-8.229Z" transform="translate(-1172.41 -676.517)"/></g></g><g transform="translate(27.167 24.475)"><path class="ap" d="M1097.774,674.5a2.664,2.664,0,0,0-2.6,2.748,2.726,2.726,0,0,0,3.032,2.321,2.664,2.664,0,0,0,2.6-2.748A2.725,2.725,0,0,0,1097.774,674.5Z" transform="translate(-1095.166 -674.487)"/></g><g class="aq" transform="translate(6.521 3.747)"><path class="ar" d="M979.123,592.375a18.545,18.545,0,0,0,7.98,8.264l33.908-37.334s-5.33-4.437-10.364-5.326Z" transform="translate(-979.123 -557.98)"/></g><g class="aq" transform="translate(26.138 16.172)"><path class="ar" d="M1089.383,662.2a18.536,18.536,0,0,0,6.117.268l23.851-30.128a12.633,12.633,0,0,0-1.836-4.516Z" transform="translate(-1089.383 -627.82)"/></g><path class="k" d="M970.162,537.016c-16.487,1.25-28.871,14.344-27.605,29.189s15.71,25.905,32.2,24.655,28.872-14.345,27.605-29.19S986.649,535.765,970.162,537.016Zm23.365,41.334-2.861-2.2-1.119,1.176,2.893,2.227a27.679,27.679,0,0,1-16.87,8.128l-.239-3.2-1.71.114.241,3.234a28.284,28.284,0,0,1-18.052-5.146l2.832-3.01-1.3-.993-2.827,3.005a22.933,22.933,0,0,1-8.457-14.978l4.172-.28-.115-1.54-4.187.281a22.507,22.507,0,0,1,5.985-16.232l3.1,2.384,1.119-1.177-3.087-2.377a27.818,27.818,0,0,1,16.783-7.616l.29,3.886,1.71-.115-.289-3.886a28.222,28.222,0,0,1,17.794,5.324l-2.3,2.44,1.3.993,2.279-2.423a22.9,22.9,0,0,1,8.251,14.8l-3.7.248.114,1.54,3.721-.249A22.411,22.411,0,0,1,993.526,578.35Z" transform="translate(-942.468 -536.919)"/></g></g><g transform="translate(981.997 500.935)"><g transform="translate(38.081 0)"><g transform="translate(128.211 231.036)"><path class="am" d="M2576.591,2461.66c-1.855.169-10.132-3.379-10.132-3.379l-12.606-5.464c-4.472-5.971-13.366,3.1-13.366,3.1s3.853,16.9,4.567,17.36,5.137,0,5.137,0,1-1.646,4.281-2.322,8.705,2.2,8.705,2.2,16.554,1.183,16.839-3.717S2578.446,2461.491,2576.591,2461.66Z" transform="translate(-2540.486 -2450.781)"/></g><g transform="translate(44.153 46.016)"><path class="y" d="M2079.4,1410.818l-11.39,2.366,14.026,4.053,4.513,9C2088.138,1416.879,2079.4,1410.818,2079.4,1410.818Z" transform="translate(-2068.014 -1410.818)"/></g><g transform="translate(103.358 96.129)"><path class="as" d="M2414.485,1692.5c-1.457-.171-11.3,1.425-11.3,1.425-2.206.346-3.154,6.12-1.68,8.857s11.764-1.1,11.764-1.1l5.736,2.769s6.241,2.39,6.783,1.16-2.121-7.249-2.121-7.249S2415.942,1692.675,2414.485,1692.5Z" transform="translate(-2400.792 -1692.491)"/></g><g transform="translate(98.05 96.161)"><path class="y" d="M2377.446,1692.673c-5.607.119-6.485,8.321-6.485,8.321l9.479,3.741c1.94-2.143.526-11.913.526-11.913Z" transform="translate(-2370.961 -1692.673)"/></g><g transform="translate(48.33 72.514)"><path class="am" d="M2122.105,1576.6c-.112-1.616-3.807-.876-5.238-1.653s-7.578-14.1-7.578-14.1c-5.977-4.725-17.2,7.149-17.784,12.02s21.435,20.53,21.435,20.53l32.369,1.365s2.5-7.233,2.62-8.581a25.935,25.935,0,0,0-.583-4.758S2122.217,1578.219,2122.105,1576.6Z" transform="translate(-2091.495 -1559.76)"/></g><g transform="translate(75.429 221.591)"><path class="l" d="M2268.1,2416.792a35.636,35.636,0,0,1-2.721-9.653c-1.288-5.78-8.572-7.722-8.572-7.722l-11.037,16.1,4.345,4.135s2.3.2,6.483,2.568,6.9,9.949,6.9,9.949,11.083-.662,12.548-.049,4.182-4.7,1.882-7.564S2270.4,2422.106,2268.1,2416.792Z" transform="translate(-2245.421 -2399.109)"/><path class="m" d="M2272.7,2420.486c-2.266-1.03-4.61-2.1-5.961-5.218a35.724,35.724,0,0,1-2.7-9.573l-.005-.032a9.968,9.968,0,0,0-4.89-6.2,16.3,16.3,0,0,0-3.873-1.724l-.182-.049-11.272,16.447,4.51,4.293.068.064.092.009c.023,0,2.308.234,6.376,2.534,4.047,2.289,6.754,9.731,6.781,9.806l.068.188.2-.012c3.066-.183,11.275-.552,12.428-.069.541.226,1.2-.106,1.807-.912a7.246,7.246,0,0,0,1.284-3.321,4.943,4.943,0,0,0-.9-3.744A9.854,9.854,0,0,0,2272.7,2420.486Zm3.017,9.233c-.435.578-.885.863-1.174.741a14.949,14.949,0,0,0-3.815-.283c-3.256,0-7.5.233-8.654.3-.459-1.217-3.051-7.7-6.952-9.9a19.52,19.52,0,0,0-6.495-2.591l-4.116-3.917,10.8-15.756c1.114.345,7.063,2.413,8.2,7.455a36.442,36.442,0,0,0,2.74,9.716c1.433,3.311,3.981,4.469,6.23,5.491a9.481,9.481,0,0,1,3.635,2.338C2277.6,2425.165,2276.839,2428.224,2275.714,2429.719Z" transform="translate(-2243.811 -2397.692)"/></g><g transform="translate(75.947 221.898)"><path class="at" d="M2269.052,2416.792a35.625,35.625,0,0,1-2.721-9.653c-1.288-5.78-8.572-7.722-8.572-7.722l-11.037,16.1,4.345,4.135s2.3.2,6.483,2.568,6.9,9.949,6.9,9.949,11.084-.662,12.548-.049,4.182-4.7,1.882-7.564S2271.353,2422.106,2269.052,2416.792Z" transform="translate(-2246.722 -2399.416)"/></g><g transform="translate(29.491 122.657)"><path class="au" d="M2065.394,1859.859a168.2,168.2,0,0,0-51.242-18.165c-19.409-2.07-28.549,32-28.549,32l57.715,5.836c-8.9,20.744-5,57.941-5,57.941l-2.583,8.636c.9,2.172,5.392,2.865,9.653,3.014a43.193,43.193,0,0,0,8.3-.245c7.159-43.069,12.342-74.375,13.05-78.407a17.685,17.685,0,0,0,.244-4.292A18.537,18.537,0,0,0,2065.394,1859.859Z" transform="translate(-1985.603 -1841.604)"/></g><g transform="translate(10.877 123.24)"><path class="av" d="M1968.634,1867.01c-6.8-10.277-49.364-21.2-49.364-21.2-21.44-3.817-37,4.748-38.215,13.007-1,6.773,7.351,15.457,19.375,20.737l51.972,2.5a429.752,429.752,0,0,0,23.723,45.856c6.2,10.4,12.5,19.969,18.712,28.733,7.114,5.155,18.834-3.292,18.834-3.292s-43.015-80.041-43.4-80.82S1968.634,1867.01,1968.634,1867.01Z" transform="translate(-1880.975 -1844.877)"/></g><g transform="translate(38.421 34.354)"><path class="x" d="M2040.847,1345.869l-5.054,12.021c.244,3.84,12.685,9.751,12.685,9.751l4.855-11.719C2051.236,1341.582,2040.847,1345.869,2040.847,1345.869Z" transform="translate(-2035.793 -1345.269)"/></g><g transform="translate(43.474 34.449)"><path class="z" d="M2064.2,1346.309s5.828,13.685,10.512,14.817l1.973-4.763S2076.215,1343.083,2064.2,1346.309Z" transform="translate(-2064.2 -1345.804)"/></g><g transform="translate(39.884 5.535)"><path class="x" d="M2050.98,1193.34l-.928,11.332a11.616,11.616,0,0,0-1.856-2.271c-.7-.477-4.176-1.431-4.176,4.486s8.353,7.925,8.353,7.925c6.5,9.788,14.617,12.149,18.561,7.857s1.16-25.036,1.16-25.036C2061.189,1168.066,2050.98,1193.34,2050.98,1193.34Z" transform="translate(-2044.02 -1183.279)"/></g><g transform="translate(68.912 27.101)"><path class="ag" d="M2207.179,1312.726s3.6-1.609,3.6-2.682-3.6-5.544-3.6-5.544Z" transform="translate(-2207.179 -1304.5)"/></g><g transform="translate(10.877 123.892)"><path class="aw" d="M1884.269,1861.543l-3.294,6.837,9.493,8.451s13.97-6.427,16.852-13.08,22.5-11.934,22.5-11.934l-9.43-3.272Z" transform="translate(-1880.975 -1848.545)"/></g><g transform="translate(105.182 98.188)"><path class="x" d="M2424.739,1704.079c-1.457-.171-11.3,1.425-11.3,1.425-2.205.346-3.154,6.121-1.68,8.857s11.765-1.1,11.765-1.1l5.736,2.769s6.241,2.39,6.783,1.16-2.121-7.249-2.121-7.249S2426.2,1704.25,2424.739,1704.079Z" transform="translate(-2411.046 -1704.066)"/></g><g transform="translate(44.649 12.86)"><path class="z" d="M2077.267,1224.451s-4.162,3.385-4.226,3.573-2.241,3.76-2.241,3.76l1.268,6.736s3.918-.229,5.647-4.986c0,0,1.366.758,4.4-1.436a8.428,8.428,0,0,0,8.324-1.066,3.773,3.773,0,0,0,3.674.448l-1.347-3.519Z" transform="translate(-2070.8 -1224.451)"/></g><g transform="translate(28.274)"><path class="ax" d="M2023,1159.063c-3.842-8.405-10.611-6.02-10.611-6.02a7.261,7.261,0,0,0-8.415,1.012c-5.489-2.861-11.343,1.252-11.343,1.252-5.854-.894-6.769,3.756-6.769,3.756-8.965.536-5.306,8.226-5.306,8.226-4.757,6.8,1.464,9.657,1.464,9.657-2.013,7.69,6.4,6.438,6.4,6.438a6.115,6.115,0,0,0,3.045,3.211,5.72,5.72,0,0,0,1.969.48,7.967,7.967,0,0,1-2.965-4.671,7.4,7.4,0,0,1,.079-3.134c2.859-5.782,5.856-.172,5.856-.172a11.569,11.569,0,0,0,4.7-6.8c4.156-.159,5.343-1.788,5.343-1.788,3.026,3.755,8.317-.861,8.317-.861,5.854,3.61,8.233-2,8.233-2C2029.951,1163.534,2023,1159.063,2023,1159.063Z" transform="translate(-1978.763 -1152.17)"/></g><g transform="translate(95.951 99.376)"><path class="l" d="M2363.685,1710.743c-10.258,2.123.142,14.577.142,14.577s7.622,1.094,8-1.852-.917-12.421-.917-12.421Z" transform="translate(-2359.162 -1710.743)"/></g><g transform="translate(20.37 49.339)"><path class="l" d="M1977,1445.518c-7.824-18.427-28.644-15.908-28.644-15.908l-14.026,73.2c8.883,11.964,11.473,12.234,11.473,12.234,4.123.429,4.631-4.1,11.983-5.687,4.143-.894,5.615.193,9.692-1.063a20.246,20.246,0,0,0,7.933-4.739c1.084-18.223,1.759-32.135,2.023-38.833.1-2.5.291-6.556.037-11.872C1977.281,1448.806,1977,1445.518,1977,1445.518Z" transform="translate(-1934.333 -1429.493)"/></g><g class="ay" transform="translate(43.474 49.751)"><path class="y" d="M2071.521,1431.834c-.384.184-7.321,1.715-7.321,1.715l.678,8.756,11.807,6.771,1.238-5.117,2.526.672c-.57-6.04-5.315-11.853-5.315-11.853S2071.905,1431.65,2071.521,1431.834Z" transform="translate(-2064.2 -1431.814)"/></g><g transform="translate(59.724 65.352)"><path class="az" d="M2161.587,1550.883c.4-2.911-.049-28.245-.049-28.245-.078-2.029-1.644-3.271-2.688-3.128s-2.183,1.739-1.714,3.7l-1.6,52.106,3.455,4.471,4.046-3.48-.916-3.136S2161.186,1553.794,2161.587,1550.883Z" transform="translate(-2155.535 -1519.5)"/></g><g transform="translate(54.348 52.475)"><path class="az" d="M2127.85,1447.122s-5.381,4.641-.446,7.109l3.292,2.984s2.5,2.464,3.16,1.51a2.3,2.3,0,0,0,0-2.183Z" transform="translate(-2125.32 -1447.122)"/></g><g transform="translate(59.724 61.896)"><path class="az" d="M2155.535,1500.75l.569,6.041c1.626,1.351,6.017-.318,6.017-.318l-1.951-6.041C2158.381,1499.479,2155.535,1500.75,2155.535,1500.75Z" transform="translate(-2155.535 -1500.078)"/></g><g class="ay" transform="translate(33.298 118.364)"><path class="y" d="M2007,1820.571s2.132,3.7,13.416,3.1,11.953-6.2,11.953-6.2C2025.051,1824.386,2007,1820.571,2007,1820.571Z" transform="translate(-2007 -1817.471)"/></g><g transform="translate(34.565 40.809)"><path class="l" d="M2023.91,1382.72a30.058,30.058,0,0,0-5.308-1.169l-4.48,6.167,21.438,15.189a35.107,35.107,0,0,1,.394-4.663,4.665,4.665,0,0,1,.783-1.831c.269-.4.444-.533.621-.531.349,0,.6.535.709.753,0,0,.078.16,2.033,3.179a8.666,8.666,0,0,0,2.317,2.364l-2.073-7.213A33.089,33.089,0,0,0,2023.91,1382.72Z" transform="translate(-2014.122 -1381.551)"/></g><g transform="translate(0 46.976)"><path class="i" d="M1886.019,1465.573l-1.232-1.126c-1.232-1.126-1.645-.069-1.645-.069l-5.519-16.016c.043-2.326.08-17.542-11.788-26.75a29.96,29.96,0,0,0-11.432-5.4,37.733,37.733,0,0,0-4.279,4.408c-6.483,7.877-7.828,16.159-9.577,24.662-1.648,8.016-3.914,15.9-5.836,23.857a159.291,159.291,0,0,1-14.873,38.275s9.847,9.245,15.452,9.482,9.3-.563,15.16-6.043,13.194-36.2,13.194-36.2,3.7,7.495,7.434,9.979,50.351.153,50.351.153c5.665-3.878.78-17.688.78-17.688Z" transform="translate(-1819.838 -1416.212)"/></g><g transform="translate(28.437 61.123)"><path class="ba" d="M1980.468,1495.805c0-.024,0-.048,0-.072C1980.473,1495.733,1980.471,1495.759,1980.468,1495.805Z" transform="translate(-1980.328 -1495.733)"/><path class="ba" d="M1979.819,1496.139c-1.795,25.824,14.194,47.771,14.194,47.771l.812-3.955C1978.917,1517.493,1979.745,1497.468,1979.819,1496.139Z" transform="translate(-1979.678 -1496.067)"/></g><g transform="translate(54.348 94.756)"><path class="ba" d="M2134.713,1684.808c-.1.037-.417.188-.571.951a18.82,18.82,0,0,1-1.052,4.4,20.832,20.832,0,0,1-7.77,9.7,20.3,20.3,0,0,0,7.725-7.021,19.248,19.248,0,0,0,2.378-5.477s2.257,5.544,1.586,10.015c0,0,2.2-5.961.061-10.551C2136.262,1685.369,2135.283,1684.6,2134.713,1684.808Z" transform="translate(-2125.32 -1684.775)"/></g><g transform="translate(10.015 123.892)"><path class="am" d="M1876.128,1857.844l.976,3.7,22.308-9.66-1.086-3.338S1879.3,1857.367,1876.128,1857.844Z" transform="translate(-1876.128 -1848.545)"/></g><g transform="translate(61.808 25.144)"><ellipse class="f" cx="1.238" cy="2.089" rx="1.238" ry="2.089"/></g><g transform="translate(64.284 38.324)"><path class="ag" d="M2181.172,1369.029c.162,2.006,3.836,2.173,3.35-1.337C2184.522,1367.692,2181.01,1367.023,2181.172,1369.029Z" transform="translate(-2181.167 -1367.585)"/></g><g transform="translate(59.286 20.853)"><path class="f" d="M2153.074,1271.137l.434.31c1.242-1.737,4.915-1.521,4.952-1.518l.035-.533C2158.332,1269.385,2154.489,1269.158,2153.074,1271.137Z" transform="translate(-2153.074 -1269.383)"/></g><g transform="translate(54.409 27.714)"><path class="ac" d="M2130.016,1307.944a4.263,4.263,0,1,0,4.354,4.262A4.309,4.309,0,0,0,2130.016,1307.944Z" transform="translate(-2125.662 -1307.944)"/></g><g transform="translate(41.617 28.602)"><path class="z" d="M2053.965,1313.736c-.727,1.132.677,2.659.775,2.763a3.919,3.919,0,0,0,2.988,1.086q-.717-2.3-1.435-4.6A2.26,2.26,0,0,0,2053.965,1313.736Z" transform="translate(-2053.757 -1312.937)"/></g><g transform="translate(45.888 130.539)"><rect class="l" width="0.534" height="2.135" transform="translate(31.324 17.234) rotate(-79.473)"/><rect class="l" width="0.534" height="2.135" transform="translate(39.72 18.794) rotate(-79.473)"/><rect class="l" width="0.534" height="2.135" transform="translate(27.126 16.453) rotate(-79.473)"/><rect class="l" width="0.534" height="2.135" transform="matrix(0.878, -0.478, 0.478, 0.878, 48.869, 32.051)"/><rect class="l" width="0.534" height="2.135" transform="translate(22.929 15.673) rotate(-79.473)"/><rect class="l" width="0.534" height="2.135" transform="matrix(0.878, -0.478, 0.478, 0.878, 46.828, 28.3)"/><rect class="l" width="0.534" height="2.135" transform="matrix(0.878, -0.478, 0.478, 0.878, 42.745, 20.8)"/><rect class="l" width="0.534" height="2.135" transform="matrix(0.878, -0.478, 0.478, 0.878, 44.786, 24.55)"/><rect class="l" width="0.534" height="2.135" transform="translate(10.335 13.332) rotate(-79.473)"/><rect class="l" width="0.534" height="2.135" transform="translate(18.731 14.893) rotate(-79.473)"/><path class="l" d="M2091.136,1930.155l-.527-.084a7.941,7.941,0,0,1-.589,1.974l.488.217A8.49,8.49,0,0,0,2091.136,1930.155Z" transform="translate(-2087.84 -1922.213)"/><path class="l" d="M2091.781,1908.333a8.473,8.473,0,0,0-.54-2.131l-.5.2a7.926,7.926,0,0,1,.506,2Z" transform="translate(-2088.436 -1902.591)"/><rect class="l" width="0.534" height="2.135" transform="translate(1.939 11.772) rotate(-79.473)"/><path class="l" d="M2077.765,1886.284a10.932,10.932,0,0,1,1.333,1.6l.441-.3a11.323,11.323,0,0,0-1.4-1.679Z" transform="translate(-2077.765 -1885.904)"/><rect class="l" width="0.534" height="2.135" transform="translate(6.137 12.552) rotate(-79.473)"/><rect class="l" width="0.534" height="2.135" transform="translate(14.533 14.113) rotate(-79.473)"/><rect class="l" width="0.534" height="2.135" transform="translate(50.911 35.801) rotate(-28.563)"/><rect class="l" width="0.534" height="2.135" transform="translate(35.522 18.014) rotate(-79.473)"/><rect class="l" width="0.534" height="2.135" transform="translate(79.492 88.303) rotate(-28.563)"/><rect class="l" width="0.534" height="2.135" transform="translate(77.45 84.553) rotate(-28.563)"/><rect class="l" width="0.534" height="2.135" transform="translate(75.409 80.803) rotate(-28.563)"/><rect class="l" width="0.534" height="2.135" transform="matrix(0.878, -0.478, 0.478, 0.878, 73.367, 77.053)"/><rect class="l" width="0.534" height="2.135" transform="matrix(0.878, -0.478, 0.478, 0.878, 71.326, 73.303)"/><rect class="l" width="0.534" height="2.135" transform="translate(85.616 99.554) rotate(-28.563)"/><rect class="l" width="0.534" height="2.135" transform="translate(81.533 92.054) rotate(-28.563)"/><rect class="l" width="0.534" height="2.135" transform="translate(87.658 103.304) rotate(-28.563)"/><rect class="l" width="0.534" height="2.135" transform="translate(83.575 95.804) rotate(-28.563)"/><rect class="l" width="0.534" height="2.135" transform="matrix(0.878, -0.478, 0.478, 0.878, 65.201, 62.052)"/><rect class="l" width="0.534" height="2.135" transform="matrix(0.878, -0.478, 0.478, 0.878, 61.118, 54.552)"/><rect class="l" width="0.534" height="2.135" transform="translate(57.035 47.051) rotate(-28.563)"/><rect class="l" width="0.534" height="2.135" transform="matrix(0.878, -0.478, 0.478, 0.878, 69.284, 69.552)"/><rect class="l" width="0.534" height="2.135" transform="translate(54.994 43.301) rotate(-28.563)"/><rect class="l" width="0.534" height="2.135" transform="translate(59.077 50.801) rotate(-28.563)"/><rect class="l" width="0.534" height="2.135" transform="matrix(0.878, -0.478, 0.478, 0.878, 67.243, 65.802)"/><rect class="l" width="0.534" height="2.135" transform="translate(52.952 39.551) rotate(-28.563)"/><rect class="l" width="0.534" height="2.135" transform="matrix(0.878, -0.478, 0.478, 0.878, 63.16, 58.302)"/></g></g><g transform="translate(0 53.178)"><g transform="translate(21.911 66.277)"><path class="e" d="M1729.381,1827.186l12.069,34.88h6.517l-12.267-36.328S1726.925,1820.086,1729.381,1827.186Z" transform="translate(-1728.947 -1823.606)"/></g><g transform="translate(25.242 50.397)"><path class="e" d="M1791.085,1742.344a99.144,99.144,0,0,0-11.765-4.166,101.641,101.641,0,0,0-31.652-3.756l.8,3.984a120.073,120.073,0,0,1,17.6,1.4c10.843,1.675,22.8,3.522,33.6,11.89a48.66,48.66,0,0,1,9.627,9.973,62.7,62.7,0,0,1,3.542,6.577,63.453,63.453,0,0,1,5.549,20.437l4.974.008a55.5,55.5,0,0,0-5.457-19.82C1810.045,1752.848,1796.507,1745.081,1791.085,1742.344Z" transform="translate(-1747.668 -1734.348)"/></g><g transform="translate(21.911 112.76)"><path class="e" d="M1728.947,2170.761a12.116,12.116,0,0,0,8.279-2.124l14.845-83.763h-9.414Z" transform="translate(-1728.947 -2084.874)"/></g><g transform="translate(92.325 112.716)"><path class="e" d="M2124.732,2084.9l17.534,84.18a12.252,12.252,0,0,0,8.427,1.905l-16.452-86.358Z" transform="translate(-2124.732 -2084.63)"/></g><path class="bb" d="M1605.8,1459.792l20.392,60.761s6.952.278,9.879-2.842l-21.434-66.089S1605.527,1447.913,1605.8,1459.792Z" transform="translate(-1605.789 -1451.074)"/><g transform="translate(25.277 104.528)"><path class="bb" d="M1831.626,2038.607h-79.708a4.054,4.054,0,0,0-4.054,4.054h0a4.053,4.053,0,0,0,4.054,4.053h79.708a4.053,4.053,0,0,0,4.053-4.053h0A4.054,4.054,0,0,0,1831.626,2038.607Z" transform="translate(-1747.865 -2038.607)"/></g></g></g><g transform="translate(1127.754 615.337)"><g transform="translate(2.248 0)"><rect class="bb" width="175.837" height="8.175" rx="4.087"/></g><g transform="translate(142.471 8.175)"><path class="e" d="M3225.867,1841.149l25.546,127.214c1.036,5.157,5.225,8.833,10.067,8.833h0l-21.954-136.046Z" transform="translate(-3225.867 -1841.149)"/></g><g transform="translate(0 8.175)"><path class="e" d="M2425.066,1977.2h0c4.842,0,9.032-3.675,10.067-8.833l25.546-127.214h-13.66Z" transform="translate(-2425.066 -1841.149)"/></g></g></g></svg>