<svg xmlns="http://www.w3.org/2000/svg" width="819.21" height="99.969" viewBox="0 0 819.21 99.969"><defs><style>.a{fill:#757171;opacity:0.03;}</style></defs><path class="a" d="M-295.889-98.982V0H-320V-59.361L-342.137,0h-19.458l-22.278-59.5V0h-24.111V-98.982H-379.5l27.777,68.526,27.495-68.526Zm109.275,0-34.263,66.27V0h-24.111V-32.712l-34.263-66.27H-251.9l19.176,41.454,19.035-41.454Zm102.507,0V0h-24.111V-40.749h-37.506V0h-24.111V-98.982h24.111v38.775h37.506V-98.982Zm48.081,0v59.22q0,8.883,4.371,13.677t12.831,4.794q8.46,0,12.972-4.794T-1.34-39.762v-59.22H22.771V-39.9q0,13.254-5.64,22.419A36.114,36.114,0,0,1,1.974-3.666,47.668,47.668,0,0,1-19.247.987,46.48,46.48,0,0,1-40.185-3.6,34.163,34.163,0,0,1-54.779-17.413q-5.358-9.236-5.358-22.49V-98.982ZM135.29,0H111.179L70.853-61.053V0H46.742V-98.982H70.853l40.326,61.335V-98.982H135.29Zm95.739-98.982v19.317H204.8V0H180.692V-79.665H154.466V-98.982Zm43.287,19.317v20.022H306.6v18.612H274.316v21.714h36.519V0H250.2V-98.982h60.63v19.317ZM384.014,0,363.428-37.365h-5.781V0H333.536V-98.982H374q11.7,0,19.952,4.089a28.166,28.166,0,0,1,12.337,11.21,31.279,31.279,0,0,1,4.089,15.862A29.462,29.462,0,0,1,404.811-50.2q-5.57,7.755-16.427,11L411.227,0ZM357.647-54.426h14.946q6.627,0,9.94-3.243t3.314-9.165q0-5.64-3.314-8.883t-9.94-3.243H357.647Z" transform="translate(407.984 98.982)"/></svg>