<svg xmlns="http://www.w3.org/2000/svg" width="15.395" height="15.427" viewBox="0 0 15.395 15.427"><defs><style>.a{fill:#eb6874;}</style></defs><g transform="translate(-0.539)"><g transform="translate(0.539 0)"><path class="a" d="M15.53,11.322,13.377,9.169a1.432,1.432,0,0,0-2.384.538A1.465,1.465,0,0,1,9.3,10.63a6.639,6.639,0,0,1-4-4A1.394,1.394,0,0,1,6.227,4.94a1.432,1.432,0,0,0,.538-2.384L4.612.4A1.536,1.536,0,0,0,2.536.4L1.075,1.865C-.386,3.4,1.229,7.478,4.843,11.091s7.689,5.305,9.227,3.768L15.53,13.4A1.536,1.536,0,0,0,15.53,11.322Z" transform="translate(-0.539 0)"/></g></g></svg>