<svg xmlns="http://www.w3.org/2000/svg" width="68.851" height="93.306" viewBox="0 0 68.851 93.306"><defs><style>.a{opacity:0.62;}.b{fill:#fff;}.c{fill:#f95f35;}.d{fill:#db3737;}.e{fill:#ba1717;}.f{fill:#5e1212;}.g{fill:#420000;}.h{fill:#f17c5b;}.i{fill:#d04719;}.j{fill:#17594b;}.k{fill:#091e0b;}.l{fill:#ffbd58;}.m{opacity:0.64;}.n{fill:#ffe3c2;}.o{opacity:0.28;}.p{fill:#d30015;}</style></defs><g transform="translate(62.445 20.114)"><g class="a" transform="translate(0.484 0.482)"><circle class="b" cx="2.719" cy="2.719" r="2.719"/></g><path class="c" d="M5159.633,623.789q-.077-.03-.152-.065Q5159.556,623.759,5159.633,623.789Z" transform="translate(-5157.605 -617.609)"/><path class="d" d="M5157.406,622.272l-.075.183-.11.27-.6,1.471-.1.251-.442,1.078-.062.148-.057.138a.338.338,0,0,0,0,.259.419.419,0,0,0,.032.06.332.332,0,0,0,.152.123.338.338,0,0,0,.229.01.346.346,0,0,0,.126-.072.349.349,0,0,0,.045-.049l0,0a.315.315,0,0,0,.039-.071l.607-1.481.127-.311.606-1.479.109-.266q-.131-.039-.259-.09c-.051-.02-.1-.042-.152-.065Q5157.51,622.329,5157.406,622.272Z" transform="translate(-5155.742 -616.263)"/><path class="e" d="M5154.174,615.9c-.005,0-.075.112-.163.252a3.21,3.21,0,0,0,.337.214l-.075.183-.111.27c.234.029.5.06.7.073l.109-.266c.046.014.093.027.14.038A2.238,2.238,0,0,0,5154.174,615.9Z" transform="translate(-5152.686 -610.354)"/><path class="d" d="M5104.71,540.663a3.2,3.2,0,0,1,.648,4.391c-.024.034-.049.068-.075.1a3.185,3.185,0,0,1-1.575,1.095,3.222,3.222,0,0,1-1.733.052c-.047-.012-.094-.024-.14-.038q-.131-.039-.259-.09c-.052-.02-.1-.042-.153-.065-.071-.033-.143-.068-.212-.106a3.193,3.193,0,0,1-.337-.214c-.028-.02-.056-.041-.083-.062a3.2,3.2,0,1,1,3.919-5.065Zm-3.934,1a2.5,2.5,0,0,0,.151,3.234,2.544,2.544,0,0,0,.3.268,2.5,2.5,0,0,0,3.487-.428l.015-.019a2.5,2.5,0,0,0-3.948-3.055Z" transform="translate(-5099.548 -539.995)"/></g><path class="f" d="M5344.477,455.2s-.665,1.748-4.021,1.224-11.326,1.189-12.271,5.209,4.439,7.446,6.433,7.132,14.473-9.159,14.577-9.4S5344.477,455.2,5344.477,455.2Z" transform="translate(-5297.037 -441.283)"/><path class="g" d="M5340.433,348.467s-2.519,3.757-.955,7.8,2.084,4.649,2.084,4.649,2.925-3.95,1.806-7.726S5340.433,348.467,5340.433,348.467Z" transform="translate(-5292.259 -342.341)"/><path class="g" d="M5162.57,278.49s1.294-3.041-5.139-4.51-11.4,2.255-13.633,6.791Z" transform="translate(-5097.059 -272.994)"/><path class="f" d="M5126.838,396.52s1.7,1.534.246,4.5a6.208,6.208,0,0,1-4.454,3.351S5124.757,396.883,5126.838,396.52Z" transform="translate(-5060.505 -386.885)"/><path class="h" d="M5305.335,466.526s5.149,7.191,6.233,4.571a10.244,10.244,0,0,0,.537-1.908,5.66,5.66,0,0,1,.8-.855,8.782,8.782,0,0,1,1.468-1.041s-2.846-9.486-3.794-5.376a5.613,5.613,0,0,1-2.151,3.322A7.1,7.1,0,0,1,5305.335,466.526Z" transform="translate(-5260.549 -446.549)"/><path class="i" d="M5305.335,465.24c.945,1.554,3.166,2.6,4.478,3.094a8.782,8.782,0,0,1,1.468-1.041s-2.846-9.486-3.794-5.376A5.613,5.613,0,0,1,5305.335,465.24Z" transform="translate(-5257.46 -446.549)"/><path class="h" d="M5765.264,959.146a81.684,81.684,0,0,0,3.093-10.124c.054-.266.113-.561.175-.881.937-4.857,2.611-15.419,2.438-16.939-.184-1.62-1.951-5.007-3.056-5.155a7.2,7.2,0,0,0-5.6,1.662s-.326.228-.557,1.282a15.189,15.189,0,0,0-.179,3.977c.257,4.566.037,24.042-.258,25.809S5765.264,959.146,5765.264,959.146Z" transform="translate(-5750.465 -877.692)"/><path class="i" d="M5761.311,928.993a3.527,3.527,0,0,1,3.6-1.062c2.682.7,3.493,15.162,3.174,20.206v0c.937-4.857,2.611-15.419,2.438-16.939-.184-1.62-1.951-5.007-3.056-5.155a7.2,7.2,0,0,0-5.6,1.662S5761.542,927.938,5761.311,928.993Z" transform="translate(-5750.014 -877.692)"/><path class="j" d="M5274.445,856.927a4.233,4.233,0,0,1,4.307-.483c2.393,1.1,1.546,4.639,4.75,6.112s17.562,2.5,20.434,1.952c2.26-.435,9.243-.528,12.508-1.481.883-.258,1.494-.578,1.666-.986.81-1.914,1.179-1.767-2.062-4.124a32.194,32.194,0,0,0-8.909-4.2c-.578-.058-7.732-1.583-9.794-2.1s-8.9-3.189-10.655-1.337c0,0-.386.166-1.021.448C5282.857,851.979,5275.168,855.49,5274.445,856.927Z" transform="translate(-5262.591 -806.91)"/><path class="k" d="M5274.445,850.733a6.069,6.069,0,0,1,4.344,1.832c2.16,2.03,11.935,6.154,16.867,6.677,3.169.336,7.135,2.372,9.564,3.783.883-.258,1.494-.578,1.666-.986.81-1.914,1.179-1.767-2.062-4.124a32.194,32.194,0,0,0-8.909-4.2c-.578-.058-7.732-1.583-9.794-2.1s-8.9-3.189-10.655-1.337C5275.467,850.285,5275.081,850.451,5274.445,850.733Z" transform="translate(-5251.369 -806.91)"/><path class="h" d="M5248.312,1001.354s25,2.453,31.116-.521c.752-.365,1.22-.812,1.32-1.356l-.994-2.467s-1.417-2.4-5.6-2.361a11.805,11.805,0,0,0-1.245.079c-5.154.589-23.673,3.129-23.857,3.129A23.672,23.672,0,0,0,5248.312,1001.354Z" transform="translate(-5222.762 -941.328)"/><path class="i" d="M5248.311,994.649a33.258,33.258,0,0,1,5.277,6.185c.752-.365,1.22-.812,1.32-1.356l-.994-2.467S5252.5,994.608,5248.311,994.649Z" transform="translate(-5196.922 -941.328)"/><path class="l" d="M5612.981,1021.351a6.163,6.163,0,0,0,1.878.188c.178-.008.381-.015.607-.023,1.485-.05,4.624-.595,7.383-.7,2.74-.1,5.1.234,5.105-.259,0,0-1.542-1.219-1.138-2.7a3.015,3.015,0,0,1,1.99-1.913s-4.655-.005-5.687-.042c-.87-.031-3.437-1.076-6.5-.987h0a11.869,11.869,0,0,0-1.581.141,9.72,9.72,0,0,0-.968.208,3.849,3.849,0,0,0-3.192,3.436C5610.644,1019.984,5611.525,1020.956,5612.981,1021.351Z" transform="translate(-5597.3 -960.113)"/><path class="b" d="M5779.786,1021.419s-1.513-.8-.993-3.273c.515-2.448,4.572-3.148,4.636-3.159a11.842,11.842,0,0,0-1.581.14c-3.092.515-3.829,1.877-4.16,3.644C5777.449,1020.052,5778.33,1021.024,5779.786,1021.419Z" transform="translate(-5764.105 -960.181)"/><path class="b" d="M5779.43,1025.846a6.155,6.155,0,0,0,1.879.188c.177-.008.38-.015.606-.023a5.027,5.027,0,0,0,1.157-2.778,3.156,3.156,0,0,0-1.537-3.4s-.411-.048-1.011-.072a3.85,3.85,0,0,0-3.193,3.436C5777.092,1024.479,5777.974,1025.451,5779.43,1025.846Z" transform="translate(-5763.749 -964.608)"/><path class="l" d="M5808.025,1321.264a9.609,9.609,0,0,0,4.672-.984,30.349,30.349,0,0,0,6.676-3.728c2.157-1.759,2.457-1.195,2.323-3.783s-.067-3.816.7-5.143,1.432-3.013.169-2.319a6.558,6.558,0,0,1-5.463-.3s-.313-.364-.413.531-.73,3.983-2.024,5.177c-1.093,1.009-4.551,4.241-6.541,5.862-.366.3-.683.543-.926.708C5805.636,1318.345,5805.371,1320.734,5808.025,1321.264Z" transform="translate(-5806.015 -1228.95)"/><path class="b" d="M5843.211,1424.973s-5.508,4.944-10.021,6.3-5.644-.527-5.644-.527a2.386,2.386,0,0,0,2.027,2.75c2.356.332,9.657-2.289,13.638-6.835Z" transform="translate(-5827.53 -1340.223)"/><path class="b" d="M5949.05,1469.033a9.613,9.613,0,0,0,4.673-.983c.135-.193.205-.311.205-.311s.989-3.208-4.781-3.4h0c-.366.3-.683.543-.925.708C5946.66,1466.114,5946.4,1468.5,5949.05,1469.033Z" transform="translate(-5947.04 -1376.719)"/><path class="h" d="M5133.159,636.65s1.348-2.154,1.537-2.64.162-2.589,1.186-3.8,2.722-.35,3.612-.162.431,1.536,1.779,2.48-1.078.97-1.078.97a.8.8,0,0,1,.188.782c-.108.539-.512.935-.754.831a1.035,1.035,0,0,1-.243,1c-.431.458-.593.35-.593.35s.054.714-.431.855a3.178,3.178,0,0,1-1.213,0,5.416,5.416,0,0,1-1.045,1.25c-.383.212-2.189,1.422-2.647.83S5133.159,636.65,5133.159,636.65Z" transform="translate(-5075.281 -602.917)"/><path class="h" d="M5135.306,354.541c.043,1.069.733,4.285,2.724,5.659a3.752,3.752,0,0,0,.348.213,10.841,10.841,0,0,0,7.77.813,5.5,5.5,0,0,0,3.478-4.065c.271-1.084,1.582-2.891,2.62-5.195.007-.017.015-.033.021-.05a3.2,3.2,0,0,0-.834-3.744s-5.556-3.207-7.5-3.071-9.26,1.762-9.8,3.071S5135.261,353.411,5135.306,354.541Z" transform="translate(-5086.228 -339.217)"/><g class="m" transform="translate(47.795 5.879)"><path class="i" d="M5135.306,354.541c.043,1.069.733,4.285,2.724,5.659-2.7-3.759-.953-8.751,3.32-8.435,5.482.4,7-1.435,9.791-2.1,1.081-.258,1.283.827,1.126,2.254a3.2,3.2,0,0,0-.834-3.744s-5.556-3.207-7.5-3.071-9.26,1.762-9.8,3.071S5135.261,353.411,5135.306,354.541Z" transform="translate(-5134.023 -345.096)"/></g><path class="h" d="M5141.869,968.591s5.536,3.928,6.015,4.439a27.615,27.615,0,0,1,2.4,5.174c.089.607-.517.447-.517.447s.415.543.063.894-.831,0-.831,0a.9.9,0,0,1-.223.926c-.416.351-1.31-.83-2.364-1.884s-1.437-1.469-1.437-1.022,1.118,2.4.958,2.715-2.4-2.2-2.907-3.13-2.792-3.69-3.1-4.823-1.916-2.057-1.916-2.057S5139.654,967.538,5141.869,968.591Z" transform="translate(-5084.254 -916.95)"/><path class="i" d="M5209.022,548.229a2.687,2.687,0,0,1,2.529.362c1.445.9,9.124,5.691,15.222,6.143,1.633.121,2.817.154,3.676.139,2.352-.043,2.269-.455,2.269-.455s5.98,4.969,6.568,5.15c0,0,1.491-3.117,3.252-3.071,0,0,.451-.136-.813-1.311s-7.5-8.176-7.5-8.176a7.6,7.6,0,0,1,1.581-1.265s.9,2.891,3.523,3.433,6.867-8.673,6.414-8.673-2.529-.452-2.71-2.259c0,0,.091-.633-.677.226a10.3,10.3,0,0,0-1.22,1.672s0-7.453-.5-9.035-3.749-4.066-4.16-3.615c0,0-.4,2.351-1.893,1.583s-4.728-4.412-2.454-5.1c0,0,.06-.1-3.192-.188s-6.459.633-7.9,3.207-3.072,12.015-5.556,15.222S5209.2,547.371,5209.022,548.229Z" transform="translate(-5184.924 -504.855)"/><path class="f" d="M5303.936,700.115a4.994,4.994,0,0,0,1.853-2.891c.43-2.353.857-7.408,1.084-6.866a43.083,43.083,0,0,1-.227,7.9c-.271.994-2.266,2.83-2.266,2.83A4.26,4.26,0,0,1,5303.936,700.115Z" transform="translate(-5253.051 -659.224)"/><path class="f" d="M5387.829,705.373s1.252,9.646,2.614,12.628c.8,1.757,3.561,3.808,5.691,5.2,2.352-.043,2.27-.455,2.27-.455s-4.5-2.9-6.3-5.257S5387.829,705.373,5387.829,705.373Z" transform="translate(-5350.61 -673.18)"/><path class="f" d="M5361.77,644.925a21.814,21.814,0,0,1-1.811-2.267c-.552-.884-2.5-7.732-3.461-12.26s3.056,7.916,4.16,10.53a9.244,9.244,0,0,0,1.9,3.269Z" transform="translate(-5312.467 -602.77)"/><path class="i" d="M5157.96,662.644a2.553,2.553,0,0,1-1.293-.4c-.351-.35-1.833-1.159-2.264-.62a.792.792,0,0,0,0,1.024s-.809.081-.62.809a1.648,1.648,0,0,0,.647,1,.841.841,0,0,0-.526.755,1.359,1.359,0,0,0,1.012,1.26l-.221.327s-1.073-.562-1.181-1.128.188-1.419,0-1.949.321-1.123.39-1.474.068-1.132.634-1.213a3.947,3.947,0,0,1,2.506.97C5157.688,662.615,5157.96,662.644,5157.96,662.644Z" transform="translate(-5093.048 -632.064)"/><path d="M5289.917,364.064s-1.958,1.014-2.377,1.923.721-2.717-1.329-3.5,2.8-2.657,3.706-1.433S5289.917,364.064,5289.917,364.064Z" transform="translate(-5235.067 -353.639)"/><path class="g" d="M5140.268,328.85a1.162,1.162,0,0,0-.845-.585,2.872,2.872,0,0,0-2.157.8c-1.153,1.154-9.173,2.73-10.677-.915.175-2.251,2.849-4.527,3.741-5.292C5131.169,322.133,5144.157,325.652,5140.268,328.85Z" transform="translate(-5074.117 -318.511)"/><path class="g" d="M5369.269,362.217a3.5,3.5,0,0,0-.677,2.616,22.9,22.9,0,0,1,.451,3.786s-1.779-3.185-1.849-4.374.211-3.639.944-3.934S5369.269,362.217,5369.269,362.217Z" transform="translate(-5319.965 -353.295)"/><path class="f" d="M5151.189,306.3s-2.8-2.281-8.742.62a12.8,12.8,0,0,1-11.326-.21s5.1-5.335,12.407-5.51S5152.108,304.971,5151.189,306.3Z" transform="translate(-5084.905 -298.521)"/><path class="i" d="M5340.278,407.888a1.423,1.423,0,0,1,.25,1.006,1.16,1.16,0,0,1-.1.493.643.643,0,0,1-.953.183,1.089,1.089,0,0,1-.232-.356c-.187-.4-.375-1.021-.04-1.41A.744.744,0,0,1,5340.278,407.888Z" transform="translate(-5289.17 -397.162)"/><g transform="translate(61.071 30.322)"><path class="i" d="M5163.369,681.642a11.853,11.853,0,0,1-1.709-.782c-.272-.149-.543-.3-.8-.472a5.513,5.513,0,0,1-.774-.547c-.043-.04.012-.106.062-.079.271.146.523.339.786.5s.531.324.8.475c.544.3,1.106.564,1.672.823.045.021.013.1-.034.081Z" transform="translate(-5160.065 -679.756)"/></g><g transform="translate(61.289 32.307)"><path class="i" d="M5175.4,708.155a2.125,2.125,0,0,1-.556-.2q-.278-.126-.548-.27c-.175-.093-.346-.194-.514-.3a2.646,2.646,0,0,1-.494-.357.053.053,0,0,1,.064-.084,5.27,5.27,0,0,1,.5.312c.168.1.34.2.514.3s.34.181.514.264a3.611,3.611,0,0,1,.546.267.04.04,0,0,1-.03.072Z" transform="translate(-5173.266 -706.935)"/></g><g transform="translate(65.207 29.487)"><path class="i" d="M5138.337,669.167a.722.722,0,0,1-.558-.22.971.971,0,0,1-.188-.267,1.512,1.512,0,0,1-.063-.15c-.009-.026-.018-.051-.026-.077a.194.194,0,0,1,0-.093.035.035,0,0,1,.064-.017.243.243,0,0,1,.042.068c.007.022.013.044.02.065a1.408,1.408,0,0,0,.052.14,1.068,1.068,0,0,0,.159.258.629.629,0,0,0,.5.234c.04,0,.039.058,0,.061Z" transform="translate(-5137.494 -668.325)"/></g><g transform="translate(62.876 57.761)"><path class="i" d="M5145.685,1059.459a6.98,6.98,0,0,1-.589-.695q-.286-.371-.555-.754c-.363-.517-.7-1.049-1.038-1.583l-.285-.45a2.563,2.563,0,0,1-.262-.459c-.02-.052.055-.09.091-.053a2.219,2.219,0,0,1,.263.376l.247.39c.17.269.34.539.512.806.336.521.68,1.036,1.051,1.533.209.28.433.55.631.837.027.039-.033.083-.065.05Z" transform="translate(-5142.953 -1055.451)"/></g><g transform="translate(61.357 59.138)"><path class="i" d="M5158,1077.813a9.1,9.1,0,0,1-.685-.615c-.229-.217-.454-.437-.678-.659-.447-.443-.89-.892-1.322-1.349-.25-.264-.5-.525-.722-.812a.042.042,0,0,1,.06-.06c.463.425.879.9,1.318,1.353s.879.886,1.323,1.324c.253.249.519.489.753.756.027.031-.01.09-.048.062Z" transform="translate(-5154.588 -1074.306)"/></g><g transform="translate(62.951 56.313)"><path class="i" d="M5175.086,1035.706l-.133.108a1.39,1.39,0,0,1-.144.109c-.029.018-.063.044-.1.024a.046.046,0,0,1-.02-.051.086.086,0,0,1,.031-.046,1.4,1.4,0,0,1,.141-.112l.16-.114a.052.052,0,0,1,.067.014.051.051,0,0,1,0,.068Z" transform="translate(-5174.689 -1035.616)"/></g><g transform="translate(62.867 56.23)"><path class="i" d="M5178.947,1034.542l-.064.1-.033.047-.017.024a.068.068,0,0,1-.019.02l-.012.007c-.02.01-.052,0-.049-.028a.081.081,0,0,1,.011-.038l.017-.025.032-.047.067-.1a.04.04,0,0,1,.053-.014.039.039,0,0,1,.014.053Z" transform="translate(-5178.753 -1034.484)"/></g><g transform="translate(61.564 58.102)"><path class="i" d="M5196.466,1060.19a.712.712,0,0,1-.062.068c-.011.011-.021.021-.033.031a.279.279,0,0,1-.045.034.048.048,0,0,1-.047,0,.047.047,0,0,1-.009-.073.385.385,0,0,1,.032-.026l-.009.007a.781.781,0,0,0,.111-.1.045.045,0,0,1,.063,0,.046.046,0,0,1,.013.032.049.049,0,0,1-.013.032Z" transform="translate(-5196.255 -1060.113)"/></g><g transform="translate(59.75 60.348)"><path class="i" d="M5220.409,1090.966l-.1.076-.046.037a.317.317,0,0,1-.034.026l-.013.007a.068.068,0,0,1-.048.006.055.055,0,0,1-.04-.052.072.072,0,0,1,.017-.043l.011-.01a.289.289,0,0,1,.034-.026l.05-.035.1-.071a.054.054,0,0,1,.042-.005.055.055,0,0,1,.028.019.052.052,0,0,1,0,.071Z" transform="translate(-5220.132 -1090.874)"/></g><g transform="translate(51.952 52.956)"><path class="k" d="M5293.488,990.655c-.163.227-.113.581-.387.736a.375.375,0,0,1-.379-.029,3.865,3.865,0,0,1-.435-.272,4.03,4.03,0,0,1-.394-.3c-.138-.126-.3-.221-.439-.349-.278-.26-.631-.44-.9-.715a.039.039,0,0,1,.048-.061,3.8,3.8,0,0,1,.415.305c.132.1.257.214.387.319.066.054.142.091.208.144s.133.1.2.156c.129.106.27.2.4.3s.262.185.4.27c.12.075.285.21.431.132a.548.548,0,0,0,.218-.331.989.989,0,0,1,.178-.343c.023-.027.07.009.049.038Z" transform="translate(-5290.544 -989.659)"/></g><g transform="translate(40.19 20.44)"><path class="n" d="M5449.884,544.461a1.745,1.745,0,0,1,.81.559,9.388,9.388,0,0,1,.688.8,10.114,10.114,0,0,1,1.1,1.77,4.447,4.447,0,0,1,.407,1.109c.008.046-.055.081-.08.034-.158-.293-.282-.606-.423-.908s-.3-.6-.47-.891a10.662,10.662,0,0,0-1.193-1.631,2.168,2.168,0,0,0-.869-.721.062.062,0,0,1,.032-.119Z" transform="translate(-5449.808 -544.459)"/></g><g transform="translate(43.373 25.304)"><path class="n" d="M5444.878,611.092a3.612,3.612,0,0,0,.082.352c.017.058.034.116.053.173a.775.775,0,0,1,.02.088.3.3,0,0,1,.014.085.031.031,0,0,1-.053.022.312.312,0,0,1-.044-.072.57.57,0,0,1-.039-.081c-.021-.059-.038-.119-.054-.18a3.627,3.627,0,0,1-.072-.361.05.05,0,0,1,.034-.059.048.048,0,0,1,.059.034Z" transform="translate(-5444.785 -611.057)"/></g><g transform="translate(39.67 20.92)"><path class="n" d="M5485.979,551.8a2.167,2.167,0,0,0-.425-.416,2,2,0,0,0-.248-.152c-.045-.023-.091-.041-.136-.063a.4.4,0,0,1-.13-.075.042.042,0,0,1,.018-.07.314.314,0,0,1,.154.027.98.98,0,0,1,.138.062,1.859,1.859,0,0,1,.271.171,1.682,1.682,0,0,1,.428.461c.026.043-.038.1-.07.055Z" transform="translate(-5485.029 -551.025)"/></g><g transform="translate(54.807 35.12)"><path class="f" d="M5271.252,745.514c-.269.68-.572,1.344-.822,2.033q-.187.516-.351,1.04c-.109.349-.2.707-.32,1.051a.064.064,0,0,1-.123-.034,7.081,7.081,0,0,1,.22-.829q.126-.41.266-.816c.188-.541.394-1.076.623-1.6.131-.3.265-.6.424-.879.024-.044.1-.014.083.035Z" transform="translate(-5269.634 -745.457)"/></g><g transform="translate(54.606 39.75)"><path class="f" d="M5291.823,809.271a.976.976,0,0,0,.071-.2c.008-.034.014-.068.023-.1a.48.48,0,0,1,.025-.109.038.038,0,0,1,.065,0,.129.129,0,0,1,.011.063c0,.02,0,.039,0,.059a.523.523,0,0,1-.02.116,1.141,1.141,0,0,1-.084.221.051.051,0,1,1-.088-.051Z" transform="translate(-5291.816 -808.845)"/></g><g transform="translate(46.943 22.647)"><path class="f" d="M5350.563,577.242a1.856,1.856,0,0,1-1.75-.28,7.284,7.284,0,0,1-1.416-1.329,4.6,4.6,0,0,1-.664-.9c-.018-.036.028-.077.058-.045.213.228.39.491.59.73s.415.472.636.695a3.881,3.881,0,0,0,1.476,1.051,1.61,1.61,0,0,0,1.037,0c.044-.016.076.057.032.076Z" transform="translate(-5346.729 -574.674)"/></g><g transform="translate(46.392 21.324)"><path class="f" d="M5403.545,557.321a1.093,1.093,0,0,1-.157-.358,1.55,1.55,0,0,1-.042-.188c0-.033-.008-.066-.01-.1a.257.257,0,0,1,0-.051.177.177,0,0,1,.017-.044c.012-.027.05-.021.063,0a.458.458,0,0,1,.05.181c.01.059.022.118.036.177s.03.116.047.174.042.121.055.184a.033.033,0,0,1-.059.025Z" transform="translate(-5403.334 -556.563)"/></g><g transform="translate(29.581 57.085)"><path class="i" d="M5622.754,1046.266a1.7,1.7,0,0,0-.211,1.6,4.542,4.542,0,0,0,.375.83c.072.129.145.258.227.38.04.06.077.122.12.18s.095.106.134.165c.026.039-.024.079-.06.06a.972.972,0,0,1-.322-.33c-.087-.132-.163-.272-.238-.411a4.258,4.258,0,0,1-.381-.9,1.745,1.745,0,0,1,.295-1.635c.038-.042.1.019.062.061Z" transform="translate(-5622.318 -1046.19)"/></g><g transform="translate(27.216 56.927)"><path class="i" d="M5659.588,1044.084h0l.089-.037a.277.277,0,0,1,.147-.007.183.183,0,0,1,.094.025.276.276,0,0,1,.119.077l.059.075.037.089a.415.415,0,0,1-.037.286h0a.371.371,0,0,1-.32.184l-.1-.013a.368.368,0,0,1-.164-.1.281.281,0,0,1-.077-.12.273.273,0,0,1-.032-.143.368.368,0,0,1,.184-.321Z" transform="translate(-5659.403 -1044.033)"/></g><g transform="translate(25.281 56.908)"><path class="i" d="M5688.3,1044.375a.306.306,0,0,1,0-.612.306.306,0,0,1,0,.612Z" transform="translate(-5688.01 -1043.763)"/></g><g transform="translate(23.308 56.891)"><path class="i" d="M5715.943,1044.1a.281.281,0,0,1,0-.562.281.281,0,0,1,0,.563Z" transform="translate(-5715.672 -1043.542)"/></g><g transform="translate(21.548 56.795)"><path class="i" d="M5738.611,1042.835l-.006,0-.063-.049a.355.355,0,0,1-.05-.065.161.161,0,0,1-.017-.04.1.1,0,0,1-.017-.042.061.061,0,0,1,0-.013.32.32,0,0,1,.082-.311l.064-.05a.323.323,0,0,1,.162-.044.354.354,0,0,1,.226.094.317.317,0,0,1,.083.141.324.324,0,0,1,0,.17.236.236,0,0,1-.036.1.174.174,0,0,1-.026.033.236.236,0,0,1-.088.081l-.006,0a.3.3,0,0,1-.306,0Z" transform="translate(-5738.444 -1042.216)"/></g><g transform="translate(27.308 59.736)"><path class="i" d="M5660,1083.143a.327.327,0,0,1,0-.654.327.327,0,0,1,0,.654Z" transform="translate(-5659.682 -1082.489)"/></g><g transform="translate(25.212 59.7)"><path class="i" d="M5688.365,1082.623l-.02,0-.075-.032a.233.233,0,0,1-.087-.081.149.149,0,0,1-.04-.069.234.234,0,0,1-.027-.121l.011-.083.032-.075a.236.236,0,0,1,.08-.088.238.238,0,0,1,.107-.056l.02,0a.316.316,0,0,1,.308.081l.049.064a.307.307,0,0,1,.043.16.348.348,0,0,1-.092.224.316.316,0,0,1-.308.081Z" transform="translate(-5688.115 -1082.001)"/></g><g transform="translate(23.411 59.715)"><path class="i" d="M5712.832,1082.9a.348.348,0,0,1,0-.7.348.348,0,0,1,0,.7Z" transform="translate(-5712.496 -1082.2)"/></g><g transform="translate(21.198 59.859)"><path class="i" d="M5741.627,1084.659l0-.008a.392.392,0,0,1,0-.2.386.386,0,0,1,.1-.167h0a.287.287,0,0,1,.122-.078.284.284,0,0,1,.146-.033l.1.013a.382.382,0,0,1,.167.1h0a.38.38,0,0,1,.1.369l0,.008-.037.09a.293.293,0,0,1-.1.105.186.186,0,0,1-.083.048.281.281,0,0,1-.145.032l-.1-.013-.09-.038a.42.42,0,0,1-.173-.225Z" transform="translate(-5741.611 -1084.17)"/></g><g transform="translate(26.806 57.147)"><path class="b" d="M5662.729,1050.055a1.457,1.457,0,0,1-.881-1.347,4.572,4.572,0,0,1,.066-1.067c.031-.22.109-.622.415-.6a.137.137,0,0,1,.037.267c-.18.065-.175.371-.2.527a3.919,3.919,0,0,0-.052.9,1.561,1.561,0,0,0,.667,1.186.069.069,0,0,1-.054.126Z" transform="translate(-5661.838 -1047.044)"/></g><g transform="translate(24.954 57.071)"><path class="b" d="M5692.084,1046.15a3.94,3.94,0,0,0-.244.631,2.559,2.559,0,0,0-.076.667,2.441,2.441,0,0,0,.1.66,2.341,2.341,0,0,0,.111.3c.051.11.117.211.162.324.053.132-.143.232-.233.136a1.678,1.678,0,0,1-.323-.677,2.7,2.7,0,0,1-.1-.752,2.544,2.544,0,0,1,.11-.734,1.87,1.87,0,0,1,.336-.666c.076-.09.191.025.15.116Z" transform="translate(-5691.487 -1046.001)"/></g><g transform="translate(23.089 57.116)"><path class="b" d="M5716.295,1046.732a3.822,3.822,0,0,0-.152,1.48,3.265,3.265,0,0,0,.152.723,2.972,2.972,0,0,0,.127.325,1.016,1.016,0,0,1,.157.375.147.147,0,0,1-.219.125c-.119-.068-.178-.243-.231-.365a3.526,3.526,0,0,1-.291-1.169,3.13,3.13,0,0,1,.288-1.566c.044-.1.2-.028.169.071Z" transform="translate(-5715.829 -1046.614)"/></g><g transform="translate(21.189 57.044)"><path class="b" d="M5743.144,1045.715a1.879,1.879,0,0,1-.128.4c-.044.128-.085.256-.12.387a3.876,3.876,0,0,0-.127.805,3.85,3.85,0,0,0,.125,1.207.635.635,0,0,0,.056.149c.025.043.061.062.087.105a.139.139,0,0,1-.049.187c-.131.092-.3-.042-.358-.16a1.682,1.682,0,0,1-.12-.434,3.959,3.959,0,0,1-.067-.945,4.189,4.189,0,0,1,.154-.932,3.5,3.5,0,0,1,.16-.444,1.089,1.089,0,0,1,.237-.391c.052-.044.158-.021.15.062Z" transform="translate(-5742.438 -1045.631)"/></g><g transform="translate(12.687 78.545)"><path class="i" d="M5852.961,1340.212l.008,0a.325.325,0,0,1,.166.289.938.938,0,0,1-.1.339,1.271,1.271,0,0,1-.174.247.441.441,0,0,1-.724-.045.637.637,0,0,1,.1-.687.6.6,0,0,1,.614-.22.491.491,0,0,1,.332.659.516.516,0,0,1-.728.256.545.545,0,0,1-.188-.763.561.561,0,0,1,.751-.187.6.6,0,0,1,.232.688.734.734,0,0,1-.571.488.348.348,0,0,1-.422-.422.7.7,0,0,1,.2-.354s.043-.044.045-.044c-.021-.008-.059.14-.049.087s0,.092,0,.04c0-.023,0-.016,0,.021a.178.178,0,0,0,.029.092l.18.139.208-.026.084-.085v-.27q-.5-.278-.459.122-.092.168.062.234c.064.05.085.078.16.07a.169.169,0,0,0,.1-.053c-.031.029-.011.024,0,0-.02.065.008-.024-.007.014q-.007.034,0-.005a.2.2,0,0,0-.067-.2l-.161-.094-.046-.008-.184.049c-.025.026-.028.029-.008.009s.025-.025.036-.038c.066-.068-.02.042.031-.039.037-.06.068-.122.1-.182a.331.331,0,0,1,.289-.166.393.393,0,0,1,.161.042Z" transform="translate(-5852.071 -1340.025)"/></g><g transform="translate(11.794 81.113)"><path class="i" d="M5866.627,1375.248l.011.007.11.085.085.11.055.13.02.145-.02.145-.055.13-.085.11a.413.413,0,0,1-.176.113.271.271,0,0,1-.138.037.538.538,0,0,1-.5-.2.267.267,0,0,1-.07-.12.272.272,0,0,1-.037-.137.412.412,0,0,1,.01-.217l0-.013a.528.528,0,0,1,.137-.236.6.6,0,0,1,.378-.157.534.534,0,0,1,.27.073Z" transform="translate(-5865.817 -1375.175)"/></g><g transform="translate(10.346 83.484)"><path class="i" d="M5887.042,1408.667a.573.573,0,0,1-.362-.15.572.572,0,0,1-.15-.363l.019-.136a.513.513,0,0,1,.132-.226l.1-.08a.511.511,0,0,1,.259-.07.389.389,0,0,1,.2.044.381.381,0,0,1,.164.106.375.375,0,0,1,.106.165.383.383,0,0,1,.044.2l-.019.136a.5.5,0,0,1-.132.226l-.1.08a.511.511,0,0,1-.259.07Z" transform="translate(-5886.529 -1407.642)"/></g><g transform="translate(8.47 84.831)"><path class="i" d="M5912.995,1427.091a.383.383,0,0,1-.194-.043.515.515,0,0,1-.309-.459l.018-.133a.5.5,0,0,1,.129-.222l.1-.078a.5.5,0,0,1,.253-.069.555.555,0,0,1,.355.147.56.56,0,0,1,.147.355l-.019.134a.5.5,0,0,1-.129.222l-.1.079a.5.5,0,0,1-.253.069Z" transform="translate(-5912.492 -1426.086)"/></g><g transform="translate(6.43 86.881)"><path class="i" d="M5944.578,1454.9a.378.378,0,0,1,0-.755.378.378,0,0,1,0,.755Z" transform="translate(-5944.213 -1454.15)"/></g><g transform="translate(9.919 77.865)"><path class="b" d="M5862.06,1332.147a3.663,3.663,0,0,1-2.449.036,1.5,1.5,0,0,1-.86-.64.586.586,0,0,1,.245-.8.267.267,0,0,1,.357.094c.109.189-.09.251-.1.413-.013.273.631.477.82.532a4.432,4.432,0,0,0,1.9.068.155.155,0,0,1,.082.3Z" transform="translate(-5858.683 -1330.71)"/></g><g transform="translate(8.526 79.82)"><path class="b" d="M5870.9,1359.6a5.035,5.035,0,0,1-3.277-.517c-.37-.179-.91-.542-.865-1.017a.689.689,0,0,1,.844-.57.242.242,0,0,1,.105.4c-.041.051-.248.165-.256.212-.02.117.227.263.3.313a3.863,3.863,0,0,0,.905.386,4.884,4.884,0,0,0,2.184.382c.236-.031.278.352.056.41Z" transform="translate(-5866.756 -1357.478)"/></g><g transform="translate(7.136 81.396)"><path class="b" d="M5893.119,1382a6.6,6.6,0,0,1-2.99-.976,1.893,1.893,0,0,1-.749-1.1c-.058-.36.126-.933.58-.876a.246.246,0,0,1,.208.363c-.068.156-.2.245-.171.429a.982.982,0,0,0,.258.469,2.477,2.477,0,0,0,.813.59,15.114,15.114,0,0,0,2.17.668.225.225,0,0,1-.119.434Z" transform="translate(-5889.37 -1379.047)"/></g><g transform="translate(5.298 83.593)"><path class="b" d="M5920.144,1410.862a3.632,3.632,0,0,1-3.4-.24.868.868,0,0,1-.32-1.135.813.813,0,0,1,1.107-.228.17.17,0,0,1-.085.314,1.65,1.65,0,0,0-.486.015c-.3.109-.247.4-.08.593a1.864,1.864,0,0,0,.919.511,5.664,5.664,0,0,0,2.295-.012.094.094,0,0,1,.05.181Z" transform="translate(-5916.313 -1409.129)"/></g><g transform="translate(3.303 85.303)"><path class="b" d="M5949.774,1434.772a6.048,6.048,0,0,1-3.17-.9.832.832,0,0,1-.333-1.051.486.486,0,0,1,.821-.083.189.189,0,0,1-.162.282c-.06,0-.12,0-.18,0a.3.3,0,0,0,.053.422,1.567,1.567,0,0,0,.312.225,4.4,4.4,0,0,0,.917.414,17.854,17.854,0,0,0,1.775.449c.135.03.107.256-.033.244Z" transform="translate(-5946.183 -1432.542)"/></g><g transform="translate(30.219 14.6)"><path class="f" d="M5419.06,464.73c-2.008.907-4.365.52-6.486.352-2.273-.181-4.675-.282-6.788.723a12.334,12.334,0,0,0-1.54.884,8.148,8.148,0,0,1-1.473.94.141.141,0,0,1-.158-.2,4.741,4.741,0,0,1,1.123-.976,12.273,12.273,0,0,1,1.341-.85,9,9,0,0,1,3.094-.988c2.313-.313,4.622.129,6.93.275a9.428,9.428,0,0,0,3.9-.28c.071-.027.122.092.053.124Z" transform="translate(-5402.595 -464.502)"/></g><g transform="translate(29.745 19.045)"><path class="f" d="M5625.258,525.526a1.546,1.546,0,0,0-.372.689,3.274,3.274,0,0,0-.023.725c0,.119-.177.182-.237.064a1.469,1.469,0,0,1,.484-1.625.1.1,0,0,1,.148.148Z" transform="translate(-5624.525 -525.35)"/></g><g transform="translate(57.981 0.94)"><path class="f" d="M5246.74,277.593a.064.064,0,0,1,0-.127.064.064,0,0,1,0,.127Z" transform="translate(-5246.679 -277.466)"/></g><g transform="translate(49.215 0)"><path class="g" d="M5250.359,264.8a12.343,12.343,0,0,0-4.849.922,12.585,12.585,0,0,0-2.2,1.172,24.07,24.07,0,0,0-1.981,1.611.1.1,0,0,1-.136-.136,8.493,8.493,0,0,1,1.9-1.62,12.656,12.656,0,0,1,7.273-2.149.1.1,0,0,1,0,.2Z" transform="translate(-5241.164 -264.596)"/></g><g transform="translate(66.118 10.818)"><path class="g" d="M5114.319,412.8a7.93,7.93,0,0,1-.2,3.041,8.3,8.3,0,0,1-.524,1.4,3.951,3.951,0,0,1-.807,1.242.111.111,0,0,1-.174-.134c.2-.44.5-.831.711-1.266a8.069,8.069,0,0,0,.521-1.378,8.359,8.359,0,0,0,.3-2.9c-.009-.115.164-.11.176,0Z" transform="translate(-5112.603 -412.714)"/></g><g transform="translate(58.416 5.832)"><path class="n" d="M5151.88,345.1a8.352,8.352,0,0,0-3.605-.261,8,8,0,0,0-1.657.432c-.551.209-1.036.569-1.584.769-.116.042-.187-.116-.114-.2a4.1,4.1,0,0,1,1.5-.841,8.11,8.11,0,0,1,1.847-.484,7.659,7.659,0,0,1,3.669.372c.13.047.078.25-.058.21Z" transform="translate(-5144.89 -344.444)"/></g><g transform="translate(56.222 7.466)"><path class="n" d="M5253.292,367.005a6.935,6.935,0,0,1-1.333.482.089.089,0,0,1-.068-.161,6.96,6.96,0,0,1,1.353-.495c.111-.038.154.133.048.174Z" transform="translate(-5251.847 -366.826)"/></g><g transform="translate(62.163 16.69)"><path class="g" d="M5182.3,493.338c-.055.158-.112.316-.165.474s-.088.326-.243.4a.167.167,0,0,1-.222-.058.519.519,0,0,1,.034-.492,2.117,2.117,0,0,1,.262-.466c.113-.151.408-.073.334.141Z" transform="translate(-5181.615 -493.119)"/></g><g transform="translate(57.163 14.62)"><path class="g" d="M5247.1,465.165l-.012-.041.087.114-.019,0,.294-.167a2.467,2.467,0,0,1-.235.377,2.461,2.461,0,0,0-.178.379.27.27,0,0,1-.52-.143,1.289,1.289,0,0,1,.638-.907.241.241,0,0,1,.294.167.457.457,0,0,1,.007.174.183.183,0,0,1-.358.049Z" transform="translate(-5246.511 -464.764)"/></g><g transform="translate(63.309 14.157)"><path class="g" d="M5162.4,459.927a2.041,2.041,0,0,0-.22-.759,6.477,6.477,0,0,0-.489-.563c-.069-.091.044-.192.134-.175a1.383,1.383,0,0,1,.831,1.5.134.134,0,0,1-.257,0Z" transform="translate(-5161.669 -458.428)"/></g><g transform="translate(58.162 12.401)"><path class="g" d="M5223.609,434.755c-.52-.256-.975.054-1.494.081a.13.13,0,0,1-.065-.241,1.659,1.659,0,0,1,1.645.015.084.084,0,0,1-.085.145Z" transform="translate(-5221.989 -434.384)"/></g><g transform="translate(58.413 17.304)"><path class="i" d="M5216.311,501.6c0,.5.138,1.147-.475,1.339a1.819,1.819,0,0,1-1.539-.492.12.12,0,0,1,.116-.2,8.767,8.767,0,0,0,.982.407.52.52,0,0,0,.679-.322,4.192,4.192,0,0,0,.06-.733c.013-.11.177-.116.177,0Z" transform="translate(-5214.264 -501.52)"/></g><g transform="translate(57.007 19.467)"><path class="i" d="M5246.941,531.42a1.284,1.284,0,0,1-.925.435c-.173,0-.275-.27-.1-.352.134-.061.275-.1.412-.153s.265-.138.4-.2a.171.171,0,0,1,.206.267Z" transform="translate(-5245.827 -531.134)"/></g><g class="o" transform="translate(54.489 15.019)"><path class="p" d="M5267.384,470.726a1.089,1.089,0,0,1,.948.583c.262.505-.218.829-.689.755a1.317,1.317,0,0,1-.952-.754.707.707,0,0,1-.056-.6.817.817,0,0,1,.5-.382,1.242,1.242,0,0,1,1.235.314,1.093,1.093,0,0,1,.066,1.276c-.6.871-2.053-.113-2-.968.041-.636.765-.831,1.28-.654a1.022,1.022,0,0,1,.418,1.384.352.352,0,0,1-.6,0c-.031-.045-.242-.661-.162-.673-.074.011.214.077-.033.06-.226-.015.005.036-.064-.045a2.207,2.207,0,0,0,.269.275.431.431,0,0,0,.193.115c.057,0,.012.043.033-.025a.2.2,0,0,0-.1-.258.549.549,0,0,0-.216-.048c-.033,0-.175.035-.18.032l.072-.154a.39.39,0,0,0,.053.12.645.645,0,0,0,.13.162.575.575,0,0,0,.16.107.381.381,0,0,0,.128.029c.063-.017.069-.015.017.007l-.1.243c0-.187-.255-.355-.411-.4-.263-.081-.227-.51.067-.5Z" transform="translate(-5266.432 -470.231)"/></g><g class="o" transform="translate(61.339 18.356)"><path class="p" d="M5178.733,516.707a.458.458,0,0,1,.143-.673c.337-.168.623.1.825.339a.578.578,0,0,1-.056.914.845.845,0,0,1-1-.2c-.257-.23-.475-.641-.244-.959s.636-.214.934-.1.73.331.728.722c0,.407-.418.554-.761.515a.33.33,0,0,1-.282-.491.475.475,0,0,1,.262-.209.992.992,0,0,1,.1-.031c.118-.026.015-.054-.032.047l-.052.192c0,.1.081.123-.042.048a1.464,1.464,0,0,0-.181-.1,1.279,1.279,0,0,1-.168-.056c-.093-.058-.08.058.04-.062l.094-.162c.011-.026-.024-.038.034.041a.55.55,0,0,0,.078.085c.029.026.066.042.094.068.073.066.039-.039,0,.051s-.018.161-.091.047a1.48,1.48,0,0,0-.094-.14l-.059-.075-.05.006c.027-.016.041-.01.039.019a.154.154,0,0,1-.266.155Z" transform="translate(-5178.305 -515.923)"/></g><g transform="translate(55.405 14.718)"><path class="b" d="M5278.891,466.163c.034.189.073.377.114.565q.031.141.067.28c.02.079.072.191.032.268a.057.057,0,0,1-.078.02c-.073-.045-.085-.17-.1-.248-.023-.1-.046-.194-.066-.291-.04-.191-.069-.384-.093-.578-.01-.072.114-.089.127-.017Z" transform="translate(-5278.763 -466.116)"/></g><g transform="translate(55.084 14.894)"><path class="b" d="M5285.186,468.557c.017.111.031.221.053.331.012.055.023.11.037.164a.877.877,0,0,1,.015.087.131.131,0,0,1,0,.081.045.045,0,0,1-.062.016.131.131,0,0,1-.046-.07.573.573,0,0,1-.028-.08c-.013-.057-.025-.113-.035-.171a2.156,2.156,0,0,1-.036-.345c0-.059.1-.077.107-.015Z" transform="translate(-5285.078 -468.518)"/></g><g transform="translate(62.505 18.652)"><path class="b" d="M5181.23,520.051a.323.323,0,0,1-.039.039l-.043.039c-.028.026-.056.053-.083.079s-.053.054-.077.082-.059.077-.11.078a.046.046,0,0,1-.044-.034c-.014-.053.025-.1.058-.132s.056-.058.085-.085a.893.893,0,0,1,.1-.078l.049-.031a.325.325,0,0,1,.062-.027c.042-.015.067.041.041.07Z" transform="translate(-5180.832 -519.979)"/></g></svg>