<svg xmlns="http://www.w3.org/2000/svg" xmlns:xlink="http://www.w3.org/1999/xlink" width="556.093" height="409.896" viewBox="0 0 556.093 409.896"><defs><style>.a{fill:#f1ebe9;}.b{fill:#ff527b;}.c{fill:#2e4dce;}.d{fill:#080887;}.e{fill:#ef9cac;}.f{fill:#f8b3a3;}.g{fill:#e2d8d2;}.h{clip-path:url(#a);}.i{opacity:0.39;}.j{fill:#e7ddd9;}.k{fill:#e2d6cf;}.l{fill:#d5c9c3;}.m{fill:#ff5876;}.n{fill:#4f4085;}.o{fill:#073163;}.p{fill:#fff;}.q{fill:#0c2242;}.r{clip-path:url(#b);}.s{fill:#d8074c;}.t{fill:#ffe9f0;}.u{opacity:0.12;}.v{fill:#490c1d;}.w{opacity:0.32;}.x{opacity:0.51;}.y{opacity:0.18;}.z{fill:#152a49;}.aa{fill:#a80038;}.ab{fill:#d80053;}.ac{fill:#ea9d03;}.ad{fill:#2c86f2;}.ae{fill:#1b7fe2;}.af{fill:#0b5aa8;}.ag{fill:#5a9dff;}.ah{fill:#b0caff;}.ai{fill:#72120c;}.aj{clip-path:url(#c);}.ak{opacity:0.49;}.al{fill:#5c0b07;}.am{fill:#f49987;}.an{fill:#c73f00;}.ao{fill:#524e53;}.ap{clip-path:url(#d);}.aq{fill:#2e2d2e;}.ar{clip-path:url(#e);}.as{fill:#ffdce5;}.at{clip-path:url(#f);}.au{fill:#d35454;}.av{fill:#0248b7;}.aw{opacity:0.36;}.ax{fill:#610c07;}.ay{fill:#3378dd;}.az{fill:#85bce5;}.ba{fill:#f5838d;}.bb{fill:#3289e0;}</style><clipPath id="a"><path class="a" d="M1298.359,602.577c-14.894-54.664,27.838-131.66,120.444-140.788s84.893,19.105,145.748,29.649c65.423,11.336,131.9-11.464,163.273,16.816,65.722,59.241,32.077,126.633-18.041,157.524s-148.609,78.372-275.5,57.56S1304.593,625.457,1298.359,602.577Z" transform="translate(-1295.455 -460)"/></clipPath><clipPath id="b"><path class="b" d="M1738.754,1097.5H1549.491a18.048,18.048,0,0,0-11.515,4.128h0l-44.716,29.628a18.133,18.133,0,0,0-10.824,16.6v189.3a18.128,18.128,0,0,0,18.126,18.129h189.263a18.074,18.074,0,0,0,13.324-5.839l42.9-27.911a18.148,18.148,0,0,0,4.911-3.2h0a18.085,18.085,0,0,0,5.923-13.406v-189.3A18.127,18.127,0,0,0,1738.754,1097.5Z" transform="translate(-1482.437 -1097.502)"/></clipPath><clipPath id="c"><path class="c" d="M2668.354,802.038c-.1-1.553-7.518-4.986-18.953-.96s-45.949,43.974-83.661,35.809-39.96,49.445-6.8,59.648,93.038-15.2,108.364-32.5,17.071-27.1,18.356-40.533C2687.611,803.174,2668.354,802.038,2668.354,802.038Z" transform="translate(-2535.656 -799.191)"/></clipPath><clipPath id="d"><path class="d" d="M3114.092,1550.661l-.86,3.062s-.209,5.1-1.084,7.34-15.358,29.332,0,44.463,80.286,22.7,80.286,22.7,1.555-26.1,19.44-28.891c0,0-41.5-30.554-51.807-34.384l-7.027-12.994Z" transform="translate(-3105.124 -1550.661)"/></clipPath><clipPath id="e"><path class="e" d="M2922.688,1139.786h0a74.824,74.824,0,0,0-17.62,1.693c-8.3,1.968-38.842,31.046-38.842,31.046s-.1,8.911,14.273,10.438c0,0,21.826-18.549,24.436-17.034s12.633,51.257,12.633,51.257,21.989,13.364,39.808-1.765c0,0-2.024-12.6-3.3-29.3-.131-1.711.189-1.143,2.477-3.744l2.264,5.612s13.615,2.027,16.1-10.659c0,0-12.41-26.985-16.39-31.508s-18.688-5.732-26.132-5.665Z" transform="translate(-2866.226 -1139.764)"/></clipPath><clipPath id="f"><path class="f" d="M3137.817,954.794a24.123,24.123,0,0,0,.351-8.986,17.323,17.323,0,0,1-8.178-12.354c-.527-6.424-1.1-13.838-1.1-13.838s3.033-3.875,9.034-.822,12.764-2.476,16.238-4.9a12.7,12.7,0,0,0,4.8,6.805l2.3,1.767s-1.544,20.813-12.915,23.2l-.561,9.828A7.37,7.37,0,0,1,3137.817,954.794Z" transform="translate(-3128.889 -913.896)"/></clipPath></defs><g transform="translate(-746.697 -448.239)"><g transform="translate(732 460)"><g transform="translate(14.697 345.832)"><ellipse class="g" cx="49.344" cy="9.596" rx="49.344" ry="9.596"/></g><g transform="translate(120.479 278.249)"><ellipse class="g" cx="153.446" cy="58.95" rx="153.446" ry="58.95"/></g><g transform="translate(463.415 359.268)"><ellipse class="g" cx="53.688" cy="19.433" rx="53.688" ry="19.433"/></g><g transform="translate(413.42 332.263)"><ellipse class="g" cx="53.688" cy="19.433" rx="53.688" ry="19.433"/></g><g transform="translate(101.969 0)"><g transform="translate(41 -13)"><g transform="translate(139.304 1.239)"><path class="a" d="M2281.226,501.793a1.7,1.7,0,0,1-.2.009c-.188,0-19.147-.278-45.181-2.913-24.042-2.433-59.226-7.434-90.316-17.443-30.41-9.79-49.97-11.535-61.024-11.275-11.946.281-16.776,2.9-16.823,2.925a1.651,1.651,0,1,1-1.636-2.867c.211-.122,5.316-2.979,17.888-3.345a131.636,131.636,0,0,1,24.719,1.941,265.33,265.33,0,0,1,37.887,9.479c30.815,9.92,65.754,14.884,89.637,17.3,25.892,2.62,44.705,2.894,44.892,2.9a1.651,1.651,0,0,1,.152,3.293Z" transform="translate(-2065.218 -466.844)"/></g><g transform="translate(-62.886 1.239)"><path class="a" d="M1298.359,602.577c-14.894-54.664,27.838-131.66,120.444-140.788s84.893,19.105,145.748,29.649c65.423,11.336,131.9-11.464,163.273,16.816,65.722,59.241,32.077,126.633-18.041,157.524s-148.609,78.372-275.5,57.56S1304.593,625.457,1298.359,602.577Z" transform="translate(-1295.455 -460)"/><g class="h"><g class="i" transform="translate(-30.146 10.186)"><path class="j" d="M1186.208,516.286s8.265,58.014,93.189,62.842,165.138-25.951,204.551-1.834,171.062-51.939,171.062-51.939l18.746,139.683-34.33,97.983L1420.389,789.1s-219.187-24.177-219.624-27.482-56.3-204.057-56.3-204.057Z" transform="translate(-1144.469 -516.286)"/></g><g class="i" transform="translate(-42.89 68.474)"><path class="k" d="M1122.379,838.372s8.265,58.015,93.189,62.842,165.138-25.951,204.551-1.834,171.062-51.939,171.062-51.939l18.747,139.683-34.33,97.983-219.037,26.081s-219.187-24.177-219.624-27.482-56.3-204.057-56.3-204.057Z" transform="translate(-1080.64 -838.372)"/></g><g class="i" transform="translate(-38.831 119.074)"><path class="l" d="M1142.7,1117.977s8.265,58.014,93.188,62.842,165.138-25.951,204.551-1.834,171.062-51.939,171.062-51.939l18.747,139.683-34.33,97.983-219.038,26.081s-219.187-24.177-219.624-27.482-56.3-204.057-56.3-204.057Z" transform="translate(-1100.966 -1117.977)"/></g></g></g></g></g><g transform="translate(401.303 31.177)"><g transform="translate(55.126)"><path class="m" d="M3262.22,648.445a8.08,8.08,0,1,1,4.8-1.582A8.079,8.079,0,0,1,3262.22,648.445Zm-.019-14.78a6.693,6.693,0,1,0,5.393,2.713A6.661,6.661,0,0,0,3262.2,633.665Z" transform="translate(-3254.122 -632.276)"/></g><g transform="translate(0 17.977)"><path class="b" d="M2954.566,731.615l-5.057,15.513,18.075-2.686Z" transform="translate(-2949.509 -731.615)"/></g><g transform="translate(29.384 3.43)"><path class="n" d="M3122.117,662.307h-.017l-9.545-.232a.7.7,0,0,1-.6-1.02l5.005-9.454a.7.7,0,0,1,.614-.37h.017a.7.7,0,0,1,.612.4l4.54,9.686a.695.695,0,0,1-.629.99Zm-8.406-1.595,7.3.177-3.472-7.407Z" transform="translate(-3111.877 -651.231)"/></g><g transform="translate(75.102 20.318)"><g transform="translate(0.695 0.696)"><rect class="o" width="7.747" height="7.746" transform="matrix(0.399, -0.917, 0.917, 0.399, 0, 7.104)"/></g><path class="p" d="M3372.3,756.134a.7.7,0,0,1-.277-.058l-7.1-3.092a.7.7,0,0,1-.36-.915l3.092-7.1a.7.7,0,0,1,.915-.36l7.1,3.092a.7.7,0,0,1,.36.915l-3.091,7.1a.694.694,0,0,1-.637.418Zm-6.188-4.147,5.828,2.537,2.536-5.829-5.828-2.537Z" transform="translate(-3364.506 -744.548)"/></g></g><g transform="translate(120.479 202.683)"><path class="q" d="M1400.363,1601.423a6.464,6.464,0,0,1-1.368-9.026l7.214-9.793a6.455,6.455,0,1,1,10.392,7.659l-7.214,9.793A6.461,6.461,0,0,1,1400.363,1601.423Zm12.716-17.262a2.824,2.824,0,0,0-3.945.6l-7.214,9.793a2.822,2.822,0,1,0,4.543,3.348l7.214-9.793A2.826,2.826,0,0,0,1413.078,1584.162Z" transform="translate(-1397.739 -1579.98)"/></g><g transform="translate(135.807 115.369)"><path class="b" d="M1738.754,1097.5H1549.491a18.048,18.048,0,0,0-11.515,4.128h0l-44.716,29.628a18.133,18.133,0,0,0-10.824,16.6v189.3a18.128,18.128,0,0,0,18.126,18.129h189.263a18.074,18.074,0,0,0,13.324-5.839l42.9-27.911a18.148,18.148,0,0,0,4.911-3.2h0a18.085,18.085,0,0,0,5.923-13.406v-189.3A18.127,18.127,0,0,0,1738.754,1097.5Z" transform="translate(-1482.437 -1097.502)"/><g class="r"><g transform="translate(209.887 0)"><path class="s" d="M2642.224,1143.218l65.956-45.717,8.621,256.577-68.814,14.656Z" transform="translate(-2642.224 -1097.502)"/></g></g></g><g transform="translate(135.807 147.592)"><path class="e" d="M1689.826,1501.118H1500.563a18.128,18.128,0,0,1-18.126-18.129v-189.3a18.128,18.128,0,0,1,18.126-18.129h189.263a18.128,18.128,0,0,1,18.126,18.129v189.3A18.128,18.128,0,0,1,1689.826,1501.118Z" transform="translate(-1482.437 -1275.558)"/></g><g transform="translate(149.297 161.085)"><path class="t" d="M1739.559,1548.692H1572.94a15.959,15.959,0,0,1-15.957-15.96V1366.079a15.959,15.959,0,0,1,15.957-15.96h166.619a15.959,15.959,0,0,1,15.957,15.96v166.652A15.959,15.959,0,0,1,1739.559,1548.692Z" transform="translate(-1556.983 -1350.119)"/></g><g class="u" transform="translate(130.35 230.15)"><g transform="translate(68.562 34.196)"><path class="v" d="M1853.417,1934.345a6.164,6.164,0,0,1-8.176,3l-10.528-4.88a6.159,6.159,0,0,1,5.178-11.177l10.527,4.88A6.167,6.167,0,0,1,1853.417,1934.345Zm-18.557-8.6a2.7,2.7,0,0,0,1.31,3.575l10.528,4.879a2.692,2.692,0,0,0,2.264-4.885l-10.528-4.88A2.7,2.7,0,0,0,1834.86,1925.744Z" transform="translate(-1831.145 -1920.717)"/></g><g transform="translate(44.52 22.158)"><path class="v" d="M1720.482,1868a6.164,6.164,0,0,1-8.208,2.91l-10.474-4.993a6.159,6.159,0,0,1,5.3-11.12l10.474,4.993A6.167,6.167,0,0,1,1720.482,1868Zm-18.463-8.8a2.7,2.7,0,0,0,1.272,3.589l10.474,4.993a2.692,2.692,0,0,0,2.316-4.861l-10.474-4.993A2.7,2.7,0,0,0,1702.019,1859.2Z" transform="translate(-1698.292 -1854.195)"/></g><g transform="translate(20.897 11.676)"><path class="v" d="M1590.038,1809.887a6.164,6.164,0,0,1-8.173,3.008l-10.533-4.868a6.159,6.159,0,0,1,5.166-11.182l10.533,4.867A6.167,6.167,0,0,1,1590.038,1809.887Zm-18.567-8.58a2.7,2.7,0,0,0,1.314,3.573l10.533,4.868a2.692,2.692,0,0,0,2.258-4.888l-10.533-4.868A2.7,2.7,0,0,0,1571.472,1801.307Z" transform="translate(-1567.758 -1796.277)"/></g><path class="v" d="M1473.554,1747.249a6.164,6.164,0,0,1-8.475,2l-9.872-6.1a6.159,6.159,0,0,1,6.472-10.481l9.872,6.1A6.167,6.167,0,0,1,1473.554,1747.249Zm-17.4-10.75a2.7,2.7,0,0,0,.876,3.705l9.872,6.1a2.692,2.692,0,0,0,2.829-4.581l-9.872-6.1A2.7,2.7,0,0,0,1456.152,1736.5Z" transform="translate(-1452.286 -1731.756)"/><g transform="translate(82.019 42.439)"><path class="v" d="M1924.7,1976.127a2.164,2.164,0,0,1-2.746,1.312l-15.35-6.8a2.339,2.339,0,0,1,1.871-4.227l15.35,6.8A2.165,2.165,0,0,1,1924.7,1976.127Z" transform="translate(-1905.505 -1966.266)"/></g><g transform="translate(58.167 30.736)"><path class="v" d="M1792.514,1912.3a2.165,2.165,0,0,1-2.808,1.172l-14.989-7.562a2.339,2.339,0,0,1,2.081-4.127l14.989,7.562A2.165,2.165,0,0,1,1792.514,1912.3Z" transform="translate(-1773.706 -1901.595)"/></g><g transform="translate(34.51 20.048)"><path class="v" d="M1662.283,1852.155a2.164,2.164,0,0,1-2.726,1.351l-15.447-6.577a2.339,2.339,0,0,1,1.81-4.253l15.447,6.577A2.165,2.165,0,0,1,1662.283,1852.155Z" transform="translate(-1642.98 -1842.539)"/></g><g transform="translate(11.092 9.075)"><path class="v" d="M1532.683,1791.977a2.164,2.164,0,0,1-2.762,1.277l-15.263-6.994a2.339,2.339,0,0,1,1.925-4.2l15.262,6.994A2.165,2.165,0,0,1,1532.683,1791.977Z" transform="translate(-1513.58 -1781.9)"/></g></g><g class="w" transform="translate(263.164 183.1)"><g transform="translate(100.028 25.041)"><path class="v" d="M2741.037,1619.962l9.02-8.159a6.455,6.455,0,0,1,8.659,9.576l-9.02,8.159a6.455,6.455,0,0,1-8.658-9.576Zm11.457-5.464-9.02,8.159a2.822,2.822,0,0,0,3.785,4.186l9.02-8.159a2.822,2.822,0,0,0-3.785-4.186Z" transform="translate(-2738.915 -1610.138)"/></g><g transform="translate(119.559 7.273)"><path class="v" d="M2848.962,1521.781l9.02-8.159a6.455,6.455,0,0,1,8.658,9.576l-9.02,8.159a6.455,6.455,0,0,1-8.658-9.576Zm11.457-5.464-9.02,8.159a2.822,2.822,0,0,0,3.785,4.186l9.02-8.159a2.822,2.822,0,0,0-3.785-4.186Z" transform="translate(-2846.84 -1511.957)"/></g><g class="x"><g transform="translate(10.04 79.235)"><path class="v" d="M2245.233,1915.053l10.528-4.88a6.159,6.159,0,0,1,5.178,11.177l-10.528,4.88a6.159,6.159,0,0,1-5.178-11.177Zm11.985-1.734-10.527,4.88a2.692,2.692,0,0,0,2.264,4.886l10.527-4.88a2.692,2.692,0,0,0-2.264-4.886Z" transform="translate(-2241.665 -1909.603)"/></g><g transform="translate(34.136 67.197)"><path class="v" d="M2378.322,1848.673l10.474-4.993a6.159,6.159,0,0,1,5.3,11.12l-10.474,4.993a6.159,6.159,0,0,1-5.3-11.12Zm11.966-1.864-10.474,4.993a2.692,2.692,0,0,0,2.316,4.861l10.474-4.993a2.692,2.692,0,0,0-2.316-4.861Z" transform="translate(-2374.813 -1843.081)"/></g><g transform="translate(57.7 56.715)"><path class="v" d="M2508.6,1790.6l10.533-4.868a6.159,6.159,0,0,1,5.166,11.182l-10.533,4.868a6.159,6.159,0,0,1-5.166-11.182Zm11.987-1.72-10.533,4.868a2.692,2.692,0,0,0,2.258,4.888l10.533-4.868a2.692,2.692,0,0,0-2.258-4.888Z" transform="translate(-2505.021 -1785.163)"/></g><g transform="translate(81.804 44.296)"><path class="v" d="M2641.138,1723.552l9.872-6.1a6.159,6.159,0,0,1,6.472,10.48l-9.872,6.1a6.159,6.159,0,0,1-6.471-10.481Zm11.693-3.148-9.872,6.1a2.692,2.692,0,0,0,2.829,4.581l9.872-6.1a2.692,2.692,0,0,0-2.829-4.581Z" transform="translate(-2638.218 -1716.536)"/></g><g transform="translate(0 87.478)"><path class="v" d="M2186.413,1965.014a2.164,2.164,0,0,0,2.745,1.312l15.351-6.8a2.339,2.339,0,0,0-1.871-4.227l-15.351,6.8A2.165,2.165,0,0,0,2186.413,1965.014Z" transform="translate(-2186.185 -1955.153)"/></g><g transform="translate(24.186 75.775)"><path class="v" d="M2320.115,1901.183a2.165,2.165,0,0,0,2.808,1.172l14.989-7.562a2.339,2.339,0,0,0-2.081-4.127l-14.989,7.562A2.165,2.165,0,0,0,2320.115,1901.183Z" transform="translate(-2319.831 -1890.481)"/></g><g transform="translate(47.42 65.087)"><path class="v" d="M2448.429,1841.041a2.164,2.164,0,0,0,2.726,1.351l15.447-6.576a2.339,2.339,0,0,0-1.81-4.253l-15.447,6.576A2.165,2.165,0,0,0,2448.429,1841.041Z" transform="translate(-2448.217 -1831.425)"/></g><g transform="translate(71.008 54.114)"><path class="v" d="M2578.8,1780.863a2.164,2.164,0,0,0,2.762,1.277l15.262-6.994a2.339,2.339,0,0,0-1.925-4.2l-15.262,6.994A2.165,2.165,0,0,0,2578.8,1780.863Z" transform="translate(-2578.56 -1770.787)"/></g><g transform="translate(94.919 36.131)"><path class="v" d="M2711.607,1688.018a2.164,2.164,0,0,0,3.042-.057l10.683-12.953a2.339,2.339,0,0,0-3.565-2.941l-10.683,12.953A2.165,2.165,0,0,0,2711.607,1688.018Z" transform="translate(-2710.684 -1671.417)"/></g><g transform="translate(113.145 18.075)"><path class="v" d="M2812.09,1586.619a2.164,2.164,0,0,0,3.023.338l12.271-11.459a2.339,2.339,0,0,0-3.154-3.379l-12.271,11.459A2.165,2.165,0,0,0,2812.09,1586.619Z" transform="translate(-2811.396 -1571.646)"/></g><g transform="translate(132.827)"><path class="v" d="M2920.849,1486.741a2.164,2.164,0,0,0,3.024.338l12.271-11.459a2.339,2.339,0,0,0-3.154-3.379l-12.271,11.459A2.165,2.165,0,0,0,2920.849,1486.741Z" transform="translate(-2920.156 -1471.767)"/></g></g></g><g class="y" transform="translate(223.432 256.869)"><path class="v" d="M2015.011,1909.416h-1.47c.008-.242.015-.484.015-.728v-9.072a20.214,20.214,0,0,0-20.212-20.216h0a20.214,20.214,0,0,0-20.212,20.216v9.072c0,.244.006.486.015.728h-1.47a5.04,5.04,0,0,0-5.039,5.04v31.36a5.039,5.039,0,0,0,5.039,5.04h43.336a5.039,5.039,0,0,0,5.039-5.04v-31.36A5.04,5.04,0,0,0,2015.011,1909.416Zm-8.175-.933c0,.314-.014.624-.036.933h-26.916c-.021-.309-.036-.619-.036-.933v-8.662a13.5,13.5,0,0,1,13.493-13.5h0a13.5,13.5,0,0,1,13.493,13.5Z" transform="translate(-1966.636 -1879.4)"/></g><g transform="translate(217.149 178.505)"><rect class="b" width="59.5" height="15.104" rx="7.552"/></g><g transform="translate(220.017 256.033)"><g transform="translate(6.495)"><path class="z" d="M2003.865,1874.778h0a20.214,20.214,0,0,0-20.212,20.216v9.072a20.214,20.214,0,0,0,20.212,20.216h0a20.214,20.214,0,0,0,20.212-20.216v-9.072A20.214,20.214,0,0,0,2003.865,1874.778Zm13.493,29.083a13.5,13.5,0,0,1-13.493,13.5h0a13.5,13.5,0,0,1-13.494-13.5V1895.2a13.5,13.5,0,0,1,13.494-13.5h0a13.5,13.5,0,0,1,13.493,13.5Z" transform="translate(-1983.653 -1874.778)"/></g><g transform="translate(0 30.016)"><path class="e" d="M1996.139,2082.083H1952.8a5.04,5.04,0,0,1-5.039-5.04v-31.36a5.039,5.039,0,0,1,5.039-5.04h43.336a5.04,5.04,0,0,1,5.039,5.04v31.36A5.04,5.04,0,0,1,1996.139,2082.083Z" transform="translate(-1947.764 -2040.642)"/></g><g transform="translate(19.708 38.344)"><ellipse class="aa" cx="6.999" cy="7" rx="6.999" ry="7"/></g><g transform="translate(23.404 47.825)"><rect class="aa" width="6.719" height="15.12" rx="3.359"/></g></g><g transform="translate(125.179 215.305)"><g transform="translate(77.084 43.105)"><path class="q" d="M1871.93,1901.543a6.164,6.164,0,0,1-8.176,3l-10.528-4.88a6.159,6.159,0,0,1,5.178-11.177l10.528,4.88A6.167,6.167,0,0,1,1871.93,1901.543Zm-18.557-8.6a2.7,2.7,0,0,0,1.311,3.575l10.527,4.88a2.692,2.692,0,0,0,2.264-4.886l-10.528-4.88A2.7,2.7,0,0,0,1853.374,1892.942Z" transform="translate(-1849.658 -1887.915)"/></g><g transform="translate(53.042 31.066)"><path class="q" d="M1739,1835.2a6.164,6.164,0,0,1-8.208,2.91l-10.474-4.993a6.159,6.159,0,0,1,5.3-11.12l10.474,4.993A6.167,6.167,0,0,1,1739,1835.2Zm-18.463-8.8a2.7,2.7,0,0,0,1.272,3.589l10.474,4.993a2.692,2.692,0,0,0,2.316-4.861l-10.474-4.993A2.7,2.7,0,0,0,1720.533,1826.394Z" transform="translate(-1716.805 -1821.393)"/></g><g transform="translate(29.419 20.585)"><path class="q" d="M1608.552,1777.084a6.164,6.164,0,0,1-8.173,3.008l-10.533-4.868a6.159,6.159,0,0,1,5.166-11.182l10.533,4.868A6.167,6.167,0,0,1,1608.552,1777.084Zm-18.567-8.58a2.7,2.7,0,0,0,1.315,3.573l10.533,4.868a2.692,2.692,0,0,0,2.258-4.888l-10.533-4.868A2.7,2.7,0,0,0,1589.985,1768.5Z" transform="translate(-1586.271 -1763.474)"/></g><g transform="translate(5.978 8.165)"><path class="q" d="M1478.008,1710.34a6.164,6.164,0,0,1-8.475,2l-9.872-6.1a6.159,6.159,0,0,1,6.472-10.481l9.872,6.1A6.167,6.167,0,0,1,1478.008,1710.34Zm-17.4-10.749a2.7,2.7,0,0,0,.876,3.705l9.872,6.1a2.692,2.692,0,0,0,2.829-4.581l-9.872-6.1A2.7,2.7,0,0,0,1460.607,1699.59Z" transform="translate(-1456.741 -1694.847)"/></g><g transform="translate(90.541 51.348)"><path class="q" d="M1943.217,1943.325a2.165,2.165,0,0,1-2.745,1.312l-15.351-6.8a2.339,2.339,0,0,1,1.871-4.227l15.351,6.8A2.165,2.165,0,0,1,1943.217,1943.325Z" transform="translate(-1924.019 -1933.464)"/></g><g transform="translate(66.689 39.644)"><path class="q" d="M1811.027,1879.5a2.164,2.164,0,0,1-2.808,1.172l-14.99-7.562a2.339,2.339,0,0,1,2.081-4.127l14.99,7.562A2.165,2.165,0,0,1,1811.027,1879.5Z" transform="translate(-1792.22 -1868.793)"/></g><g transform="translate(43.032 28.957)"><path class="q" d="M1680.8,1819.353a2.164,2.164,0,0,1-2.726,1.351l-15.447-6.576a2.339,2.339,0,0,1,1.81-4.253l15.447,6.577A2.165,2.165,0,0,1,1680.8,1819.353Z" transform="translate(-1661.494 -1809.737)"/></g><g transform="translate(19.614 17.983)"><path class="q" d="M1551.2,1759.175a2.164,2.164,0,0,1-2.762,1.276l-15.262-6.994a2.339,2.339,0,0,1,1.925-4.2l15.263,6.994A2.165,2.165,0,0,1,1551.2,1759.175Z" transform="translate(-1532.093 -1749.098)"/></g><path class="q" d="M1437.834,1666.329a2.164,2.164,0,0,1-3.042-.056l-10.683-12.953a2.339,2.339,0,0,1,3.565-2.941l10.683,12.953A2.165,2.165,0,0,1,1437.834,1666.329Z" transform="translate(-1423.709 -1649.728)"/></g><g transform="translate(398.347 167.446)"><path class="q" d="M2935.3,1395.094l9.02-8.159a6.455,6.455,0,0,1,8.658,9.576l-9.02,8.159a6.455,6.455,0,0,1-8.658-9.576Zm11.457-5.464-9.02,8.159a2.822,2.822,0,0,0,3.785,4.186l9.02-8.159a2.822,2.822,0,0,0-3.785-4.186Z" transform="translate(-2933.177 -1385.271)"/></g><g transform="translate(258.559 179.175)"><g transform="translate(10.04 79.235)"><path class="q" d="M2219.789,1893.365l10.528-4.88a6.159,6.159,0,0,1,5.178,11.177l-10.528,4.88a6.159,6.159,0,0,1-5.178-11.177Zm11.985-1.734-10.528,4.88a2.692,2.692,0,0,0,2.264,4.886l10.527-4.88a2.692,2.692,0,0,0-2.264-4.886Z" transform="translate(-2216.22 -1887.915)"/></g><g transform="translate(34.136 67.197)"><path class="q" d="M2352.877,1826.985l10.474-4.993a6.159,6.159,0,0,1,5.3,11.12l-10.474,4.993a6.159,6.159,0,0,1-5.3-11.12Zm11.966-1.864-10.474,4.993a2.692,2.692,0,0,0,2.316,4.861l10.474-4.993a2.692,2.692,0,0,0-2.316-4.861Z" transform="translate(-2349.369 -1821.393)"/></g><g transform="translate(57.7 56.715)"><path class="q" d="M2483.151,1768.91l10.533-4.868a6.159,6.159,0,0,1,5.166,11.182l-10.533,4.868a6.159,6.159,0,0,1-5.166-11.182Zm11.987-1.72-10.533,4.868a2.692,2.692,0,0,0,2.258,4.888l10.533-4.868a2.692,2.692,0,0,0-2.258-4.888Z" transform="translate(-2479.576 -1763.474)"/></g><g transform="translate(81.804 44.296)"><path class="q" d="M2615.694,1701.863l9.872-6.1a6.159,6.159,0,0,1,6.472,10.481l-9.872,6.1a6.159,6.159,0,0,1-6.471-10.481Zm11.693-3.149-9.872,6.1a2.692,2.692,0,0,0,2.829,4.581l9.872-6.1a2.692,2.692,0,0,0-2.829-4.582Z" transform="translate(-2612.773 -1694.847)"/></g><g transform="translate(0 87.478)"><path class="q" d="M2160.968,1943.325a2.165,2.165,0,0,0,2.745,1.312l15.351-6.8a2.339,2.339,0,0,0-1.871-4.227l-15.351,6.8A2.165,2.165,0,0,0,2160.968,1943.325Z" transform="translate(-2160.74 -1933.464)"/></g><g transform="translate(24.186 75.775)"><path class="q" d="M2294.671,1879.5a2.164,2.164,0,0,0,2.808,1.172l14.989-7.562a2.339,2.339,0,0,0-2.081-4.127l-14.989,7.562A2.165,2.165,0,0,0,2294.671,1879.5Z" transform="translate(-2294.387 -1868.793)"/></g><g transform="translate(47.42 65.087)"><path class="q" d="M2422.985,1819.353a2.164,2.164,0,0,0,2.726,1.351l15.447-6.576a2.339,2.339,0,0,0-1.81-4.253l-15.447,6.577A2.165,2.165,0,0,0,2422.985,1819.353Z" transform="translate(-2422.772 -1809.737)"/></g><g transform="translate(71.008 54.113)"><path class="q" d="M2553.357,1759.175a2.164,2.164,0,0,0,2.762,1.276l15.262-6.994a2.339,2.339,0,0,0-1.925-4.2l-15.262,6.994A2.165,2.165,0,0,0,2553.357,1759.175Z" transform="translate(-2553.115 -1749.098)"/></g><g transform="translate(94.919 36.131)"><path class="q" d="M2686.164,1666.329a2.164,2.164,0,0,0,3.042-.056l10.683-12.953a2.339,2.339,0,0,0-3.565-2.941l-10.683,12.953A2.165,2.165,0,0,0,2686.164,1666.329Z" transform="translate(-2685.24 -1649.728)"/></g><g transform="translate(113.145 18.075)"><path class="q" d="M2786.646,1564.931a2.164,2.164,0,0,0,3.024.338l12.271-11.459a2.339,2.339,0,0,0-3.154-3.379l-12.271,11.459A2.165,2.165,0,0,0,2786.646,1564.931Z" transform="translate(-2785.952 -1549.957)"/></g><g transform="translate(132.827)"><path class="q" d="M2895.4,1465.053a2.164,2.164,0,0,0,3.024.338l12.271-11.459a2.339,2.339,0,0,0-3.154-3.379l-12.271,11.459A2.165,2.165,0,0,0,2895.4,1465.053Z" transform="translate(-2894.711 -1450.079)"/></g></g><g transform="translate(359.344 203.207)"><path class="q" d="M2719.773,1592.7l9.02-8.159a6.455,6.455,0,0,1,8.658,9.576l-9.02,8.159a6.455,6.455,0,0,1-8.658-9.576Zm11.457-5.464-9.02,8.159a2.822,2.822,0,0,0,3.785,4.186l9.02-8.159a2.822,2.822,0,0,0-3.785-4.186Z" transform="translate(-2717.651 -1582.876)"/></g><g transform="translate(378.875 185.439)"><path class="q" d="M2827.7,1494.519l9.02-8.159a6.455,6.455,0,0,1,8.658,9.576l-9.02,8.159a6.455,6.455,0,0,1-8.658-9.576Zm11.457-5.464-9.02,8.159a2.822,2.822,0,0,0,3.785,4.186l9.02-8.159a2.822,2.822,0,0,0-3.785-4.186Z" transform="translate(-2825.576 -1484.695)"/></g><g transform="translate(224.744 205.919)"><ellipse class="b" cx="20.254" cy="20.258" rx="20.254" ry="20.258"/><g transform="translate(3.589 3.589)"><ellipse class="p" cx="16.665" cy="16.669" rx="16.665" ry="16.669"/></g><g transform="translate(29.514 14.84)"><path class="b" d="M2136.973,1679.867h4.659l-3.575,3.009Z" transform="translate(-2136.973 -1679.867)"/></g><g transform="translate(8.664 8.666)"><ellipse class="ab" cx="11.59" cy="11.592" rx="11.59" ry="11.592"/></g></g><g transform="translate(412.204 240.381)"><g transform="translate(0 64.318)"><g transform="translate(15.974 6.168)"><path class="ac" d="M3098.014,2191.383c0-7.512,15.776-13.6,35.234-13.6s35.234,6.091,35.234,13.6a5.182,5.182,0,0,1-.044.694v.007c-.947,7.186-16.34,12.9-35.19,12.9s-34.221-5.708-35.186-12.888A5.656,5.656,0,0,1,3098.014,2191.383Z" transform="translate(-3098.014 -2177.779)"/></g><g transform="translate(0.071 21.7)"><path class="ad" d="M3061.339,2295.649c-28.173,0-51.032-8.783-51.2-19.646,0-.041.121-8.966.121-9.007,0-.824-.032-2.163.05-3.39,3.011,10.328,24.821,17.844,50.967,17.844s47.719-7.565,50.829-17.338a8.08,8.08,0,0,1,.383,2.435c0,.5.017,10.315-.075,10.8C3110.463,2287.582,3088.339,2295.649,3061.339,2295.649Z" transform="translate(-3010.135 -2263.605)"/></g><g transform="translate(15.974 6.168)"><path class="ac" d="M3133.248,2204.987c-18.837,0-34.221-5.708-35.186-12.888a5.656,5.656,0,0,1-.048-.716c0-7.512,15.776-13.6,35.234-13.6s35.234,6.091,35.234,13.6a5.182,5.182,0,0,1-.044.694v.007C3167.491,2199.27,3152.1,2204.987,3133.248,2204.987Z" transform="translate(-3098.014 -2177.779)"/></g><g transform="translate(15.974 6.168)"><path class="ae" d="M3133.248,2204.987c-18.837,0-34.221-5.708-35.186-12.888a5.656,5.656,0,0,1-.048-.716c0-7.512,15.776-13.6,35.234-13.6s35.234,6.091,35.234,13.6a5.182,5.182,0,0,1-.044.694v.007C3167.491,2199.27,3152.1,2204.987,3133.248,2204.987Z" transform="translate(-3098.014 -2177.779)"/></g><path class="af" d="M3111.781,2165.9c.049-.15.088-.3.128-.452s.075-.3.106-.452v-.009c.031-.161.057-.32.079-.481,0-.011,0-.024,0-.035.018-.131.031-.26.04-.39,0-.047.009-.092.009-.139.013-.159.018-.32.018-.478,0-10.921-22.93-19.772-51.212-19.772s-51.208,8.851-51.208,19.772c0,.158,0,.319.018.478,0,.047,0,.092.009.139.009.13.022.259.039.39a.094.094,0,0,0,0,.035c.022.161.049.32.079.481V2165c.031.15.066.3.106.452s.08.3.128.452c3.111,9.772,24.679,17.338,50.825,17.338S3108.671,2175.674,3111.781,2165.9Zm-86.063-2.435c0-7.512,15.776-13.6,35.234-13.6s35.234,6.091,35.234,13.6a5.176,5.176,0,0,1-.044.694v.007c-.947,7.186-16.34,12.9-35.19,12.9s-34.221-5.708-35.186-12.888A5.656,5.656,0,0,1,3025.718,2163.467Z" transform="translate(-3009.744 -2143.695)"/><g transform="translate(16.021 10.548)"><path class="ag" d="M3133.456,2224.808c-18.837,0-34.221-5.708-35.186-12.888.568-3.261,16.32-9.94,35.188-9.94s34.075,5.757,35.188,9.918v.007C3167.7,2219.091,3152.306,2224.808,3133.456,2224.808Z" transform="translate(-3098.27 -2201.98)"/></g></g><g transform="translate(0 47.948)"><g transform="translate(15.974 6.168)"><path class="ac" d="M3098.014,2100.927c0-7.513,15.776-13.6,35.234-13.6s35.234,6.091,35.234,13.6a5.182,5.182,0,0,1-.044.694v.007c-.947,7.186-16.34,12.9-35.19,12.9s-34.221-5.708-35.186-12.888A5.656,5.656,0,0,1,3098.014,2100.927Z" transform="translate(-3098.014 -2087.323)"/></g><g transform="translate(0.071 21.7)"><path class="ad" d="M3061.339,2205.193c-28.173,0-51.032-8.783-51.2-19.646,0-.041.121-8.966.121-9.007,0-.824-.032-2.163.05-3.39,3.011,10.328,24.821,17.844,50.967,17.844s47.719-7.565,50.829-17.338a8.08,8.08,0,0,1,.383,2.435c0,.5.017,10.315-.075,10.8C3110.463,2197.125,3088.339,2205.193,3061.339,2205.193Z" transform="translate(-3010.135 -2173.149)"/></g><g transform="translate(15.974 6.168)"><path class="ac" d="M3133.248,2114.531c-18.837,0-34.221-5.708-35.186-12.888a5.656,5.656,0,0,1-.048-.716c0-7.513,15.776-13.6,35.234-13.6s35.234,6.091,35.234,13.6a5.182,5.182,0,0,1-.044.694v.007C3167.491,2108.813,3152.1,2114.531,3133.248,2114.531Z" transform="translate(-3098.014 -2087.323)"/></g><g transform="translate(15.974 6.168)"><path class="ae" d="M3133.248,2114.531c-18.837,0-34.221-5.708-35.186-12.888a5.656,5.656,0,0,1-.048-.716c0-7.513,15.776-13.6,35.234-13.6s35.234,6.091,35.234,13.6a5.182,5.182,0,0,1-.044.694v.007C3167.491,2108.813,3152.1,2114.531,3133.248,2114.531Z" transform="translate(-3098.014 -2087.323)"/></g><path class="af" d="M3111.781,2075.446c.049-.15.088-.3.128-.452s.075-.3.106-.452v-.009c.031-.161.057-.32.079-.481,0-.011,0-.024,0-.035.018-.131.031-.26.04-.39,0-.047.009-.092.009-.139.013-.159.018-.32.018-.478,0-10.921-22.93-19.772-51.212-19.772s-51.208,8.851-51.208,19.772c0,.158,0,.319.018.478,0,.047,0,.092.009.139.009.13.022.259.039.39a.094.094,0,0,0,0,.035c.022.161.049.32.079.481v.009c.031.15.066.3.106.452s.08.3.128.452c3.111,9.772,24.679,17.338,50.825,17.338S3108.671,2085.218,3111.781,2075.446Zm-86.063-2.434c0-7.513,15.776-13.6,35.234-13.6s35.234,6.091,35.234,13.6a5.181,5.181,0,0,1-.044.694v.007c-.947,7.186-16.34,12.9-35.19,12.9s-34.221-5.708-35.186-12.888A5.655,5.655,0,0,1,3025.718,2073.011Z" transform="translate(-3009.744 -2053.239)"/><g transform="translate(16.021 10.548)"><path class="ag" d="M3133.456,2134.352c-18.837,0-34.221-5.708-35.186-12.888.568-3.262,16.32-9.94,35.188-9.94s34.075,5.757,35.188,9.918v.007C3167.7,2128.635,3152.306,2134.352,3133.456,2134.352Z" transform="translate(-3098.27 -2111.524)"/></g></g><g transform="translate(0 31.805)"><g transform="translate(15.974 6.168)"><path class="ac" d="M3098.014,2011.726c0-7.513,15.776-13.6,35.234-13.6s35.234,6.091,35.234,13.6a5.181,5.181,0,0,1-.044.694v.007c-.947,7.186-16.34,12.9-35.19,12.9s-34.221-5.708-35.186-12.888A5.656,5.656,0,0,1,3098.014,2011.726Z" transform="translate(-3098.014 -1998.122)"/></g><g transform="translate(0.071 21.7)"><path class="ad" d="M3061.339,2115.993c-28.173,0-51.032-8.783-51.2-19.646,0-.041.121-8.966.121-9.007,0-.824-.032-2.163.05-3.39,3.011,10.328,24.821,17.844,50.967,17.844s47.719-7.565,50.829-17.338a8.079,8.079,0,0,1,.383,2.434c0,.5.017,10.315-.075,10.8C3110.463,2107.926,3088.339,2115.993,3061.339,2115.993Z" transform="translate(-3010.135 -2083.949)"/></g><g transform="translate(15.974 6.168)"><path class="ac" d="M3133.248,2025.33c-18.837,0-34.221-5.708-35.186-12.888a5.656,5.656,0,0,1-.048-.716c0-7.513,15.776-13.6,35.234-13.6s35.234,6.091,35.234,13.6a5.181,5.181,0,0,1-.044.694v.007C3167.491,2019.613,3152.1,2025.33,3133.248,2025.33Z" transform="translate(-3098.014 -1998.122)"/></g><g transform="translate(15.974 6.168)"><path class="ae" d="M3133.248,2025.33c-18.837,0-34.221-5.708-35.186-12.888a5.656,5.656,0,0,1-.048-.716c0-7.513,15.776-13.6,35.234-13.6s35.234,6.091,35.234,13.6a5.181,5.181,0,0,1-.044.694v.007C3167.491,2019.613,3152.1,2025.33,3133.248,2025.33Z" transform="translate(-3098.014 -1998.122)"/></g><path class="af" d="M3111.781,1986.245c.049-.15.088-.3.128-.452s.075-.3.106-.452v-.008c.031-.161.057-.32.079-.481,0-.011,0-.024,0-.035.018-.131.031-.26.04-.39,0-.047.009-.092.009-.139.013-.159.018-.32.018-.478,0-10.921-22.93-19.772-51.212-19.772s-51.208,8.851-51.208,19.772c0,.158,0,.319.018.478,0,.047,0,.092.009.139.009.13.022.259.039.39a.1.1,0,0,0,0,.035c.022.161.049.32.079.481v.008c.031.15.066.3.106.452s.08.3.128.452c3.111,9.772,24.679,17.338,50.825,17.338S3108.671,1996.018,3111.781,1986.245Zm-86.063-2.434c0-7.513,15.776-13.6,35.234-13.6s35.234,6.091,35.234,13.6a5.177,5.177,0,0,1-.044.694v.007c-.947,7.186-16.34,12.9-35.19,12.9s-34.221-5.708-35.186-12.888A5.656,5.656,0,0,1,3025.718,1983.811Z" transform="translate(-3009.744 -1964.039)"/><g transform="translate(16.021 10.548)"><path class="ag" d="M3133.456,2045.152c-18.837,0-34.221-5.708-35.186-12.888.568-3.262,16.32-9.94,35.188-9.94s34.075,5.757,35.188,9.918v.007C3167.7,2039.435,3152.306,2045.152,3133.456,2045.152Z" transform="translate(-3098.27 -2022.324)"/></g></g><g transform="translate(0 16.102)"><g transform="translate(15.974 6.168)"><path class="ac" d="M3098.014,1924.955c0-7.513,15.776-13.6,35.234-13.6s35.234,6.091,35.234,13.6a5.177,5.177,0,0,1-.044.694v.007c-.947,7.186-16.34,12.9-35.19,12.9s-34.221-5.708-35.186-12.888A5.656,5.656,0,0,1,3098.014,1924.955Z" transform="translate(-3098.014 -1911.351)"/></g><g transform="translate(0.071 21.7)"><path class="ad" d="M3061.339,2029.221c-28.173,0-51.032-8.783-51.2-19.646,0-.041.121-8.965.121-9.007,0-.824-.032-2.163.05-3.39,3.011,10.328,24.821,17.844,50.967,17.844s47.719-7.565,50.829-17.338a8.079,8.079,0,0,1,.383,2.434c0,.5.017,10.316-.075,10.8C3110.463,2021.154,3088.339,2029.221,3061.339,2029.221Z" transform="translate(-3010.135 -1997.177)"/></g><g transform="translate(15.974 6.168)"><path class="ac" d="M3133.248,1938.559c-18.837,0-34.221-5.708-35.186-12.888a5.656,5.656,0,0,1-.048-.716c0-7.513,15.776-13.6,35.234-13.6s35.234,6.091,35.234,13.6a5.177,5.177,0,0,1-.044.694v.007C3167.491,1932.842,3152.1,1938.559,3133.248,1938.559Z" transform="translate(-3098.014 -1911.351)"/></g><g transform="translate(15.974 6.168)"><path class="ae" d="M3133.248,1938.559c-18.837,0-34.221-5.708-35.186-12.888a5.656,5.656,0,0,1-.048-.716c0-7.513,15.776-13.6,35.234-13.6s35.234,6.091,35.234,13.6a5.177,5.177,0,0,1-.044.694v.007C3167.491,1932.842,3152.1,1938.559,3133.248,1938.559Z" transform="translate(-3098.014 -1911.351)"/></g><path class="af" d="M3111.781,1899.474c.049-.15.088-.3.128-.452s.075-.3.106-.452v-.009c.031-.161.057-.32.079-.481,0-.011,0-.024,0-.035.018-.13.031-.26.04-.39,0-.047.009-.092.009-.139.013-.159.018-.32.018-.478,0-10.921-22.93-19.772-51.212-19.772s-51.208,8.851-51.208,19.772c0,.158,0,.319.018.478,0,.047,0,.092.009.139.009.13.022.259.039.39a.1.1,0,0,0,0,.035c.022.161.049.32.079.481v.009c.031.15.066.3.106.452s.08.3.128.452c3.111,9.772,24.679,17.338,50.825,17.338S3108.671,1909.246,3111.781,1899.474Zm-86.063-2.434c0-7.513,15.776-13.6,35.234-13.6s35.234,6.091,35.234,13.6a5.177,5.177,0,0,1-.044.694v.007c-.947,7.186-16.34,12.9-35.19,12.9s-34.221-5.708-35.186-12.888A5.656,5.656,0,0,1,3025.718,1897.039Z" transform="translate(-3009.744 -1877.267)"/><g transform="translate(16.021 10.548)"><path class="ag" d="M3133.456,1958.38c-18.837,0-34.221-5.708-35.186-12.888.568-3.262,16.32-9.94,35.188-9.94s34.075,5.757,35.188,9.918v.007C3167.7,1952.663,3152.306,1958.38,3133.456,1958.38Z" transform="translate(-3098.27 -1935.552)"/></g></g><g transform="translate(15.974 6.168)"><path class="ac" d="M3098.014,1835.978c0-7.513,15.776-13.6,35.234-13.6s35.234,6.091,35.234,13.6a5.18,5.18,0,0,1-.044.694v.007c-.947,7.186-16.34,12.9-35.19,12.9s-34.221-5.708-35.186-12.888A5.659,5.659,0,0,1,3098.014,1835.978Z" transform="translate(-3098.014 -1822.374)"/></g><g transform="translate(0.071 21.7)"><path class="ad" d="M3061.339,1940.244c-28.173,0-51.032-8.783-51.2-19.646,0-.041.121-8.966.121-9.007,0-.824-.032-2.163.05-3.39,3.011,10.328,24.821,17.844,50.967,17.844s47.719-7.565,50.829-17.338a8.08,8.08,0,0,1,.383,2.434c0,.5.017,10.315-.075,10.8C3110.463,1932.177,3088.339,1940.244,3061.339,1940.244Z" transform="translate(-3010.135 -1908.2)"/></g><g transform="translate(15.974 6.168)"><path class="ac" d="M3133.248,1849.582c-18.837,0-34.221-5.708-35.186-12.888a5.659,5.659,0,0,1-.048-.716c0-7.513,15.776-13.6,35.234-13.6s35.234,6.091,35.234,13.6a5.18,5.18,0,0,1-.044.694v.007C3167.491,1843.865,3152.1,1849.582,3133.248,1849.582Z" transform="translate(-3098.014 -1822.374)"/></g><g transform="translate(15.974 6.168)"><path class="ae" d="M3133.248,1849.582c-18.837,0-34.221-5.708-35.186-12.888a5.659,5.659,0,0,1-.048-.716c0-7.513,15.776-13.6,35.234-13.6s35.234,6.091,35.234,13.6a5.18,5.18,0,0,1-.044.694v.007C3167.491,1843.865,3152.1,1849.582,3133.248,1849.582Z" transform="translate(-3098.014 -1822.374)"/></g><path class="ah" d="M3111.781,1810.5c.049-.15.088-.3.128-.452s.075-.3.106-.452v-.008c.031-.161.057-.32.079-.481,0-.011,0-.024,0-.035.018-.131.031-.26.04-.39,0-.047.009-.092.009-.139.013-.159.018-.32.018-.478,0-10.921-22.93-19.772-51.212-19.772s-51.208,8.851-51.208,19.772c0,.158,0,.319.018.478,0,.047,0,.092.009.139.009.13.022.259.039.39a.1.1,0,0,0,0,.035c.022.161.049.32.079.481v.008c.031.15.066.3.106.452s.08.3.128.452c3.111,9.772,24.679,17.338,50.825,17.338S3108.671,1820.27,3111.781,1810.5Zm-86.063-2.434c0-7.513,15.776-13.6,35.234-13.6s35.234,6.091,35.234,13.6a5.18,5.18,0,0,1-.044.694v.007c-.947,7.186-16.34,12.9-35.19,12.9s-34.221-5.708-35.186-12.888A5.659,5.659,0,0,1,3025.718,1808.063Z" transform="translate(-3009.744 -1788.291)"/><g transform="translate(16.021 10.548)"><path class="ag" d="M3133.456,1869.4c-18.837,0-34.221-5.708-35.186-12.888.568-3.262,16.32-9.94,35.188-9.94s34.075,5.757,35.188,9.918v.007C3167.7,1863.687,3152.306,1869.4,3133.456,1869.4Z" transform="translate(-3098.27 -1846.576)"/></g></g><g transform="translate(326.408 61.384)"><g transform="translate(153.737 99.726)"><path class="f" d="M3395.647,1350.971s3.759,9.957,6.652,9.686,17.61-7.193,27.155-8.9,19.292-3.3,24.826,3.328,5.269,19.112-2.685,16.045-11.4-12.834-11.4-12.834-36.43,17.027-41.483,17.119-13.538-17.455-13.538-17.455Z" transform="translate(-3385.173 -1350.255)"/></g><g transform="translate(211.443 106.042)"><path class="f" d="M3717.443,1388.339l.935.75a4.116,4.116,0,0,1-3.477,4.79c-4.175.825-9.824-.475-10.859-7.756l3.62-.965Z" transform="translate(-3704.042 -1385.158)"/></g><path class="ai" d="M2668.354,802.038c-.1-1.553-7.518-4.986-18.953-.96s-45.949,43.974-83.661,35.809-39.96,49.445-6.8,59.648,93.038-15.2,108.364-32.5,17.071-27.1,18.356-40.533C2687.611,803.174,2668.354,802.038,2668.354,802.038Z" transform="translate(-2535.656 -799.191)"/><g class="aj"><g class="ak" transform="translate(-2.662 11.735)"><path class="al" d="M2520.945,931.938s25.455,10.843,60.456,0,49.564-53.159,49.564-53.159.463-5.245,10.451-4.273,15.029-6.884,14.629-10.47c0,0,3.226,11.442,9.147,14.094s3.919,15.842,1.325,21.924-13.3,23.339-13.3,23.339l-51.575,50.554s-50.115-7.771-50.911-7.771S2520.945,931.938,2520.945,931.938Z" transform="translate(-2520.945 -864.036)"/></g></g><g transform="translate(150.127 183.387)"><g transform="translate(9.331)"><path class="am" d="M3428.64,1922.067c2.333-14.578,35.769-56.39,46.849-76.8s-8.359-31.44-8.359-31.44l-4.422-1.281-23.473,14.848,16.913,12.276c-5.1,2.917-22.161,29.894-27.7,46.519l-11.664,35s1.089,4.933,11.717,4.873A16.117,16.117,0,0,1,3428.64,1922.067Z" transform="translate(-3416.782 -1812.547)"/></g><g transform="translate(0 108.641)"><path class="an" d="M3374.552,2412.871c-7,3.354-9.331,17.5-9.331,17.5l4.666,3.208,3.353-4.667s.146,2.333,3.353,8.166,19.683,13.562,22.744,6.854c2.772-6.073-11.979-13.938-13.069-26.188C3375.641,2417.8,3374.552,2412.871,3374.552,2412.871Z" transform="translate(-3365.221 -2412.871)"/></g></g><g transform="translate(173.971 186.467)"><path class="f" d="M3527.331,1943.939c-4.038-14.2,8.626-66.222,10.057-89.4s-20.847-24.972-20.847-24.972l-4.55.706-15.013,23.371,20.513,3.988c-3.4,4.8-7.473,36.457-5.479,53.867l4.2,36.652s3.069,4.012,12.678-.529A16.12,16.12,0,0,1,3527.331,1943.939Z" transform="translate(-3496.978 -1829.566)"/><g transform="translate(16.724 118.054)"><path class="an" d="M3591.9,2482.433c-4.929,6-1.073,19.8-1.073,19.8l5.583.938,1.071-5.646s1.117,2.054,6.486,5.987,23.567,3.984,23.511-3.39c-.05-6.675-16.742-7.577-22.9-18.222C3594.967,2486.446,3591.9,2482.433,3591.9,2482.433Z" transform="translate(-3589.39 -2481.904)"/></g></g><g transform="translate(103.057 135.994)"><path class="ao" d="M3114.092,1550.661l-.86,3.062s-.209,5.1-1.084,7.34-15.358,29.332,0,44.463c5.851,5.765,33.09,14.074,33.09,14.074l47.2,8.627s1.555-26.1,19.44-28.891c0,0-41.5-30.554-51.807-34.384l-7.027-12.994Z" transform="translate(-3105.124 -1550.661)"/><g class="ap"><g transform="translate(-13.04 -3.075)"><path class="aq" d="M3077.83,1542.1s-21.941,17.708-11.236,29.907,74.078,26.033,74.078,26.033l-3.413,20.969-39.531-2.634-54.1-24.824-10.556-40.97L3047,1533.67Z" transform="translate(-3033.068 -1533.67)"/></g></g></g><g transform="translate(59.823 61.633)"><path class="p" d="M2922.688,1139.786h0a74.824,74.824,0,0,0-17.62,1.693c-8.3,1.968-38.842,31.046-38.842,31.046s-.1,8.911,14.273,10.438c0,0,21.826-18.549,24.436-17.034s12.633,51.257,12.633,51.257,21.989,13.364,39.808-1.765c0,0-2.024-12.6-3.3-29.3-.131-1.711.189-1.143,2.477-3.744l2.264,5.612s13.615,2.027,16.1-10.659c0,0-12.41-26.985-16.39-31.508s-18.688-5.732-26.132-5.665Z" transform="translate(-2866.226 -1139.764)"/><g class="ar"><g transform="translate(-8.57 -1.742)"><path class="as" d="M2855.658,1130.138s-27.955,36.065-17.217,47.845l-19.57-13.884,28.621-27.8Z" transform="translate(-2818.87 -1130.138)"/></g><g transform="translate(30.46 24.293)"><path class="e" d="M3041.727,1276.484l.044-2.469s5.021-.848,8.439,10.482,7.633,13.659,18.252,8.708,10.9,3.567,2.6,13.283,26.924,28.524,26.625,28.469-44.18,8.01-44.138,7.613-19.008-24.469-19.008-24.469Z" transform="translate(-3034.539 -1274.001)"/></g><g transform="translate(87.506 17.238)"><path class="as" d="M3352.195,1262.2l.387-1.8a18.165,18.165,0,0,0,2.927-7.919c.486-4.553-4.331-11.8-5.745-17.46l10.872,23.514s5.656,5.925,4.6,7.428-10.96,3.006-10.96,3.006Z" transform="translate(-3349.764 -1235.019)"/></g></g></g><g transform="translate(107.357 20.758)"><path class="f" d="M3137.817,954.794a24.123,24.123,0,0,0,.351-8.986,17.323,17.323,0,0,1-8.178-12.354c-.527-6.424-1.1-13.838-1.1-13.838s3.033-3.875,9.034-.822,12.764-2.476,16.238-4.9a12.7,12.7,0,0,0,4.8,6.805l2.3,1.767s-1.544,20.813-12.915,23.2l-.561,9.828A7.37,7.37,0,0,1,3137.817,954.794Z" transform="translate(-3128.889 -913.896)"/><g class="at"><g transform="translate(-2.837 -5.773)"><path class="au" d="M3113.214,894.785s.118,3.006,5.834,2.829,14.377,2.063,20.506-5.01c0,0,4.007,9.076,10.371,8.31l1.768-9.607L3135.546,882l-18.973,7.78Z" transform="translate(-3113.214 -881.996)"/></g><g transform="translate(8.565 31.912)"><path class="au" d="M3176.218,1090.917l.714-.682a20.988,20.988,0,0,0,7.152.506,8.945,8.945,0,0,1-7.6,2.593Z" transform="translate(-3176.218 -1090.234)"/></g></g></g><g transform="translate(56.818 79.637)"><path class="f" d="M2856.5,1254.011s25.931-2.519,48.128-4.616a26.632,26.632,0,0,1,7.2-5.847c3.9-1.938,7.091-6.365,7.146-3.187s-3.642,5.578-3.642,5.578,5.5-.417,6.789,2.433-1.816,13.018-8.294,11.883-8.786-2.991-8.786-2.991-16.5,3.939-26.629,6.227-27.3,8.4-28.718-1.96C2848.764,1254.744,2856.5,1254.011,2856.5,1254.011Z" transform="translate(-2849.618 -1239.246)"/></g><g transform="translate(26.691 7.539)"><path class="av" d="M2683.664,871.86a.521.521,0,0,1-.078-1.037c1.988-.3,3.856-.586,5.62-.851,15.865-2.392,23.106-3.484,34.354-8.2,15.942-6.683,37.737-20.7,37.955-20.842a.521.521,0,1,1,.565.876c-.219.141-22.09,14.209-38.118,20.927-11.367,4.765-19.132,5.936-34.6,8.268-1.763.266-3.63.547-5.618.851A.539.539,0,0,1,2683.664,871.86Z" transform="translate(-2683.144 -840.849)"/></g><g class="aw" transform="translate(17.541 3.506)"><path class="o" d="M2652.189,865.394a57.676,57.676,0,0,1-19.314-3.323.434.434,0,0,1,.289-.819c39.5,13.935,74.593-20.082,87.805-32.889l1.13-1.094c12.047-11.625,18.513-8.3,18.782-8.158a.434.434,0,0,1-.414.764,7.292,7.292,0,0,0-4.468-.218c-2.73.539-7.254,2.4-13.3,8.237l-1.129,1.093c-6.523,6.323-18.666,18.092-34.187,26.545C2675.325,862.1,2663.549,865.393,2652.189,865.394Z" transform="translate(-2632.586 -818.562)"/></g><g class="aw" transform="translate(15.818 9.358)"><path class="ax" d="M2638.31,914.705a65.95,65.95,0,0,1-14.911-1.735.434.434,0,0,1,.2-.846c47.245,10.935,79.607-34.163,90.242-48.983l.412-.574c6.316-8.794,10.873-11.153,13.583-11.584a4.425,4.425,0,0,1,3.212.481.434.434,0,0,1-.51.7h0c-.051-.036-1.286-.871-3.79-.016-2.385.815-6.366,3.371-11.79,10.923l-.412.574c-5.734,7.99-16.406,22.863-31.8,34.623C2668.434,909.207,2653.541,914.7,2638.31,914.705Z" transform="translate(-2623.063 -850.901)"/></g><g transform="translate(167.275 97.4)"><g transform="translate(0 10.028)"><path class="ay" d="M3523.832,1395.607l-60.21-2.795-2.239,2.12-1.4,71.722,60.21,2.795,2.239-2.12Z" transform="translate(-3459.98 -1392.813)"/><g transform="translate(2.239)"><path class="az" d="M3532.564,1467.329l-60.21-2.795,1.4-71.722,60.21,2.795Z" transform="translate(-3472.354 -1392.813)"/></g></g><g transform="translate(29.055)"><path class="ba" d="M3620.922,1347.079c.669-.723.45-1.508-.267-4.38s1.72-5.9,6.5-5.2,3.462,5.144,2.956,6.232a4.372,4.372,0,0,0-.328,3.637Z" transform="translate(-3620.531 -1337.4)"/></g><g transform="translate(31.721 1.842)"><ellipse class="p" cx="2.318" cy="1.758" rx="2.318" ry="1.758" transform="translate(0 0.468) rotate(-5.796)"/></g><g transform="translate(7.054 14.611)"><path class="p" d="M3500.188,1418.138l50.862,2.361-.36,63.353-51.733-2.4Z" transform="translate(-3498.957 -1418.138)"/></g><g transform="translate(21.453 8.643)"><path class="ba" d="M3578.527,1392.3l.186-5.526a1.722,1.722,0,0,1,1.764-1.617l20.764.964a1.335,1.335,0,0,1,1.3,1.433l-.3,5.521a1.723,1.723,0,0,1-1.762,1.585l-20.646-.958A1.334,1.334,0,0,1,3578.527,1392.3Z" transform="translate(-3578.526 -1385.158)"/></g><g transform="translate(9.607 18.61)"><g transform="translate(2.083)"><path class="bb" d="M3567.136,1442.965l-42.226-1.96a.343.343,0,0,1-.329-.4.442.442,0,0,1,.447-.368l42.226,1.96a.343.343,0,0,1,.329.4A.442.442,0,0,1,3567.136,1442.965Z" transform="translate(-3524.577 -1440.233)"/></g><g transform="translate(1.875 5.636)"><path class="bb" d="M3566.3,1474.126l-42.543-1.975a.343.343,0,0,1-.329-.4.442.442,0,0,1,.447-.368l42.543,1.975a.343.343,0,0,1,.329.4A.442.442,0,0,1,3566.3,1474.126Z" transform="translate(-3523.426 -1471.379)"/></g><g transform="translate(1.667 11.273)"><path class="bb" d="M3565.468,1505.285l-42.86-1.989a.343.343,0,0,1-.329-.4.442.442,0,0,1,.447-.368l42.86,1.989a.343.343,0,0,1,.329.4A.443.443,0,0,1,3565.468,1505.285Z" transform="translate(-3522.274 -1502.524)"/></g><g transform="translate(1.458 16.909)"><path class="bb" d="M3564.633,1536.446l-43.177-2a.343.343,0,0,1-.329-.4.443.443,0,0,1,.447-.368l43.177,2a.343.343,0,0,1,.329.4A.442.442,0,0,1,3564.633,1536.446Z" transform="translate(-3521.123 -1533.67)"/></g><g transform="translate(1.25 22.546)"><path class="bb" d="M3563.8,1567.607l-43.494-2.019a.343.343,0,0,1-.329-.4.442.442,0,0,1,.447-.368l43.494,2.019a.343.343,0,0,1,.329.4A.442.442,0,0,1,3563.8,1567.607Z" transform="translate(-3519.972 -1564.816)"/></g><g transform="translate(1.042 28.182)"><path class="bb" d="M3562.965,1598.767l-43.811-2.033a.343.343,0,0,1-.329-.4.442.442,0,0,1,.447-.368l43.811,2.034a.343.343,0,0,1,.329.4A.442.442,0,0,1,3562.965,1598.767Z" transform="translate(-3518.821 -1595.961)"/></g><g transform="translate(0.833 33.819)"><path class="bb" d="M3562.13,1629.927,3518,1627.879a.343.343,0,0,1-.329-.4.442.442,0,0,1,.447-.368l44.128,2.048a.343.343,0,0,1,.329.4A.442.442,0,0,1,3562.13,1629.927Z" transform="translate(-3517.669 -1627.107)"/></g><g transform="translate(0.625 39.455)"><path class="bb" d="M3561.3,1661.088l-44.445-2.063a.343.343,0,0,1-.329-.4.442.442,0,0,1,.447-.368l44.445,2.063a.343.343,0,0,1,.329.4A.443.443,0,0,1,3561.3,1661.088Z" transform="translate(-3516.518 -1658.253)"/></g><g transform="translate(0.417 45.091)"><path class="bb" d="M3560.462,1692.248l-44.761-2.078a.343.343,0,0,1-.329-.4.443.443,0,0,1,.447-.368l44.761,2.078a.343.343,0,0,1,.329.4A.442.442,0,0,1,3560.462,1692.248Z" transform="translate(-3515.367 -1689.398)"/></g><g transform="translate(0.208 50.728)"><path class="bb" d="M3559.628,1723.408l-45.078-2.092a.343.343,0,0,1-.329-.4.442.442,0,0,1,.447-.368l45.078,2.092a.343.343,0,0,1,.329.4A.442.442,0,0,1,3559.628,1723.408Z" transform="translate(-3514.216 -1720.544)"/></g><g transform="translate(0 56.364)"><path class="bb" d="M3558.793,1754.568l-45.4-2.107a.342.342,0,0,1-.329-.4.442.442,0,0,1,.447-.368l45.4,2.107a.343.343,0,0,1,.329.4A.442.442,0,0,1,3558.793,1754.568Z" transform="translate(-3513.064 -1751.689)"/></g></g></g></g></g></g></svg>